<?xml version="1.0" encoding="utf-8" standalone="no"?>
<!DOCTYPE svg PUBLIC "-//W3C//DTD SVG 1.1//EN"
  "http://www.w3.org/Graphics/SVG/1.1/DTD/svg11.dtd">
<svg xmlns:xlink="http://www.w3.org/1999/xlink" width="349.2pt" height="159.373828pt" viewBox="0 0 349.2 159.373828" xmlns="http://www.w3.org/2000/svg" version="1.1">
 <metadata>
  <rdf:RDF xmlns:dc="http://purl.org/dc/elements/1.1/" xmlns:cc="http://creativecommons.org/ns#" xmlns:rdf="http://www.w3.org/1999/02/22-rdf-syntax-ns#">
   <cc:Work>
    <dc:type rdf:resource="http://purl.org/dc/dcmitype/StillImage"/>
    <dc:date>2026-01-20T16:37:34.473234</dc:date>
    <dc:format>image/svg+xml</dc:format>
    <dc:creator>
     <cc:Agent>
      <dc:title>Matplotlib v3.10.8, https://matplotlib.org/</dc:title>
     </cc:Agent>
    </dc:creator>
   </cc:Work>
  </rdf:RDF>
 </metadata>
 <defs>
  <style type="text/css">*{stroke-linejoin: round; stroke-linecap: butt}</style>
 </defs>
 <g id="figure_1">
  <g id="patch_1">
   <path d="M 0 159.373828 
L 349.2 159.373828 
L 349.2 0 
L 0 0 
z
" style="fill: #ffffff"/>
  </g>
  <g id="axes_1">
   <g id="patch_2">
    <path d="M 7.2 152.173828 
L 342 152.173828 
L 342 13.573828 
L 7.2 13.573828 
z
" style="fill: #ffffff"/>
   </g>
   <g id="matplotlib.axis_1">
    <g id="text_1">
     <!-- t -->
     <g transform="translate(337.852656 95.700503) scale(0.11 -0.11)">
      <defs>
       <path id="NotoSansKR-Regular-74" d="M 1677 -83 
Q 1312 -83 1094 61 
Q 877 205 784 467 
Q 691 730 691 1075 
L 691 3002 
L 173 3002 
L 173 3443 
L 723 3475 
L 787 4454 
L 1274 4454 
L 1274 3475 
L 2221 3475 
L 2221 3002 
L 1274 3002 
L 1274 1056 
Q 1274 742 1392 566 
Q 1510 390 1811 390 
Q 1907 390 2016 419 
Q 2125 448 2208 486 
L 2323 45 
Q 2176 -6 2009 -44 
Q 1843 -83 1677 -83 
z
" transform="scale(0.015625)"/>
      </defs>
      <use xlink:href="#NotoSansKR-Regular-74"/>
     </g>
    </g>
   </g>
   <g id="matplotlib.axis_2">
    <g id="text_2">
     <!-- g(t) -->
     <g transform="translate(152.812656 10.823828) scale(0.11 -0.11)">
      <defs>
       <path id="NotoSansKR-Regular-67" d="M 1760 -1600 
Q 1338 -1600 1011 -1491 
Q 685 -1382 505 -1174 
Q 326 -966 326 -672 
Q 326 -448 460 -240 
Q 595 -32 838 115 
L 838 147 
Q 704 230 614 371 
Q 525 512 525 717 
Q 525 934 649 1100 
Q 774 1267 909 1363 
L 909 1389 
Q 736 1523 595 1766 
Q 454 2010 454 2323 
Q 454 2707 633 2985 
Q 813 3264 1110 3414 
Q 1408 3565 1754 3565 
Q 1907 3565 2032 3539 
Q 2157 3514 2246 3475 
L 3456 3475 
L 3456 3027 
L 2746 3027 
Q 2874 2906 2950 2720 
Q 3027 2534 3027 2310 
Q 3027 1939 2857 1667 
Q 2688 1395 2400 1248 
Q 2112 1101 1754 1101 
Q 1632 1101 1494 1133 
Q 1357 1165 1242 1222 
Q 1146 1146 1082 1050 
Q 1018 954 1018 806 
Q 1018 646 1146 537 
Q 1274 429 1626 429 
L 2310 429 
Q 2912 429 3216 230 
Q 3520 32 3520 -397 
Q 3520 -717 3302 -992 
Q 3085 -1267 2691 -1433 
Q 2298 -1600 1760 -1600 
z
M 1754 1498 
Q 1958 1498 2128 1600 
Q 2298 1702 2397 1888 
Q 2496 2074 2496 2323 
Q 2496 2579 2397 2761 
Q 2298 2944 2131 3040 
Q 1965 3136 1754 3136 
Q 1555 3136 1385 3040 
Q 1216 2944 1117 2765 
Q 1018 2586 1018 2323 
Q 1018 2074 1120 1888 
Q 1222 1702 1388 1600 
Q 1555 1498 1754 1498 
z
M 1843 -1197 
Q 2176 -1197 2422 -1094 
Q 2669 -992 2806 -829 
Q 2944 -666 2944 -493 
Q 2944 -243 2765 -147 
Q 2586 -51 2240 -51 
L 1638 -51 
Q 1542 -51 1424 -41 
Q 1306 -32 1190 0 
Q 1005 -128 921 -285 
Q 838 -442 838 -589 
Q 838 -864 1104 -1030 
Q 1370 -1197 1843 -1197 
z
" transform="scale(0.015625)"/>
       <path id="NotoSansKR-Regular-28" d="M 1530 -1254 
Q 1088 -538 838 252 
Q 589 1043 589 1990 
Q 589 2931 838 3724 
Q 1088 4518 1530 5235 
L 1888 5069 
Q 1478 4384 1276 3593 
Q 1075 2803 1075 1990 
Q 1075 1171 1276 380 
Q 1478 -410 1888 -1094 
L 1530 -1254 
z
" transform="scale(0.015625)"/>
       <path id="NotoSansKR-Regular-29" d="M 634 -1254 
L 269 -1094 
Q 685 -410 889 380 
Q 1094 1171 1094 1990 
Q 1094 2803 889 3593 
Q 685 4384 269 5069 
L 634 5235 
Q 1082 4518 1328 3724 
Q 1574 2931 1574 1990 
Q 1574 1043 1328 252 
Q 1082 -538 634 -1254 
z
" transform="scale(0.015625)"/>
      </defs>
      <use xlink:href="#NotoSansKR-Regular-67"/>
      <use xlink:href="#NotoSansKR-Regular-28" transform="translate(56.399994 0)"/>
      <use xlink:href="#NotoSansKR-Regular-74" transform="translate(90.199982 0)"/>
      <use xlink:href="#NotoSansKR-Regular-29" transform="translate(127.899979 0)"/>
     </g>
    </g>
   </g>
   <g id="line2d_1">
    <path d="M 22.418182 20.124421 
L 22.874956 19.873828 
L 23.179472 19.948125 
L 23.483987 20.214005 
L 23.940761 20.966244 
L 24.549793 22.607318 
L 25.158825 24.935251 
L 25.920115 28.717481 
L 26.98592 35.368147 
L 28.356242 45.505489 
L 31.553659 69.778858 
L 32.771722 77.048078 
L 33.68527 81.241598 
L 34.44656 83.812842 
L 35.055591 85.246275 
L 35.664623 86.131304 
L 36.121397 86.447782 
L 36.578171 86.482388 
L 37.034945 86.25397 
L 37.491719 85.78522 
L 38.10075 84.83188 
L 38.86204 83.211683 
L 40.080104 79.987589 
L 42.211715 74.225886 
L 43.125263 72.3615 
L 43.886552 71.296885 
L 44.495584 70.820964 
L 44.952358 70.699765 
L 45.409132 70.786533 
L 45.865906 71.081897 
L 46.474937 71.7933 
L 47.083969 72.84856 
L 47.845259 74.601038 
L 48.911065 77.702348 
L 50.73816 83.931924 
L 52.412997 89.340702 
L 53.478803 92.015495 
L 54.240093 93.385733 
L 54.849125 94.110162 
L 55.458156 94.486246 
L 55.91493 94.537643 
L 56.371704 94.395223 
L 56.980736 93.91841 
L 57.589768 93.142378 
L 58.351057 91.817638 
L 59.569121 89.141313 
L 61.700732 84.34899 
L 62.462022 83.120901 
L 63.071054 82.482946 
L 63.527828 82.248561 
L 63.984601 82.250215 
L 64.441375 82.508314 
L 64.898149 83.039353 
L 65.507181 84.192435 
L 66.116213 85.868111 
L 66.877502 88.697385 
L 67.79105 93.121324 
L 68.856856 99.529458 
L 70.379435 110.352448 
L 73.424594 132.598678 
L 74.4904 138.7134 
L 75.251689 142.075849 
L 76.012979 144.436459 
L 76.469753 145.32537 
L 76.926527 145.797075 
L 77.231043 145.873828 
L 77.535559 145.75782 
L 77.992333 145.22052 
L 78.449106 144.248863 
L 79.058138 142.290345 
L 79.819428 138.823725 
L 80.732976 133.30291 
L 81.798781 125.289035 
L 83.321361 111.823081 
L 86.823293 80.024102 
L 88.041357 71.212809 
L 89.107163 65.151364 
L 90.02071 61.302648 
L 90.782 59.053288 
L 91.391032 57.855825 
L 92.000064 57.156215 
L 92.456838 56.930019 
L 92.913611 56.933293 
L 93.370385 57.13919 
L 93.979417 57.678307 
L 94.740707 58.673387 
L 96.263286 61.167319 
L 97.48135 63.016915 
L 98.24264 63.862492 
L 98.851671 64.290987 
L 99.460703 64.463547 
L 100.069735 64.360793 
L 100.678767 63.976477 
L 101.287798 63.317519 
L 102.049088 62.138743 
L 102.962636 60.291923 
L 104.485215 56.598188 
L 106.160053 52.650562 
L 107.0736 51.02068 
L 107.83489 50.136068 
L 108.443922 49.808598 
L 108.900696 49.810504 
L 109.35747 50.037984 
L 109.814243 50.498863 
L 110.423275 51.482147 
L 111.032307 52.883114 
L 111.793597 55.194373 
L 112.707144 58.701833 
L 113.925208 64.337808 
L 117.731657 82.765256 
L 118.645204 85.814871 
L 119.406494 87.574571 
L 120.015526 88.400701 
L 120.4723 88.658301 
L 120.929074 88.595947 
L 121.385847 88.210337 
L 121.842621 87.503294 
L 122.451653 86.073388 
L 123.212943 83.548999 
L 124.126491 79.567568 
L 125.344554 73.02926 
L 129.151003 51.417862 
L 130.06455 47.873599 
L 130.673582 46.190931 
L 131.282614 45.127942 
L 131.739388 44.766995 
L 132.043904 44.742634 
L 132.34842 44.894907 
L 132.805194 45.458353 
L 133.261967 46.425029 
L 133.870999 48.333941 
L 134.632289 51.679981 
L 135.545837 56.98886 
L 136.611642 64.69149 
L 138.134222 77.651753 
L 141.636154 108.292225 
L 142.854218 116.726237 
L 143.767766 121.737644 
L 144.681313 125.496018 
L 145.442603 127.646756 
L 146.051635 128.739132 
L 146.508409 129.20907 
L 146.965183 129.397534 
L 147.421956 129.32469 
L 147.87873 129.013923 
L 148.487762 128.274927 
L 149.249052 126.925641 
L 150.314857 124.497491 
L 153.207758 117.564911 
L 154.121306 115.997005 
L 154.882596 115.073287 
L 155.643886 114.517987 
L 156.252917 114.330659 
L 156.861949 114.349557 
L 157.623239 114.612243 
L 158.689045 115.265885 
L 160.211624 116.217688 
L 160.972914 116.425939 
L 161.581946 116.349058 
L 162.190977 115.991015 
L 162.800009 115.298923 
L 163.409041 114.22856 
L 164.170331 112.308385 
L 164.93162 109.706094 
L 165.845168 105.675875 
L 166.910974 99.797823 
L 168.281295 90.715613 
L 173.001292 57.559311 
L 173.914839 53.127078 
L 174.676129 50.387919 
L 175.285161 48.889424 
L 175.741935 48.190718 
L 176.198708 47.864479 
L 176.503224 47.854905 
L 176.80774 48.010828 
L 177.264514 48.550574 
L 177.721288 49.447342 
L 178.33032 51.170041 
L 179.091609 54.095311 
L 180.005157 58.559448 
L 181.375479 66.599009 
L 184.26838 84.069884 
L 185.334185 88.987361 
L 186.095475 91.581477 
L 186.704507 93.014378 
L 187.161281 93.686083 
L 187.618054 93.999392 
L 187.92257 94.00603 
L 188.227086 93.850258 
L 188.68386 93.313852 
L 189.140634 92.420551 
L 189.749666 90.695793 
L 190.510955 87.744168 
L 191.424503 83.189967 
L 192.642567 75.825703 
L 196.905789 48.676617 
L 197.819337 44.559273 
L 198.580627 41.953307 
L 199.189658 40.453697 
L 199.79869 39.489844 
L 200.255464 39.118224 
L 200.712238 39.04146 
L 201.169012 39.249178 
L 201.625786 39.726885 
L 202.234817 40.751747 
L 202.996107 42.580891 
L 203.909655 45.417904 
L 205.279976 50.492166 
L 207.868361 60.160735 
L 208.934167 63.331903 
L 209.847715 65.456156 
L 210.761262 67.001087 
L 211.522552 67.871531 
L 212.283842 68.419672 
L 213.19739 68.767613 
L 215.633517 69.458882 
L 216.242549 69.927389 
L 216.85158 70.641877 
L 217.460612 71.658429 
L 218.221902 73.426136 
L 218.983192 75.811458 
L 219.896739 79.545968 
L 220.810287 84.238309 
L 221.876093 90.83557 
L 223.246414 100.73124 
L 227.357379 131.613113 
L 228.423184 137.463092 
L 229.184474 140.575885 
L 229.793506 142.333123 
L 230.25028 143.193201 
L 230.707054 143.645968 
L 231.011569 143.717473 
L 231.316085 143.603408 
L 231.772859 143.084863 
L 232.229633 142.154112 
L 232.838665 140.290461 
L 233.599955 137.017919 
L 234.513502 131.858718 
L 235.579308 124.470367 
L 237.254145 111.065938 
L 239.690272 91.738705 
L 240.908336 83.914999 
L 241.821884 79.369899 
L 242.583173 76.58328 
L 243.192205 75.046438 
L 243.801237 74.132194 
L 244.258011 73.848923 
L 244.714785 73.899088 
L 245.171559 74.267038 
L 245.628332 74.932548 
L 246.237364 76.24002 
L 246.998654 78.452091 
L 248.06446 82.347699 
L 251.71865 96.604923 
L 252.632198 98.967741 
L 253.24123 100.057895 
L 253.850261 100.72129 
L 254.307035 100.927862 
L 254.763809 100.882444 
L 255.220583 100.58762 
L 255.677357 100.050373 
L 256.286389 98.976836 
L 257.047678 97.115158 
L 257.961226 94.248723 
L 259.331548 89.092076 
L 262.072191 78.584896 
L 263.137996 75.411111 
L 264.051544 73.38194 
L 264.812834 72.231328 
L 265.421865 71.668666 
L 266.030897 71.410517 
L 266.639929 71.431001 
L 267.248961 71.692561 
L 268.010251 72.284593 
L 269.380572 73.74007 
L 270.598636 74.92691 
L 271.359925 75.357126 
L 271.968957 75.423726 
L 272.425731 75.273428 
L 272.882505 74.927868 
L 273.491537 74.133293 
L 274.100568 72.928956 
L 274.861858 70.820528 
L 275.623148 68.039225 
L 276.536696 63.859956 
L 277.754759 57.074173 
L 279.581855 45.33471 
L 281.561208 32.922321 
L 282.627014 27.496902 
L 283.388303 24.520259 
L 283.997335 22.795961 
L 284.606367 21.725344 
L 285.063141 21.381807 
L 285.367657 21.380532 
L 285.672172 21.565423 
L 286.128946 22.196386 
L 286.58572 23.253922 
L 287.194752 25.322309 
L 287.956042 28.93286 
L 288.869589 34.659739 
L 289.935395 42.992017 
L 291.305716 55.61316 
L 295.416681 94.919633 
L 296.482487 102.760622 
L 297.396034 108.096006 
L 298.157324 111.469643 
L 298.918614 113.840277 
L 299.527646 115.024114 
L 299.984419 115.512123 
L 300.441193 115.675266 
L 300.897967 115.534316 
L 301.354741 115.11392 
L 301.963773 114.167605 
L 302.725063 112.470364 
L 303.790868 109.421617 
L 306.836027 100.166719 
L 307.749575 98.218343 
L 308.510865 97.118117 
L 309.119896 96.616255 
L 309.57667 96.467052 
L 310.033444 96.511155 
L 310.490218 96.742651 
L 311.09925 97.324982 
L 311.860539 98.442765 
L 312.774087 100.234655 
L 314.448924 104.162416 
L 315.819246 107.189149 
L 316.732794 108.720919 
L 317.494083 109.544204 
L 318.103115 109.847888 
L 318.559889 109.849435 
L 319.016663 109.648734 
L 319.625695 109.061771 
L 320.234726 108.114466 
L 320.996016 106.45143 
L 321.909564 103.839224 
L 323.127627 99.584349 
L 326.172786 88.463103 
L 326.781818 86.755776 
L 326.781818 86.755776 
" clip-path="url(#pf19f190c0e)" style="fill: none; stroke: #000000; stroke-width: 1.5; stroke-linecap: square"/>
   </g>
   <g id="patch_3">
    <path d="M 174.6 152.173828 
L 174.6 13.573828 
" style="fill: none; stroke: #000000; stroke-width: 0.8; stroke-linejoin: miter; stroke-linecap: square"/>
   </g>
   <g id="patch_4">
    <path d="M 7.2 82.94519 
L 342 82.94519 
" style="fill: none; stroke: #000000; stroke-width: 0.8; stroke-linejoin: miter; stroke-linecap: square"/>
   </g>
  </g>
 </g>
 <defs>
  <clipPath id="pf19f190c0e">
   <rect x="7.2" y="13.573828" width="334.8" height="138.6"/>
  </clipPath>
 </defs>
</svg>
