<?xml version="1.0" encoding="utf-8" standalone="no"?>
<!DOCTYPE svg PUBLIC "-//W3C//DTD SVG 1.1//EN"
  "http://www.w3.org/Graphics/SVG/1.1/DTD/svg11.dtd">
<svg xmlns:xlink="http://www.w3.org/1999/xlink" width="593.221094pt" height="169.55625pt" viewBox="0 0 593.221094 169.55625" xmlns="http://www.w3.org/2000/svg" version="1.1">
 <metadata>
  <rdf:RDF xmlns:dc="http://purl.org/dc/elements/1.1/" xmlns:cc="http://creativecommons.org/ns#" xmlns:rdf="http://www.w3.org/1999/02/22-rdf-syntax-ns#">
   <cc:Work>
    <dc:type rdf:resource="http://purl.org/dc/dcmitype/StillImage"/>
    <dc:date>2026-01-16T10:18:34.784999</dc:date>
    <dc:format>image/svg+xml</dc:format>
    <dc:creator>
     <cc:Agent>
      <dc:title>Matplotlib v3.10.8, https://matplotlib.org/</dc:title>
     </cc:Agent>
    </dc:creator>
   </cc:Work>
  </rdf:RDF>
 </metadata>
 <defs>
  <style type="text/css">*{stroke-linejoin: round; stroke-linecap: butt}</style>
 </defs>
 <g id="figure_1">
  <g id="patch_1">
   <path d="M 0 169.55625 
L 593.221094 169.55625 
L 593.221094 0 
L 0 0 
z
" style="fill: #ffffff"/>
  </g>
  <g id="axes_1">
   <g id="patch_2">
    <path d="M 17.654688 132.928125 
L 575.654688 132.928125 
L 575.654688 22.048125 
L 17.654688 22.048125 
z
" style="fill: #ffffff"/>
   </g>
   <g id="PolyCollection_1">
    <defs>
     <path id="mb48854e162" d="M 45.554688 -41.668125 
L 45.554688 -142.468125 
L 185.054688 -142.468125 
L 185.054688 -41.668125 
z
" style="stroke: #ffffff"/>
    </defs>
    <g clip-path="url(#p0d65e50a3e)">
     <use xlink:href="#mb48854e162" x="0" y="169.55625" style="fill: #db2777; stroke: #ffffff"/>
    </g>
   </g>
   <g id="PolyCollection_2">
    <defs>
     <path id="m6badbeda7f" d="M 185.054688 -41.668125 
L 185.054688 -142.468125 
L 324.554688 -142.468125 
L 324.554688 -41.668125 
z
" style="stroke: #ffffff"/>
    </defs>
    <g clip-path="url(#p0d65e50a3e)">
     <use xlink:href="#m6badbeda7f" x="0" y="169.55625" style="fill: #1e293b; stroke: #ffffff"/>
    </g>
   </g>
   <g id="PolyCollection_3">
    <defs>
     <path id="m2d5e1758d0" d="M 324.554688 -41.668125 
L 324.554688 -142.468125 
L 464.054688 -142.468125 
L 464.054688 -41.668125 
z
" style="stroke: #ffffff"/>
    </defs>
    <g clip-path="url(#p0d65e50a3e)">
     <use xlink:href="#m2d5e1758d0" x="0" y="169.55625" style="fill: #e11d48; stroke: #ffffff"/>
    </g>
   </g>
   <g id="matplotlib.axis_1">
    <g id="xtick_1">
     <g id="line2d_1">
      <defs>
       <path id="m9a94355ee9" d="M 0 0 
L 0 3.5 
" style="stroke: #000000; stroke-width: 0.8"/>
      </defs>
      <g>
       <use xlink:href="#m9a94355ee9" x="17.654688" y="132.928125" style="stroke: #000000; stroke-width: 0.8"/>
      </g>
     </g>
     <g id="text_1">
      <!-- 3.40 -->
      <g transform="translate(7.2 146.998438) scale(0.1 -0.1)">
       <defs>
        <path id="Pretendard-Regular-33" d="M 1988 -63 
C 2888 -63 3569 488 3563 1231 
C 3569 1806 3206 2225 2619 2319 
L 2619 2350 
C 3094 2481 3394 2863 3388 3375 
C 3394 4025 2869 4588 2006 4588 
C 1200 4588 538 4106 506 3388 
L 1050 3388 
C 1075 3831 1519 4100 2000 4100 
C 2513 4100 2844 3794 2844 3344 
C 2844 2875 2463 2569 1913 2569 
L 1544 2569 
L 1544 2075 
L 1913 2075 
C 2619 2075 3013 1725 3013 1231 
C 3013 763 2575 438 1981 438 
C 1444 438 1013 706 981 1138 
L 413 1138 
C 444 419 1088 -63 1988 -63 
z
" transform="scale(0.015625)"/>
        <path id="Pretendard-Regular-2e" d="M 813 -38 
C 1031 -38 1213 144 1213 369 
C 1213 588 1031 769 813 769 
C 594 769 406 588 413 369 
C 406 144 594 -38 813 -38 
z
" transform="scale(0.015625)"/>
        <path id="Pretendard-Regular-34" d="M 313 925 
L 2506 925 
L 2506 0 
L 3044 0 
L 3044 925 
L 3675 925 
L 3675 1419 
L 3044 1419 
L 3044 4525 
L 2350 4525 
L 313 1388 
L 313 925 
z
M 919 1419 
L 919 1456 
L 2450 3813 
L 2506 3813 
L 2506 1419 
L 919 1419 
z
" transform="scale(0.015625)"/>
        <path id="Pretendard-Regular-30" d="M 1906 -63 
C 2906 -63 3488 781 3488 2263 
C 3488 3731 2900 4588 1906 4588 
C 913 4588 325 3731 325 2263 
C 325 781 900 -63 1906 -63 
z
M 1906 438 
C 1250 438 869 1094 869 2263 
C 869 3431 1256 4100 1906 4100 
C 2556 4100 2938 3431 2938 2263 
C 2938 1094 2556 438 1906 438 
z
" transform="scale(0.015625)"/>
       </defs>
       <use xlink:href="#Pretendard-Regular-33"/>
       <use xlink:href="#Pretendard-Regular-2e" transform="translate(61.71875 0)"/>
       <use xlink:href="#Pretendard-Regular-34" transform="translate(87.109375 0)"/>
       <use xlink:href="#Pretendard-Regular-30" transform="translate(149.511719 0)"/>
      </g>
     </g>
    </g>
    <g id="xtick_2">
     <g id="line2d_2">
      <g>
       <use xlink:href="#m9a94355ee9" x="87.404688" y="132.928125" style="stroke: #000000; stroke-width: 0.8"/>
      </g>
     </g>
     <g id="text_2">
      <!-- 3.45 -->
      <g transform="translate(76.945313 146.998438) scale(0.1 -0.1)">
       <defs>
        <path id="Pretendard-Regular-35" d="M 1900 -63 
C 2800 -63 3463 569 3463 1444 
C 3463 2325 2825 2963 1963 2963 
C 1644 2963 1338 2856 1138 2700 
L 1094 2700 
L 1263 4025 
L 3244 4025 
L 3244 4525 
L 794 4525 
L 475 2050 
L 1019 2050 
C 1188 2344 1481 2463 1863 2456 
C 2469 2450 2913 2019 2913 1431 
C 2913 863 2488 431 1900 431 
C 1413 431 1019 731 975 1138 
L 431 1138 
C 463 444 1081 -63 1900 -63 
z
" transform="scale(0.015625)"/>
       </defs>
       <use xlink:href="#Pretendard-Regular-33"/>
       <use xlink:href="#Pretendard-Regular-2e" transform="translate(61.71875 0)"/>
       <use xlink:href="#Pretendard-Regular-34" transform="translate(87.109375 0)"/>
       <use xlink:href="#Pretendard-Regular-35" transform="translate(149.511719 0)"/>
      </g>
     </g>
    </g>
    <g id="xtick_3">
     <g id="line2d_3">
      <g>
       <use xlink:href="#m9a94355ee9" x="157.154688" y="132.928125" style="stroke: #000000; stroke-width: 0.8"/>
      </g>
     </g>
     <g id="text_3">
      <!-- 3.50 -->
      <g transform="translate(146.836719 146.998438) scale(0.1 -0.1)">
       <use xlink:href="#Pretendard-Regular-33"/>
       <use xlink:href="#Pretendard-Regular-2e" transform="translate(61.71875 0)"/>
       <use xlink:href="#Pretendard-Regular-35" transform="translate(87.109375 0)"/>
       <use xlink:href="#Pretendard-Regular-30" transform="translate(146.777344 0)"/>
      </g>
     </g>
    </g>
    <g id="xtick_4">
     <g id="line2d_4">
      <g>
       <use xlink:href="#m9a94355ee9" x="226.904688" y="132.928125" style="stroke: #000000; stroke-width: 0.8"/>
      </g>
     </g>
     <g id="text_4">
      <!-- 3.55 -->
      <g transform="translate(216.582031 146.998438) scale(0.1 -0.1)">
       <use xlink:href="#Pretendard-Regular-33"/>
       <use xlink:href="#Pretendard-Regular-2e" transform="translate(61.71875 0)"/>
       <use xlink:href="#Pretendard-Regular-35" transform="translate(87.109375 0)"/>
       <use xlink:href="#Pretendard-Regular-35" transform="translate(146.777344 0)"/>
      </g>
     </g>
    </g>
    <g id="xtick_5">
     <g id="line2d_5">
      <g>
       <use xlink:href="#m9a94355ee9" x="296.654688" y="132.928125" style="stroke: #000000; stroke-width: 0.8"/>
      </g>
     </g>
     <g id="text_5">
      <!-- 3.60 -->
      <g transform="translate(286.253906 146.998438) scale(0.1 -0.1)">
       <defs>
        <path id="Pretendard-Regular-36" d="M 2000 -63 
C 2950 -69 3575 613 3575 1463 
C 3575 2338 2906 2963 2100 2963 
C 1613 2963 1200 2738 938 2363 
L 881 2363 
C 881 3450 1325 4088 2069 4088 
C 2575 4088 2875 3788 2981 3388 
L 3538 3388 
C 3419 4100 2863 4588 2069 4588 
C 1006 4588 350 3688 350 2088 
C 350 413 1213 -50 2000 -63 
z
M 2000 431 
C 1394 431 956 919 956 1450 
C 963 1988 1419 2469 2013 2469 
C 2606 2469 3025 2013 3031 1456 
C 3025 894 2588 431 2000 431 
z
" transform="scale(0.015625)"/>
       </defs>
       <use xlink:href="#Pretendard-Regular-33"/>
       <use xlink:href="#Pretendard-Regular-2e" transform="translate(61.71875 0)"/>
       <use xlink:href="#Pretendard-Regular-36" transform="translate(87.109375 0)"/>
       <use xlink:href="#Pretendard-Regular-30" transform="translate(148.4375 0)"/>
      </g>
     </g>
    </g>
    <g id="xtick_6">
     <g id="line2d_6">
      <g>
       <use xlink:href="#m9a94355ee9" x="366.404688" y="132.928125" style="stroke: #000000; stroke-width: 0.8"/>
      </g>
     </g>
     <g id="text_6">
      <!-- 3.65 -->
      <g transform="translate(355.999219 146.998438) scale(0.1 -0.1)">
       <use xlink:href="#Pretendard-Regular-33"/>
       <use xlink:href="#Pretendard-Regular-2e" transform="translate(61.71875 0)"/>
       <use xlink:href="#Pretendard-Regular-36" transform="translate(87.109375 0)"/>
       <use xlink:href="#Pretendard-Regular-35" transform="translate(148.4375 0)"/>
      </g>
     </g>
    </g>
    <g id="xtick_7">
     <g id="line2d_7">
      <g>
       <use xlink:href="#m9a94355ee9" x="436.154688" y="132.928125" style="stroke: #000000; stroke-width: 0.8"/>
      </g>
     </g>
     <g id="text_7">
      <!-- 3.70 -->
      <g transform="translate(426.061719 146.998438) scale(0.1 -0.1)">
       <defs>
        <path id="Pretendard-Regular-37" d="M 569 0 
L 1156 0 
L 3225 4000 
L 3225 4525 
L 250 4525 
L 250 4025 
L 2644 4025 
L 2644 3994 
L 569 0 
z
" transform="scale(0.015625)"/>
       </defs>
       <use xlink:href="#Pretendard-Regular-33"/>
       <use xlink:href="#Pretendard-Regular-2e" transform="translate(61.71875 0)"/>
       <use xlink:href="#Pretendard-Regular-37" transform="translate(87.109375 0)"/>
       <use xlink:href="#Pretendard-Regular-30" transform="translate(142.285156 0)"/>
      </g>
     </g>
    </g>
    <g id="xtick_8">
     <g id="line2d_8">
      <g>
       <use xlink:href="#m9a94355ee9" x="505.904688" y="132.928125" style="stroke: #000000; stroke-width: 0.8"/>
      </g>
     </g>
     <g id="text_8">
      <!-- 3.75 -->
      <g transform="translate(495.807031 146.998438) scale(0.1 -0.1)">
       <use xlink:href="#Pretendard-Regular-33"/>
       <use xlink:href="#Pretendard-Regular-2e" transform="translate(61.71875 0)"/>
       <use xlink:href="#Pretendard-Regular-37" transform="translate(87.109375 0)"/>
       <use xlink:href="#Pretendard-Regular-35" transform="translate(142.285156 0)"/>
      </g>
     </g>
    </g>
    <g id="xtick_9">
     <g id="line2d_9">
      <g>
       <use xlink:href="#m9a94355ee9" x="575.654688" y="132.928125" style="stroke: #000000; stroke-width: 0.8"/>
      </g>
     </g>
     <g id="text_9">
      <!-- 3.80 -->
      <g transform="translate(565.288281 146.998438) scale(0.1 -0.1)">
       <defs>
        <path id="Pretendard-Regular-38" d="M 1938 -63 
C 2881 -63 3544 463 3550 1200 
C 3544 1788 3138 2269 2625 2350 
L 2625 2375 
C 3069 2481 3369 2894 3375 3388 
C 3369 4081 2763 4588 1938 4588 
C 1113 4588 506 4081 506 3388 
C 506 2894 800 2481 1250 2375 
L 1250 2350 
C 731 2269 325 1788 331 1200 
C 325 463 988 -63 1938 -63 
z
M 1938 431 
C 1288 431 881 756 894 1231 
C 881 1731 1331 2100 1938 2100 
C 2544 2100 2988 1731 2988 1231 
C 2988 756 2588 431 1938 431 
z
M 1938 2575 
C 1419 2575 1050 2888 1050 3344 
C 1050 3794 1400 4100 1938 4100 
C 2469 4100 2825 3794 2825 3344 
C 2825 2888 2450 2575 1938 2575 
z
" transform="scale(0.015625)"/>
       </defs>
       <use xlink:href="#Pretendard-Regular-33"/>
       <use xlink:href="#Pretendard-Regular-2e" transform="translate(61.71875 0)"/>
       <use xlink:href="#Pretendard-Regular-38" transform="translate(87.109375 0)"/>
       <use xlink:href="#Pretendard-Regular-30" transform="translate(147.753906 0)"/>
      </g>
     </g>
    </g>
    <g id="text_10">
     <!-- Frequency (GHz) -->
     <g transform="translate(258.55625 160.364063) scale(0.1 -0.1)">
      <defs>
       <path id="Pretendard-Regular-46" d="M 500 0 
L 1063 0 
L 1063 2019 
L 3019 2019 
L 3019 2513 
L 1063 2513 
L 1063 4025 
L 3225 4025 
L 3225 4525 
L 500 4525 
L 500 0 
z
" transform="scale(0.015625)"/>
       <path id="Pretendard-Regular-72" d="M 431 0 
L 969 0 
L 969 2138 
C 969 2594 1331 2931 1819 2931 
C 1956 2931 2106 2906 2144 2894 
L 2144 3438 
C 2081 3444 1944 3450 1863 3450 
C 1463 3450 1113 3219 988 2875 
L 950 2875 
L 950 3394 
L 431 3394 
L 431 0 
z
" transform="scale(0.015625)"/>
       <path id="Pretendard-Regular-65" d="M 1856 -69 
C 2556 -69 3056 281 3219 794 
L 2644 794 
C 2519 581 2263 406 1856 406 
C 1250 406 831 800 806 1519 
L 3269 1519 
L 3269 1744 
C 3269 3000 2519 3438 1806 3438 
C 881 3438 269 2713 269 1669 
C 269 625 875 -69 1856 -69 
z
M 813 1975 
C 844 2500 1219 2963 1806 2963 
C 2363 2963 2725 2544 2725 1975 
L 813 1975 
z
" transform="scale(0.015625)"/>
       <path id="Pretendard-Regular-71" d="M 2738 -1275 
L 3281 -1275 
L 3281 3394 
L 2756 3394 
L 2756 2856 
L 2700 2856 
C 2588 3038 2375 3438 1719 3438 
C 869 3438 269 2763 269 1688 
C 269 613 869 -69 1713 -69 
C 2363 -69 2581 331 2700 519 
L 2738 519 
L 2738 -1275 
z
M 1788 413 
C 1144 413 813 975 813 1700 
C 813 2406 1138 2956 1788 2956 
C 2419 2956 2756 2450 2756 1700 
C 2756 938 2406 413 1788 413 
z
" transform="scale(0.015625)"/>
       <path id="Pretendard-Regular-75" d="M 2575 1394 
C 2575 763 2088 475 1706 475 
C 1275 475 969 788 969 1275 
L 969 3394 
L 431 3394 
L 431 1238 
C 431 375 888 -44 1531 -44 
C 2044 -44 2375 231 2538 575 
L 2575 575 
L 2575 0 
L 3106 0 
L 3106 3394 
L 2575 3394 
L 2575 1394 
z
" transform="scale(0.015625)"/>
       <path id="Pretendard-Regular-6e" d="M 969 2038 
C 969 2625 1331 2956 1825 2956 
C 2306 2956 2594 2644 2594 2119 
L 2594 0 
L 3131 0 
L 3131 2156 
C 3131 3019 2675 3438 1988 3438 
C 1469 3438 1156 3206 994 2863 
L 950 2863 
L 950 3394 
L 431 3394 
L 431 0 
L 969 0 
L 969 2038 
z
" transform="scale(0.015625)"/>
       <path id="Pretendard-Regular-63" d="M 1819 -69 
C 2575 -69 3069 394 3156 1000 
L 2619 1000 
C 2525 625 2219 413 1819 413 
C 1200 413 806 913 806 1700 
C 806 2463 1213 2963 1819 2963 
C 2269 2963 2544 2681 2619 2369 
L 3156 2369 
C 3069 3013 2531 3438 1806 3438 
C 881 3438 269 2713 269 1681 
C 269 663 856 -69 1819 -69 
z
" transform="scale(0.015625)"/>
       <path id="Pretendard-Regular-79" d="M 775 -1275 
C 1256 -1275 1588 -1019 1788 -488 
L 3225 3394 
L 2638 3394 
L 1713 700 
L 1675 700 
L 750 3394 
L 163 3394 
L 1419 -25 
L 1319 -281 
C 1138 -775 956 -794 738 -794 
C 656 -794 531 -788 475 -781 
L 475 -1263 
C 544 -1269 656 -1275 775 -1275 
z
" transform="scale(0.015625)"/>
       <path id="Pretendard-Regular-20" transform="scale(0.015625)"/>
       <path id="Pretendard-Regular-28" d="M 569 1725 
C 575 544 894 -438 1469 -1275 
L 1944 -1275 
C 1519 -656 1125 613 1125 1725 
C 1125 2838 1519 4100 1944 4719 
L 1469 4719 
C 894 3888 575 2906 569 1725 
z
" transform="scale(0.015625)"/>
       <path id="Pretendard-Regular-47" d="M 3588 3113 
L 4169 3113 
C 4000 3988 3263 4588 2306 4588 
C 1144 4588 325 3694 325 2263 
C 325 831 1138 -63 2344 -63 
C 3419 -63 4194 656 4194 1781 
L 4194 2269 
L 2463 2269 
L 2463 1775 
L 3644 1775 
C 3631 975 3109 463 2344 463 
C 1506 463 869 1094 869 2263 
C 869 3431 1506 4063 2306 4063 
C 2950 4063 3394 3694 3588 3113 
z
" transform="scale(0.015625)"/>
       <path id="Pretendard-Regular-48" d="M 500 0 
L 1063 0 
L 1063 2019 
L 3456 2019 
L 3456 0 
L 4025 0 
L 4025 4525 
L 3456 4525 
L 3456 2513 
L 1063 2513 
L 1063 4525 
L 500 4525 
L 500 0 
z
" transform="scale(0.015625)"/>
       <path id="Pretendard-Regular-7a" d="M 331 0 
L 3000 0 
L 3000 494 
L 1081 494 
L 1081 531 
L 2938 2969 
L 2938 3394 
L 394 3394 
L 394 2900 
L 2244 2900 
L 2244 2863 
L 331 406 
L 331 0 
z
" transform="scale(0.015625)"/>
       <path id="Pretendard-Regular-29" d="M 1613 1725 
C 1606 2906 1288 3888 713 4719 
L 238 4719 
C 663 4100 1056 2838 1056 1725 
C 1056 613 663 -656 238 -1275 
L 713 -1275 
C 1288 -438 1606 544 1613 1725 
z
" transform="scale(0.015625)"/>
      </defs>
      <use xlink:href="#Pretendard-Regular-46"/>
      <use xlink:href="#Pretendard-Regular-72" transform="translate(55.664062 0)"/>
      <use xlink:href="#Pretendard-Regular-65" transform="translate(90.625 0)"/>
      <use xlink:href="#Pretendard-Regular-71" transform="translate(145.898438 0)"/>
      <use xlink:href="#Pretendard-Regular-75" transform="translate(203.808594 0)"/>
      <use xlink:href="#Pretendard-Regular-65" transform="translate(259.082031 0)"/>
      <use xlink:href="#Pretendard-Regular-6e" transform="translate(314.355469 0)"/>
      <use xlink:href="#Pretendard-Regular-63" transform="translate(370.019531 0)"/>
      <use xlink:href="#Pretendard-Regular-79" transform="translate(422.949219 0)"/>
      <use xlink:href="#Pretendard-Regular-20" transform="translate(475.878906 0)"/>
      <use xlink:href="#Pretendard-Regular-28" transform="translate(500.976562 0)"/>
      <use xlink:href="#Pretendard-Regular-47" transform="translate(535.058594 0)"/>
      <use xlink:href="#Pretendard-Regular-48" transform="translate(605.957031 0)"/>
      <use xlink:href="#Pretendard-Regular-7a" transform="translate(676.5625 0)"/>
      <use xlink:href="#Pretendard-Regular-29" transform="translate(727.832031 0)"/>
     </g>
    </g>
   </g>
   <g id="matplotlib.axis_2"/>
   <g id="patch_3">
    <path d="M 17.654688 132.928125 
L 17.654688 22.048125 
" style="fill: none; stroke: #000000; stroke-width: 0.8; stroke-linejoin: miter; stroke-linecap: square"/>
   </g>
   <g id="patch_4">
    <path d="M 575.654688 132.928125 
L 575.654688 22.048125 
" style="fill: none; stroke: #000000; stroke-width: 0.8; stroke-linejoin: miter; stroke-linecap: square"/>
   </g>
   <g id="patch_5">
    <path d="M 17.654688 132.928125 
L 575.654688 132.928125 
" style="fill: none; stroke: #000000; stroke-width: 0.8; stroke-linejoin: miter; stroke-linecap: square"/>
   </g>
   <g id="patch_6">
    <path d="M 17.654688 22.048125 
L 575.654688 22.048125 
" style="fill: none; stroke: #000000; stroke-width: 0.8; stroke-linejoin: miter; stroke-linecap: square"/>
   </g>
   <g id="text_11">
    <!-- LG U+ -->
    <g style="fill: #ffffff" transform="translate(101.167969 80.027187) scale(0.1 -0.1)">
     <defs>
      <path id="Pretendard-Regular-4c" d="M 500 0 
L 3163 0 
L 3163 500 
L 1063 500 
L 1063 4525 
L 500 4525 
L 500 0 
z
" transform="scale(0.015625)"/>
      <path id="Pretendard-Regular-55" d="M 3463 4525 
L 3463 1575 
C 3463 919 3013 444 2263 444 
C 1519 444 1063 919 1063 1575 
L 1063 4525 
L 500 4525 
L 500 1531 
C 500 600 1194 -81 2263 -81 
C 3331 -81 4025 600 4025 1531 
L 4025 4525 
L 3463 4525 
z
" transform="scale(0.015625)"/>
      <path id="Pretendard-Regular-2b" d="M 1750 306 
L 2256 306 
L 2256 1519 
L 3469 1519 
L 3469 2025 
L 2256 2025 
L 2256 3231 
L 1750 3231 
L 1750 2025 
L 544 2025 
L 544 1519 
L 1750 1519 
L 1750 306 
z
" transform="scale(0.015625)"/>
     </defs>
     <use xlink:href="#Pretendard-Regular-4c"/>
     <use xlink:href="#Pretendard-Regular-47" transform="translate(53.320312 0)"/>
     <use xlink:href="#Pretendard-Regular-20" transform="translate(124.21875 0)"/>
     <use xlink:href="#Pretendard-Regular-55" transform="translate(149.316406 0)"/>
     <use xlink:href="#Pretendard-Regular-2b" transform="translate(220.019531 0)"/>
    </g>
   </g>
   <g id="text_12">
    <!-- KT -->
    <g style="fill: #ffffff" transform="translate(248.642188 80.027187) scale(0.1 -0.1)">
     <defs>
      <path id="Pretendard-Regular-4b" d="M 500 0 
L 1063 0 
L 1063 1456 
L 1625 2094 
L 3181 0 
L 3869 0 
L 1975 2481 
L 3869 4525 
L 3131 4525 
L 1119 2288 
L 1063 2288 
L 1063 4525 
L 500 4525 
L 500 0 
z
" transform="scale(0.015625)"/>
      <path id="Pretendard-Regular-54" d="M 250 4025 
L 1675 4025 
L 1675 0 
L 2244 0 
L 2244 4025 
L 3663 4025 
L 3663 4525 
L 250 4525 
L 250 4025 
z
" transform="scale(0.015625)"/>
     </defs>
     <use xlink:href="#Pretendard-Regular-4b"/>
     <use xlink:href="#Pretendard-Regular-54" transform="translate(62.109375 0)"/>
    </g>
   </g>
   <g id="text_13">
    <!-- SKT -->
    <g style="fill: #ffffff" transform="translate(385.104688 80.027187) scale(0.1 -0.1)">
     <defs>
      <path id="Pretendard-Regular-53" d="M 2969 3388 
L 3519 3388 
C 3494 4075 2863 4588 1988 4588 
C 1113 4588 431 4081 431 3319 
C 431 2706 869 2344 1581 2138 
L 2138 1988 
C 2613 1850 3031 1681 3031 1244 
C 3031 750 2563 431 1938 431 
C 1400 431 931 669 881 1175 
L 306 1175 
C 356 425 963 -81 1938 -81 
C 2988 -81 3581 494 3581 1231 
C 3581 2075 2788 2356 2300 2481 
L 1850 2606 
C 1506 2694 975 2869 975 3344 
C 975 3775 1369 4088 1969 4088 
C 2513 4088 2919 3831 2969 3388 
z
" transform="scale(0.015625)"/>
     </defs>
     <use xlink:href="#Pretendard-Regular-53"/>
     <use xlink:href="#Pretendard-Regular-4b" transform="translate(60.742188 0)"/>
     <use xlink:href="#Pretendard-Regular-54" transform="translate(122.851562 0)"/>
    </g>
   </g>
   <g id="text_14">
    <!-- 5G Mid-Band Allocation (3.5 GHz) -->
    <g transform="translate(205.5925 16.048125) scale(0.12 -0.12)">
     <defs>
      <path id="Pretendard-Regular-4d" d="M 500 4525 
L 500 0 
L 1031 0 
L 1031 3419 
L 1069 3419 
L 2475 0 
L 2975 0 
L 4381 3419 
L 4425 3419 
L 4425 0 
L 4956 0 
L 4956 4525 
L 4281 4525 
L 2756 800 
L 2700 800 
L 1175 4525 
L 500 4525 
z
" transform="scale(0.015625)"/>
      <path id="Pretendard-Regular-69" d="M 431 0 
L 969 0 
L 969 3394 
L 431 3394 
L 431 0 
z
M 700 3956 
C 906 3956 1081 4113 1081 4313 
C 1081 4513 906 4669 700 4669 
C 494 4669 325 4513 325 4313 
C 325 4113 494 3956 700 3956 
z
" transform="scale(0.015625)"/>
      <path id="Pretendard-Regular-64" d="M 1713 -69 
C 2363 -69 2581 331 2700 519 
L 2756 519 
L 2756 0 
L 3281 0 
L 3281 4525 
L 2738 4525 
L 2738 2856 
L 2700 2856 
C 2588 3038 2375 3438 1719 3438 
C 869 3438 269 2763 269 1688 
C 269 613 869 -69 1713 -69 
z
M 1788 413 
C 1144 413 813 975 813 1700 
C 813 2406 1138 2956 1788 2956 
C 2419 2956 2756 2450 2756 1700 
C 2756 938 2406 413 1788 413 
z
" transform="scale(0.015625)"/>
      <path id="Pretendard-Regular-2d" d="M 2375 2181 
L 394 2181 
L 394 1688 
L 2375 1688 
L 2375 2181 
z
" transform="scale(0.015625)"/>
      <path id="Pretendard-Regular-42" d="M 500 0 
L 2144 0 
C 3213 0 3663 519 3663 1200 
C 3663 1919 3163 2306 2744 2331 
L 2744 2375 
C 3138 2481 3481 2744 3481 3325 
C 3481 3994 3038 4525 2088 4525 
L 500 4525 
L 500 0 
z
M 2138 500 
L 1063 500 
L 1063 2056 
L 2169 2056 
C 2750 2056 3119 1669 3119 1206 
C 3119 813 2844 500 2138 500 
z
M 2069 2544 
L 1063 2544 
L 1063 4025 
L 2088 4025 
C 2681 4025 2944 3713 2944 3319 
C 2944 2844 2556 2544 2069 2544 
z
" transform="scale(0.015625)"/>
      <path id="Pretendard-Regular-61" d="M 269 963 
C 269 300 781 -81 1425 -81 
C 2013 -81 2325 231 2438 463 
L 2463 463 
L 2463 0 
L 2994 0 
L 2994 2238 
C 2994 3306 2163 3438 1719 3438 
C 969 3438 438 3056 369 2513 
L 931 2513 
C 1006 2769 1263 2969 1694 2969 
C 2206 2969 2463 2719 2463 2288 
L 2463 2013 
C 2309 2006 1759 1978 1544 1963 
C 956 1919 269 1744 269 963 
z
M 806 938 
C 806 1306 1119 1481 1606 1513 
L 2463 1575 
L 2463 1231 
C 2463 806 2125 400 1519 400 
C 1106 400 806 581 806 938 
z
" transform="scale(0.015625)"/>
      <path id="Pretendard-Regular-41" d="M 700 0 
L 1156 1275 
L 2975 1275 
L 3425 0 
L 4019 0 
L 2363 4525 
L 1769 4525 
L 113 0 
L 700 0 
z
M 1325 1769 
L 2044 3794 
L 2081 3794 
L 2800 1769 
L 1325 1769 
z
" transform="scale(0.015625)"/>
      <path id="Pretendard-Regular-6c" d="M 969 4525 
L 431 4525 
L 431 0 
L 969 0 
L 969 4525 
z
" transform="scale(0.015625)"/>
      <path id="Pretendard-Regular-6f" d="M 1819 -69 
C 2738 -69 3356 625 3356 1681 
C 3356 2738 2738 3438 1819 3438 
C 894 3438 269 2738 269 1681 
C 269 625 894 -69 1819 -69 
z
M 1819 406 
C 1125 406 806 1006 806 1681 
C 806 2356 1125 2963 1819 2963 
C 2500 2963 2819 2356 2819 1681 
C 2819 1006 2500 406 1819 406 
z
" transform="scale(0.015625)"/>
      <path id="Pretendard-Regular-74" d="M 1913 3394 
L 1200 3394 
L 1200 4206 
L 656 4206 
L 656 3394 
L 144 3394 
L 144 2944 
L 656 2944 
L 656 838 
C 656 238 1138 -44 1588 -44 
C 1744 -44 1881 -31 1963 -19 
L 1963 481 
C 1881 475 1744 469 1644 469 
C 1413 469 1200 538 1200 975 
L 1200 2944 
L 1913 2944 
L 1913 3394 
z
" transform="scale(0.015625)"/>
     </defs>
     <use xlink:href="#Pretendard-Regular-35"/>
     <use xlink:href="#Pretendard-Regular-47" transform="translate(59.667969 0)"/>
     <use xlink:href="#Pretendard-Regular-20" transform="translate(130.566406 0)"/>
     <use xlink:href="#Pretendard-Regular-4d" transform="translate(155.664062 0)"/>
     <use xlink:href="#Pretendard-Regular-69" transform="translate(240.917969 0)"/>
     <use xlink:href="#Pretendard-Regular-64" transform="translate(262.695312 0)"/>
     <use xlink:href="#Pretendard-Regular-2d" transform="translate(321.777344 0)"/>
     <use xlink:href="#Pretendard-Regular-42" transform="translate(365.039062 0)"/>
     <use xlink:href="#Pretendard-Regular-61" transform="translate(426.953125 0)"/>
     <use xlink:href="#Pretendard-Regular-6e" transform="translate(480.46875 0)"/>
     <use xlink:href="#Pretendard-Regular-64" transform="translate(536.132812 0)"/>
     <use xlink:href="#Pretendard-Regular-20" transform="translate(595.214844 0)"/>
     <use xlink:href="#Pretendard-Regular-41" transform="translate(620.3125 0)"/>
     <use xlink:href="#Pretendard-Regular-6c" transform="translate(684.863281 0)"/>
     <use xlink:href="#Pretendard-Regular-6c" transform="translate(706.640625 0)"/>
     <use xlink:href="#Pretendard-Regular-6f" transform="translate(728.417969 0)"/>
     <use xlink:href="#Pretendard-Regular-63" transform="translate(785.15625 0)"/>
     <use xlink:href="#Pretendard-Regular-61" transform="translate(838.085938 0)"/>
     <use xlink:href="#Pretendard-Regular-74" transform="translate(891.601562 0)"/>
     <use xlink:href="#Pretendard-Regular-69" transform="translate(925.585938 0)"/>
     <use xlink:href="#Pretendard-Regular-6f" transform="translate(947.363281 0)"/>
     <use xlink:href="#Pretendard-Regular-6e" transform="translate(1004.101562 0)"/>
     <use xlink:href="#Pretendard-Regular-20" transform="translate(1059.765625 0)"/>
     <use xlink:href="#Pretendard-Regular-28" transform="translate(1084.863281 0)"/>
     <use xlink:href="#Pretendard-Regular-33" transform="translate(1118.945312 0)"/>
     <use xlink:href="#Pretendard-Regular-2e" transform="translate(1180.664062 0)"/>
     <use xlink:href="#Pretendard-Regular-35" transform="translate(1206.054688 0)"/>
     <use xlink:href="#Pretendard-Regular-20" transform="translate(1265.722656 0)"/>
     <use xlink:href="#Pretendard-Regular-47" transform="translate(1290.820312 0)"/>
     <use xlink:href="#Pretendard-Regular-48" transform="translate(1361.71875 0)"/>
     <use xlink:href="#Pretendard-Regular-7a" transform="translate(1432.324219 0)"/>
     <use xlink:href="#Pretendard-Regular-29" transform="translate(1483.59375 0)"/>
    </g>
   </g>
  </g>
 </g>
 <defs>
  <clipPath id="p0d65e50a3e">
   <rect x="17.654688" y="22.048125" width="558" height="110.88"/>
  </clipPath>
 </defs>
</svg>
