<?xml version="1.0" encoding="utf-8" standalone="no"?>
<!DOCTYPE svg PUBLIC "-//W3C//DTD SVG 1.1//EN"
  "http://www.w3.org/Graphics/SVG/1.1/DTD/svg11.dtd">
<svg xmlns:xlink="http://www.w3.org/1999/xlink" width="569.19pt" height="425.05375pt" viewBox="0 0 569.19 425.05375" xmlns="http://www.w3.org/2000/svg" version="1.1">
 <metadata>
  <rdf:RDF xmlns:dc="http://purl.org/dc/elements/1.1/" xmlns:cc="http://creativecommons.org/ns#" xmlns:rdf="http://www.w3.org/1999/02/22-rdf-syntax-ns#">
   <cc:Work>
    <dc:type rdf:resource="http://purl.org/dc/dcmitype/StillImage"/>
    <dc:date>2026-01-25T00:22:36.744072</dc:date>
    <dc:format>image/svg+xml</dc:format>
    <dc:creator>
     <cc:Agent>
      <dc:title>Matplotlib v3.10.8, https://matplotlib.org/</dc:title>
     </cc:Agent>
    </dc:creator>
   </cc:Work>
  </rdf:RDF>
 </metadata>
 <defs>
  <style type="text/css">*{stroke-linejoin: round; stroke-linecap: butt}</style>
 </defs>
 <g id="figure_1">
  <g id="patch_1">
   <path d="M 0 425.05375 
L 569.19 425.05375 
L 569.19 0 
L 0 0 
z
" style="fill: #ffffff"/>
  </g>
  <g id="axes_1">
   <g id="patch_2">
    <path d="M 45.8 189.206875 
L 561.99 189.206875 
L 561.99 22.8 
L 45.8 22.8 
z
" style="fill: #ffffff"/>
   </g>
   <g id="FillBetweenPolyCollection_1">
    <path d="M 69.263182 106.003625 
L 69.263182 30.363949 
L 69.732915 30.369933 
L 70.202649 30.387885 
L 70.672382 30.417801 
L 71.142115 30.459676 
L 71.611849 30.513505 
L 72.081582 30.579279 
L 72.551315 30.656987 
L 73.021049 30.746617 
L 73.490782 30.848154 
L 73.960516 30.961583 
L 74.430249 31.086886 
L 74.899982 31.224043 
L 75.369716 31.373032 
L 75.839449 31.53383 
L 76.309182 31.706411 
L 76.778916 31.890748 
L 77.248649 32.086812 
L 77.718382 32.294571 
L 78.188116 32.513993 
L 78.657849 32.745043 
L 79.127583 32.987685 
L 79.597316 33.24188 
L 80.067049 33.507588 
L 80.536783 33.784766 
L 81.006516 34.073372 
L 81.476249 34.373359 
L 81.945983 34.68468 
L 82.415716 35.007286 
L 82.88545 35.341125 
L 83.355183 35.686145 
L 83.824916 36.042292 
L 84.29465 36.409508 
L 84.764383 36.787736 
L 85.234116 37.176915 
L 85.70385 37.576985 
L 86.173583 37.987882 
L 86.643316 38.409541 
L 87.11305 38.841896 
L 87.582783 39.284877 
L 88.052517 39.738415 
L 88.52225 40.202438 
L 88.991983 40.676872 
L 89.461717 41.161643 
L 89.93145 41.656674 
L 90.401183 42.161886 
L 90.870917 42.6772 
L 91.34065 43.202534 
L 91.810384 43.737805 
L 92.280117 44.282928 
L 92.74985 44.837816 
L 93.219584 45.402383 
L 93.689317 45.976539 
L 94.15905 46.560193 
L 94.628784 47.153252 
L 95.098517 47.755624 
L 95.568251 48.367211 
L 96.037984 48.987918 
L 96.507717 49.617647 
L 96.977451 50.256298 
L 97.447184 50.903769 
L 97.916917 51.559959 
L 98.386651 52.224763 
L 98.856384 52.898077 
L 99.326117 53.579793 
L 99.795851 54.269804 
L 100.265584 54.968001 
L 100.735318 55.674273 
L 101.205051 56.388509 
L 101.674784 57.110595 
L 102.144518 57.840418 
L 102.614251 58.577861 
L 103.083984 59.322808 
L 103.553718 60.075142 
L 104.023451 60.834742 
L 104.493185 61.60149 
L 104.962918 62.375263 
L 105.432651 63.15594 
L 105.902385 63.943396 
L 106.372118 64.737507 
L 106.841851 65.538148 
L 107.311585 66.345192 
L 107.781318 67.15851 
L 108.251052 67.977975 
L 108.720785 68.803457 
L 109.190518 69.634825 
L 109.660252 70.471947 
L 110.129985 71.314692 
L 110.599718 72.162925 
L 111.069452 73.016513 
L 111.539185 73.87532 
L 112.008918 74.739211 
L 112.478652 75.608048 
L 112.948385 76.481696 
L 113.418119 77.360014 
L 113.887852 78.242865 
L 114.357585 79.130108 
L 114.827319 80.021603 
L 115.297052 80.917209 
L 115.766785 81.816785 
L 116.236519 82.720188 
L 116.706252 83.627275 
L 117.175986 84.537902 
L 117.645719 85.451926 
L 118.115452 86.369201 
L 118.585186 87.289584 
L 119.054919 88.212927 
L 119.524652 89.139086 
L 119.994386 90.067913 
L 120.464119 90.999261 
L 120.933852 91.932984 
L 121.403586 92.868933 
L 121.873319 93.80696 
L 122.343053 94.746917 
L 122.812786 95.688655 
L 123.282519 96.632025 
L 123.752253 97.576878 
L 124.221986 98.523065 
L 124.691719 99.470435 
L 125.161453 100.418839 
L 125.631186 101.368126 
L 126.10092 102.318147 
L 126.570653 103.268751 
L 127.040386 104.219788 
L 127.51012 105.171107 
L 127.51012 106.003625 
L 127.51012 106.003625 
L 127.040386 106.003625 
L 126.570653 106.003625 
L 126.10092 106.003625 
L 125.631186 106.003625 
L 125.161453 106.003625 
L 124.691719 106.003625 
L 124.221986 106.003625 
L 123.752253 106.003625 
L 123.282519 106.003625 
L 122.812786 106.003625 
L 122.343053 106.003625 
L 121.873319 106.003625 
L 121.403586 106.003625 
L 120.933852 106.003625 
L 120.464119 106.003625 
L 119.994386 106.003625 
L 119.524652 106.003625 
L 119.054919 106.003625 
L 118.585186 106.003625 
L 118.115452 106.003625 
L 117.645719 106.003625 
L 117.175986 106.003625 
L 116.706252 106.003625 
L 116.236519 106.003625 
L 115.766785 106.003625 
L 115.297052 106.003625 
L 114.827319 106.003625 
L 114.357585 106.003625 
L 113.887852 106.003625 
L 113.418119 106.003625 
L 112.948385 106.003625 
L 112.478652 106.003625 
L 112.008918 106.003625 
L 111.539185 106.003625 
L 111.069452 106.003625 
L 110.599718 106.003625 
L 110.129985 106.003625 
L 109.660252 106.003625 
L 109.190518 106.003625 
L 108.720785 106.003625 
L 108.251052 106.003625 
L 107.781318 106.003625 
L 107.311585 106.003625 
L 106.841851 106.003625 
L 106.372118 106.003625 
L 105.902385 106.003625 
L 105.432651 106.003625 
L 104.962918 106.003625 
L 104.493185 106.003625 
L 104.023451 106.003625 
L 103.553718 106.003625 
L 103.083984 106.003625 
L 102.614251 106.003625 
L 102.144518 106.003625 
L 101.674784 106.003625 
L 101.205051 106.003625 
L 100.735318 106.003625 
L 100.265584 106.003625 
L 99.795851 106.003625 
L 99.326117 106.003625 
L 98.856384 106.003625 
L 98.386651 106.003625 
L 97.916917 106.003625 
L 97.447184 106.003625 
L 96.977451 106.003625 
L 96.507717 106.003625 
L 96.037984 106.003625 
L 95.568251 106.003625 
L 95.098517 106.003625 
L 94.628784 106.003625 
L 94.15905 106.003625 
L 93.689317 106.003625 
L 93.219584 106.003625 
L 92.74985 106.003625 
L 92.280117 106.003625 
L 91.810384 106.003625 
L 91.34065 106.003625 
L 90.870917 106.003625 
L 90.401183 106.003625 
L 89.93145 106.003625 
L 89.461717 106.003625 
L 88.991983 106.003625 
L 88.52225 106.003625 
L 88.052517 106.003625 
L 87.582783 106.003625 
L 87.11305 106.003625 
L 86.643316 106.003625 
L 86.173583 106.003625 
L 85.70385 106.003625 
L 85.234116 106.003625 
L 84.764383 106.003625 
L 84.29465 106.003625 
L 83.824916 106.003625 
L 83.355183 106.003625 
L 82.88545 106.003625 
L 82.415716 106.003625 
L 81.945983 106.003625 
L 81.476249 106.003625 
L 81.006516 106.003625 
L 80.536783 106.003625 
L 80.067049 106.003625 
L 79.597316 106.003625 
L 79.127583 106.003625 
L 78.657849 106.003625 
L 78.188116 106.003625 
L 77.718382 106.003625 
L 77.248649 106.003625 
L 76.778916 106.003625 
L 76.309182 106.003625 
L 75.839449 106.003625 
L 75.369716 106.003625 
L 74.899982 106.003625 
L 74.430249 106.003625 
L 73.960516 106.003625 
L 73.490782 106.003625 
L 73.021049 106.003625 
L 72.551315 106.003625 
L 72.081582 106.003625 
L 71.611849 106.003625 
L 71.142115 106.003625 
L 70.672382 106.003625 
L 70.202649 106.003625 
L 69.732915 106.003625 
L 69.263182 106.003625 
z
" clip-path="url(#pd47b0949b8)" style="fill: #808080; fill-opacity: 0.2; stroke: #808080; stroke-opacity: 0.2"/>
    <path d="M 245.413195 106.003625 
L 245.413195 105.646825 
L 245.882929 104.695422 
L 246.352662 103.744225 
L 246.822396 102.793386 
L 247.292129 101.843054 
L 247.761862 100.893381 
L 248.231596 99.944517 
L 248.701329 98.996611 
L 249.171062 98.049814 
L 249.640796 97.104276 
L 250.110529 96.160145 
L 250.580263 95.217573 
L 251.049996 94.276706 
L 251.519729 93.337696 
L 251.989463 92.400689 
L 252.459196 91.465835 
L 252.928929 90.533281 
L 253.398663 89.603175 
L 253.868396 88.675664 
L 254.338129 87.750895 
L 254.807863 86.829013 
L 255.277596 85.910166 
L 255.74733 84.994498 
L 256.217063 84.082155 
L 256.686796 83.17328 
L 257.15653 82.268017 
L 257.626263 81.36651 
L 258.095996 80.468901 
L 258.56573 79.575333 
L 259.035463 78.685946 
L 259.505197 77.800881 
L 259.97493 76.92028 
L 260.444663 76.044279 
L 260.914397 75.17302 
L 261.38413 74.306638 
L 261.853863 73.445272 
L 262.323597 72.589058 
L 262.79333 71.73813 
L 263.263064 70.892625 
L 263.732797 70.052675 
L 264.20253 69.218413 
L 264.672264 68.389972 
L 265.141997 67.567483 
L 265.61173 66.751075 
L 266.081464 65.940877 
L 266.551197 65.137019 
L 267.02093 64.339628 
L 267.490664 63.548828 
L 267.960397 62.764746 
L 268.430131 61.987506 
L 268.899864 61.21723 
L 269.369597 60.454041 
L 269.839331 59.698059 
L 270.309064 58.949404 
L 270.778797 58.208194 
L 271.248531 57.474547 
L 271.718264 56.748578 
L 272.187998 56.030403 
L 272.657731 55.320135 
L 273.127464 54.617886 
L 273.597198 53.923768 
L 274.066931 53.237891 
L 274.536664 52.560363 
L 275.006398 51.891291 
L 275.476131 51.230781 
L 275.945865 50.578937 
L 276.415598 49.935864 
L 276.885331 49.301661 
L 277.355065 48.676431 
L 277.824798 48.060271 
L 278.294531 47.45328 
L 278.764265 46.855553 
L 279.233998 46.267185 
L 279.703731 45.688268 
L 280.173465 45.118896 
L 280.643198 44.559157 
L 281.112932 44.00914 
L 281.582665 43.468933 
L 282.052398 42.93862 
L 282.522132 42.418286 
L 282.991865 41.908012 
L 283.461598 41.407881 
L 283.931332 40.91797 
L 284.401065 40.438358 
L 284.870799 39.96912 
L 285.340532 39.510331 
L 285.810265 39.062062 
L 286.279999 38.624386 
L 286.749732 38.197371 
L 287.219465 37.781085 
L 287.689199 37.375593 
L 288.158932 36.98096 
L 288.628665 36.597249 
L 289.098399 36.22452 
L 289.568132 35.862831 
L 290.037866 35.512241 
L 290.507599 35.172805 
L 290.977332 34.844576 
L 291.447066 34.527606 
L 291.916799 34.221946 
L 292.386532 33.927644 
L 292.856266 33.644746 
L 293.325999 33.373297 
L 293.795733 33.113341 
L 294.265466 32.864917 
L 294.735199 32.628067 
L 295.204933 32.402826 
L 295.674666 32.189231 
L 296.144399 31.987316 
L 296.614133 31.797112 
L 297.083866 31.618649 
L 297.5536 31.451957 
L 298.023333 31.29706 
L 298.493066 31.153984 
L 298.9628 31.022752 
L 299.432533 30.903383 
L 299.902266 30.795898 
L 300.372 30.700312 
L 300.841733 30.616642 
L 301.311466 30.5449 
L 301.7812 30.485097 
L 302.250933 30.437244 
L 302.720667 30.401347 
L 303.1904 30.377413 
L 303.660133 30.365445 
L 304.129867 30.365445 
L 304.5996 30.377413 
L 305.069333 30.401347 
L 305.539067 30.437244 
L 306.0088 30.485097 
L 306.478534 30.5449 
L 306.948267 30.616642 
L 307.418 30.700312 
L 307.887734 30.795898 
L 308.357467 30.903383 
L 308.8272 31.022752 
L 309.296934 31.153984 
L 309.766667 31.29706 
L 310.2364 31.451957 
L 310.706134 31.618649 
L 311.175867 31.797112 
L 311.645601 31.987316 
L 312.115334 32.189231 
L 312.585067 32.402826 
L 313.054801 32.628067 
L 313.524534 32.864917 
L 313.994267 33.113341 
L 314.464001 33.373297 
L 314.933734 33.644746 
L 315.403468 33.927644 
L 315.873201 34.221946 
L 316.342934 34.527606 
L 316.812668 34.844576 
L 317.282401 35.172805 
L 317.752134 35.512241 
L 318.221868 35.862831 
L 318.691601 36.22452 
L 319.161335 36.597249 
L 319.631068 36.98096 
L 320.100801 37.375593 
L 320.570535 37.781085 
L 321.040268 38.197371 
L 321.510001 38.624386 
L 321.979735 39.062062 
L 322.449468 39.510331 
L 322.919201 39.96912 
L 323.388935 40.438358 
L 323.858668 40.91797 
L 324.328402 41.407881 
L 324.798135 41.908012 
L 325.267868 42.418286 
L 325.737602 42.93862 
L 326.207335 43.468933 
L 326.677068 44.00914 
L 327.146802 44.559157 
L 327.616535 45.118896 
L 328.086269 45.688268 
L 328.556002 46.267185 
L 329.025735 46.855553 
L 329.495469 47.45328 
L 329.965202 48.060271 
L 330.434935 48.676431 
L 330.904669 49.301661 
L 331.374402 49.935864 
L 331.844135 50.578937 
L 332.313869 51.230781 
L 332.783602 51.891291 
L 333.253336 52.560363 
L 333.723069 53.237891 
L 334.192802 53.923768 
L 334.662536 54.617886 
L 335.132269 55.320135 
L 335.602002 56.030403 
L 336.071736 56.748578 
L 336.541469 57.474547 
L 337.011203 58.208194 
L 337.480936 58.949404 
L 337.950669 59.698059 
L 338.420403 60.454041 
L 338.890136 61.21723 
L 339.359869 61.987506 
L 339.829603 62.764746 
L 340.299336 63.548828 
L 340.76907 64.339628 
L 341.238803 65.137019 
L 341.708536 65.940877 
L 342.17827 66.751075 
L 342.648003 67.567483 
L 343.117736 68.389972 
L 343.58747 69.218413 
L 344.057203 70.052675 
L 344.526936 70.892625 
L 344.99667 71.73813 
L 345.466403 72.589058 
L 345.936137 73.445272 
L 346.40587 74.306638 
L 346.875603 75.17302 
L 347.345337 76.044279 
L 347.81507 76.92028 
L 348.284803 77.800881 
L 348.754537 78.685946 
L 349.22427 79.575333 
L 349.694004 80.468901 
L 350.163737 81.36651 
L 350.63347 82.268017 
L 351.103204 83.17328 
L 351.572937 84.082155 
L 352.04267 84.994498 
L 352.512404 85.910166 
L 352.982137 86.829013 
L 353.451871 87.750895 
L 353.921604 88.675664 
L 354.391337 89.603175 
L 354.861071 90.533281 
L 355.330804 91.465835 
L 355.800537 92.400689 
L 356.270271 93.337696 
L 356.740004 94.276706 
L 357.209737 95.217573 
L 357.679471 96.160145 
L 358.149204 97.104276 
L 358.618938 98.049814 
L 359.088671 98.996611 
L 359.558404 99.944517 
L 360.028138 100.893381 
L 360.497871 101.843054 
L 360.967604 102.793386 
L 361.437338 103.744225 
L 361.907071 104.695422 
L 362.376805 105.646825 
L 362.376805 106.003625 
L 362.376805 106.003625 
L 361.907071 106.003625 
L 361.437338 106.003625 
L 360.967604 106.003625 
L 360.497871 106.003625 
L 360.028138 106.003625 
L 359.558404 106.003625 
L 359.088671 106.003625 
L 358.618938 106.003625 
L 358.149204 106.003625 
L 357.679471 106.003625 
L 357.209737 106.003625 
L 356.740004 106.003625 
L 356.270271 106.003625 
L 355.800537 106.003625 
L 355.330804 106.003625 
L 354.861071 106.003625 
L 354.391337 106.003625 
L 353.921604 106.003625 
L 353.451871 106.003625 
L 352.982137 106.003625 
L 352.512404 106.003625 
L 352.04267 106.003625 
L 351.572937 106.003625 
L 351.103204 106.003625 
L 350.63347 106.003625 
L 350.163737 106.003625 
L 349.694004 106.003625 
L 349.22427 106.003625 
L 348.754537 106.003625 
L 348.284803 106.003625 
L 347.81507 106.003625 
L 347.345337 106.003625 
L 346.875603 106.003625 
L 346.40587 106.003625 
L 345.936137 106.003625 
L 345.466403 106.003625 
L 344.99667 106.003625 
L 344.526936 106.003625 
L 344.057203 106.003625 
L 343.58747 106.003625 
L 343.117736 106.003625 
L 342.648003 106.003625 
L 342.17827 106.003625 
L 341.708536 106.003625 
L 341.238803 106.003625 
L 340.76907 106.003625 
L 340.299336 106.003625 
L 339.829603 106.003625 
L 339.359869 106.003625 
L 338.890136 106.003625 
L 338.420403 106.003625 
L 337.950669 106.003625 
L 337.480936 106.003625 
L 337.011203 106.003625 
L 336.541469 106.003625 
L 336.071736 106.003625 
L 335.602002 106.003625 
L 335.132269 106.003625 
L 334.662536 106.003625 
L 334.192802 106.003625 
L 333.723069 106.003625 
L 333.253336 106.003625 
L 332.783602 106.003625 
L 332.313869 106.003625 
L 331.844135 106.003625 
L 331.374402 106.003625 
L 330.904669 106.003625 
L 330.434935 106.003625 
L 329.965202 106.003625 
L 329.495469 106.003625 
L 329.025735 106.003625 
L 328.556002 106.003625 
L 328.086269 106.003625 
L 327.616535 106.003625 
L 327.146802 106.003625 
L 326.677068 106.003625 
L 326.207335 106.003625 
L 325.737602 106.003625 
L 325.267868 106.003625 
L 324.798135 106.003625 
L 324.328402 106.003625 
L 323.858668 106.003625 
L 323.388935 106.003625 
L 322.919201 106.003625 
L 322.449468 106.003625 
L 321.979735 106.003625 
L 321.510001 106.003625 
L 321.040268 106.003625 
L 320.570535 106.003625 
L 320.100801 106.003625 
L 319.631068 106.003625 
L 319.161335 106.003625 
L 318.691601 106.003625 
L 318.221868 106.003625 
L 317.752134 106.003625 
L 317.282401 106.003625 
L 316.812668 106.003625 
L 316.342934 106.003625 
L 315.873201 106.003625 
L 315.403468 106.003625 
L 314.933734 106.003625 
L 314.464001 106.003625 
L 313.994267 106.003625 
L 313.524534 106.003625 
L 313.054801 106.003625 
L 312.585067 106.003625 
L 312.115334 106.003625 
L 311.645601 106.003625 
L 311.175867 106.003625 
L 310.706134 106.003625 
L 310.2364 106.003625 
L 309.766667 106.003625 
L 309.296934 106.003625 
L 308.8272 106.003625 
L 308.357467 106.003625 
L 307.887734 106.003625 
L 307.418 106.003625 
L 306.948267 106.003625 
L 306.478534 106.003625 
L 306.0088 106.003625 
L 305.539067 106.003625 
L 305.069333 106.003625 
L 304.5996 106.003625 
L 304.129867 106.003625 
L 303.660133 106.003625 
L 303.1904 106.003625 
L 302.720667 106.003625 
L 302.250933 106.003625 
L 301.7812 106.003625 
L 301.311466 106.003625 
L 300.841733 106.003625 
L 300.372 106.003625 
L 299.902266 106.003625 
L 299.432533 106.003625 
L 298.9628 106.003625 
L 298.493066 106.003625 
L 298.023333 106.003625 
L 297.5536 106.003625 
L 297.083866 106.003625 
L 296.614133 106.003625 
L 296.144399 106.003625 
L 295.674666 106.003625 
L 295.204933 106.003625 
L 294.735199 106.003625 
L 294.265466 106.003625 
L 293.795733 106.003625 
L 293.325999 106.003625 
L 292.856266 106.003625 
L 292.386532 106.003625 
L 291.916799 106.003625 
L 291.447066 106.003625 
L 290.977332 106.003625 
L 290.507599 106.003625 
L 290.037866 106.003625 
L 289.568132 106.003625 
L 289.098399 106.003625 
L 288.628665 106.003625 
L 288.158932 106.003625 
L 287.689199 106.003625 
L 287.219465 106.003625 
L 286.749732 106.003625 
L 286.279999 106.003625 
L 285.810265 106.003625 
L 285.340532 106.003625 
L 284.870799 106.003625 
L 284.401065 106.003625 
L 283.931332 106.003625 
L 283.461598 106.003625 
L 282.991865 106.003625 
L 282.522132 106.003625 
L 282.052398 106.003625 
L 281.582665 106.003625 
L 281.112932 106.003625 
L 280.643198 106.003625 
L 280.173465 106.003625 
L 279.703731 106.003625 
L 279.233998 106.003625 
L 278.764265 106.003625 
L 278.294531 106.003625 
L 277.824798 106.003625 
L 277.355065 106.003625 
L 276.885331 106.003625 
L 276.415598 106.003625 
L 275.945865 106.003625 
L 275.476131 106.003625 
L 275.006398 106.003625 
L 274.536664 106.003625 
L 274.066931 106.003625 
L 273.597198 106.003625 
L 273.127464 106.003625 
L 272.657731 106.003625 
L 272.187998 106.003625 
L 271.718264 106.003625 
L 271.248531 106.003625 
L 270.778797 106.003625 
L 270.309064 106.003625 
L 269.839331 106.003625 
L 269.369597 106.003625 
L 268.899864 106.003625 
L 268.430131 106.003625 
L 267.960397 106.003625 
L 267.490664 106.003625 
L 267.02093 106.003625 
L 266.551197 106.003625 
L 266.081464 106.003625 
L 265.61173 106.003625 
L 265.141997 106.003625 
L 264.672264 106.003625 
L 264.20253 106.003625 
L 263.732797 106.003625 
L 263.263064 106.003625 
L 262.79333 106.003625 
L 262.323597 106.003625 
L 261.853863 106.003625 
L 261.38413 106.003625 
L 260.914397 106.003625 
L 260.444663 106.003625 
L 259.97493 106.003625 
L 259.505197 106.003625 
L 259.035463 106.003625 
L 258.56573 106.003625 
L 258.095996 106.003625 
L 257.626263 106.003625 
L 257.15653 106.003625 
L 256.686796 106.003625 
L 256.217063 106.003625 
L 255.74733 106.003625 
L 255.277596 106.003625 
L 254.807863 106.003625 
L 254.338129 106.003625 
L 253.868396 106.003625 
L 253.398663 106.003625 
L 252.928929 106.003625 
L 252.459196 106.003625 
L 251.989463 106.003625 
L 251.519729 106.003625 
L 251.049996 106.003625 
L 250.580263 106.003625 
L 250.110529 106.003625 
L 249.640796 106.003625 
L 249.171062 106.003625 
L 248.701329 106.003625 
L 248.231596 106.003625 
L 247.761862 106.003625 
L 247.292129 106.003625 
L 246.822396 106.003625 
L 246.352662 106.003625 
L 245.882929 106.003625 
L 245.413195 106.003625 
z
" clip-path="url(#pd47b0949b8)" style="fill: #808080; fill-opacity: 0.2; stroke: #808080; stroke-opacity: 0.2"/>
    <path d="M 480.27988 106.003625 
L 480.27988 105.171107 
L 480.749614 104.219788 
L 481.219347 103.268751 
L 481.68908 102.318147 
L 482.158814 101.368126 
L 482.628547 100.418839 
L 483.098281 99.470435 
L 483.568014 98.523065 
L 484.037747 97.576878 
L 484.507481 96.632025 
L 484.977214 95.688655 
L 485.446947 94.746917 
L 485.916681 93.80696 
L 486.386414 92.868933 
L 486.856148 91.932984 
L 487.325881 90.999261 
L 487.795614 90.067913 
L 488.265348 89.139086 
L 488.735081 88.212927 
L 489.204814 87.289584 
L 489.674548 86.369201 
L 490.144281 85.451926 
L 490.614014 84.537902 
L 491.083748 83.627275 
L 491.553481 82.720188 
L 492.023215 81.816785 
L 492.492948 80.917209 
L 492.962681 80.021603 
L 493.432415 79.130108 
L 493.902148 78.242865 
L 494.371881 77.360014 
L 494.841615 76.481696 
L 495.311348 75.608048 
L 495.781082 74.739211 
L 496.250815 73.87532 
L 496.720548 73.016513 
L 497.190282 72.162925 
L 497.660015 71.314692 
L 498.129748 70.471947 
L 498.599482 69.634825 
L 499.069215 68.803457 
L 499.538948 67.977975 
L 500.008682 67.15851 
L 500.478415 66.345192 
L 500.948149 65.538148 
L 501.417882 64.737507 
L 501.887615 63.943396 
L 502.357349 63.15594 
L 502.827082 62.375263 
L 503.296815 61.60149 
L 503.766549 60.834742 
L 504.236282 60.075142 
L 504.706016 59.322808 
L 505.175749 58.577861 
L 505.645482 57.840418 
L 506.115216 57.110595 
L 506.584949 56.388509 
L 507.054682 55.674273 
L 507.524416 54.968001 
L 507.994149 54.269804 
L 508.463883 53.579793 
L 508.933616 52.898077 
L 509.403349 52.224763 
L 509.873083 51.559959 
L 510.342816 50.903769 
L 510.812549 50.256298 
L 511.282283 49.617647 
L 511.752016 48.987918 
L 512.221749 48.367211 
L 512.691483 47.755624 
L 513.161216 47.153252 
L 513.63095 46.560193 
L 514.100683 45.976539 
L 514.570416 45.402383 
L 515.04015 44.837816 
L 515.509883 44.282928 
L 515.979616 43.737805 
L 516.44935 43.202534 
L 516.919083 42.6772 
L 517.388817 42.161886 
L 517.85855 41.656674 
L 518.328283 41.161643 
L 518.798017 40.676872 
L 519.26775 40.202438 
L 519.737483 39.738415 
L 520.207217 39.284877 
L 520.67695 38.841896 
L 521.146684 38.409541 
L 521.616417 37.987882 
L 522.08615 37.576985 
L 522.555884 37.176915 
L 523.025617 36.787736 
L 523.49535 36.409508 
L 523.965084 36.042292 
L 524.434817 35.686145 
L 524.90455 35.341125 
L 525.374284 35.007286 
L 525.844017 34.68468 
L 526.313751 34.373359 
L 526.783484 34.073372 
L 527.253217 33.784766 
L 527.722951 33.507588 
L 528.192684 33.24188 
L 528.662417 32.987685 
L 529.132151 32.745043 
L 529.601884 32.513993 
L 530.071618 32.294571 
L 530.541351 32.086812 
L 531.011084 31.890748 
L 531.480818 31.706411 
L 531.950551 31.53383 
L 532.420284 31.373032 
L 532.890018 31.224043 
L 533.359751 31.086886 
L 533.829484 30.961583 
L 534.299218 30.848154 
L 534.768951 30.746617 
L 535.238685 30.656987 
L 535.708418 30.579279 
L 536.178151 30.513505 
L 536.647885 30.459676 
L 537.117618 30.417801 
L 537.587351 30.387885 
L 538.057085 30.369933 
L 538.526818 30.363949 
L 538.526818 106.003625 
L 538.526818 106.003625 
L 538.057085 106.003625 
L 537.587351 106.003625 
L 537.117618 106.003625 
L 536.647885 106.003625 
L 536.178151 106.003625 
L 535.708418 106.003625 
L 535.238685 106.003625 
L 534.768951 106.003625 
L 534.299218 106.003625 
L 533.829484 106.003625 
L 533.359751 106.003625 
L 532.890018 106.003625 
L 532.420284 106.003625 
L 531.950551 106.003625 
L 531.480818 106.003625 
L 531.011084 106.003625 
L 530.541351 106.003625 
L 530.071618 106.003625 
L 529.601884 106.003625 
L 529.132151 106.003625 
L 528.662417 106.003625 
L 528.192684 106.003625 
L 527.722951 106.003625 
L 527.253217 106.003625 
L 526.783484 106.003625 
L 526.313751 106.003625 
L 525.844017 106.003625 
L 525.374284 106.003625 
L 524.90455 106.003625 
L 524.434817 106.003625 
L 523.965084 106.003625 
L 523.49535 106.003625 
L 523.025617 106.003625 
L 522.555884 106.003625 
L 522.08615 106.003625 
L 521.616417 106.003625 
L 521.146684 106.003625 
L 520.67695 106.003625 
L 520.207217 106.003625 
L 519.737483 106.003625 
L 519.26775 106.003625 
L 518.798017 106.003625 
L 518.328283 106.003625 
L 517.85855 106.003625 
L 517.388817 106.003625 
L 516.919083 106.003625 
L 516.44935 106.003625 
L 515.979616 106.003625 
L 515.509883 106.003625 
L 515.04015 106.003625 
L 514.570416 106.003625 
L 514.100683 106.003625 
L 513.63095 106.003625 
L 513.161216 106.003625 
L 512.691483 106.003625 
L 512.221749 106.003625 
L 511.752016 106.003625 
L 511.282283 106.003625 
L 510.812549 106.003625 
L 510.342816 106.003625 
L 509.873083 106.003625 
L 509.403349 106.003625 
L 508.933616 106.003625 
L 508.463883 106.003625 
L 507.994149 106.003625 
L 507.524416 106.003625 
L 507.054682 106.003625 
L 506.584949 106.003625 
L 506.115216 106.003625 
L 505.645482 106.003625 
L 505.175749 106.003625 
L 504.706016 106.003625 
L 504.236282 106.003625 
L 503.766549 106.003625 
L 503.296815 106.003625 
L 502.827082 106.003625 
L 502.357349 106.003625 
L 501.887615 106.003625 
L 501.417882 106.003625 
L 500.948149 106.003625 
L 500.478415 106.003625 
L 500.008682 106.003625 
L 499.538948 106.003625 
L 499.069215 106.003625 
L 498.599482 106.003625 
L 498.129748 106.003625 
L 497.660015 106.003625 
L 497.190282 106.003625 
L 496.720548 106.003625 
L 496.250815 106.003625 
L 495.781082 106.003625 
L 495.311348 106.003625 
L 494.841615 106.003625 
L 494.371881 106.003625 
L 493.902148 106.003625 
L 493.432415 106.003625 
L 492.962681 106.003625 
L 492.492948 106.003625 
L 492.023215 106.003625 
L 491.553481 106.003625 
L 491.083748 106.003625 
L 490.614014 106.003625 
L 490.144281 106.003625 
L 489.674548 106.003625 
L 489.204814 106.003625 
L 488.735081 106.003625 
L 488.265348 106.003625 
L 487.795614 106.003625 
L 487.325881 106.003625 
L 486.856148 106.003625 
L 486.386414 106.003625 
L 485.916681 106.003625 
L 485.446947 106.003625 
L 484.977214 106.003625 
L 484.507481 106.003625 
L 484.037747 106.003625 
L 483.568014 106.003625 
L 483.098281 106.003625 
L 482.628547 106.003625 
L 482.158814 106.003625 
L 481.68908 106.003625 
L 481.219347 106.003625 
L 480.749614 106.003625 
L 480.27988 106.003625 
z
" clip-path="url(#pd47b0949b8)" style="fill: #808080; fill-opacity: 0.2; stroke: #808080; stroke-opacity: 0.2"/>
   </g>
   <g id="matplotlib.axis_1">
    <g id="xtick_1">
     <g id="line2d_1">
      <path d="M 69.263182 189.206875 
L 69.263182 22.8 
" clip-path="url(#pd47b0949b8)" style="fill: none; stroke: #b0b0b0; stroke-opacity: 0.3; stroke-width: 0.8; stroke-linecap: square"/>
     </g>
     <g id="line2d_2">
      <defs>
       <path id="m933da79abe" d="M 0 0 
L 0 3.5 
" style="stroke: #000000; stroke-width: 0.8"/>
      </defs>
      <g>
       <use xlink:href="#m933da79abe" x="69.263182" y="189.206875" style="stroke: #000000; stroke-width: 0.8"/>
      </g>
     </g>
    </g>
    <g id="xtick_2">
     <g id="line2d_3">
      <path d="M 127.921136 189.206875 
L 127.921136 22.8 
" clip-path="url(#pd47b0949b8)" style="fill: none; stroke: #b0b0b0; stroke-opacity: 0.3; stroke-width: 0.8; stroke-linecap: square"/>
     </g>
     <g id="line2d_4">
      <g>
       <use xlink:href="#m933da79abe" x="127.921136" y="189.206875" style="stroke: #000000; stroke-width: 0.8"/>
      </g>
     </g>
    </g>
    <g id="xtick_3">
     <g id="line2d_5">
      <path d="M 186.579091 189.206875 
L 186.579091 22.8 
" clip-path="url(#pd47b0949b8)" style="fill: none; stroke: #b0b0b0; stroke-opacity: 0.3; stroke-width: 0.8; stroke-linecap: square"/>
     </g>
     <g id="line2d_6">
      <g>
       <use xlink:href="#m933da79abe" x="186.579091" y="189.206875" style="stroke: #000000; stroke-width: 0.8"/>
      </g>
     </g>
    </g>
    <g id="xtick_4">
     <g id="line2d_7">
      <path d="M 245.237045 189.206875 
L 245.237045 22.8 
" clip-path="url(#pd47b0949b8)" style="fill: none; stroke: #b0b0b0; stroke-opacity: 0.3; stroke-width: 0.8; stroke-linecap: square"/>
     </g>
     <g id="line2d_8">
      <g>
       <use xlink:href="#m933da79abe" x="245.237045" y="189.206875" style="stroke: #000000; stroke-width: 0.8"/>
      </g>
     </g>
    </g>
    <g id="xtick_5">
     <g id="line2d_9">
      <path d="M 303.895 189.206875 
L 303.895 22.8 
" clip-path="url(#pd47b0949b8)" style="fill: none; stroke: #b0b0b0; stroke-opacity: 0.3; stroke-width: 0.8; stroke-linecap: square"/>
     </g>
     <g id="line2d_10">
      <g>
       <use xlink:href="#m933da79abe" x="303.895" y="189.206875" style="stroke: #000000; stroke-width: 0.8"/>
      </g>
     </g>
    </g>
    <g id="xtick_6">
     <g id="line2d_11">
      <path d="M 362.552955 189.206875 
L 362.552955 22.8 
" clip-path="url(#pd47b0949b8)" style="fill: none; stroke: #b0b0b0; stroke-opacity: 0.3; stroke-width: 0.8; stroke-linecap: square"/>
     </g>
     <g id="line2d_12">
      <g>
       <use xlink:href="#m933da79abe" x="362.552955" y="189.206875" style="stroke: #000000; stroke-width: 0.8"/>
      </g>
     </g>
    </g>
    <g id="xtick_7">
     <g id="line2d_13">
      <path d="M 421.210909 189.206875 
L 421.210909 22.8 
" clip-path="url(#pd47b0949b8)" style="fill: none; stroke: #b0b0b0; stroke-opacity: 0.3; stroke-width: 0.8; stroke-linecap: square"/>
     </g>
     <g id="line2d_14">
      <g>
       <use xlink:href="#m933da79abe" x="421.210909" y="189.206875" style="stroke: #000000; stroke-width: 0.8"/>
      </g>
     </g>
    </g>
    <g id="xtick_8">
     <g id="line2d_15">
      <path d="M 479.868864 189.206875 
L 479.868864 22.8 
" clip-path="url(#pd47b0949b8)" style="fill: none; stroke: #b0b0b0; stroke-opacity: 0.3; stroke-width: 0.8; stroke-linecap: square"/>
     </g>
     <g id="line2d_16">
      <g>
       <use xlink:href="#m933da79abe" x="479.868864" y="189.206875" style="stroke: #000000; stroke-width: 0.8"/>
      </g>
     </g>
    </g>
    <g id="xtick_9">
     <g id="line2d_17">
      <path d="M 538.526818 189.206875 
L 538.526818 22.8 
" clip-path="url(#pd47b0949b8)" style="fill: none; stroke: #b0b0b0; stroke-opacity: 0.3; stroke-width: 0.8; stroke-linecap: square"/>
     </g>
     <g id="line2d_18">
      <g>
       <use xlink:href="#m933da79abe" x="538.526818" y="189.206875" style="stroke: #000000; stroke-width: 0.8"/>
      </g>
     </g>
    </g>
   </g>
   <g id="matplotlib.axis_2">
    <g id="ytick_1">
     <g id="line2d_19">
      <path d="M 45.8 181.6433 
L 561.99 181.6433 
" clip-path="url(#pd47b0949b8)" style="fill: none; stroke: #b0b0b0; stroke-opacity: 0.3; stroke-width: 0.8; stroke-linecap: square"/>
     </g>
     <g id="line2d_20">
      <defs>
       <path id="m8fe8657f06" d="M 0 0 
L -3.5 0 
" style="stroke: #000000; stroke-width: 0.8"/>
      </defs>
      <g>
       <use xlink:href="#m8fe8657f06" x="45.8" y="181.6433" style="stroke: #000000; stroke-width: 0.8"/>
      </g>
     </g>
     <g id="text_1">
      <!-- -1.0 -->
      <g transform="translate(21.45 185.622988) scale(0.1 -0.1)">
       <defs>
        <path id="NotoSansKR-Regular-2d" d="M 294 1568 
L 294 2016 
L 1939 2016 
L 1939 1568 
L 294 1568 
z
" transform="scale(0.015625)"/>
        <path id="NotoSansKR-Regular-31" d="M 563 0 
L 563 486 
L 1613 486 
L 1613 3987 
L 774 3987 
L 774 4358 
Q 1088 4416 1321 4499 
Q 1555 4582 1747 4691 
L 2195 4691 
L 2195 486 
L 3136 486 
L 3136 0 
L 563 0 
z
" transform="scale(0.015625)"/>
        <path id="NotoSansKR-Regular-2e" d="M 890 -83 
Q 717 -83 592 41 
Q 467 166 467 358 
Q 467 563 592 684 
Q 717 806 890 806 
Q 1062 806 1187 684 
Q 1312 563 1312 358 
Q 1312 166 1187 41 
Q 1062 -83 890 -83 
z
" transform="scale(0.015625)"/>
        <path id="NotoSansKR-Regular-30" d="M 1779 -83 
Q 1338 -83 1008 185 
Q 678 454 499 998 
Q 320 1542 320 2362 
Q 320 3181 499 3715 
Q 678 4250 1008 4512 
Q 1338 4774 1779 4774 
Q 2227 4774 2553 4508 
Q 2880 4243 3059 3712 
Q 3238 3181 3238 2362 
Q 3238 1542 3059 998 
Q 2880 454 2553 185 
Q 2227 -83 1779 -83 
z
M 1779 390 
Q 2048 390 2249 595 
Q 2451 800 2563 1238 
Q 2675 1677 2675 2362 
Q 2675 3046 2563 3478 
Q 2451 3910 2249 4112 
Q 2048 4314 1779 4314 
Q 1517 4314 1312 4112 
Q 1107 3910 995 3478 
Q 883 3046 883 2362 
Q 883 1677 995 1238 
Q 1107 800 1312 595 
Q 1517 390 1779 390 
z
" transform="scale(0.015625)"/>
       </defs>
       <use xlink:href="#NotoSansKR-Regular-2d"/>
       <use xlink:href="#NotoSansKR-Regular-31" transform="translate(34.699997 0)"/>
       <use xlink:href="#NotoSansKR-Regular-2e" transform="translate(90.199982 0)"/>
       <use xlink:href="#NotoSansKR-Regular-30" transform="translate(117.999969 0)"/>
      </g>
     </g>
    </g>
    <g id="ytick_2">
     <g id="line2d_21">
      <path d="M 45.8 143.823462 
L 561.99 143.823462 
" clip-path="url(#pd47b0949b8)" style="fill: none; stroke: #b0b0b0; stroke-opacity: 0.3; stroke-width: 0.8; stroke-linecap: square"/>
     </g>
     <g id="line2d_22">
      <g>
       <use xlink:href="#m8fe8657f06" x="45.8" y="143.823462" style="stroke: #000000; stroke-width: 0.8"/>
      </g>
     </g>
     <g id="text_2">
      <!-- -0.5 -->
      <g transform="translate(21.45 147.80315) scale(0.1 -0.1)">
       <defs>
        <path id="NotoSansKR-Regular-35" d="M 1677 -83 
Q 1312 -83 1033 6 
Q 755 96 547 237 
Q 339 378 173 538 
L 467 922 
Q 602 787 765 668 
Q 928 550 1139 476 
Q 1350 403 1619 403 
Q 1894 403 2121 537 
Q 2349 672 2483 921 
Q 2618 1171 2618 1510 
Q 2618 2010 2352 2294 
Q 2086 2579 1645 2579 
Q 1414 2579 1241 2508 
Q 1069 2438 864 2304 
L 550 2502 
L 704 4691 
L 2982 4691 
L 2982 4192 
L 1216 4192 
L 1094 2835 
Q 1248 2925 1417 2973 
Q 1587 3021 1798 3021 
Q 2189 3021 2509 2864 
Q 2829 2707 3021 2374 
Q 3213 2042 3213 1523 
Q 3213 1011 2992 652 
Q 2771 294 2419 105 
Q 2067 -83 1677 -83 
z
" transform="scale(0.015625)"/>
       </defs>
       <use xlink:href="#NotoSansKR-Regular-2d"/>
       <use xlink:href="#NotoSansKR-Regular-30" transform="translate(34.699997 0)"/>
       <use xlink:href="#NotoSansKR-Regular-2e" transform="translate(90.199982 0)"/>
       <use xlink:href="#NotoSansKR-Regular-35" transform="translate(117.999969 0)"/>
      </g>
     </g>
    </g>
    <g id="ytick_3">
     <g id="line2d_23">
      <path d="M 45.8 106.003625 
L 561.99 106.003625 
" clip-path="url(#pd47b0949b8)" style="fill: none; stroke: #b0b0b0; stroke-opacity: 0.3; stroke-width: 0.8; stroke-linecap: square"/>
     </g>
     <g id="line2d_24">
      <g>
       <use xlink:href="#m8fe8657f06" x="45.8" y="106.003625" style="stroke: #000000; stroke-width: 0.8"/>
      </g>
     </g>
     <g id="text_3">
      <!-- 0.0 -->
      <g transform="translate(24.920313 109.983312) scale(0.1 -0.1)">
       <use xlink:href="#NotoSansKR-Regular-30"/>
       <use xlink:href="#NotoSansKR-Regular-2e" transform="translate(55.499985 0)"/>
       <use xlink:href="#NotoSansKR-Regular-30" transform="translate(83.299973 0)"/>
      </g>
     </g>
    </g>
    <g id="ytick_4">
     <g id="line2d_25">
      <path d="M 45.8 68.183787 
L 561.99 68.183787 
" clip-path="url(#pd47b0949b8)" style="fill: none; stroke: #b0b0b0; stroke-opacity: 0.3; stroke-width: 0.8; stroke-linecap: square"/>
     </g>
     <g id="line2d_26">
      <g>
       <use xlink:href="#m8fe8657f06" x="45.8" y="68.183787" style="stroke: #000000; stroke-width: 0.8"/>
      </g>
     </g>
     <g id="text_4">
      <!-- 0.5 -->
      <g transform="translate(24.920313 72.163474) scale(0.1 -0.1)">
       <use xlink:href="#NotoSansKR-Regular-30"/>
       <use xlink:href="#NotoSansKR-Regular-2e" transform="translate(55.499985 0)"/>
       <use xlink:href="#NotoSansKR-Regular-35" transform="translate(83.299973 0)"/>
      </g>
     </g>
    </g>
    <g id="ytick_5">
     <g id="line2d_27">
      <path d="M 45.8 30.363949 
L 561.99 30.363949 
" clip-path="url(#pd47b0949b8)" style="fill: none; stroke: #b0b0b0; stroke-opacity: 0.3; stroke-width: 0.8; stroke-linecap: square"/>
     </g>
     <g id="line2d_28">
      <g>
       <use xlink:href="#m8fe8657f06" x="45.8" y="30.363949" style="stroke: #000000; stroke-width: 0.8"/>
      </g>
     </g>
     <g id="text_5">
      <!-- 1.0 -->
      <g transform="translate(24.920313 34.343636) scale(0.1 -0.1)">
       <use xlink:href="#NotoSansKR-Regular-31"/>
       <use xlink:href="#NotoSansKR-Regular-2e" transform="translate(55.499985 0)"/>
       <use xlink:href="#NotoSansKR-Regular-30" transform="translate(83.299973 0)"/>
      </g>
     </g>
    </g>
    <g id="text_6">
     <!-- Amplitude -->
     <g transform="translate(15.159375 130.358906) rotate(-90) scale(0.1 -0.1)">
      <defs>
       <path id="NotoSansKR-Regular-41" d="M 26 0 
L 1613 4691 
L 2272 4691 
L 3866 0 
L 3238 0 
L 2419 2624 
Q 2291 3027 2176 3414 
Q 2061 3802 1946 4211 
L 1920 4211 
Q 1811 3802 1692 3414 
Q 1574 3027 1453 2624 
L 621 0 
L 26 0 
z
M 851 1434 
L 851 1901 
L 3014 1901 
L 3014 1434 
L 851 1434 
z
" transform="scale(0.015625)"/>
       <path id="NotoSansKR-Regular-6d" d="M 589 0 
L 589 3475 
L 1069 3475 
L 1126 2970 
L 1139 2970 
Q 1370 3219 1642 3392 
Q 1914 3565 2221 3565 
Q 2624 3565 2848 3385 
Q 3072 3206 3181 2899 
Q 3456 3194 3734 3379 
Q 4013 3565 4333 3565 
Q 4864 3565 5123 3216 
Q 5382 2867 5382 2202 
L 5382 0 
L 4800 0 
L 4800 2125 
Q 4800 2618 4643 2835 
Q 4486 3053 4154 3053 
Q 3955 3053 3740 2921 
Q 3526 2790 3277 2522 
L 3277 0 
L 2694 0 
L 2694 2125 
Q 2694 2618 2537 2835 
Q 2381 3053 2048 3053 
Q 1850 3053 1632 2921 
Q 1414 2790 1178 2522 
L 1178 0 
L 589 0 
z
" transform="scale(0.015625)"/>
       <path id="NotoSansKR-Regular-70" d="M 589 -1466 
L 589 3475 
L 1069 3475 
L 1126 3072 
L 1139 3072 
Q 1376 3270 1661 3417 
Q 1946 3565 2246 3565 
Q 2694 3565 3004 3344 
Q 3315 3123 3472 2726 
Q 3629 2330 3629 1792 
Q 3629 1197 3414 777 
Q 3200 358 2857 137 
Q 2515 -83 2118 -83 
Q 1882 -83 1638 22 
Q 1395 128 1158 320 
L 1178 -288 
L 1178 -1466 
L 589 -1466 
z
M 2022 410 
Q 2310 410 2537 573 
Q 2765 736 2893 1046 
Q 3021 1357 3021 1786 
Q 3021 2170 2928 2461 
Q 2835 2752 2636 2912 
Q 2438 3072 2099 3072 
Q 1882 3072 1654 2950 
Q 1427 2829 1178 2598 
L 1178 768 
Q 1408 570 1632 490 
Q 1856 410 2022 410 
z
" transform="scale(0.015625)"/>
       <path id="NotoSansKR-Regular-6c" d="M 1203 -83 
Q 986 -83 851 6 
Q 717 96 653 272 
Q 589 448 589 691 
L 589 5094 
L 1178 5094 
L 1178 653 
Q 1178 518 1226 460 
Q 1274 403 1338 403 
Q 1363 403 1388 406 
Q 1414 410 1459 416 
L 1542 -32 
Q 1478 -51 1401 -67 
Q 1325 -83 1203 -83 
z
" transform="scale(0.015625)"/>
       <path id="NotoSansKR-Regular-69" d="M 589 0 
L 589 3475 
L 1178 3475 
L 1178 0 
L 589 0 
z
M 883 4192 
Q 710 4192 604 4297 
Q 499 4403 499 4582 
Q 499 4755 604 4857 
Q 710 4960 883 4960 
Q 1056 4960 1165 4857 
Q 1274 4755 1274 4582 
Q 1274 4403 1165 4297 
Q 1056 4192 883 4192 
z
" transform="scale(0.015625)"/>
       <path id="NotoSansKR-Regular-74" d="M 1677 -83 
Q 1312 -83 1094 61 
Q 877 205 784 467 
Q 691 730 691 1075 
L 691 3002 
L 173 3002 
L 173 3443 
L 723 3475 
L 787 4454 
L 1274 4454 
L 1274 3475 
L 2221 3475 
L 2221 3002 
L 1274 3002 
L 1274 1056 
Q 1274 742 1392 566 
Q 1510 390 1811 390 
Q 1907 390 2016 419 
Q 2125 448 2208 486 
L 2323 45 
Q 2176 -6 2009 -44 
Q 1843 -83 1677 -83 
z
" transform="scale(0.015625)"/>
       <path id="NotoSansKR-Regular-75" d="M 1606 -83 
Q 1056 -83 797 262 
Q 538 608 538 1274 
L 538 3475 
L 1126 3475 
L 1126 1344 
Q 1126 864 1280 643 
Q 1434 422 1779 422 
Q 2048 422 2259 563 
Q 2470 704 2720 1011 
L 2720 3475 
L 3302 3475 
L 3302 0 
L 2816 0 
L 2771 544 
L 2752 544 
Q 2509 262 2237 89 
Q 1965 -83 1606 -83 
z
" transform="scale(0.015625)"/>
       <path id="NotoSansKR-Regular-64" d="M 1773 -83 
Q 1338 -83 1014 128 
Q 691 339 515 745 
Q 339 1152 339 1734 
Q 339 2298 550 2707 
Q 762 3117 1104 3341 
Q 1446 3565 1843 3565 
Q 2150 3565 2371 3459 
Q 2592 3354 2822 3162 
L 2790 3757 
L 2790 5094 
L 3379 5094 
L 3379 0 
L 2899 0 
L 2848 410 
L 2829 410 
Q 2624 205 2355 61 
Q 2086 -83 1773 -83 
z
M 1901 410 
Q 2144 410 2361 528 
Q 2579 646 2790 883 
L 2790 2707 
Q 2573 2906 2368 2989 
Q 2163 3072 1946 3072 
Q 1670 3072 1443 2902 
Q 1216 2733 1078 2435 
Q 941 2138 941 1741 
Q 941 1325 1056 1024 
Q 1171 723 1385 566 
Q 1600 410 1901 410 
z
" transform="scale(0.015625)"/>
       <path id="NotoSansKR-Regular-65" d="M 1997 -83 
Q 1530 -83 1152 134 
Q 774 352 553 758 
Q 333 1165 333 1734 
Q 333 2163 461 2499 
Q 589 2835 809 3075 
Q 1030 3315 1312 3440 
Q 1594 3565 1888 3565 
Q 2336 3565 2643 3366 
Q 2950 3168 3113 2800 
Q 3277 2432 3277 1933 
Q 3277 1837 3270 1753 
Q 3264 1670 3251 1600 
L 909 1600 
Q 928 1229 1078 957 
Q 1229 685 1478 534 
Q 1728 384 2061 384 
Q 2317 384 2525 457 
Q 2733 531 2931 659 
L 3136 269 
Q 2912 122 2630 19 
Q 2349 -83 1997 -83 
z
M 902 2016 
L 2765 2016 
Q 2765 2541 2537 2819 
Q 2310 3098 1901 3098 
Q 1658 3098 1443 2970 
Q 1229 2842 1085 2605 
Q 941 2368 902 2016 
z
" transform="scale(0.015625)"/>
      </defs>
      <use xlink:href="#NotoSansKR-Regular-41"/>
      <use xlink:href="#NotoSansKR-Regular-6d" transform="translate(60.799988 0)"/>
      <use xlink:href="#NotoSansKR-Regular-70" transform="translate(153.399979 0)"/>
      <use xlink:href="#NotoSansKR-Regular-6c" transform="translate(215.399963 0)"/>
      <use xlink:href="#NotoSansKR-Regular-69" transform="translate(243.799957 0)"/>
      <use xlink:href="#NotoSansKR-Regular-74" transform="translate(271.299942 0)"/>
      <use xlink:href="#NotoSansKR-Regular-75" transform="translate(308.999939 0)"/>
      <use xlink:href="#NotoSansKR-Regular-64" transform="translate(369.699936 0)"/>
      <use xlink:href="#NotoSansKR-Regular-65" transform="translate(431.699921 0)"/>
     </g>
    </g>
   </g>
   <g id="line2d_29">
    <path d="M 69.263182 30.363949 
L 71.142115 30.459676 
L 73.021049 30.746617 
L 74.899982 31.224043 
L 76.778916 31.890748 
L 79.127583 32.987685 
L 81.476249 34.373359 
L 83.824916 36.042292 
L 86.173583 37.987882 
L 88.52225 40.202438 
L 91.34065 43.202534 
L 94.15905 46.560193 
L 96.977451 50.256298 
L 100.265584 54.968001 
L 103.553718 60.075142 
L 107.311585 66.345192 
L 111.539185 73.87532 
L 116.236519 82.720188 
L 122.343053 94.746917 
L 141.132387 132.208911 
L 145.829721 140.903763 
L 150.057321 148.261346 
L 153.815188 154.350006 
L 157.103322 159.278293 
L 160.391456 163.793794 
L 163.209856 167.309066 
L 166.028256 170.47529 
L 168.846656 173.274441 
L 171.195323 175.315099 
L 173.54399 177.08167 
L 175.892657 178.567165 
L 178.241324 179.765713 
L 180.58999 180.672572 
L 182.468924 181.185595 
L 184.347857 181.508321 
L 186.226791 181.639934 
L 188.105724 181.580101 
L 189.984658 181.328972 
L 191.863591 180.887184 
L 193.742525 180.255855 
L 196.091192 179.202631 
L 198.439858 177.859945 
L 200.788525 176.233108 
L 203.137192 174.328552 
L 205.485859 172.153809 
L 208.304259 169.199652 
L 211.122659 165.885683 
L 213.94106 162.230772 
L 217.229193 157.563659 
L 220.517327 152.497045 
L 224.275194 146.267935 
L 228.502794 138.776519 
L 233.200128 129.964967 
L 238.836928 118.903999 
L 259.505197 77.800881 
L 264.20253 69.218413 
L 268.430131 61.987506 
L 272.187998 56.030403 
L 275.476131 51.230781 
L 278.764265 46.855553 
L 281.582665 43.468933 
L 284.401065 40.438358 
L 286.749732 38.197371 
L 289.098399 36.22452 
L 291.447066 34.527606 
L 293.795733 33.113341 
L 296.144399 31.987316 
L 298.493066 31.153984 
L 300.372 30.700312 
L 302.250933 30.437244 
L 304.129867 30.365445 
L 306.0088 30.485097 
L 307.887734 30.795898 
L 309.766667 31.29706 
L 311.645601 31.987316 
L 313.994267 33.113341 
L 316.342934 34.527606 
L 318.691601 36.22452 
L 321.040268 38.197371 
L 323.388935 40.438358 
L 326.207335 43.468933 
L 329.025735 46.855553 
L 331.844135 50.578937 
L 335.132269 55.320135 
L 338.420403 60.454041 
L 342.17827 66.751075 
L 346.40587 74.306638 
L 351.103204 83.17328 
L 357.209737 95.217573 
L 375.529339 131.762124 
L 380.226673 140.481008 
L 384.454273 147.865944 
L 388.21214 153.98318 
L 391.500273 158.939527 
L 394.788407 163.485712 
L 397.606807 167.029195 
L 400.425207 170.225223 
L 403.243608 173.055602 
L 405.592275 175.123243 
L 407.940941 176.917554 
L 410.289608 178.43144 
L 412.638275 179.658915 
L 414.986942 180.595123 
L 416.865875 181.131852 
L 418.744809 181.47842 
L 420.623742 181.63395 
L 422.502676 181.598049 
L 424.381609 181.370807 
L 426.260543 180.9528 
L 428.139476 180.345086 
L 430.488143 179.321057 
L 432.83681 178.007097 
L 435.185477 176.408404 
L 437.534144 174.531299 
L 439.882811 172.383205 
L 442.701211 169.45982 
L 445.519611 166.175143 
L 448.338011 162.547874 
L 451.626145 157.910719 
L 454.914278 152.871375 
L 458.672145 146.669866 
L 462.899746 139.204628 
L 467.597079 130.415722 
L 473.23388 119.372504 
L 484.977214 95.688655 
L 491.553481 82.720188 
L 496.720548 73.016513 
L 500.948149 65.538148 
L 504.706016 59.322808 
L 507.994149 54.269804 
L 511.282283 49.617647 
L 514.100683 45.976539 
L 516.919083 42.6772 
L 519.737483 39.738415 
L 522.08615 37.576985 
L 524.434817 35.686145 
L 526.783484 34.073372 
L 529.132151 32.745043 
L 531.480818 31.706411 
L 533.829484 30.961583 
L 535.708418 30.579279 
L 537.587351 30.387885 
L 538.526818 30.363949 
L 538.526818 30.363949 
" clip-path="url(#pd47b0949b8)" style="fill: none; stroke: #000000; stroke-width: 2; stroke-linecap: square"/>
   </g>
   <g id="patch_3">
    <path d="M 45.8 189.206875 
L 45.8 22.8 
" style="fill: none; stroke: #000000; stroke-width: 0.8; stroke-linejoin: miter; stroke-linecap: square"/>
   </g>
   <g id="patch_4">
    <path d="M 45.8 189.206875 
L 561.99 189.206875 
" style="fill: none; stroke: #000000; stroke-width: 0.8; stroke-linejoin: miter; stroke-linecap: square"/>
   </g>
   <g id="text_7">
    <!-- Message Signal $m(t)$ -->
    <g transform="translate(249.655 16.8) scale(0.12 -0.12)">
     <defs>
      <path id="NotoSansKR-Regular-4d" d="M 646 0 
L 646 4691 
L 1357 4691 
L 2253 2182 
Q 2342 1946 2425 1696 
Q 2509 1446 2592 1203 
L 2618 1203 
Q 2707 1446 2787 1696 
Q 2867 1946 2944 2182 
L 3840 4691 
L 4550 4691 
L 4550 0 
L 4000 0 
L 4000 2598 
Q 4000 2803 4013 3043 
Q 4026 3283 4045 3529 
Q 4064 3776 4077 3981 
L 4051 3981 
L 3674 2912 
L 2790 474 
L 2394 474 
L 1504 2912 
L 1126 3981 
L 1101 3981 
Q 1126 3776 1142 3529 
Q 1158 3283 1168 3043 
Q 1178 2803 1178 2598 
L 1178 0 
L 646 0 
z
" transform="scale(0.015625)"/>
      <path id="NotoSansKR-Regular-73" d="M 1498 -83 
Q 1133 -83 790 54 
Q 448 192 205 397 
L 486 787 
Q 717 602 960 486 
Q 1203 371 1517 371 
Q 1862 371 2032 528 
Q 2202 685 2202 915 
Q 2202 1094 2083 1212 
Q 1965 1331 1782 1417 
Q 1600 1504 1408 1574 
Q 1165 1670 931 1788 
Q 698 1907 547 2096 
Q 397 2285 397 2579 
Q 397 2861 537 3081 
Q 678 3302 947 3433 
Q 1216 3565 1594 3565 
Q 1914 3565 2192 3449 
Q 2470 3334 2669 3168 
L 2387 2803 
Q 2208 2931 2019 3020 
Q 1830 3110 1600 3110 
Q 1267 3110 1110 2960 
Q 954 2810 954 2605 
Q 954 2445 1059 2336 
Q 1165 2227 1337 2153 
Q 1510 2080 1702 2003 
Q 1894 1933 2083 1849 
Q 2272 1766 2422 1651 
Q 2573 1536 2665 1366 
Q 2758 1197 2758 947 
Q 2758 666 2614 429 
Q 2470 192 2192 54 
Q 1914 -83 1498 -83 
z
" transform="scale(0.015625)"/>
      <path id="NotoSansKR-Regular-61" d="M 1389 -83 
Q 1101 -83 870 32 
Q 640 147 509 368 
Q 378 589 378 902 
Q 378 1472 886 1776 
Q 1395 2080 2509 2202 
Q 2509 2426 2448 2627 
Q 2387 2829 2233 2953 
Q 2080 3078 1792 3078 
Q 1491 3078 1225 2960 
Q 960 2842 749 2707 
L 525 3110 
Q 685 3213 896 3318 
Q 1107 3424 1356 3494 
Q 1606 3565 1888 3565 
Q 2310 3565 2576 3385 
Q 2842 3206 2966 2889 
Q 3091 2573 3091 2138 
L 3091 0 
L 2611 0 
L 2560 416 
L 2541 416 
Q 2298 211 2006 64 
Q 1715 -83 1389 -83 
z
M 1555 390 
Q 1805 390 2032 505 
Q 2259 621 2509 845 
L 2509 1811 
Q 1926 1747 1580 1628 
Q 1235 1510 1088 1340 
Q 941 1171 941 941 
Q 941 640 1120 515 
Q 1299 390 1555 390 
z
" transform="scale(0.015625)"/>
      <path id="NotoSansKR-Regular-67" d="M 1760 -1600 
Q 1338 -1600 1011 -1491 
Q 685 -1382 505 -1174 
Q 326 -966 326 -672 
Q 326 -448 460 -240 
Q 595 -32 838 115 
L 838 147 
Q 704 230 614 371 
Q 525 512 525 717 
Q 525 934 649 1100 
Q 774 1267 909 1363 
L 909 1389 
Q 736 1523 595 1766 
Q 454 2010 454 2323 
Q 454 2707 633 2985 
Q 813 3264 1110 3414 
Q 1408 3565 1754 3565 
Q 1907 3565 2032 3539 
Q 2157 3514 2246 3475 
L 3456 3475 
L 3456 3027 
L 2746 3027 
Q 2874 2906 2950 2720 
Q 3027 2534 3027 2310 
Q 3027 1939 2857 1667 
Q 2688 1395 2400 1248 
Q 2112 1101 1754 1101 
Q 1632 1101 1494 1133 
Q 1357 1165 1242 1222 
Q 1146 1146 1082 1050 
Q 1018 954 1018 806 
Q 1018 646 1146 537 
Q 1274 429 1626 429 
L 2310 429 
Q 2912 429 3216 230 
Q 3520 32 3520 -397 
Q 3520 -717 3302 -992 
Q 3085 -1267 2691 -1433 
Q 2298 -1600 1760 -1600 
z
M 1754 1498 
Q 1958 1498 2128 1600 
Q 2298 1702 2397 1888 
Q 2496 2074 2496 2323 
Q 2496 2579 2397 2761 
Q 2298 2944 2131 3040 
Q 1965 3136 1754 3136 
Q 1555 3136 1385 3040 
Q 1216 2944 1117 2765 
Q 1018 2586 1018 2323 
Q 1018 2074 1120 1888 
Q 1222 1702 1388 1600 
Q 1555 1498 1754 1498 
z
M 1843 -1197 
Q 2176 -1197 2422 -1094 
Q 2669 -992 2806 -829 
Q 2944 -666 2944 -493 
Q 2944 -243 2765 -147 
Q 2586 -51 2240 -51 
L 1638 -51 
Q 1542 -51 1424 -41 
Q 1306 -32 1190 0 
Q 1005 -128 921 -285 
Q 838 -442 838 -589 
Q 838 -864 1104 -1030 
Q 1370 -1197 1843 -1197 
z
" transform="scale(0.015625)"/>
      <path id="NotoSansKR-Regular-20" transform="scale(0.015625)"/>
      <path id="NotoSansKR-Regular-53" d="M 1946 -83 
Q 1446 -83 1027 102 
Q 608 288 307 608 
L 659 1018 
Q 909 755 1248 595 
Q 1587 435 1952 435 
Q 2419 435 2678 646 
Q 2938 858 2938 1197 
Q 2938 1446 2832 1593 
Q 2726 1741 2550 1840 
Q 2374 1939 2150 2035 
L 1478 2330 
Q 1261 2426 1040 2573 
Q 819 2720 672 2957 
Q 525 3194 525 3533 
Q 525 3898 717 4176 
Q 909 4454 1241 4614 
Q 1574 4774 2003 4774 
Q 2426 4774 2781 4614 
Q 3136 4454 3379 4198 
L 3072 3821 
Q 2854 4019 2595 4137 
Q 2336 4256 2003 4256 
Q 1606 4256 1366 4073 
Q 1126 3891 1126 3578 
Q 1126 3347 1244 3200 
Q 1363 3053 1542 2963 
Q 1722 2874 1907 2790 
L 2573 2502 
Q 2842 2387 3062 2227 
Q 3283 2067 3411 1830 
Q 3539 1594 3539 1248 
Q 3539 877 3347 573 
Q 3155 269 2796 93 
Q 2438 -83 1946 -83 
z
" transform="scale(0.015625)"/>
      <path id="NotoSansKR-Regular-6e" d="M 589 0 
L 589 3475 
L 1069 3475 
L 1126 2970 
L 1139 2970 
Q 1389 3219 1667 3392 
Q 1946 3565 2304 3565 
Q 2854 3565 3110 3216 
Q 3366 2867 3366 2202 
L 3366 0 
L 2784 0 
L 2784 2125 
Q 2784 2618 2627 2835 
Q 2470 3053 2125 3053 
Q 1856 3053 1645 2918 
Q 1434 2784 1178 2522 
L 1178 0 
L 589 0 
z
" transform="scale(0.015625)"/>
      <path id="STIXGeneral-Italic-1d62e" d="M 1619 2938 
L 1530 2573 
Q 1939 2963 2515 2963 
Q 3078 2963 3251 2547 
Q 3725 2963 4262 2963 
Q 4576 2963 4768 2796 
Q 4960 2630 4960 2310 
Q 4960 2176 4922 2016 
L 4422 0 
L 3930 0 
L 4397 1875 
Q 4435 2029 4435 2144 
Q 4435 2509 4045 2509 
Q 3872 2509 3584 2345 
Q 3296 2182 3149 1933 
L 2669 0 
L 2176 0 
L 2630 1856 
Q 2675 2061 2675 2144 
Q 2675 2509 2298 2509 
Q 2125 2509 1833 2349 
Q 1542 2189 1389 1933 
L 909 0 
L 416 0 
L 1114 2816 
L 1568 2970 
L 1619 2938 
z
" transform="scale(0.015625)"/>
      <path id="STIXGeneral-Regular-28" d="M 1946 -1030 
L 1869 -1133 
Q 1126 -710 716 32 
Q 307 774 307 1613 
Q 307 3386 1888 4326 
L 1946 4224 
Q 1293 3667 1075 3126 
Q 858 2586 858 1632 
Q 858 685 1082 96 
Q 1306 -493 1946 -1030 
z
" transform="scale(0.015625)"/>
      <path id="STIXGeneral-Italic-1d635" d="M 2406 2899 
L 2298 2445 
L 1632 2445 
L 1242 877 
Q 1203 723 1203 627 
Q 1203 390 1446 390 
Q 1677 390 1894 557 
L 1971 557 
L 1779 77 
Q 1562 -64 1184 -64 
Q 922 -64 784 67 
Q 646 198 646 429 
Q 646 525 678 666 
L 1126 2445 
L 614 2445 
L 640 2554 
L 1011 2899 
L 1235 2899 
L 1338 3309 
L 1830 3712 
L 1946 3712 
L 1741 2899 
L 2406 2899 
z
" transform="scale(0.015625)"/>
      <path id="STIXGeneral-Regular-29" d="M 186 4224 
L 262 4326 
Q 992 3891 1408 3148 
Q 1824 2406 1824 1581 
Q 1824 -166 243 -1133 
L 186 -1030 
Q 845 -486 1059 54 
Q 1274 595 1274 1562 
Q 1274 2534 1059 3120 
Q 845 3706 186 4224 
z
" transform="scale(0.015625)"/>
     </defs>
     <use xlink:href="#NotoSansKR-Regular-4d" transform="translate(0 0.40625)"/>
     <use xlink:href="#NotoSansKR-Regular-65" transform="translate(81.199982 0.40625)"/>
     <use xlink:href="#NotoSansKR-Regular-73" transform="translate(136.599976 0.40625)"/>
     <use xlink:href="#NotoSansKR-Regular-73" transform="translate(183.399963 0.40625)"/>
     <use xlink:href="#NotoSansKR-Regular-61" transform="translate(230.199951 0.40625)"/>
     <use xlink:href="#NotoSansKR-Regular-67" transform="translate(286.499939 0.40625)"/>
     <use xlink:href="#NotoSansKR-Regular-65" transform="translate(342.899933 0.40625)"/>
     <use xlink:href="#NotoSansKR-Regular-20" transform="translate(398.299927 0.40625)"/>
     <use xlink:href="#NotoSansKR-Regular-53" transform="translate(420.699921 0.40625)"/>
     <use xlink:href="#NotoSansKR-Regular-69" transform="translate(480.299911 0.40625)"/>
     <use xlink:href="#NotoSansKR-Regular-67" transform="translate(507.799896 0.40625)"/>
     <use xlink:href="#NotoSansKR-Regular-6e" transform="translate(564.19989 0.40625)"/>
     <use xlink:href="#NotoSansKR-Regular-61" transform="translate(625.199875 0.40625)"/>
     <use xlink:href="#NotoSansKR-Regular-6c" transform="translate(681.499863 0.40625)"/>
     <use xlink:href="#NotoSansKR-Regular-20" transform="translate(709.899857 0.40625)"/>
     <use xlink:href="#STIXGeneral-Italic-1d62e" transform="translate(732.29985 0.40625)"/>
     <use xlink:href="#STIXGeneral-Regular-28" transform="translate(807.899841 0.40625)"/>
     <use xlink:href="#STIXGeneral-Italic-1d635" transform="translate(841.199829 0.40625)"/>
     <use xlink:href="#STIXGeneral-Regular-29" transform="translate(870.29982 0.40625)"/>
    </g>
   </g>
  </g>
  <g id="axes_2">
   <g id="patch_5">
    <path d="M 45.8 386.35375 
L 561.99 386.35375 
L 561.99 219.946875 
L 45.8 219.946875 
z
" style="fill: #ffffff"/>
   </g>
   <g id="matplotlib.axis_3">
    <g id="xtick_10">
     <g id="line2d_30">
      <path d="M 69.263182 386.35375 
L 69.263182 219.946875 
" clip-path="url(#pdd94dea81b)" style="fill: none; stroke: #b0b0b0; stroke-opacity: 0.3; stroke-width: 0.8; stroke-linecap: square"/>
     </g>
     <g id="line2d_31">
      <g>
       <use xlink:href="#m933da79abe" x="69.263182" y="386.35375" style="stroke: #000000; stroke-width: 0.8"/>
      </g>
     </g>
     <g id="text_8">
      <!-- 0.00 -->
      <g transform="translate(59.548338 401.313125) scale(0.1 -0.1)">
       <use xlink:href="#NotoSansKR-Regular-30"/>
       <use xlink:href="#NotoSansKR-Regular-2e" transform="translate(55.499985 0)"/>
       <use xlink:href="#NotoSansKR-Regular-30" transform="translate(83.299973 0)"/>
       <use xlink:href="#NotoSansKR-Regular-30" transform="translate(138.799957 0)"/>
      </g>
     </g>
    </g>
    <g id="xtick_11">
     <g id="line2d_32">
      <path d="M 127.921136 386.35375 
L 127.921136 219.946875 
" clip-path="url(#pdd94dea81b)" style="fill: none; stroke: #b0b0b0; stroke-opacity: 0.3; stroke-width: 0.8; stroke-linecap: square"/>
     </g>
     <g id="line2d_33">
      <g>
       <use xlink:href="#m933da79abe" x="127.921136" y="386.35375" style="stroke: #000000; stroke-width: 0.8"/>
      </g>
     </g>
     <g id="text_9">
      <!-- 0.25 -->
      <g transform="translate(118.206293 401.313125) scale(0.1 -0.1)">
       <defs>
        <path id="NotoSansKR-Regular-32" d="M 282 0 
L 282 346 
Q 1018 992 1494 1523 
Q 1971 2054 2201 2512 
Q 2432 2970 2432 3373 
Q 2432 3642 2339 3853 
Q 2246 4064 2054 4182 
Q 1862 4301 1568 4301 
Q 1280 4301 1033 4147 
Q 787 3994 595 3757 
L 256 4090 
Q 538 4403 864 4588 
Q 1190 4774 1638 4774 
Q 2061 4774 2365 4604 
Q 2669 4435 2838 4124 
Q 3008 3814 3008 3398 
Q 3008 2931 2774 2451 
Q 2541 1971 2128 1475 
Q 1715 979 1165 461 
Q 1350 474 1552 490 
Q 1754 506 1933 506 
L 3232 506 
L 3232 0 
L 282 0 
z
" transform="scale(0.015625)"/>
       </defs>
       <use xlink:href="#NotoSansKR-Regular-30"/>
       <use xlink:href="#NotoSansKR-Regular-2e" transform="translate(55.499985 0)"/>
       <use xlink:href="#NotoSansKR-Regular-32" transform="translate(83.299973 0)"/>
       <use xlink:href="#NotoSansKR-Regular-35" transform="translate(138.799957 0)"/>
      </g>
     </g>
    </g>
    <g id="xtick_12">
     <g id="line2d_34">
      <path d="M 186.579091 386.35375 
L 186.579091 219.946875 
" clip-path="url(#pdd94dea81b)" style="fill: none; stroke: #b0b0b0; stroke-opacity: 0.3; stroke-width: 0.8; stroke-linecap: square"/>
     </g>
     <g id="line2d_35">
      <g>
       <use xlink:href="#m933da79abe" x="186.579091" y="386.35375" style="stroke: #000000; stroke-width: 0.8"/>
      </g>
     </g>
     <g id="text_10">
      <!-- 0.50 -->
      <g transform="translate(176.864247 401.313125) scale(0.1 -0.1)">
       <use xlink:href="#NotoSansKR-Regular-30"/>
       <use xlink:href="#NotoSansKR-Regular-2e" transform="translate(55.499985 0)"/>
       <use xlink:href="#NotoSansKR-Regular-35" transform="translate(83.299973 0)"/>
       <use xlink:href="#NotoSansKR-Regular-30" transform="translate(138.799957 0)"/>
      </g>
     </g>
    </g>
    <g id="xtick_13">
     <g id="line2d_36">
      <path d="M 245.237045 386.35375 
L 245.237045 219.946875 
" clip-path="url(#pdd94dea81b)" style="fill: none; stroke: #b0b0b0; stroke-opacity: 0.3; stroke-width: 0.8; stroke-linecap: square"/>
     </g>
     <g id="line2d_37">
      <g>
       <use xlink:href="#m933da79abe" x="245.237045" y="386.35375" style="stroke: #000000; stroke-width: 0.8"/>
      </g>
     </g>
     <g id="text_11">
      <!-- 0.75 -->
      <g transform="translate(235.522202 401.313125) scale(0.1 -0.1)">
       <defs>
        <path id="NotoSansKR-Regular-37" d="M 1267 0 
Q 1299 666 1379 1226 
Q 1459 1786 1612 2282 
Q 1766 2778 2006 3245 
Q 2246 3712 2592 4192 
L 314 4192 
L 314 4691 
L 3251 4691 
L 3251 4339 
Q 2842 3808 2582 3321 
Q 2323 2835 2179 2329 
Q 2035 1824 1968 1257 
Q 1901 691 1875 0 
L 1267 0 
z
" transform="scale(0.015625)"/>
       </defs>
       <use xlink:href="#NotoSansKR-Regular-30"/>
       <use xlink:href="#NotoSansKR-Regular-2e" transform="translate(55.499985 0)"/>
       <use xlink:href="#NotoSansKR-Regular-37" transform="translate(83.299973 0)"/>
       <use xlink:href="#NotoSansKR-Regular-35" transform="translate(138.799957 0)"/>
      </g>
     </g>
    </g>
    <g id="xtick_14">
     <g id="line2d_38">
      <path d="M 303.895 386.35375 
L 303.895 219.946875 
" clip-path="url(#pdd94dea81b)" style="fill: none; stroke: #b0b0b0; stroke-opacity: 0.3; stroke-width: 0.8; stroke-linecap: square"/>
     </g>
     <g id="line2d_39">
      <g>
       <use xlink:href="#m933da79abe" x="303.895" y="386.35375" style="stroke: #000000; stroke-width: 0.8"/>
      </g>
     </g>
     <g id="text_12">
      <!-- 1.00 -->
      <g transform="translate(294.180156 401.313125) scale(0.1 -0.1)">
       <use xlink:href="#NotoSansKR-Regular-31"/>
       <use xlink:href="#NotoSansKR-Regular-2e" transform="translate(55.499985 0)"/>
       <use xlink:href="#NotoSansKR-Regular-30" transform="translate(83.299973 0)"/>
       <use xlink:href="#NotoSansKR-Regular-30" transform="translate(138.799957 0)"/>
      </g>
     </g>
    </g>
    <g id="xtick_15">
     <g id="line2d_40">
      <path d="M 362.552955 386.35375 
L 362.552955 219.946875 
" clip-path="url(#pdd94dea81b)" style="fill: none; stroke: #b0b0b0; stroke-opacity: 0.3; stroke-width: 0.8; stroke-linecap: square"/>
     </g>
     <g id="line2d_41">
      <g>
       <use xlink:href="#m933da79abe" x="362.552955" y="386.35375" style="stroke: #000000; stroke-width: 0.8"/>
      </g>
     </g>
     <g id="text_13">
      <!-- 1.25 -->
      <g transform="translate(352.838111 401.313125) scale(0.1 -0.1)">
       <use xlink:href="#NotoSansKR-Regular-31"/>
       <use xlink:href="#NotoSansKR-Regular-2e" transform="translate(55.499985 0)"/>
       <use xlink:href="#NotoSansKR-Regular-32" transform="translate(83.299973 0)"/>
       <use xlink:href="#NotoSansKR-Regular-35" transform="translate(138.799957 0)"/>
      </g>
     </g>
    </g>
    <g id="xtick_16">
     <g id="line2d_42">
      <path d="M 421.210909 386.35375 
L 421.210909 219.946875 
" clip-path="url(#pdd94dea81b)" style="fill: none; stroke: #b0b0b0; stroke-opacity: 0.3; stroke-width: 0.8; stroke-linecap: square"/>
     </g>
     <g id="line2d_43">
      <g>
       <use xlink:href="#m933da79abe" x="421.210909" y="386.35375" style="stroke: #000000; stroke-width: 0.8"/>
      </g>
     </g>
     <g id="text_14">
      <!-- 1.50 -->
      <g transform="translate(411.496065 401.313125) scale(0.1 -0.1)">
       <use xlink:href="#NotoSansKR-Regular-31"/>
       <use xlink:href="#NotoSansKR-Regular-2e" transform="translate(55.499985 0)"/>
       <use xlink:href="#NotoSansKR-Regular-35" transform="translate(83.299973 0)"/>
       <use xlink:href="#NotoSansKR-Regular-30" transform="translate(138.799957 0)"/>
      </g>
     </g>
    </g>
    <g id="xtick_17">
     <g id="line2d_44">
      <path d="M 479.868864 386.35375 
L 479.868864 219.946875 
" clip-path="url(#pdd94dea81b)" style="fill: none; stroke: #b0b0b0; stroke-opacity: 0.3; stroke-width: 0.8; stroke-linecap: square"/>
     </g>
     <g id="line2d_45">
      <g>
       <use xlink:href="#m933da79abe" x="479.868864" y="386.35375" style="stroke: #000000; stroke-width: 0.8"/>
      </g>
     </g>
     <g id="text_15">
      <!-- 1.75 -->
      <g transform="translate(470.15402 401.313125) scale(0.1 -0.1)">
       <use xlink:href="#NotoSansKR-Regular-31"/>
       <use xlink:href="#NotoSansKR-Regular-2e" transform="translate(55.499985 0)"/>
       <use xlink:href="#NotoSansKR-Regular-37" transform="translate(83.299973 0)"/>
       <use xlink:href="#NotoSansKR-Regular-35" transform="translate(138.799957 0)"/>
      </g>
     </g>
    </g>
    <g id="xtick_18">
     <g id="line2d_46">
      <path d="M 538.526818 386.35375 
L 538.526818 219.946875 
" clip-path="url(#pdd94dea81b)" style="fill: none; stroke: #b0b0b0; stroke-opacity: 0.3; stroke-width: 0.8; stroke-linecap: square"/>
     </g>
     <g id="line2d_47">
      <g>
       <use xlink:href="#m933da79abe" x="538.526818" y="386.35375" style="stroke: #000000; stroke-width: 0.8"/>
      </g>
     </g>
     <g id="text_16">
      <!-- 2.00 -->
      <g transform="translate(528.811974 401.313125) scale(0.1 -0.1)">
       <use xlink:href="#NotoSansKR-Regular-32"/>
       <use xlink:href="#NotoSansKR-Regular-2e" transform="translate(55.499985 0)"/>
       <use xlink:href="#NotoSansKR-Regular-30" transform="translate(83.299973 0)"/>
       <use xlink:href="#NotoSansKR-Regular-30" transform="translate(138.799957 0)"/>
      </g>
     </g>
    </g>
    <g id="text_17">
     <!-- Time (s) -->
     <g transform="translate(285.284844 415.563125) scale(0.1 -0.1)">
      <defs>
       <path id="NotoSansKR-Regular-54" d="M 1619 0 
L 1619 4192 
L 198 4192 
L 198 4691 
L 3635 4691 
L 3635 4192 
L 2214 4192 
L 2214 0 
L 1619 0 
z
" transform="scale(0.015625)"/>
       <path id="NotoSansKR-Regular-28" d="M 1530 -1254 
Q 1088 -538 838 252 
Q 589 1043 589 1990 
Q 589 2931 838 3724 
Q 1088 4518 1530 5235 
L 1888 5069 
Q 1478 4384 1276 3593 
Q 1075 2803 1075 1990 
Q 1075 1171 1276 380 
Q 1478 -410 1888 -1094 
L 1530 -1254 
z
" transform="scale(0.015625)"/>
       <path id="NotoSansKR-Regular-29" d="M 634 -1254 
L 269 -1094 
Q 685 -410 889 380 
Q 1094 1171 1094 1990 
Q 1094 2803 889 3593 
Q 685 4384 269 5069 
L 634 5235 
Q 1082 4518 1328 3724 
Q 1574 2931 1574 1990 
Q 1574 1043 1328 252 
Q 1082 -538 634 -1254 
z
" transform="scale(0.015625)"/>
      </defs>
      <use xlink:href="#NotoSansKR-Regular-54"/>
      <use xlink:href="#NotoSansKR-Regular-69" transform="translate(59.899994 0)"/>
      <use xlink:href="#NotoSansKR-Regular-6d" transform="translate(87.399979 0)"/>
      <use xlink:href="#NotoSansKR-Regular-65" transform="translate(179.999969 0)"/>
      <use xlink:href="#NotoSansKR-Regular-20" transform="translate(235.399963 0)"/>
      <use xlink:href="#NotoSansKR-Regular-28" transform="translate(257.799957 0)"/>
      <use xlink:href="#NotoSansKR-Regular-73" transform="translate(291.599945 0)"/>
      <use xlink:href="#NotoSansKR-Regular-29" transform="translate(338.399933 0)"/>
     </g>
    </g>
   </g>
   <g id="matplotlib.axis_4">
    <g id="ytick_6">
     <g id="line2d_48">
      <path d="M 45.8 386.35375 
L 561.99 386.35375 
" clip-path="url(#pdd94dea81b)" style="fill: none; stroke: #b0b0b0; stroke-opacity: 0.3; stroke-width: 0.8; stroke-linecap: square"/>
     </g>
     <g id="line2d_49">
      <g>
       <use xlink:href="#m8fe8657f06" x="45.8" y="386.35375" style="stroke: #000000; stroke-width: 0.8"/>
      </g>
     </g>
     <g id="text_18">
      <!-- -1.5 -->
      <g transform="translate(21.45 390.333437) scale(0.1 -0.1)">
       <use xlink:href="#NotoSansKR-Regular-2d"/>
       <use xlink:href="#NotoSansKR-Regular-31" transform="translate(34.699997 0)"/>
       <use xlink:href="#NotoSansKR-Regular-2e" transform="translate(90.199982 0)"/>
       <use xlink:href="#NotoSansKR-Regular-35" transform="translate(117.999969 0)"/>
      </g>
     </g>
    </g>
    <g id="ytick_7">
     <g id="line2d_50">
      <path d="M 45.8 363.866334 
L 561.99 363.866334 
" clip-path="url(#pdd94dea81b)" style="fill: none; stroke: #b0b0b0; stroke-opacity: 0.3; stroke-width: 0.8; stroke-linecap: square"/>
     </g>
     <g id="line2d_51">
      <g>
       <use xlink:href="#m8fe8657f06" x="45.8" y="363.866334" style="stroke: #000000; stroke-width: 0.8"/>
      </g>
     </g>
     <g id="text_19">
      <!-- -1.0 -->
      <g transform="translate(21.45 367.846022) scale(0.1 -0.1)">
       <use xlink:href="#NotoSansKR-Regular-2d"/>
       <use xlink:href="#NotoSansKR-Regular-31" transform="translate(34.699997 0)"/>
       <use xlink:href="#NotoSansKR-Regular-2e" transform="translate(90.199982 0)"/>
       <use xlink:href="#NotoSansKR-Regular-30" transform="translate(117.999969 0)"/>
      </g>
     </g>
    </g>
    <g id="ytick_8">
     <g id="line2d_52">
      <path d="M 45.8 341.378919 
L 561.99 341.378919 
" clip-path="url(#pdd94dea81b)" style="fill: none; stroke: #b0b0b0; stroke-opacity: 0.3; stroke-width: 0.8; stroke-linecap: square"/>
     </g>
     <g id="line2d_53">
      <g>
       <use xlink:href="#m8fe8657f06" x="45.8" y="341.378919" style="stroke: #000000; stroke-width: 0.8"/>
      </g>
     </g>
     <g id="text_20">
      <!-- -0.5 -->
      <g transform="translate(21.45 345.358606) scale(0.1 -0.1)">
       <use xlink:href="#NotoSansKR-Regular-2d"/>
       <use xlink:href="#NotoSansKR-Regular-30" transform="translate(34.699997 0)"/>
       <use xlink:href="#NotoSansKR-Regular-2e" transform="translate(90.199982 0)"/>
       <use xlink:href="#NotoSansKR-Regular-35" transform="translate(117.999969 0)"/>
      </g>
     </g>
    </g>
    <g id="ytick_9">
     <g id="line2d_54">
      <path d="M 45.8 318.891503 
L 561.99 318.891503 
" clip-path="url(#pdd94dea81b)" style="fill: none; stroke: #b0b0b0; stroke-opacity: 0.3; stroke-width: 0.8; stroke-linecap: square"/>
     </g>
     <g id="line2d_55">
      <g>
       <use xlink:href="#m8fe8657f06" x="45.8" y="318.891503" style="stroke: #000000; stroke-width: 0.8"/>
      </g>
     </g>
     <g id="text_21">
      <!-- 0.0 -->
      <g transform="translate(24.920313 322.871191) scale(0.1 -0.1)">
       <use xlink:href="#NotoSansKR-Regular-30"/>
       <use xlink:href="#NotoSansKR-Regular-2e" transform="translate(55.499985 0)"/>
       <use xlink:href="#NotoSansKR-Regular-30" transform="translate(83.299973 0)"/>
      </g>
     </g>
    </g>
    <g id="ytick_10">
     <g id="line2d_56">
      <path d="M 45.8 296.404088 
L 561.99 296.404088 
" clip-path="url(#pdd94dea81b)" style="fill: none; stroke: #b0b0b0; stroke-opacity: 0.3; stroke-width: 0.8; stroke-linecap: square"/>
     </g>
     <g id="line2d_57">
      <g>
       <use xlink:href="#m8fe8657f06" x="45.8" y="296.404088" style="stroke: #000000; stroke-width: 0.8"/>
      </g>
     </g>
     <g id="text_22">
      <!-- 0.5 -->
      <g transform="translate(24.920313 300.383775) scale(0.1 -0.1)">
       <use xlink:href="#NotoSansKR-Regular-30"/>
       <use xlink:href="#NotoSansKR-Regular-2e" transform="translate(55.499985 0)"/>
       <use xlink:href="#NotoSansKR-Regular-35" transform="translate(83.299973 0)"/>
      </g>
     </g>
    </g>
    <g id="ytick_11">
     <g id="line2d_58">
      <path d="M 45.8 273.916672 
L 561.99 273.916672 
" clip-path="url(#pdd94dea81b)" style="fill: none; stroke: #b0b0b0; stroke-opacity: 0.3; stroke-width: 0.8; stroke-linecap: square"/>
     </g>
     <g id="line2d_59">
      <g>
       <use xlink:href="#m8fe8657f06" x="45.8" y="273.916672" style="stroke: #000000; stroke-width: 0.8"/>
      </g>
     </g>
     <g id="text_23">
      <!-- 1.0 -->
      <g transform="translate(24.920313 277.89636) scale(0.1 -0.1)">
       <use xlink:href="#NotoSansKR-Regular-31"/>
       <use xlink:href="#NotoSansKR-Regular-2e" transform="translate(55.499985 0)"/>
       <use xlink:href="#NotoSansKR-Regular-30" transform="translate(83.299973 0)"/>
      </g>
     </g>
    </g>
    <g id="ytick_12">
     <g id="line2d_60">
      <path d="M 45.8 251.429257 
L 561.99 251.429257 
" clip-path="url(#pdd94dea81b)" style="fill: none; stroke: #b0b0b0; stroke-opacity: 0.3; stroke-width: 0.8; stroke-linecap: square"/>
     </g>
     <g id="line2d_61">
      <g>
       <use xlink:href="#m8fe8657f06" x="45.8" y="251.429257" style="stroke: #000000; stroke-width: 0.8"/>
      </g>
     </g>
     <g id="text_24">
      <!-- 1.5 -->
      <g transform="translate(24.920313 255.408944) scale(0.1 -0.1)">
       <use xlink:href="#NotoSansKR-Regular-31"/>
       <use xlink:href="#NotoSansKR-Regular-2e" transform="translate(55.499985 0)"/>
       <use xlink:href="#NotoSansKR-Regular-35" transform="translate(83.299973 0)"/>
      </g>
     </g>
    </g>
    <g id="ytick_13">
     <g id="line2d_62">
      <path d="M 45.8 228.941841 
L 561.99 228.941841 
" clip-path="url(#pdd94dea81b)" style="fill: none; stroke: #b0b0b0; stroke-opacity: 0.3; stroke-width: 0.8; stroke-linecap: square"/>
     </g>
     <g id="line2d_63">
      <g>
       <use xlink:href="#m8fe8657f06" x="45.8" y="228.941841" style="stroke: #000000; stroke-width: 0.8"/>
      </g>
     </g>
     <g id="text_25">
      <!-- 2.0 -->
      <g transform="translate(24.920313 232.921529) scale(0.1 -0.1)">
       <use xlink:href="#NotoSansKR-Regular-32"/>
       <use xlink:href="#NotoSansKR-Regular-2e" transform="translate(55.499985 0)"/>
       <use xlink:href="#NotoSansKR-Regular-30" transform="translate(83.299973 0)"/>
      </g>
     </g>
    </g>
    <g id="text_26">
     <!-- Amplitude -->
     <g transform="translate(15.159375 327.505781) rotate(-90) scale(0.1 -0.1)">
      <use xlink:href="#NotoSansKR-Regular-41"/>
      <use xlink:href="#NotoSansKR-Regular-6d" transform="translate(60.799988 0)"/>
      <use xlink:href="#NotoSansKR-Regular-70" transform="translate(153.399979 0)"/>
      <use xlink:href="#NotoSansKR-Regular-6c" transform="translate(215.399963 0)"/>
      <use xlink:href="#NotoSansKR-Regular-69" transform="translate(243.799957 0)"/>
      <use xlink:href="#NotoSansKR-Regular-74" transform="translate(271.299942 0)"/>
      <use xlink:href="#NotoSansKR-Regular-75" transform="translate(308.999939 0)"/>
      <use xlink:href="#NotoSansKR-Regular-64" transform="translate(369.699936 0)"/>
      <use xlink:href="#NotoSansKR-Regular-65" transform="translate(431.699921 0)"/>
     </g>
    </g>
   </g>
   <g id="line2d_64">
    <path d="M 69.263182 273.916672 
L 69.732915 276.122224 
L 70.202649 282.522032 
L 70.672382 292.487039 
L 73.021049 355.298524 
L 73.490782 361.670853 
L 73.960516 363.866334 
L 74.430249 361.678319 
L 74.899982 355.32844 
L 75.369716 345.442986 
L 77.718382 282.869956 
L 78.188116 276.356142 
L 78.657849 273.925816 
L 79.127583 275.796562 
L 79.597316 281.773433 
L 80.067049 291.271279 
L 81.006516 316.926058 
L 81.945983 343.232917 
L 82.415716 353.524171 
L 82.88545 360.567211 
L 83.355183 363.724295 
L 83.824916 362.724344 
L 84.29465 357.683405 
L 84.764383 349.088763 
L 85.70385 324.715072 
L 86.643316 298.373414 
L 87.11305 287.438914 
L 87.582783 279.343253 
L 88.052517 274.787057 
L 88.52225 274.147889 
L 88.991983 277.452299 
L 89.461717 284.379681 
L 90.401183 306.31861 
L 91.810384 344.187287 
L 92.280117 353.81521 
L 92.74985 360.475244 
L 93.219584 363.637697 
L 93.689317 363.072931 
L 94.15905 358.863851 
L 94.628784 351.392004 
L 95.568251 329.429748 
L 96.977451 293.038101 
L 97.447184 283.850569 
L 97.916917 277.427796 
L 98.386651 274.235201 
L 98.856384 274.480242 
L 99.326117 278.10343 
L 99.795851 284.790194 
L 100.735318 305.022315 
L 102.144518 340.385941 
L 103.083984 357.526656 
L 103.553718 362.21629 
L 104.023451 363.865142 
L 104.493185 362.401981 
L 104.962918 357.971388 
L 105.432651 350.916716 
L 106.372118 331.112231 
L 107.781318 297.696166 
L 108.720785 281.178981 
L 109.190518 276.290754 
L 109.660252 274.053056 
L 110.129985 274.558745 
L 110.599718 277.731479 
L 111.069452 283.336849 
L 112.008918 300.246119 
L 114.357585 349.801757 
L 114.827319 356.500779 
L 115.297052 361.150771 
L 115.766785 363.54494 
L 116.236519 363.601695 
L 116.706252 361.363442 
L 117.175986 356.988871 
L 117.645719 350.739587 
L 118.585186 334.066996 
L 120.464119 296.437861 
L 121.403586 282.389597 
L 121.873319 277.718909 
L 122.343053 274.867249 
L 122.812786 273.916682 
L 123.282519 274.864923 
L 123.752253 277.629731 
L 124.221986 282.056501 
L 125.161453 294.978921 
L 126.570653 320.070438 
L 127.979853 344.241464 
L 128.91932 356.056671 
L 129.389053 360.072947 
L 129.858787 362.674687 
L 130.32852 363.811601 
L 130.798253 363.484199 
L 131.267987 361.740828 
L 131.73772 358.673268 
L 132.207453 354.411172 
L 133.14692 342.972342 
L 134.55612 321.527209 
L 135.96532 299.990627 
L 136.904787 288.09589 
L 137.844254 279.469964 
L 138.313987 276.602118 
L 138.783721 274.759913 
L 139.253454 273.95652 
L 139.723187 274.179886 
L 140.192921 275.394688 
L 140.662654 277.544718 
L 141.132387 280.555604 
L 142.071854 288.789366 
L 143.011321 299.251662 
L 146.769188 344.878342 
L 147.708655 353.237936 
L 148.648121 359.304346 
L 149.117855 361.401836 
L 149.587588 362.857634 
L 150.057321 363.671465 
L 150.527055 363.852692 
L 150.996788 363.419463 
L 151.466522 362.397788 
L 151.936255 360.820563 
L 152.875722 356.15948 
L 153.815188 349.799162 
L 155.224388 337.975754 
L 159.921722 295.303836 
L 161.330922 285.754427 
L 162.270389 280.865589 
L 163.209856 277.25921 
L 164.149323 274.964997 
L 164.619056 274.307139 
L 165.088789 273.969075 
L 165.558523 273.943358 
L 166.028256 274.220666 
L 166.497989 274.790009 
L 166.967723 275.638941 
L 167.907189 278.119699 
L 168.846656 281.541632 
L 169.786123 285.772011 
L 171.195323 293.328323 
L 173.074257 304.925728 
L 178.241324 337.881445 
L 179.650524 345.477936 
L 181.059724 351.970588 
L 182.468924 357.17358 
L 183.408391 359.854937 
L 184.347857 361.869472 
L 185.287324 363.194757 
L 185.757058 363.594098 
L 186.226791 363.816304 
L 186.696524 363.860775 
L 187.166258 363.727392 
L 187.635991 363.416513 
L 188.105724 362.928979 
L 189.045191 361.429717 
L 189.984658 359.246058 
L 190.924125 356.402455 
L 191.863591 352.931641 
L 193.272791 346.642309 
L 194.681992 339.214846 
L 196.560925 327.939648 
L 202.667459 289.391745 
L 204.076659 282.528796 
L 205.016126 278.891977 
L 205.955592 276.164015 
L 206.425326 275.180355 
L 206.895059 274.469579 
L 207.364793 274.044784 
L 207.834526 273.917714 
L 208.304259 274.098551 
L 208.773993 274.595707 
L 209.243726 275.41561 
L 209.713459 276.562489 
L 210.652926 279.841798 
L 211.592393 284.415427 
L 212.53186 290.216938 
L 213.94106 300.943473 
L 215.819993 317.93966 
L 218.638393 344.159595 
L 219.57786 351.526641 
L 220.517327 357.49927 
L 221.456794 361.676321 
L 221.926527 362.980275 
L 222.39626 363.711432 
L 222.865994 363.840215 
L 223.335727 363.344426 
L 223.80546 362.210198 
L 224.275194 360.432887 
L 224.744927 358.017874 
L 225.684394 351.350378 
L 226.623861 342.4736 
L 228.033061 326.056564 
L 230.851461 291.231866 
L 231.790928 282.356379 
L 232.260661 278.947833 
L 232.730394 276.357055 
L 233.200128 274.666412 
L 233.669861 273.941547 
L 234.139595 274.228547 
L 234.609328 275.551377 
L 235.079061 277.909688 
L 235.548795 281.277127 
L 236.488261 290.79795 
L 237.427728 303.358492 
L 240.715862 351.881482 
L 241.655329 360.365284 
L 242.125062 362.784731 
L 242.594795 363.828993 
L 243.064529 363.427379 
L 243.534262 361.554992 
L 244.003995 358.236451 
L 244.473729 353.548042 
L 245.413195 340.625237 
L 246.822396 315.719024 
L 248.231596 291.32465 
L 249.171062 279.647596 
L 249.640796 276.028331 
L 250.110529 274.156792 
L 250.580263 274.15253 
L 251.049996 276.058567 
L 251.519729 279.835344 
L 251.989463 285.358114 
L 252.928929 300.728485 
L 255.74733 354.078662 
L 256.217063 359.429068 
L 256.686796 362.762121 
L 257.15653 363.86569 
L 257.626263 362.637886 
L 258.095996 359.097729 
L 258.56573 353.389692 
L 259.505197 336.654325 
L 261.853863 286.940114 
L 262.323597 280.250412 
L 262.79333 275.822874 
L 263.263064 273.963865 
L 263.732797 274.830758 
L 264.20253 278.41606 
L 264.672264 284.541348 
L 265.61173 302.883158 
L 267.490664 346.559843 
L 267.960397 354.74358 
L 268.430131 360.540519 
L 268.899864 363.518454 
L 269.369597 363.430425 
L 269.839331 360.238523 
L 270.309064 354.123663 
L 271.248531 334.892484 
L 273.127464 289.121638 
L 273.597198 281.092761 
L 274.066931 275.883526 
L 274.536664 273.925518 
L 275.006398 275.408504 
L 275.476131 280.258704 
L 275.945865 288.137223 
L 276.885331 310.436175 
L 278.294531 346.624467 
L 278.764265 355.501156 
L 279.233998 361.406745 
L 279.703731 363.823323 
L 280.173465 362.51533 
L 280.643198 357.556021 
L 281.112932 349.328295 
L 282.052398 325.967413 
L 283.461598 289.01478 
L 283.931332 280.49597 
L 284.401065 275.31931 
L 284.870799 273.967848 
L 285.340532 276.59107 
L 285.810265 282.985409 
L 286.279999 292.60632 
L 287.689199 331.371234 
L 288.628665 353.786493 
L 289.098399 360.686814 
L 289.568132 363.745759 
L 290.037866 362.657452 
L 290.507599 357.499683 
L 290.977332 348.731685 
L 291.916799 323.84557 
L 292.856266 297.064981 
L 293.325999 286.132652 
L 293.795733 278.299686 
L 294.265466 274.32614 
L 294.735199 274.607284 
L 295.204933 279.13212 
L 295.674666 287.480874 
L 296.614133 312.187256 
L 297.5536 339.465962 
L 298.023333 350.77419 
L 298.493066 358.993395 
L 298.9628 363.316376 
L 299.432533 363.313642 
L 299.902266 358.977369 
L 300.372 350.724017 
L 301.311466 325.979432 
L 302.250933 298.511774 
L 302.720667 287.112858 
L 303.1904 278.828043 
L 303.660133 274.471491 
L 304.129867 274.471491 
L 304.5996 278.828043 
L 305.069333 287.112858 
L 306.0088 311.90533 
L 306.948267 339.355054 
L 307.418 350.724017 
L 307.887734 358.977369 
L 308.357467 363.313642 
L 308.8272 363.316376 
L 309.296934 358.993395 
L 309.766667 350.77419 
L 310.706134 326.172944 
L 312.115334 287.480874 
L 312.585067 279.13212 
L 313.054801 274.607284 
L 313.524534 274.32614 
L 313.994267 278.299686 
L 314.464001 286.132652 
L 315.403468 310.047725 
L 316.812668 348.731685 
L 317.282401 357.499683 
L 317.752134 362.657452 
L 318.221868 363.745759 
L 318.691601 360.686814 
L 319.161335 353.786493 
L 320.100801 331.371234 
L 321.510001 292.60632 
L 321.979735 282.985409 
L 322.449468 276.59107 
L 322.919201 273.967848 
L 323.388935 275.31931 
L 323.858668 280.49597 
L 324.328402 289.01478 
L 325.267868 312.793357 
L 326.677068 349.328295 
L 327.146802 357.556021 
L 327.616535 362.51533 
L 328.086269 363.823323 
L 328.556002 361.406745 
L 329.025735 355.501156 
L 329.495469 346.624467 
L 330.434935 323.129682 
L 331.374402 298.459656 
L 332.313869 280.258704 
L 332.783602 275.408504 
L 333.253336 273.925518 
L 333.723069 275.883526 
L 334.192802 281.092761 
L 334.662536 289.121638 
L 335.602002 310.952858 
L 337.011203 345.479837 
L 337.480936 354.123663 
L 337.950669 360.238523 
L 338.420403 363.430425 
L 338.890136 363.518454 
L 339.359869 360.540519 
L 339.829603 354.74358 
L 340.76907 336.571263 
L 342.648003 292.862012 
L 343.117736 284.541348 
L 343.58747 278.41606 
L 344.057203 274.830758 
L 344.526936 273.963865 
L 344.99667 275.822874 
L 345.466403 280.250412 
L 345.936137 286.940114 
L 346.875603 305.28655 
L 348.754537 345.781428 
L 349.22427 353.389692 
L 349.694004 359.097729 
L 350.163737 362.637886 
L 350.63347 363.86569 
L 351.103204 362.762121 
L 351.572937 359.429068 
L 352.04267 354.078662 
L 352.982137 338.626802 
L 355.330804 292.418217 
L 356.270271 279.835344 
L 356.740004 276.058567 
L 357.209737 274.15253 
L 357.679471 274.156792 
L 358.149204 276.028331 
L 358.618938 279.647596 
L 359.088671 284.82749 
L 360.028138 298.852349 
L 362.846538 347.618073 
L 363.786005 358.236451 
L 364.255738 361.554992 
L 364.725471 363.427379 
L 365.195205 363.828993 
L 365.664938 362.784731 
L 366.134671 360.365284 
L 366.604405 356.682125 
L 367.543872 346.137616 
L 368.953072 325.259079 
L 370.832005 296.762111 
L 371.771472 285.600219 
L 372.710939 277.909688 
L 373.180672 275.551377 
L 373.650405 274.228547 
L 374.120139 273.941547 
L 374.589872 274.666412 
L 375.059606 276.357055 
L 375.529339 278.947833 
L 376.468806 286.48662 
L 377.408272 296.477883 
L 379.287206 320.084247 
L 380.696406 337.341004 
L 381.635873 347.164232 
L 382.575339 354.981253 
L 383.514806 360.432887 
L 383.98454 362.210198 
L 384.454273 363.344426 
L 384.924006 363.840215 
L 385.39374 363.711432 
L 385.863473 362.980275 
L 386.333206 361.676321 
L 386.80294 359.835536 
L 387.742406 354.713258 
L 388.681873 347.991027 
L 390.091073 335.824935 
L 394.318674 297.126372 
L 395.727874 287.168887 
L 396.667341 281.969776 
L 397.606807 278.038155 
L 398.546274 275.41561 
L 399.016007 274.595707 
L 399.485741 274.098551 
L 399.955474 273.917714 
L 400.425207 274.044784 
L 400.894941 274.469579 
L 401.364674 275.180355 
L 401.834408 276.164015 
L 402.773874 278.891977 
L 403.713341 282.528796 
L 405.122541 289.391745 
L 406.531741 297.522264 
L 408.880408 312.621494 
L 412.168542 333.740623 
L 414.047475 344.282791 
L 415.456675 350.973606 
L 416.865875 356.402455 
L 417.805342 359.246058 
L 418.744809 361.429717 
L 419.684276 362.928979 
L 420.154009 363.416513 
L 420.623742 363.727392 
L 421.093476 363.860775 
L 421.563209 363.816304 
L 422.032942 363.594098 
L 422.502676 363.194757 
L 423.442143 361.869472 
L 424.381609 359.854937 
L 425.321076 357.17358 
L 426.260543 353.856035 
L 427.669743 347.774958 
L 429.078943 340.522804 
L 430.957877 329.415792 
L 434.24601 307.98301 
L 436.594677 293.328323 
L 438.003877 285.772011 
L 438.943344 281.541632 
L 439.882811 278.119699 
L 440.822277 275.638941 
L 441.292011 274.790009 
L 441.761744 274.220666 
L 442.231477 273.943358 
L 442.701211 273.969075 
L 443.170944 274.307139 
L 443.640677 274.964997 
L 444.110411 275.948005 
L 445.049878 278.899139 
L 445.989344 283.153432 
L 446.928811 288.65705 
L 447.868278 295.303836 
L 449.277478 307.045583 
L 452.095878 333.64043 
L 453.505078 346.108926 
L 454.444545 353.166847 
L 455.384012 358.726571 
L 455.853745 360.820563 
L 456.323478 362.397788 
L 456.793212 363.419463 
L 457.262945 363.852692 
L 457.732679 363.671465 
L 458.202412 362.857634 
L 458.672145 361.401836 
L 459.141879 359.304346 
L 460.081345 353.237936 
L 461.020812 344.878342 
L 462.430012 328.978182 
L 465.718146 288.789366 
L 466.657613 280.555604 
L 467.127346 277.544718 
L 467.597079 275.394688 
L 468.066813 274.179886 
L 468.536546 273.95652 
L 469.006279 274.759913 
L 469.476013 276.602118 
L 469.945746 279.469964 
L 470.41548 283.323635 
L 471.354946 293.692025 
L 472.294413 306.845211 
L 475.112813 349.11566 
L 476.05228 358.673268 
L 476.522013 361.740828 
L 476.991747 363.484199 
L 477.46148 363.811601 
L 477.931213 362.674687 
L 478.400947 360.072947 
L 478.87068 356.056671 
L 479.810147 344.241464 
L 480.749614 328.647426 
L 482.628547 294.978921 
L 483.568014 282.056501 
L 484.037747 277.629731 
L 484.507481 274.864923 
L 484.977214 273.916682 
L 485.446947 274.867249 
L 485.916681 277.718909 
L 486.386414 282.389597 
L 487.325881 296.437861 
L 488.735081 324.5049 
L 489.674548 342.962182 
L 490.614014 356.988871 
L 491.083748 361.363442 
L 491.553481 363.601695 
L 492.023215 363.54494 
L 492.492948 361.150771 
L 492.962681 356.500779 
L 493.432415 349.801757 
L 494.371881 331.667555 
L 496.250815 291.002593 
L 496.720548 283.336849 
L 497.190282 277.731479 
L 497.660015 274.558745 
L 498.129748 274.053056 
L 498.599482 276.290754 
L 499.069215 281.178981 
L 499.538948 288.454928 
L 500.478415 308.34202 
L 501.887615 341.750099 
L 502.827082 357.971388 
L 503.296815 362.401981 
L 503.766549 363.865142 
L 504.236282 362.21629 
L 504.706016 357.526656 
L 505.175749 350.085408 
L 506.115216 329.09653 
L 507.524416 294.001829 
L 507.994149 284.790194 
L 508.463883 278.10343 
L 508.933616 274.480242 
L 509.403349 274.235201 
L 509.873083 277.427796 
L 510.342816 283.850569 
L 511.282283 304.297061 
L 513.161216 351.392004 
L 513.63095 358.863851 
L 514.100683 363.072931 
L 514.570416 363.637697 
L 515.04015 360.475244 
L 515.509883 353.81521 
L 516.44935 332.382477 
L 517.85855 294.296734 
L 518.328283 284.379681 
L 518.798017 277.452299 
L 519.26775 274.147889 
L 519.737483 274.787057 
L 520.207217 279.343253 
L 520.67695 287.438914 
L 521.616417 311.181131 
L 523.025617 349.088763 
L 523.49535 357.683405 
L 523.965084 362.724344 
L 524.434817 363.724295 
L 524.90455 360.567211 
L 525.374284 353.524171 
L 526.313751 330.642271 
L 527.722951 291.271279 
L 528.192684 281.773433 
L 528.662417 275.796562 
L 529.132151 273.925816 
L 529.601884 276.356142 
L 530.071618 282.869956 
L 530.541351 292.854656 
L 532.890018 355.32844 
L 533.359751 361.678319 
L 533.829484 363.866334 
L 534.299218 361.670853 
L 534.768951 355.298524 
L 535.238685 345.365742 
L 537.587351 282.522032 
L 538.057085 276.122224 
L 538.526818 273.916672 
L 538.526818 273.916672 
" clip-path="url(#pdd94dea81b)" style="fill: none; stroke: #0000ff; stroke-linecap: square"/>
   </g>
   <g id="patch_6">
    <path d="M 45.8 386.35375 
L 45.8 219.946875 
" style="fill: none; stroke: #000000; stroke-width: 0.8; stroke-linejoin: miter; stroke-linecap: square"/>
   </g>
   <g id="patch_7">
    <path d="M 45.8 386.35375 
L 561.99 386.35375 
" style="fill: none; stroke: #000000; stroke-width: 0.8; stroke-linejoin: miter; stroke-linecap: square"/>
   </g>
   <g id="patch_8">
    <path d="M 69.263182 244.437229 
Q 69.263182 253.680499 69.263182 261.805735 
" style="fill: none; stroke: #000000; stroke-linecap: round"/>
    <path d="M 71.263182 257.805735 
L 69.263182 261.805735 
L 67.263182 257.805735 
" style="fill: none; stroke: #000000; stroke-linecap: round"/>
   </g>
   <g id="text_27">
    <!-- High Freq -->
    <g style="fill: #ff0000" transform="translate(46.702244 237.936807) scale(0.1 -0.1)">
     <defs>
      <path id="NotoSansKR-Regular-48" d="M 646 0 
L 646 4691 
L 1235 4691 
L 1235 2726 
L 3424 2726 
L 3424 4691 
L 4019 4691 
L 4019 0 
L 3424 0 
L 3424 2214 
L 1235 2214 
L 1235 0 
L 646 0 
z
" transform="scale(0.015625)"/>
      <path id="NotoSansKR-Regular-68" d="M 589 0 
L 589 5094 
L 1178 5094 
L 1178 3699 
L 1152 2982 
Q 1395 3226 1670 3395 
Q 1946 3565 2304 3565 
Q 2854 3565 3110 3216 
Q 3366 2867 3366 2202 
L 3366 0 
L 2784 0 
L 2784 2125 
Q 2784 2618 2627 2835 
Q 2470 3053 2125 3053 
Q 1856 3053 1645 2918 
Q 1434 2784 1178 2522 
L 1178 0 
L 589 0 
z
" transform="scale(0.015625)"/>
      <path id="NotoSansKR-Regular-46" d="M 646 0 
L 646 4691 
L 3347 4691 
L 3347 4192 
L 1235 4192 
L 1235 2605 
L 3027 2605 
L 3027 2106 
L 1235 2106 
L 1235 0 
L 646 0 
z
" transform="scale(0.015625)"/>
      <path id="NotoSansKR-Regular-72" d="M 589 0 
L 589 3475 
L 1069 3475 
L 1126 2842 
L 1139 2842 
Q 1318 3174 1577 3369 
Q 1837 3565 2125 3565 
Q 2246 3565 2332 3549 
Q 2419 3533 2496 3488 
L 2387 2982 
Q 2298 3008 2227 3024 
Q 2157 3040 2048 3040 
Q 1837 3040 1593 2857 
Q 1350 2675 1178 2234 
L 1178 0 
L 589 0 
z
" transform="scale(0.015625)"/>
      <path id="NotoSansKR-Regular-71" d="M 2790 -1466 
L 2790 -230 
L 2822 403 
Q 2611 198 2345 57 
Q 2080 -83 1773 -83 
Q 1338 -83 1014 128 
Q 691 339 515 745 
Q 339 1152 339 1734 
Q 339 2298 550 2707 
Q 762 3117 1104 3341 
Q 1446 3565 1843 3565 
Q 2150 3565 2380 3459 
Q 2611 3354 2842 3149 
L 2854 3149 
L 2912 3475 
L 3379 3475 
L 3379 -1466 
L 2790 -1466 
z
M 1901 410 
Q 2144 410 2361 528 
Q 2579 646 2790 883 
L 2790 2707 
Q 2573 2906 2368 2989 
Q 2163 3072 1946 3072 
Q 1670 3072 1443 2902 
Q 1216 2733 1078 2435 
Q 941 2138 941 1741 
Q 941 1325 1056 1024 
Q 1171 723 1385 566 
Q 1600 410 1901 410 
z
" transform="scale(0.015625)"/>
     </defs>
     <use xlink:href="#NotoSansKR-Regular-48"/>
     <use xlink:href="#NotoSansKR-Regular-69" transform="translate(72.799988 0)"/>
     <use xlink:href="#NotoSansKR-Regular-67" transform="translate(100.299973 0)"/>
     <use xlink:href="#NotoSansKR-Regular-68" transform="translate(156.699966 0)"/>
     <use xlink:href="#NotoSansKR-Regular-20" transform="translate(217.399963 0)"/>
     <use xlink:href="#NotoSansKR-Regular-46" transform="translate(239.799957 0)"/>
     <use xlink:href="#NotoSansKR-Regular-72" transform="translate(294.999954 0)"/>
     <use xlink:href="#NotoSansKR-Regular-65" transform="translate(333.799942 0)"/>
     <use xlink:href="#NotoSansKR-Regular-71" transform="translate(389.199936 0)"/>
    </g>
   </g>
   <g id="patch_9">
    <path d="M 186.579091 244.223516 
Q 186.579091 253.573327 186.579091 261.805104 
" style="fill: none; stroke: #000000; stroke-linecap: round"/>
    <path d="M 188.579091 257.805104 
L 186.579091 261.805104 
L 184.579091 257.805104 
" style="fill: none; stroke: #000000; stroke-linecap: round"/>
   </g>
   <g id="text_28">
    <!-- Low Freq -->
    <g style="fill: #008000" transform="translate(165.133778 237.936807) scale(0.1 -0.1)">
     <defs>
      <path id="NotoSansKR-Regular-4c" d="M 646 0 
L 646 4691 
L 1235 4691 
L 1235 506 
L 3290 506 
L 3290 0 
L 646 0 
z
" transform="scale(0.015625)"/>
      <path id="NotoSansKR-Regular-6f" d="M 1939 -83 
Q 1517 -83 1145 131 
Q 774 346 553 752 
Q 333 1158 333 1734 
Q 333 2317 553 2723 
Q 774 3130 1145 3347 
Q 1517 3565 1939 3565 
Q 2259 3565 2550 3443 
Q 2842 3322 3066 3085 
Q 3290 2848 3418 2509 
Q 3546 2170 3546 1734 
Q 3546 1158 3322 752 
Q 3098 346 2733 131 
Q 2368 -83 1939 -83 
z
M 1939 403 
Q 2240 403 2467 569 
Q 2694 736 2822 1037 
Q 2950 1338 2950 1734 
Q 2950 2138 2822 2438 
Q 2694 2739 2467 2905 
Q 2240 3072 1939 3072 
Q 1638 3072 1411 2905 
Q 1184 2739 1059 2438 
Q 934 2138 934 1734 
Q 934 1338 1059 1037 
Q 1184 736 1411 569 
Q 1638 403 1939 403 
z
" transform="scale(0.015625)"/>
      <path id="NotoSansKR-Regular-77" d="M 1139 0 
L 173 3475 
L 768 3475 
L 1286 1466 
Q 1344 1216 1392 979 
Q 1440 742 1491 499 
L 1523 499 
Q 1581 742 1635 979 
Q 1690 1216 1754 1466 
L 2298 3475 
L 2867 3475 
L 3411 1466 
Q 3475 1216 3536 979 
Q 3597 742 3654 499 
L 3686 499 
Q 3738 742 3789 979 
Q 3840 1216 3898 1466 
L 4403 3475 
L 4966 3475 
L 4026 0 
L 3315 0 
L 2816 1875 
Q 2752 2118 2694 2364 
Q 2637 2611 2579 2874 
L 2547 2874 
Q 2490 2611 2435 2361 
Q 2381 2112 2310 1862 
L 1818 0 
L 1139 0 
z
" transform="scale(0.015625)"/>
     </defs>
     <use xlink:href="#NotoSansKR-Regular-4c"/>
     <use xlink:href="#NotoSansKR-Regular-6f" transform="translate(54.299988 0)"/>
     <use xlink:href="#NotoSansKR-Regular-77" transform="translate(114.899979 0)"/>
     <use xlink:href="#NotoSansKR-Regular-20" transform="translate(195.09996 0)"/>
     <use xlink:href="#NotoSansKR-Regular-46" transform="translate(217.499954 0)"/>
     <use xlink:href="#NotoSansKR-Regular-72" transform="translate(272.699951 0)"/>
     <use xlink:href="#NotoSansKR-Regular-65" transform="translate(311.499939 0)"/>
     <use xlink:href="#NotoSansKR-Regular-71" transform="translate(366.899933 0)"/>
    </g>
   </g>
   <g id="text_29">
    <!-- FM Signal $x_{FM}(t)$ (Accordion Effect) -->
    <g transform="translate(209.875 213.946875) scale(0.12 -0.12)">
     <defs>
      <path id="STIXGeneral-Italic-1d639" d="M 3482 2899 
L 2202 1510 
L 2893 0 
L 2291 0 
L 1786 1120 
L 794 0 
L 192 0 
L 1600 1530 
L 986 2899 
L 1587 2899 
L 2022 1933 
L 2880 2899 
L 3482 2899 
z
" transform="scale(0.015625)"/>
      <path id="STIXGeneral-Italic-1d60d" d="M 4346 4237 
L 4282 3763 
L 1965 3763 
L 1645 2470 
L 3539 2470 
L 3418 1990 
L 1523 1990 
L 1030 0 
L 474 0 
L 1530 4237 
L 4346 4237 
z
" transform="scale(0.015625)"/>
      <path id="STIXGeneral-Italic-1d614" d="M 5971 4237 
L 4915 0 
L 4371 0 
L 5235 3475 
L 2765 0 
L 2630 0 
L 1882 3462 
L 1024 0 
L 480 0 
L 1536 4237 
L 2323 4237 
L 2989 1152 
L 5184 4237 
L 5971 4237 
z
" transform="scale(0.015625)"/>
      <path id="NotoSansKR-Regular-63" d="M 1958 -83 
Q 1498 -83 1130 131 
Q 762 346 547 752 
Q 333 1158 333 1734 
Q 333 2317 563 2723 
Q 794 3130 1178 3347 
Q 1562 3565 2003 3565 
Q 2342 3565 2588 3443 
Q 2835 3322 3014 3155 
L 2720 2771 
Q 2573 2906 2403 2989 
Q 2234 3072 2029 3072 
Q 1715 3072 1465 2905 
Q 1216 2739 1075 2438 
Q 934 2138 934 1734 
Q 934 1338 1072 1037 
Q 1210 736 1450 569 
Q 1690 403 2010 403 
Q 2253 403 2457 502 
Q 2662 602 2829 749 
L 3085 352 
Q 2848 147 2560 32 
Q 2272 -83 1958 -83 
z
" transform="scale(0.015625)"/>
      <path id="NotoSansKR-Regular-45" d="M 646 0 
L 646 4691 
L 3347 4691 
L 3347 4192 
L 1235 4192 
L 1235 2720 
L 3014 2720 
L 3014 2214 
L 1235 2214 
L 1235 506 
L 3418 506 
L 3418 0 
L 646 0 
z
" transform="scale(0.015625)"/>
      <path id="NotoSansKR-Regular-66" d="M 685 0 
L 685 4032 
Q 685 4384 793 4640 
Q 902 4896 1126 5037 
Q 1350 5178 1696 5178 
Q 1856 5178 2006 5146 
Q 2157 5114 2278 5069 
L 2150 4614 
Q 1958 4710 1760 4710 
Q 1510 4710 1388 4537 
Q 1267 4365 1267 4026 
L 1267 0 
L 685 0 
z
M 211 3002 
L 211 3443 
L 710 3475 
L 2003 3475 
L 2003 3002 
L 211 3002 
z
" transform="scale(0.015625)"/>
     </defs>
     <use xlink:href="#NotoSansKR-Regular-46" transform="translate(0 0.203125)"/>
     <use xlink:href="#NotoSansKR-Regular-4d" transform="translate(55.199997 0.203125)"/>
     <use xlink:href="#NotoSansKR-Regular-20" transform="translate(136.399979 0.203125)"/>
     <use xlink:href="#NotoSansKR-Regular-53" transform="translate(158.799973 0.203125)"/>
     <use xlink:href="#NotoSansKR-Regular-69" transform="translate(218.399963 0.203125)"/>
     <use xlink:href="#NotoSansKR-Regular-67" transform="translate(245.899948 0.203125)"/>
     <use xlink:href="#NotoSansKR-Regular-6e" transform="translate(302.299942 0.203125)"/>
     <use xlink:href="#NotoSansKR-Regular-61" transform="translate(363.299927 0.203125)"/>
     <use xlink:href="#NotoSansKR-Regular-6c" transform="translate(419.599915 0.203125)"/>
     <use xlink:href="#NotoSansKR-Regular-20" transform="translate(447.999908 0.203125)"/>
     <use xlink:href="#STIXGeneral-Italic-1d639" transform="translate(470.399902 0.203125)"/>
     <use xlink:href="#STIXGeneral-Italic-1d60d" transform="translate(518.599899 -13.385937) scale(0.7)"/>
     <use xlink:href="#STIXGeneral-Italic-1d614" transform="translate(556.049889 -13.385937) scale(0.7)"/>
     <use xlink:href="#STIXGeneral-Regular-28" transform="translate(617.324724 0.203125)"/>
     <use xlink:href="#STIXGeneral-Italic-1d635" transform="translate(650.624712 0.203125)"/>
     <use xlink:href="#STIXGeneral-Regular-29" transform="translate(679.724702 0.203125)"/>
     <use xlink:href="#NotoSansKR-Regular-20" transform="translate(713.02469 0.203125)"/>
     <use xlink:href="#NotoSansKR-Regular-28" transform="translate(735.424684 0.203125)"/>
     <use xlink:href="#NotoSansKR-Regular-41" transform="translate(769.224672 0.203125)"/>
     <use xlink:href="#NotoSansKR-Regular-63" transform="translate(830.02466 0.203125)"/>
     <use xlink:href="#NotoSansKR-Regular-63" transform="translate(881.024644 0.203125)"/>
     <use xlink:href="#NotoSansKR-Regular-6f" transform="translate(932.024629 0.203125)"/>
     <use xlink:href="#NotoSansKR-Regular-72" transform="translate(992.62462 0.203125)"/>
     <use xlink:href="#NotoSansKR-Regular-64" transform="translate(1031.424608 0.203125)"/>
     <use xlink:href="#NotoSansKR-Regular-69" transform="translate(1093.424593 0.203125)"/>
     <use xlink:href="#NotoSansKR-Regular-6f" transform="translate(1120.924577 0.203125)"/>
     <use xlink:href="#NotoSansKR-Regular-6e" transform="translate(1181.524568 0.203125)"/>
     <use xlink:href="#NotoSansKR-Regular-20" transform="translate(1242.524553 0.203125)"/>
     <use xlink:href="#NotoSansKR-Regular-45" transform="translate(1264.924547 0.203125)"/>
     <use xlink:href="#NotoSansKR-Regular-66" transform="translate(1323.824541 0.203125)"/>
     <use xlink:href="#NotoSansKR-Regular-66" transform="translate(1356.324525 0.203125)"/>
     <use xlink:href="#NotoSansKR-Regular-65" transform="translate(1388.82451 0.203125)"/>
     <use xlink:href="#NotoSansKR-Regular-63" transform="translate(1444.224504 0.203125)"/>
     <use xlink:href="#NotoSansKR-Regular-74" transform="translate(1495.224489 0.203125)"/>
     <use xlink:href="#NotoSansKR-Regular-29" transform="translate(1532.924486 0.203125)"/>
    </g>
   </g>
  </g>
 </g>
 <defs>
  <clipPath id="pd47b0949b8">
   <rect x="45.8" y="22.8" width="516.19" height="166.406875"/>
  </clipPath>
  <clipPath id="pdd94dea81b">
   <rect x="45.8" y="219.946875" width="516.19" height="166.406875"/>
  </clipPath>
 </defs>
</svg>
