<?xml version="1.0" encoding="utf-8" standalone="no"?>
<!DOCTYPE svg PUBLIC "-//W3C//DTD SVG 1.1//EN"
  "http://www.w3.org/Graphics/SVG/1.1/DTD/svg11.dtd">
<svg xmlns:xlink="http://www.w3.org/1999/xlink" width="496.704687pt" height="280.839063pt" viewBox="0 0 496.704687 280.839063" xmlns="http://www.w3.org/2000/svg" version="1.1">
 <metadata>
  <rdf:RDF xmlns:dc="http://purl.org/dc/elements/1.1/" xmlns:cc="http://creativecommons.org/ns#" xmlns:rdf="http://www.w3.org/1999/02/22-rdf-syntax-ns#">
   <cc:Work>
    <dc:type rdf:resource="http://purl.org/dc/dcmitype/StillImage"/>
    <dc:date>2026-01-16T10:18:36.261181</dc:date>
    <dc:format>image/svg+xml</dc:format>
    <dc:creator>
     <cc:Agent>
      <dc:title>Matplotlib v3.10.8, https://matplotlib.org/</dc:title>
     </cc:Agent>
    </dc:creator>
   </cc:Work>
  </rdf:RDF>
 </metadata>
 <defs>
  <style type="text/css">*{stroke-linejoin: round; stroke-linecap: butt}</style>
 </defs>
 <g id="figure_1">
  <g id="patch_1">
   <path d="M 0 280.839063 
L 496.704687 280.839063 
L 496.704687 0 
L 0 0 
z
" style="fill: #ffffff"/>
  </g>
  <g id="axes_1">
   <g id="patch_2">
    <path d="M 43.104688 243.84375 
L 489.504687 243.84375 
L 489.504687 22.08375 
L 43.104688 22.08375 
z
" style="fill: #ffffff"/>
   </g>
   <g id="patch_3">
    <path d="M 229.104688 243.84375 
L 266.304688 59.04375 
L 303.504687 243.84375 
z
" clip-path="url(#p9961c8ba9d)" style="fill: #808080; opacity: 0.5; stroke: #000000; stroke-linejoin: miter"/>
   </g>
   <g id="patch_4">
    <path d="M 377.904688 243.84375 
L 415.104687 151.44375 
L 452.304688 243.84375 
z
" clip-path="url(#p9961c8ba9d)" style="fill: #d62728; opacity: 0.6; stroke: #ff0000; stroke-linejoin: miter"/>
   </g>
   <g id="patch_5">
    <path d="M 80.304688 243.84375 
L 117.504688 151.44375 
L 154.704688 243.84375 
z
" clip-path="url(#p9961c8ba9d)" style="fill: #d62728; opacity: 0.6; stroke: #ff0000; stroke-linejoin: miter"/>
   </g>
   <g id="matplotlib.axis_1">
    <g id="xtick_1">
     <g id="line2d_1">
      <path d="M 117.504688 243.84375 
L 117.504688 22.08375 
" clip-path="url(#p9961c8ba9d)" style="fill: none; stroke: #b0b0b0; stroke-opacity: 0.3; stroke-width: 0.8; stroke-linecap: square"/>
     </g>
     <g id="line2d_2">
      <defs>
       <path id="mca400139a5" d="M 0 0 
L 0 3.5 
" style="stroke: #000000; stroke-width: 0.8"/>
      </defs>
      <g>
       <use xlink:href="#mca400139a5" x="117.504688" y="243.84375" style="stroke: #000000; stroke-width: 0.8"/>
      </g>
     </g>
     <g id="text_1">
      <!-- $-f_c$ -->
      <g transform="translate(109.454688 258.251562) scale(0.1 -0.1)">
       <defs>
        <path id="DejaVuSans-2212" d="M 678 2272 
L 4684 2272 
L 4684 1741 
L 678 1741 
L 678 2272 
z
" transform="scale(0.015625)"/>
        <path id="DejaVuSans-Oblique-66" d="M 3059 4863 
L 2969 4384 
L 2419 4384 
Q 2106 4384 1964 4261 
Q 1822 4138 1753 3809 
L 1691 3500 
L 2638 3500 
L 2553 3053 
L 1606 3053 
L 1013 0 
L 434 0 
L 1031 3053 
L 481 3053 
L 563 3500 
L 1113 3500 
L 1159 3744 
Q 1278 4363 1576 4613 
Q 1875 4863 2516 4863 
L 3059 4863 
z
" transform="scale(0.015625)"/>
        <path id="DejaVuSans-Oblique-63" d="M 3431 3366 
L 3316 2797 
Q 3109 2947 2876 3022 
Q 2644 3097 2394 3097 
Q 2119 3097 1870 3000 
Q 1622 2903 1453 2725 
Q 1184 2453 1037 2087 
Q 891 1722 891 1331 
Q 891 859 1127 628 
Q 1363 397 1844 397 
Q 2081 397 2348 469 
Q 2616 541 2906 684 
L 2797 116 
Q 2547 13 2283 -39 
Q 2019 -91 1741 -91 
Q 1044 -91 669 257 
Q 294 606 294 1253 
Q 294 1797 489 2255 
Q 684 2713 1069 3078 
Q 1331 3328 1684 3456 
Q 2038 3584 2456 3584 
Q 2700 3584 2940 3529 
Q 3181 3475 3431 3366 
z
" transform="scale(0.015625)"/>
       </defs>
       <use xlink:href="#DejaVuSans-2212" transform="translate(0 0.015625)"/>
       <use xlink:href="#DejaVuSans-Oblique-66" transform="translate(83.789062 0.015625)"/>
       <use xlink:href="#DejaVuSans-Oblique-63" transform="translate(118.994141 -16.390625) scale(0.7)"/>
      </g>
     </g>
    </g>
    <g id="xtick_2">
     <g id="line2d_3">
      <path d="M 266.304688 243.84375 
L 266.304688 22.08375 
" clip-path="url(#p9961c8ba9d)" style="fill: none; stroke: #b0b0b0; stroke-opacity: 0.3; stroke-width: 0.8; stroke-linecap: square"/>
     </g>
     <g id="line2d_4">
      <g>
       <use xlink:href="#mca400139a5" x="266.304688" y="243.84375" style="stroke: #000000; stroke-width: 0.8"/>
      </g>
     </g>
     <g id="text_2">
      <!-- $0$ -->
      <g transform="translate(263.104688 257.914062) scale(0.1 -0.1)">
       <defs>
        <path id="DejaVuSans-30" d="M 2034 4250 
Q 1547 4250 1301 3770 
Q 1056 3291 1056 2328 
Q 1056 1369 1301 889 
Q 1547 409 2034 409 
Q 2525 409 2770 889 
Q 3016 1369 3016 2328 
Q 3016 3291 2770 3770 
Q 2525 4250 2034 4250 
z
M 2034 4750 
Q 2819 4750 3233 4129 
Q 3647 3509 3647 2328 
Q 3647 1150 3233 529 
Q 2819 -91 2034 -91 
Q 1250 -91 836 529 
Q 422 1150 422 2328 
Q 422 3509 836 4129 
Q 1250 4750 2034 4750 
z
" transform="scale(0.015625)"/>
       </defs>
       <use xlink:href="#DejaVuSans-30" transform="translate(0 0.78125)"/>
      </g>
     </g>
    </g>
    <g id="xtick_3">
     <g id="line2d_5">
      <path d="M 415.104687 243.84375 
L 415.104687 22.08375 
" clip-path="url(#p9961c8ba9d)" style="fill: none; stroke: #b0b0b0; stroke-opacity: 0.3; stroke-width: 0.8; stroke-linecap: square"/>
     </g>
     <g id="line2d_6">
      <g>
       <use xlink:href="#mca400139a5" x="415.104687" y="243.84375" style="stroke: #000000; stroke-width: 0.8"/>
      </g>
     </g>
     <g id="text_3">
      <!-- $+f_c$ -->
      <g transform="translate(407.054687 258.251562) scale(0.1 -0.1)">
       <defs>
        <path id="DejaVuSans-2b" d="M 2944 4013 
L 2944 2272 
L 4684 2272 
L 4684 1741 
L 2944 1741 
L 2944 0 
L 2419 0 
L 2419 1741 
L 678 1741 
L 678 2272 
L 2419 2272 
L 2419 4013 
L 2944 4013 
z
" transform="scale(0.015625)"/>
       </defs>
       <use xlink:href="#DejaVuSans-2b" transform="translate(0 0.015625)"/>
       <use xlink:href="#DejaVuSans-Oblique-66" transform="translate(83.789062 0.015625)"/>
       <use xlink:href="#DejaVuSans-Oblique-63" transform="translate(118.994141 -16.390625) scale(0.7)"/>
      </g>
     </g>
    </g>
    <g id="text_4">
     <!-- Frequency (f) -->
     <g transform="translate(236.160937 271.646875) scale(0.1 -0.1)">
      <defs>
       <path id="Pretendard-Regular-46" d="M 500 0 
L 1063 0 
L 1063 2019 
L 3019 2019 
L 3019 2513 
L 1063 2513 
L 1063 4025 
L 3225 4025 
L 3225 4525 
L 500 4525 
L 500 0 
z
" transform="scale(0.015625)"/>
       <path id="Pretendard-Regular-72" d="M 431 0 
L 969 0 
L 969 2138 
C 969 2594 1331 2931 1819 2931 
C 1956 2931 2106 2906 2144 2894 
L 2144 3438 
C 2081 3444 1944 3450 1863 3450 
C 1463 3450 1113 3219 988 2875 
L 950 2875 
L 950 3394 
L 431 3394 
L 431 0 
z
" transform="scale(0.015625)"/>
       <path id="Pretendard-Regular-65" d="M 1856 -69 
C 2556 -69 3056 281 3219 794 
L 2644 794 
C 2519 581 2263 406 1856 406 
C 1250 406 831 800 806 1519 
L 3269 1519 
L 3269 1744 
C 3269 3000 2519 3438 1806 3438 
C 881 3438 269 2713 269 1669 
C 269 625 875 -69 1856 -69 
z
M 813 1975 
C 844 2500 1219 2963 1806 2963 
C 2363 2963 2725 2544 2725 1975 
L 813 1975 
z
" transform="scale(0.015625)"/>
       <path id="Pretendard-Regular-71" d="M 2738 -1275 
L 3281 -1275 
L 3281 3394 
L 2756 3394 
L 2756 2856 
L 2700 2856 
C 2588 3038 2375 3438 1719 3438 
C 869 3438 269 2763 269 1688 
C 269 613 869 -69 1713 -69 
C 2363 -69 2581 331 2700 519 
L 2738 519 
L 2738 -1275 
z
M 1788 413 
C 1144 413 813 975 813 1700 
C 813 2406 1138 2956 1788 2956 
C 2419 2956 2756 2450 2756 1700 
C 2756 938 2406 413 1788 413 
z
" transform="scale(0.015625)"/>
       <path id="Pretendard-Regular-75" d="M 2575 1394 
C 2575 763 2088 475 1706 475 
C 1275 475 969 788 969 1275 
L 969 3394 
L 431 3394 
L 431 1238 
C 431 375 888 -44 1531 -44 
C 2044 -44 2375 231 2538 575 
L 2575 575 
L 2575 0 
L 3106 0 
L 3106 3394 
L 2575 3394 
L 2575 1394 
z
" transform="scale(0.015625)"/>
       <path id="Pretendard-Regular-6e" d="M 969 2038 
C 969 2625 1331 2956 1825 2956 
C 2306 2956 2594 2644 2594 2119 
L 2594 0 
L 3131 0 
L 3131 2156 
C 3131 3019 2675 3438 1988 3438 
C 1469 3438 1156 3206 994 2863 
L 950 2863 
L 950 3394 
L 431 3394 
L 431 0 
L 969 0 
L 969 2038 
z
" transform="scale(0.015625)"/>
       <path id="Pretendard-Regular-63" d="M 1819 -69 
C 2575 -69 3069 394 3156 1000 
L 2619 1000 
C 2525 625 2219 413 1819 413 
C 1200 413 806 913 806 1700 
C 806 2463 1213 2963 1819 2963 
C 2269 2963 2544 2681 2619 2369 
L 3156 2369 
C 3069 3013 2531 3438 1806 3438 
C 881 3438 269 2713 269 1681 
C 269 663 856 -69 1819 -69 
z
" transform="scale(0.015625)"/>
       <path id="Pretendard-Regular-79" d="M 775 -1275 
C 1256 -1275 1588 -1019 1788 -488 
L 3225 3394 
L 2638 3394 
L 1713 700 
L 1675 700 
L 750 3394 
L 163 3394 
L 1419 -25 
L 1319 -281 
C 1138 -775 956 -794 738 -794 
C 656 -794 531 -788 475 -781 
L 475 -1263 
C 544 -1269 656 -1275 775 -1275 
z
" transform="scale(0.015625)"/>
       <path id="Pretendard-Regular-20" transform="scale(0.015625)"/>
       <path id="Pretendard-Regular-28" d="M 569 1725 
C 575 544 894 -438 1469 -1275 
L 1944 -1275 
C 1519 -656 1125 613 1125 1725 
C 1125 2838 1519 4100 1944 4719 
L 1469 4719 
C 894 3888 575 2906 569 1725 
z
" transform="scale(0.015625)"/>
       <path id="Pretendard-Regular-66" d="M 1950 3394 
L 1200 3394 
L 1200 3738 
C 1200 4088 1369 4244 1744 4244 
C 1813 4244 1913 4238 2025 4219 
L 2025 4700 
C 1913 4719 1756 4738 1625 4738 
C 1025 4738 656 4406 656 3856 
L 656 3394 
L 113 3394 
L 113 2944 
L 656 2944 
L 656 0 
L 1200 0 
L 1200 2944 
L 1950 2944 
L 1950 3394 
z
" transform="scale(0.015625)"/>
       <path id="Pretendard-Regular-29" d="M 1613 1725 
C 1606 2906 1288 3888 713 4719 
L 238 4719 
C 663 4100 1056 2838 1056 1725 
C 1056 613 663 -656 238 -1275 
L 713 -1275 
C 1288 -438 1606 544 1613 1725 
z
" transform="scale(0.015625)"/>
      </defs>
      <use xlink:href="#Pretendard-Regular-46"/>
      <use xlink:href="#Pretendard-Regular-72" transform="translate(55.664062 0)"/>
      <use xlink:href="#Pretendard-Regular-65" transform="translate(90.625 0)"/>
      <use xlink:href="#Pretendard-Regular-71" transform="translate(145.898438 0)"/>
      <use xlink:href="#Pretendard-Regular-75" transform="translate(203.808594 0)"/>
      <use xlink:href="#Pretendard-Regular-65" transform="translate(259.082031 0)"/>
      <use xlink:href="#Pretendard-Regular-6e" transform="translate(314.355469 0)"/>
      <use xlink:href="#Pretendard-Regular-63" transform="translate(370.019531 0)"/>
      <use xlink:href="#Pretendard-Regular-79" transform="translate(422.949219 0)"/>
      <use xlink:href="#Pretendard-Regular-20" transform="translate(475.878906 0)"/>
      <use xlink:href="#Pretendard-Regular-28" transform="translate(500.976562 0)"/>
      <use xlink:href="#Pretendard-Regular-66" transform="translate(535.058594 0)"/>
      <use xlink:href="#Pretendard-Regular-29" transform="translate(568.75 0)"/>
     </g>
    </g>
   </g>
   <g id="matplotlib.axis_2">
    <g id="ytick_1">
     <g id="line2d_7">
      <path d="M 43.104688 243.84375 
L 489.504687 243.84375 
" clip-path="url(#p9961c8ba9d)" style="fill: none; stroke: #b0b0b0; stroke-opacity: 0.3; stroke-width: 0.8; stroke-linecap: square"/>
     </g>
     <g id="line2d_8">
      <defs>
       <path id="mc3cca83f5d" d="M 0 0 
L -3.5 0 
" style="stroke: #000000; stroke-width: 0.8"/>
      </defs>
      <g>
       <use xlink:href="#mc3cca83f5d" x="43.104688" y="243.84375" style="stroke: #000000; stroke-width: 0.8"/>
      </g>
     </g>
     <g id="text_5">
      <!-- 0.0 -->
      <g transform="translate(21.65 247.378906) scale(0.1 -0.1)">
       <defs>
        <path id="Pretendard-Regular-30" d="M 1906 -63 
C 2906 -63 3488 781 3488 2263 
C 3488 3731 2900 4588 1906 4588 
C 913 4588 325 3731 325 2263 
C 325 781 900 -63 1906 -63 
z
M 1906 438 
C 1250 438 869 1094 869 2263 
C 869 3431 1256 4100 1906 4100 
C 2556 4100 2938 3431 2938 2263 
C 2938 1094 2556 438 1906 438 
z
" transform="scale(0.015625)"/>
        <path id="Pretendard-Regular-2e" d="M 813 -38 
C 1031 -38 1213 144 1213 369 
C 1213 588 1031 769 813 769 
C 594 769 406 588 413 369 
C 406 144 594 -38 813 -38 
z
" transform="scale(0.015625)"/>
       </defs>
       <use xlink:href="#Pretendard-Regular-30"/>
       <use xlink:href="#Pretendard-Regular-2e" transform="translate(59.570312 0)"/>
       <use xlink:href="#Pretendard-Regular-30" transform="translate(84.960938 0)"/>
      </g>
     </g>
    </g>
    <g id="ytick_2">
     <g id="line2d_9">
      <path d="M 43.104688 206.88375 
L 489.504687 206.88375 
" clip-path="url(#p9961c8ba9d)" style="fill: none; stroke: #b0b0b0; stroke-opacity: 0.3; stroke-width: 0.8; stroke-linecap: square"/>
     </g>
     <g id="line2d_10">
      <g>
       <use xlink:href="#mc3cca83f5d" x="43.104688" y="206.88375" style="stroke: #000000; stroke-width: 0.8"/>
      </g>
     </g>
     <g id="text_6">
      <!-- 0.2 -->
      <g transform="translate(21.739063 210.418906) scale(0.1 -0.1)">
       <defs>
        <path id="Pretendard-Regular-32" d="M 425 0 
L 3363 0 
L 3363 500 
L 1206 500 
L 1206 538 
L 2244 1606 
C 3044 2431 3281 2825 3281 3331 
C 3281 4038 2694 4588 1875 4588 
C 1056 4588 438 4050 444 3250 
L 975 3250 
C 975 3756 1319 4100 1856 4100 
C 2363 4100 2756 3794 2756 3331 
C 2756 2913 2500 2606 1963 2038 
L 419 413 
L 425 0 
z
" transform="scale(0.015625)"/>
       </defs>
       <use xlink:href="#Pretendard-Regular-30"/>
       <use xlink:href="#Pretendard-Regular-2e" transform="translate(59.570312 0)"/>
       <use xlink:href="#Pretendard-Regular-32" transform="translate(84.960938 0)"/>
      </g>
     </g>
    </g>
    <g id="ytick_3">
     <g id="line2d_11">
      <path d="M 43.104688 169.92375 
L 489.504687 169.92375 
" clip-path="url(#p9961c8ba9d)" style="fill: none; stroke: #b0b0b0; stroke-opacity: 0.3; stroke-width: 0.8; stroke-linecap: square"/>
     </g>
     <g id="line2d_12">
      <g>
       <use xlink:href="#mc3cca83f5d" x="43.104688" y="169.92375" style="stroke: #000000; stroke-width: 0.8"/>
      </g>
     </g>
     <g id="text_7">
      <!-- 0.4 -->
      <g transform="translate(21.367188 173.458906) scale(0.1 -0.1)">
       <defs>
        <path id="Pretendard-Regular-34" d="M 313 925 
L 2506 925 
L 2506 0 
L 3044 0 
L 3044 925 
L 3675 925 
L 3675 1419 
L 3044 1419 
L 3044 4525 
L 2350 4525 
L 313 1388 
L 313 925 
z
M 919 1419 
L 919 1456 
L 2450 3813 
L 2506 3813 
L 2506 1419 
L 919 1419 
z
" transform="scale(0.015625)"/>
       </defs>
       <use xlink:href="#Pretendard-Regular-30"/>
       <use xlink:href="#Pretendard-Regular-2e" transform="translate(59.570312 0)"/>
       <use xlink:href="#Pretendard-Regular-34" transform="translate(84.960938 0)"/>
      </g>
     </g>
    </g>
    <g id="ytick_4">
     <g id="line2d_13">
      <path d="M 43.104688 132.96375 
L 489.504687 132.96375 
" clip-path="url(#p9961c8ba9d)" style="fill: none; stroke: #b0b0b0; stroke-opacity: 0.3; stroke-width: 0.8; stroke-linecap: square"/>
     </g>
     <g id="line2d_14">
      <g>
       <use xlink:href="#mc3cca83f5d" x="43.104688" y="132.96375" style="stroke: #000000; stroke-width: 0.8"/>
      </g>
     </g>
     <g id="text_8">
      <!-- 0.6 -->
      <g transform="translate(21.475 136.498906) scale(0.1 -0.1)">
       <defs>
        <path id="Pretendard-Regular-36" d="M 2000 -63 
C 2950 -69 3575 613 3575 1463 
C 3575 2338 2906 2963 2100 2963 
C 1613 2963 1200 2738 938 2363 
L 881 2363 
C 881 3450 1325 4088 2069 4088 
C 2575 4088 2875 3788 2981 3388 
L 3538 3388 
C 3419 4100 2863 4588 2069 4588 
C 1006 4588 350 3688 350 2088 
C 350 413 1213 -50 2000 -63 
z
M 2000 431 
C 1394 431 956 919 956 1450 
C 963 1988 1419 2469 2013 2469 
C 2606 2469 3025 2013 3031 1456 
C 3025 894 2588 431 2000 431 
z
" transform="scale(0.015625)"/>
       </defs>
       <use xlink:href="#Pretendard-Regular-30"/>
       <use xlink:href="#Pretendard-Regular-2e" transform="translate(59.570312 0)"/>
       <use xlink:href="#Pretendard-Regular-36" transform="translate(84.960938 0)"/>
      </g>
     </g>
    </g>
    <g id="ytick_5">
     <g id="line2d_15">
      <path d="M 43.104688 96.00375 
L 489.504687 96.00375 
" clip-path="url(#p9961c8ba9d)" style="fill: none; stroke: #b0b0b0; stroke-opacity: 0.3; stroke-width: 0.8; stroke-linecap: square"/>
     </g>
     <g id="line2d_16">
      <g>
       <use xlink:href="#mc3cca83f5d" x="43.104688" y="96.00375" style="stroke: #000000; stroke-width: 0.8"/>
      </g>
     </g>
     <g id="text_9">
      <!-- 0.8 -->
      <g transform="translate(21.54375 99.538906) scale(0.1 -0.1)">
       <defs>
        <path id="Pretendard-Regular-38" d="M 1938 -63 
C 2881 -63 3544 463 3550 1200 
C 3544 1788 3138 2269 2625 2350 
L 2625 2375 
C 3069 2481 3369 2894 3375 3388 
C 3369 4081 2763 4588 1938 4588 
C 1113 4588 506 4081 506 3388 
C 506 2894 800 2481 1250 2375 
L 1250 2350 
C 731 2269 325 1788 331 1200 
C 325 463 988 -63 1938 -63 
z
M 1938 431 
C 1288 431 881 756 894 1231 
C 881 1731 1331 2100 1938 2100 
C 2544 2100 2988 1731 2988 1231 
C 2988 756 2588 431 1938 431 
z
M 1938 2575 
C 1419 2575 1050 2888 1050 3344 
C 1050 3794 1400 4100 1938 4100 
C 2469 4100 2825 3794 2825 3344 
C 2825 2888 2450 2575 1938 2575 
z
" transform="scale(0.015625)"/>
       </defs>
       <use xlink:href="#Pretendard-Regular-30"/>
       <use xlink:href="#Pretendard-Regular-2e" transform="translate(59.570312 0)"/>
       <use xlink:href="#Pretendard-Regular-38" transform="translate(84.960938 0)"/>
      </g>
     </g>
    </g>
    <g id="ytick_6">
     <g id="line2d_17">
      <path d="M 43.104688 59.04375 
L 489.504687 59.04375 
" clip-path="url(#p9961c8ba9d)" style="fill: none; stroke: #b0b0b0; stroke-opacity: 0.3; stroke-width: 0.8; stroke-linecap: square"/>
     </g>
     <g id="line2d_18">
      <g>
       <use xlink:href="#mc3cca83f5d" x="43.104688" y="59.04375" style="stroke: #000000; stroke-width: 0.8"/>
      </g>
     </g>
     <g id="text_10">
      <!-- 1.0 -->
      <g transform="translate(23.223438 62.578906) scale(0.1 -0.1)">
       <defs>
        <path id="Pretendard-Regular-31" d="M 2025 4525 
L 1456 4525 
L 331 3775 
L 331 3206 
L 1431 3938 
L 1456 3938 
L 1456 0 
L 2025 0 
L 2025 4525 
z
" transform="scale(0.015625)"/>
       </defs>
       <use xlink:href="#Pretendard-Regular-31"/>
       <use xlink:href="#Pretendard-Regular-2e" transform="translate(43.847656 0)"/>
       <use xlink:href="#Pretendard-Regular-30" transform="translate(69.238281 0)"/>
      </g>
     </g>
    </g>
    <g id="ytick_7">
     <g id="line2d_19">
      <path d="M 43.104688 22.08375 
L 489.504687 22.08375 
" clip-path="url(#p9961c8ba9d)" style="fill: none; stroke: #b0b0b0; stroke-opacity: 0.3; stroke-width: 0.8; stroke-linecap: square"/>
     </g>
     <g id="line2d_20">
      <g>
       <use xlink:href="#mc3cca83f5d" x="43.104688" y="22.08375" style="stroke: #000000; stroke-width: 0.8"/>
      </g>
     </g>
     <g id="text_11">
      <!-- 1.2 -->
      <g transform="translate(23.3125 25.618906) scale(0.1 -0.1)">
       <use xlink:href="#Pretendard-Regular-31"/>
       <use xlink:href="#Pretendard-Regular-2e" transform="translate(43.847656 0)"/>
       <use xlink:href="#Pretendard-Regular-32" transform="translate(69.238281 0)"/>
      </g>
     </g>
    </g>
    <g id="text_12">
     <!-- Magnitude |X(f)| -->
     <g transform="translate(15.267188 169.316094) rotate(-90) scale(0.1 -0.1)">
      <defs>
       <path id="Pretendard-Regular-4d" d="M 500 4525 
L 500 0 
L 1031 0 
L 1031 3419 
L 1069 3419 
L 2475 0 
L 2975 0 
L 4381 3419 
L 4425 3419 
L 4425 0 
L 4956 0 
L 4956 4525 
L 4281 4525 
L 2756 800 
L 2700 800 
L 1175 4525 
L 500 4525 
z
" transform="scale(0.015625)"/>
       <path id="Pretendard-Regular-61" d="M 269 963 
C 269 300 781 -81 1425 -81 
C 2013 -81 2325 231 2438 463 
L 2463 463 
L 2463 0 
L 2994 0 
L 2994 2238 
C 2994 3306 2163 3438 1719 3438 
C 969 3438 438 3056 369 2513 
L 931 2513 
C 1006 2769 1263 2969 1694 2969 
C 2206 2969 2463 2719 2463 2288 
L 2463 2013 
C 2309 2006 1759 1978 1544 1963 
C 956 1919 269 1744 269 963 
z
M 806 938 
C 806 1306 1119 1481 1606 1513 
L 2463 1575 
L 2463 1231 
C 2463 806 2125 400 1519 400 
C 1106 400 806 581 806 938 
z
" transform="scale(0.015625)"/>
       <path id="Pretendard-Regular-67" d="M 1806 -1344 
C 2631 -1344 3281 -969 3281 -94 
L 3281 3394 
L 2756 3394 
L 2756 2856 
L 2713 2856 
C 2588 3038 2375 3438 1719 3438 
C 869 3438 269 2788 269 1744 
C 269 675 888 50 1713 50 
C 2369 50 2588 438 2700 625 
L 2744 625 
L 2744 -63 
C 2744 -625 2388 -875 1806 -875 
C 1325 -875 1006 -700 931 -356 
L 369 -356 
C 431 -988 988 -1344 1806 -1344 
z
M 1788 531 
C 1144 531 813 1019 813 1725 
C 813 2406 1138 2956 1788 2956 
C 2419 2956 2756 2450 2756 1725 
C 2756 975 2406 531 1788 531 
z
" transform="scale(0.015625)"/>
       <path id="Pretendard-Regular-69" d="M 431 0 
L 969 0 
L 969 3394 
L 431 3394 
L 431 0 
z
M 700 3956 
C 906 3956 1081 4113 1081 4313 
C 1081 4513 906 4669 700 4669 
C 494 4669 325 4513 325 4313 
C 325 4113 494 3956 700 3956 
z
" transform="scale(0.015625)"/>
       <path id="Pretendard-Regular-74" d="M 1913 3394 
L 1200 3394 
L 1200 4206 
L 656 4206 
L 656 3394 
L 144 3394 
L 144 2944 
L 656 2944 
L 656 838 
C 656 238 1138 -44 1588 -44 
C 1744 -44 1881 -31 1963 -19 
L 1963 481 
C 1881 475 1744 469 1644 469 
C 1413 469 1200 538 1200 975 
L 1200 2944 
L 1913 2944 
L 1913 3394 
z
" transform="scale(0.015625)"/>
       <path id="Pretendard-Regular-64" d="M 1713 -69 
C 2363 -69 2581 331 2700 519 
L 2756 519 
L 2756 0 
L 3281 0 
L 3281 4525 
L 2738 4525 
L 2738 2856 
L 2700 2856 
C 2588 3038 2375 3438 1719 3438 
C 869 3438 269 2763 269 1688 
C 269 613 869 -69 1713 -69 
z
M 1788 413 
C 1144 413 813 975 813 1700 
C 813 2406 1138 2956 1788 2956 
C 2419 2956 2756 2450 2756 1700 
C 2756 938 2406 413 1788 413 
z
" transform="scale(0.015625)"/>
       <path id="Pretendard-Regular-7c" d="M 1213 5163 
L 750 5163 
L 750 -638 
L 1213 -638 
L 1213 5163 
z
" transform="scale(0.015625)"/>
       <path id="Pretendard-Regular-58" d="M 788 4525 
L 119 4525 
L 1575 2263 
L 119 0 
L 781 0 
L 1938 1831 
L 1975 1831 
L 3131 0 
L 3794 0 
L 2375 2263 
L 3794 4525 
L 3131 4525 
L 1975 2656 
L 1938 2656 
L 788 4525 
z
" transform="scale(0.015625)"/>
      </defs>
      <use xlink:href="#Pretendard-Regular-4d"/>
      <use xlink:href="#Pretendard-Regular-61" transform="translate(85.253906 0)"/>
      <use xlink:href="#Pretendard-Regular-67" transform="translate(138.769531 0)"/>
      <use xlink:href="#Pretendard-Regular-6e" transform="translate(196.679688 0)"/>
      <use xlink:href="#Pretendard-Regular-69" transform="translate(252.34375 0)"/>
      <use xlink:href="#Pretendard-Regular-74" transform="translate(274.121094 0)"/>
      <use xlink:href="#Pretendard-Regular-75" transform="translate(308.105469 0)"/>
      <use xlink:href="#Pretendard-Regular-64" transform="translate(363.378906 0)"/>
      <use xlink:href="#Pretendard-Regular-65" transform="translate(422.460938 0)"/>
      <use xlink:href="#Pretendard-Regular-20" transform="translate(477.734375 0)"/>
      <use xlink:href="#Pretendard-Regular-7c" transform="translate(502.832031 0)"/>
      <use xlink:href="#Pretendard-Regular-58" transform="translate(533.398438 0)"/>
      <use xlink:href="#Pretendard-Regular-28" transform="translate(594.628906 0)"/>
      <use xlink:href="#Pretendard-Regular-66" transform="translate(628.710938 0)"/>
      <use xlink:href="#Pretendard-Regular-29" transform="translate(662.402344 0)"/>
      <use xlink:href="#Pretendard-Regular-7c" transform="translate(696.484375 0)"/>
     </g>
    </g>
   </g>
   <g id="patch_6">
    <path d="M 43.104688 243.84375 
L 43.104688 22.08375 
" style="fill: none; stroke: #000000; stroke-width: 0.8; stroke-linejoin: miter; stroke-linecap: square"/>
   </g>
   <g id="patch_7">
    <path d="M 489.504687 243.84375 
L 489.504687 22.08375 
" style="fill: none; stroke: #000000; stroke-width: 0.8; stroke-linejoin: miter; stroke-linecap: square"/>
   </g>
   <g id="patch_8">
    <path d="M 43.104688 243.84375 
L 489.504687 243.84375 
" style="fill: none; stroke: #000000; stroke-width: 0.8; stroke-linejoin: miter; stroke-linecap: square"/>
   </g>
   <g id="patch_9">
    <path d="M 43.104688 22.08375 
L 489.504687 22.08375 
" style="fill: none; stroke: #000000; stroke-width: 0.8; stroke-linejoin: miter; stroke-linecap: square"/>
   </g>
   <g id="patch_10">
    <path d="M 312.772446 152.254449 
Q 363.025109 174.543937 412.25576 196.380113 
" style="fill: none; stroke-dasharray: 3.7,1.6; stroke-dashoffset: 0; stroke: #0000ff; stroke-linecap: round"/>
    <path d="M 409.410208 192.930065 
L 412.25576 196.380113 
L 407.78839 196.586526 
" style="fill: none; stroke-dasharray: 3.7,1.6; stroke-dashoffset: 0; stroke: #0000ff; stroke-linecap: round"/>
   </g>
   <g id="text_13">
    <!-- Shift by $f_c$ -->
    <g style="fill: #0000ff" transform="translate(340.704687 169.92375) scale(0.1 -0.1)">
     <defs>
      <path id="Pretendard-Regular-53" d="M 2969 3388 
L 3519 3388 
C 3494 4075 2863 4588 1988 4588 
C 1113 4588 431 4081 431 3319 
C 431 2706 869 2344 1581 2138 
L 2138 1988 
C 2613 1850 3031 1681 3031 1244 
C 3031 750 2563 431 1938 431 
C 1400 431 931 669 881 1175 
L 306 1175 
C 356 425 963 -81 1938 -81 
C 2988 -81 3581 494 3581 1231 
C 3581 2075 2788 2356 2300 2481 
L 1850 2606 
C 1506 2694 975 2869 975 3344 
C 975 3775 1369 4088 1969 4088 
C 2513 4088 2919 3831 2969 3388 
z
" transform="scale(0.015625)"/>
      <path id="Pretendard-Regular-68" d="M 969 2038 
C 969 2625 1344 2956 1850 2956 
C 2338 2956 2631 2650 2631 2119 
L 2631 0 
L 3169 0 
L 3169 2156 
C 3169 3025 2706 3438 2013 3438 
C 1475 3438 1169 3213 1013 2863 
L 969 2863 
L 969 4525 
L 431 4525 
L 431 0 
L 969 0 
L 969 2038 
z
" transform="scale(0.015625)"/>
      <path id="Pretendard-Regular-62" d="M 500 0 
L 1019 0 
L 1019 519 
L 1081 519 
C 1200 331 1419 -69 2069 -69 
C 2913 -69 3513 613 3513 1688 
C 3513 2763 2913 3438 2063 3438 
C 1400 3438 1200 3038 1081 2856 
L 1038 2856 
L 1038 4525 
L 500 4525 
L 500 0 
z
M 1025 1700 
C 1025 2450 1363 2956 1988 2956 
C 2644 2956 2969 2406 2969 1700 
C 2969 975 2631 413 1988 413 
C 1369 413 1025 938 1025 1700 
z
" transform="scale(0.015625)"/>
     </defs>
     <use xlink:href="#Pretendard-Regular-53" transform="translate(0 0.015625)"/>
     <use xlink:href="#Pretendard-Regular-68" transform="translate(60.742188 0.015625)"/>
     <use xlink:href="#Pretendard-Regular-69" transform="translate(116.992188 0.015625)"/>
     <use xlink:href="#Pretendard-Regular-66" transform="translate(138.769531 0.015625)"/>
     <use xlink:href="#Pretendard-Regular-74" transform="translate(172.460938 0.015625)"/>
     <use xlink:href="#Pretendard-Regular-20" transform="translate(206.445312 0.015625)"/>
     <use xlink:href="#Pretendard-Regular-62" transform="translate(231.542969 0.015625)"/>
     <use xlink:href="#Pretendard-Regular-79" transform="translate(290.625 0.015625)"/>
     <use xlink:href="#Pretendard-Regular-20" transform="translate(343.554688 0.015625)"/>
     <use xlink:href="#DejaVuSans-Oblique-66" transform="translate(368.652344 0.015625)"/>
     <use xlink:href="#DejaVuSans-Oblique-63" transform="translate(403.857422 -16.390625) scale(0.7)"/>
    </g>
   </g>
   <g id="text_14">
    <!-- Modulation Theorem: Frequency Shifting -->
    <g transform="translate(157.026875 16.08375) scale(0.12 -0.12)">
     <defs>
      <path id="Pretendard-Regular-6f" d="M 1819 -69 
C 2738 -69 3356 625 3356 1681 
C 3356 2738 2738 3438 1819 3438 
C 894 3438 269 2738 269 1681 
C 269 625 894 -69 1819 -69 
z
M 1819 406 
C 1125 406 806 1006 806 1681 
C 806 2356 1125 2963 1819 2963 
C 2500 2963 2819 2356 2819 1681 
C 2819 1006 2500 406 1819 406 
z
" transform="scale(0.015625)"/>
      <path id="Pretendard-Regular-6c" d="M 969 4525 
L 431 4525 
L 431 0 
L 969 0 
L 969 4525 
z
" transform="scale(0.015625)"/>
      <path id="Pretendard-Regular-54" d="M 250 4025 
L 1675 4025 
L 1675 0 
L 2244 0 
L 2244 4025 
L 3663 4025 
L 3663 4525 
L 250 4525 
L 250 4025 
z
" transform="scale(0.015625)"/>
      <path id="Pretendard-Regular-6d" d="M 431 0 
L 969 0 
L 969 2119 
C 969 2613 1325 2956 1731 2956 
C 2119 2956 2394 2700 2394 2319 
L 2394 0 
L 2938 0 
L 2938 2206 
C 2938 2638 3206 2956 3681 2956 
C 4050 2956 4369 2763 4369 2263 
L 4369 0 
L 4906 0 
L 4906 2269 
C 4906 3069 4475 3438 3869 3438 
C 3381 3438 3025 3213 2850 2863 
L 2813 2863 
C 2650 3225 2350 3438 1906 3438 
C 1463 3438 1138 3225 994 2863 
L 950 2863 
L 950 3394 
L 431 3394 
L 431 0 
z
" transform="scale(0.015625)"/>
      <path id="Pretendard-Regular-3a" d="M 813 -38 
C 1031 -38 1213 144 1213 369 
C 1213 588 1031 769 813 769 
C 594 769 406 588 413 369 
C 406 144 594 -38 813 -38 
z
M 813 2475 
C 1031 2475 1213 2656 1213 2881 
C 1213 3100 1031 3281 813 3281 
C 594 3281 406 3100 413 2881 
C 406 2656 594 2475 813 2475 
z
" transform="scale(0.015625)"/>
     </defs>
     <use xlink:href="#Pretendard-Regular-4d"/>
     <use xlink:href="#Pretendard-Regular-6f" transform="translate(85.253906 0)"/>
     <use xlink:href="#Pretendard-Regular-64" transform="translate(141.992188 0)"/>
     <use xlink:href="#Pretendard-Regular-75" transform="translate(201.074219 0)"/>
     <use xlink:href="#Pretendard-Regular-6c" transform="translate(256.347656 0)"/>
     <use xlink:href="#Pretendard-Regular-61" transform="translate(278.125 0)"/>
     <use xlink:href="#Pretendard-Regular-74" transform="translate(331.640625 0)"/>
     <use xlink:href="#Pretendard-Regular-69" transform="translate(365.625 0)"/>
     <use xlink:href="#Pretendard-Regular-6f" transform="translate(387.402344 0)"/>
     <use xlink:href="#Pretendard-Regular-6e" transform="translate(444.140625 0)"/>
     <use xlink:href="#Pretendard-Regular-20" transform="translate(499.804688 0)"/>
     <use xlink:href="#Pretendard-Regular-54" transform="translate(524.902344 0)"/>
     <use xlink:href="#Pretendard-Regular-68" transform="translate(586.035156 0)"/>
     <use xlink:href="#Pretendard-Regular-65" transform="translate(642.285156 0)"/>
     <use xlink:href="#Pretendard-Regular-6f" transform="translate(697.558594 0)"/>
     <use xlink:href="#Pretendard-Regular-72" transform="translate(754.296875 0)"/>
     <use xlink:href="#Pretendard-Regular-65" transform="translate(789.257812 0)"/>
     <use xlink:href="#Pretendard-Regular-6d" transform="translate(844.53125 0)"/>
     <use xlink:href="#Pretendard-Regular-3a" transform="translate(927.929688 0)"/>
     <use xlink:href="#Pretendard-Regular-20" transform="translate(953.320312 0)"/>
     <use xlink:href="#Pretendard-Regular-46" transform="translate(978.417969 0)"/>
     <use xlink:href="#Pretendard-Regular-72" transform="translate(1034.082031 0)"/>
     <use xlink:href="#Pretendard-Regular-65" transform="translate(1069.042969 0)"/>
     <use xlink:href="#Pretendard-Regular-71" transform="translate(1124.316406 0)"/>
     <use xlink:href="#Pretendard-Regular-75" transform="translate(1182.226562 0)"/>
     <use xlink:href="#Pretendard-Regular-65" transform="translate(1237.5 0)"/>
     <use xlink:href="#Pretendard-Regular-6e" transform="translate(1292.773438 0)"/>
     <use xlink:href="#Pretendard-Regular-63" transform="translate(1348.4375 0)"/>
     <use xlink:href="#Pretendard-Regular-79" transform="translate(1401.367188 0)"/>
     <use xlink:href="#Pretendard-Regular-20" transform="translate(1454.296875 0)"/>
     <use xlink:href="#Pretendard-Regular-53" transform="translate(1479.394531 0)"/>
     <use xlink:href="#Pretendard-Regular-68" transform="translate(1540.136719 0)"/>
     <use xlink:href="#Pretendard-Regular-69" transform="translate(1596.386719 0)"/>
     <use xlink:href="#Pretendard-Regular-66" transform="translate(1618.164062 0)"/>
     <use xlink:href="#Pretendard-Regular-74" transform="translate(1651.855469 0)"/>
     <use xlink:href="#Pretendard-Regular-69" transform="translate(1685.839844 0)"/>
     <use xlink:href="#Pretendard-Regular-6e" transform="translate(1707.617188 0)"/>
     <use xlink:href="#Pretendard-Regular-67" transform="translate(1763.28125 0)"/>
    </g>
   </g>
   <g id="legend_1">
    <g id="patch_11">
     <path d="M 384.65625 58.815 
L 482.504687 58.815 
Q 484.504687 58.815 484.504687 56.815 
L 484.504687 29.08375 
Q 484.504687 27.08375 482.504687 27.08375 
L 384.65625 27.08375 
Q 382.65625 27.08375 382.65625 29.08375 
L 382.65625 56.815 
Q 382.65625 58.815 384.65625 58.815 
z
" style="fill: #ffffff; opacity: 0.8; stroke: #cccccc; stroke-linejoin: miter"/>
    </g>
    <g id="patch_12">
     <path d="M 386.65625 38.457188 
L 406.65625 38.457188 
L 406.65625 31.457188 
L 386.65625 31.457188 
z
" style="fill: #808080; opacity: 0.5; stroke: #000000; stroke-linejoin: miter"/>
    </g>
    <g id="text_15">
     <!-- Baseband m(t) -->
     <g transform="translate(414.65625 38.457188) scale(0.1 -0.1)">
      <defs>
       <path id="Pretendard-Regular-42" d="M 500 0 
L 2144 0 
C 3213 0 3663 519 3663 1200 
C 3663 1919 3163 2306 2744 2331 
L 2744 2375 
C 3138 2481 3481 2744 3481 3325 
C 3481 3994 3038 4525 2088 4525 
L 500 4525 
L 500 0 
z
M 2138 500 
L 1063 500 
L 1063 2056 
L 2169 2056 
C 2750 2056 3119 1669 3119 1206 
C 3119 813 2844 500 2138 500 
z
M 2069 2544 
L 1063 2544 
L 1063 4025 
L 2088 4025 
C 2681 4025 2944 3713 2944 3319 
C 2944 2844 2556 2544 2069 2544 
z
" transform="scale(0.015625)"/>
       <path id="Pretendard-Regular-73" d="M 2319 2513 
L 2844 2513 
C 2775 3063 2331 3438 1631 3438 
C 881 3438 375 3019 375 2438 
C 375 1988 688 1663 1281 1525 
L 1794 1406 
C 2181 1319 2350 1156 2350 919 
C 2350 600 2044 400 1563 400 
C 1138 400 894 556 831 888 
L 269 888 
C 356 269 813 -69 1575 -69 
C 2425 -69 2906 363 2906 950 
C 2906 1425 2606 1725 2000 1869 
L 1494 1994 
C 1094 2088 913 2244 913 2469 
C 913 2756 1213 2981 1631 2981 
C 2031 2981 2244 2794 2319 2513 
z
" transform="scale(0.015625)"/>
      </defs>
      <use xlink:href="#Pretendard-Regular-42"/>
      <use xlink:href="#Pretendard-Regular-61" transform="translate(61.914062 0)"/>
      <use xlink:href="#Pretendard-Regular-73" transform="translate(115.429688 0)"/>
      <use xlink:href="#Pretendard-Regular-65" transform="translate(165.039062 0)"/>
      <use xlink:href="#Pretendard-Regular-62" transform="translate(220.3125 0)"/>
      <use xlink:href="#Pretendard-Regular-61" transform="translate(279.394531 0)"/>
      <use xlink:href="#Pretendard-Regular-6e" transform="translate(332.910156 0)"/>
      <use xlink:href="#Pretendard-Regular-64" transform="translate(388.574219 0)"/>
      <use xlink:href="#Pretendard-Regular-20" transform="translate(447.65625 0)"/>
      <use xlink:href="#Pretendard-Regular-6d" transform="translate(472.753906 0)"/>
      <use xlink:href="#Pretendard-Regular-28" transform="translate(556.152344 0)"/>
      <use xlink:href="#Pretendard-Regular-74" transform="translate(590.234375 0)"/>
      <use xlink:href="#Pretendard-Regular-29" transform="translate(624.21875 0)"/>
     </g>
    </g>
    <g id="patch_13">
     <path d="M 386.65625 52.822812 
L 406.65625 52.822812 
L 406.65625 45.822812 
L 386.65625 45.822812 
z
" style="fill: #d62728; opacity: 0.6; stroke: #ff0000; stroke-linejoin: miter"/>
    </g>
    <g id="text_16">
     <!-- Modulated x(t) -->
     <g transform="translate(414.65625 52.822812) scale(0.1 -0.1)">
      <defs>
       <path id="Pretendard-Regular-78" d="M 838 3394 
L 219 3394 
L 1288 1700 
L 219 0 
L 838 0 
L 1638 1313 
L 2450 0 
L 3063 0 
L 1969 1700 
L 3063 3394 
L 2444 3394 
L 1638 2013 
L 838 3394 
z
" transform="scale(0.015625)"/>
      </defs>
      <use xlink:href="#Pretendard-Regular-4d"/>
      <use xlink:href="#Pretendard-Regular-6f" transform="translate(85.253906 0)"/>
      <use xlink:href="#Pretendard-Regular-64" transform="translate(141.992188 0)"/>
      <use xlink:href="#Pretendard-Regular-75" transform="translate(201.074219 0)"/>
      <use xlink:href="#Pretendard-Regular-6c" transform="translate(256.347656 0)"/>
      <use xlink:href="#Pretendard-Regular-61" transform="translate(278.125 0)"/>
      <use xlink:href="#Pretendard-Regular-74" transform="translate(331.640625 0)"/>
      <use xlink:href="#Pretendard-Regular-65" transform="translate(365.625 0)"/>
      <use xlink:href="#Pretendard-Regular-64" transform="translate(420.898438 0)"/>
      <use xlink:href="#Pretendard-Regular-20" transform="translate(479.980469 0)"/>
      <use xlink:href="#Pretendard-Regular-78" transform="translate(505.078125 0)"/>
      <use xlink:href="#Pretendard-Regular-28" transform="translate(556.347656 0)"/>
      <use xlink:href="#Pretendard-Regular-74" transform="translate(590.429688 0)"/>
      <use xlink:href="#Pretendard-Regular-29" transform="translate(624.414062 0)"/>
     </g>
    </g>
   </g>
  </g>
 </g>
 <defs>
  <clipPath id="p9961c8ba9d">
   <rect x="43.104688" y="22.08375" width="446.4" height="221.76"/>
  </clipPath>
 </defs>
</svg>
