<?xml version="1.0" encoding="utf-8" standalone="no"?>
<!DOCTYPE svg PUBLIC "-//W3C//DTD SVG 1.1//EN"
  "http://www.w3.org/Graphics/SVG/1.1/DTD/svg11.dtd">
<svg xmlns:xlink="http://www.w3.org/1999/xlink" width="349.2pt" height="168.348828pt" viewBox="0 0 349.2 168.348828" xmlns="http://www.w3.org/2000/svg" version="1.1">
 <metadata>
  <rdf:RDF xmlns:dc="http://purl.org/dc/elements/1.1/" xmlns:cc="http://creativecommons.org/ns#" xmlns:rdf="http://www.w3.org/1999/02/22-rdf-syntax-ns#">
   <cc:Work>
    <dc:type rdf:resource="http://purl.org/dc/dcmitype/StillImage"/>
    <dc:date>2026-01-21T19:18:18.790823</dc:date>
    <dc:format>image/svg+xml</dc:format>
    <dc:creator>
     <cc:Agent>
      <dc:title>Matplotlib v3.10.8, https://matplotlib.org/</dc:title>
     </cc:Agent>
    </dc:creator>
   </cc:Work>
  </rdf:RDF>
 </metadata>
 <defs>
  <style type="text/css">*{stroke-linejoin: round; stroke-linecap: butt}</style>
 </defs>
 <g id="figure_1">
  <g id="patch_1">
   <path d="M 0 168.348828 
L 349.2 168.348828 
L 349.2 0 
L 0 0 
z
" style="fill: #ffffff"/>
  </g>
  <g id="axes_1">
   <g id="patch_2">
    <path d="M 7.2 152.173828 
L 342 152.173828 
L 342 13.573828 
L 7.2 13.573828 
z
" style="fill: #ffffff"/>
   </g>
   <g id="matplotlib.axis_1">
    <g id="text_1">
     <!-- t -->
     <g transform="translate(337.852656 158.629141) scale(0.11 -0.11)">
      <defs>
       <path id="NotoSansKR-Regular-74" d="M 1677 -83 
Q 1312 -83 1094 61 
Q 877 205 784 467 
Q 691 730 691 1075 
L 691 3002 
L 173 3002 
L 173 3443 
L 723 3475 
L 787 4454 
L 1274 4454 
L 1274 3475 
L 2221 3475 
L 2221 3002 
L 1274 3002 
L 1274 1056 
Q 1274 742 1392 566 
Q 1510 390 1811 390 
Q 1907 390 2016 419 
Q 2125 448 2208 486 
L 2323 45 
Q 2176 -6 2009 -44 
Q 1843 -83 1677 -83 
z
" transform="scale(0.015625)"/>
      </defs>
      <use xlink:href="#NotoSansKR-Regular-74"/>
     </g>
    </g>
   </g>
   <g id="matplotlib.axis_2">
    <g id="text_2">
     <!-- g(t) -->
     <g transform="translate(114.767202 10.823828) scale(0.11 -0.11)">
      <defs>
       <path id="NotoSansKR-Regular-67" d="M 1760 -1600 
Q 1338 -1600 1011 -1491 
Q 685 -1382 505 -1174 
Q 326 -966 326 -672 
Q 326 -448 460 -240 
Q 595 -32 838 115 
L 838 147 
Q 704 230 614 371 
Q 525 512 525 717 
Q 525 934 649 1100 
Q 774 1267 909 1363 
L 909 1389 
Q 736 1523 595 1766 
Q 454 2010 454 2323 
Q 454 2707 633 2985 
Q 813 3264 1110 3414 
Q 1408 3565 1754 3565 
Q 1907 3565 2032 3539 
Q 2157 3514 2246 3475 
L 3456 3475 
L 3456 3027 
L 2746 3027 
Q 2874 2906 2950 2720 
Q 3027 2534 3027 2310 
Q 3027 1939 2857 1667 
Q 2688 1395 2400 1248 
Q 2112 1101 1754 1101 
Q 1632 1101 1494 1133 
Q 1357 1165 1242 1222 
Q 1146 1146 1082 1050 
Q 1018 954 1018 806 
Q 1018 646 1146 537 
Q 1274 429 1626 429 
L 2310 429 
Q 2912 429 3216 230 
Q 3520 32 3520 -397 
Q 3520 -717 3302 -992 
Q 3085 -1267 2691 -1433 
Q 2298 -1600 1760 -1600 
z
M 1754 1498 
Q 1958 1498 2128 1600 
Q 2298 1702 2397 1888 
Q 2496 2074 2496 2323 
Q 2496 2579 2397 2761 
Q 2298 2944 2131 3040 
Q 1965 3136 1754 3136 
Q 1555 3136 1385 3040 
Q 1216 2944 1117 2765 
Q 1018 2586 1018 2323 
Q 1018 2074 1120 1888 
Q 1222 1702 1388 1600 
Q 1555 1498 1754 1498 
z
M 1843 -1197 
Q 2176 -1197 2422 -1094 
Q 2669 -992 2806 -829 
Q 2944 -666 2944 -493 
Q 2944 -243 2765 -147 
Q 2586 -51 2240 -51 
L 1638 -51 
Q 1542 -51 1424 -41 
Q 1306 -32 1190 0 
Q 1005 -128 921 -285 
Q 838 -442 838 -589 
Q 838 -864 1104 -1030 
Q 1370 -1197 1843 -1197 
z
" transform="scale(0.015625)"/>
       <path id="NotoSansKR-Regular-28" d="M 1530 -1254 
Q 1088 -538 838 252 
Q 589 1043 589 1990 
Q 589 2931 838 3724 
Q 1088 4518 1530 5235 
L 1888 5069 
Q 1478 4384 1276 3593 
Q 1075 2803 1075 1990 
Q 1075 1171 1276 380 
Q 1478 -410 1888 -1094 
L 1530 -1254 
z
" transform="scale(0.015625)"/>
       <path id="NotoSansKR-Regular-29" d="M 634 -1254 
L 269 -1094 
Q 685 -410 889 380 
Q 1094 1171 1094 1990 
Q 1094 2803 889 3593 
Q 685 4384 269 5069 
L 634 5235 
Q 1082 4518 1328 3724 
Q 1574 2931 1574 1990 
Q 1574 1043 1328 252 
Q 1082 -538 634 -1254 
z
" transform="scale(0.015625)"/>
      </defs>
      <use xlink:href="#NotoSansKR-Regular-67"/>
      <use xlink:href="#NotoSansKR-Regular-28" transform="translate(56.399994 0)"/>
      <use xlink:href="#NotoSansKR-Regular-74" transform="translate(90.199982 0)"/>
      <use xlink:href="#NotoSansKR-Regular-29" transform="translate(127.899979 0)"/>
     </g>
    </g>
   </g>
   <g id="line2d_1">
    <path d="M 22.418182 143.92034 
L 26.37887 143.12986 
L 30.034889 142.1668 
L 33.386241 141.042261 
L 36.432924 139.781394 
L 39.174939 138.422246 
L 41.916953 136.822794 
L 44.658968 134.955903 
L 47.400983 132.794841 
L 49.838329 130.60632 
L 52.275676 128.148855 
L 55.01769 125.045018 
L 57.759705 121.566598 
L 60.50172 117.703063 
L 63.243735 113.450772 
L 66.290418 108.275768 
L 69.337101 102.645989 
L 72.688452 95.970163 
L 76.344472 88.19097 
L 80.914496 77.926867 
L 93.405897 49.503405 
L 96.757248 42.58741 
L 99.499263 37.399248 
L 101.936609 33.226045 
L 104.069287 29.964483 
L 106.201966 27.107129 
L 108.029975 25.005698 
L 109.857985 23.245136 
L 111.381327 22.049926 
L 112.904668 21.110047 
L 114.42801 20.431468 
L 115.951351 20.018514 
L 117.474693 19.873828 
L 118.998034 19.998336 
L 120.521376 20.391239 
L 122.044717 21.050026 
L 123.568059 21.970494 
L 125.0914 23.146797 
L 126.91941 24.885497 
L 128.74742 26.966144 
L 130.57543 29.370178 
L 132.708108 32.555243 
L 135.145455 36.650616 
L 137.887469 41.764482 
L 140.934152 47.964776 
L 144.590172 55.94045 
L 150.074201 68.509313 
L 157.690909 85.925376 
L 161.956265 95.103189 
L 165.612285 102.426436 
L 168.963636 108.612806 
L 172.010319 113.758588 
L 174.752334 117.983926 
L 177.494349 121.820512 
L 180.236364 125.272507 
L 182.978378 128.350874 
L 185.720393 131.072124 
L 188.462408 133.457069 
L 191.204423 135.529628 
L 193.946437 137.31572 
L 196.688452 138.842284 
L 199.735135 140.267027 
L 202.781818 141.44115 
L 206.13317 142.484424 
L 209.789189 143.374281 
L 213.749877 144.101505 
L 218.319902 144.703104 
L 223.499263 145.158914 
L 230.201966 145.509811 
L 239.037346 145.733462 
L 253.661425 145.849075 
L 298.142998 145.873791 
L 326.781818 145.873828 
L 326.781818 145.873828 
" clip-path="url(#p649d106242)" style="fill: none; stroke: #000000; stroke-width: 1.5; stroke-linecap: square"/>
   </g>
   <g id="patch_3">
    <path d="M 136.554545 152.173828 
L 136.554545 13.573828 
" style="fill: none; stroke: #000000; stroke-width: 0.8; stroke-linejoin: miter; stroke-linecap: square"/>
   </g>
   <g id="patch_4">
    <path d="M 7.2 145.873828 
L 342 145.873828 
" style="fill: none; stroke: #000000; stroke-width: 0.8; stroke-linejoin: miter; stroke-linecap: square"/>
   </g>
  </g>
 </g>
 <defs>
  <clipPath id="p649d106242">
   <rect x="7.2" y="13.573828" width="334.8" height="138.6"/>
  </clipPath>
 </defs>
</svg>
