<?xml version="1.0" encoding="utf-8" standalone="no"?>
<!DOCTYPE svg PUBLIC "-//W3C//DTD SVG 1.1//EN"
  "http://www.w3.org/Graphics/SVG/1.1/DTD/svg11.dtd">
<svg xmlns:xlink="http://www.w3.org/1999/xlink" width="569.16pt" height="353.32375pt" viewBox="0 0 569.16 353.32375" xmlns="http://www.w3.org/2000/svg" version="1.1">
 <metadata>
  <rdf:RDF xmlns:dc="http://purl.org/dc/elements/1.1/" xmlns:cc="http://creativecommons.org/ns#" xmlns:rdf="http://www.w3.org/1999/02/22-rdf-syntax-ns#">
   <cc:Work>
    <dc:type rdf:resource="http://purl.org/dc/dcmitype/StillImage"/>
    <dc:date>2026-01-21T19:18:20.420760</dc:date>
    <dc:format>image/svg+xml</dc:format>
    <dc:creator>
     <cc:Agent>
      <dc:title>Matplotlib v3.10.8, https://matplotlib.org/</dc:title>
     </cc:Agent>
    </dc:creator>
   </cc:Work>
  </rdf:RDF>
 </metadata>
 <defs>
  <style type="text/css">*{stroke-linejoin: round; stroke-linecap: butt}</style>
 </defs>
 <g id="figure_1">
  <g id="patch_1">
   <path d="M 0 353.32375 
L 569.16 353.32375 
L 569.16 0 
L 0 0 
z
" style="fill: #ffffff"/>
  </g>
  <g id="axes_1">
   <g id="patch_2">
    <path d="M 51.35 314.62375 
L 561.96 314.62375 
L 561.96 22.90875 
L 51.35 22.90875 
z
" style="fill: #ffffff"/>
   </g>
   <g id="matplotlib.axis_1">
    <g id="xtick_1">
     <g id="line2d_1">
      <path d="M 74.559545 314.62375 
L 74.559545 22.90875 
" clip-path="url(#pee6e056fe6)" style="fill: none; stroke: #b0b0b0; stroke-opacity: 0.3; stroke-width: 0.8; stroke-linecap: square"/>
     </g>
     <g id="line2d_2">
      <defs>
       <path id="m3009af584d" d="M 0 0 
L 0 3.5 
" style="stroke: #000000; stroke-width: 0.8"/>
      </defs>
      <g>
       <use xlink:href="#m3009af584d" x="74.559545" y="314.62375" style="stroke: #000000; stroke-width: 0.8"/>
      </g>
     </g>
     <g id="text_1">
      <!-- 0.0 -->
      <g transform="translate(67.619702 329.583125) scale(0.1 -0.1)">
       <defs>
        <path id="NotoSansKR-Regular-30" d="M 1779 -83 
Q 1338 -83 1008 185 
Q 678 454 499 998 
Q 320 1542 320 2362 
Q 320 3181 499 3715 
Q 678 4250 1008 4512 
Q 1338 4774 1779 4774 
Q 2227 4774 2553 4508 
Q 2880 4243 3059 3712 
Q 3238 3181 3238 2362 
Q 3238 1542 3059 998 
Q 2880 454 2553 185 
Q 2227 -83 1779 -83 
z
M 1779 390 
Q 2048 390 2249 595 
Q 2451 800 2563 1238 
Q 2675 1677 2675 2362 
Q 2675 3046 2563 3478 
Q 2451 3910 2249 4112 
Q 2048 4314 1779 4314 
Q 1517 4314 1312 4112 
Q 1107 3910 995 3478 
Q 883 3046 883 2362 
Q 883 1677 995 1238 
Q 1107 800 1312 595 
Q 1517 390 1779 390 
z
" transform="scale(0.015625)"/>
        <path id="NotoSansKR-Regular-2e" d="M 890 -83 
Q 717 -83 592 41 
Q 467 166 467 358 
Q 467 563 592 684 
Q 717 806 890 806 
Q 1062 806 1187 684 
Q 1312 563 1312 358 
Q 1312 166 1187 41 
Q 1062 -83 890 -83 
z
" transform="scale(0.015625)"/>
       </defs>
       <use xlink:href="#NotoSansKR-Regular-30"/>
       <use xlink:href="#NotoSansKR-Regular-2e" transform="translate(55.499985 0)"/>
       <use xlink:href="#NotoSansKR-Regular-30" transform="translate(83.299973 0)"/>
      </g>
     </g>
    </g>
    <g id="xtick_2">
     <g id="line2d_3">
      <path d="M 167.397727 314.62375 
L 167.397727 22.90875 
" clip-path="url(#pee6e056fe6)" style="fill: none; stroke: #b0b0b0; stroke-opacity: 0.3; stroke-width: 0.8; stroke-linecap: square"/>
     </g>
     <g id="line2d_4">
      <g>
       <use xlink:href="#m3009af584d" x="167.397727" y="314.62375" style="stroke: #000000; stroke-width: 0.8"/>
      </g>
     </g>
     <g id="text_2">
      <!-- 0.2 -->
      <g transform="translate(160.457884 329.583125) scale(0.1 -0.1)">
       <defs>
        <path id="NotoSansKR-Regular-32" d="M 282 0 
L 282 346 
Q 1018 992 1494 1523 
Q 1971 2054 2201 2512 
Q 2432 2970 2432 3373 
Q 2432 3642 2339 3853 
Q 2246 4064 2054 4182 
Q 1862 4301 1568 4301 
Q 1280 4301 1033 4147 
Q 787 3994 595 3757 
L 256 4090 
Q 538 4403 864 4588 
Q 1190 4774 1638 4774 
Q 2061 4774 2365 4604 
Q 2669 4435 2838 4124 
Q 3008 3814 3008 3398 
Q 3008 2931 2774 2451 
Q 2541 1971 2128 1475 
Q 1715 979 1165 461 
Q 1350 474 1552 490 
Q 1754 506 1933 506 
L 3232 506 
L 3232 0 
L 282 0 
z
" transform="scale(0.015625)"/>
       </defs>
       <use xlink:href="#NotoSansKR-Regular-30"/>
       <use xlink:href="#NotoSansKR-Regular-2e" transform="translate(55.499985 0)"/>
       <use xlink:href="#NotoSansKR-Regular-32" transform="translate(83.299973 0)"/>
      </g>
     </g>
    </g>
    <g id="xtick_3">
     <g id="line2d_5">
      <path d="M 260.235909 314.62375 
L 260.235909 22.90875 
" clip-path="url(#pee6e056fe6)" style="fill: none; stroke: #b0b0b0; stroke-opacity: 0.3; stroke-width: 0.8; stroke-linecap: square"/>
     </g>
     <g id="line2d_6">
      <g>
       <use xlink:href="#m3009af584d" x="260.235909" y="314.62375" style="stroke: #000000; stroke-width: 0.8"/>
      </g>
     </g>
     <g id="text_3">
      <!-- 0.4 -->
      <g transform="translate(253.296065 329.583125) scale(0.1 -0.1)">
       <defs>
        <path id="NotoSansKR-Regular-34" d="M 2176 0 
L 2176 3200 
Q 2176 3373 2189 3622 
Q 2202 3872 2208 4051 
L 2182 4051 
Q 2093 3885 2000 3709 
Q 1907 3533 1805 3360 
L 736 1760 
L 3354 1760 
L 3354 1293 
L 128 1293 
L 128 1677 
L 2080 4691 
L 2726 4691 
L 2726 0 
L 2176 0 
z
" transform="scale(0.015625)"/>
       </defs>
       <use xlink:href="#NotoSansKR-Regular-30"/>
       <use xlink:href="#NotoSansKR-Regular-2e" transform="translate(55.499985 0)"/>
       <use xlink:href="#NotoSansKR-Regular-34" transform="translate(83.299973 0)"/>
      </g>
     </g>
    </g>
    <g id="xtick_4">
     <g id="line2d_7">
      <path d="M 353.074091 314.62375 
L 353.074091 22.90875 
" clip-path="url(#pee6e056fe6)" style="fill: none; stroke: #b0b0b0; stroke-opacity: 0.3; stroke-width: 0.8; stroke-linecap: square"/>
     </g>
     <g id="line2d_8">
      <g>
       <use xlink:href="#m3009af584d" x="353.074091" y="314.62375" style="stroke: #000000; stroke-width: 0.8"/>
      </g>
     </g>
     <g id="text_4">
      <!-- 0.6 -->
      <g transform="translate(346.134247 329.583125) scale(0.1 -0.1)">
       <defs>
        <path id="NotoSansKR-Regular-36" d="M 1926 -83 
Q 1594 -83 1306 61 
Q 1018 205 806 496 
Q 595 787 476 1222 
Q 358 1658 358 2240 
Q 358 2925 499 3411 
Q 640 3898 883 4198 
Q 1126 4499 1440 4636 
Q 1754 4774 2093 4774 
Q 2458 4774 2726 4640 
Q 2995 4506 3194 4294 
L 2861 3936 
Q 2726 4102 2528 4198 
Q 2330 4294 2118 4294 
Q 1786 4294 1510 4099 
Q 1235 3904 1072 3456 
Q 909 3008 909 2240 
Q 909 1638 1027 1222 
Q 1146 806 1373 592 
Q 1600 378 1926 378 
Q 2157 378 2333 512 
Q 2509 646 2614 886 
Q 2720 1126 2720 1440 
Q 2720 1760 2627 1993 
Q 2534 2227 2348 2352 
Q 2163 2477 1875 2477 
Q 1651 2477 1388 2333 
Q 1126 2189 890 1837 
L 870 2298 
Q 1018 2490 1197 2627 
Q 1376 2765 1577 2838 
Q 1779 2912 1971 2912 
Q 2368 2912 2659 2749 
Q 2950 2586 3113 2259 
Q 3277 1933 3277 1440 
Q 3277 986 3091 643 
Q 2906 301 2602 109 
Q 2298 -83 1926 -83 
z
" transform="scale(0.015625)"/>
       </defs>
       <use xlink:href="#NotoSansKR-Regular-30"/>
       <use xlink:href="#NotoSansKR-Regular-2e" transform="translate(55.499985 0)"/>
       <use xlink:href="#NotoSansKR-Regular-36" transform="translate(83.299973 0)"/>
      </g>
     </g>
    </g>
    <g id="xtick_5">
     <g id="line2d_9">
      <path d="M 445.912273 314.62375 
L 445.912273 22.90875 
" clip-path="url(#pee6e056fe6)" style="fill: none; stroke: #b0b0b0; stroke-opacity: 0.3; stroke-width: 0.8; stroke-linecap: square"/>
     </g>
     <g id="line2d_10">
      <g>
       <use xlink:href="#m3009af584d" x="445.912273" y="314.62375" style="stroke: #000000; stroke-width: 0.8"/>
      </g>
     </g>
     <g id="text_5">
      <!-- 0.8 -->
      <g transform="translate(438.972429 329.583125) scale(0.1 -0.1)">
       <defs>
        <path id="NotoSansKR-Regular-38" d="M 1792 -83 
Q 1357 -83 1017 77 
Q 678 237 486 518 
Q 294 800 294 1165 
Q 294 1478 419 1731 
Q 544 1984 742 2166 
Q 941 2349 1152 2464 
L 1152 2490 
Q 896 2669 707 2934 
Q 518 3200 518 3571 
Q 518 3930 688 4195 
Q 858 4461 1149 4611 
Q 1440 4762 1805 4762 
Q 2208 4762 2496 4602 
Q 2784 4442 2937 4166 
Q 3091 3891 3091 3526 
Q 3091 3283 2992 3065 
Q 2893 2848 2752 2678 
Q 2611 2509 2470 2394 
L 2470 2362 
Q 2675 2246 2854 2083 
Q 3034 1920 3146 1686 
Q 3258 1453 3258 1126 
Q 3258 794 3075 515 
Q 2893 237 2563 77 
Q 2234 -83 1792 -83 
z
M 2112 2547 
Q 2349 2758 2470 2998 
Q 2592 3238 2592 3494 
Q 2592 3731 2499 3916 
Q 2406 4102 2227 4214 
Q 2048 4326 1798 4326 
Q 1472 4326 1261 4121 
Q 1050 3917 1050 3571 
Q 1050 3296 1200 3107 
Q 1350 2918 1593 2787 
Q 1837 2656 2112 2547 
z
M 1798 352 
Q 2074 352 2275 454 
Q 2477 557 2589 736 
Q 2701 915 2701 1146 
Q 2701 1382 2598 1552 
Q 2496 1722 2326 1850 
Q 2157 1978 1933 2080 
Q 1709 2182 1459 2278 
Q 1178 2099 995 1827 
Q 813 1555 813 1216 
Q 813 973 941 774 
Q 1069 576 1296 464 
Q 1523 352 1798 352 
z
" transform="scale(0.015625)"/>
       </defs>
       <use xlink:href="#NotoSansKR-Regular-30"/>
       <use xlink:href="#NotoSansKR-Regular-2e" transform="translate(55.499985 0)"/>
       <use xlink:href="#NotoSansKR-Regular-38" transform="translate(83.299973 0)"/>
      </g>
     </g>
    </g>
    <g id="xtick_6">
     <g id="line2d_11">
      <path d="M 538.750455 314.62375 
L 538.750455 22.90875 
" clip-path="url(#pee6e056fe6)" style="fill: none; stroke: #b0b0b0; stroke-opacity: 0.3; stroke-width: 0.8; stroke-linecap: square"/>
     </g>
     <g id="line2d_12">
      <g>
       <use xlink:href="#m3009af584d" x="538.750455" y="314.62375" style="stroke: #000000; stroke-width: 0.8"/>
      </g>
     </g>
     <g id="text_6">
      <!-- 1.0 -->
      <g transform="translate(531.810611 329.583125) scale(0.1 -0.1)">
       <defs>
        <path id="NotoSansKR-Regular-31" d="M 563 0 
L 563 486 
L 1613 486 
L 1613 3987 
L 774 3987 
L 774 4358 
Q 1088 4416 1321 4499 
Q 1555 4582 1747 4691 
L 2195 4691 
L 2195 486 
L 3136 486 
L 3136 0 
L 563 0 
z
" transform="scale(0.015625)"/>
       </defs>
       <use xlink:href="#NotoSansKR-Regular-31"/>
       <use xlink:href="#NotoSansKR-Regular-2e" transform="translate(55.499985 0)"/>
       <use xlink:href="#NotoSansKR-Regular-30" transform="translate(83.299973 0)"/>
      </g>
     </g>
    </g>
    <g id="text_7">
     <!-- Time (s) -->
     <g transform="translate(288.044844 343.833125) scale(0.1 -0.1)">
      <defs>
       <path id="NotoSansKR-Regular-54" d="M 1619 0 
L 1619 4192 
L 198 4192 
L 198 4691 
L 3635 4691 
L 3635 4192 
L 2214 4192 
L 2214 0 
L 1619 0 
z
" transform="scale(0.015625)"/>
       <path id="NotoSansKR-Regular-69" d="M 589 0 
L 589 3475 
L 1178 3475 
L 1178 0 
L 589 0 
z
M 883 4192 
Q 710 4192 604 4297 
Q 499 4403 499 4582 
Q 499 4755 604 4857 
Q 710 4960 883 4960 
Q 1056 4960 1165 4857 
Q 1274 4755 1274 4582 
Q 1274 4403 1165 4297 
Q 1056 4192 883 4192 
z
" transform="scale(0.015625)"/>
       <path id="NotoSansKR-Regular-6d" d="M 589 0 
L 589 3475 
L 1069 3475 
L 1126 2970 
L 1139 2970 
Q 1370 3219 1642 3392 
Q 1914 3565 2221 3565 
Q 2624 3565 2848 3385 
Q 3072 3206 3181 2899 
Q 3456 3194 3734 3379 
Q 4013 3565 4333 3565 
Q 4864 3565 5123 3216 
Q 5382 2867 5382 2202 
L 5382 0 
L 4800 0 
L 4800 2125 
Q 4800 2618 4643 2835 
Q 4486 3053 4154 3053 
Q 3955 3053 3740 2921 
Q 3526 2790 3277 2522 
L 3277 0 
L 2694 0 
L 2694 2125 
Q 2694 2618 2537 2835 
Q 2381 3053 2048 3053 
Q 1850 3053 1632 2921 
Q 1414 2790 1178 2522 
L 1178 0 
L 589 0 
z
" transform="scale(0.015625)"/>
       <path id="NotoSansKR-Regular-65" d="M 1997 -83 
Q 1530 -83 1152 134 
Q 774 352 553 758 
Q 333 1165 333 1734 
Q 333 2163 461 2499 
Q 589 2835 809 3075 
Q 1030 3315 1312 3440 
Q 1594 3565 1888 3565 
Q 2336 3565 2643 3366 
Q 2950 3168 3113 2800 
Q 3277 2432 3277 1933 
Q 3277 1837 3270 1753 
Q 3264 1670 3251 1600 
L 909 1600 
Q 928 1229 1078 957 
Q 1229 685 1478 534 
Q 1728 384 2061 384 
Q 2317 384 2525 457 
Q 2733 531 2931 659 
L 3136 269 
Q 2912 122 2630 19 
Q 2349 -83 1997 -83 
z
M 902 2016 
L 2765 2016 
Q 2765 2541 2537 2819 
Q 2310 3098 1901 3098 
Q 1658 3098 1443 2970 
Q 1229 2842 1085 2605 
Q 941 2368 902 2016 
z
" transform="scale(0.015625)"/>
       <path id="NotoSansKR-Regular-20" transform="scale(0.015625)"/>
       <path id="NotoSansKR-Regular-28" d="M 1530 -1254 
Q 1088 -538 838 252 
Q 589 1043 589 1990 
Q 589 2931 838 3724 
Q 1088 4518 1530 5235 
L 1888 5069 
Q 1478 4384 1276 3593 
Q 1075 2803 1075 1990 
Q 1075 1171 1276 380 
Q 1478 -410 1888 -1094 
L 1530 -1254 
z
" transform="scale(0.015625)"/>
       <path id="NotoSansKR-Regular-73" d="M 1498 -83 
Q 1133 -83 790 54 
Q 448 192 205 397 
L 486 787 
Q 717 602 960 486 
Q 1203 371 1517 371 
Q 1862 371 2032 528 
Q 2202 685 2202 915 
Q 2202 1094 2083 1212 
Q 1965 1331 1782 1417 
Q 1600 1504 1408 1574 
Q 1165 1670 931 1788 
Q 698 1907 547 2096 
Q 397 2285 397 2579 
Q 397 2861 537 3081 
Q 678 3302 947 3433 
Q 1216 3565 1594 3565 
Q 1914 3565 2192 3449 
Q 2470 3334 2669 3168 
L 2387 2803 
Q 2208 2931 2019 3020 
Q 1830 3110 1600 3110 
Q 1267 3110 1110 2960 
Q 954 2810 954 2605 
Q 954 2445 1059 2336 
Q 1165 2227 1337 2153 
Q 1510 2080 1702 2003 
Q 1894 1933 2083 1849 
Q 2272 1766 2422 1651 
Q 2573 1536 2665 1366 
Q 2758 1197 2758 947 
Q 2758 666 2614 429 
Q 2470 192 2192 54 
Q 1914 -83 1498 -83 
z
" transform="scale(0.015625)"/>
       <path id="NotoSansKR-Regular-29" d="M 634 -1254 
L 269 -1094 
Q 685 -410 889 380 
Q 1094 1171 1094 1990 
Q 1094 2803 889 3593 
Q 685 4384 269 5069 
L 634 5235 
Q 1082 4518 1328 3724 
Q 1574 2931 1574 1990 
Q 1574 1043 1328 252 
Q 1082 -538 634 -1254 
z
" transform="scale(0.015625)"/>
      </defs>
      <use xlink:href="#NotoSansKR-Regular-54"/>
      <use xlink:href="#NotoSansKR-Regular-69" transform="translate(59.899994 0)"/>
      <use xlink:href="#NotoSansKR-Regular-6d" transform="translate(87.399979 0)"/>
      <use xlink:href="#NotoSansKR-Regular-65" transform="translate(179.999969 0)"/>
      <use xlink:href="#NotoSansKR-Regular-20" transform="translate(235.399963 0)"/>
      <use xlink:href="#NotoSansKR-Regular-28" transform="translate(257.799957 0)"/>
      <use xlink:href="#NotoSansKR-Regular-73" transform="translate(291.599945 0)"/>
      <use xlink:href="#NotoSansKR-Regular-29" transform="translate(338.399933 0)"/>
     </g>
    </g>
   </g>
   <g id="matplotlib.axis_2">
    <g id="ytick_1">
     <g id="line2d_13">
      <path d="M 51.35 301.363977 
L 561.96 301.363977 
" clip-path="url(#pee6e056fe6)" style="fill: none; stroke: #b0b0b0; stroke-opacity: 0.3; stroke-width: 0.8; stroke-linecap: square"/>
     </g>
     <g id="line2d_14">
      <defs>
       <path id="m3c91bb77c1" d="M 0 0 
L -3.5 0 
" style="stroke: #000000; stroke-width: 0.8"/>
      </defs>
      <g>
       <use xlink:href="#m3c91bb77c1" x="51.35" y="301.363977" style="stroke: #000000; stroke-width: 0.8"/>
      </g>
     </g>
     <g id="text_8">
      <!-- -1.00 -->
      <g transform="translate(21.45 305.343665) scale(0.1 -0.1)">
       <defs>
        <path id="NotoSansKR-Regular-2d" d="M 294 1568 
L 294 2016 
L 1939 2016 
L 1939 1568 
L 294 1568 
z
" transform="scale(0.015625)"/>
       </defs>
       <use xlink:href="#NotoSansKR-Regular-2d"/>
       <use xlink:href="#NotoSansKR-Regular-31" transform="translate(34.699997 0)"/>
       <use xlink:href="#NotoSansKR-Regular-2e" transform="translate(90.199982 0)"/>
       <use xlink:href="#NotoSansKR-Regular-30" transform="translate(117.999969 0)"/>
       <use xlink:href="#NotoSansKR-Regular-30" transform="translate(173.499954 0)"/>
      </g>
     </g>
    </g>
    <g id="ytick_2">
     <g id="line2d_15">
      <path d="M 51.35 268.214545 
L 561.96 268.214545 
" clip-path="url(#pee6e056fe6)" style="fill: none; stroke: #b0b0b0; stroke-opacity: 0.3; stroke-width: 0.8; stroke-linecap: square"/>
     </g>
     <g id="line2d_16">
      <g>
       <use xlink:href="#m3c91bb77c1" x="51.35" y="268.214545" style="stroke: #000000; stroke-width: 0.8"/>
      </g>
     </g>
     <g id="text_9">
      <!-- -0.75 -->
      <g transform="translate(21.45 272.194233) scale(0.1 -0.1)">
       <defs>
        <path id="NotoSansKR-Regular-37" d="M 1267 0 
Q 1299 666 1379 1226 
Q 1459 1786 1612 2282 
Q 1766 2778 2006 3245 
Q 2246 3712 2592 4192 
L 314 4192 
L 314 4691 
L 3251 4691 
L 3251 4339 
Q 2842 3808 2582 3321 
Q 2323 2835 2179 2329 
Q 2035 1824 1968 1257 
Q 1901 691 1875 0 
L 1267 0 
z
" transform="scale(0.015625)"/>
        <path id="NotoSansKR-Regular-35" d="M 1677 -83 
Q 1312 -83 1033 6 
Q 755 96 547 237 
Q 339 378 173 538 
L 467 922 
Q 602 787 765 668 
Q 928 550 1139 476 
Q 1350 403 1619 403 
Q 1894 403 2121 537 
Q 2349 672 2483 921 
Q 2618 1171 2618 1510 
Q 2618 2010 2352 2294 
Q 2086 2579 1645 2579 
Q 1414 2579 1241 2508 
Q 1069 2438 864 2304 
L 550 2502 
L 704 4691 
L 2982 4691 
L 2982 4192 
L 1216 4192 
L 1094 2835 
Q 1248 2925 1417 2973 
Q 1587 3021 1798 3021 
Q 2189 3021 2509 2864 
Q 2829 2707 3021 2374 
Q 3213 2042 3213 1523 
Q 3213 1011 2992 652 
Q 2771 294 2419 105 
Q 2067 -83 1677 -83 
z
" transform="scale(0.015625)"/>
       </defs>
       <use xlink:href="#NotoSansKR-Regular-2d"/>
       <use xlink:href="#NotoSansKR-Regular-30" transform="translate(34.699997 0)"/>
       <use xlink:href="#NotoSansKR-Regular-2e" transform="translate(90.199982 0)"/>
       <use xlink:href="#NotoSansKR-Regular-37" transform="translate(117.999969 0)"/>
       <use xlink:href="#NotoSansKR-Regular-35" transform="translate(173.499954 0)"/>
      </g>
     </g>
    </g>
    <g id="ytick_3">
     <g id="line2d_17">
      <path d="M 51.35 235.065114 
L 561.96 235.065114 
" clip-path="url(#pee6e056fe6)" style="fill: none; stroke: #b0b0b0; stroke-opacity: 0.3; stroke-width: 0.8; stroke-linecap: square"/>
     </g>
     <g id="line2d_18">
      <g>
       <use xlink:href="#m3c91bb77c1" x="51.35" y="235.065114" style="stroke: #000000; stroke-width: 0.8"/>
      </g>
     </g>
     <g id="text_10">
      <!-- -0.50 -->
      <g transform="translate(21.45 239.044801) scale(0.1 -0.1)">
       <use xlink:href="#NotoSansKR-Regular-2d"/>
       <use xlink:href="#NotoSansKR-Regular-30" transform="translate(34.699997 0)"/>
       <use xlink:href="#NotoSansKR-Regular-2e" transform="translate(90.199982 0)"/>
       <use xlink:href="#NotoSansKR-Regular-35" transform="translate(117.999969 0)"/>
       <use xlink:href="#NotoSansKR-Regular-30" transform="translate(173.499954 0)"/>
      </g>
     </g>
    </g>
    <g id="ytick_4">
     <g id="line2d_19">
      <path d="M 51.35 201.915682 
L 561.96 201.915682 
" clip-path="url(#pee6e056fe6)" style="fill: none; stroke: #b0b0b0; stroke-opacity: 0.3; stroke-width: 0.8; stroke-linecap: square"/>
     </g>
     <g id="line2d_20">
      <g>
       <use xlink:href="#m3c91bb77c1" x="51.35" y="201.915682" style="stroke: #000000; stroke-width: 0.8"/>
      </g>
     </g>
     <g id="text_11">
      <!-- -0.25 -->
      <g transform="translate(21.45 205.895369) scale(0.1 -0.1)">
       <use xlink:href="#NotoSansKR-Regular-2d"/>
       <use xlink:href="#NotoSansKR-Regular-30" transform="translate(34.699997 0)"/>
       <use xlink:href="#NotoSansKR-Regular-2e" transform="translate(90.199982 0)"/>
       <use xlink:href="#NotoSansKR-Regular-32" transform="translate(117.999969 0)"/>
       <use xlink:href="#NotoSansKR-Regular-35" transform="translate(173.499954 0)"/>
      </g>
     </g>
    </g>
    <g id="ytick_5">
     <g id="line2d_21">
      <path d="M 51.35 168.76625 
L 561.96 168.76625 
" clip-path="url(#pee6e056fe6)" style="fill: none; stroke: #b0b0b0; stroke-opacity: 0.3; stroke-width: 0.8; stroke-linecap: square"/>
     </g>
     <g id="line2d_22">
      <g>
       <use xlink:href="#m3c91bb77c1" x="51.35" y="168.76625" style="stroke: #000000; stroke-width: 0.8"/>
      </g>
     </g>
     <g id="text_12">
      <!-- 0.00 -->
      <g transform="translate(24.920313 172.745937) scale(0.1 -0.1)">
       <use xlink:href="#NotoSansKR-Regular-30"/>
       <use xlink:href="#NotoSansKR-Regular-2e" transform="translate(55.499985 0)"/>
       <use xlink:href="#NotoSansKR-Regular-30" transform="translate(83.299973 0)"/>
       <use xlink:href="#NotoSansKR-Regular-30" transform="translate(138.799957 0)"/>
      </g>
     </g>
    </g>
    <g id="ytick_6">
     <g id="line2d_23">
      <path d="M 51.35 135.616818 
L 561.96 135.616818 
" clip-path="url(#pee6e056fe6)" style="fill: none; stroke: #b0b0b0; stroke-opacity: 0.3; stroke-width: 0.8; stroke-linecap: square"/>
     </g>
     <g id="line2d_24">
      <g>
       <use xlink:href="#m3c91bb77c1" x="51.35" y="135.616818" style="stroke: #000000; stroke-width: 0.8"/>
      </g>
     </g>
     <g id="text_13">
      <!-- 0.25 -->
      <g transform="translate(24.920313 139.596506) scale(0.1 -0.1)">
       <use xlink:href="#NotoSansKR-Regular-30"/>
       <use xlink:href="#NotoSansKR-Regular-2e" transform="translate(55.499985 0)"/>
       <use xlink:href="#NotoSansKR-Regular-32" transform="translate(83.299973 0)"/>
       <use xlink:href="#NotoSansKR-Regular-35" transform="translate(138.799957 0)"/>
      </g>
     </g>
    </g>
    <g id="ytick_7">
     <g id="line2d_25">
      <path d="M 51.35 102.467386 
L 561.96 102.467386 
" clip-path="url(#pee6e056fe6)" style="fill: none; stroke: #b0b0b0; stroke-opacity: 0.3; stroke-width: 0.8; stroke-linecap: square"/>
     </g>
     <g id="line2d_26">
      <g>
       <use xlink:href="#m3c91bb77c1" x="51.35" y="102.467386" style="stroke: #000000; stroke-width: 0.8"/>
      </g>
     </g>
     <g id="text_14">
      <!-- 0.50 -->
      <g transform="translate(24.920313 106.447074) scale(0.1 -0.1)">
       <use xlink:href="#NotoSansKR-Regular-30"/>
       <use xlink:href="#NotoSansKR-Regular-2e" transform="translate(55.499985 0)"/>
       <use xlink:href="#NotoSansKR-Regular-35" transform="translate(83.299973 0)"/>
       <use xlink:href="#NotoSansKR-Regular-30" transform="translate(138.799957 0)"/>
      </g>
     </g>
    </g>
    <g id="ytick_8">
     <g id="line2d_27">
      <path d="M 51.35 69.317955 
L 561.96 69.317955 
" clip-path="url(#pee6e056fe6)" style="fill: none; stroke: #b0b0b0; stroke-opacity: 0.3; stroke-width: 0.8; stroke-linecap: square"/>
     </g>
     <g id="line2d_28">
      <g>
       <use xlink:href="#m3c91bb77c1" x="51.35" y="69.317955" style="stroke: #000000; stroke-width: 0.8"/>
      </g>
     </g>
     <g id="text_15">
      <!-- 0.75 -->
      <g transform="translate(24.920313 73.297642) scale(0.1 -0.1)">
       <use xlink:href="#NotoSansKR-Regular-30"/>
       <use xlink:href="#NotoSansKR-Regular-2e" transform="translate(55.499985 0)"/>
       <use xlink:href="#NotoSansKR-Regular-37" transform="translate(83.299973 0)"/>
       <use xlink:href="#NotoSansKR-Regular-35" transform="translate(138.799957 0)"/>
      </g>
     </g>
    </g>
    <g id="ytick_9">
     <g id="line2d_29">
      <path d="M 51.35 36.168523 
L 561.96 36.168523 
" clip-path="url(#pee6e056fe6)" style="fill: none; stroke: #b0b0b0; stroke-opacity: 0.3; stroke-width: 0.8; stroke-linecap: square"/>
     </g>
     <g id="line2d_30">
      <g>
       <use xlink:href="#m3c91bb77c1" x="51.35" y="36.168523" style="stroke: #000000; stroke-width: 0.8"/>
      </g>
     </g>
     <g id="text_16">
      <!-- 1.00 -->
      <g transform="translate(24.920313 40.14821) scale(0.1 -0.1)">
       <use xlink:href="#NotoSansKR-Regular-31"/>
       <use xlink:href="#NotoSansKR-Regular-2e" transform="translate(55.499985 0)"/>
       <use xlink:href="#NotoSansKR-Regular-30" transform="translate(83.299973 0)"/>
       <use xlink:href="#NotoSansKR-Regular-30" transform="translate(138.799957 0)"/>
      </g>
     </g>
    </g>
    <g id="text_17">
     <!-- Amplitude -->
     <g transform="translate(15.159375 193.121719) rotate(-90) scale(0.1 -0.1)">
      <defs>
       <path id="NotoSansKR-Regular-41" d="M 26 0 
L 1613 4691 
L 2272 4691 
L 3866 0 
L 3238 0 
L 2419 2624 
Q 2291 3027 2176 3414 
Q 2061 3802 1946 4211 
L 1920 4211 
Q 1811 3802 1692 3414 
Q 1574 3027 1453 2624 
L 621 0 
L 26 0 
z
M 851 1434 
L 851 1901 
L 3014 1901 
L 3014 1434 
L 851 1434 
z
" transform="scale(0.015625)"/>
       <path id="NotoSansKR-Regular-70" d="M 589 -1466 
L 589 3475 
L 1069 3475 
L 1126 3072 
L 1139 3072 
Q 1376 3270 1661 3417 
Q 1946 3565 2246 3565 
Q 2694 3565 3004 3344 
Q 3315 3123 3472 2726 
Q 3629 2330 3629 1792 
Q 3629 1197 3414 777 
Q 3200 358 2857 137 
Q 2515 -83 2118 -83 
Q 1882 -83 1638 22 
Q 1395 128 1158 320 
L 1178 -288 
L 1178 -1466 
L 589 -1466 
z
M 2022 410 
Q 2310 410 2537 573 
Q 2765 736 2893 1046 
Q 3021 1357 3021 1786 
Q 3021 2170 2928 2461 
Q 2835 2752 2636 2912 
Q 2438 3072 2099 3072 
Q 1882 3072 1654 2950 
Q 1427 2829 1178 2598 
L 1178 768 
Q 1408 570 1632 490 
Q 1856 410 2022 410 
z
" transform="scale(0.015625)"/>
       <path id="NotoSansKR-Regular-6c" d="M 1203 -83 
Q 986 -83 851 6 
Q 717 96 653 272 
Q 589 448 589 691 
L 589 5094 
L 1178 5094 
L 1178 653 
Q 1178 518 1226 460 
Q 1274 403 1338 403 
Q 1363 403 1388 406 
Q 1414 410 1459 416 
L 1542 -32 
Q 1478 -51 1401 -67 
Q 1325 -83 1203 -83 
z
" transform="scale(0.015625)"/>
       <path id="NotoSansKR-Regular-74" d="M 1677 -83 
Q 1312 -83 1094 61 
Q 877 205 784 467 
Q 691 730 691 1075 
L 691 3002 
L 173 3002 
L 173 3443 
L 723 3475 
L 787 4454 
L 1274 4454 
L 1274 3475 
L 2221 3475 
L 2221 3002 
L 1274 3002 
L 1274 1056 
Q 1274 742 1392 566 
Q 1510 390 1811 390 
Q 1907 390 2016 419 
Q 2125 448 2208 486 
L 2323 45 
Q 2176 -6 2009 -44 
Q 1843 -83 1677 -83 
z
" transform="scale(0.015625)"/>
       <path id="NotoSansKR-Regular-75" d="M 1606 -83 
Q 1056 -83 797 262 
Q 538 608 538 1274 
L 538 3475 
L 1126 3475 
L 1126 1344 
Q 1126 864 1280 643 
Q 1434 422 1779 422 
Q 2048 422 2259 563 
Q 2470 704 2720 1011 
L 2720 3475 
L 3302 3475 
L 3302 0 
L 2816 0 
L 2771 544 
L 2752 544 
Q 2509 262 2237 89 
Q 1965 -83 1606 -83 
z
" transform="scale(0.015625)"/>
       <path id="NotoSansKR-Regular-64" d="M 1773 -83 
Q 1338 -83 1014 128 
Q 691 339 515 745 
Q 339 1152 339 1734 
Q 339 2298 550 2707 
Q 762 3117 1104 3341 
Q 1446 3565 1843 3565 
Q 2150 3565 2371 3459 
Q 2592 3354 2822 3162 
L 2790 3757 
L 2790 5094 
L 3379 5094 
L 3379 0 
L 2899 0 
L 2848 410 
L 2829 410 
Q 2624 205 2355 61 
Q 2086 -83 1773 -83 
z
M 1901 410 
Q 2144 410 2361 528 
Q 2579 646 2790 883 
L 2790 2707 
Q 2573 2906 2368 2989 
Q 2163 3072 1946 3072 
Q 1670 3072 1443 2902 
Q 1216 2733 1078 2435 
Q 941 2138 941 1741 
Q 941 1325 1056 1024 
Q 1171 723 1385 566 
Q 1600 410 1901 410 
z
" transform="scale(0.015625)"/>
      </defs>
      <use xlink:href="#NotoSansKR-Regular-41"/>
      <use xlink:href="#NotoSansKR-Regular-6d" transform="translate(60.799988 0)"/>
      <use xlink:href="#NotoSansKR-Regular-70" transform="translate(153.399979 0)"/>
      <use xlink:href="#NotoSansKR-Regular-6c" transform="translate(215.399963 0)"/>
      <use xlink:href="#NotoSansKR-Regular-69" transform="translate(243.799957 0)"/>
      <use xlink:href="#NotoSansKR-Regular-74" transform="translate(271.299942 0)"/>
      <use xlink:href="#NotoSansKR-Regular-75" transform="translate(308.999939 0)"/>
      <use xlink:href="#NotoSansKR-Regular-64" transform="translate(369.699936 0)"/>
      <use xlink:href="#NotoSansKR-Regular-65" transform="translate(431.699921 0)"/>
     </g>
    </g>
   </g>
   <g id="line2d_31">
    <path d="M 74.559545 36.168523 
L 75.024201 36.380898 
L 75.488857 37.017343 
L 75.953512 38.07582 
L 76.418168 39.552938 
L 77.347479 43.742844 
L 78.27679 49.533417 
L 79.206101 56.850522 
L 80.135412 65.600477 
L 81.529379 81.162283 
L 82.923346 99.244296 
L 84.781968 126.36628 
L 88.034557 178.140587 
L 90.82249 221.668149 
L 92.681112 247.613258 
L 94.075079 264.495987 
L 95.469046 278.624747 
L 96.398357 286.309585 
L 97.327668 292.489524 
L 98.256979 297.085439 
L 99.18629 300.038492 
L 99.650946 300.886292 
L 100.115602 301.310873 
L 100.580257 301.310873 
L 101.044913 300.886292 
L 101.509568 300.038492 
L 101.974224 298.770186 
L 102.903535 294.989647 
L 103.832846 289.593077 
L 104.762157 282.649567 
L 105.691468 274.248016 
L 107.085435 259.151928 
L 108.479402 241.455609 
L 110.338024 214.704594 
L 113.125957 170.64262 
L 116.378546 119.326328 
L 118.237169 92.96771 
L 119.631135 75.671259 
L 121.025102 61.05298 
L 121.954413 53.006563 
L 122.883724 46.44221 
L 123.813035 41.443965 
L 124.742346 38.07582 
L 125.207002 37.017343 
L 125.671658 36.380898 
L 126.136313 36.168523 
L 126.600969 36.380898 
L 127.065624 37.017343 
L 127.53028 38.07582 
L 127.994935 39.552938 
L 128.924247 43.742844 
L 129.853558 49.533417 
L 130.782869 56.850522 
L 131.71218 65.600477 
L 133.106147 81.162283 
L 134.500113 99.244296 
L 136.358736 126.36628 
L 139.611325 178.140587 
L 142.399258 221.668149 
L 144.25788 247.613258 
L 145.651847 264.495987 
L 147.045814 278.624747 
L 147.975125 286.309585 
L 148.904436 292.489524 
L 149.833747 297.085439 
L 150.763058 300.038492 
L 151.227714 300.886292 
L 151.692369 301.310873 
L 152.157025 301.310873 
L 152.62168 300.886292 
L 153.086336 300.038492 
L 153.550991 298.770186 
L 154.480303 294.989647 
L 155.409614 289.593077 
L 156.338925 282.649567 
L 157.268236 274.248016 
L 158.662203 259.151928 
L 160.056169 241.455609 
L 161.914792 214.704594 
L 164.702725 170.64262 
L 167.955314 119.326328 
L 169.813936 92.96771 
L 171.207903 75.671259 
L 172.60187 61.05298 
L 173.531181 53.006563 
L 174.460492 46.44221 
L 175.389803 41.443965 
L 176.319114 38.07582 
L 176.78377 37.017343 
L 177.248425 36.380898 
L 177.713081 36.168523 
L 178.177736 36.380898 
L 178.642392 37.017343 
L 179.107048 38.07582 
L 179.571703 39.552938 
L 180.501014 43.742844 
L 181.430325 49.533417 
L 182.359636 56.850522 
L 183.288948 65.600477 
L 184.682914 81.162283 
L 186.076881 99.244296 
L 187.935503 126.36628 
L 191.188092 178.140587 
L 193.976026 221.668149 
L 195.834648 247.613258 
L 197.228615 264.495987 
L 198.622581 278.624747 
L 199.551892 286.309585 
L 200.481203 292.489524 
L 201.410515 297.085439 
L 202.339826 300.038492 
L 202.804481 300.886292 
L 203.269137 301.310873 
L 203.733792 301.310873 
L 204.198448 300.886292 
L 204.663104 300.038492 
L 205.127759 298.770186 
L 206.05707 294.989647 
L 206.986381 289.593077 
L 207.915693 282.649567 
L 208.845004 274.248016 
L 210.23897 259.151928 
L 211.632937 241.455609 
L 213.491559 214.704594 
L 216.279493 170.64262 
L 219.532082 119.326328 
L 221.390704 92.96771 
L 222.784671 75.671259 
L 224.178637 61.05298 
L 225.107948 53.006563 
L 226.03726 46.44221 
L 226.966571 41.443965 
L 227.895882 38.07582 
L 228.360537 37.017343 
L 228.825193 36.380898 
L 229.289848 36.168523 
L 229.754504 36.380898 
L 230.21916 37.017343 
L 230.683815 38.07582 
L 231.148471 39.552938 
L 232.077782 43.742844 
L 233.007093 49.533417 
L 233.936404 56.850522 
L 234.865715 65.600477 
L 236.259682 81.162283 
L 237.653649 99.244296 
L 239.512271 126.36628 
L 242.76486 178.140587 
L 245.552793 221.668149 
L 247.411416 247.613258 
L 248.805382 264.495987 
L 250.199349 278.624747 
L 251.12866 286.309585 
L 252.057971 292.489524 
L 252.987282 297.085439 
L 253.916593 300.038492 
L 254.381249 300.886292 
L 254.845905 301.310873 
L 255.31056 301.310873 
L 255.775216 300.886292 
L 256.239871 300.038492 
L 256.704527 298.770186 
L 257.633838 294.989647 
L 258.563149 289.593077 
L 259.49246 282.649567 
L 260.421771 274.248016 
L 261.815738 259.151928 
L 263.209705 241.455609 
L 265.068327 214.704594 
L 267.85626 170.64262 
L 271.108849 119.326328 
L 272.967472 92.96771 
L 274.361438 75.671259 
L 275.755405 61.05298 
L 276.684716 53.006563 
L 277.614027 46.44221 
L 278.543338 41.443965 
L 279.472649 38.07582 
L 279.937305 37.017343 
L 280.401961 36.380898 
L 280.866616 36.168523 
L 281.331272 36.380898 
L 281.795927 37.017343 
L 282.260583 38.07582 
L 282.725238 39.552938 
L 283.65455 43.742844 
L 284.583861 49.533417 
L 285.513172 56.850522 
L 286.442483 65.600477 
L 287.83645 81.162283 
L 289.230416 99.244296 
L 291.089039 126.36628 
L 294.341628 178.140587 
L 297.129561 221.668149 
L 298.988183 247.613258 
L 300.38215 264.495987 
L 301.776117 278.624747 
L 302.705428 286.309585 
L 303.634739 292.489524 
L 304.56405 297.085439 
L 305.493361 300.038492 
L 305.958017 300.886292 
L 306.422672 301.310873 
L 306.887328 301.310873 
L 307.351983 300.886292 
L 307.816639 300.038492 
L 308.281294 298.770186 
L 309.210606 294.989647 
L 310.139917 289.593077 
L 311.069228 282.649567 
L 311.998539 274.248016 
L 313.392506 259.151928 
L 314.786472 241.455609 
L 316.645095 214.704594 
L 319.433028 170.64262 
L 322.685617 119.326328 
L 324.544239 92.96771 
L 325.938206 75.671259 
L 327.332173 61.05298 
L 328.261484 53.006563 
L 329.190795 46.44221 
L 330.120106 41.443965 
L 331.049417 38.07582 
L 331.514073 37.017343 
L 331.978728 36.380898 
L 332.443384 36.168523 
L 332.908039 36.380898 
L 333.372695 37.017343 
L 333.837351 38.07582 
L 334.302006 39.552938 
L 335.231317 43.742844 
L 336.160628 49.533417 
L 337.089939 56.850522 
L 338.019251 65.600477 
L 339.413217 81.162283 
L 340.807184 99.244296 
L 342.665806 126.36628 
L 345.918395 178.140587 
L 348.706329 221.668149 
L 350.564951 247.613258 
L 351.958918 264.495987 
L 353.352884 278.624747 
L 354.282195 286.309585 
L 355.211507 292.489524 
L 356.140818 297.085439 
L 357.070129 300.038492 
L 357.534784 300.886292 
L 357.99944 301.310873 
L 358.464095 301.310873 
L 358.928751 300.886292 
L 359.393407 300.038492 
L 359.858062 298.770186 
L 360.787373 294.989647 
L 361.716684 289.593077 
L 362.645996 282.649567 
L 363.575307 274.248016 
L 364.969273 259.151928 
L 366.36324 241.455609 
L 368.221862 214.704594 
L 371.009796 170.64262 
L 374.262385 119.326328 
L 376.121007 92.96771 
L 377.514974 75.671259 
L 378.90894 61.05298 
L 379.838251 53.006563 
L 380.767563 46.44221 
L 381.696874 41.443965 
L 382.626185 38.07582 
L 383.09084 37.017343 
L 383.555496 36.380898 
L 384.020152 36.168523 
L 384.484807 36.380898 
L 384.949463 37.017343 
L 385.414118 38.07582 
L 385.878774 39.552938 
L 386.808085 43.742844 
L 387.737396 49.533417 
L 388.666707 56.850522 
L 389.596018 65.600477 
L 390.989985 81.162283 
L 392.383952 99.244296 
L 394.242574 126.36628 
L 397.495163 178.140587 
L 400.283096 221.668149 
L 402.141719 247.613258 
L 403.535685 264.495987 
L 404.929652 278.624747 
L 405.858963 286.309585 
L 406.788274 292.489524 
L 407.717585 297.085439 
L 408.646896 300.038492 
L 409.111552 300.886292 
L 409.576208 301.310873 
L 410.040863 301.310873 
L 410.505519 300.886292 
L 410.970174 300.038492 
L 411.43483 298.770186 
L 412.364141 294.989647 
L 413.293452 289.593077 
L 414.222763 282.649567 
L 415.152074 274.248016 
L 416.546041 259.151928 
L 417.940008 241.455609 
L 419.79863 214.704594 
L 422.586563 170.64262 
L 425.839152 119.326328 
L 427.697775 92.96771 
L 429.091741 75.671259 
L 430.485708 61.05298 
L 431.415019 53.006563 
L 432.34433 46.44221 
L 433.273641 41.443965 
L 434.202952 38.07582 
L 434.667608 37.017343 
L 435.132264 36.380898 
L 435.596919 36.168523 
L 436.061575 36.380898 
L 436.52623 37.017343 
L 436.990886 38.07582 
L 437.455541 39.552938 
L 438.384853 43.742844 
L 439.314164 49.533417 
L 440.243475 56.850522 
L 441.172786 65.600477 
L 442.566753 81.162283 
L 443.960719 99.244296 
L 445.819342 126.36628 
L 449.071931 178.140587 
L 451.859864 221.668149 
L 453.718486 247.613258 
L 455.112453 264.495987 
L 456.50642 278.624747 
L 457.435731 286.309585 
L 458.365042 292.489524 
L 459.294353 297.085439 
L 460.223664 300.038492 
L 460.68832 300.886292 
L 461.152975 301.310873 
L 461.617631 301.310873 
L 462.082286 300.886292 
L 462.546942 300.038492 
L 463.011598 298.770186 
L 463.940909 294.989647 
L 464.87022 289.593077 
L 465.799531 282.649567 
L 466.728842 274.248016 
L 468.122809 259.151928 
L 469.516775 241.455609 
L 471.375398 214.704594 
L 474.163331 170.64262 
L 477.41592 119.326328 
L 479.274542 92.96771 
L 480.668509 75.671259 
L 482.062476 61.05298 
L 482.991787 53.006563 
L 483.921098 46.44221 
L 484.850409 41.443965 
L 485.77972 38.07582 
L 486.244376 37.017343 
L 486.709031 36.380898 
L 487.173687 36.168523 
L 487.638342 36.380898 
L 488.102998 37.017343 
L 488.567654 38.07582 
L 489.032309 39.552938 
L 489.96162 43.742844 
L 490.890931 49.533417 
L 491.820243 56.850522 
L 492.749554 65.600477 
L 494.14352 81.162283 
L 495.537487 99.244296 
L 497.396109 126.36628 
L 500.648698 178.140587 
L 503.436632 221.668149 
L 505.295254 247.613258 
L 506.689221 264.495987 
L 508.083187 278.624747 
L 509.012498 286.309585 
L 509.94181 292.489524 
L 510.871121 297.085439 
L 511.800432 300.038492 
L 512.265087 300.886292 
L 512.729743 301.310873 
L 513.194398 301.310873 
L 513.659054 300.886292 
L 514.12371 300.038492 
L 514.588365 298.770186 
L 515.517676 294.989647 
L 516.446987 289.593077 
L 517.376299 282.649567 
L 518.30561 274.248016 
L 519.699576 259.151928 
L 521.093543 241.455609 
L 522.952165 214.704594 
L 525.740099 170.64262 
L 528.992688 119.326328 
L 530.85131 92.96771 
L 532.245277 75.671259 
L 533.639243 61.05298 
L 534.568554 53.006563 
L 535.497866 46.44221 
L 536.427177 41.443965 
L 537.356488 38.07582 
L 537.821143 37.017343 
L 538.285799 36.380898 
L 538.750455 36.168523 
L 538.750455 36.168523 
" clip-path="url(#pee6e056fe6)" style="fill: none; stroke: #0000ff; stroke-opacity: 0.3; stroke-width: 1.5; stroke-linecap: square"/>
   </g>
   <g id="LineCollection_1">
    <path d="M 74.559545 168.76625 
L 74.559545 36.168523 
" clip-path="url(#pee6e056fe6)" style="fill: none; stroke-dasharray: 1.5,2.475; stroke-dashoffset: 0; stroke: #000000; stroke-width: 1.5"/>
    <path d="M 120.978636 168.76625 
L 120.978636 61.492435 
" clip-path="url(#pee6e056fe6)" style="fill: none; stroke-dasharray: 1.5,2.475; stroke-dashoffset: 0; stroke: #000000; stroke-width: 1.5"/>
    <path d="M 167.397727 168.76625 
L 167.397727 127.791299 
" clip-path="url(#pee6e056fe6)" style="fill: none; stroke-dasharray: 1.5,2.475; stroke-dashoffset: 0; stroke: #000000; stroke-width: 1.5"/>
    <path d="M 213.816818 168.76625 
L 213.816818 209.741201 
" clip-path="url(#pee6e056fe6)" style="fill: none; stroke-dasharray: 1.5,2.475; stroke-dashoffset: 0; stroke: #000000; stroke-width: 1.5"/>
    <path d="M 260.235909 168.76625 
L 260.235909 276.040065 
" clip-path="url(#pee6e056fe6)" style="fill: none; stroke-dasharray: 1.5,2.475; stroke-dashoffset: 0; stroke: #000000; stroke-width: 1.5"/>
    <path d="M 306.655 168.76625 
L 306.655 301.363977 
" clip-path="url(#pee6e056fe6)" style="fill: none; stroke-dasharray: 1.5,2.475; stroke-dashoffset: 0; stroke: #000000; stroke-width: 1.5"/>
    <path d="M 353.074091 168.76625 
L 353.074091 276.040065 
" clip-path="url(#pee6e056fe6)" style="fill: none; stroke-dasharray: 1.5,2.475; stroke-dashoffset: 0; stroke: #000000; stroke-width: 1.5"/>
    <path d="M 399.493182 168.76625 
L 399.493182 209.741201 
" clip-path="url(#pee6e056fe6)" style="fill: none; stroke-dasharray: 1.5,2.475; stroke-dashoffset: 0; stroke: #000000; stroke-width: 1.5"/>
    <path d="M 445.912273 168.76625 
L 445.912273 127.791299 
" clip-path="url(#pee6e056fe6)" style="fill: none; stroke-dasharray: 1.5,2.475; stroke-dashoffset: 0; stroke: #000000; stroke-width: 1.5"/>
    <path d="M 492.331364 168.76625 
L 492.331364 61.492435 
" clip-path="url(#pee6e056fe6)" style="fill: none; stroke-dasharray: 1.5,2.475; stroke-dashoffset: 0; stroke: #000000; stroke-width: 1.5"/>
   </g>
   <g id="line2d_32">
    <defs>
     <path id="m194d8680dc" d="M 0 3 
C 0.795609 3 1.55874 2.683901 2.12132 2.12132 
C 2.683901 1.55874 3 0.795609 3 0 
C 3 -0.795609 2.683901 -1.55874 2.12132 -2.12132 
C 1.55874 -2.683901 0.795609 -3 0 -3 
C -0.795609 -3 -1.55874 -2.683901 -2.12132 -2.12132 
C -2.683901 -1.55874 -3 -0.795609 -3 0 
C -3 0.795609 -2.683901 1.55874 -2.12132 2.12132 
C -1.55874 2.683901 -0.795609 3 0 3 
z
" style="stroke: #000000"/>
    </defs>
    <g clip-path="url(#pee6e056fe6)">
     <use xlink:href="#m194d8680dc" x="74.559545" y="36.168523" style="stroke: #000000"/>
     <use xlink:href="#m194d8680dc" x="120.978636" y="61.492435" style="stroke: #000000"/>
     <use xlink:href="#m194d8680dc" x="167.397727" y="127.791299" style="stroke: #000000"/>
     <use xlink:href="#m194d8680dc" x="213.816818" y="209.741201" style="stroke: #000000"/>
     <use xlink:href="#m194d8680dc" x="260.235909" y="276.040065" style="stroke: #000000"/>
     <use xlink:href="#m194d8680dc" x="306.655" y="301.363977" style="stroke: #000000"/>
     <use xlink:href="#m194d8680dc" x="353.074091" y="276.040065" style="stroke: #000000"/>
     <use xlink:href="#m194d8680dc" x="399.493182" y="209.741201" style="stroke: #000000"/>
     <use xlink:href="#m194d8680dc" x="445.912273" y="127.791299" style="stroke: #000000"/>
     <use xlink:href="#m194d8680dc" x="492.331364" y="61.492435" style="stroke: #000000"/>
    </g>
   </g>
   <g id="line2d_33"/>
   <g id="line2d_34">
    <path d="M 74.559545 36.168523 
L 77.812134 36.29701 
L 81.064723 36.682224 
L 84.317312 37.323416 
L 87.569901 38.219346 
L 90.82249 39.368276 
L 94.075079 40.76798 
L 97.327668 42.415745 
L 100.580257 44.308377 
L 103.832846 46.44221 
L 107.550091 49.170897 
L 111.267335 52.202296 
L 114.98458 55.528737 
L 118.701824 59.141797 
L 122.883724 63.537678 
L 127.065624 68.270637 
L 131.247524 73.325514 
L 135.89408 79.299874 
L 140.540636 85.628024 
L 145.651847 92.96771 
L 151.227714 101.386994 
L 157.268236 110.939243 
L 163.773414 121.656486 
L 171.207903 134.346749 
L 180.501014 150.683921 
L 213.956215 209.979074 
L 221.390704 222.43182 
L 227.895882 232.886723 
L 233.471749 241.455609 
L 239.047615 249.610632 
L 244.158827 256.682802 
L 248.805382 262.747881 
L 253.451938 268.441314 
L 257.633838 273.229008 
L 261.815738 277.682075 
L 265.997638 281.786253 
L 269.714883 285.130861 
L 273.432127 288.180934 
L 277.149372 290.92875 
L 280.401961 293.079659 
L 283.65455 294.989647 
L 286.907139 296.655014 
L 290.159727 298.072532 
L 293.412316 299.239454 
L 296.664905 300.153519 
L 299.917494 300.812954 
L 303.170083 301.216482 
L 306.422672 301.363322 
L 309.675261 301.253187 
L 312.92785 300.886292 
L 316.180439 300.263349 
L 319.433028 299.385563 
L 322.685617 298.254636 
L 325.938206 296.872761 
L 329.190795 295.242614 
L 332.443384 293.367356 
L 335.695973 291.25062 
L 339.413217 288.54109 
L 343.130462 285.528393 
L 346.847706 282.220154 
L 350.564951 278.624747 
L 354.746851 274.248016 
L 358.928751 269.533395 
L 363.110651 264.495987 
L 367.757207 258.539949 
L 372.403762 252.228905 
L 377.514974 244.906552 
L 383.09084 236.504309 
L 389.131363 226.968213 
L 395.636541 216.265561 
L 403.07103 203.588271 
L 412.364141 187.261579 
L 446.283997 127.157298 
L 453.718486 114.719639 
L 460.223664 104.281106 
L 465.799531 95.728506 
L 471.375398 87.591751 
L 476.486609 80.537982 
L 481.133165 74.490928 
L 485.77972 68.81668 
L 489.96162 64.047184 
L 494.14352 59.613135 
L 498.32542 55.528737 
L 502.042665 52.202296 
L 505.759909 49.170897 
L 509.477154 46.44221 
L 512.729743 44.308377 
L 515.982332 42.415745 
L 519.234921 40.76798 
L 522.48751 39.368276 
L 525.740099 38.219346 
L 528.992688 37.323416 
L 532.245277 36.682224 
L 535.497866 36.29701 
L 538.750455 36.168523 
L 538.750455 36.168523 
" clip-path="url(#pee6e056fe6)" style="fill: none; stroke-dasharray: 7.4,3.2; stroke-dashoffset: 0; stroke: #ff0000; stroke-width: 2"/>
   </g>
   <g id="patch_3">
    <path d="M 51.35 314.62375 
L 51.35 22.90875 
" style="fill: none; stroke: #000000; stroke-width: 0.8; stroke-linejoin: miter; stroke-linecap: square"/>
   </g>
   <g id="patch_4">
    <path d="M 51.35 314.62375 
L 561.96 314.62375 
" style="fill: none; stroke: #000000; stroke-width: 0.8; stroke-linejoin: miter; stroke-linecap: square"/>
   </g>
   <g id="text_18">
    <!-- Aliasing Effect: 9Hz Signal Sampled at 10Hz -->
    <g transform="translate(186.562187 16.90875) scale(0.12 -0.12)">
     <defs>
      <path id="NotoSansKR-Regular-61" d="M 1389 -83 
Q 1101 -83 870 32 
Q 640 147 509 368 
Q 378 589 378 902 
Q 378 1472 886 1776 
Q 1395 2080 2509 2202 
Q 2509 2426 2448 2627 
Q 2387 2829 2233 2953 
Q 2080 3078 1792 3078 
Q 1491 3078 1225 2960 
Q 960 2842 749 2707 
L 525 3110 
Q 685 3213 896 3318 
Q 1107 3424 1356 3494 
Q 1606 3565 1888 3565 
Q 2310 3565 2576 3385 
Q 2842 3206 2966 2889 
Q 3091 2573 3091 2138 
L 3091 0 
L 2611 0 
L 2560 416 
L 2541 416 
Q 2298 211 2006 64 
Q 1715 -83 1389 -83 
z
M 1555 390 
Q 1805 390 2032 505 
Q 2259 621 2509 845 
L 2509 1811 
Q 1926 1747 1580 1628 
Q 1235 1510 1088 1340 
Q 941 1171 941 941 
Q 941 640 1120 515 
Q 1299 390 1555 390 
z
" transform="scale(0.015625)"/>
      <path id="NotoSansKR-Regular-6e" d="M 589 0 
L 589 3475 
L 1069 3475 
L 1126 2970 
L 1139 2970 
Q 1389 3219 1667 3392 
Q 1946 3565 2304 3565 
Q 2854 3565 3110 3216 
Q 3366 2867 3366 2202 
L 3366 0 
L 2784 0 
L 2784 2125 
Q 2784 2618 2627 2835 
Q 2470 3053 2125 3053 
Q 1856 3053 1645 2918 
Q 1434 2784 1178 2522 
L 1178 0 
L 589 0 
z
" transform="scale(0.015625)"/>
      <path id="NotoSansKR-Regular-67" d="M 1760 -1600 
Q 1338 -1600 1011 -1491 
Q 685 -1382 505 -1174 
Q 326 -966 326 -672 
Q 326 -448 460 -240 
Q 595 -32 838 115 
L 838 147 
Q 704 230 614 371 
Q 525 512 525 717 
Q 525 934 649 1100 
Q 774 1267 909 1363 
L 909 1389 
Q 736 1523 595 1766 
Q 454 2010 454 2323 
Q 454 2707 633 2985 
Q 813 3264 1110 3414 
Q 1408 3565 1754 3565 
Q 1907 3565 2032 3539 
Q 2157 3514 2246 3475 
L 3456 3475 
L 3456 3027 
L 2746 3027 
Q 2874 2906 2950 2720 
Q 3027 2534 3027 2310 
Q 3027 1939 2857 1667 
Q 2688 1395 2400 1248 
Q 2112 1101 1754 1101 
Q 1632 1101 1494 1133 
Q 1357 1165 1242 1222 
Q 1146 1146 1082 1050 
Q 1018 954 1018 806 
Q 1018 646 1146 537 
Q 1274 429 1626 429 
L 2310 429 
Q 2912 429 3216 230 
Q 3520 32 3520 -397 
Q 3520 -717 3302 -992 
Q 3085 -1267 2691 -1433 
Q 2298 -1600 1760 -1600 
z
M 1754 1498 
Q 1958 1498 2128 1600 
Q 2298 1702 2397 1888 
Q 2496 2074 2496 2323 
Q 2496 2579 2397 2761 
Q 2298 2944 2131 3040 
Q 1965 3136 1754 3136 
Q 1555 3136 1385 3040 
Q 1216 2944 1117 2765 
Q 1018 2586 1018 2323 
Q 1018 2074 1120 1888 
Q 1222 1702 1388 1600 
Q 1555 1498 1754 1498 
z
M 1843 -1197 
Q 2176 -1197 2422 -1094 
Q 2669 -992 2806 -829 
Q 2944 -666 2944 -493 
Q 2944 -243 2765 -147 
Q 2586 -51 2240 -51 
L 1638 -51 
Q 1542 -51 1424 -41 
Q 1306 -32 1190 0 
Q 1005 -128 921 -285 
Q 838 -442 838 -589 
Q 838 -864 1104 -1030 
Q 1370 -1197 1843 -1197 
z
" transform="scale(0.015625)"/>
      <path id="NotoSansKR-Regular-45" d="M 646 0 
L 646 4691 
L 3347 4691 
L 3347 4192 
L 1235 4192 
L 1235 2720 
L 3014 2720 
L 3014 2214 
L 1235 2214 
L 1235 506 
L 3418 506 
L 3418 0 
L 646 0 
z
" transform="scale(0.015625)"/>
      <path id="NotoSansKR-Regular-66" d="M 685 0 
L 685 4032 
Q 685 4384 793 4640 
Q 902 4896 1126 5037 
Q 1350 5178 1696 5178 
Q 1856 5178 2006 5146 
Q 2157 5114 2278 5069 
L 2150 4614 
Q 1958 4710 1760 4710 
Q 1510 4710 1388 4537 
Q 1267 4365 1267 4026 
L 1267 0 
L 685 0 
z
M 211 3002 
L 211 3443 
L 710 3475 
L 2003 3475 
L 2003 3002 
L 211 3002 
z
" transform="scale(0.015625)"/>
      <path id="NotoSansKR-Regular-63" d="M 1958 -83 
Q 1498 -83 1130 131 
Q 762 346 547 752 
Q 333 1158 333 1734 
Q 333 2317 563 2723 
Q 794 3130 1178 3347 
Q 1562 3565 2003 3565 
Q 2342 3565 2588 3443 
Q 2835 3322 3014 3155 
L 2720 2771 
Q 2573 2906 2403 2989 
Q 2234 3072 2029 3072 
Q 1715 3072 1465 2905 
Q 1216 2739 1075 2438 
Q 934 2138 934 1734 
Q 934 1338 1072 1037 
Q 1210 736 1450 569 
Q 1690 403 2010 403 
Q 2253 403 2457 502 
Q 2662 602 2829 749 
L 3085 352 
Q 2848 147 2560 32 
Q 2272 -83 1958 -83 
z
" transform="scale(0.015625)"/>
      <path id="NotoSansKR-Regular-3a" d="M 890 2496 
Q 717 2496 592 2621 
Q 467 2746 467 2944 
Q 467 3142 592 3267 
Q 717 3392 890 3392 
Q 1062 3392 1187 3267 
Q 1312 3142 1312 2944 
Q 1312 2746 1187 2621 
Q 1062 2496 890 2496 
z
M 890 -83 
Q 717 -83 592 41 
Q 467 166 467 358 
Q 467 563 592 684 
Q 717 806 890 806 
Q 1062 806 1187 684 
Q 1312 563 1312 358 
Q 1312 166 1187 41 
Q 1062 -83 890 -83 
z
" transform="scale(0.015625)"/>
      <path id="NotoSansKR-Regular-39" d="M 1504 -83 
Q 1120 -83 841 54 
Q 563 192 371 397 
L 691 762 
Q 845 595 1053 499 
Q 1261 403 1485 403 
Q 1722 403 1933 512 
Q 2144 621 2307 873 
Q 2470 1126 2563 1536 
Q 2656 1946 2656 2547 
Q 2656 3123 2537 3520 
Q 2419 3917 2188 4118 
Q 1958 4320 1632 4320 
Q 1408 4320 1229 4185 
Q 1050 4051 941 3814 
Q 832 3578 832 3251 
Q 832 2938 925 2704 
Q 1018 2470 1206 2342 
Q 1395 2214 1670 2214 
Q 1907 2214 2166 2364 
Q 2426 2515 2662 2861 
L 2688 2394 
Q 2547 2214 2364 2073 
Q 2182 1933 1980 1856 
Q 1779 1779 1574 1779 
Q 1184 1779 893 1945 
Q 602 2112 442 2441 
Q 282 2771 282 3251 
Q 282 3712 467 4054 
Q 653 4397 957 4585 
Q 1261 4774 1626 4774 
Q 1965 4774 2253 4636 
Q 2541 4499 2752 4220 
Q 2963 3942 3084 3526 
Q 3206 3110 3206 2547 
Q 3206 1837 3065 1334 
Q 2925 832 2681 518 
Q 2438 205 2134 61 
Q 1830 -83 1504 -83 
z
" transform="scale(0.015625)"/>
      <path id="NotoSansKR-Regular-48" d="M 646 0 
L 646 4691 
L 1235 4691 
L 1235 2726 
L 3424 2726 
L 3424 4691 
L 4019 4691 
L 4019 0 
L 3424 0 
L 3424 2214 
L 1235 2214 
L 1235 0 
L 646 0 
z
" transform="scale(0.015625)"/>
      <path id="NotoSansKR-Regular-7a" d="M 224 0 
L 224 314 
L 2054 3002 
L 422 3002 
L 422 3475 
L 2797 3475 
L 2797 3162 
L 960 474 
L 2854 474 
L 2854 0 
L 224 0 
z
" transform="scale(0.015625)"/>
      <path id="NotoSansKR-Regular-53" d="M 1946 -83 
Q 1446 -83 1027 102 
Q 608 288 307 608 
L 659 1018 
Q 909 755 1248 595 
Q 1587 435 1952 435 
Q 2419 435 2678 646 
Q 2938 858 2938 1197 
Q 2938 1446 2832 1593 
Q 2726 1741 2550 1840 
Q 2374 1939 2150 2035 
L 1478 2330 
Q 1261 2426 1040 2573 
Q 819 2720 672 2957 
Q 525 3194 525 3533 
Q 525 3898 717 4176 
Q 909 4454 1241 4614 
Q 1574 4774 2003 4774 
Q 2426 4774 2781 4614 
Q 3136 4454 3379 4198 
L 3072 3821 
Q 2854 4019 2595 4137 
Q 2336 4256 2003 4256 
Q 1606 4256 1366 4073 
Q 1126 3891 1126 3578 
Q 1126 3347 1244 3200 
Q 1363 3053 1542 2963 
Q 1722 2874 1907 2790 
L 2573 2502 
Q 2842 2387 3062 2227 
Q 3283 2067 3411 1830 
Q 3539 1594 3539 1248 
Q 3539 877 3347 573 
Q 3155 269 2796 93 
Q 2438 -83 1946 -83 
z
" transform="scale(0.015625)"/>
     </defs>
     <use xlink:href="#NotoSansKR-Regular-41"/>
     <use xlink:href="#NotoSansKR-Regular-6c" transform="translate(60.799988 0)"/>
     <use xlink:href="#NotoSansKR-Regular-69" transform="translate(89.199982 0)"/>
     <use xlink:href="#NotoSansKR-Regular-61" transform="translate(116.699966 0)"/>
     <use xlink:href="#NotoSansKR-Regular-73" transform="translate(172.999954 0)"/>
     <use xlink:href="#NotoSansKR-Regular-69" transform="translate(219.799942 0)"/>
     <use xlink:href="#NotoSansKR-Regular-6e" transform="translate(247.299927 0)"/>
     <use xlink:href="#NotoSansKR-Regular-67" transform="translate(308.299911 0)"/>
     <use xlink:href="#NotoSansKR-Regular-20" transform="translate(364.699905 0)"/>
     <use xlink:href="#NotoSansKR-Regular-45" transform="translate(387.099899 0)"/>
     <use xlink:href="#NotoSansKR-Regular-66" transform="translate(445.999893 0)"/>
     <use xlink:href="#NotoSansKR-Regular-66" transform="translate(478.499878 0)"/>
     <use xlink:href="#NotoSansKR-Regular-65" transform="translate(510.999863 0)"/>
     <use xlink:href="#NotoSansKR-Regular-63" transform="translate(566.399857 0)"/>
     <use xlink:href="#NotoSansKR-Regular-74" transform="translate(617.399841 0)"/>
     <use xlink:href="#NotoSansKR-Regular-3a" transform="translate(655.099838 0)"/>
     <use xlink:href="#NotoSansKR-Regular-20" transform="translate(682.899826 0)"/>
     <use xlink:href="#NotoSansKR-Regular-39" transform="translate(705.29982 0)"/>
     <use xlink:href="#NotoSansKR-Regular-48" transform="translate(760.799805 0)"/>
     <use xlink:href="#NotoSansKR-Regular-7a" transform="translate(833.599792 0)"/>
     <use xlink:href="#NotoSansKR-Regular-20" transform="translate(881.099777 0)"/>
     <use xlink:href="#NotoSansKR-Regular-53" transform="translate(903.499771 0)"/>
     <use xlink:href="#NotoSansKR-Regular-69" transform="translate(963.099762 0)"/>
     <use xlink:href="#NotoSansKR-Regular-67" transform="translate(990.599747 0)"/>
     <use xlink:href="#NotoSansKR-Regular-6e" transform="translate(1046.999741 0)"/>
     <use xlink:href="#NotoSansKR-Regular-61" transform="translate(1107.999725 0)"/>
     <use xlink:href="#NotoSansKR-Regular-6c" transform="translate(1164.299713 0)"/>
     <use xlink:href="#NotoSansKR-Regular-20" transform="translate(1192.699707 0)"/>
     <use xlink:href="#NotoSansKR-Regular-53" transform="translate(1215.099701 0)"/>
     <use xlink:href="#NotoSansKR-Regular-61" transform="translate(1274.699692 0)"/>
     <use xlink:href="#NotoSansKR-Regular-6d" transform="translate(1330.99968 0)"/>
     <use xlink:href="#NotoSansKR-Regular-70" transform="translate(1423.59967 0)"/>
     <use xlink:href="#NotoSansKR-Regular-6c" transform="translate(1485.599655 0)"/>
     <use xlink:href="#NotoSansKR-Regular-65" transform="translate(1513.999649 0)"/>
     <use xlink:href="#NotoSansKR-Regular-64" transform="translate(1569.399643 0)"/>
     <use xlink:href="#NotoSansKR-Regular-20" transform="translate(1631.399628 0)"/>
     <use xlink:href="#NotoSansKR-Regular-61" transform="translate(1653.799622 0)"/>
     <use xlink:href="#NotoSansKR-Regular-74" transform="translate(1710.099609 0)"/>
     <use xlink:href="#NotoSansKR-Regular-20" transform="translate(1747.799606 0)"/>
     <use xlink:href="#NotoSansKR-Regular-31" transform="translate(1770.1996 0)"/>
     <use xlink:href="#NotoSansKR-Regular-30" transform="translate(1825.699585 0)"/>
     <use xlink:href="#NotoSansKR-Regular-48" transform="translate(1881.19957 0)"/>
     <use xlink:href="#NotoSansKR-Regular-7a" transform="translate(1953.999557 0)"/>
    </g>
   </g>
   <g id="legend_1">
    <g id="patch_5">
     <path d="M 440.150625 77.30875 
L 554.96 77.30875 
Q 556.96 77.30875 556.96 75.30875 
L 556.96 29.90875 
Q 556.96 27.90875 554.96 27.90875 
L 440.150625 27.90875 
Q 438.150625 27.90875 438.150625 29.90875 
L 438.150625 75.30875 
Q 438.150625 77.30875 440.150625 77.30875 
z
" style="fill: #ffffff; opacity: 0.8; stroke: #cccccc; stroke-linejoin: miter"/>
    </g>
    <g id="line2d_35">
     <path d="M 442.150625 36.588437 
L 452.150625 36.588437 
L 462.150625 36.588437 
" style="fill: none; stroke: #0000ff; stroke-opacity: 0.3; stroke-width: 1.5; stroke-linecap: square"/>
    </g>
    <g id="text_19">
     <!-- Original (9.0 Hz) -->
     <g transform="translate(470.150625 40.088437) scale(0.1 -0.1)">
      <defs>
       <path id="NotoSansKR-Regular-4f" d="M 2374 -83 
Q 1786 -83 1334 214 
Q 883 512 627 1062 
Q 371 1613 371 2362 
Q 371 3117 627 3657 
Q 883 4198 1334 4486 
Q 1786 4774 2374 4774 
Q 2963 4774 3414 4483 
Q 3866 4192 4122 3654 
Q 4378 3117 4378 2362 
Q 4378 1613 4122 1062 
Q 3866 512 3414 214 
Q 2963 -83 2374 -83 
z
M 2374 435 
Q 2797 435 3110 672 
Q 3424 909 3597 1344 
Q 3770 1779 3770 2362 
Q 3770 2950 3597 3376 
Q 3424 3802 3110 4029 
Q 2797 4256 2374 4256 
Q 1958 4256 1641 4029 
Q 1325 3802 1152 3376 
Q 979 2950 979 2362 
Q 979 1779 1152 1344 
Q 1325 909 1641 672 
Q 1958 435 2374 435 
z
" transform="scale(0.015625)"/>
       <path id="NotoSansKR-Regular-72" d="M 589 0 
L 589 3475 
L 1069 3475 
L 1126 2842 
L 1139 2842 
Q 1318 3174 1577 3369 
Q 1837 3565 2125 3565 
Q 2246 3565 2332 3549 
Q 2419 3533 2496 3488 
L 2387 2982 
Q 2298 3008 2227 3024 
Q 2157 3040 2048 3040 
Q 1837 3040 1593 2857 
Q 1350 2675 1178 2234 
L 1178 0 
L 589 0 
z
" transform="scale(0.015625)"/>
      </defs>
      <use xlink:href="#NotoSansKR-Regular-4f"/>
      <use xlink:href="#NotoSansKR-Regular-72" transform="translate(74.199982 0)"/>
      <use xlink:href="#NotoSansKR-Regular-69" transform="translate(112.999969 0)"/>
      <use xlink:href="#NotoSansKR-Regular-67" transform="translate(140.499954 0)"/>
      <use xlink:href="#NotoSansKR-Regular-69" transform="translate(196.899948 0)"/>
      <use xlink:href="#NotoSansKR-Regular-6e" transform="translate(224.399933 0)"/>
      <use xlink:href="#NotoSansKR-Regular-61" transform="translate(285.399918 0)"/>
      <use xlink:href="#NotoSansKR-Regular-6c" transform="translate(341.699905 0)"/>
      <use xlink:href="#NotoSansKR-Regular-20" transform="translate(370.099899 0)"/>
      <use xlink:href="#NotoSansKR-Regular-28" transform="translate(392.499893 0)"/>
      <use xlink:href="#NotoSansKR-Regular-39" transform="translate(426.299881 0)"/>
      <use xlink:href="#NotoSansKR-Regular-2e" transform="translate(481.799866 0)"/>
      <use xlink:href="#NotoSansKR-Regular-30" transform="translate(509.599854 0)"/>
      <use xlink:href="#NotoSansKR-Regular-20" transform="translate(565.099838 0)"/>
      <use xlink:href="#NotoSansKR-Regular-48" transform="translate(587.499832 0)"/>
      <use xlink:href="#NotoSansKR-Regular-7a" transform="translate(660.29982 0)"/>
      <use xlink:href="#NotoSansKR-Regular-29" transform="translate(707.799805 0)"/>
     </g>
    </g>
    <g id="line2d_36">
     <path d="M 442.150625 52.047813 
L 452.150625 52.047813 
L 462.150625 52.047813 
" style="fill: none; stroke-dasharray: 7.4,3.2; stroke-dashoffset: 0; stroke: #ff0000; stroke-width: 2"/>
    </g>
    <g id="text_20">
     <!-- Aliased (1.0 Hz) -->
     <g transform="translate(470.150625 55.547813) scale(0.1 -0.1)">
      <use xlink:href="#NotoSansKR-Regular-41"/>
      <use xlink:href="#NotoSansKR-Regular-6c" transform="translate(60.799988 0)"/>
      <use xlink:href="#NotoSansKR-Regular-69" transform="translate(89.199982 0)"/>
      <use xlink:href="#NotoSansKR-Regular-61" transform="translate(116.699966 0)"/>
      <use xlink:href="#NotoSansKR-Regular-73" transform="translate(172.999954 0)"/>
      <use xlink:href="#NotoSansKR-Regular-65" transform="translate(219.799942 0)"/>
      <use xlink:href="#NotoSansKR-Regular-64" transform="translate(275.199936 0)"/>
      <use xlink:href="#NotoSansKR-Regular-20" transform="translate(337.199921 0)"/>
      <use xlink:href="#NotoSansKR-Regular-28" transform="translate(359.599915 0)"/>
      <use xlink:href="#NotoSansKR-Regular-31" transform="translate(393.399902 0)"/>
      <use xlink:href="#NotoSansKR-Regular-2e" transform="translate(448.899887 0)"/>
      <use xlink:href="#NotoSansKR-Regular-30" transform="translate(476.699875 0)"/>
      <use xlink:href="#NotoSansKR-Regular-20" transform="translate(532.19986 0)"/>
      <use xlink:href="#NotoSansKR-Regular-48" transform="translate(554.599854 0)"/>
      <use xlink:href="#NotoSansKR-Regular-7a" transform="translate(627.399841 0)"/>
      <use xlink:href="#NotoSansKR-Regular-29" transform="translate(674.899826 0)"/>
     </g>
    </g>
    <g id="line2d_37">
     <path d="M 452.150625 71.018125 
L 452.150625 66.205625 
" style="fill: none; stroke-dasharray: 2.25,3.7125; stroke-dashoffset: 0; stroke: #000000; stroke-width: 1.5"/>
    </g>
    <g id="line2d_38"/>
    <g id="line2d_39">
     <g>
      <use xlink:href="#m194d8680dc" x="452.150625" y="66.205625" style="stroke: #000000"/>
     </g>
    </g>
    <g id="text_21">
     <!-- Samples (10.0 Hz) -->
     <g transform="translate(470.150625 71.018125) scale(0.1 -0.1)">
      <use xlink:href="#NotoSansKR-Regular-53"/>
      <use xlink:href="#NotoSansKR-Regular-61" transform="translate(59.599991 0)"/>
      <use xlink:href="#NotoSansKR-Regular-6d" transform="translate(115.899979 0)"/>
      <use xlink:href="#NotoSansKR-Regular-70" transform="translate(208.499969 0)"/>
      <use xlink:href="#NotoSansKR-Regular-6c" transform="translate(270.499954 0)"/>
      <use xlink:href="#NotoSansKR-Regular-65" transform="translate(298.899948 0)"/>
      <use xlink:href="#NotoSansKR-Regular-73" transform="translate(354.299942 0)"/>
      <use xlink:href="#NotoSansKR-Regular-20" transform="translate(401.09993 0)"/>
      <use xlink:href="#NotoSansKR-Regular-28" transform="translate(423.499924 0)"/>
      <use xlink:href="#NotoSansKR-Regular-31" transform="translate(457.299911 0)"/>
      <use xlink:href="#NotoSansKR-Regular-30" transform="translate(512.799896 0)"/>
      <use xlink:href="#NotoSansKR-Regular-2e" transform="translate(568.299881 0)"/>
      <use xlink:href="#NotoSansKR-Regular-30" transform="translate(596.099869 0)"/>
      <use xlink:href="#NotoSansKR-Regular-20" transform="translate(651.599854 0)"/>
      <use xlink:href="#NotoSansKR-Regular-48" transform="translate(673.999847 0)"/>
      <use xlink:href="#NotoSansKR-Regular-7a" transform="translate(746.799835 0)"/>
      <use xlink:href="#NotoSansKR-Regular-29" transform="translate(794.29982 0)"/>
     </g>
    </g>
   </g>
  </g>
 </g>
 <defs>
  <clipPath id="pee6e056fe6">
   <rect x="51.35" y="22.90875" width="510.61" height="291.715"/>
  </clipPath>
 </defs>
</svg>
