<?xml version="1.0" encoding="utf-8" standalone="no"?>
<!DOCTYPE svg PUBLIC "-//W3C//DTD SVG 1.1//EN"
  "http://www.w3.org/Graphics/SVG/1.1/DTD/svg11.dtd">
<svg xmlns:xlink="http://www.w3.org/1999/xlink" width="568.717812pt" height="352.415pt" viewBox="0 0 568.717812 352.415" xmlns="http://www.w3.org/2000/svg" version="1.1">
 <metadata>
  <rdf:RDF xmlns:dc="http://purl.org/dc/elements/1.1/" xmlns:cc="http://creativecommons.org/ns#" xmlns:rdf="http://www.w3.org/1999/02/22-rdf-syntax-ns#">
   <cc:Work>
    <dc:type rdf:resource="http://purl.org/dc/dcmitype/StillImage"/>
    <dc:date>2026-01-15T23:41:04.521517</dc:date>
    <dc:format>image/svg+xml</dc:format>
    <dc:creator>
     <cc:Agent>
      <dc:title>Matplotlib v3.10.8, https://matplotlib.org/</dc:title>
     </cc:Agent>
    </dc:creator>
   </cc:Work>
  </rdf:RDF>
 </metadata>
 <defs>
  <style type="text/css">*{stroke-linejoin: round; stroke-linecap: butt}</style>
 </defs>
 <g id="figure_1">
  <g id="patch_1">
   <path d="M 0 352.415 
L 568.717812 352.415 
L 568.717812 0 
L 0 0 
z
" style="fill: #ffffff"/>
  </g>
  <g id="axes_1">
   <g id="patch_2">
    <path d="M 46.021563 315.88375 
L 524.541563 315.88375 
L 524.541563 22.08375 
L 46.021563 22.08375 
z
" style="fill: #ffffff"/>
   </g>
   <g id="patch_3">
    <path d="M 67.772472 315.88375 
L 129.917926 315.88375 
L 129.917926 120.017083 
L 67.772472 120.017083 
z
" clip-path="url(#p86a17930cd)" style="fill: #1f77b4; opacity: 0.6"/>
   </g>
   <g id="patch_4">
    <path d="M 192.063381 315.88375 
L 254.208835 315.88375 
L 254.208835 120.017083 
L 192.063381 120.017083 
z
" clip-path="url(#p86a17930cd)" style="fill: #1f77b4; opacity: 0.6"/>
   </g>
   <g id="patch_5">
    <path d="M 316.35429 315.88375 
L 378.499744 315.88375 
L 378.499744 120.017083 
L 316.35429 120.017083 
z
" clip-path="url(#p86a17930cd)" style="fill: #1f77b4; opacity: 0.6"/>
   </g>
   <g id="patch_6">
    <path d="M 440.645199 315.88375 
L 502.790653 315.88375 
L 502.790653 80.84375 
L 440.645199 80.84375 
z
" clip-path="url(#p86a17930cd)" style="fill: #1f77b4; opacity: 0.6"/>
   </g>
   <g id="matplotlib.axis_1">
    <g id="xtick_1">
     <g id="line2d_1">
      <defs>
       <path id="m12ebd707d3" d="M 0 0 
L 0 3.5 
" style="stroke: #000000; stroke-width: 0.8"/>
      </defs>
      <g>
       <use xlink:href="#m12ebd707d3" x="98.845199" y="315.88375" style="stroke: #000000; stroke-width: 0.8"/>
      </g>
     </g>
     <g id="text_1">
      <!-- SKT -->
      <g transform="translate(89.645199 329.954062) scale(0.1 -0.1)">
       <defs>
        <path id="Pretendard-Regular-53" d="M 2969 3388 
L 3519 3388 
C 3494 4075 2863 4588 1988 4588 
C 1113 4588 431 4081 431 3319 
C 431 2706 869 2344 1581 2138 
L 2138 1988 
C 2613 1850 3031 1681 3031 1244 
C 3031 750 2563 431 1938 431 
C 1400 431 931 669 881 1175 
L 306 1175 
C 356 425 963 -81 1938 -81 
C 2988 -81 3581 494 3581 1231 
C 3581 2075 2788 2356 2300 2481 
L 1850 2606 
C 1506 2694 975 2869 975 3344 
C 975 3775 1369 4088 1969 4088 
C 2513 4088 2919 3831 2969 3388 
z
" transform="scale(0.015625)"/>
        <path id="Pretendard-Regular-4b" d="M 500 0 
L 1063 0 
L 1063 1456 
L 1625 2094 
L 3181 0 
L 3869 0 
L 1975 2481 
L 3869 4525 
L 3131 4525 
L 1119 2288 
L 1063 2288 
L 1063 4525 
L 500 4525 
L 500 0 
z
" transform="scale(0.015625)"/>
        <path id="Pretendard-Regular-54" d="M 250 4025 
L 1675 4025 
L 1675 0 
L 2244 0 
L 2244 4025 
L 3663 4025 
L 3663 4525 
L 250 4525 
L 250 4025 
z
" transform="scale(0.015625)"/>
       </defs>
       <use xlink:href="#Pretendard-Regular-53"/>
       <use xlink:href="#Pretendard-Regular-4b" transform="translate(60.742188 0)"/>
       <use xlink:href="#Pretendard-Regular-54" transform="translate(122.851562 0)"/>
      </g>
     </g>
    </g>
    <g id="xtick_2">
     <g id="line2d_2">
      <g>
       <use xlink:href="#m12ebd707d3" x="223.136108" y="315.88375" style="stroke: #000000; stroke-width: 0.8"/>
      </g>
     </g>
     <g id="text_2">
      <!-- KT -->
      <g transform="translate(216.973608 329.954062) scale(0.1 -0.1)">
       <use xlink:href="#Pretendard-Regular-4b"/>
       <use xlink:href="#Pretendard-Regular-54" transform="translate(62.109375 0)"/>
      </g>
     </g>
    </g>
    <g id="xtick_3">
     <g id="line2d_3">
      <g>
       <use xlink:href="#m12ebd707d3" x="347.427017" y="315.88375" style="stroke: #000000; stroke-width: 0.8"/>
      </g>
     </g>
     <g id="text_3">
      <!-- LGU+ -->
      <g transform="translate(334.544986 329.954062) scale(0.1 -0.1)">
       <defs>
        <path id="Pretendard-Regular-4c" d="M 500 0 
L 3163 0 
L 3163 500 
L 1063 500 
L 1063 4525 
L 500 4525 
L 500 0 
z
" transform="scale(0.015625)"/>
        <path id="Pretendard-Regular-47" d="M 3588 3113 
L 4169 3113 
C 4000 3988 3263 4588 2306 4588 
C 1144 4588 325 3694 325 2263 
C 325 831 1138 -63 2344 -63 
C 3419 -63 4194 656 4194 1781 
L 4194 2269 
L 2463 2269 
L 2463 1775 
L 3644 1775 
C 3631 975 3109 463 2344 463 
C 1506 463 869 1094 869 2263 
C 869 3431 1506 4063 2306 4063 
C 2950 4063 3394 3694 3588 3113 
z
" transform="scale(0.015625)"/>
        <path id="Pretendard-Regular-55" d="M 3463 4525 
L 3463 1575 
C 3463 919 3013 444 2263 444 
C 1519 444 1063 919 1063 1575 
L 1063 4525 
L 500 4525 
L 500 1531 
C 500 600 1194 -81 2263 -81 
C 3331 -81 4025 600 4025 1531 
L 4025 4525 
L 3463 4525 
z
" transform="scale(0.015625)"/>
        <path id="Pretendard-Regular-2b" d="M 1750 306 
L 2256 306 
L 2256 1519 
L 3469 1519 
L 3469 2025 
L 2256 2025 
L 2256 3231 
L 1750 3231 
L 1750 2025 
L 544 2025 
L 544 1519 
L 1750 1519 
L 1750 306 
z
" transform="scale(0.015625)"/>
       </defs>
       <use xlink:href="#Pretendard-Regular-4c"/>
       <use xlink:href="#Pretendard-Regular-47" transform="translate(53.320312 0)"/>
       <use xlink:href="#Pretendard-Regular-55" transform="translate(124.21875 0)"/>
       <use xlink:href="#Pretendard-Regular-2b" transform="translate(194.921875 0)"/>
      </g>
     </g>
    </g>
    <g id="xtick_4">
     <g id="line2d_4">
      <g>
       <use xlink:href="#m12ebd707d3" x="471.717926" y="315.88375" style="stroke: #000000; stroke-width: 0.8"/>
      </g>
     </g>
     <g id="text_4">
      <!-- Target -->
      <g transform="translate(456.878082 329.954062) scale(0.1 -0.1)">
       <defs>
        <path id="Pretendard-Regular-61" d="M 269 963 
C 269 300 781 -81 1425 -81 
C 2013 -81 2325 231 2438 463 
L 2463 463 
L 2463 0 
L 2994 0 
L 2994 2238 
C 2994 3306 2163 3438 1719 3438 
C 969 3438 438 3056 369 2513 
L 931 2513 
C 1006 2769 1263 2969 1694 2969 
C 2206 2969 2463 2719 2463 2288 
L 2463 2013 
C 2309 2006 1759 1978 1544 1963 
C 956 1919 269 1744 269 963 
z
M 806 938 
C 806 1306 1119 1481 1606 1513 
L 2463 1575 
L 2463 1231 
C 2463 806 2125 400 1519 400 
C 1106 400 806 581 806 938 
z
" transform="scale(0.015625)"/>
        <path id="Pretendard-Regular-72" d="M 431 0 
L 969 0 
L 969 2138 
C 969 2594 1331 2931 1819 2931 
C 1956 2931 2106 2906 2144 2894 
L 2144 3438 
C 2081 3444 1944 3450 1863 3450 
C 1463 3450 1113 3219 988 2875 
L 950 2875 
L 950 3394 
L 431 3394 
L 431 0 
z
" transform="scale(0.015625)"/>
        <path id="Pretendard-Regular-67" d="M 1806 -1344 
C 2631 -1344 3281 -969 3281 -94 
L 3281 3394 
L 2756 3394 
L 2756 2856 
L 2713 2856 
C 2588 3038 2375 3438 1719 3438 
C 869 3438 269 2788 269 1744 
C 269 675 888 50 1713 50 
C 2369 50 2588 438 2700 625 
L 2744 625 
L 2744 -63 
C 2744 -625 2388 -875 1806 -875 
C 1325 -875 1006 -700 931 -356 
L 369 -356 
C 431 -988 988 -1344 1806 -1344 
z
M 1788 531 
C 1144 531 813 1019 813 1725 
C 813 2406 1138 2956 1788 2956 
C 2419 2956 2756 2450 2756 1725 
C 2756 975 2406 531 1788 531 
z
" transform="scale(0.015625)"/>
        <path id="Pretendard-Regular-65" d="M 1856 -69 
C 2556 -69 3056 281 3219 794 
L 2644 794 
C 2519 581 2263 406 1856 406 
C 1250 406 831 800 806 1519 
L 3269 1519 
L 3269 1744 
C 3269 3000 2519 3438 1806 3438 
C 881 3438 269 2713 269 1669 
C 269 625 875 -69 1856 -69 
z
M 813 1975 
C 844 2500 1219 2963 1806 2963 
C 2363 2963 2725 2544 2725 1975 
L 813 1975 
z
" transform="scale(0.015625)"/>
        <path id="Pretendard-Regular-74" d="M 1913 3394 
L 1200 3394 
L 1200 4206 
L 656 4206 
L 656 3394 
L 144 3394 
L 144 2944 
L 656 2944 
L 656 838 
C 656 238 1138 -44 1588 -44 
C 1744 -44 1881 -31 1963 -19 
L 1963 481 
C 1881 475 1744 469 1644 469 
C 1413 469 1200 538 1200 975 
L 1200 2944 
L 1913 2944 
L 1913 3394 
z
" transform="scale(0.015625)"/>
       </defs>
       <use xlink:href="#Pretendard-Regular-54"/>
       <use xlink:href="#Pretendard-Regular-61" transform="translate(61.132812 0)"/>
       <use xlink:href="#Pretendard-Regular-72" transform="translate(114.648438 0)"/>
       <use xlink:href="#Pretendard-Regular-67" transform="translate(149.609375 0)"/>
       <use xlink:href="#Pretendard-Regular-65" transform="translate(207.519531 0)"/>
       <use xlink:href="#Pretendard-Regular-74" transform="translate(262.792969 0)"/>
      </g>
     </g>
    </g>
    <g id="text_5">
     <!-- Operators -->
     <g transform="translate(262.800313 343.222812) scale(0.1 -0.1)">
      <defs>
       <path id="Pretendard-Regular-4f" d="M 4325 2263 
C 4325 3694 3481 4588 2325 4588 
C 1163 4588 325 3694 325 2263 
C 325 831 1163 -63 2325 -63 
C 3481 -63 4325 831 4325 2263 
z
M 3781 2263 
C 3781 1094 3144 463 2325 463 
C 1506 463 869 1094 869 2263 
C 869 3431 1506 4063 2325 4063 
C 3144 4063 3781 3431 3781 2263 
z
" transform="scale(0.015625)"/>
       <path id="Pretendard-Regular-70" d="M 431 -1275 
L 969 -1275 
L 969 519 
L 1013 519 
C 1125 331 1350 -69 2000 -69 
C 2844 -69 3438 613 3438 1688 
C 3438 2763 2844 3438 1994 3438 
C 1338 3438 1125 3038 1013 2856 
L 950 2856 
L 950 3394 
L 431 3394 
L 431 -1275 
z
M 956 1700 
C 956 2450 1288 2956 1925 2956 
C 2575 2956 2900 2406 2900 1700 
C 2900 975 2569 413 1925 413 
C 1300 413 956 938 956 1700 
z
" transform="scale(0.015625)"/>
       <path id="Pretendard-Regular-6f" d="M 1819 -69 
C 2738 -69 3356 625 3356 1681 
C 3356 2738 2738 3438 1819 3438 
C 894 3438 269 2738 269 1681 
C 269 625 894 -69 1819 -69 
z
M 1819 406 
C 1125 406 806 1006 806 1681 
C 806 2356 1125 2963 1819 2963 
C 2500 2963 2819 2356 2819 1681 
C 2819 1006 2500 406 1819 406 
z
" transform="scale(0.015625)"/>
       <path id="Pretendard-Regular-73" d="M 2319 2513 
L 2844 2513 
C 2775 3063 2331 3438 1631 3438 
C 881 3438 375 3019 375 2438 
C 375 1988 688 1663 1281 1525 
L 1794 1406 
C 2181 1319 2350 1156 2350 919 
C 2350 600 2044 400 1563 400 
C 1138 400 894 556 831 888 
L 269 888 
C 356 269 813 -69 1575 -69 
C 2425 -69 2906 363 2906 950 
C 2906 1425 2606 1725 2000 1869 
L 1494 1994 
C 1094 2088 913 2244 913 2469 
C 913 2756 1213 2981 1631 2981 
C 2031 2981 2244 2794 2319 2513 
z
" transform="scale(0.015625)"/>
      </defs>
      <use xlink:href="#Pretendard-Regular-4f"/>
      <use xlink:href="#Pretendard-Regular-70" transform="translate(72.65625 0)"/>
      <use xlink:href="#Pretendard-Regular-65" transform="translate(130.566406 0)"/>
      <use xlink:href="#Pretendard-Regular-72" transform="translate(185.839844 0)"/>
      <use xlink:href="#Pretendard-Regular-61" transform="translate(220.800781 0)"/>
      <use xlink:href="#Pretendard-Regular-74" transform="translate(274.316406 0)"/>
      <use xlink:href="#Pretendard-Regular-6f" transform="translate(308.300781 0)"/>
      <use xlink:href="#Pretendard-Regular-72" transform="translate(365.039062 0)"/>
      <use xlink:href="#Pretendard-Regular-73" transform="translate(400 0)"/>
     </g>
    </g>
   </g>
   <g id="matplotlib.axis_2">
    <g id="ytick_1">
     <g id="line2d_5">
      <defs>
       <path id="mf55fa94808" d="M 0 0 
L -3.5 0 
" style="stroke: #000000; stroke-width: 0.8"/>
      </defs>
      <g>
       <use xlink:href="#mf55fa94808" x="46.021563" y="315.88375" style="stroke: #000000; stroke-width: 0.8"/>
      </g>
     </g>
     <g id="text_6">
      <!-- 0 -->
      <g style="fill: #1f77b4" transform="translate(33.06375 319.418906) scale(0.1 -0.1)">
       <defs>
        <path id="Pretendard-Regular-30" d="M 1906 -63 
C 2906 -63 3488 781 3488 2263 
C 3488 3731 2900 4588 1906 4588 
C 913 4588 325 3731 325 2263 
C 325 781 900 -63 1906 -63 
z
M 1906 438 
C 1250 438 869 1094 869 2263 
C 869 3431 1256 4100 1906 4100 
C 2556 4100 2938 3431 2938 2263 
C 2938 1094 2556 438 1906 438 
z
" transform="scale(0.015625)"/>
       </defs>
       <use xlink:href="#Pretendard-Regular-30"/>
      </g>
     </g>
    </g>
    <g id="ytick_2">
     <g id="line2d_6">
      <g>
       <use xlink:href="#mf55fa94808" x="46.021563" y="276.710417" style="stroke: #000000; stroke-width: 0.8"/>
      </g>
     </g>
     <g id="text_7">
      <!-- 20 -->
      <g style="fill: #1f77b4" transform="translate(27.195 280.245573) scale(0.1 -0.1)">
       <defs>
        <path id="Pretendard-Regular-32" d="M 425 0 
L 3363 0 
L 3363 500 
L 1206 500 
L 1206 538 
L 2244 1606 
C 3044 2431 3281 2825 3281 3331 
C 3281 4038 2694 4588 1875 4588 
C 1056 4588 438 4050 444 3250 
L 975 3250 
C 975 3756 1319 4100 1856 4100 
C 2363 4100 2756 3794 2756 3331 
C 2756 2913 2500 2606 1963 2038 
L 419 413 
L 425 0 
z
" transform="scale(0.015625)"/>
       </defs>
       <use xlink:href="#Pretendard-Regular-32"/>
       <use xlink:href="#Pretendard-Regular-30" transform="translate(58.691406 0)"/>
      </g>
     </g>
    </g>
    <g id="ytick_3">
     <g id="line2d_7">
      <g>
       <use xlink:href="#mf55fa94808" x="46.021563" y="237.537083" style="stroke: #000000; stroke-width: 0.8"/>
      </g>
     </g>
     <g id="text_8">
      <!-- 40 -->
      <g style="fill: #1f77b4" transform="translate(26.823125 241.07224) scale(0.1 -0.1)">
       <defs>
        <path id="Pretendard-Regular-34" d="M 313 925 
L 2506 925 
L 2506 0 
L 3044 0 
L 3044 925 
L 3675 925 
L 3675 1419 
L 3044 1419 
L 3044 4525 
L 2350 4525 
L 313 1388 
L 313 925 
z
M 919 1419 
L 919 1456 
L 2450 3813 
L 2506 3813 
L 2506 1419 
L 919 1419 
z
" transform="scale(0.015625)"/>
       </defs>
       <use xlink:href="#Pretendard-Regular-34"/>
       <use xlink:href="#Pretendard-Regular-30" transform="translate(62.402344 0)"/>
      </g>
     </g>
    </g>
    <g id="ytick_4">
     <g id="line2d_8">
      <g>
       <use xlink:href="#mf55fa94808" x="46.021563" y="198.36375" style="stroke: #000000; stroke-width: 0.8"/>
      </g>
     </g>
     <g id="text_9">
      <!-- 60 -->
      <g style="fill: #1f77b4" transform="translate(26.930937 201.898906) scale(0.1 -0.1)">
       <defs>
        <path id="Pretendard-Regular-36" d="M 2000 -63 
C 2950 -69 3575 613 3575 1463 
C 3575 2338 2906 2963 2100 2963 
C 1613 2963 1200 2738 938 2363 
L 881 2363 
C 881 3450 1325 4088 2069 4088 
C 2575 4088 2875 3788 2981 3388 
L 3538 3388 
C 3419 4100 2863 4588 2069 4588 
C 1006 4588 350 3688 350 2088 
C 350 413 1213 -50 2000 -63 
z
M 2000 431 
C 1394 431 956 919 956 1450 
C 963 1988 1419 2469 2013 2469 
C 2606 2469 3025 2013 3031 1456 
C 3025 894 2588 431 2000 431 
z
" transform="scale(0.015625)"/>
       </defs>
       <use xlink:href="#Pretendard-Regular-36"/>
       <use xlink:href="#Pretendard-Regular-30" transform="translate(61.328125 0)"/>
      </g>
     </g>
    </g>
    <g id="ytick_5">
     <g id="line2d_9">
      <g>
       <use xlink:href="#mf55fa94808" x="46.021563" y="159.190417" style="stroke: #000000; stroke-width: 0.8"/>
      </g>
     </g>
     <g id="text_10">
      <!-- 80 -->
      <g style="fill: #1f77b4" transform="translate(26.999688 162.725573) scale(0.1 -0.1)">
       <defs>
        <path id="Pretendard-Regular-38" d="M 1938 -63 
C 2881 -63 3544 463 3550 1200 
C 3544 1788 3138 2269 2625 2350 
L 2625 2375 
C 3069 2481 3369 2894 3375 3388 
C 3369 4081 2763 4588 1938 4588 
C 1113 4588 506 4081 506 3388 
C 506 2894 800 2481 1250 2375 
L 1250 2350 
C 731 2269 325 1788 331 1200 
C 325 463 988 -63 1938 -63 
z
M 1938 431 
C 1288 431 881 756 894 1231 
C 881 1731 1331 2100 1938 2100 
C 2544 2100 2988 1731 2988 1231 
C 2988 756 2588 431 1938 431 
z
M 1938 2575 
C 1419 2575 1050 2888 1050 3344 
C 1050 3794 1400 4100 1938 4100 
C 2469 4100 2825 3794 2825 3344 
C 2825 2888 2450 2575 1938 2575 
z
" transform="scale(0.015625)"/>
       </defs>
       <use xlink:href="#Pretendard-Regular-38"/>
       <use xlink:href="#Pretendard-Regular-30" transform="translate(60.644531 0)"/>
      </g>
     </g>
    </g>
    <g id="ytick_6">
     <g id="line2d_10">
      <g>
       <use xlink:href="#mf55fa94808" x="46.021563" y="120.017083" style="stroke: #000000; stroke-width: 0.8"/>
      </g>
     </g>
     <g id="text_11">
      <!-- 100 -->
      <g style="fill: #1f77b4" transform="translate(22.721563 123.55224) scale(0.1 -0.1)">
       <defs>
        <path id="Pretendard-Regular-31" d="M 2025 4525 
L 1456 4525 
L 331 3775 
L 331 3206 
L 1431 3938 
L 1456 3938 
L 1456 0 
L 2025 0 
L 2025 4525 
z
" transform="scale(0.015625)"/>
       </defs>
       <use xlink:href="#Pretendard-Regular-31"/>
       <use xlink:href="#Pretendard-Regular-30" transform="translate(43.847656 0)"/>
       <use xlink:href="#Pretendard-Regular-30" transform="translate(103.417969 0)"/>
      </g>
     </g>
    </g>
    <g id="ytick_7">
     <g id="line2d_11">
      <g>
       <use xlink:href="#mf55fa94808" x="46.021563" y="80.84375" style="stroke: #000000; stroke-width: 0.8"/>
      </g>
     </g>
     <g id="text_12">
      <!-- 120 -->
      <g style="fill: #1f77b4" transform="translate(22.810625 84.378906) scale(0.1 -0.1)">
       <use xlink:href="#Pretendard-Regular-31"/>
       <use xlink:href="#Pretendard-Regular-32" transform="translate(43.847656 0)"/>
       <use xlink:href="#Pretendard-Regular-30" transform="translate(102.539062 0)"/>
      </g>
     </g>
    </g>
    <g id="ytick_8">
     <g id="line2d_12">
      <g>
       <use xlink:href="#mf55fa94808" x="46.021563" y="41.670417" style="stroke: #000000; stroke-width: 0.8"/>
      </g>
     </g>
     <g id="text_13">
      <!-- 140 -->
      <g style="fill: #1f77b4" transform="translate(22.43875 45.205573) scale(0.1 -0.1)">
       <use xlink:href="#Pretendard-Regular-31"/>
       <use xlink:href="#Pretendard-Regular-34" transform="translate(43.847656 0)"/>
       <use xlink:href="#Pretendard-Regular-30" transform="translate(106.25 0)"/>
      </g>
     </g>
    </g>
    <g id="text_14">
     <!-- Bandwidth (MHz) -->
     <g style="fill: #1f77b4" transform="translate(16.048125 215.747187) rotate(-90) scale(0.12 -0.12)">
      <defs>
       <path id="Pretendard-Regular-42" d="M 500 0 
L 2144 0 
C 3213 0 3663 519 3663 1200 
C 3663 1919 3163 2306 2744 2331 
L 2744 2375 
C 3138 2481 3481 2744 3481 3325 
C 3481 3994 3038 4525 2088 4525 
L 500 4525 
L 500 0 
z
M 2138 500 
L 1063 500 
L 1063 2056 
L 2169 2056 
C 2750 2056 3119 1669 3119 1206 
C 3119 813 2844 500 2138 500 
z
M 2069 2544 
L 1063 2544 
L 1063 4025 
L 2088 4025 
C 2681 4025 2944 3713 2944 3319 
C 2944 2844 2556 2544 2069 2544 
z
" transform="scale(0.015625)"/>
       <path id="Pretendard-Regular-6e" d="M 969 2038 
C 969 2625 1331 2956 1825 2956 
C 2306 2956 2594 2644 2594 2119 
L 2594 0 
L 3131 0 
L 3131 2156 
C 3131 3019 2675 3438 1988 3438 
C 1469 3438 1156 3206 994 2863 
L 950 2863 
L 950 3394 
L 431 3394 
L 431 0 
L 969 0 
L 969 2038 
z
" transform="scale(0.015625)"/>
       <path id="Pretendard-Regular-64" d="M 1713 -69 
C 2363 -69 2581 331 2700 519 
L 2756 519 
L 2756 0 
L 3281 0 
L 3281 4525 
L 2738 4525 
L 2738 2856 
L 2700 2856 
C 2588 3038 2375 3438 1719 3438 
C 869 3438 269 2763 269 1688 
C 269 613 869 -69 1713 -69 
z
M 1788 413 
C 1144 413 813 975 813 1700 
C 813 2406 1138 2956 1788 2956 
C 2419 2956 2756 2450 2756 1700 
C 2756 938 2406 413 1788 413 
z
" transform="scale(0.015625)"/>
       <path id="Pretendard-Regular-77" d="M 1194 0 
L 1731 0 
L 2463 2588 
L 2513 2588 
L 3250 0 
L 3781 0 
L 4813 3394 
L 4250 3394 
L 3525 819 
L 3488 819 
L 2781 3394 
L 2206 3394 
L 1488 806 
L 1456 806 
L 731 3394 
L 163 3394 
L 1194 0 
z
" transform="scale(0.015625)"/>
       <path id="Pretendard-Regular-69" d="M 431 0 
L 969 0 
L 969 3394 
L 431 3394 
L 431 0 
z
M 700 3956 
C 906 3956 1081 4113 1081 4313 
C 1081 4513 906 4669 700 4669 
C 494 4669 325 4513 325 4313 
C 325 4113 494 3956 700 3956 
z
" transform="scale(0.015625)"/>
       <path id="Pretendard-Regular-68" d="M 969 2038 
C 969 2625 1344 2956 1850 2956 
C 2338 2956 2631 2650 2631 2119 
L 2631 0 
L 3169 0 
L 3169 2156 
C 3169 3025 2706 3438 2013 3438 
C 1475 3438 1169 3213 1013 2863 
L 969 2863 
L 969 4525 
L 431 4525 
L 431 0 
L 969 0 
L 969 2038 
z
" transform="scale(0.015625)"/>
       <path id="Pretendard-Regular-20" transform="scale(0.015625)"/>
       <path id="Pretendard-Regular-28" d="M 569 1725 
C 575 544 894 -438 1469 -1275 
L 1944 -1275 
C 1519 -656 1125 613 1125 1725 
C 1125 2838 1519 4100 1944 4719 
L 1469 4719 
C 894 3888 575 2906 569 1725 
z
" transform="scale(0.015625)"/>
       <path id="Pretendard-Regular-4d" d="M 500 4525 
L 500 0 
L 1031 0 
L 1031 3419 
L 1069 3419 
L 2475 0 
L 2975 0 
L 4381 3419 
L 4425 3419 
L 4425 0 
L 4956 0 
L 4956 4525 
L 4281 4525 
L 2756 800 
L 2700 800 
L 1175 4525 
L 500 4525 
z
" transform="scale(0.015625)"/>
       <path id="Pretendard-Regular-48" d="M 500 0 
L 1063 0 
L 1063 2019 
L 3456 2019 
L 3456 0 
L 4025 0 
L 4025 4525 
L 3456 4525 
L 3456 2513 
L 1063 2513 
L 1063 4525 
L 500 4525 
L 500 0 
z
" transform="scale(0.015625)"/>
       <path id="Pretendard-Regular-7a" d="M 331 0 
L 3000 0 
L 3000 494 
L 1081 494 
L 1081 531 
L 2938 2969 
L 2938 3394 
L 394 3394 
L 394 2900 
L 2244 2900 
L 2244 2863 
L 331 406 
L 331 0 
z
" transform="scale(0.015625)"/>
       <path id="Pretendard-Regular-29" d="M 1613 1725 
C 1606 2906 1288 3888 713 4719 
L 238 4719 
C 663 4100 1056 2838 1056 1725 
C 1056 613 663 -656 238 -1275 
L 713 -1275 
C 1288 -438 1606 544 1613 1725 
z
" transform="scale(0.015625)"/>
      </defs>
      <use xlink:href="#Pretendard-Regular-42"/>
      <use xlink:href="#Pretendard-Regular-61" transform="translate(61.914062 0)"/>
      <use xlink:href="#Pretendard-Regular-6e" transform="translate(115.429688 0)"/>
      <use xlink:href="#Pretendard-Regular-64" transform="translate(171.09375 0)"/>
      <use xlink:href="#Pretendard-Regular-77" transform="translate(230.175781 0)"/>
      <use xlink:href="#Pretendard-Regular-69" transform="translate(307.910156 0)"/>
      <use xlink:href="#Pretendard-Regular-64" transform="translate(329.6875 0)"/>
      <use xlink:href="#Pretendard-Regular-74" transform="translate(388.769531 0)"/>
      <use xlink:href="#Pretendard-Regular-68" transform="translate(422.753906 0)"/>
      <use xlink:href="#Pretendard-Regular-20" transform="translate(479.003906 0)"/>
      <use xlink:href="#Pretendard-Regular-28" transform="translate(504.101562 0)"/>
      <use xlink:href="#Pretendard-Regular-4d" transform="translate(538.183594 0)"/>
      <use xlink:href="#Pretendard-Regular-48" transform="translate(623.4375 0)"/>
      <use xlink:href="#Pretendard-Regular-7a" transform="translate(694.042969 0)"/>
      <use xlink:href="#Pretendard-Regular-29" transform="translate(745.3125 0)"/>
     </g>
    </g>
   </g>
   <g id="patch_7">
    <path d="M 46.021563 315.88375 
L 46.021563 22.08375 
" style="fill: none; stroke: #000000; stroke-width: 0.8; stroke-linejoin: miter; stroke-linecap: square"/>
   </g>
   <g id="patch_8">
    <path d="M 524.541563 315.88375 
L 524.541563 22.08375 
" style="fill: none; stroke: #000000; stroke-width: 0.8; stroke-linejoin: miter; stroke-linecap: square"/>
   </g>
   <g id="patch_9">
    <path d="M 46.021563 315.88375 
L 524.541563 315.88375 
" style="fill: none; stroke: #000000; stroke-width: 0.8; stroke-linejoin: miter; stroke-linecap: square"/>
   </g>
   <g id="patch_10">
    <path d="M 46.021563 22.08375 
L 524.541563 22.08375 
" style="fill: none; stroke: #000000; stroke-width: 0.8; stroke-linejoin: miter; stroke-linecap: square"/>
   </g>
  </g>
  <g id="axes_2">
   <g id="matplotlib.axis_3">
    <g id="ytick_9">
     <g id="line2d_13">
      <defs>
       <path id="m51d7041c37" d="M 0 0 
L 3.5 0 
" style="stroke: #000000; stroke-width: 0.8"/>
      </defs>
      <g>
       <use xlink:href="#m51d7041c37" x="524.541563" y="315.88375" style="stroke: #000000; stroke-width: 0.8"/>
      </g>
     </g>
     <g id="text_15">
      <!-- 0.0 -->
      <g style="fill: #d62728" transform="translate(531.541563 319.418906) scale(0.1 -0.1)">
       <defs>
        <path id="Pretendard-Regular-2e" d="M 813 -38 
C 1031 -38 1213 144 1213 369 
C 1213 588 1031 769 813 769 
C 594 769 406 588 413 369 
C 406 144 594 -38 813 -38 
z
" transform="scale(0.015625)"/>
       </defs>
       <use xlink:href="#Pretendard-Regular-30"/>
       <use xlink:href="#Pretendard-Regular-2e" transform="translate(59.570312 0)"/>
       <use xlink:href="#Pretendard-Regular-30" transform="translate(84.960938 0)"/>
      </g>
     </g>
    </g>
    <g id="ytick_10">
     <g id="line2d_14">
      <g>
       <use xlink:href="#m51d7041c37" x="524.541563" y="266.854901" style="stroke: #000000; stroke-width: 0.8"/>
      </g>
     </g>
     <g id="text_16">
      <!-- 0.2 -->
      <g style="fill: #d62728" transform="translate(531.541563 270.390057) scale(0.1 -0.1)">
       <use xlink:href="#Pretendard-Regular-30"/>
       <use xlink:href="#Pretendard-Regular-2e" transform="translate(59.570312 0)"/>
       <use xlink:href="#Pretendard-Regular-32" transform="translate(84.960938 0)"/>
      </g>
     </g>
    </g>
    <g id="ytick_11">
     <g id="line2d_15">
      <g>
       <use xlink:href="#m51d7041c37" x="524.541563" y="217.826052" style="stroke: #000000; stroke-width: 0.8"/>
      </g>
     </g>
     <g id="text_17">
      <!-- 0.4 -->
      <g style="fill: #d62728" transform="translate(531.541563 221.361209) scale(0.1 -0.1)">
       <use xlink:href="#Pretendard-Regular-30"/>
       <use xlink:href="#Pretendard-Regular-2e" transform="translate(59.570312 0)"/>
       <use xlink:href="#Pretendard-Regular-34" transform="translate(84.960938 0)"/>
      </g>
     </g>
    </g>
    <g id="ytick_12">
     <g id="line2d_16">
      <g>
       <use xlink:href="#m51d7041c37" x="524.541563" y="168.797203" style="stroke: #000000; stroke-width: 0.8"/>
      </g>
     </g>
     <g id="text_18">
      <!-- 0.6 -->
      <g style="fill: #d62728" transform="translate(531.541563 172.33236) scale(0.1 -0.1)">
       <use xlink:href="#Pretendard-Regular-30"/>
       <use xlink:href="#Pretendard-Regular-2e" transform="translate(59.570312 0)"/>
       <use xlink:href="#Pretendard-Regular-36" transform="translate(84.960938 0)"/>
      </g>
     </g>
    </g>
    <g id="ytick_13">
     <g id="line2d_17">
      <g>
       <use xlink:href="#m51d7041c37" x="524.541563" y="119.768355" style="stroke: #000000; stroke-width: 0.8"/>
      </g>
     </g>
     <g id="text_19">
      <!-- 0.8 -->
      <g style="fill: #d62728" transform="translate(531.541563 123.303511) scale(0.1 -0.1)">
       <use xlink:href="#Pretendard-Regular-30"/>
       <use xlink:href="#Pretendard-Regular-2e" transform="translate(59.570312 0)"/>
       <use xlink:href="#Pretendard-Regular-38" transform="translate(84.960938 0)"/>
      </g>
     </g>
    </g>
    <g id="ytick_14">
     <g id="line2d_18">
      <g>
       <use xlink:href="#m51d7041c37" x="524.541563" y="70.739506" style="stroke: #000000; stroke-width: 0.8"/>
      </g>
     </g>
     <g id="text_20">
      <!-- 1.0 -->
      <g style="fill: #d62728" transform="translate(531.541563 74.274662) scale(0.1 -0.1)">
       <use xlink:href="#Pretendard-Regular-31"/>
       <use xlink:href="#Pretendard-Regular-2e" transform="translate(43.847656 0)"/>
       <use xlink:href="#Pretendard-Regular-30" transform="translate(69.238281 0)"/>
      </g>
     </g>
    </g>
    <g id="text_21">
     <!-- Theoretical Capacity (Gbps) -->
     <g style="fill: #d62728" transform="translate(559.127187 244.309062) rotate(-90) scale(0.12 -0.12)">
      <defs>
       <path id="Pretendard-Regular-63" d="M 1819 -69 
C 2575 -69 3069 394 3156 1000 
L 2619 1000 
C 2525 625 2219 413 1819 413 
C 1200 413 806 913 806 1700 
C 806 2463 1213 2963 1819 2963 
C 2269 2963 2544 2681 2619 2369 
L 3156 2369 
C 3069 3013 2531 3438 1806 3438 
C 881 3438 269 2713 269 1681 
C 269 663 856 -69 1819 -69 
z
" transform="scale(0.015625)"/>
       <path id="Pretendard-Regular-6c" d="M 969 4525 
L 431 4525 
L 431 0 
L 969 0 
L 969 4525 
z
" transform="scale(0.015625)"/>
       <path id="Pretendard-Regular-43" d="M 3588 3100 
L 4150 3100 
C 3981 4038 3238 4588 2325 4588 
C 1163 4588 325 3694 325 2263 
C 325 831 1163 -63 2325 -63 
C 3244 -63 3988 494 4150 1419 
L 3588 1419 
C 3450 800 2919 463 2325 463 
C 1506 463 869 1094 869 2263 
C 869 3431 1506 4063 2325 4063 
C 2919 4063 3456 3725 3588 3100 
z
" transform="scale(0.015625)"/>
       <path id="Pretendard-Regular-79" d="M 775 -1275 
C 1256 -1275 1588 -1019 1788 -488 
L 3225 3394 
L 2638 3394 
L 1713 700 
L 1675 700 
L 750 3394 
L 163 3394 
L 1419 -25 
L 1319 -281 
C 1138 -775 956 -794 738 -794 
C 656 -794 531 -788 475 -781 
L 475 -1263 
C 544 -1269 656 -1275 775 -1275 
z
" transform="scale(0.015625)"/>
       <path id="Pretendard-Regular-62" d="M 500 0 
L 1019 0 
L 1019 519 
L 1081 519 
C 1200 331 1419 -69 2069 -69 
C 2913 -69 3513 613 3513 1688 
C 3513 2763 2913 3438 2063 3438 
C 1400 3438 1200 3038 1081 2856 
L 1038 2856 
L 1038 4525 
L 500 4525 
L 500 0 
z
M 1025 1700 
C 1025 2450 1363 2956 1988 2956 
C 2644 2956 2969 2406 2969 1700 
C 2969 975 2631 413 1988 413 
C 1369 413 1025 938 1025 1700 
z
" transform="scale(0.015625)"/>
      </defs>
      <use xlink:href="#Pretendard-Regular-54"/>
      <use xlink:href="#Pretendard-Regular-68" transform="translate(61.132812 0)"/>
      <use xlink:href="#Pretendard-Regular-65" transform="translate(117.382812 0)"/>
      <use xlink:href="#Pretendard-Regular-6f" transform="translate(172.65625 0)"/>
      <use xlink:href="#Pretendard-Regular-72" transform="translate(229.394531 0)"/>
      <use xlink:href="#Pretendard-Regular-65" transform="translate(264.355469 0)"/>
      <use xlink:href="#Pretendard-Regular-74" transform="translate(319.628906 0)"/>
      <use xlink:href="#Pretendard-Regular-69" transform="translate(353.613281 0)"/>
      <use xlink:href="#Pretendard-Regular-63" transform="translate(375.390625 0)"/>
      <use xlink:href="#Pretendard-Regular-61" transform="translate(428.320312 0)"/>
      <use xlink:href="#Pretendard-Regular-6c" transform="translate(481.835938 0)"/>
      <use xlink:href="#Pretendard-Regular-20" transform="translate(503.613281 0)"/>
      <use xlink:href="#Pretendard-Regular-43" transform="translate(528.710938 0)"/>
      <use xlink:href="#Pretendard-Regular-61" transform="translate(598.046875 0)"/>
      <use xlink:href="#Pretendard-Regular-70" transform="translate(651.5625 0)"/>
      <use xlink:href="#Pretendard-Regular-61" transform="translate(709.472656 0)"/>
      <use xlink:href="#Pretendard-Regular-63" transform="translate(762.988281 0)"/>
      <use xlink:href="#Pretendard-Regular-69" transform="translate(815.917969 0)"/>
      <use xlink:href="#Pretendard-Regular-74" transform="translate(837.695312 0)"/>
      <use xlink:href="#Pretendard-Regular-79" transform="translate(871.679688 0)"/>
      <use xlink:href="#Pretendard-Regular-20" transform="translate(924.609375 0)"/>
      <use xlink:href="#Pretendard-Regular-28" transform="translate(949.707031 0)"/>
      <use xlink:href="#Pretendard-Regular-47" transform="translate(983.789062 0)"/>
      <use xlink:href="#Pretendard-Regular-62" transform="translate(1054.6875 0)"/>
      <use xlink:href="#Pretendard-Regular-70" transform="translate(1113.769531 0)"/>
      <use xlink:href="#Pretendard-Regular-73" transform="translate(1171.679688 0)"/>
      <use xlink:href="#Pretendard-Regular-29" transform="translate(1221.289062 0)"/>
     </g>
    </g>
   </g>
   <g id="line2d_19">
    <path d="M 98.845199 152.661528 
L 223.136108 152.661528 
L 347.427017 152.661528 
L 471.717926 120.017083 
" clip-path="url(#p86a17930cd)" style="fill: none; stroke: #d62728; stroke-width: 3; stroke-linecap: square"/>
    <defs>
     <path id="m8ae7d7d4e6" d="M 0 5 
C 1.326016 5 2.597899 4.473168 3.535534 3.535534 
C 4.473168 2.597899 5 1.326016 5 0 
C 5 -1.326016 4.473168 -2.597899 3.535534 -3.535534 
C 2.597899 -4.473168 1.326016 -5 0 -5 
C -1.326016 -5 -2.597899 -4.473168 -3.535534 -3.535534 
C -4.473168 -2.597899 -5 -1.326016 -5 0 
C -5 1.326016 -4.473168 2.597899 -3.535534 3.535534 
C -2.597899 4.473168 -1.326016 5 0 5 
z
" style="stroke: #d62728"/>
    </defs>
    <g clip-path="url(#p86a17930cd)">
     <use xlink:href="#m8ae7d7d4e6" x="98.845199" y="152.661528" style="fill: #d62728; stroke: #d62728"/>
     <use xlink:href="#m8ae7d7d4e6" x="223.136108" y="152.661528" style="fill: #d62728; stroke: #d62728"/>
     <use xlink:href="#m8ae7d7d4e6" x="347.427017" y="152.661528" style="fill: #d62728; stroke: #d62728"/>
     <use xlink:href="#m8ae7d7d4e6" x="471.717926" y="120.017083" style="fill: #d62728; stroke: #d62728"/>
    </g>
   </g>
   <g id="patch_11">
    <path d="M 46.021563 315.88375 
L 46.021563 22.08375 
" style="fill: none; stroke: #000000; stroke-width: 0.8; stroke-linejoin: miter; stroke-linecap: square"/>
   </g>
   <g id="patch_12">
    <path d="M 524.541563 315.88375 
L 524.541563 22.08375 
" style="fill: none; stroke: #000000; stroke-width: 0.8; stroke-linejoin: miter; stroke-linecap: square"/>
   </g>
   <g id="patch_13">
    <path d="M 46.021563 315.88375 
L 524.541563 315.88375 
" style="fill: none; stroke: #000000; stroke-width: 0.8; stroke-linejoin: miter; stroke-linecap: square"/>
   </g>
   <g id="patch_14">
    <path d="M 46.021563 22.08375 
L 524.541563 22.08375 
" style="fill: none; stroke: #000000; stroke-width: 0.8; stroke-linejoin: miter; stroke-linecap: square"/>
   </g>
   <g id="text_22">
    <!-- Impact of Bandwidth (B) on Capacity (C) -->
    <g transform="translate(177.156875 16.08375) scale(0.12 -0.12)">
     <defs>
      <path id="Pretendard-Regular-49" d="M 1063 4525 
L 500 4525 
L 500 0 
L 1063 0 
L 1063 4525 
z
" transform="scale(0.015625)"/>
      <path id="Pretendard-Regular-6d" d="M 431 0 
L 969 0 
L 969 2119 
C 969 2613 1325 2956 1731 2956 
C 2119 2956 2394 2700 2394 2319 
L 2394 0 
L 2938 0 
L 2938 2206 
C 2938 2638 3206 2956 3681 2956 
C 4050 2956 4369 2763 4369 2263 
L 4369 0 
L 4906 0 
L 4906 2269 
C 4906 3069 4475 3438 3869 3438 
C 3381 3438 3025 3213 2850 2863 
L 2813 2863 
C 2650 3225 2350 3438 1906 3438 
C 1463 3438 1138 3225 994 2863 
L 950 2863 
L 950 3394 
L 431 3394 
L 431 0 
z
" transform="scale(0.015625)"/>
      <path id="Pretendard-Regular-66" d="M 1950 3394 
L 1200 3394 
L 1200 3738 
C 1200 4088 1369 4244 1744 4244 
C 1813 4244 1913 4238 2025 4219 
L 2025 4700 
C 1913 4719 1756 4738 1625 4738 
C 1025 4738 656 4406 656 3856 
L 656 3394 
L 113 3394 
L 113 2944 
L 656 2944 
L 656 0 
L 1200 0 
L 1200 2944 
L 1950 2944 
L 1950 3394 
z
" transform="scale(0.015625)"/>
     </defs>
     <use xlink:href="#Pretendard-Regular-49"/>
     <use xlink:href="#Pretendard-Regular-6d" transform="translate(24.414062 0)"/>
     <use xlink:href="#Pretendard-Regular-70" transform="translate(107.8125 0)"/>
     <use xlink:href="#Pretendard-Regular-61" transform="translate(165.722656 0)"/>
     <use xlink:href="#Pretendard-Regular-63" transform="translate(219.238281 0)"/>
     <use xlink:href="#Pretendard-Regular-74" transform="translate(272.167969 0)"/>
     <use xlink:href="#Pretendard-Regular-20" transform="translate(306.152344 0)"/>
     <use xlink:href="#Pretendard-Regular-6f" transform="translate(331.25 0)"/>
     <use xlink:href="#Pretendard-Regular-66" transform="translate(387.988281 0)"/>
     <use xlink:href="#Pretendard-Regular-20" transform="translate(421.679688 0)"/>
     <use xlink:href="#Pretendard-Regular-42" transform="translate(446.777344 0)"/>
     <use xlink:href="#Pretendard-Regular-61" transform="translate(508.691406 0)"/>
     <use xlink:href="#Pretendard-Regular-6e" transform="translate(562.207031 0)"/>
     <use xlink:href="#Pretendard-Regular-64" transform="translate(617.871094 0)"/>
     <use xlink:href="#Pretendard-Regular-77" transform="translate(676.953125 0)"/>
     <use xlink:href="#Pretendard-Regular-69" transform="translate(754.6875 0)"/>
     <use xlink:href="#Pretendard-Regular-64" transform="translate(776.464844 0)"/>
     <use xlink:href="#Pretendard-Regular-74" transform="translate(835.546875 0)"/>
     <use xlink:href="#Pretendard-Regular-68" transform="translate(869.53125 0)"/>
     <use xlink:href="#Pretendard-Regular-20" transform="translate(925.78125 0)"/>
     <use xlink:href="#Pretendard-Regular-28" transform="translate(950.878906 0)"/>
     <use xlink:href="#Pretendard-Regular-42" transform="translate(984.960938 0)"/>
     <use xlink:href="#Pretendard-Regular-29" transform="translate(1046.875 0)"/>
     <use xlink:href="#Pretendard-Regular-20" transform="translate(1080.957031 0)"/>
     <use xlink:href="#Pretendard-Regular-6f" transform="translate(1106.054688 0)"/>
     <use xlink:href="#Pretendard-Regular-6e" transform="translate(1162.792969 0)"/>
     <use xlink:href="#Pretendard-Regular-20" transform="translate(1218.457031 0)"/>
     <use xlink:href="#Pretendard-Regular-43" transform="translate(1243.554688 0)"/>
     <use xlink:href="#Pretendard-Regular-61" transform="translate(1312.890625 0)"/>
     <use xlink:href="#Pretendard-Regular-70" transform="translate(1366.40625 0)"/>
     <use xlink:href="#Pretendard-Regular-61" transform="translate(1424.316406 0)"/>
     <use xlink:href="#Pretendard-Regular-63" transform="translate(1477.832031 0)"/>
     <use xlink:href="#Pretendard-Regular-69" transform="translate(1530.761719 0)"/>
     <use xlink:href="#Pretendard-Regular-74" transform="translate(1552.539062 0)"/>
     <use xlink:href="#Pretendard-Regular-79" transform="translate(1586.523438 0)"/>
     <use xlink:href="#Pretendard-Regular-20" transform="translate(1639.453125 0)"/>
     <use xlink:href="#Pretendard-Regular-28" transform="translate(1664.550781 0)"/>
     <use xlink:href="#Pretendard-Regular-43" transform="translate(1698.632812 0)"/>
     <use xlink:href="#Pretendard-Regular-29" transform="translate(1767.96875 0)"/>
    </g>
   </g>
  </g>
 </g>
 <defs>
  <clipPath id="p86a17930cd">
   <rect x="46.021563" y="22.08375" width="478.52" height="293.8"/>
  </clipPath>
 </defs>
</svg>
