<?xml version="1.0" encoding="utf-8" standalone="no"?>
<!DOCTYPE svg PUBLIC "-//W3C//DTD SVG 1.1//EN"
  "http://www.w3.org/Graphics/SVG/1.1/DTD/svg11.dtd">
<svg xmlns:xlink="http://www.w3.org/1999/xlink" width="499.878125pt" height="225.148125pt" viewBox="0 0 499.878125 225.148125" xmlns="http://www.w3.org/2000/svg" version="1.1">
 <metadata>
  <rdf:RDF xmlns:dc="http://purl.org/dc/elements/1.1/" xmlns:cc="http://creativecommons.org/ns#" xmlns:rdf="http://www.w3.org/1999/02/22-rdf-syntax-ns#">
   <cc:Work>
    <dc:type rdf:resource="http://purl.org/dc/dcmitype/StillImage"/>
    <dc:date>2026-01-15T19:12:54.460178</dc:date>
    <dc:format>image/svg+xml</dc:format>
    <dc:creator>
     <cc:Agent>
      <dc:title>Matplotlib v3.10.8, https://matplotlib.org/</dc:title>
     </cc:Agent>
    </dc:creator>
   </cc:Work>
  </rdf:RDF>
 </metadata>
 <defs>
  <style type="text/css">*{stroke-linejoin: round; stroke-linecap: butt}</style>
 </defs>
 <g id="figure_1">
  <g id="patch_1">
   <path d="M 0 225.148125 
L 499.878125 225.148125 
L 499.878125 -0 
L 0 -0 
z
" style="fill: #ffffff"/>
  </g>
  <g id="axes_1">
   <g id="patch_2">
    <path d="M 46.278125 188.52 
L 492.678125 188.52 
L 492.678125 22.2 
L 46.278125 22.2 
z
" style="fill: #ffffff"/>
   </g>
   <g id="matplotlib.axis_1">
    <g id="xtick_1">
     <g id="line2d_1">
      <path d="M 66.569034 188.52 
L 66.569034 22.2 
" clip-path="url(#p264763b747)" style="fill: none; stroke-dasharray: 0.8,1.32; stroke-dashoffset: 0; stroke: #b0b0b0; stroke-opacity: 0.6; stroke-width: 0.8"/>
     </g>
     <g id="line2d_2">
      <defs>
       <path id="ma9b360fa04" d="M 0 0 
L 0 3.5 
" style="stroke: #000000; stroke-width: 0.8"/>
      </defs>
      <g>
       <use xlink:href="#ma9b360fa04" x="66.569034" y="188.52" style="stroke: #000000; stroke-width: 0.8"/>
      </g>
     </g>
     <g id="text_1">
      <!-- 0.0000 -->
      <g transform="translate(50.404972 202.590312) scale(0.1 -0.1)">
       <defs>
        <path id="Pretendard-Regular-30" d="M 1906 -63 
C 2906 -63 3488 781 3488 2263 
C 3488 3731 2900 4588 1906 4588 
C 913 4588 325 3731 325 2263 
C 325 781 900 -63 1906 -63 
z
M 1906 438 
C 1250 438 869 1094 869 2263 
C 869 3431 1256 4100 1906 4100 
C 2556 4100 2938 3431 2938 2263 
C 2938 1094 2556 438 1906 438 
z
" transform="scale(0.015625)"/>
        <path id="Pretendard-Regular-2e" d="M 813 -38 
C 1031 -38 1213 144 1213 369 
C 1213 588 1031 769 813 769 
C 594 769 406 588 413 369 
C 406 144 594 -38 813 -38 
z
" transform="scale(0.015625)"/>
       </defs>
       <use xlink:href="#Pretendard-Regular-30"/>
       <use xlink:href="#Pretendard-Regular-2e" transform="translate(59.570312 0)"/>
       <use xlink:href="#Pretendard-Regular-30" transform="translate(84.960938 0)"/>
       <use xlink:href="#Pretendard-Regular-30" transform="translate(144.53125 0)"/>
       <use xlink:href="#Pretendard-Regular-30" transform="translate(204.101562 0)"/>
       <use xlink:href="#Pretendard-Regular-30" transform="translate(263.671875 0)"/>
      </g>
     </g>
    </g>
    <g id="xtick_2">
     <g id="line2d_3">
      <path d="M 117.296307 188.52 
L 117.296307 22.2 
" clip-path="url(#p264763b747)" style="fill: none; stroke-dasharray: 0.8,1.32; stroke-dashoffset: 0; stroke: #b0b0b0; stroke-opacity: 0.6; stroke-width: 0.8"/>
     </g>
     <g id="line2d_4">
      <g>
       <use xlink:href="#ma9b360fa04" x="117.296307" y="188.52" style="stroke: #000000; stroke-width: 0.8"/>
      </g>
     </g>
     <g id="text_2">
      <!-- 0.0025 -->
      <g transform="translate(101.172088 202.590312) scale(0.1 -0.1)">
       <defs>
        <path id="Pretendard-Regular-32" d="M 425 0 
L 3363 0 
L 3363 500 
L 1206 500 
L 1206 538 
L 2244 1606 
C 3044 2431 3281 2825 3281 3331 
C 3281 4038 2694 4588 1875 4588 
C 1056 4588 438 4050 444 3250 
L 975 3250 
C 975 3756 1319 4100 1856 4100 
C 2363 4100 2756 3794 2756 3331 
C 2756 2913 2500 2606 1963 2038 
L 419 413 
L 425 0 
z
" transform="scale(0.015625)"/>
        <path id="Pretendard-Regular-35" d="M 1900 -63 
C 2800 -63 3463 569 3463 1444 
C 3463 2325 2825 2963 1963 2963 
C 1644 2963 1338 2856 1138 2700 
L 1094 2700 
L 1263 4025 
L 3244 4025 
L 3244 4525 
L 794 4525 
L 475 2050 
L 1019 2050 
C 1188 2344 1481 2463 1863 2456 
C 2469 2450 2913 2019 2913 1431 
C 2913 863 2488 431 1900 431 
C 1413 431 1019 731 975 1138 
L 431 1138 
C 463 444 1081 -63 1900 -63 
z
" transform="scale(0.015625)"/>
       </defs>
       <use xlink:href="#Pretendard-Regular-30"/>
       <use xlink:href="#Pretendard-Regular-2e" transform="translate(59.570312 0)"/>
       <use xlink:href="#Pretendard-Regular-30" transform="translate(84.960938 0)"/>
       <use xlink:href="#Pretendard-Regular-30" transform="translate(144.53125 0)"/>
       <use xlink:href="#Pretendard-Regular-32" transform="translate(204.101562 0)"/>
       <use xlink:href="#Pretendard-Regular-35" transform="translate(262.792969 0)"/>
      </g>
     </g>
    </g>
    <g id="xtick_3">
     <g id="line2d_5">
      <path d="M 168.02358 188.52 
L 168.02358 22.2 
" clip-path="url(#p264763b747)" style="fill: none; stroke-dasharray: 0.8,1.32; stroke-dashoffset: 0; stroke: #b0b0b0; stroke-opacity: 0.6; stroke-width: 0.8"/>
     </g>
     <g id="line2d_6">
      <g>
       <use xlink:href="#ma9b360fa04" x="168.02358" y="188.52" style="stroke: #000000; stroke-width: 0.8"/>
      </g>
     </g>
     <g id="text_3">
      <!-- 0.0050 -->
      <g transform="translate(151.85483 202.590312) scale(0.1 -0.1)">
       <use xlink:href="#Pretendard-Regular-30"/>
       <use xlink:href="#Pretendard-Regular-2e" transform="translate(59.570312 0)"/>
       <use xlink:href="#Pretendard-Regular-30" transform="translate(84.960938 0)"/>
       <use xlink:href="#Pretendard-Regular-30" transform="translate(144.53125 0)"/>
       <use xlink:href="#Pretendard-Regular-35" transform="translate(204.101562 0)"/>
       <use xlink:href="#Pretendard-Regular-30" transform="translate(263.769531 0)"/>
      </g>
     </g>
    </g>
    <g id="xtick_4">
     <g id="line2d_7">
      <path d="M 218.750852 188.52 
L 218.750852 22.2 
" clip-path="url(#p264763b747)" style="fill: none; stroke-dasharray: 0.8,1.32; stroke-dashoffset: 0; stroke: #b0b0b0; stroke-opacity: 0.6; stroke-width: 0.8"/>
     </g>
     <g id="line2d_8">
      <g>
       <use xlink:href="#ma9b360fa04" x="218.750852" y="188.52" style="stroke: #000000; stroke-width: 0.8"/>
      </g>
     </g>
     <g id="text_4">
      <!-- 0.0075 -->
      <g transform="translate(202.802415 202.590312) scale(0.1 -0.1)">
       <defs>
        <path id="Pretendard-Regular-37" d="M 569 0 
L 1156 0 
L 3225 4000 
L 3225 4525 
L 250 4525 
L 250 4025 
L 2644 4025 
L 2644 3994 
L 569 0 
z
" transform="scale(0.015625)"/>
       </defs>
       <use xlink:href="#Pretendard-Regular-30"/>
       <use xlink:href="#Pretendard-Regular-2e" transform="translate(59.570312 0)"/>
       <use xlink:href="#Pretendard-Regular-30" transform="translate(84.960938 0)"/>
       <use xlink:href="#Pretendard-Regular-30" transform="translate(144.53125 0)"/>
       <use xlink:href="#Pretendard-Regular-37" transform="translate(204.101562 0)"/>
       <use xlink:href="#Pretendard-Regular-35" transform="translate(259.277344 0)"/>
      </g>
     </g>
    </g>
    <g id="xtick_5">
     <g id="line2d_9">
      <path d="M 269.478125 188.52 
L 269.478125 22.2 
" clip-path="url(#p264763b747)" style="fill: none; stroke-dasharray: 0.8,1.32; stroke-dashoffset: 0; stroke: #b0b0b0; stroke-opacity: 0.6; stroke-width: 0.8"/>
     </g>
     <g id="line2d_10">
      <g>
       <use xlink:href="#ma9b360fa04" x="269.478125" y="188.52" style="stroke: #000000; stroke-width: 0.8"/>
      </g>
     </g>
     <g id="text_5">
      <!-- 0.0100 -->
      <g transform="translate(254.100781 202.590312) scale(0.1 -0.1)">
       <defs>
        <path id="Pretendard-Regular-31" d="M 2025 4525 
L 1456 4525 
L 331 3775 
L 331 3206 
L 1431 3938 
L 1456 3938 
L 1456 0 
L 2025 0 
L 2025 4525 
z
" transform="scale(0.015625)"/>
       </defs>
       <use xlink:href="#Pretendard-Regular-30"/>
       <use xlink:href="#Pretendard-Regular-2e" transform="translate(59.570312 0)"/>
       <use xlink:href="#Pretendard-Regular-30" transform="translate(84.960938 0)"/>
       <use xlink:href="#Pretendard-Regular-31" transform="translate(144.53125 0)"/>
       <use xlink:href="#Pretendard-Regular-30" transform="translate(188.378906 0)"/>
       <use xlink:href="#Pretendard-Regular-30" transform="translate(247.949219 0)"/>
      </g>
     </g>
    </g>
    <g id="xtick_6">
     <g id="line2d_11">
      <path d="M 320.205398 188.52 
L 320.205398 22.2 
" clip-path="url(#p264763b747)" style="fill: none; stroke-dasharray: 0.8,1.32; stroke-dashoffset: 0; stroke: #b0b0b0; stroke-opacity: 0.6; stroke-width: 0.8"/>
     </g>
     <g id="line2d_12">
      <g>
       <use xlink:href="#ma9b360fa04" x="320.205398" y="188.52" style="stroke: #000000; stroke-width: 0.8"/>
      </g>
     </g>
     <g id="text_6">
      <!-- 0.0125 -->
      <g transform="translate(304.867898 202.590312) scale(0.1 -0.1)">
       <use xlink:href="#Pretendard-Regular-30"/>
       <use xlink:href="#Pretendard-Regular-2e" transform="translate(59.570312 0)"/>
       <use xlink:href="#Pretendard-Regular-30" transform="translate(84.960938 0)"/>
       <use xlink:href="#Pretendard-Regular-31" transform="translate(144.53125 0)"/>
       <use xlink:href="#Pretendard-Regular-32" transform="translate(188.378906 0)"/>
       <use xlink:href="#Pretendard-Regular-35" transform="translate(247.070312 0)"/>
      </g>
     </g>
    </g>
    <g id="xtick_7">
     <g id="line2d_13">
      <path d="M 370.93267 188.52 
L 370.93267 22.2 
" clip-path="url(#p264763b747)" style="fill: none; stroke-dasharray: 0.8,1.32; stroke-dashoffset: 0; stroke: #b0b0b0; stroke-opacity: 0.6; stroke-width: 0.8"/>
     </g>
     <g id="line2d_14">
      <g>
       <use xlink:href="#ma9b360fa04" x="370.93267" y="188.52" style="stroke: #000000; stroke-width: 0.8"/>
      </g>
     </g>
     <g id="text_7">
      <!-- 0.0150 -->
      <g transform="translate(355.550639 202.590312) scale(0.1 -0.1)">
       <use xlink:href="#Pretendard-Regular-30"/>
       <use xlink:href="#Pretendard-Regular-2e" transform="translate(59.570312 0)"/>
       <use xlink:href="#Pretendard-Regular-30" transform="translate(84.960938 0)"/>
       <use xlink:href="#Pretendard-Regular-31" transform="translate(144.53125 0)"/>
       <use xlink:href="#Pretendard-Regular-35" transform="translate(188.378906 0)"/>
       <use xlink:href="#Pretendard-Regular-30" transform="translate(248.046875 0)"/>
      </g>
     </g>
    </g>
    <g id="xtick_8">
     <g id="line2d_15">
      <path d="M 421.659943 188.52 
L 421.659943 22.2 
" clip-path="url(#p264763b747)" style="fill: none; stroke-dasharray: 0.8,1.32; stroke-dashoffset: 0; stroke: #b0b0b0; stroke-opacity: 0.6; stroke-width: 0.8"/>
     </g>
     <g id="line2d_16">
      <g>
       <use xlink:href="#ma9b360fa04" x="421.659943" y="188.52" style="stroke: #000000; stroke-width: 0.8"/>
      </g>
     </g>
     <g id="text_8">
      <!-- 0.0175 -->
      <g transform="translate(406.498224 202.590312) scale(0.1 -0.1)">
       <use xlink:href="#Pretendard-Regular-30"/>
       <use xlink:href="#Pretendard-Regular-2e" transform="translate(59.570312 0)"/>
       <use xlink:href="#Pretendard-Regular-30" transform="translate(84.960938 0)"/>
       <use xlink:href="#Pretendard-Regular-31" transform="translate(144.53125 0)"/>
       <use xlink:href="#Pretendard-Regular-37" transform="translate(188.378906 0)"/>
       <use xlink:href="#Pretendard-Regular-35" transform="translate(243.554688 0)"/>
      </g>
     </g>
    </g>
    <g id="xtick_9">
     <g id="line2d_17">
      <path d="M 472.387216 188.52 
L 472.387216 22.2 
" clip-path="url(#p264763b747)" style="fill: none; stroke-dasharray: 0.8,1.32; stroke-dashoffset: 0; stroke: #b0b0b0; stroke-opacity: 0.6; stroke-width: 0.8"/>
     </g>
     <g id="line2d_18">
      <g>
       <use xlink:href="#ma9b360fa04" x="472.387216" y="188.52" style="stroke: #000000; stroke-width: 0.8"/>
      </g>
     </g>
     <g id="text_9">
      <!-- 0.0200 -->
      <g transform="translate(456.267685 202.590312) scale(0.1 -0.1)">
       <use xlink:href="#Pretendard-Regular-30"/>
       <use xlink:href="#Pretendard-Regular-2e" transform="translate(59.570312 0)"/>
       <use xlink:href="#Pretendard-Regular-30" transform="translate(84.960938 0)"/>
       <use xlink:href="#Pretendard-Regular-32" transform="translate(144.53125 0)"/>
       <use xlink:href="#Pretendard-Regular-30" transform="translate(203.222656 0)"/>
       <use xlink:href="#Pretendard-Regular-30" transform="translate(262.792969 0)"/>
      </g>
     </g>
    </g>
    <g id="text_10">
     <!-- Time (s) -->
     <g transform="translate(251.254687 215.955938) scale(0.1 -0.1)">
      <defs>
       <path id="Pretendard-Regular-54" d="M 250 4025 
L 1675 4025 
L 1675 0 
L 2244 0 
L 2244 4025 
L 3663 4025 
L 3663 4525 
L 250 4525 
L 250 4025 
z
" transform="scale(0.015625)"/>
       <path id="Pretendard-Regular-69" d="M 431 0 
L 969 0 
L 969 3394 
L 431 3394 
L 431 0 
z
M 700 3956 
C 906 3956 1081 4113 1081 4313 
C 1081 4513 906 4669 700 4669 
C 494 4669 325 4513 325 4313 
C 325 4113 494 3956 700 3956 
z
" transform="scale(0.015625)"/>
       <path id="Pretendard-Regular-6d" d="M 431 0 
L 969 0 
L 969 2119 
C 969 2613 1325 2956 1731 2956 
C 2119 2956 2394 2700 2394 2319 
L 2394 0 
L 2938 0 
L 2938 2206 
C 2938 2638 3206 2956 3681 2956 
C 4050 2956 4369 2763 4369 2263 
L 4369 0 
L 4906 0 
L 4906 2269 
C 4906 3069 4475 3438 3869 3438 
C 3381 3438 3025 3213 2850 2863 
L 2813 2863 
C 2650 3225 2350 3438 1906 3438 
C 1463 3438 1138 3225 994 2863 
L 950 2863 
L 950 3394 
L 431 3394 
L 431 0 
z
" transform="scale(0.015625)"/>
       <path id="Pretendard-Regular-65" d="M 1856 -69 
C 2556 -69 3056 281 3219 794 
L 2644 794 
C 2519 581 2263 406 1856 406 
C 1250 406 831 800 806 1519 
L 3269 1519 
L 3269 1744 
C 3269 3000 2519 3438 1806 3438 
C 881 3438 269 2713 269 1669 
C 269 625 875 -69 1856 -69 
z
M 813 1975 
C 844 2500 1219 2963 1806 2963 
C 2363 2963 2725 2544 2725 1975 
L 813 1975 
z
" transform="scale(0.015625)"/>
       <path id="Pretendard-Regular-20" transform="scale(0.015625)"/>
       <path id="Pretendard-Regular-28" d="M 569 1725 
C 575 544 894 -438 1469 -1275 
L 1944 -1275 
C 1519 -656 1125 613 1125 1725 
C 1125 2838 1519 4100 1944 4719 
L 1469 4719 
C 894 3888 575 2906 569 1725 
z
" transform="scale(0.015625)"/>
       <path id="Pretendard-Regular-73" d="M 2319 2513 
L 2844 2513 
C 2775 3063 2331 3438 1631 3438 
C 881 3438 375 3019 375 2438 
C 375 1988 688 1663 1281 1525 
L 1794 1406 
C 2181 1319 2350 1156 2350 919 
C 2350 600 2044 400 1563 400 
C 1138 400 894 556 831 888 
L 269 888 
C 356 269 813 -69 1575 -69 
C 2425 -69 2906 363 2906 950 
C 2906 1425 2606 1725 2000 1869 
L 1494 1994 
C 1094 2088 913 2244 913 2469 
C 913 2756 1213 2981 1631 2981 
C 2031 2981 2244 2794 2319 2513 
z
" transform="scale(0.015625)"/>
       <path id="Pretendard-Regular-29" d="M 1613 1725 
C 1606 2906 1288 3888 713 4719 
L 238 4719 
C 663 4100 1056 2838 1056 1725 
C 1056 613 663 -656 238 -1275 
L 713 -1275 
C 1288 -438 1606 544 1613 1725 
z
" transform="scale(0.015625)"/>
      </defs>
      <use xlink:href="#Pretendard-Regular-54"/>
      <use xlink:href="#Pretendard-Regular-69" transform="translate(61.132812 0)"/>
      <use xlink:href="#Pretendard-Regular-6d" transform="translate(82.910156 0)"/>
      <use xlink:href="#Pretendard-Regular-65" transform="translate(166.308594 0)"/>
      <use xlink:href="#Pretendard-Regular-20" transform="translate(221.582031 0)"/>
      <use xlink:href="#Pretendard-Regular-28" transform="translate(246.679688 0)"/>
      <use xlink:href="#Pretendard-Regular-73" transform="translate(280.761719 0)"/>
      <use xlink:href="#Pretendard-Regular-29" transform="translate(330.371094 0)"/>
     </g>
    </g>
   </g>
   <g id="matplotlib.axis_2">
    <g id="ytick_1">
     <g id="line2d_19">
      <path d="M 46.278125 169.887439 
L 492.678125 169.887439 
" clip-path="url(#p264763b747)" style="fill: none; stroke-dasharray: 0.8,1.32; stroke-dashoffset: 0; stroke: #b0b0b0; stroke-opacity: 0.6; stroke-width: 0.8"/>
     </g>
     <g id="line2d_20">
      <defs>
       <path id="mf458eab7ac" d="M 0 0 
L -3.5 0 
" style="stroke: #000000; stroke-width: 0.8"/>
      </defs>
      <g>
       <use xlink:href="#mf458eab7ac" x="46.278125" y="169.887439" style="stroke: #000000; stroke-width: 0.8"/>
      </g>
     </g>
     <g id="text_11">
      <!-- -1.5 -->
      <g transform="translate(22.060938 173.422595) scale(0.1 -0.1)">
       <defs>
        <path id="Pretendard-Regular-2d" d="M 2375 2181 
L 394 2181 
L 394 1688 
L 2375 1688 
L 2375 2181 
z
" transform="scale(0.015625)"/>
       </defs>
       <use xlink:href="#Pretendard-Regular-2d"/>
       <use xlink:href="#Pretendard-Regular-31" transform="translate(43.261719 0)"/>
       <use xlink:href="#Pretendard-Regular-2e" transform="translate(87.109375 0)"/>
       <use xlink:href="#Pretendard-Regular-35" transform="translate(112.5 0)"/>
      </g>
     </g>
    </g>
    <g id="ytick_2">
     <g id="line2d_21">
      <path d="M 46.278125 148.656009 
L 492.678125 148.656009 
" clip-path="url(#p264763b747)" style="fill: none; stroke-dasharray: 0.8,1.32; stroke-dashoffset: 0; stroke: #b0b0b0; stroke-opacity: 0.6; stroke-width: 0.8"/>
     </g>
     <g id="line2d_22">
      <g>
       <use xlink:href="#mf458eab7ac" x="46.278125" y="148.656009" style="stroke: #000000; stroke-width: 0.8"/>
      </g>
     </g>
     <g id="text_12">
      <!-- -1.0 -->
      <g transform="translate(22.070313 152.191165) scale(0.1 -0.1)">
       <use xlink:href="#Pretendard-Regular-2d"/>
       <use xlink:href="#Pretendard-Regular-31" transform="translate(43.261719 0)"/>
       <use xlink:href="#Pretendard-Regular-2e" transform="translate(87.109375 0)"/>
       <use xlink:href="#Pretendard-Regular-30" transform="translate(112.5 0)"/>
      </g>
     </g>
    </g>
    <g id="ytick_3">
     <g id="line2d_23">
      <path d="M 46.278125 127.424578 
L 492.678125 127.424578 
" clip-path="url(#p264763b747)" style="fill: none; stroke-dasharray: 0.8,1.32; stroke-dashoffset: 0; stroke: #b0b0b0; stroke-opacity: 0.6; stroke-width: 0.8"/>
     </g>
     <g id="line2d_24">
      <g>
       <use xlink:href="#mf458eab7ac" x="46.278125" y="127.424578" style="stroke: #000000; stroke-width: 0.8"/>
      </g>
     </g>
     <g id="text_13">
      <!-- -0.5 -->
      <g transform="translate(20.4875 130.959735) scale(0.1 -0.1)">
       <use xlink:href="#Pretendard-Regular-2d"/>
       <use xlink:href="#Pretendard-Regular-30" transform="translate(43.261719 0)"/>
       <use xlink:href="#Pretendard-Regular-2e" transform="translate(102.832031 0)"/>
       <use xlink:href="#Pretendard-Regular-35" transform="translate(128.222656 0)"/>
      </g>
     </g>
    </g>
    <g id="ytick_4">
     <g id="line2d_25">
      <path d="M 46.278125 106.193148 
L 492.678125 106.193148 
" clip-path="url(#p264763b747)" style="fill: none; stroke-dasharray: 0.8,1.32; stroke-dashoffset: 0; stroke: #b0b0b0; stroke-opacity: 0.6; stroke-width: 0.8"/>
     </g>
     <g id="line2d_26">
      <g>
       <use xlink:href="#mf458eab7ac" x="46.278125" y="106.193148" style="stroke: #000000; stroke-width: 0.8"/>
      </g>
     </g>
     <g id="text_14">
      <!-- 0.0 -->
      <g transform="translate(24.823438 109.728305) scale(0.1 -0.1)">
       <use xlink:href="#Pretendard-Regular-30"/>
       <use xlink:href="#Pretendard-Regular-2e" transform="translate(59.570312 0)"/>
       <use xlink:href="#Pretendard-Regular-30" transform="translate(84.960938 0)"/>
      </g>
     </g>
    </g>
    <g id="ytick_5">
     <g id="line2d_27">
      <path d="M 46.278125 84.961718 
L 492.678125 84.961718 
" clip-path="url(#p264763b747)" style="fill: none; stroke-dasharray: 0.8,1.32; stroke-dashoffset: 0; stroke: #b0b0b0; stroke-opacity: 0.6; stroke-width: 0.8"/>
     </g>
     <g id="line2d_28">
      <g>
       <use xlink:href="#mf458eab7ac" x="46.278125" y="84.961718" style="stroke: #000000; stroke-width: 0.8"/>
      </g>
     </g>
     <g id="text_15">
      <!-- 0.5 -->
      <g transform="translate(24.814063 88.496875) scale(0.1 -0.1)">
       <use xlink:href="#Pretendard-Regular-30"/>
       <use xlink:href="#Pretendard-Regular-2e" transform="translate(59.570312 0)"/>
       <use xlink:href="#Pretendard-Regular-35" transform="translate(84.960938 0)"/>
      </g>
     </g>
    </g>
    <g id="ytick_6">
     <g id="line2d_29">
      <path d="M 46.278125 63.730288 
L 492.678125 63.730288 
" clip-path="url(#p264763b747)" style="fill: none; stroke-dasharray: 0.8,1.32; stroke-dashoffset: 0; stroke: #b0b0b0; stroke-opacity: 0.6; stroke-width: 0.8"/>
     </g>
     <g id="line2d_30">
      <g>
       <use xlink:href="#mf458eab7ac" x="46.278125" y="63.730288" style="stroke: #000000; stroke-width: 0.8"/>
      </g>
     </g>
     <g id="text_16">
      <!-- 1.0 -->
      <g transform="translate(26.396875 67.265444) scale(0.1 -0.1)">
       <use xlink:href="#Pretendard-Regular-31"/>
       <use xlink:href="#Pretendard-Regular-2e" transform="translate(43.847656 0)"/>
       <use xlink:href="#Pretendard-Regular-30" transform="translate(69.238281 0)"/>
      </g>
     </g>
    </g>
    <g id="ytick_7">
     <g id="line2d_31">
      <path d="M 46.278125 42.498858 
L 492.678125 42.498858 
" clip-path="url(#p264763b747)" style="fill: none; stroke-dasharray: 0.8,1.32; stroke-dashoffset: 0; stroke: #b0b0b0; stroke-opacity: 0.6; stroke-width: 0.8"/>
     </g>
     <g id="line2d_32">
      <g>
       <use xlink:href="#mf458eab7ac" x="46.278125" y="42.498858" style="stroke: #000000; stroke-width: 0.8"/>
      </g>
     </g>
     <g id="text_17">
      <!-- 1.5 -->
      <g transform="translate(26.3875 46.034014) scale(0.1 -0.1)">
       <use xlink:href="#Pretendard-Regular-31"/>
       <use xlink:href="#Pretendard-Regular-2e" transform="translate(43.847656 0)"/>
       <use xlink:href="#Pretendard-Regular-35" transform="translate(69.238281 0)"/>
      </g>
     </g>
    </g>
    <g id="text_18">
     <!-- Amplitude -->
     <g transform="translate(14.495313 128.012344) rotate(-90) scale(0.1 -0.1)">
      <defs>
       <path id="Pretendard-Regular-41" d="M 700 0 
L 1156 1275 
L 2975 1275 
L 3425 0 
L 4019 0 
L 2363 4525 
L 1769 4525 
L 113 0 
L 700 0 
z
M 1325 1769 
L 2044 3794 
L 2081 3794 
L 2800 1769 
L 1325 1769 
z
" transform="scale(0.015625)"/>
       <path id="Pretendard-Regular-70" d="M 431 -1275 
L 969 -1275 
L 969 519 
L 1013 519 
C 1125 331 1350 -69 2000 -69 
C 2844 -69 3438 613 3438 1688 
C 3438 2763 2844 3438 1994 3438 
C 1338 3438 1125 3038 1013 2856 
L 950 2856 
L 950 3394 
L 431 3394 
L 431 -1275 
z
M 956 1700 
C 956 2450 1288 2956 1925 2956 
C 2575 2956 2900 2406 2900 1700 
C 2900 975 2569 413 1925 413 
C 1300 413 956 938 956 1700 
z
" transform="scale(0.015625)"/>
       <path id="Pretendard-Regular-6c" d="M 969 4525 
L 431 4525 
L 431 0 
L 969 0 
L 969 4525 
z
" transform="scale(0.015625)"/>
       <path id="Pretendard-Regular-74" d="M 1913 3394 
L 1200 3394 
L 1200 4206 
L 656 4206 
L 656 3394 
L 144 3394 
L 144 2944 
L 656 2944 
L 656 838 
C 656 238 1138 -44 1588 -44 
C 1744 -44 1881 -31 1963 -19 
L 1963 481 
C 1881 475 1744 469 1644 469 
C 1413 469 1200 538 1200 975 
L 1200 2944 
L 1913 2944 
L 1913 3394 
z
" transform="scale(0.015625)"/>
       <path id="Pretendard-Regular-75" d="M 2575 1394 
C 2575 763 2088 475 1706 475 
C 1275 475 969 788 969 1275 
L 969 3394 
L 431 3394 
L 431 1238 
C 431 375 888 -44 1531 -44 
C 2044 -44 2375 231 2538 575 
L 2575 575 
L 2575 0 
L 3106 0 
L 3106 3394 
L 2575 3394 
L 2575 1394 
z
" transform="scale(0.015625)"/>
       <path id="Pretendard-Regular-64" d="M 1713 -69 
C 2363 -69 2581 331 2700 519 
L 2756 519 
L 2756 0 
L 3281 0 
L 3281 4525 
L 2738 4525 
L 2738 2856 
L 2700 2856 
C 2588 3038 2375 3438 1719 3438 
C 869 3438 269 2763 269 1688 
C 269 613 869 -69 1713 -69 
z
M 1788 413 
C 1144 413 813 975 813 1700 
C 813 2406 1138 2956 1788 2956 
C 2419 2956 2756 2450 2756 1700 
C 2756 938 2406 413 1788 413 
z
" transform="scale(0.015625)"/>
      </defs>
      <use xlink:href="#Pretendard-Regular-41"/>
      <use xlink:href="#Pretendard-Regular-6d" transform="translate(64.550781 0)"/>
      <use xlink:href="#Pretendard-Regular-70" transform="translate(147.949219 0)"/>
      <use xlink:href="#Pretendard-Regular-6c" transform="translate(205.859375 0)"/>
      <use xlink:href="#Pretendard-Regular-69" transform="translate(227.636719 0)"/>
      <use xlink:href="#Pretendard-Regular-74" transform="translate(249.414062 0)"/>
      <use xlink:href="#Pretendard-Regular-75" transform="translate(283.398438 0)"/>
      <use xlink:href="#Pretendard-Regular-64" transform="translate(338.671875 0)"/>
      <use xlink:href="#Pretendard-Regular-65" transform="translate(397.753906 0)"/>
     </g>
    </g>
   </g>
   <g id="line2d_33">
    <path d="M 66.569034 29.76 
L 66.975258 30.36657 
L 67.381483 32.176484 
L 67.787707 35.160511 
L 68.600156 44.440015 
L 69.412605 57.608501 
L 70.631278 82.748084 
L 73.474849 146.869994 
L 74.287298 161.329937 
L 75.099747 172.23498 
L 75.505971 176.133439 
L 75.912195 178.911208 
L 76.31842 180.527401 
L 76.724644 180.96 
L 77.130869 180.206156 
L 77.537093 178.282168 
L 77.943317 175.223153 
L 78.755766 165.930462 
L 79.568215 152.953782 
L 80.786888 128.504562 
L 83.630459 67.400209 
L 84.442908 53.903271 
L 85.255357 43.863607 
L 85.661581 40.335748 
L 86.067806 37.874372 
L 86.47403 36.51162 
L 86.880254 36.261695 
L 87.286479 37.120752 
L 87.692703 39.067086 
L 88.098928 42.061612 
L 88.911376 50.956819 
L 89.723825 63.181501 
L 90.942498 85.907564 
L 93.786069 141.519075 
L 94.598518 153.535057 
L 95.410967 162.340403 
L 95.817191 165.375623 
L 96.223416 167.442217 
L 96.62964 168.517375 
L 97.035865 168.594529 
L 97.442089 167.683297 
L 97.848313 165.809148 
L 98.254538 163.01282 
L 99.066987 154.887708 
L 99.879435 143.902086 
L 101.098109 123.763299 
L 103.535455 81.551304 
L 104.347904 70.1752 
L 105.160353 61.370867 
L 105.972801 55.623505 
L 106.379026 53.991057 
L 106.78525 53.209176 
L 107.191475 53.277726 
L 107.597699 54.182812 
L 108.003924 55.897209 
L 108.410148 58.381007 
L 109.222597 65.43899 
L 110.035046 74.820258 
L 111.253719 91.762033 
L 113.691065 126.4928 
L 114.503514 135.646251 
L 115.315963 142.621663 
L 116.128412 147.058149 
L 116.534636 148.259371 
L 116.94086 148.770687 
L 117.347085 148.597352 
L 117.753309 147.755634 
L 118.159534 146.272335 
L 118.971982 141.536847 
L 119.784431 134.787794 
L 121.003105 122.025804 
L 123.846675 90.457829 
L 124.659124 83.541993 
L 125.471573 78.363707 
L 126.284022 75.169237 
L 126.690246 74.35505 
L 127.096471 74.066173 
L 127.502695 74.294304 
L 127.908919 75.022927 
L 128.315144 76.227773 
L 129.127593 79.934004 
L 129.940041 85.088952 
L 131.158715 94.648091 
L 133.596061 114.750815 
L 134.40851 120.191418 
L 135.220959 124.450779 
L 136.033408 127.326962 
L 136.439632 128.21053 
L 136.845856 128.718031 
L 137.252081 128.852483 
L 137.658305 128.622889 
L 138.06453 128.043907 
L 138.470754 127.135434 
L 139.283203 124.432814 
L 140.095652 120.758929 
L 141.314325 114.070581 
L 143.751671 100.341369 
L 144.56412 96.702056 
L 145.376569 93.886501 
L 146.189018 92.016865 
L 146.595242 91.456477 
L 147.001467 91.147797 
L 147.407691 91.087317 
L 147.813915 91.267699 
L 148.22014 91.678035 
L 149.032589 93.128955 
L 149.845037 95.293984 
L 151.063711 99.480746 
L 153.907281 110.103748 
L 154.71973 112.52547 
L 155.532179 114.41789 
L 156.344628 115.700307 
L 156.750852 116.098665 
L 157.157077 116.332662 
L 157.563301 116.403503 
L 157.969525 116.314708 
L 158.37575 116.071975 
L 159.188199 115.15737 
L 160.000648 113.742173 
L 161.219321 110.915387 
L 165.281565 100.501468 
L 166.094014 99.121843 
L 166.906462 98.184527 
L 167.718911 97.736837 
L 168.125136 97.704607 
L 168.53136 97.801196 
L 169.343809 98.374386 
L 170.156258 99.427659 
L 170.968706 100.907693 
L 172.18738 103.755995 
L 176.249624 114.137473 
L 177.062073 115.436615 
L 177.874521 116.212147 
L 178.280746 116.378753 
L 178.68697 116.38831 
L 179.093195 116.236189 
L 179.499419 115.920013 
L 180.311868 114.797943 
L 181.124317 113.052038 
L 181.936765 110.75289 
L 183.155439 106.517989 
L 185.99901 95.926277 
L 186.811458 93.609819 
L 187.623907 91.965125 
L 188.030132 91.444936 
L 188.436356 91.148002 
L 188.84258 91.086904 
L 189.248805 91.270801 
L 189.655029 91.705144 
L 190.061254 92.391448 
L 190.873702 94.505337 
L 191.686151 97.540884 
L 192.904824 103.501569 
L 196.560844 123.594678 
L 197.373293 126.565171 
L 197.779517 127.629421 
L 198.185742 128.375945 
L 198.591966 128.782404 
L 198.998191 128.831462 
L 199.404415 128.511243 
L 199.810639 127.815702 
L 200.216864 126.744905 
L 201.029313 123.509397 
L 201.841761 118.932006 
L 203.060435 110.068987 
L 206.31023 83.685264 
L 207.122679 78.857447 
L 207.935127 75.567626 
L 208.341352 74.597396 
L 208.747576 74.116457 
L 209.153801 74.145269 
L 209.560025 74.696293 
L 209.966249 75.77358 
L 210.372474 77.372497 
L 211.184923 82.072597 
L 211.997372 88.584429 
L 213.216045 100.964199 
L 216.46584 136.63754 
L 217.278289 142.927193 
L 218.090738 147.092112 
L 218.496962 148.258606 
L 218.903186 148.768838 
L 219.309411 148.601201 
L 219.715635 147.744887 
L 220.12186 146.200271 
L 220.528084 143.979128 
L 221.340533 137.611274 
L 222.152982 128.959434 
L 223.371655 112.791735 
L 226.215226 72.291852 
L 227.027675 63.433139 
L 227.840123 57.045901 
L 228.246348 54.941053 
L 228.652572 53.627098 
L 229.058797 53.137697 
L 229.465021 53.493478 
L 229.871245 54.701496 
L 230.27747 56.754918 
L 231.089919 63.300891 
L 231.902367 72.801351 
L 233.121041 91.375108 
L 236.77706 152.38217 
L 237.589509 161.285545 
L 237.995734 164.523135 
L 238.401958 166.86439 
L 238.808182 168.261235 
L 239.214407 168.680478 
L 239.620631 168.104518 
L 240.026856 166.531803 
L 240.43308 163.977034 
L 241.245529 156.060662 
L 242.057978 144.788511 
L 243.276651 123.0869 
L 246.526446 59.855507 
L 247.338895 48.392605 
L 248.151344 40.436428 
L 248.557568 37.960053 
L 248.963792 36.553543 
L 249.370017 36.247372 
L 249.776241 37.054357 
L 250.182466 38.969323 
L 250.58869 41.969067 
L 251.401139 51.041776 
L 252.213588 63.743431 
L 253.432261 87.858692 
L 256.275832 149.230073 
L 257.088281 163.001754 
L 257.900729 173.283979 
L 258.306954 176.891625 
L 258.713178 179.38867 
L 259.119403 180.730811 
L 259.525627 180.892278 
L 259.931851 179.866325 
L 260.338076 177.665402 
L 260.7443 174.321018 
L 261.556749 164.420161 
L 262.369198 150.772143 
L 263.587871 125.195167 
L 266.431442 61.413905 
L 267.243891 47.396697 
L 268.05634 37.078481 
L 268.462564 33.524308 
L 268.868788 31.122484 
L 269.275013 29.911796 
L 269.681237 29.911796 
L 270.087462 31.122484 
L 270.493686 33.524308 
L 270.89991 37.078481 
L 271.712359 47.396697 
L 272.524808 61.413905 
L 273.743481 87.355996 
L 276.587052 150.772143 
L 277.399501 164.420161 
L 278.21195 174.321018 
L 278.618174 177.665402 
L 279.024399 179.866325 
L 279.430623 180.892278 
L 279.836847 180.730811 
L 280.243072 179.38867 
L 280.649296 176.891625 
L 281.055521 173.283979 
L 281.867969 163.001754 
L 282.680418 149.230073 
L 283.899091 124.056528 
L 286.336438 71.222409 
L 287.148887 56.981987 
L 287.961335 46.012615 
L 288.773784 38.969323 
L 289.180009 37.054357 
L 289.586233 36.247372 
L 289.992458 36.553543 
L 290.398682 37.960053 
L 290.804906 40.436428 
L 291.617355 48.392605 
L 292.429804 59.855507 
L 293.648477 81.86772 
L 296.898272 144.788511 
L 297.710721 156.060662 
L 298.52317 163.977034 
L 298.929394 166.531803 
L 299.335619 168.104518 
L 299.741843 168.680478 
L 300.148068 168.261235 
L 300.554292 166.86439 
L 300.960516 164.523135 
L 301.772965 157.213631 
L 302.585414 146.87734 
L 303.804087 127.322231 
L 306.647658 78.499909 
L 307.460107 67.710684 
L 308.272556 59.632933 
L 308.67878 56.754918 
L 309.085005 54.701496 
L 309.491229 53.493478 
L 309.897453 53.137697 
L 310.303678 53.627098 
L 310.709902 54.941053 
L 311.116127 57.045901 
L 311.928575 63.433139 
L 312.741024 72.291852 
L 313.959697 88.78715 
L 316.397044 123.921844 
L 317.209493 133.544321 
L 318.021942 141.104649 
L 318.83439 146.200271 
L 319.240615 147.744887 
L 319.646839 148.601201 
L 320.053064 148.768838 
L 320.459288 148.258606 
L 320.865512 147.092112 
L 321.271737 145.301193 
L 322.084186 140.020098 
L 322.896634 132.843697 
L 324.115308 119.709001 
L 326.552654 92.416936 
L 327.365103 85.12062 
L 328.177552 79.479589 
L 328.990001 75.77358 
L 329.396225 74.696293 
L 329.802449 74.145269 
L 330.208674 74.116457 
L 330.614898 74.597396 
L 331.021123 75.567626 
L 331.427347 76.999223 
L 332.239796 81.101481 
L 333.052245 86.558382 
L 334.677142 99.837321 
L 336.30204 113.238715 
L 337.520713 121.376548 
L 338.333162 125.305219 
L 339.145611 127.815702 
L 339.551835 128.511243 
L 339.958059 128.831462 
L 340.364284 128.782404 
L 340.770508 128.375945 
L 341.176733 127.629421 
L 341.989182 125.210015 
L 342.80163 121.753155 
L 344.020304 115.24645 
L 346.45765 101.359388 
L 347.676323 95.915029 
L 348.488772 93.327118 
L 349.301221 91.705144 
L 349.707445 91.270801 
L 350.11367 91.086904 
L 350.519894 91.148002 
L 350.926118 91.444936 
L 351.332343 91.965125 
L 352.144792 93.609819 
L 352.95724 95.926277 
L 354.175914 100.247789 
L 356.61326 109.428833 
L 357.831933 113.052038 
L 358.644382 114.797943 
L 359.456831 115.920013 
L 359.863055 116.236189 
L 360.26928 116.38831 
L 360.675504 116.378753 
L 361.081729 116.212147 
L 361.487953 115.895217 
L 362.300402 114.846728 
L 363.112851 113.322085 
L 364.331524 110.386511 
L 367.581319 101.784798 
L 368.393768 100.118579 
L 369.206217 98.843786 
L 370.018666 98.025392 
L 370.42489 97.801196 
L 370.831114 97.704607 
L 371.237339 97.736837 
L 371.643563 97.897481 
L 372.456012 98.594371 
L 373.268461 99.760259 
L 374.08091 101.335934 
L 375.299583 104.284522 
L 378.549378 112.879032 
L 379.361827 114.506222 
L 380.174276 115.683014 
L 380.986725 116.314708 
L 381.392949 116.403503 
L 381.799173 116.332662 
L 382.205398 116.098665 
L 382.611622 115.700307 
L 383.424071 114.41789 
L 384.23652 112.52547 
L 385.048969 110.103748 
L 386.267642 105.750191 
L 388.704988 96.588987 
L 389.517437 94.132819 
L 390.329886 92.304151 
L 390.73611 91.678035 
L 391.142335 91.267699 
L 391.548559 91.087317 
L 391.954783 91.147797 
L 392.361008 91.456477 
L 392.767232 92.016865 
L 393.579681 93.886501 
L 394.39213 96.702056 
L 395.204579 100.341369 
L 396.423252 106.92163 
L 398.860598 120.758929 
L 399.673047 124.432814 
L 400.485496 127.135434 
L 400.89172 128.043907 
L 401.297945 128.622889 
L 401.704169 128.852483 
L 402.110394 128.718031 
L 402.516618 128.21053 
L 402.922842 127.326962 
L 403.329067 126.070526 
L 404.141516 122.483661 
L 404.953964 117.602412 
L 406.172638 108.423039 
L 409.016209 85.088952 
L 409.828657 79.934004 
L 410.641106 76.227773 
L 411.047331 75.022927 
L 411.453555 74.294304 
L 411.859779 74.066173 
L 412.266004 74.35505 
L 412.672228 75.169237 
L 413.078453 76.508468 
L 413.890901 80.717086 
L 414.70335 86.803316 
L 415.922023 98.736344 
L 419.578043 138.384381 
L 420.390492 144.184145 
L 420.796716 146.272335 
L 421.202941 147.755634 
L 421.609165 148.597352 
L 422.01539 148.770687 
L 422.421614 148.259371 
L 422.827838 147.058149 
L 423.234063 145.173082 
L 424.046512 139.432741 
L 424.85896 131.312757 
L 426.077634 115.680399 
L 429.327429 69.878418 
L 430.139878 61.582456 
L 430.952326 55.897209 
L 431.358551 54.182812 
L 431.764775 53.277726 
L 432.171 53.209176 
L 432.577224 53.991057 
L 432.983449 55.623505 
L 433.389673 58.092696 
L 434.202122 65.416576 
L 435.014571 75.579648 
L 436.233244 94.831203 
L 439.076815 143.902086 
L 439.889263 154.887708 
L 440.701712 163.01282 
L 441.107937 165.809148 
L 441.514161 167.683297 
L 441.920385 168.594529 
L 442.32661 168.517375 
L 442.732834 167.442217 
L 443.139059 165.375623 
L 443.545283 162.340403 
L 444.357732 153.535057 
L 445.170181 141.519075 
L 446.388854 119.083152 
L 449.232425 63.181501 
L 450.044874 50.956819 
L 450.857322 42.061612 
L 451.263547 39.067086 
L 451.669771 37.120752 
L 452.075996 36.261695 
L 452.48222 36.51162 
L 452.888444 37.874372 
L 453.294669 40.335748 
L 453.700893 43.863607 
L 454.513342 53.903271 
L 455.325791 67.400209 
L 456.544464 92.272886 
L 459.388035 152.953782 
L 460.200484 165.930462 
L 461.012933 175.223153 
L 461.419157 178.282168 
L 461.825381 180.206156 
L 462.231606 180.96 
L 462.63783 180.527401 
L 463.044055 178.911208 
L 463.450279 176.133439 
L 464.262728 167.27498 
L 465.075177 154.492498 
L 466.29385 129.762016 
L 469.543645 57.608501 
L 470.356094 44.440015 
L 471.168543 35.160511 
L 471.574767 32.176484 
L 471.980992 30.36657 
L 472.387216 29.76 
L 472.387216 29.76 
" clip-path="url(#p264763b747)" style="fill: none; stroke: #2980b9; stroke-width: 2; stroke-linecap: square"/>
   </g>
   <g id="line2d_34">
    <path d="M 46.278125 106.193148 
L 492.678125 106.193148 
" clip-path="url(#p264763b747)" style="fill: none; stroke: #000000; stroke-width: 0.8; stroke-linecap: square"/>
   </g>
   <g id="line2d_35">
    <path d="M 66.569034 188.52 
L 66.569034 22.2 
" clip-path="url(#p264763b747)" style="fill: none; stroke: #000000; stroke-width: 0.8; stroke-linecap: square"/>
   </g>
   <g id="patch_3">
    <path d="M 46.278125 188.52 
L 46.278125 22.2 
" style="fill: none; stroke: #000000; stroke-width: 0.8; stroke-linejoin: miter; stroke-linecap: square"/>
   </g>
   <g id="patch_4">
    <path d="M 492.678125 188.52 
L 492.678125 22.2 
" style="fill: none; stroke: #000000; stroke-width: 0.8; stroke-linejoin: miter; stroke-linecap: square"/>
   </g>
   <g id="patch_5">
    <path d="M 46.278125 188.52 
L 492.678125 188.52 
" style="fill: none; stroke: #000000; stroke-width: 0.8; stroke-linejoin: miter; stroke-linecap: square"/>
   </g>
   <g id="patch_6">
    <path d="M 46.278125 22.2 
L 492.678125 22.2 
" style="fill: none; stroke: #000000; stroke-width: 0.8; stroke-linejoin: miter; stroke-linecap: square"/>
   </g>
   <g id="text_19">
    <!-- AM Waveform (Index $\mu=0.8$) -->
    <g transform="translate(188.838125 16.2) scale(0.12 -0.12)">
     <defs>
      <path id="Pretendard-Regular-4d" d="M 500 4525 
L 500 0 
L 1031 0 
L 1031 3419 
L 1069 3419 
L 2475 0 
L 2975 0 
L 4381 3419 
L 4425 3419 
L 4425 0 
L 4956 0 
L 4956 4525 
L 4281 4525 
L 2756 800 
L 2700 800 
L 1175 4525 
L 500 4525 
z
" transform="scale(0.015625)"/>
      <path id="Pretendard-Regular-57" d="M 1338 0 
L 1919 0 
L 2913 3581 
L 2950 3581 
L 3938 0 
L 4519 0 
L 5756 4525 
L 5188 4525 
L 4244 863 
L 4206 863 
L 3244 4525 
L 2613 4525 
L 1656 863 
L 1613 863 
L 669 4525 
L 100 4525 
L 1338 0 
z
" transform="scale(0.015625)"/>
      <path id="Pretendard-Regular-61" d="M 269 963 
C 269 300 781 -81 1425 -81 
C 2013 -81 2325 231 2438 463 
L 2463 463 
L 2463 0 
L 2994 0 
L 2994 2238 
C 2994 3306 2163 3438 1719 3438 
C 969 3438 438 3056 369 2513 
L 931 2513 
C 1006 2769 1263 2969 1694 2969 
C 2206 2969 2463 2719 2463 2288 
L 2463 2013 
C 2309 2006 1759 1978 1544 1963 
C 956 1919 269 1744 269 963 
z
M 806 938 
C 806 1306 1119 1481 1606 1513 
L 2463 1575 
L 2463 1231 
C 2463 806 2125 400 1519 400 
C 1106 400 806 581 806 938 
z
" transform="scale(0.015625)"/>
      <path id="Pretendard-Regular-76" d="M 3225 3394 
L 2638 3394 
L 1713 700 
L 1675 700 
L 750 3394 
L 163 3394 
L 1413 0 
L 1969 0 
L 3225 3394 
z
" transform="scale(0.015625)"/>
      <path id="Pretendard-Regular-66" d="M 1950 3394 
L 1200 3394 
L 1200 3738 
C 1200 4088 1369 4244 1744 4244 
C 1813 4244 1913 4238 2025 4219 
L 2025 4700 
C 1913 4719 1756 4738 1625 4738 
C 1025 4738 656 4406 656 3856 
L 656 3394 
L 113 3394 
L 113 2944 
L 656 2944 
L 656 0 
L 1200 0 
L 1200 2944 
L 1950 2944 
L 1950 3394 
z
" transform="scale(0.015625)"/>
      <path id="Pretendard-Regular-6f" d="M 1819 -69 
C 2738 -69 3356 625 3356 1681 
C 3356 2738 2738 3438 1819 3438 
C 894 3438 269 2738 269 1681 
C 269 625 894 -69 1819 -69 
z
M 1819 406 
C 1125 406 806 1006 806 1681 
C 806 2356 1125 2963 1819 2963 
C 2500 2963 2819 2356 2819 1681 
C 2819 1006 2500 406 1819 406 
z
" transform="scale(0.015625)"/>
      <path id="Pretendard-Regular-72" d="M 431 0 
L 969 0 
L 969 2138 
C 969 2594 1331 2931 1819 2931 
C 1956 2931 2106 2906 2144 2894 
L 2144 3438 
C 2081 3444 1944 3450 1863 3450 
C 1463 3450 1113 3219 988 2875 
L 950 2875 
L 950 3394 
L 431 3394 
L 431 0 
z
" transform="scale(0.015625)"/>
      <path id="Pretendard-Regular-49" d="M 1063 4525 
L 500 4525 
L 500 0 
L 1063 0 
L 1063 4525 
z
" transform="scale(0.015625)"/>
      <path id="Pretendard-Regular-6e" d="M 969 2038 
C 969 2625 1331 2956 1825 2956 
C 2306 2956 2594 2644 2594 2119 
L 2594 0 
L 3131 0 
L 3131 2156 
C 3131 3019 2675 3438 1988 3438 
C 1469 3438 1156 3206 994 2863 
L 950 2863 
L 950 3394 
L 431 3394 
L 431 0 
L 969 0 
L 969 2038 
z
" transform="scale(0.015625)"/>
      <path id="Pretendard-Regular-78" d="M 838 3394 
L 219 3394 
L 1288 1700 
L 219 0 
L 838 0 
L 1638 1313 
L 2450 0 
L 3063 0 
L 1969 1700 
L 3063 3394 
L 2444 3394 
L 1638 2013 
L 838 3394 
z
" transform="scale(0.015625)"/>
      <path id="DejaVuSans-Oblique-3bc" d="M -84 -1331 
L 856 3500 
L 1434 3500 
L 1009 1322 
Q 997 1256 987 1175 
Q 978 1094 978 1013 
Q 978 722 1161 565 
Q 1344 409 1684 409 
Q 2147 409 2431 671 
Q 2716 934 2816 1459 
L 3213 3500 
L 3788 3500 
L 3266 809 
Q 3253 750 3248 706 
Q 3244 663 3244 628 
Q 3244 531 3283 486 
Q 3322 441 3406 441 
Q 3438 441 3492 456 
Q 3547 472 3647 513 
L 3559 50 
Q 3422 -19 3297 -55 
Q 3172 -91 3053 -91 
Q 2847 -91 2730 40 
Q 2613 172 2613 403 
Q 2438 153 2195 31 
Q 1953 -91 1625 -91 
Q 1334 -91 1117 43 
Q 900 178 831 397 
L 494 -1331 
L -84 -1331 
z
" transform="scale(0.015625)"/>
      <path id="DejaVuSans-3d" d="M 678 2906 
L 4684 2906 
L 4684 2381 
L 678 2381 
L 678 2906 
z
M 678 1631 
L 4684 1631 
L 4684 1100 
L 678 1100 
L 678 1631 
z
" transform="scale(0.015625)"/>
      <path id="DejaVuSans-30" d="M 2034 4250 
Q 1547 4250 1301 3770 
Q 1056 3291 1056 2328 
Q 1056 1369 1301 889 
Q 1547 409 2034 409 
Q 2525 409 2770 889 
Q 3016 1369 3016 2328 
Q 3016 3291 2770 3770 
Q 2525 4250 2034 4250 
z
M 2034 4750 
Q 2819 4750 3233 4129 
Q 3647 3509 3647 2328 
Q 3647 1150 3233 529 
Q 2819 -91 2034 -91 
Q 1250 -91 836 529 
Q 422 1150 422 2328 
Q 422 3509 836 4129 
Q 1250 4750 2034 4750 
z
" transform="scale(0.015625)"/>
      <path id="DejaVuSans-2e" d="M 684 794 
L 1344 794 
L 1344 0 
L 684 0 
L 684 794 
z
" transform="scale(0.015625)"/>
      <path id="DejaVuSans-38" d="M 2034 2216 
Q 1584 2216 1326 1975 
Q 1069 1734 1069 1313 
Q 1069 891 1326 650 
Q 1584 409 2034 409 
Q 2484 409 2743 651 
Q 3003 894 3003 1313 
Q 3003 1734 2745 1975 
Q 2488 2216 2034 2216 
z
M 1403 2484 
Q 997 2584 770 2862 
Q 544 3141 544 3541 
Q 544 4100 942 4425 
Q 1341 4750 2034 4750 
Q 2731 4750 3128 4425 
Q 3525 4100 3525 3541 
Q 3525 3141 3298 2862 
Q 3072 2584 2669 2484 
Q 3125 2378 3379 2068 
Q 3634 1759 3634 1313 
Q 3634 634 3220 271 
Q 2806 -91 2034 -91 
Q 1263 -91 848 271 
Q 434 634 434 1313 
Q 434 1759 690 2068 
Q 947 2378 1403 2484 
z
M 1172 3481 
Q 1172 3119 1398 2916 
Q 1625 2713 2034 2713 
Q 2441 2713 2670 2916 
Q 2900 3119 2900 3481 
Q 2900 3844 2670 4047 
Q 2441 4250 2034 4250 
Q 1625 4250 1398 4047 
Q 1172 3844 1172 3481 
z
" transform="scale(0.015625)"/>
     </defs>
     <use xlink:href="#Pretendard-Regular-41" transform="translate(0 0.78125)"/>
     <use xlink:href="#Pretendard-Regular-4d" transform="translate(64.550781 0.78125)"/>
     <use xlink:href="#Pretendard-Regular-20" transform="translate(149.804688 0.78125)"/>
     <use xlink:href="#Pretendard-Regular-57" transform="translate(174.902344 0.78125)"/>
     <use xlink:href="#Pretendard-Regular-61" transform="translate(266.40625 0.78125)"/>
     <use xlink:href="#Pretendard-Regular-76" transform="translate(319.921875 0.78125)"/>
     <use xlink:href="#Pretendard-Regular-65" transform="translate(372.851562 0.78125)"/>
     <use xlink:href="#Pretendard-Regular-66" transform="translate(428.125 0.78125)"/>
     <use xlink:href="#Pretendard-Regular-6f" transform="translate(461.816406 0.78125)"/>
     <use xlink:href="#Pretendard-Regular-72" transform="translate(518.554688 0.78125)"/>
     <use xlink:href="#Pretendard-Regular-6d" transform="translate(553.515625 0.78125)"/>
     <use xlink:href="#Pretendard-Regular-20" transform="translate(636.914062 0.78125)"/>
     <use xlink:href="#Pretendard-Regular-28" transform="translate(662.011719 0.78125)"/>
     <use xlink:href="#Pretendard-Regular-49" transform="translate(696.09375 0.78125)"/>
     <use xlink:href="#Pretendard-Regular-6e" transform="translate(720.507812 0.78125)"/>
     <use xlink:href="#Pretendard-Regular-64" transform="translate(776.171875 0.78125)"/>
     <use xlink:href="#Pretendard-Regular-65" transform="translate(835.253906 0.78125)"/>
     <use xlink:href="#Pretendard-Regular-78" transform="translate(890.527344 0.78125)"/>
     <use xlink:href="#Pretendard-Regular-20" transform="translate(941.796875 0.78125)"/>
     <use xlink:href="#DejaVuSans-Oblique-3bc" transform="translate(966.894531 0.78125)"/>
     <use xlink:href="#DejaVuSans-3d" transform="translate(1050 0.78125)"/>
     <use xlink:href="#DejaVuSans-30" transform="translate(1153.271484 0.78125)"/>
     <use xlink:href="#DejaVuSans-2e" transform="translate(1216.894531 0.78125)"/>
     <use xlink:href="#DejaVuSans-38" transform="translate(1246.056641 0.78125)"/>
     <use xlink:href="#Pretendard-Regular-29" transform="translate(1309.679688 0.78125)"/>
    </g>
   </g>
  </g>
 </g>
 <defs>
  <clipPath id="p264763b747">
   <rect x="46.278125" y="22.2" width="446.4" height="166.32"/>
  </clipPath>
 </defs>
</svg>
