<?xml version="1.0" encoding="utf-8" standalone="no"?>
<!DOCTYPE svg PUBLIC "-//W3C//DTD SVG 1.1//EN"
  "http://www.w3.org/Graphics/SVG/1.1/DTD/svg11.dtd">
<svg xmlns:xlink="http://www.w3.org/1999/xlink" width="568.53pt" height="352.28875pt" viewBox="0 0 568.53 352.28875" xmlns="http://www.w3.org/2000/svg" version="1.1">
 <metadata>
  <rdf:RDF xmlns:dc="http://purl.org/dc/elements/1.1/" xmlns:cc="http://creativecommons.org/ns#" xmlns:rdf="http://www.w3.org/1999/02/22-rdf-syntax-ns#">
   <cc:Work>
    <dc:type rdf:resource="http://purl.org/dc/dcmitype/StillImage"/>
    <dc:date>2026-01-21T13:33:40.260734</dc:date>
    <dc:format>image/svg+xml</dc:format>
    <dc:creator>
     <cc:Agent>
      <dc:title>Matplotlib v3.10.8, https://matplotlib.org/</dc:title>
     </cc:Agent>
    </dc:creator>
   </cc:Work>
  </rdf:RDF>
 </metadata>
 <defs>
  <style type="text/css">*{stroke-linejoin: round; stroke-linecap: butt}</style>
 </defs>
 <g id="figure_1">
  <g id="patch_1">
   <path d="M 0 352.28875 
L 568.53 352.28875 
L 568.53 0 
L 0 0 
z
" style="fill: #ffffff"/>
  </g>
  <g id="axes_1">
   <g id="patch_2">
    <path d="M 51.35 313.58875 
L 561.33 313.58875 
L 561.33 22.90875 
L 51.35 22.90875 
z
" style="fill: #ffffff"/>
   </g>
   <g id="matplotlib.axis_1">
    <g id="xtick_1">
     <g id="line2d_1">
      <path d="M 74.530909 313.58875 
L 74.530909 22.90875 
" clip-path="url(#p27fe17fcab)" style="fill: none; stroke: #b0b0b0; stroke-opacity: 0.3; stroke-width: 0.8; stroke-linecap: square"/>
     </g>
     <g id="line2d_2">
      <defs>
       <path id="m1706d071b1" d="M 0 0 
L 0 3.5 
" style="stroke: #000000; stroke-width: 0.8"/>
      </defs>
      <g>
       <use xlink:href="#m1706d071b1" x="74.530909" y="313.58875" style="stroke: #000000; stroke-width: 0.8"/>
      </g>
     </g>
     <g id="text_1">
      <!-- 0.0 -->
      <g transform="translate(67.591065 328.548125) scale(0.1 -0.1)">
       <defs>
        <path id="NotoSansKR-Regular-30" d="M 1779 -83 
Q 1338 -83 1008 185 
Q 678 454 499 998 
Q 320 1542 320 2362 
Q 320 3181 499 3715 
Q 678 4250 1008 4512 
Q 1338 4774 1779 4774 
Q 2227 4774 2553 4508 
Q 2880 4243 3059 3712 
Q 3238 3181 3238 2362 
Q 3238 1542 3059 998 
Q 2880 454 2553 185 
Q 2227 -83 1779 -83 
z
M 1779 390 
Q 2048 390 2249 595 
Q 2451 800 2563 1238 
Q 2675 1677 2675 2362 
Q 2675 3046 2563 3478 
Q 2451 3910 2249 4112 
Q 2048 4314 1779 4314 
Q 1517 4314 1312 4112 
Q 1107 3910 995 3478 
Q 883 3046 883 2362 
Q 883 1677 995 1238 
Q 1107 800 1312 595 
Q 1517 390 1779 390 
z
" transform="scale(0.015625)"/>
        <path id="NotoSansKR-Regular-2e" d="M 890 -83 
Q 717 -83 592 41 
Q 467 166 467 358 
Q 467 563 592 684 
Q 717 806 890 806 
Q 1062 806 1187 684 
Q 1312 563 1312 358 
Q 1312 166 1187 41 
Q 1062 -83 890 -83 
z
" transform="scale(0.015625)"/>
       </defs>
       <use xlink:href="#NotoSansKR-Regular-30"/>
       <use xlink:href="#NotoSansKR-Regular-2e" transform="translate(55.499985 0)"/>
       <use xlink:href="#NotoSansKR-Regular-30" transform="translate(83.299973 0)"/>
      </g>
     </g>
    </g>
    <g id="xtick_2">
     <g id="line2d_3">
      <path d="M 167.254545 313.58875 
L 167.254545 22.90875 
" clip-path="url(#p27fe17fcab)" style="fill: none; stroke: #b0b0b0; stroke-opacity: 0.3; stroke-width: 0.8; stroke-linecap: square"/>
     </g>
     <g id="line2d_4">
      <g>
       <use xlink:href="#m1706d071b1" x="167.254545" y="313.58875" style="stroke: #000000; stroke-width: 0.8"/>
      </g>
     </g>
     <g id="text_2">
      <!-- 0.2 -->
      <g transform="translate(160.314702 328.548125) scale(0.1 -0.1)">
       <defs>
        <path id="NotoSansKR-Regular-32" d="M 282 0 
L 282 346 
Q 1018 992 1494 1523 
Q 1971 2054 2201 2512 
Q 2432 2970 2432 3373 
Q 2432 3642 2339 3853 
Q 2246 4064 2054 4182 
Q 1862 4301 1568 4301 
Q 1280 4301 1033 4147 
Q 787 3994 595 3757 
L 256 4090 
Q 538 4403 864 4588 
Q 1190 4774 1638 4774 
Q 2061 4774 2365 4604 
Q 2669 4435 2838 4124 
Q 3008 3814 3008 3398 
Q 3008 2931 2774 2451 
Q 2541 1971 2128 1475 
Q 1715 979 1165 461 
Q 1350 474 1552 490 
Q 1754 506 1933 506 
L 3232 506 
L 3232 0 
L 282 0 
z
" transform="scale(0.015625)"/>
       </defs>
       <use xlink:href="#NotoSansKR-Regular-30"/>
       <use xlink:href="#NotoSansKR-Regular-2e" transform="translate(55.499985 0)"/>
       <use xlink:href="#NotoSansKR-Regular-32" transform="translate(83.299973 0)"/>
      </g>
     </g>
    </g>
    <g id="xtick_3">
     <g id="line2d_5">
      <path d="M 259.978182 313.58875 
L 259.978182 22.90875 
" clip-path="url(#p27fe17fcab)" style="fill: none; stroke: #b0b0b0; stroke-opacity: 0.3; stroke-width: 0.8; stroke-linecap: square"/>
     </g>
     <g id="line2d_6">
      <g>
       <use xlink:href="#m1706d071b1" x="259.978182" y="313.58875" style="stroke: #000000; stroke-width: 0.8"/>
      </g>
     </g>
     <g id="text_3">
      <!-- 0.4 -->
      <g transform="translate(253.038338 328.548125) scale(0.1 -0.1)">
       <defs>
        <path id="NotoSansKR-Regular-34" d="M 2176 0 
L 2176 3200 
Q 2176 3373 2189 3622 
Q 2202 3872 2208 4051 
L 2182 4051 
Q 2093 3885 2000 3709 
Q 1907 3533 1805 3360 
L 736 1760 
L 3354 1760 
L 3354 1293 
L 128 1293 
L 128 1677 
L 2080 4691 
L 2726 4691 
L 2726 0 
L 2176 0 
z
" transform="scale(0.015625)"/>
       </defs>
       <use xlink:href="#NotoSansKR-Regular-30"/>
       <use xlink:href="#NotoSansKR-Regular-2e" transform="translate(55.499985 0)"/>
       <use xlink:href="#NotoSansKR-Regular-34" transform="translate(83.299973 0)"/>
      </g>
     </g>
    </g>
    <g id="xtick_4">
     <g id="line2d_7">
      <path d="M 352.701818 313.58875 
L 352.701818 22.90875 
" clip-path="url(#p27fe17fcab)" style="fill: none; stroke: #b0b0b0; stroke-opacity: 0.3; stroke-width: 0.8; stroke-linecap: square"/>
     </g>
     <g id="line2d_8">
      <g>
       <use xlink:href="#m1706d071b1" x="352.701818" y="313.58875" style="stroke: #000000; stroke-width: 0.8"/>
      </g>
     </g>
     <g id="text_4">
      <!-- 0.6 -->
      <g transform="translate(345.761974 328.548125) scale(0.1 -0.1)">
       <defs>
        <path id="NotoSansKR-Regular-36" d="M 1926 -83 
Q 1594 -83 1306 61 
Q 1018 205 806 496 
Q 595 787 476 1222 
Q 358 1658 358 2240 
Q 358 2925 499 3411 
Q 640 3898 883 4198 
Q 1126 4499 1440 4636 
Q 1754 4774 2093 4774 
Q 2458 4774 2726 4640 
Q 2995 4506 3194 4294 
L 2861 3936 
Q 2726 4102 2528 4198 
Q 2330 4294 2118 4294 
Q 1786 4294 1510 4099 
Q 1235 3904 1072 3456 
Q 909 3008 909 2240 
Q 909 1638 1027 1222 
Q 1146 806 1373 592 
Q 1600 378 1926 378 
Q 2157 378 2333 512 
Q 2509 646 2614 886 
Q 2720 1126 2720 1440 
Q 2720 1760 2627 1993 
Q 2534 2227 2348 2352 
Q 2163 2477 1875 2477 
Q 1651 2477 1388 2333 
Q 1126 2189 890 1837 
L 870 2298 
Q 1018 2490 1197 2627 
Q 1376 2765 1577 2838 
Q 1779 2912 1971 2912 
Q 2368 2912 2659 2749 
Q 2950 2586 3113 2259 
Q 3277 1933 3277 1440 
Q 3277 986 3091 643 
Q 2906 301 2602 109 
Q 2298 -83 1926 -83 
z
" transform="scale(0.015625)"/>
       </defs>
       <use xlink:href="#NotoSansKR-Regular-30"/>
       <use xlink:href="#NotoSansKR-Regular-2e" transform="translate(55.499985 0)"/>
       <use xlink:href="#NotoSansKR-Regular-36" transform="translate(83.299973 0)"/>
      </g>
     </g>
    </g>
    <g id="xtick_5">
     <g id="line2d_9">
      <path d="M 445.425455 313.58875 
L 445.425455 22.90875 
" clip-path="url(#p27fe17fcab)" style="fill: none; stroke: #b0b0b0; stroke-opacity: 0.3; stroke-width: 0.8; stroke-linecap: square"/>
     </g>
     <g id="line2d_10">
      <g>
       <use xlink:href="#m1706d071b1" x="445.425455" y="313.58875" style="stroke: #000000; stroke-width: 0.8"/>
      </g>
     </g>
     <g id="text_5">
      <!-- 0.8 -->
      <g transform="translate(438.485611 328.548125) scale(0.1 -0.1)">
       <defs>
        <path id="NotoSansKR-Regular-38" d="M 1792 -83 
Q 1357 -83 1017 77 
Q 678 237 486 518 
Q 294 800 294 1165 
Q 294 1478 419 1731 
Q 544 1984 742 2166 
Q 941 2349 1152 2464 
L 1152 2490 
Q 896 2669 707 2934 
Q 518 3200 518 3571 
Q 518 3930 688 4195 
Q 858 4461 1149 4611 
Q 1440 4762 1805 4762 
Q 2208 4762 2496 4602 
Q 2784 4442 2937 4166 
Q 3091 3891 3091 3526 
Q 3091 3283 2992 3065 
Q 2893 2848 2752 2678 
Q 2611 2509 2470 2394 
L 2470 2362 
Q 2675 2246 2854 2083 
Q 3034 1920 3146 1686 
Q 3258 1453 3258 1126 
Q 3258 794 3075 515 
Q 2893 237 2563 77 
Q 2234 -83 1792 -83 
z
M 2112 2547 
Q 2349 2758 2470 2998 
Q 2592 3238 2592 3494 
Q 2592 3731 2499 3916 
Q 2406 4102 2227 4214 
Q 2048 4326 1798 4326 
Q 1472 4326 1261 4121 
Q 1050 3917 1050 3571 
Q 1050 3296 1200 3107 
Q 1350 2918 1593 2787 
Q 1837 2656 2112 2547 
z
M 1798 352 
Q 2074 352 2275 454 
Q 2477 557 2589 736 
Q 2701 915 2701 1146 
Q 2701 1382 2598 1552 
Q 2496 1722 2326 1850 
Q 2157 1978 1933 2080 
Q 1709 2182 1459 2278 
Q 1178 2099 995 1827 
Q 813 1555 813 1216 
Q 813 973 941 774 
Q 1069 576 1296 464 
Q 1523 352 1798 352 
z
" transform="scale(0.015625)"/>
       </defs>
       <use xlink:href="#NotoSansKR-Regular-30"/>
       <use xlink:href="#NotoSansKR-Regular-2e" transform="translate(55.499985 0)"/>
       <use xlink:href="#NotoSansKR-Regular-38" transform="translate(83.299973 0)"/>
      </g>
     </g>
    </g>
    <g id="xtick_6">
     <g id="line2d_11">
      <path d="M 538.149091 313.58875 
L 538.149091 22.90875 
" clip-path="url(#p27fe17fcab)" style="fill: none; stroke: #b0b0b0; stroke-opacity: 0.3; stroke-width: 0.8; stroke-linecap: square"/>
     </g>
     <g id="line2d_12">
      <g>
       <use xlink:href="#m1706d071b1" x="538.149091" y="313.58875" style="stroke: #000000; stroke-width: 0.8"/>
      </g>
     </g>
     <g id="text_6">
      <!-- 1.0 -->
      <g transform="translate(531.209247 328.548125) scale(0.1 -0.1)">
       <defs>
        <path id="NotoSansKR-Regular-31" d="M 563 0 
L 563 486 
L 1613 486 
L 1613 3987 
L 774 3987 
L 774 4358 
Q 1088 4416 1321 4499 
Q 1555 4582 1747 4691 
L 2195 4691 
L 2195 486 
L 3136 486 
L 3136 0 
L 563 0 
z
" transform="scale(0.015625)"/>
       </defs>
       <use xlink:href="#NotoSansKR-Regular-31"/>
       <use xlink:href="#NotoSansKR-Regular-2e" transform="translate(55.499985 0)"/>
       <use xlink:href="#NotoSansKR-Regular-30" transform="translate(83.299973 0)"/>
      </g>
     </g>
    </g>
    <g id="text_7">
     <!-- Time (s) -->
     <g transform="translate(287.729844 342.798125) scale(0.1 -0.1)">
      <defs>
       <path id="NotoSansKR-Regular-54" d="M 1619 0 
L 1619 4192 
L 198 4192 
L 198 4691 
L 3635 4691 
L 3635 4192 
L 2214 4192 
L 2214 0 
L 1619 0 
z
" transform="scale(0.015625)"/>
       <path id="NotoSansKR-Regular-69" d="M 589 0 
L 589 3475 
L 1178 3475 
L 1178 0 
L 589 0 
z
M 883 4192 
Q 710 4192 604 4297 
Q 499 4403 499 4582 
Q 499 4755 604 4857 
Q 710 4960 883 4960 
Q 1056 4960 1165 4857 
Q 1274 4755 1274 4582 
Q 1274 4403 1165 4297 
Q 1056 4192 883 4192 
z
" transform="scale(0.015625)"/>
       <path id="NotoSansKR-Regular-6d" d="M 589 0 
L 589 3475 
L 1069 3475 
L 1126 2970 
L 1139 2970 
Q 1370 3219 1642 3392 
Q 1914 3565 2221 3565 
Q 2624 3565 2848 3385 
Q 3072 3206 3181 2899 
Q 3456 3194 3734 3379 
Q 4013 3565 4333 3565 
Q 4864 3565 5123 3216 
Q 5382 2867 5382 2202 
L 5382 0 
L 4800 0 
L 4800 2125 
Q 4800 2618 4643 2835 
Q 4486 3053 4154 3053 
Q 3955 3053 3740 2921 
Q 3526 2790 3277 2522 
L 3277 0 
L 2694 0 
L 2694 2125 
Q 2694 2618 2537 2835 
Q 2381 3053 2048 3053 
Q 1850 3053 1632 2921 
Q 1414 2790 1178 2522 
L 1178 0 
L 589 0 
z
" transform="scale(0.015625)"/>
       <path id="NotoSansKR-Regular-65" d="M 1997 -83 
Q 1530 -83 1152 134 
Q 774 352 553 758 
Q 333 1165 333 1734 
Q 333 2163 461 2499 
Q 589 2835 809 3075 
Q 1030 3315 1312 3440 
Q 1594 3565 1888 3565 
Q 2336 3565 2643 3366 
Q 2950 3168 3113 2800 
Q 3277 2432 3277 1933 
Q 3277 1837 3270 1753 
Q 3264 1670 3251 1600 
L 909 1600 
Q 928 1229 1078 957 
Q 1229 685 1478 534 
Q 1728 384 2061 384 
Q 2317 384 2525 457 
Q 2733 531 2931 659 
L 3136 269 
Q 2912 122 2630 19 
Q 2349 -83 1997 -83 
z
M 902 2016 
L 2765 2016 
Q 2765 2541 2537 2819 
Q 2310 3098 1901 3098 
Q 1658 3098 1443 2970 
Q 1229 2842 1085 2605 
Q 941 2368 902 2016 
z
" transform="scale(0.015625)"/>
       <path id="NotoSansKR-Regular-20" transform="scale(0.015625)"/>
       <path id="NotoSansKR-Regular-28" d="M 1530 -1254 
Q 1088 -538 838 252 
Q 589 1043 589 1990 
Q 589 2931 838 3724 
Q 1088 4518 1530 5235 
L 1888 5069 
Q 1478 4384 1276 3593 
Q 1075 2803 1075 1990 
Q 1075 1171 1276 380 
Q 1478 -410 1888 -1094 
L 1530 -1254 
z
" transform="scale(0.015625)"/>
       <path id="NotoSansKR-Regular-73" d="M 1498 -83 
Q 1133 -83 790 54 
Q 448 192 205 397 
L 486 787 
Q 717 602 960 486 
Q 1203 371 1517 371 
Q 1862 371 2032 528 
Q 2202 685 2202 915 
Q 2202 1094 2083 1212 
Q 1965 1331 1782 1417 
Q 1600 1504 1408 1574 
Q 1165 1670 931 1788 
Q 698 1907 547 2096 
Q 397 2285 397 2579 
Q 397 2861 537 3081 
Q 678 3302 947 3433 
Q 1216 3565 1594 3565 
Q 1914 3565 2192 3449 
Q 2470 3334 2669 3168 
L 2387 2803 
Q 2208 2931 2019 3020 
Q 1830 3110 1600 3110 
Q 1267 3110 1110 2960 
Q 954 2810 954 2605 
Q 954 2445 1059 2336 
Q 1165 2227 1337 2153 
Q 1510 2080 1702 2003 
Q 1894 1933 2083 1849 
Q 2272 1766 2422 1651 
Q 2573 1536 2665 1366 
Q 2758 1197 2758 947 
Q 2758 666 2614 429 
Q 2470 192 2192 54 
Q 1914 -83 1498 -83 
z
" transform="scale(0.015625)"/>
       <path id="NotoSansKR-Regular-29" d="M 634 -1254 
L 269 -1094 
Q 685 -410 889 380 
Q 1094 1171 1094 1990 
Q 1094 2803 889 3593 
Q 685 4384 269 5069 
L 634 5235 
Q 1082 4518 1328 3724 
Q 1574 2931 1574 1990 
Q 1574 1043 1328 252 
Q 1082 -538 634 -1254 
z
" transform="scale(0.015625)"/>
      </defs>
      <use xlink:href="#NotoSansKR-Regular-54"/>
      <use xlink:href="#NotoSansKR-Regular-69" transform="translate(59.899994 0)"/>
      <use xlink:href="#NotoSansKR-Regular-6d" transform="translate(87.399979 0)"/>
      <use xlink:href="#NotoSansKR-Regular-65" transform="translate(179.999969 0)"/>
      <use xlink:href="#NotoSansKR-Regular-20" transform="translate(235.399963 0)"/>
      <use xlink:href="#NotoSansKR-Regular-28" transform="translate(257.799957 0)"/>
      <use xlink:href="#NotoSansKR-Regular-73" transform="translate(291.599945 0)"/>
      <use xlink:href="#NotoSansKR-Regular-29" transform="translate(338.399933 0)"/>
     </g>
    </g>
   </g>
   <g id="matplotlib.axis_2">
    <g id="ytick_1">
     <g id="line2d_13">
      <path d="M 51.35 300.376023 
L 561.33 300.376023 
" clip-path="url(#p27fe17fcab)" style="fill: none; stroke: #b0b0b0; stroke-opacity: 0.3; stroke-width: 0.8; stroke-linecap: square"/>
     </g>
     <g id="line2d_14">
      <defs>
       <path id="m0930783823" d="M 0 0 
L -3.5 0 
" style="stroke: #000000; stroke-width: 0.8"/>
      </defs>
      <g>
       <use xlink:href="#m0930783823" x="51.35" y="300.376023" style="stroke: #000000; stroke-width: 0.8"/>
      </g>
     </g>
     <g id="text_8">
      <!-- -1.00 -->
      <g transform="translate(21.45 304.35571) scale(0.1 -0.1)">
       <defs>
        <path id="NotoSansKR-Regular-2d" d="M 294 1568 
L 294 2016 
L 1939 2016 
L 1939 1568 
L 294 1568 
z
" transform="scale(0.015625)"/>
       </defs>
       <use xlink:href="#NotoSansKR-Regular-2d"/>
       <use xlink:href="#NotoSansKR-Regular-31" transform="translate(34.699997 0)"/>
       <use xlink:href="#NotoSansKR-Regular-2e" transform="translate(90.199982 0)"/>
       <use xlink:href="#NotoSansKR-Regular-30" transform="translate(117.999969 0)"/>
       <use xlink:href="#NotoSansKR-Regular-30" transform="translate(173.499954 0)"/>
      </g>
     </g>
    </g>
    <g id="ytick_2">
     <g id="line2d_15">
      <path d="M 51.35 267.344205 
L 561.33 267.344205 
" clip-path="url(#p27fe17fcab)" style="fill: none; stroke: #b0b0b0; stroke-opacity: 0.3; stroke-width: 0.8; stroke-linecap: square"/>
     </g>
     <g id="line2d_16">
      <g>
       <use xlink:href="#m0930783823" x="51.35" y="267.344205" style="stroke: #000000; stroke-width: 0.8"/>
      </g>
     </g>
     <g id="text_9">
      <!-- -0.75 -->
      <g transform="translate(21.45 271.323892) scale(0.1 -0.1)">
       <defs>
        <path id="NotoSansKR-Regular-37" d="M 1267 0 
Q 1299 666 1379 1226 
Q 1459 1786 1612 2282 
Q 1766 2778 2006 3245 
Q 2246 3712 2592 4192 
L 314 4192 
L 314 4691 
L 3251 4691 
L 3251 4339 
Q 2842 3808 2582 3321 
Q 2323 2835 2179 2329 
Q 2035 1824 1968 1257 
Q 1901 691 1875 0 
L 1267 0 
z
" transform="scale(0.015625)"/>
        <path id="NotoSansKR-Regular-35" d="M 1677 -83 
Q 1312 -83 1033 6 
Q 755 96 547 237 
Q 339 378 173 538 
L 467 922 
Q 602 787 765 668 
Q 928 550 1139 476 
Q 1350 403 1619 403 
Q 1894 403 2121 537 
Q 2349 672 2483 921 
Q 2618 1171 2618 1510 
Q 2618 2010 2352 2294 
Q 2086 2579 1645 2579 
Q 1414 2579 1241 2508 
Q 1069 2438 864 2304 
L 550 2502 
L 704 4691 
L 2982 4691 
L 2982 4192 
L 1216 4192 
L 1094 2835 
Q 1248 2925 1417 2973 
Q 1587 3021 1798 3021 
Q 2189 3021 2509 2864 
Q 2829 2707 3021 2374 
Q 3213 2042 3213 1523 
Q 3213 1011 2992 652 
Q 2771 294 2419 105 
Q 2067 -83 1677 -83 
z
" transform="scale(0.015625)"/>
       </defs>
       <use xlink:href="#NotoSansKR-Regular-2d"/>
       <use xlink:href="#NotoSansKR-Regular-30" transform="translate(34.699997 0)"/>
       <use xlink:href="#NotoSansKR-Regular-2e" transform="translate(90.199982 0)"/>
       <use xlink:href="#NotoSansKR-Regular-37" transform="translate(117.999969 0)"/>
       <use xlink:href="#NotoSansKR-Regular-35" transform="translate(173.499954 0)"/>
      </g>
     </g>
    </g>
    <g id="ytick_3">
     <g id="line2d_17">
      <path d="M 51.35 234.312386 
L 561.33 234.312386 
" clip-path="url(#p27fe17fcab)" style="fill: none; stroke: #b0b0b0; stroke-opacity: 0.3; stroke-width: 0.8; stroke-linecap: square"/>
     </g>
     <g id="line2d_18">
      <g>
       <use xlink:href="#m0930783823" x="51.35" y="234.312386" style="stroke: #000000; stroke-width: 0.8"/>
      </g>
     </g>
     <g id="text_10">
      <!-- -0.50 -->
      <g transform="translate(21.45 238.292074) scale(0.1 -0.1)">
       <use xlink:href="#NotoSansKR-Regular-2d"/>
       <use xlink:href="#NotoSansKR-Regular-30" transform="translate(34.699997 0)"/>
       <use xlink:href="#NotoSansKR-Regular-2e" transform="translate(90.199982 0)"/>
       <use xlink:href="#NotoSansKR-Regular-35" transform="translate(117.999969 0)"/>
       <use xlink:href="#NotoSansKR-Regular-30" transform="translate(173.499954 0)"/>
      </g>
     </g>
    </g>
    <g id="ytick_4">
     <g id="line2d_19">
      <path d="M 51.35 201.280568 
L 561.33 201.280568 
" clip-path="url(#p27fe17fcab)" style="fill: none; stroke: #b0b0b0; stroke-opacity: 0.3; stroke-width: 0.8; stroke-linecap: square"/>
     </g>
     <g id="line2d_20">
      <g>
       <use xlink:href="#m0930783823" x="51.35" y="201.280568" style="stroke: #000000; stroke-width: 0.8"/>
      </g>
     </g>
     <g id="text_11">
      <!-- -0.25 -->
      <g transform="translate(21.45 205.260256) scale(0.1 -0.1)">
       <use xlink:href="#NotoSansKR-Regular-2d"/>
       <use xlink:href="#NotoSansKR-Regular-30" transform="translate(34.699997 0)"/>
       <use xlink:href="#NotoSansKR-Regular-2e" transform="translate(90.199982 0)"/>
       <use xlink:href="#NotoSansKR-Regular-32" transform="translate(117.999969 0)"/>
       <use xlink:href="#NotoSansKR-Regular-35" transform="translate(173.499954 0)"/>
      </g>
     </g>
    </g>
    <g id="ytick_5">
     <g id="line2d_21">
      <path d="M 51.35 168.24875 
L 561.33 168.24875 
" clip-path="url(#p27fe17fcab)" style="fill: none; stroke: #b0b0b0; stroke-opacity: 0.3; stroke-width: 0.8; stroke-linecap: square"/>
     </g>
     <g id="line2d_22">
      <g>
       <use xlink:href="#m0930783823" x="51.35" y="168.24875" style="stroke: #000000; stroke-width: 0.8"/>
      </g>
     </g>
     <g id="text_12">
      <!-- 0.00 -->
      <g transform="translate(24.920313 172.228437) scale(0.1 -0.1)">
       <use xlink:href="#NotoSansKR-Regular-30"/>
       <use xlink:href="#NotoSansKR-Regular-2e" transform="translate(55.499985 0)"/>
       <use xlink:href="#NotoSansKR-Regular-30" transform="translate(83.299973 0)"/>
       <use xlink:href="#NotoSansKR-Regular-30" transform="translate(138.799957 0)"/>
      </g>
     </g>
    </g>
    <g id="ytick_6">
     <g id="line2d_23">
      <path d="M 51.35 135.216932 
L 561.33 135.216932 
" clip-path="url(#p27fe17fcab)" style="fill: none; stroke: #b0b0b0; stroke-opacity: 0.3; stroke-width: 0.8; stroke-linecap: square"/>
     </g>
     <g id="line2d_24">
      <g>
       <use xlink:href="#m0930783823" x="51.35" y="135.216932" style="stroke: #000000; stroke-width: 0.8"/>
      </g>
     </g>
     <g id="text_13">
      <!-- 0.25 -->
      <g transform="translate(24.920313 139.196619) scale(0.1 -0.1)">
       <use xlink:href="#NotoSansKR-Regular-30"/>
       <use xlink:href="#NotoSansKR-Regular-2e" transform="translate(55.499985 0)"/>
       <use xlink:href="#NotoSansKR-Regular-32" transform="translate(83.299973 0)"/>
       <use xlink:href="#NotoSansKR-Regular-35" transform="translate(138.799957 0)"/>
      </g>
     </g>
    </g>
    <g id="ytick_7">
     <g id="line2d_25">
      <path d="M 51.35 102.185114 
L 561.33 102.185114 
" clip-path="url(#p27fe17fcab)" style="fill: none; stroke: #b0b0b0; stroke-opacity: 0.3; stroke-width: 0.8; stroke-linecap: square"/>
     </g>
     <g id="line2d_26">
      <g>
       <use xlink:href="#m0930783823" x="51.35" y="102.185114" style="stroke: #000000; stroke-width: 0.8"/>
      </g>
     </g>
     <g id="text_14">
      <!-- 0.50 -->
      <g transform="translate(24.920313 106.164801) scale(0.1 -0.1)">
       <use xlink:href="#NotoSansKR-Regular-30"/>
       <use xlink:href="#NotoSansKR-Regular-2e" transform="translate(55.499985 0)"/>
       <use xlink:href="#NotoSansKR-Regular-35" transform="translate(83.299973 0)"/>
       <use xlink:href="#NotoSansKR-Regular-30" transform="translate(138.799957 0)"/>
      </g>
     </g>
    </g>
    <g id="ytick_8">
     <g id="line2d_27">
      <path d="M 51.35 69.153295 
L 561.33 69.153295 
" clip-path="url(#p27fe17fcab)" style="fill: none; stroke: #b0b0b0; stroke-opacity: 0.3; stroke-width: 0.8; stroke-linecap: square"/>
     </g>
     <g id="line2d_28">
      <g>
       <use xlink:href="#m0930783823" x="51.35" y="69.153295" style="stroke: #000000; stroke-width: 0.8"/>
      </g>
     </g>
     <g id="text_15">
      <!-- 0.75 -->
      <g transform="translate(24.920313 73.132983) scale(0.1 -0.1)">
       <use xlink:href="#NotoSansKR-Regular-30"/>
       <use xlink:href="#NotoSansKR-Regular-2e" transform="translate(55.499985 0)"/>
       <use xlink:href="#NotoSansKR-Regular-37" transform="translate(83.299973 0)"/>
       <use xlink:href="#NotoSansKR-Regular-35" transform="translate(138.799957 0)"/>
      </g>
     </g>
    </g>
    <g id="ytick_9">
     <g id="line2d_29">
      <path d="M 51.35 36.121477 
L 561.33 36.121477 
" clip-path="url(#p27fe17fcab)" style="fill: none; stroke: #b0b0b0; stroke-opacity: 0.3; stroke-width: 0.8; stroke-linecap: square"/>
     </g>
     <g id="line2d_30">
      <g>
       <use xlink:href="#m0930783823" x="51.35" y="36.121477" style="stroke: #000000; stroke-width: 0.8"/>
      </g>
     </g>
     <g id="text_16">
      <!-- 1.00 -->
      <g transform="translate(24.920313 40.101165) scale(0.1 -0.1)">
       <use xlink:href="#NotoSansKR-Regular-31"/>
       <use xlink:href="#NotoSansKR-Regular-2e" transform="translate(55.499985 0)"/>
       <use xlink:href="#NotoSansKR-Regular-30" transform="translate(83.299973 0)"/>
       <use xlink:href="#NotoSansKR-Regular-30" transform="translate(138.799957 0)"/>
      </g>
     </g>
    </g>
    <g id="text_17">
     <!-- Amplitude -->
     <g transform="translate(15.159375 192.604219) rotate(-90) scale(0.1 -0.1)">
      <defs>
       <path id="NotoSansKR-Regular-41" d="M 26 0 
L 1613 4691 
L 2272 4691 
L 3866 0 
L 3238 0 
L 2419 2624 
Q 2291 3027 2176 3414 
Q 2061 3802 1946 4211 
L 1920 4211 
Q 1811 3802 1692 3414 
Q 1574 3027 1453 2624 
L 621 0 
L 26 0 
z
M 851 1434 
L 851 1901 
L 3014 1901 
L 3014 1434 
L 851 1434 
z
" transform="scale(0.015625)"/>
       <path id="NotoSansKR-Regular-70" d="M 589 -1466 
L 589 3475 
L 1069 3475 
L 1126 3072 
L 1139 3072 
Q 1376 3270 1661 3417 
Q 1946 3565 2246 3565 
Q 2694 3565 3004 3344 
Q 3315 3123 3472 2726 
Q 3629 2330 3629 1792 
Q 3629 1197 3414 777 
Q 3200 358 2857 137 
Q 2515 -83 2118 -83 
Q 1882 -83 1638 22 
Q 1395 128 1158 320 
L 1178 -288 
L 1178 -1466 
L 589 -1466 
z
M 2022 410 
Q 2310 410 2537 573 
Q 2765 736 2893 1046 
Q 3021 1357 3021 1786 
Q 3021 2170 2928 2461 
Q 2835 2752 2636 2912 
Q 2438 3072 2099 3072 
Q 1882 3072 1654 2950 
Q 1427 2829 1178 2598 
L 1178 768 
Q 1408 570 1632 490 
Q 1856 410 2022 410 
z
" transform="scale(0.015625)"/>
       <path id="NotoSansKR-Regular-6c" d="M 1203 -83 
Q 986 -83 851 6 
Q 717 96 653 272 
Q 589 448 589 691 
L 589 5094 
L 1178 5094 
L 1178 653 
Q 1178 518 1226 460 
Q 1274 403 1338 403 
Q 1363 403 1388 406 
Q 1414 410 1459 416 
L 1542 -32 
Q 1478 -51 1401 -67 
Q 1325 -83 1203 -83 
z
" transform="scale(0.015625)"/>
       <path id="NotoSansKR-Regular-74" d="M 1677 -83 
Q 1312 -83 1094 61 
Q 877 205 784 467 
Q 691 730 691 1075 
L 691 3002 
L 173 3002 
L 173 3443 
L 723 3475 
L 787 4454 
L 1274 4454 
L 1274 3475 
L 2221 3475 
L 2221 3002 
L 1274 3002 
L 1274 1056 
Q 1274 742 1392 566 
Q 1510 390 1811 390 
Q 1907 390 2016 419 
Q 2125 448 2208 486 
L 2323 45 
Q 2176 -6 2009 -44 
Q 1843 -83 1677 -83 
z
" transform="scale(0.015625)"/>
       <path id="NotoSansKR-Regular-75" d="M 1606 -83 
Q 1056 -83 797 262 
Q 538 608 538 1274 
L 538 3475 
L 1126 3475 
L 1126 1344 
Q 1126 864 1280 643 
Q 1434 422 1779 422 
Q 2048 422 2259 563 
Q 2470 704 2720 1011 
L 2720 3475 
L 3302 3475 
L 3302 0 
L 2816 0 
L 2771 544 
L 2752 544 
Q 2509 262 2237 89 
Q 1965 -83 1606 -83 
z
" transform="scale(0.015625)"/>
       <path id="NotoSansKR-Regular-64" d="M 1773 -83 
Q 1338 -83 1014 128 
Q 691 339 515 745 
Q 339 1152 339 1734 
Q 339 2298 550 2707 
Q 762 3117 1104 3341 
Q 1446 3565 1843 3565 
Q 2150 3565 2371 3459 
Q 2592 3354 2822 3162 
L 2790 3757 
L 2790 5094 
L 3379 5094 
L 3379 0 
L 2899 0 
L 2848 410 
L 2829 410 
Q 2624 205 2355 61 
Q 2086 -83 1773 -83 
z
M 1901 410 
Q 2144 410 2361 528 
Q 2579 646 2790 883 
L 2790 2707 
Q 2573 2906 2368 2989 
Q 2163 3072 1946 3072 
Q 1670 3072 1443 2902 
Q 1216 2733 1078 2435 
Q 941 2138 941 1741 
Q 941 1325 1056 1024 
Q 1171 723 1385 566 
Q 1600 410 1901 410 
z
" transform="scale(0.015625)"/>
      </defs>
      <use xlink:href="#NotoSansKR-Regular-41"/>
      <use xlink:href="#NotoSansKR-Regular-6d" transform="translate(60.799988 0)"/>
      <use xlink:href="#NotoSansKR-Regular-70" transform="translate(153.399979 0)"/>
      <use xlink:href="#NotoSansKR-Regular-6c" transform="translate(215.399963 0)"/>
      <use xlink:href="#NotoSansKR-Regular-69" transform="translate(243.799957 0)"/>
      <use xlink:href="#NotoSansKR-Regular-74" transform="translate(271.299942 0)"/>
      <use xlink:href="#NotoSansKR-Regular-75" transform="translate(308.999939 0)"/>
      <use xlink:href="#NotoSansKR-Regular-64" transform="translate(369.699936 0)"/>
      <use xlink:href="#NotoSansKR-Regular-65" transform="translate(431.699921 0)"/>
     </g>
    </g>
   </g>
   <g id="line2d_31">
    <path d="M 74.530909 36.121477 
L 74.994991 36.333099 
L 75.459074 36.967286 
L 75.923156 38.022008 
L 76.387238 39.493885 
L 77.315403 43.668925 
L 78.243567 49.438953 
L 79.171732 56.730097 
L 80.099896 65.449008 
L 81.492143 80.955601 
L 82.88439 98.973459 
L 84.740719 125.999215 
L 87.989295 177.589827 
L 90.773788 220.962954 
L 92.630117 246.81601 
L 94.022364 263.63884 
L 95.414611 277.71747 
L 96.342776 285.375044 
L 97.27094 291.533055 
L 98.199105 296.112665 
L 99.127269 299.05524 
L 99.591351 299.900033 
L 100.055434 300.323107 
L 100.519516 300.323107 
L 100.983598 299.900033 
L 101.44768 299.05524 
L 101.911763 297.791435 
L 102.839927 294.024309 
L 103.768092 288.646885 
L 104.696256 281.728011 
L 105.624421 273.356268 
L 107.016668 258.313741 
L 108.408914 240.680208 
L 110.265243 214.024105 
L 113.049737 170.118463 
L 116.298313 118.98424 
L 118.154642 92.719142 
L 119.546889 75.484058 
L 120.939135 60.917645 
L 121.8673 52.899776 
L 122.795465 46.358714 
L 123.723629 41.378202 
L 124.651794 38.022008 
L 125.115876 36.967286 
L 125.579958 36.333099 
L 126.04404 36.121477 
L 126.508123 36.333099 
L 126.972205 36.967286 
L 127.436287 38.022008 
L 127.900369 39.493885 
L 128.828534 43.668925 
L 129.756699 49.438953 
L 130.684863 56.730097 
L 131.613028 65.449008 
L 133.005274 80.955601 
L 134.397521 98.973459 
L 136.25385 125.999215 
L 139.502426 177.589827 
L 142.28692 220.962954 
L 144.143249 246.81601 
L 145.535495 263.63884 
L 146.927742 277.71747 
L 147.855907 285.375044 
L 148.784071 291.533055 
L 149.712236 296.112665 
L 150.6404 299.05524 
L 151.104483 299.900033 
L 151.568565 300.323107 
L 152.032647 300.323107 
L 152.496729 299.900033 
L 152.960812 299.05524 
L 153.424894 297.791435 
L 154.353059 294.024309 
L 155.281223 288.646885 
L 156.209388 281.728011 
L 157.137552 273.356268 
L 158.529799 258.313741 
L 159.922046 240.680208 
L 161.778375 214.024105 
L 164.562868 170.118463 
L 167.811444 118.98424 
L 169.667773 92.719142 
L 171.06002 75.484058 
L 172.452267 60.917645 
L 173.380431 52.899776 
L 174.308596 46.358714 
L 175.23676 41.378202 
L 176.164925 38.022008 
L 176.629007 36.967286 
L 177.093089 36.333099 
L 177.557172 36.121477 
L 178.021254 36.333099 
L 178.485336 36.967286 
L 178.949419 38.022008 
L 179.413501 39.493885 
L 180.341665 43.668925 
L 181.26983 49.438953 
L 182.197994 56.730097 
L 183.126159 65.449008 
L 184.518406 80.955601 
L 185.910652 98.973459 
L 187.766982 125.999215 
L 191.015557 177.589827 
L 193.800051 220.962954 
L 195.65638 246.81601 
L 197.048627 263.63884 
L 198.440874 277.71747 
L 199.369038 285.375044 
L 200.297203 291.533055 
L 201.225367 296.112665 
L 202.153532 299.05524 
L 202.617614 299.900033 
L 203.081696 300.323107 
L 203.545779 300.323107 
L 204.009861 299.900033 
L 204.473943 299.05524 
L 204.938025 297.791435 
L 205.86619 294.024309 
L 206.794354 288.646885 
L 207.722519 281.728011 
L 208.650683 273.356268 
L 210.04293 258.313741 
L 211.435177 240.680208 
L 213.291506 214.024105 
L 216.076 170.118463 
L 219.324575 118.98424 
L 221.180905 92.719142 
L 222.573151 75.484058 
L 223.965398 60.917645 
L 224.893563 52.899776 
L 225.821727 46.358714 
L 226.749892 41.378202 
L 227.678056 38.022008 
L 228.142139 36.967286 
L 228.606221 36.333099 
L 229.070303 36.121477 
L 229.534385 36.333099 
L 229.998468 36.967286 
L 230.46255 38.022008 
L 230.926632 39.493885 
L 231.854797 43.668925 
L 232.782961 49.438953 
L 233.711126 56.730097 
L 234.63929 65.449008 
L 236.031537 80.955601 
L 237.423784 98.973459 
L 239.280113 125.999215 
L 242.528689 177.589827 
L 245.313182 220.962954 
L 247.169511 246.81601 
L 248.561758 263.63884 
L 249.954005 277.71747 
L 250.882169 285.375044 
L 251.810334 291.533055 
L 252.738498 296.112665 
L 253.666663 299.05524 
L 254.130745 299.900033 
L 254.594828 300.323107 
L 255.05891 300.323107 
L 255.522992 299.900033 
L 255.987074 299.05524 
L 256.451157 297.791435 
L 257.379321 294.024309 
L 258.307486 288.646885 
L 259.23565 281.728011 
L 260.163815 273.356268 
L 261.556062 258.313741 
L 262.948308 240.680208 
L 264.804637 214.024105 
L 267.589131 170.118463 
L 270.837707 118.98424 
L 272.694036 92.719142 
L 274.086283 75.484058 
L 275.478529 60.917645 
L 276.406694 52.899776 
L 277.334858 46.358714 
L 278.263023 41.378202 
L 279.191188 38.022008 
L 279.65527 36.967286 
L 280.119352 36.333099 
L 280.583434 36.121477 
L 281.047517 36.333099 
L 281.511599 36.967286 
L 281.975681 38.022008 
L 282.439763 39.493885 
L 283.367928 43.668925 
L 284.296092 49.438953 
L 285.224257 56.730097 
L 286.152422 65.449008 
L 287.544668 80.955601 
L 288.936915 98.973459 
L 290.793244 125.999215 
L 294.04182 177.589827 
L 296.826314 220.962954 
L 298.682643 246.81601 
L 300.074889 263.63884 
L 301.467136 277.71747 
L 302.395301 285.375044 
L 303.323465 291.533055 
L 304.25163 296.112665 
L 305.179794 299.05524 
L 305.643877 299.900033 
L 306.107959 300.323107 
L 306.572041 300.323107 
L 307.036123 299.900033 
L 307.500206 299.05524 
L 307.964288 297.791435 
L 308.892452 294.024309 
L 309.820617 288.646885 
L 310.748782 281.728011 
L 311.676946 273.356268 
L 313.069193 258.313741 
L 314.46144 240.680208 
L 316.317769 214.024105 
L 319.102262 170.118463 
L 322.350838 118.98424 
L 324.207167 92.719142 
L 325.599414 75.484058 
L 326.991661 60.917645 
L 327.919825 52.899776 
L 328.84799 46.358714 
L 329.776154 41.378202 
L 330.704319 38.022008 
L 331.168401 36.967286 
L 331.632483 36.333099 
L 332.096566 36.121477 
L 332.560648 36.333099 
L 333.02473 36.967286 
L 333.488812 38.022008 
L 333.952895 39.493885 
L 334.881059 43.668925 
L 335.809224 49.438953 
L 336.737388 56.730097 
L 337.665553 65.449008 
L 339.0578 80.955601 
L 340.450046 98.973459 
L 342.306375 125.999215 
L 345.554951 177.589827 
L 348.339445 220.962954 
L 350.195774 246.81601 
L 351.588021 263.63884 
L 352.980268 277.71747 
L 353.908432 285.375044 
L 354.836597 291.533055 
L 355.764761 296.112665 
L 356.692926 299.05524 
L 357.157008 299.900033 
L 357.62109 300.323107 
L 358.085172 300.323107 
L 358.549255 299.900033 
L 359.013337 299.05524 
L 359.477419 297.791435 
L 360.405584 294.024309 
L 361.333748 288.646885 
L 362.261913 281.728011 
L 363.190077 273.356268 
L 364.582324 258.313741 
L 365.974571 240.680208 
L 367.8309 214.024105 
L 370.615394 170.118463 
L 373.863969 118.98424 
L 375.720298 92.719142 
L 377.112545 75.484058 
L 378.504792 60.917645 
L 379.432957 52.899776 
L 380.361121 46.358714 
L 381.289286 41.378202 
L 382.21745 38.022008 
L 382.681532 36.967286 
L 383.145615 36.333099 
L 383.609697 36.121477 
L 384.073779 36.333099 
L 384.537861 36.967286 
L 385.001944 38.022008 
L 385.466026 39.493885 
L 386.394191 43.668925 
L 387.322355 49.438953 
L 388.25052 56.730097 
L 389.178684 65.449008 
L 390.570931 80.955601 
L 391.963178 98.973459 
L 393.819507 125.999215 
L 397.068083 177.589827 
L 399.852576 220.962954 
L 401.708905 246.81601 
L 403.101152 263.63884 
L 404.493399 277.71747 
L 405.421563 285.375044 
L 406.349728 291.533055 
L 407.277892 296.112665 
L 408.206057 299.05524 
L 408.670139 299.900033 
L 409.134221 300.323107 
L 409.598304 300.323107 
L 410.062386 299.900033 
L 410.526468 299.05524 
L 410.990551 297.791435 
L 411.918715 294.024309 
L 412.84688 288.646885 
L 413.775044 281.728011 
L 414.703209 273.356268 
L 416.095455 258.313741 
L 417.487702 240.680208 
L 419.344031 214.024105 
L 422.128525 170.118463 
L 425.377101 118.98424 
L 427.23343 92.719142 
L 428.625677 75.484058 
L 430.017923 60.917645 
L 430.946088 52.899776 
L 431.874252 46.358714 
L 432.802417 41.378202 
L 433.730581 38.022008 
L 434.194664 36.967286 
L 434.658746 36.333099 
L 435.122828 36.121477 
L 435.586911 36.333099 
L 436.050993 36.967286 
L 436.515075 38.022008 
L 436.979157 39.493885 
L 437.907322 43.668925 
L 438.835486 49.438953 
L 439.763651 56.730097 
L 440.691815 65.449008 
L 442.084062 80.955601 
L 443.476309 98.973459 
L 445.332638 125.999215 
L 448.581214 177.589827 
L 451.365708 220.962954 
L 453.222037 246.81601 
L 454.614283 263.63884 
L 456.00653 277.71747 
L 456.934695 285.375044 
L 457.862859 291.533055 
L 458.791024 296.112665 
L 459.719188 299.05524 
L 460.183271 299.900033 
L 460.647353 300.323107 
L 461.111435 300.323107 
L 461.575517 299.900033 
L 462.0396 299.05524 
L 462.503682 297.791435 
L 463.431846 294.024309 
L 464.360011 288.646885 
L 465.288175 281.728011 
L 466.21634 273.356268 
L 467.608587 258.313741 
L 469.000834 240.680208 
L 470.857163 214.024105 
L 473.641656 170.118463 
L 476.890232 118.98424 
L 478.746561 92.719142 
L 480.138808 75.484058 
L 481.531055 60.917645 
L 482.459219 52.899776 
L 483.387384 46.358714 
L 484.315548 41.378202 
L 485.243713 38.022008 
L 485.707795 36.967286 
L 486.171877 36.333099 
L 486.63596 36.121477 
L 487.100042 36.333099 
L 487.564124 36.967286 
L 488.028206 38.022008 
L 488.492289 39.493885 
L 489.420453 43.668925 
L 490.348618 49.438953 
L 491.276782 56.730097 
L 492.204947 65.449008 
L 493.597194 80.955601 
L 494.98944 98.973459 
L 496.845769 125.999215 
L 500.094345 177.589827 
L 502.878839 220.962954 
L 504.735168 246.81601 
L 506.127415 263.63884 
L 507.519661 277.71747 
L 508.447826 285.375044 
L 509.375991 291.533055 
L 510.304155 296.112665 
L 511.23232 299.05524 
L 511.696402 299.900033 
L 512.160484 300.323107 
L 512.624566 300.323107 
L 513.088649 299.900033 
L 513.552731 299.05524 
L 514.016813 297.791435 
L 514.944978 294.024309 
L 515.873142 288.646885 
L 516.801307 281.728011 
L 517.729471 273.356268 
L 519.121718 258.313741 
L 520.513965 240.680208 
L 522.370294 214.024105 
L 525.154788 170.118463 
L 528.403363 118.98424 
L 530.259692 92.719142 
L 531.651939 75.484058 
L 533.044186 60.917645 
L 533.972351 52.899776 
L 534.900515 46.358714 
L 535.82868 41.378202 
L 536.756844 38.022008 
L 537.220926 36.967286 
L 537.685009 36.333099 
L 538.149091 36.121477 
L 538.149091 36.121477 
" clip-path="url(#p27fe17fcab)" style="fill: none; stroke: #0000ff; stroke-opacity: 0.3; stroke-width: 1.5; stroke-linecap: square"/>
   </g>
   <g id="LineCollection_1">
    <path d="M 74.530909 168.24875 
L 74.530909 36.121477 
" clip-path="url(#p27fe17fcab)" style="fill: none; stroke-dasharray: 1.5,2.475; stroke-dashoffset: 0; stroke: #000000; stroke-width: 1.5"/>
    <path d="M 120.892727 168.24875 
L 120.892727 61.355541 
" clip-path="url(#p27fe17fcab)" style="fill: none; stroke-dasharray: 1.5,2.475; stroke-dashoffset: 0; stroke: #000000; stroke-width: 1.5"/>
    <path d="M 167.254545 168.24875 
L 167.254545 127.419177 
" clip-path="url(#p27fe17fcab)" style="fill: none; stroke-dasharray: 1.5,2.475; stroke-dashoffset: 0; stroke: #000000; stroke-width: 1.5"/>
    <path d="M 213.616364 168.24875 
L 213.616364 209.078323 
" clip-path="url(#p27fe17fcab)" style="fill: none; stroke-dasharray: 1.5,2.475; stroke-dashoffset: 0; stroke: #000000; stroke-width: 1.5"/>
    <path d="M 259.978182 168.24875 
L 259.978182 275.141959 
" clip-path="url(#p27fe17fcab)" style="fill: none; stroke-dasharray: 1.5,2.475; stroke-dashoffset: 0; stroke: #000000; stroke-width: 1.5"/>
    <path d="M 306.34 168.24875 
L 306.34 300.376023 
" clip-path="url(#p27fe17fcab)" style="fill: none; stroke-dasharray: 1.5,2.475; stroke-dashoffset: 0; stroke: #000000; stroke-width: 1.5"/>
    <path d="M 352.701818 168.24875 
L 352.701818 275.141959 
" clip-path="url(#p27fe17fcab)" style="fill: none; stroke-dasharray: 1.5,2.475; stroke-dashoffset: 0; stroke: #000000; stroke-width: 1.5"/>
    <path d="M 399.063636 168.24875 
L 399.063636 209.078323 
" clip-path="url(#p27fe17fcab)" style="fill: none; stroke-dasharray: 1.5,2.475; stroke-dashoffset: 0; stroke: #000000; stroke-width: 1.5"/>
    <path d="M 445.425455 168.24875 
L 445.425455 127.419177 
" clip-path="url(#p27fe17fcab)" style="fill: none; stroke-dasharray: 1.5,2.475; stroke-dashoffset: 0; stroke: #000000; stroke-width: 1.5"/>
    <path d="M 491.787273 168.24875 
L 491.787273 61.355541 
" clip-path="url(#p27fe17fcab)" style="fill: none; stroke-dasharray: 1.5,2.475; stroke-dashoffset: 0; stroke: #000000; stroke-width: 1.5"/>
   </g>
   <g id="line2d_32">
    <defs>
     <path id="m791ae93bf1" d="M 0 3 
C 0.795609 3 1.55874 2.683901 2.12132 2.12132 
C 2.683901 1.55874 3 0.795609 3 0 
C 3 -0.795609 2.683901 -1.55874 2.12132 -2.12132 
C 1.55874 -2.683901 0.795609 -3 0 -3 
C -0.795609 -3 -1.55874 -2.683901 -2.12132 -2.12132 
C -2.683901 -1.55874 -3 -0.795609 -3 0 
C -3 0.795609 -2.683901 1.55874 -2.12132 2.12132 
C -1.55874 2.683901 -0.795609 3 0 3 
z
" style="stroke: #000000"/>
    </defs>
    <g clip-path="url(#p27fe17fcab)">
     <use xlink:href="#m791ae93bf1" x="74.530909" y="36.121477" style="stroke: #000000"/>
     <use xlink:href="#m791ae93bf1" x="120.892727" y="61.355541" style="stroke: #000000"/>
     <use xlink:href="#m791ae93bf1" x="167.254545" y="127.419177" style="stroke: #000000"/>
     <use xlink:href="#m791ae93bf1" x="213.616364" y="209.078323" style="stroke: #000000"/>
     <use xlink:href="#m791ae93bf1" x="259.978182" y="275.141959" style="stroke: #000000"/>
     <use xlink:href="#m791ae93bf1" x="306.34" y="300.376023" style="stroke: #000000"/>
     <use xlink:href="#m791ae93bf1" x="352.701818" y="275.141959" style="stroke: #000000"/>
     <use xlink:href="#m791ae93bf1" x="399.063636" y="209.078323" style="stroke: #000000"/>
     <use xlink:href="#m791ae93bf1" x="445.425455" y="127.419177" style="stroke: #000000"/>
     <use xlink:href="#m791ae93bf1" x="491.787273" y="61.355541" style="stroke: #000000"/>
    </g>
   </g>
   <g id="line2d_33"/>
   <g id="line2d_34">
    <path d="M 74.530909 36.121477 
L 77.779485 36.249509 
L 81.028061 36.633356 
L 84.276637 37.272273 
L 87.525212 38.165024 
L 90.773788 39.309878 
L 94.022364 40.704615 
L 97.27094 42.346534 
L 100.519516 44.232452 
L 103.768092 46.358714 
L 107.48075 49.077719 
L 111.193408 52.098363 
L 114.906066 55.413001 
L 118.618724 59.013243 
L 122.795465 63.393527 
L 126.972205 68.109694 
L 131.148945 73.146636 
L 135.789768 79.099799 
L 140.430591 85.405497 
L 145.535495 92.719142 
L 151.104483 101.108554 
L 157.137552 110.626912 
L 163.634704 121.306131 
L 171.06002 133.951369 
L 180.341665 150.230577 
L 213.755588 209.315351 
L 221.180905 221.723915 
L 227.678056 232.141725 
L 233.247043 240.680208 
L 238.816031 248.806297 
L 243.920935 255.853376 
L 248.561758 261.896936 
L 253.202581 267.570169 
L 257.379321 272.340876 
L 261.556062 276.778144 
L 265.732802 280.86776 
L 269.44546 284.200501 
L 273.158118 287.239752 
L 276.870776 289.97782 
L 280.119352 292.121097 
L 283.367928 294.024309 
L 286.616504 295.683767 
L 289.86508 297.096256 
L 293.113655 298.259038 
L 296.362231 299.169859 
L 299.610807 299.826955 
L 302.859383 300.229051 
L 306.107959 300.375369 
L 309.356535 300.265626 
L 312.605111 299.900033 
L 315.853686 299.279299 
L 319.102262 298.404628 
L 322.350838 297.277714 
L 325.599414 295.900741 
L 328.84799 294.276378 
L 332.096566 292.407773 
L 335.345142 290.298548 
L 339.0578 287.598631 
L 342.770458 284.596623 
L 346.483116 281.300121 
L 350.195774 277.71747 
L 354.372514 273.356268 
L 358.549255 268.658375 
L 362.725995 263.63884 
L 367.366818 257.703933 
L 372.00764 251.415281 
L 377.112545 244.118907 
L 382.681532 235.746475 
L 388.714602 226.244213 
L 395.211754 215.579534 
L 402.63707 202.947224 
L 411.918715 186.678458 
L 445.79672 126.787426 
L 453.222037 114.393896 
L 459.719188 103.992398 
L 465.288175 95.470142 
L 470.857163 87.362257 
L 475.962068 80.333514 
L 480.60289 74.307915 
L 485.243713 68.6538 
L 489.420453 63.901226 
L 493.597194 59.482909 
L 497.773934 55.413001 
L 501.486592 52.098363 
L 505.19925 49.077719 
L 508.911908 46.358714 
L 512.160484 44.232452 
L 515.40906 42.346534 
L 518.657636 40.704615 
L 521.906212 39.309878 
L 525.154788 38.165024 
L 528.403363 37.272273 
L 531.651939 36.633356 
L 534.900515 36.249509 
L 538.149091 36.121477 
L 538.149091 36.121477 
" clip-path="url(#p27fe17fcab)" style="fill: none; stroke-dasharray: 7.4,3.2; stroke-dashoffset: 0; stroke: #ff0000; stroke-width: 2"/>
   </g>
   <g id="patch_3">
    <path d="M 51.35 313.58875 
L 51.35 22.90875 
" style="fill: none; stroke: #000000; stroke-width: 0.8; stroke-linejoin: miter; stroke-linecap: square"/>
   </g>
   <g id="patch_4">
    <path d="M 51.35 313.58875 
L 561.33 313.58875 
" style="fill: none; stroke: #000000; stroke-width: 0.8; stroke-linejoin: miter; stroke-linecap: square"/>
   </g>
   <g id="text_18">
    <!-- Aliasing Effect: 9Hz Signal Sampled at 10Hz -->
    <g transform="translate(186.247187 16.90875) scale(0.12 -0.12)">
     <defs>
      <path id="NotoSansKR-Regular-61" d="M 1389 -83 
Q 1101 -83 870 32 
Q 640 147 509 368 
Q 378 589 378 902 
Q 378 1472 886 1776 
Q 1395 2080 2509 2202 
Q 2509 2426 2448 2627 
Q 2387 2829 2233 2953 
Q 2080 3078 1792 3078 
Q 1491 3078 1225 2960 
Q 960 2842 749 2707 
L 525 3110 
Q 685 3213 896 3318 
Q 1107 3424 1356 3494 
Q 1606 3565 1888 3565 
Q 2310 3565 2576 3385 
Q 2842 3206 2966 2889 
Q 3091 2573 3091 2138 
L 3091 0 
L 2611 0 
L 2560 416 
L 2541 416 
Q 2298 211 2006 64 
Q 1715 -83 1389 -83 
z
M 1555 390 
Q 1805 390 2032 505 
Q 2259 621 2509 845 
L 2509 1811 
Q 1926 1747 1580 1628 
Q 1235 1510 1088 1340 
Q 941 1171 941 941 
Q 941 640 1120 515 
Q 1299 390 1555 390 
z
" transform="scale(0.015625)"/>
      <path id="NotoSansKR-Regular-6e" d="M 589 0 
L 589 3475 
L 1069 3475 
L 1126 2970 
L 1139 2970 
Q 1389 3219 1667 3392 
Q 1946 3565 2304 3565 
Q 2854 3565 3110 3216 
Q 3366 2867 3366 2202 
L 3366 0 
L 2784 0 
L 2784 2125 
Q 2784 2618 2627 2835 
Q 2470 3053 2125 3053 
Q 1856 3053 1645 2918 
Q 1434 2784 1178 2522 
L 1178 0 
L 589 0 
z
" transform="scale(0.015625)"/>
      <path id="NotoSansKR-Regular-67" d="M 1760 -1600 
Q 1338 -1600 1011 -1491 
Q 685 -1382 505 -1174 
Q 326 -966 326 -672 
Q 326 -448 460 -240 
Q 595 -32 838 115 
L 838 147 
Q 704 230 614 371 
Q 525 512 525 717 
Q 525 934 649 1100 
Q 774 1267 909 1363 
L 909 1389 
Q 736 1523 595 1766 
Q 454 2010 454 2323 
Q 454 2707 633 2985 
Q 813 3264 1110 3414 
Q 1408 3565 1754 3565 
Q 1907 3565 2032 3539 
Q 2157 3514 2246 3475 
L 3456 3475 
L 3456 3027 
L 2746 3027 
Q 2874 2906 2950 2720 
Q 3027 2534 3027 2310 
Q 3027 1939 2857 1667 
Q 2688 1395 2400 1248 
Q 2112 1101 1754 1101 
Q 1632 1101 1494 1133 
Q 1357 1165 1242 1222 
Q 1146 1146 1082 1050 
Q 1018 954 1018 806 
Q 1018 646 1146 537 
Q 1274 429 1626 429 
L 2310 429 
Q 2912 429 3216 230 
Q 3520 32 3520 -397 
Q 3520 -717 3302 -992 
Q 3085 -1267 2691 -1433 
Q 2298 -1600 1760 -1600 
z
M 1754 1498 
Q 1958 1498 2128 1600 
Q 2298 1702 2397 1888 
Q 2496 2074 2496 2323 
Q 2496 2579 2397 2761 
Q 2298 2944 2131 3040 
Q 1965 3136 1754 3136 
Q 1555 3136 1385 3040 
Q 1216 2944 1117 2765 
Q 1018 2586 1018 2323 
Q 1018 2074 1120 1888 
Q 1222 1702 1388 1600 
Q 1555 1498 1754 1498 
z
M 1843 -1197 
Q 2176 -1197 2422 -1094 
Q 2669 -992 2806 -829 
Q 2944 -666 2944 -493 
Q 2944 -243 2765 -147 
Q 2586 -51 2240 -51 
L 1638 -51 
Q 1542 -51 1424 -41 
Q 1306 -32 1190 0 
Q 1005 -128 921 -285 
Q 838 -442 838 -589 
Q 838 -864 1104 -1030 
Q 1370 -1197 1843 -1197 
z
" transform="scale(0.015625)"/>
      <path id="NotoSansKR-Regular-45" d="M 646 0 
L 646 4691 
L 3347 4691 
L 3347 4192 
L 1235 4192 
L 1235 2720 
L 3014 2720 
L 3014 2214 
L 1235 2214 
L 1235 506 
L 3418 506 
L 3418 0 
L 646 0 
z
" transform="scale(0.015625)"/>
      <path id="NotoSansKR-Regular-66" d="M 685 0 
L 685 4032 
Q 685 4384 793 4640 
Q 902 4896 1126 5037 
Q 1350 5178 1696 5178 
Q 1856 5178 2006 5146 
Q 2157 5114 2278 5069 
L 2150 4614 
Q 1958 4710 1760 4710 
Q 1510 4710 1388 4537 
Q 1267 4365 1267 4026 
L 1267 0 
L 685 0 
z
M 211 3002 
L 211 3443 
L 710 3475 
L 2003 3475 
L 2003 3002 
L 211 3002 
z
" transform="scale(0.015625)"/>
      <path id="NotoSansKR-Regular-63" d="M 1958 -83 
Q 1498 -83 1130 131 
Q 762 346 547 752 
Q 333 1158 333 1734 
Q 333 2317 563 2723 
Q 794 3130 1178 3347 
Q 1562 3565 2003 3565 
Q 2342 3565 2588 3443 
Q 2835 3322 3014 3155 
L 2720 2771 
Q 2573 2906 2403 2989 
Q 2234 3072 2029 3072 
Q 1715 3072 1465 2905 
Q 1216 2739 1075 2438 
Q 934 2138 934 1734 
Q 934 1338 1072 1037 
Q 1210 736 1450 569 
Q 1690 403 2010 403 
Q 2253 403 2457 502 
Q 2662 602 2829 749 
L 3085 352 
Q 2848 147 2560 32 
Q 2272 -83 1958 -83 
z
" transform="scale(0.015625)"/>
      <path id="NotoSansKR-Regular-3a" d="M 890 2496 
Q 717 2496 592 2621 
Q 467 2746 467 2944 
Q 467 3142 592 3267 
Q 717 3392 890 3392 
Q 1062 3392 1187 3267 
Q 1312 3142 1312 2944 
Q 1312 2746 1187 2621 
Q 1062 2496 890 2496 
z
M 890 -83 
Q 717 -83 592 41 
Q 467 166 467 358 
Q 467 563 592 684 
Q 717 806 890 806 
Q 1062 806 1187 684 
Q 1312 563 1312 358 
Q 1312 166 1187 41 
Q 1062 -83 890 -83 
z
" transform="scale(0.015625)"/>
      <path id="NotoSansKR-Regular-39" d="M 1504 -83 
Q 1120 -83 841 54 
Q 563 192 371 397 
L 691 762 
Q 845 595 1053 499 
Q 1261 403 1485 403 
Q 1722 403 1933 512 
Q 2144 621 2307 873 
Q 2470 1126 2563 1536 
Q 2656 1946 2656 2547 
Q 2656 3123 2537 3520 
Q 2419 3917 2188 4118 
Q 1958 4320 1632 4320 
Q 1408 4320 1229 4185 
Q 1050 4051 941 3814 
Q 832 3578 832 3251 
Q 832 2938 925 2704 
Q 1018 2470 1206 2342 
Q 1395 2214 1670 2214 
Q 1907 2214 2166 2364 
Q 2426 2515 2662 2861 
L 2688 2394 
Q 2547 2214 2364 2073 
Q 2182 1933 1980 1856 
Q 1779 1779 1574 1779 
Q 1184 1779 893 1945 
Q 602 2112 442 2441 
Q 282 2771 282 3251 
Q 282 3712 467 4054 
Q 653 4397 957 4585 
Q 1261 4774 1626 4774 
Q 1965 4774 2253 4636 
Q 2541 4499 2752 4220 
Q 2963 3942 3084 3526 
Q 3206 3110 3206 2547 
Q 3206 1837 3065 1334 
Q 2925 832 2681 518 
Q 2438 205 2134 61 
Q 1830 -83 1504 -83 
z
" transform="scale(0.015625)"/>
      <path id="NotoSansKR-Regular-48" d="M 646 0 
L 646 4691 
L 1235 4691 
L 1235 2726 
L 3424 2726 
L 3424 4691 
L 4019 4691 
L 4019 0 
L 3424 0 
L 3424 2214 
L 1235 2214 
L 1235 0 
L 646 0 
z
" transform="scale(0.015625)"/>
      <path id="NotoSansKR-Regular-7a" d="M 224 0 
L 224 314 
L 2054 3002 
L 422 3002 
L 422 3475 
L 2797 3475 
L 2797 3162 
L 960 474 
L 2854 474 
L 2854 0 
L 224 0 
z
" transform="scale(0.015625)"/>
      <path id="NotoSansKR-Regular-53" d="M 1946 -83 
Q 1446 -83 1027 102 
Q 608 288 307 608 
L 659 1018 
Q 909 755 1248 595 
Q 1587 435 1952 435 
Q 2419 435 2678 646 
Q 2938 858 2938 1197 
Q 2938 1446 2832 1593 
Q 2726 1741 2550 1840 
Q 2374 1939 2150 2035 
L 1478 2330 
Q 1261 2426 1040 2573 
Q 819 2720 672 2957 
Q 525 3194 525 3533 
Q 525 3898 717 4176 
Q 909 4454 1241 4614 
Q 1574 4774 2003 4774 
Q 2426 4774 2781 4614 
Q 3136 4454 3379 4198 
L 3072 3821 
Q 2854 4019 2595 4137 
Q 2336 4256 2003 4256 
Q 1606 4256 1366 4073 
Q 1126 3891 1126 3578 
Q 1126 3347 1244 3200 
Q 1363 3053 1542 2963 
Q 1722 2874 1907 2790 
L 2573 2502 
Q 2842 2387 3062 2227 
Q 3283 2067 3411 1830 
Q 3539 1594 3539 1248 
Q 3539 877 3347 573 
Q 3155 269 2796 93 
Q 2438 -83 1946 -83 
z
" transform="scale(0.015625)"/>
     </defs>
     <use xlink:href="#NotoSansKR-Regular-41"/>
     <use xlink:href="#NotoSansKR-Regular-6c" transform="translate(60.799988 0)"/>
     <use xlink:href="#NotoSansKR-Regular-69" transform="translate(89.199982 0)"/>
     <use xlink:href="#NotoSansKR-Regular-61" transform="translate(116.699966 0)"/>
     <use xlink:href="#NotoSansKR-Regular-73" transform="translate(172.999954 0)"/>
     <use xlink:href="#NotoSansKR-Regular-69" transform="translate(219.799942 0)"/>
     <use xlink:href="#NotoSansKR-Regular-6e" transform="translate(247.299927 0)"/>
     <use xlink:href="#NotoSansKR-Regular-67" transform="translate(308.299911 0)"/>
     <use xlink:href="#NotoSansKR-Regular-20" transform="translate(364.699905 0)"/>
     <use xlink:href="#NotoSansKR-Regular-45" transform="translate(387.099899 0)"/>
     <use xlink:href="#NotoSansKR-Regular-66" transform="translate(445.999893 0)"/>
     <use xlink:href="#NotoSansKR-Regular-66" transform="translate(478.499878 0)"/>
     <use xlink:href="#NotoSansKR-Regular-65" transform="translate(510.999863 0)"/>
     <use xlink:href="#NotoSansKR-Regular-63" transform="translate(566.399857 0)"/>
     <use xlink:href="#NotoSansKR-Regular-74" transform="translate(617.399841 0)"/>
     <use xlink:href="#NotoSansKR-Regular-3a" transform="translate(655.099838 0)"/>
     <use xlink:href="#NotoSansKR-Regular-20" transform="translate(682.899826 0)"/>
     <use xlink:href="#NotoSansKR-Regular-39" transform="translate(705.29982 0)"/>
     <use xlink:href="#NotoSansKR-Regular-48" transform="translate(760.799805 0)"/>
     <use xlink:href="#NotoSansKR-Regular-7a" transform="translate(833.599792 0)"/>
     <use xlink:href="#NotoSansKR-Regular-20" transform="translate(881.099777 0)"/>
     <use xlink:href="#NotoSansKR-Regular-53" transform="translate(903.499771 0)"/>
     <use xlink:href="#NotoSansKR-Regular-69" transform="translate(963.099762 0)"/>
     <use xlink:href="#NotoSansKR-Regular-67" transform="translate(990.599747 0)"/>
     <use xlink:href="#NotoSansKR-Regular-6e" transform="translate(1046.999741 0)"/>
     <use xlink:href="#NotoSansKR-Regular-61" transform="translate(1107.999725 0)"/>
     <use xlink:href="#NotoSansKR-Regular-6c" transform="translate(1164.299713 0)"/>
     <use xlink:href="#NotoSansKR-Regular-20" transform="translate(1192.699707 0)"/>
     <use xlink:href="#NotoSansKR-Regular-53" transform="translate(1215.099701 0)"/>
     <use xlink:href="#NotoSansKR-Regular-61" transform="translate(1274.699692 0)"/>
     <use xlink:href="#NotoSansKR-Regular-6d" transform="translate(1330.99968 0)"/>
     <use xlink:href="#NotoSansKR-Regular-70" transform="translate(1423.59967 0)"/>
     <use xlink:href="#NotoSansKR-Regular-6c" transform="translate(1485.599655 0)"/>
     <use xlink:href="#NotoSansKR-Regular-65" transform="translate(1513.999649 0)"/>
     <use xlink:href="#NotoSansKR-Regular-64" transform="translate(1569.399643 0)"/>
     <use xlink:href="#NotoSansKR-Regular-20" transform="translate(1631.399628 0)"/>
     <use xlink:href="#NotoSansKR-Regular-61" transform="translate(1653.799622 0)"/>
     <use xlink:href="#NotoSansKR-Regular-74" transform="translate(1710.099609 0)"/>
     <use xlink:href="#NotoSansKR-Regular-20" transform="translate(1747.799606 0)"/>
     <use xlink:href="#NotoSansKR-Regular-31" transform="translate(1770.1996 0)"/>
     <use xlink:href="#NotoSansKR-Regular-30" transform="translate(1825.699585 0)"/>
     <use xlink:href="#NotoSansKR-Regular-48" transform="translate(1881.19957 0)"/>
     <use xlink:href="#NotoSansKR-Regular-7a" transform="translate(1953.999557 0)"/>
    </g>
   </g>
   <g id="legend_1">
    <g id="patch_5">
     <path d="M 439.520625 77.30875 
L 554.33 77.30875 
Q 556.33 77.30875 556.33 75.30875 
L 556.33 29.90875 
Q 556.33 27.90875 554.33 27.90875 
L 439.520625 27.90875 
Q 437.520625 27.90875 437.520625 29.90875 
L 437.520625 75.30875 
Q 437.520625 77.30875 439.520625 77.30875 
z
" style="fill: #ffffff; opacity: 0.8; stroke: #cccccc; stroke-linejoin: miter"/>
    </g>
    <g id="line2d_35">
     <path d="M 441.520625 36.588437 
L 451.520625 36.588437 
L 461.520625 36.588437 
" style="fill: none; stroke: #0000ff; stroke-opacity: 0.3; stroke-width: 1.5; stroke-linecap: square"/>
    </g>
    <g id="text_19">
     <!-- Original (9.0 Hz) -->
     <g transform="translate(469.520625 40.088437) scale(0.1 -0.1)">
      <defs>
       <path id="NotoSansKR-Regular-4f" d="M 2374 -83 
Q 1786 -83 1334 214 
Q 883 512 627 1062 
Q 371 1613 371 2362 
Q 371 3117 627 3657 
Q 883 4198 1334 4486 
Q 1786 4774 2374 4774 
Q 2963 4774 3414 4483 
Q 3866 4192 4122 3654 
Q 4378 3117 4378 2362 
Q 4378 1613 4122 1062 
Q 3866 512 3414 214 
Q 2963 -83 2374 -83 
z
M 2374 435 
Q 2797 435 3110 672 
Q 3424 909 3597 1344 
Q 3770 1779 3770 2362 
Q 3770 2950 3597 3376 
Q 3424 3802 3110 4029 
Q 2797 4256 2374 4256 
Q 1958 4256 1641 4029 
Q 1325 3802 1152 3376 
Q 979 2950 979 2362 
Q 979 1779 1152 1344 
Q 1325 909 1641 672 
Q 1958 435 2374 435 
z
" transform="scale(0.015625)"/>
       <path id="NotoSansKR-Regular-72" d="M 589 0 
L 589 3475 
L 1069 3475 
L 1126 2842 
L 1139 2842 
Q 1318 3174 1577 3369 
Q 1837 3565 2125 3565 
Q 2246 3565 2332 3549 
Q 2419 3533 2496 3488 
L 2387 2982 
Q 2298 3008 2227 3024 
Q 2157 3040 2048 3040 
Q 1837 3040 1593 2857 
Q 1350 2675 1178 2234 
L 1178 0 
L 589 0 
z
" transform="scale(0.015625)"/>
      </defs>
      <use xlink:href="#NotoSansKR-Regular-4f"/>
      <use xlink:href="#NotoSansKR-Regular-72" transform="translate(74.199982 0)"/>
      <use xlink:href="#NotoSansKR-Regular-69" transform="translate(112.999969 0)"/>
      <use xlink:href="#NotoSansKR-Regular-67" transform="translate(140.499954 0)"/>
      <use xlink:href="#NotoSansKR-Regular-69" transform="translate(196.899948 0)"/>
      <use xlink:href="#NotoSansKR-Regular-6e" transform="translate(224.399933 0)"/>
      <use xlink:href="#NotoSansKR-Regular-61" transform="translate(285.399918 0)"/>
      <use xlink:href="#NotoSansKR-Regular-6c" transform="translate(341.699905 0)"/>
      <use xlink:href="#NotoSansKR-Regular-20" transform="translate(370.099899 0)"/>
      <use xlink:href="#NotoSansKR-Regular-28" transform="translate(392.499893 0)"/>
      <use xlink:href="#NotoSansKR-Regular-39" transform="translate(426.299881 0)"/>
      <use xlink:href="#NotoSansKR-Regular-2e" transform="translate(481.799866 0)"/>
      <use xlink:href="#NotoSansKR-Regular-30" transform="translate(509.599854 0)"/>
      <use xlink:href="#NotoSansKR-Regular-20" transform="translate(565.099838 0)"/>
      <use xlink:href="#NotoSansKR-Regular-48" transform="translate(587.499832 0)"/>
      <use xlink:href="#NotoSansKR-Regular-7a" transform="translate(660.29982 0)"/>
      <use xlink:href="#NotoSansKR-Regular-29" transform="translate(707.799805 0)"/>
     </g>
    </g>
    <g id="line2d_36">
     <path d="M 441.520625 52.047812 
L 451.520625 52.047812 
L 461.520625 52.047812 
" style="fill: none; stroke-dasharray: 7.4,3.2; stroke-dashoffset: 0; stroke: #ff0000; stroke-width: 2"/>
    </g>
    <g id="text_20">
     <!-- Aliased (1.0 Hz) -->
     <g transform="translate(469.520625 55.547812) scale(0.1 -0.1)">
      <use xlink:href="#NotoSansKR-Regular-41"/>
      <use xlink:href="#NotoSansKR-Regular-6c" transform="translate(60.799988 0)"/>
      <use xlink:href="#NotoSansKR-Regular-69" transform="translate(89.199982 0)"/>
      <use xlink:href="#NotoSansKR-Regular-61" transform="translate(116.699966 0)"/>
      <use xlink:href="#NotoSansKR-Regular-73" transform="translate(172.999954 0)"/>
      <use xlink:href="#NotoSansKR-Regular-65" transform="translate(219.799942 0)"/>
      <use xlink:href="#NotoSansKR-Regular-64" transform="translate(275.199936 0)"/>
      <use xlink:href="#NotoSansKR-Regular-20" transform="translate(337.199921 0)"/>
      <use xlink:href="#NotoSansKR-Regular-28" transform="translate(359.599915 0)"/>
      <use xlink:href="#NotoSansKR-Regular-31" transform="translate(393.399902 0)"/>
      <use xlink:href="#NotoSansKR-Regular-2e" transform="translate(448.899887 0)"/>
      <use xlink:href="#NotoSansKR-Regular-30" transform="translate(476.699875 0)"/>
      <use xlink:href="#NotoSansKR-Regular-20" transform="translate(532.19986 0)"/>
      <use xlink:href="#NotoSansKR-Regular-48" transform="translate(554.599854 0)"/>
      <use xlink:href="#NotoSansKR-Regular-7a" transform="translate(627.399841 0)"/>
      <use xlink:href="#NotoSansKR-Regular-29" transform="translate(674.899826 0)"/>
     </g>
    </g>
    <g id="line2d_37">
     <path d="M 451.520625 71.018125 
L 451.520625 66.205625 
" style="fill: none; stroke-dasharray: 2.25,3.7125; stroke-dashoffset: 0; stroke: #000000; stroke-width: 1.5"/>
    </g>
    <g id="line2d_38"/>
    <g id="line2d_39">
     <g>
      <use xlink:href="#m791ae93bf1" x="451.520625" y="66.205625" style="stroke: #000000"/>
     </g>
    </g>
    <g id="text_21">
     <!-- Samples (10.0 Hz) -->
     <g transform="translate(469.520625 71.018125) scale(0.1 -0.1)">
      <use xlink:href="#NotoSansKR-Regular-53"/>
      <use xlink:href="#NotoSansKR-Regular-61" transform="translate(59.599991 0)"/>
      <use xlink:href="#NotoSansKR-Regular-6d" transform="translate(115.899979 0)"/>
      <use xlink:href="#NotoSansKR-Regular-70" transform="translate(208.499969 0)"/>
      <use xlink:href="#NotoSansKR-Regular-6c" transform="translate(270.499954 0)"/>
      <use xlink:href="#NotoSansKR-Regular-65" transform="translate(298.899948 0)"/>
      <use xlink:href="#NotoSansKR-Regular-73" transform="translate(354.299942 0)"/>
      <use xlink:href="#NotoSansKR-Regular-20" transform="translate(401.09993 0)"/>
      <use xlink:href="#NotoSansKR-Regular-28" transform="translate(423.499924 0)"/>
      <use xlink:href="#NotoSansKR-Regular-31" transform="translate(457.299911 0)"/>
      <use xlink:href="#NotoSansKR-Regular-30" transform="translate(512.799896 0)"/>
      <use xlink:href="#NotoSansKR-Regular-2e" transform="translate(568.299881 0)"/>
      <use xlink:href="#NotoSansKR-Regular-30" transform="translate(596.099869 0)"/>
      <use xlink:href="#NotoSansKR-Regular-20" transform="translate(651.599854 0)"/>
      <use xlink:href="#NotoSansKR-Regular-48" transform="translate(673.999847 0)"/>
      <use xlink:href="#NotoSansKR-Regular-7a" transform="translate(746.799835 0)"/>
      <use xlink:href="#NotoSansKR-Regular-29" transform="translate(794.29982 0)"/>
     </g>
    </g>
   </g>
  </g>
 </g>
 <defs>
  <clipPath id="p27fe17fcab">
   <rect x="51.35" y="22.90875" width="509.98" height="290.68"/>
  </clipPath>
 </defs>
</svg>
