<?xml version="1.0" encoding="utf-8" standalone="no"?>
<!DOCTYPE svg PUBLIC "-//W3C//DTD SVG 1.1//EN"
  "http://www.w3.org/Graphics/SVG/1.1/DTD/svg11.dtd">
<svg xmlns:xlink="http://www.w3.org/1999/xlink" width="568.468125pt" height="423.788125pt" viewBox="0 0 568.468125 423.788125" xmlns="http://www.w3.org/2000/svg" version="1.1">
 <metadata>
  <rdf:RDF xmlns:dc="http://purl.org/dc/elements/1.1/" xmlns:cc="http://creativecommons.org/ns#" xmlns:rdf="http://www.w3.org/1999/02/22-rdf-syntax-ns#">
   <cc:Work>
    <dc:type rdf:resource="http://purl.org/dc/dcmitype/StillImage"/>
    <dc:date>2026-01-15T23:41:06.561057</dc:date>
    <dc:format>image/svg+xml</dc:format>
    <dc:creator>
     <cc:Agent>
      <dc:title>Matplotlib v3.10.8, https://matplotlib.org/</dc:title>
     </cc:Agent>
    </dc:creator>
   </cc:Work>
  </rdf:RDF>
 </metadata>
 <defs>
  <style type="text/css">*{stroke-linejoin: round; stroke-linecap: butt}</style>
 </defs>
 <g id="figure_1">
  <g id="patch_1">
   <path d="M 0 423.788125 
L 568.468125 423.788125 
L 568.468125 0 
L 0 0 
z
" style="fill: #ffffff"/>
  </g>
  <g id="axes_1">
   <g id="patch_2">
    <path d="M 46.278125 189.79 
L 561.268125 189.79 
L 561.268125 22.32 
L 46.278125 22.32 
z
" style="fill: #ffffff"/>
   </g>
   <g id="FillBetweenPolyCollection_1">
    <path d="M 69.686761 106.055188 
L 69.686761 29.932273 
L 70.155403 29.938295 
L 70.624044 29.956361 
L 71.092685 29.986468 
L 71.561327 30.028612 
L 72.029968 30.082785 
L 72.49861 30.148979 
L 72.967251 30.227183 
L 73.435892 30.317385 
L 73.904534 30.419571 
L 74.373175 30.533725 
L 74.841816 30.659829 
L 75.310458 30.797862 
L 75.779099 30.947803 
L 76.247741 31.109628 
L 76.716382 31.283312 
L 77.185023 31.468826 
L 77.653665 31.666142 
L 78.122306 31.875229 
L 78.590947 32.096053 
L 79.059589 32.328579 
L 79.52823 32.572771 
L 79.996871 32.82859 
L 80.465513 33.095995 
L 80.934154 33.374945 
L 81.402796 33.665394 
L 81.871437 33.967298 
L 82.340078 34.280608 
L 82.80872 34.605275 
L 83.277361 34.941247 
L 83.746002 35.288471 
L 84.214644 35.646893 
L 84.683285 36.016455 
L 85.151927 36.397099 
L 85.620568 36.788765 
L 86.089209 37.191391 
L 86.557851 37.604913 
L 87.026492 38.029266 
L 87.495133 38.464383 
L 87.963775 38.910194 
L 88.432416 39.366629 
L 88.901057 39.833617 
L 89.369699 40.311082 
L 89.83834 40.79895 
L 90.306982 41.297144 
L 90.775623 41.805584 
L 91.244264 42.32419 
L 91.712906 42.85288 
L 92.181547 43.39157 
L 92.650188 43.940176 
L 93.11883 44.49861 
L 93.587471 45.066784 
L 94.056113 45.644607 
L 94.524754 46.23199 
L 94.993395 46.828838 
L 95.462037 47.435058 
L 95.930678 48.050553 
L 96.399319 48.675225 
L 96.867961 49.308977 
L 97.336602 49.951708 
L 97.805243 50.603316 
L 98.273885 51.263698 
L 98.742526 51.932749 
L 99.211168 52.610364 
L 99.679809 53.296436 
L 100.14845 53.990856 
L 100.617092 54.693513 
L 101.085733 55.404297 
L 101.554374 56.123096 
L 102.023016 56.849796 
L 102.491657 57.584281 
L 102.960299 58.326435 
L 103.42894 59.076142 
L 103.897581 59.833282 
L 104.366223 60.597735 
L 104.834864 61.369381 
L 105.303505 62.148098 
L 105.772147 62.933762 
L 106.240788 63.726249 
L 106.709429 64.525434 
L 107.178071 65.33119 
L 107.646712 66.143389 
L 108.115354 66.961904 
L 108.583995 67.786604 
L 109.052636 68.61736 
L 109.521278 69.454039 
L 109.989919 70.296509 
L 110.45856 71.144638 
L 110.927202 71.99829 
L 111.395843 72.857331 
L 111.864485 73.721625 
L 112.333126 74.591035 
L 112.801767 75.465424 
L 113.270409 76.344652 
L 113.73905 77.228582 
L 114.207691 78.117073 
L 114.676333 79.009984 
L 115.144974 79.907175 
L 115.613615 80.808503 
L 116.082257 81.713826 
L 116.550898 82.623 
L 117.01954 83.535882 
L 117.488181 84.452327 
L 117.956822 85.372191 
L 118.425464 86.295327 
L 118.894105 87.221589 
L 119.362746 88.150832 
L 119.831388 89.082907 
L 120.300029 90.017668 
L 120.768671 90.954966 
L 121.237312 91.894654 
L 121.705953 92.836583 
L 122.174595 93.780603 
L 122.643236 94.726565 
L 123.111877 95.674319 
L 123.580519 96.623717 
L 124.04916 97.574606 
L 124.517801 98.526837 
L 124.986443 99.48026 
L 125.455084 100.434723 
L 125.923726 101.390075 
L 126.392367 102.346165 
L 126.861008 103.302843 
L 127.32965 104.259955 
L 127.798291 105.217352 
L 127.798291 106.055188 
L 127.798291 106.055188 
L 127.32965 106.055188 
L 126.861008 106.055188 
L 126.392367 106.055188 
L 125.923726 106.055188 
L 125.455084 106.055188 
L 124.986443 106.055188 
L 124.517801 106.055188 
L 124.04916 106.055188 
L 123.580519 106.055188 
L 123.111877 106.055188 
L 122.643236 106.055188 
L 122.174595 106.055188 
L 121.705953 106.055188 
L 121.237312 106.055188 
L 120.768671 106.055188 
L 120.300029 106.055188 
L 119.831388 106.055188 
L 119.362746 106.055188 
L 118.894105 106.055188 
L 118.425464 106.055188 
L 117.956822 106.055188 
L 117.488181 106.055188 
L 117.01954 106.055188 
L 116.550898 106.055188 
L 116.082257 106.055188 
L 115.613615 106.055188 
L 115.144974 106.055188 
L 114.676333 106.055188 
L 114.207691 106.055188 
L 113.73905 106.055188 
L 113.270409 106.055188 
L 112.801767 106.055188 
L 112.333126 106.055188 
L 111.864485 106.055188 
L 111.395843 106.055188 
L 110.927202 106.055188 
L 110.45856 106.055188 
L 109.989919 106.055188 
L 109.521278 106.055188 
L 109.052636 106.055188 
L 108.583995 106.055188 
L 108.115354 106.055188 
L 107.646712 106.055188 
L 107.178071 106.055188 
L 106.709429 106.055188 
L 106.240788 106.055188 
L 105.772147 106.055188 
L 105.303505 106.055188 
L 104.834864 106.055188 
L 104.366223 106.055188 
L 103.897581 106.055188 
L 103.42894 106.055188 
L 102.960299 106.055188 
L 102.491657 106.055188 
L 102.023016 106.055188 
L 101.554374 106.055188 
L 101.085733 106.055188 
L 100.617092 106.055188 
L 100.14845 106.055188 
L 99.679809 106.055188 
L 99.211168 106.055188 
L 98.742526 106.055188 
L 98.273885 106.055188 
L 97.805243 106.055188 
L 97.336602 106.055188 
L 96.867961 106.055188 
L 96.399319 106.055188 
L 95.930678 106.055188 
L 95.462037 106.055188 
L 94.993395 106.055188 
L 94.524754 106.055188 
L 94.056113 106.055188 
L 93.587471 106.055188 
L 93.11883 106.055188 
L 92.650188 106.055188 
L 92.181547 106.055188 
L 91.712906 106.055188 
L 91.244264 106.055188 
L 90.775623 106.055188 
L 90.306982 106.055188 
L 89.83834 106.055188 
L 89.369699 106.055188 
L 88.901057 106.055188 
L 88.432416 106.055188 
L 87.963775 106.055188 
L 87.495133 106.055188 
L 87.026492 106.055188 
L 86.557851 106.055188 
L 86.089209 106.055188 
L 85.620568 106.055188 
L 85.151927 106.055188 
L 84.683285 106.055188 
L 84.214644 106.055188 
L 83.746002 106.055188 
L 83.277361 106.055188 
L 82.80872 106.055188 
L 82.340078 106.055188 
L 81.871437 106.055188 
L 81.402796 106.055188 
L 80.934154 106.055188 
L 80.465513 106.055188 
L 79.996871 106.055188 
L 79.52823 106.055188 
L 79.059589 106.055188 
L 78.590947 106.055188 
L 78.122306 106.055188 
L 77.653665 106.055188 
L 77.185023 106.055188 
L 76.716382 106.055188 
L 76.247741 106.055188 
L 75.779099 106.055188 
L 75.310458 106.055188 
L 74.841816 106.055188 
L 74.373175 106.055188 
L 73.904534 106.055188 
L 73.435892 106.055188 
L 72.967251 106.055188 
L 72.49861 106.055188 
L 72.029968 106.055188 
L 71.561327 106.055188 
L 71.092685 106.055188 
L 70.624044 106.055188 
L 70.155403 106.055188 
L 69.686761 106.055188 
z
" clip-path="url(#p2e4e93bd8b)" style="fill: #808080; fill-opacity: 0.2; stroke: #808080; stroke-opacity: 0.2"/>
    <path d="M 245.427275 106.055188 
L 245.427275 105.69611 
L 245.895916 104.738628 
L 246.364557 103.781354 
L 246.833199 102.82444 
L 247.30184 101.868037 
L 247.770481 100.912297 
L 248.239123 99.957371 
L 248.707764 99.003409 
L 249.176406 98.050563 
L 249.645047 97.098984 
L 250.113688 96.148822 
L 250.58233 95.200227 
L 251.050971 94.25335 
L 251.519612 93.308341 
L 251.988254 92.365348 
L 252.456895 91.424521 
L 252.925537 90.486009 
L 253.394178 89.549961 
L 253.862819 88.616524 
L 254.331461 87.685847 
L 254.800102 86.758076 
L 255.268743 85.833359 
L 255.737385 84.911841 
L 256.206026 83.993668 
L 256.674667 83.078987 
L 257.143309 82.167941 
L 257.61195 81.260674 
L 258.080592 80.357331 
L 258.549233 79.458054 
L 259.017874 78.562985 
L 259.486516 77.672266 
L 259.955157 76.786038 
L 260.423798 75.904442 
L 260.89244 75.027616 
L 261.361081 74.155699 
L 261.829723 73.28883 
L 262.298364 72.427146 
L 262.767005 71.570782 
L 263.235647 70.719875 
L 263.704288 69.874558 
L 264.172929 69.034967 
L 264.641571 68.201233 
L 265.110212 67.373489 
L 265.578853 66.551865 
L 266.047495 65.736492 
L 266.516136 64.927498 
L 266.984778 64.125012 
L 267.453419 63.329161 
L 267.92206 62.540069 
L 268.390702 61.757864 
L 268.859343 60.982667 
L 269.327984 60.214602 
L 269.796626 59.45379 
L 270.265267 58.700352 
L 270.733909 57.954407 
L 271.20255 57.216072 
L 271.671191 56.485465 
L 272.139833 55.762702 
L 272.608474 55.047896 
L 273.077115 54.341161 
L 273.545757 53.642609 
L 274.014398 52.95235 
L 274.483039 52.270493 
L 274.951681 51.597146 
L 275.420322 50.932417 
L 275.888964 50.276409 
L 276.357605 49.629227 
L 276.826246 48.990973 
L 277.294888 48.361748 
L 277.763529 47.741652 
L 278.23217 47.130783 
L 278.700812 46.529237 
L 279.169453 45.93711 
L 279.638095 45.354495 
L 280.106736 44.781485 
L 280.575377 44.21817 
L 281.044019 43.664639 
L 281.51266 43.12098 
L 281.981301 42.587279 
L 282.449943 42.063621 
L 282.918584 41.550088 
L 283.387225 41.046761 
L 283.855867 40.553721 
L 284.324508 40.071044 
L 284.79315 39.598809 
L 285.261791 39.137088 
L 285.730432 38.685956 
L 286.199074 38.245483 
L 286.667715 37.81574 
L 287.136356 37.396794 
L 287.604998 36.988712 
L 288.073639 36.591558 
L 288.542281 36.205396 
L 289.010922 35.830285 
L 289.479563 35.466286 
L 289.948205 35.113456 
L 290.416846 34.771851 
L 290.885487 34.441525 
L 291.354129 34.12253 
L 291.82277 33.814917 
L 292.291411 33.518735 
L 292.760053 33.23403 
L 293.228694 32.960847 
L 293.697336 32.69923 
L 294.165977 32.449219 
L 294.634618 32.210855 
L 295.10326 31.984176 
L 295.571901 31.769216 
L 296.040542 31.566011 
L 296.509184 31.374592 
L 296.977825 31.194989 
L 297.446467 31.027232 
L 297.915108 30.871345 
L 298.383749 30.727356 
L 298.852391 30.595285 
L 299.321032 30.475154 
L 299.789673 30.366981 
L 300.258315 30.270785 
L 300.726956 30.18658 
L 301.195597 30.11438 
L 301.664239 30.054195 
L 302.13288 30.006036 
L 302.601522 29.96991 
L 303.070163 29.945823 
L 303.538804 29.933778 
L 304.007446 29.933778 
L 304.476087 29.945823 
L 304.944728 29.96991 
L 305.41337 30.006036 
L 305.882011 30.054195 
L 306.350653 30.11438 
L 306.819294 30.18658 
L 307.287935 30.270785 
L 307.756577 30.366981 
L 308.225218 30.475154 
L 308.693859 30.595285 
L 309.162501 30.727356 
L 309.631142 30.871345 
L 310.099783 31.027232 
L 310.568425 31.194989 
L 311.037066 31.374592 
L 311.505708 31.566011 
L 311.974349 31.769216 
L 312.44299 31.984176 
L 312.911632 32.210855 
L 313.380273 32.449219 
L 313.848914 32.69923 
L 314.317556 32.960847 
L 314.786197 33.23403 
L 315.254839 33.518735 
L 315.72348 33.814917 
L 316.192121 34.12253 
L 316.660763 34.441525 
L 317.129404 34.771851 
L 317.598045 35.113456 
L 318.066687 35.466286 
L 318.535328 35.830285 
L 319.003969 36.205396 
L 319.472611 36.591558 
L 319.941252 36.988712 
L 320.409894 37.396794 
L 320.878535 37.81574 
L 321.347176 38.245483 
L 321.815818 38.685956 
L 322.284459 39.137088 
L 322.7531 39.598809 
L 323.221742 40.071044 
L 323.690383 40.553721 
L 324.159025 41.046761 
L 324.627666 41.550088 
L 325.096307 42.063621 
L 325.564949 42.587279 
L 326.03359 43.12098 
L 326.502231 43.664639 
L 326.970873 44.21817 
L 327.439514 44.781485 
L 327.908155 45.354495 
L 328.376797 45.93711 
L 328.845438 46.529237 
L 329.31408 47.130783 
L 329.782721 47.741652 
L 330.251362 48.361748 
L 330.720004 48.990973 
L 331.188645 49.629227 
L 331.657286 50.276409 
L 332.125928 50.932417 
L 332.594569 51.597146 
L 333.063211 52.270493 
L 333.531852 52.95235 
L 334.000493 53.642609 
L 334.469135 54.341161 
L 334.937776 55.047896 
L 335.406417 55.762702 
L 335.875059 56.485465 
L 336.3437 57.216072 
L 336.812341 57.954407 
L 337.280983 58.700352 
L 337.749624 59.45379 
L 338.218266 60.214602 
L 338.686907 60.982667 
L 339.155548 61.757864 
L 339.62419 62.540069 
L 340.092831 63.329161 
L 340.561472 64.125012 
L 341.030114 64.927498 
L 341.498755 65.736492 
L 341.967397 66.551865 
L 342.436038 67.373489 
L 342.904679 68.201233 
L 343.373321 69.034967 
L 343.841962 69.874558 
L 344.310603 70.719875 
L 344.779245 71.570782 
L 345.247886 72.427146 
L 345.716527 73.28883 
L 346.185169 74.155699 
L 346.65381 75.027616 
L 347.122452 75.904442 
L 347.591093 76.786038 
L 348.059734 77.672266 
L 348.528376 78.562985 
L 348.997017 79.458054 
L 349.465658 80.357331 
L 349.9343 81.260674 
L 350.402941 82.167941 
L 350.871583 83.078987 
L 351.340224 83.993668 
L 351.808865 84.911841 
L 352.277507 85.833359 
L 352.746148 86.758076 
L 353.214789 87.685847 
L 353.683431 88.616524 
L 354.152072 89.549961 
L 354.620713 90.486009 
L 355.089355 91.424521 
L 355.557996 92.365348 
L 356.026638 93.308341 
L 356.495279 94.25335 
L 356.96392 95.200227 
L 357.432562 96.148822 
L 357.901203 97.098984 
L 358.369844 98.050563 
L 358.838486 99.003409 
L 359.307127 99.957371 
L 359.775769 100.912297 
L 360.24441 101.868037 
L 360.713051 102.82444 
L 361.181693 103.781354 
L 361.650334 104.738628 
L 362.118975 105.69611 
L 362.118975 106.055188 
L 362.118975 106.055188 
L 361.650334 106.055188 
L 361.181693 106.055188 
L 360.713051 106.055188 
L 360.24441 106.055188 
L 359.775769 106.055188 
L 359.307127 106.055188 
L 358.838486 106.055188 
L 358.369844 106.055188 
L 357.901203 106.055188 
L 357.432562 106.055188 
L 356.96392 106.055188 
L 356.495279 106.055188 
L 356.026638 106.055188 
L 355.557996 106.055188 
L 355.089355 106.055188 
L 354.620713 106.055188 
L 354.152072 106.055188 
L 353.683431 106.055188 
L 353.214789 106.055188 
L 352.746148 106.055188 
L 352.277507 106.055188 
L 351.808865 106.055188 
L 351.340224 106.055188 
L 350.871583 106.055188 
L 350.402941 106.055188 
L 349.9343 106.055188 
L 349.465658 106.055188 
L 348.997017 106.055188 
L 348.528376 106.055188 
L 348.059734 106.055188 
L 347.591093 106.055188 
L 347.122452 106.055188 
L 346.65381 106.055188 
L 346.185169 106.055188 
L 345.716527 106.055188 
L 345.247886 106.055188 
L 344.779245 106.055188 
L 344.310603 106.055188 
L 343.841962 106.055188 
L 343.373321 106.055188 
L 342.904679 106.055188 
L 342.436038 106.055188 
L 341.967397 106.055188 
L 341.498755 106.055188 
L 341.030114 106.055188 
L 340.561472 106.055188 
L 340.092831 106.055188 
L 339.62419 106.055188 
L 339.155548 106.055188 
L 338.686907 106.055188 
L 338.218266 106.055188 
L 337.749624 106.055188 
L 337.280983 106.055188 
L 336.812341 106.055188 
L 336.3437 106.055188 
L 335.875059 106.055188 
L 335.406417 106.055188 
L 334.937776 106.055188 
L 334.469135 106.055188 
L 334.000493 106.055188 
L 333.531852 106.055188 
L 333.063211 106.055188 
L 332.594569 106.055188 
L 332.125928 106.055188 
L 331.657286 106.055188 
L 331.188645 106.055188 
L 330.720004 106.055188 
L 330.251362 106.055188 
L 329.782721 106.055188 
L 329.31408 106.055188 
L 328.845438 106.055188 
L 328.376797 106.055188 
L 327.908155 106.055188 
L 327.439514 106.055188 
L 326.970873 106.055188 
L 326.502231 106.055188 
L 326.03359 106.055188 
L 325.564949 106.055188 
L 325.096307 106.055188 
L 324.627666 106.055188 
L 324.159025 106.055188 
L 323.690383 106.055188 
L 323.221742 106.055188 
L 322.7531 106.055188 
L 322.284459 106.055188 
L 321.815818 106.055188 
L 321.347176 106.055188 
L 320.878535 106.055188 
L 320.409894 106.055188 
L 319.941252 106.055188 
L 319.472611 106.055188 
L 319.003969 106.055188 
L 318.535328 106.055188 
L 318.066687 106.055188 
L 317.598045 106.055188 
L 317.129404 106.055188 
L 316.660763 106.055188 
L 316.192121 106.055188 
L 315.72348 106.055188 
L 315.254839 106.055188 
L 314.786197 106.055188 
L 314.317556 106.055188 
L 313.848914 106.055188 
L 313.380273 106.055188 
L 312.911632 106.055188 
L 312.44299 106.055188 
L 311.974349 106.055188 
L 311.505708 106.055188 
L 311.037066 106.055188 
L 310.568425 106.055188 
L 310.099783 106.055188 
L 309.631142 106.055188 
L 309.162501 106.055188 
L 308.693859 106.055188 
L 308.225218 106.055188 
L 307.756577 106.055188 
L 307.287935 106.055188 
L 306.819294 106.055188 
L 306.350653 106.055188 
L 305.882011 106.055188 
L 305.41337 106.055188 
L 304.944728 106.055188 
L 304.476087 106.055188 
L 304.007446 106.055188 
L 303.538804 106.055188 
L 303.070163 106.055188 
L 302.601522 106.055188 
L 302.13288 106.055188 
L 301.664239 106.055188 
L 301.195597 106.055188 
L 300.726956 106.055188 
L 300.258315 106.055188 
L 299.789673 106.055188 
L 299.321032 106.055188 
L 298.852391 106.055188 
L 298.383749 106.055188 
L 297.915108 106.055188 
L 297.446467 106.055188 
L 296.977825 106.055188 
L 296.509184 106.055188 
L 296.040542 106.055188 
L 295.571901 106.055188 
L 295.10326 106.055188 
L 294.634618 106.055188 
L 294.165977 106.055188 
L 293.697336 106.055188 
L 293.228694 106.055188 
L 292.760053 106.055188 
L 292.291411 106.055188 
L 291.82277 106.055188 
L 291.354129 106.055188 
L 290.885487 106.055188 
L 290.416846 106.055188 
L 289.948205 106.055188 
L 289.479563 106.055188 
L 289.010922 106.055188 
L 288.542281 106.055188 
L 288.073639 106.055188 
L 287.604998 106.055188 
L 287.136356 106.055188 
L 286.667715 106.055188 
L 286.199074 106.055188 
L 285.730432 106.055188 
L 285.261791 106.055188 
L 284.79315 106.055188 
L 284.324508 106.055188 
L 283.855867 106.055188 
L 283.387225 106.055188 
L 282.918584 106.055188 
L 282.449943 106.055188 
L 281.981301 106.055188 
L 281.51266 106.055188 
L 281.044019 106.055188 
L 280.575377 106.055188 
L 280.106736 106.055188 
L 279.638095 106.055188 
L 279.169453 106.055188 
L 278.700812 106.055188 
L 278.23217 106.055188 
L 277.763529 106.055188 
L 277.294888 106.055188 
L 276.826246 106.055188 
L 276.357605 106.055188 
L 275.888964 106.055188 
L 275.420322 106.055188 
L 274.951681 106.055188 
L 274.483039 106.055188 
L 274.014398 106.055188 
L 273.545757 106.055188 
L 273.077115 106.055188 
L 272.608474 106.055188 
L 272.139833 106.055188 
L 271.671191 106.055188 
L 271.20255 106.055188 
L 270.733909 106.055188 
L 270.265267 106.055188 
L 269.796626 106.055188 
L 269.327984 106.055188 
L 268.859343 106.055188 
L 268.390702 106.055188 
L 267.92206 106.055188 
L 267.453419 106.055188 
L 266.984778 106.055188 
L 266.516136 106.055188 
L 266.047495 106.055188 
L 265.578853 106.055188 
L 265.110212 106.055188 
L 264.641571 106.055188 
L 264.172929 106.055188 
L 263.704288 106.055188 
L 263.235647 106.055188 
L 262.767005 106.055188 
L 262.298364 106.055188 
L 261.829723 106.055188 
L 261.361081 106.055188 
L 260.89244 106.055188 
L 260.423798 106.055188 
L 259.955157 106.055188 
L 259.486516 106.055188 
L 259.017874 106.055188 
L 258.549233 106.055188 
L 258.080592 106.055188 
L 257.61195 106.055188 
L 257.143309 106.055188 
L 256.674667 106.055188 
L 256.206026 106.055188 
L 255.737385 106.055188 
L 255.268743 106.055188 
L 254.800102 106.055188 
L 254.331461 106.055188 
L 253.862819 106.055188 
L 253.394178 106.055188 
L 252.925537 106.055188 
L 252.456895 106.055188 
L 251.988254 106.055188 
L 251.519612 106.055188 
L 251.050971 106.055188 
L 250.58233 106.055188 
L 250.113688 106.055188 
L 249.645047 106.055188 
L 249.176406 106.055188 
L 248.707764 106.055188 
L 248.239123 106.055188 
L 247.770481 106.055188 
L 247.30184 106.055188 
L 246.833199 106.055188 
L 246.364557 106.055188 
L 245.895916 106.055188 
L 245.427275 106.055188 
z
" clip-path="url(#p2e4e93bd8b)" style="fill: #808080; fill-opacity: 0.2; stroke: #808080; stroke-opacity: 0.2"/>
    <path d="M 479.747959 106.055188 
L 479.747959 105.217352 
L 480.2166 104.259955 
L 480.685242 103.302843 
L 481.153883 102.346165 
L 481.622524 101.390075 
L 482.091166 100.434723 
L 482.559807 99.48026 
L 483.028449 98.526837 
L 483.49709 97.574606 
L 483.965731 96.623717 
L 484.434373 95.674319 
L 484.903014 94.726565 
L 485.371655 93.780603 
L 485.840297 92.836583 
L 486.308938 91.894654 
L 486.777579 90.954966 
L 487.246221 90.017668 
L 487.714862 89.082907 
L 488.183504 88.150832 
L 488.652145 87.221589 
L 489.120786 86.295327 
L 489.589428 85.372191 
L 490.058069 84.452327 
L 490.52671 83.535882 
L 490.995352 82.623 
L 491.463993 81.713826 
L 491.932635 80.808503 
L 492.401276 79.907175 
L 492.869917 79.009984 
L 493.338559 78.117073 
L 493.8072 77.228582 
L 494.275841 76.344652 
L 494.744483 75.465424 
L 495.213124 74.591035 
L 495.681765 73.721625 
L 496.150407 72.857331 
L 496.619048 71.99829 
L 497.08769 71.144638 
L 497.556331 70.296509 
L 498.024972 69.454039 
L 498.493614 68.61736 
L 498.962255 67.786604 
L 499.430896 66.961904 
L 499.899538 66.143389 
L 500.368179 65.33119 
L 500.836821 64.525434 
L 501.305462 63.726249 
L 501.774103 62.933762 
L 502.242745 62.148098 
L 502.711386 61.369381 
L 503.180027 60.597735 
L 503.648669 59.833282 
L 504.11731 59.076142 
L 504.585951 58.326435 
L 505.054593 57.584281 
L 505.523234 56.849796 
L 505.991876 56.123096 
L 506.460517 55.404297 
L 506.929158 54.693513 
L 507.3978 53.990856 
L 507.866441 53.296436 
L 508.335082 52.610364 
L 508.803724 51.932749 
L 509.272365 51.263698 
L 509.741007 50.603316 
L 510.209648 49.951708 
L 510.678289 49.308977 
L 511.146931 48.675225 
L 511.615572 48.050553 
L 512.084213 47.435058 
L 512.552855 46.828838 
L 513.021496 46.23199 
L 513.490137 45.644607 
L 513.958779 45.066784 
L 514.42742 44.49861 
L 514.896062 43.940176 
L 515.364703 43.39157 
L 515.833344 42.85288 
L 516.301986 42.32419 
L 516.770627 41.805584 
L 517.239268 41.297144 
L 517.70791 40.79895 
L 518.176551 40.311082 
L 518.645193 39.833617 
L 519.113834 39.366629 
L 519.582475 38.910194 
L 520.051117 38.464383 
L 520.519758 38.029266 
L 520.988399 37.604913 
L 521.457041 37.191391 
L 521.925682 36.788765 
L 522.394323 36.397099 
L 522.862965 36.016455 
L 523.331606 35.646893 
L 523.800248 35.288471 
L 524.268889 34.941247 
L 524.73753 34.605275 
L 525.206172 34.280608 
L 525.674813 33.967298 
L 526.143454 33.665394 
L 526.612096 33.374945 
L 527.080737 33.095995 
L 527.549379 32.82859 
L 528.01802 32.572771 
L 528.486661 32.328579 
L 528.955303 32.096053 
L 529.423944 31.875229 
L 529.892585 31.666142 
L 530.361227 31.468826 
L 530.829868 31.283312 
L 531.298509 31.109628 
L 531.767151 30.947803 
L 532.235792 30.797862 
L 532.704434 30.659829 
L 533.173075 30.533725 
L 533.641716 30.419571 
L 534.110358 30.317385 
L 534.578999 30.227183 
L 535.04764 30.148979 
L 535.516282 30.082785 
L 535.984923 30.028612 
L 536.453565 29.986468 
L 536.922206 29.956361 
L 537.390847 29.938295 
L 537.859489 29.932273 
L 537.859489 106.055188 
L 537.859489 106.055188 
L 537.390847 106.055188 
L 536.922206 106.055188 
L 536.453565 106.055188 
L 535.984923 106.055188 
L 535.516282 106.055188 
L 535.04764 106.055188 
L 534.578999 106.055188 
L 534.110358 106.055188 
L 533.641716 106.055188 
L 533.173075 106.055188 
L 532.704434 106.055188 
L 532.235792 106.055188 
L 531.767151 106.055188 
L 531.298509 106.055188 
L 530.829868 106.055188 
L 530.361227 106.055188 
L 529.892585 106.055188 
L 529.423944 106.055188 
L 528.955303 106.055188 
L 528.486661 106.055188 
L 528.01802 106.055188 
L 527.549379 106.055188 
L 527.080737 106.055188 
L 526.612096 106.055188 
L 526.143454 106.055188 
L 525.674813 106.055188 
L 525.206172 106.055188 
L 524.73753 106.055188 
L 524.268889 106.055188 
L 523.800248 106.055188 
L 523.331606 106.055188 
L 522.862965 106.055188 
L 522.394323 106.055188 
L 521.925682 106.055188 
L 521.457041 106.055188 
L 520.988399 106.055188 
L 520.519758 106.055188 
L 520.051117 106.055188 
L 519.582475 106.055188 
L 519.113834 106.055188 
L 518.645193 106.055188 
L 518.176551 106.055188 
L 517.70791 106.055188 
L 517.239268 106.055188 
L 516.770627 106.055188 
L 516.301986 106.055188 
L 515.833344 106.055188 
L 515.364703 106.055188 
L 514.896062 106.055188 
L 514.42742 106.055188 
L 513.958779 106.055188 
L 513.490137 106.055188 
L 513.021496 106.055188 
L 512.552855 106.055188 
L 512.084213 106.055188 
L 511.615572 106.055188 
L 511.146931 106.055188 
L 510.678289 106.055188 
L 510.209648 106.055188 
L 509.741007 106.055188 
L 509.272365 106.055188 
L 508.803724 106.055188 
L 508.335082 106.055188 
L 507.866441 106.055188 
L 507.3978 106.055188 
L 506.929158 106.055188 
L 506.460517 106.055188 
L 505.991876 106.055188 
L 505.523234 106.055188 
L 505.054593 106.055188 
L 504.585951 106.055188 
L 504.11731 106.055188 
L 503.648669 106.055188 
L 503.180027 106.055188 
L 502.711386 106.055188 
L 502.242745 106.055188 
L 501.774103 106.055188 
L 501.305462 106.055188 
L 500.836821 106.055188 
L 500.368179 106.055188 
L 499.899538 106.055188 
L 499.430896 106.055188 
L 498.962255 106.055188 
L 498.493614 106.055188 
L 498.024972 106.055188 
L 497.556331 106.055188 
L 497.08769 106.055188 
L 496.619048 106.055188 
L 496.150407 106.055188 
L 495.681765 106.055188 
L 495.213124 106.055188 
L 494.744483 106.055188 
L 494.275841 106.055188 
L 493.8072 106.055188 
L 493.338559 106.055188 
L 492.869917 106.055188 
L 492.401276 106.055188 
L 491.932635 106.055188 
L 491.463993 106.055188 
L 490.995352 106.055188 
L 490.52671 106.055188 
L 490.058069 106.055188 
L 489.589428 106.055188 
L 489.120786 106.055188 
L 488.652145 106.055188 
L 488.183504 106.055188 
L 487.714862 106.055188 
L 487.246221 106.055188 
L 486.777579 106.055188 
L 486.308938 106.055188 
L 485.840297 106.055188 
L 485.371655 106.055188 
L 484.903014 106.055188 
L 484.434373 106.055188 
L 483.965731 106.055188 
L 483.49709 106.055188 
L 483.028449 106.055188 
L 482.559807 106.055188 
L 482.091166 106.055188 
L 481.622524 106.055188 
L 481.153883 106.055188 
L 480.685242 106.055188 
L 480.2166 106.055188 
L 479.747959 106.055188 
z
" clip-path="url(#p2e4e93bd8b)" style="fill: #808080; fill-opacity: 0.2; stroke: #808080; stroke-opacity: 0.2"/>
   </g>
   <g id="matplotlib.axis_1">
    <g id="xtick_1">
     <g id="line2d_1">
      <path d="M 69.686761 189.79 
L 69.686761 22.32 
" clip-path="url(#p2e4e93bd8b)" style="fill: none; stroke: #b0b0b0; stroke-opacity: 0.3; stroke-width: 0.8; stroke-linecap: square"/>
     </g>
     <g id="line2d_2">
      <defs>
       <path id="m6b402711f5" d="M 0 0 
L 0 3.5 
" style="stroke: #000000; stroke-width: 0.8"/>
      </defs>
      <g>
       <use xlink:href="#m6b402711f5" x="69.686761" y="189.79" style="stroke: #000000; stroke-width: 0.8"/>
      </g>
     </g>
    </g>
    <g id="xtick_2">
     <g id="line2d_3">
      <path d="M 128.208352 189.79 
L 128.208352 22.32 
" clip-path="url(#p2e4e93bd8b)" style="fill: none; stroke: #b0b0b0; stroke-opacity: 0.3; stroke-width: 0.8; stroke-linecap: square"/>
     </g>
     <g id="line2d_4">
      <g>
       <use xlink:href="#m6b402711f5" x="128.208352" y="189.79" style="stroke: #000000; stroke-width: 0.8"/>
      </g>
     </g>
    </g>
    <g id="xtick_3">
     <g id="line2d_5">
      <path d="M 186.729943 189.79 
L 186.729943 22.32 
" clip-path="url(#p2e4e93bd8b)" style="fill: none; stroke: #b0b0b0; stroke-opacity: 0.3; stroke-width: 0.8; stroke-linecap: square"/>
     </g>
     <g id="line2d_6">
      <g>
       <use xlink:href="#m6b402711f5" x="186.729943" y="189.79" style="stroke: #000000; stroke-width: 0.8"/>
      </g>
     </g>
    </g>
    <g id="xtick_4">
     <g id="line2d_7">
      <path d="M 245.251534 189.79 
L 245.251534 22.32 
" clip-path="url(#p2e4e93bd8b)" style="fill: none; stroke: #b0b0b0; stroke-opacity: 0.3; stroke-width: 0.8; stroke-linecap: square"/>
     </g>
     <g id="line2d_8">
      <g>
       <use xlink:href="#m6b402711f5" x="245.251534" y="189.79" style="stroke: #000000; stroke-width: 0.8"/>
      </g>
     </g>
    </g>
    <g id="xtick_5">
     <g id="line2d_9">
      <path d="M 303.773125 189.79 
L 303.773125 22.32 
" clip-path="url(#p2e4e93bd8b)" style="fill: none; stroke: #b0b0b0; stroke-opacity: 0.3; stroke-width: 0.8; stroke-linecap: square"/>
     </g>
     <g id="line2d_10">
      <g>
       <use xlink:href="#m6b402711f5" x="303.773125" y="189.79" style="stroke: #000000; stroke-width: 0.8"/>
      </g>
     </g>
    </g>
    <g id="xtick_6">
     <g id="line2d_11">
      <path d="M 362.294716 189.79 
L 362.294716 22.32 
" clip-path="url(#p2e4e93bd8b)" style="fill: none; stroke: #b0b0b0; stroke-opacity: 0.3; stroke-width: 0.8; stroke-linecap: square"/>
     </g>
     <g id="line2d_12">
      <g>
       <use xlink:href="#m6b402711f5" x="362.294716" y="189.79" style="stroke: #000000; stroke-width: 0.8"/>
      </g>
     </g>
    </g>
    <g id="xtick_7">
     <g id="line2d_13">
      <path d="M 420.816307 189.79 
L 420.816307 22.32 
" clip-path="url(#p2e4e93bd8b)" style="fill: none; stroke: #b0b0b0; stroke-opacity: 0.3; stroke-width: 0.8; stroke-linecap: square"/>
     </g>
     <g id="line2d_14">
      <g>
       <use xlink:href="#m6b402711f5" x="420.816307" y="189.79" style="stroke: #000000; stroke-width: 0.8"/>
      </g>
     </g>
    </g>
    <g id="xtick_8">
     <g id="line2d_15">
      <path d="M 479.337898 189.79 
L 479.337898 22.32 
" clip-path="url(#p2e4e93bd8b)" style="fill: none; stroke: #b0b0b0; stroke-opacity: 0.3; stroke-width: 0.8; stroke-linecap: square"/>
     </g>
     <g id="line2d_16">
      <g>
       <use xlink:href="#m6b402711f5" x="479.337898" y="189.79" style="stroke: #000000; stroke-width: 0.8"/>
      </g>
     </g>
    </g>
    <g id="xtick_9">
     <g id="line2d_17">
      <path d="M 537.859489 189.79 
L 537.859489 22.32 
" clip-path="url(#p2e4e93bd8b)" style="fill: none; stroke: #b0b0b0; stroke-opacity: 0.3; stroke-width: 0.8; stroke-linecap: square"/>
     </g>
     <g id="line2d_18">
      <g>
       <use xlink:href="#m6b402711f5" x="537.859489" y="189.79" style="stroke: #000000; stroke-width: 0.8"/>
      </g>
     </g>
    </g>
   </g>
   <g id="matplotlib.axis_2">
    <g id="ytick_1">
     <g id="line2d_19">
      <path d="M 46.278125 182.178104 
L 561.268125 182.178104 
" clip-path="url(#p2e4e93bd8b)" style="fill: none; stroke: #b0b0b0; stroke-opacity: 0.3; stroke-width: 0.8; stroke-linecap: square"/>
     </g>
     <g id="line2d_20">
      <defs>
       <path id="m1f2b1a851f" d="M 0 0 
L -3.5 0 
" style="stroke: #000000; stroke-width: 0.8"/>
      </defs>
      <g>
       <use xlink:href="#m1f2b1a851f" x="46.278125" y="182.178104" style="stroke: #000000; stroke-width: 0.8"/>
      </g>
     </g>
     <g id="text_1">
      <!-- -1.0 -->
      <g transform="translate(22.070313 185.71326) scale(0.1 -0.1)">
       <defs>
        <path id="Pretendard-Regular-2d" d="M 2375 2181 
L 394 2181 
L 394 1688 
L 2375 1688 
L 2375 2181 
z
" transform="scale(0.015625)"/>
        <path id="Pretendard-Regular-31" d="M 2025 4525 
L 1456 4525 
L 331 3775 
L 331 3206 
L 1431 3938 
L 1456 3938 
L 1456 0 
L 2025 0 
L 2025 4525 
z
" transform="scale(0.015625)"/>
        <path id="Pretendard-Regular-2e" d="M 813 -38 
C 1031 -38 1213 144 1213 369 
C 1213 588 1031 769 813 769 
C 594 769 406 588 413 369 
C 406 144 594 -38 813 -38 
z
" transform="scale(0.015625)"/>
        <path id="Pretendard-Regular-30" d="M 1906 -63 
C 2906 -63 3488 781 3488 2263 
C 3488 3731 2900 4588 1906 4588 
C 913 4588 325 3731 325 2263 
C 325 781 900 -63 1906 -63 
z
M 1906 438 
C 1250 438 869 1094 869 2263 
C 869 3431 1256 4100 1906 4100 
C 2556 4100 2938 3431 2938 2263 
C 2938 1094 2556 438 1906 438 
z
" transform="scale(0.015625)"/>
       </defs>
       <use xlink:href="#Pretendard-Regular-2d"/>
       <use xlink:href="#Pretendard-Regular-31" transform="translate(43.261719 0)"/>
       <use xlink:href="#Pretendard-Regular-2e" transform="translate(87.109375 0)"/>
       <use xlink:href="#Pretendard-Regular-30" transform="translate(112.5 0)"/>
      </g>
     </g>
    </g>
    <g id="ytick_2">
     <g id="line2d_21">
      <path d="M 46.278125 144.116646 
L 561.268125 144.116646 
" clip-path="url(#p2e4e93bd8b)" style="fill: none; stroke: #b0b0b0; stroke-opacity: 0.3; stroke-width: 0.8; stroke-linecap: square"/>
     </g>
     <g id="line2d_22">
      <g>
       <use xlink:href="#m1f2b1a851f" x="46.278125" y="144.116646" style="stroke: #000000; stroke-width: 0.8"/>
      </g>
     </g>
     <g id="text_2">
      <!-- -0.5 -->
      <g transform="translate(20.4875 147.651802) scale(0.1 -0.1)">
       <defs>
        <path id="Pretendard-Regular-35" d="M 1900 -63 
C 2800 -63 3463 569 3463 1444 
C 3463 2325 2825 2963 1963 2963 
C 1644 2963 1338 2856 1138 2700 
L 1094 2700 
L 1263 4025 
L 3244 4025 
L 3244 4525 
L 794 4525 
L 475 2050 
L 1019 2050 
C 1188 2344 1481 2463 1863 2456 
C 2469 2450 2913 2019 2913 1431 
C 2913 863 2488 431 1900 431 
C 1413 431 1019 731 975 1138 
L 431 1138 
C 463 444 1081 -63 1900 -63 
z
" transform="scale(0.015625)"/>
       </defs>
       <use xlink:href="#Pretendard-Regular-2d"/>
       <use xlink:href="#Pretendard-Regular-30" transform="translate(43.261719 0)"/>
       <use xlink:href="#Pretendard-Regular-2e" transform="translate(102.832031 0)"/>
       <use xlink:href="#Pretendard-Regular-35" transform="translate(128.222656 0)"/>
      </g>
     </g>
    </g>
    <g id="ytick_3">
     <g id="line2d_23">
      <path d="M 46.278125 106.055188 
L 561.268125 106.055188 
" clip-path="url(#p2e4e93bd8b)" style="fill: none; stroke: #b0b0b0; stroke-opacity: 0.3; stroke-width: 0.8; stroke-linecap: square"/>
     </g>
     <g id="line2d_24">
      <g>
       <use xlink:href="#m1f2b1a851f" x="46.278125" y="106.055188" style="stroke: #000000; stroke-width: 0.8"/>
      </g>
     </g>
     <g id="text_3">
      <!-- 0.0 -->
      <g transform="translate(24.823438 109.590344) scale(0.1 -0.1)">
       <use xlink:href="#Pretendard-Regular-30"/>
       <use xlink:href="#Pretendard-Regular-2e" transform="translate(59.570312 0)"/>
       <use xlink:href="#Pretendard-Regular-30" transform="translate(84.960938 0)"/>
      </g>
     </g>
    </g>
    <g id="ytick_4">
     <g id="line2d_25">
      <path d="M 46.278125 67.99373 
L 561.268125 67.99373 
" clip-path="url(#p2e4e93bd8b)" style="fill: none; stroke: #b0b0b0; stroke-opacity: 0.3; stroke-width: 0.8; stroke-linecap: square"/>
     </g>
     <g id="line2d_26">
      <g>
       <use xlink:href="#m1f2b1a851f" x="46.278125" y="67.99373" style="stroke: #000000; stroke-width: 0.8"/>
      </g>
     </g>
     <g id="text_4">
      <!-- 0.5 -->
      <g transform="translate(24.814063 71.528887) scale(0.1 -0.1)">
       <use xlink:href="#Pretendard-Regular-30"/>
       <use xlink:href="#Pretendard-Regular-2e" transform="translate(59.570312 0)"/>
       <use xlink:href="#Pretendard-Regular-35" transform="translate(84.960938 0)"/>
      </g>
     </g>
    </g>
    <g id="ytick_5">
     <g id="line2d_27">
      <path d="M 46.278125 29.932273 
L 561.268125 29.932273 
" clip-path="url(#p2e4e93bd8b)" style="fill: none; stroke: #b0b0b0; stroke-opacity: 0.3; stroke-width: 0.8; stroke-linecap: square"/>
     </g>
     <g id="line2d_28">
      <g>
       <use xlink:href="#m1f2b1a851f" x="46.278125" y="29.932273" style="stroke: #000000; stroke-width: 0.8"/>
      </g>
     </g>
     <g id="text_5">
      <!-- 1.0 -->
      <g transform="translate(26.396875 33.467429) scale(0.1 -0.1)">
       <use xlink:href="#Pretendard-Regular-31"/>
       <use xlink:href="#Pretendard-Regular-2e" transform="translate(43.847656 0)"/>
       <use xlink:href="#Pretendard-Regular-30" transform="translate(69.238281 0)"/>
      </g>
     </g>
    </g>
    <g id="text_6">
     <!-- Amplitude -->
     <g transform="translate(14.495312 128.707344) rotate(-90) scale(0.1 -0.1)">
      <defs>
       <path id="Pretendard-Regular-41" d="M 700 0 
L 1156 1275 
L 2975 1275 
L 3425 0 
L 4019 0 
L 2363 4525 
L 1769 4525 
L 113 0 
L 700 0 
z
M 1325 1769 
L 2044 3794 
L 2081 3794 
L 2800 1769 
L 1325 1769 
z
" transform="scale(0.015625)"/>
       <path id="Pretendard-Regular-6d" d="M 431 0 
L 969 0 
L 969 2119 
C 969 2613 1325 2956 1731 2956 
C 2119 2956 2394 2700 2394 2319 
L 2394 0 
L 2938 0 
L 2938 2206 
C 2938 2638 3206 2956 3681 2956 
C 4050 2956 4369 2763 4369 2263 
L 4369 0 
L 4906 0 
L 4906 2269 
C 4906 3069 4475 3438 3869 3438 
C 3381 3438 3025 3213 2850 2863 
L 2813 2863 
C 2650 3225 2350 3438 1906 3438 
C 1463 3438 1138 3225 994 2863 
L 950 2863 
L 950 3394 
L 431 3394 
L 431 0 
z
" transform="scale(0.015625)"/>
       <path id="Pretendard-Regular-70" d="M 431 -1275 
L 969 -1275 
L 969 519 
L 1013 519 
C 1125 331 1350 -69 2000 -69 
C 2844 -69 3438 613 3438 1688 
C 3438 2763 2844 3438 1994 3438 
C 1338 3438 1125 3038 1013 2856 
L 950 2856 
L 950 3394 
L 431 3394 
L 431 -1275 
z
M 956 1700 
C 956 2450 1288 2956 1925 2956 
C 2575 2956 2900 2406 2900 1700 
C 2900 975 2569 413 1925 413 
C 1300 413 956 938 956 1700 
z
" transform="scale(0.015625)"/>
       <path id="Pretendard-Regular-6c" d="M 969 4525 
L 431 4525 
L 431 0 
L 969 0 
L 969 4525 
z
" transform="scale(0.015625)"/>
       <path id="Pretendard-Regular-69" d="M 431 0 
L 969 0 
L 969 3394 
L 431 3394 
L 431 0 
z
M 700 3956 
C 906 3956 1081 4113 1081 4313 
C 1081 4513 906 4669 700 4669 
C 494 4669 325 4513 325 4313 
C 325 4113 494 3956 700 3956 
z
" transform="scale(0.015625)"/>
       <path id="Pretendard-Regular-74" d="M 1913 3394 
L 1200 3394 
L 1200 4206 
L 656 4206 
L 656 3394 
L 144 3394 
L 144 2944 
L 656 2944 
L 656 838 
C 656 238 1138 -44 1588 -44 
C 1744 -44 1881 -31 1963 -19 
L 1963 481 
C 1881 475 1744 469 1644 469 
C 1413 469 1200 538 1200 975 
L 1200 2944 
L 1913 2944 
L 1913 3394 
z
" transform="scale(0.015625)"/>
       <path id="Pretendard-Regular-75" d="M 2575 1394 
C 2575 763 2088 475 1706 475 
C 1275 475 969 788 969 1275 
L 969 3394 
L 431 3394 
L 431 1238 
C 431 375 888 -44 1531 -44 
C 2044 -44 2375 231 2538 575 
L 2575 575 
L 2575 0 
L 3106 0 
L 3106 3394 
L 2575 3394 
L 2575 1394 
z
" transform="scale(0.015625)"/>
       <path id="Pretendard-Regular-64" d="M 1713 -69 
C 2363 -69 2581 331 2700 519 
L 2756 519 
L 2756 0 
L 3281 0 
L 3281 4525 
L 2738 4525 
L 2738 2856 
L 2700 2856 
C 2588 3038 2375 3438 1719 3438 
C 869 3438 269 2763 269 1688 
C 269 613 869 -69 1713 -69 
z
M 1788 413 
C 1144 413 813 975 813 1700 
C 813 2406 1138 2956 1788 2956 
C 2419 2956 2756 2450 2756 1700 
C 2756 938 2406 413 1788 413 
z
" transform="scale(0.015625)"/>
       <path id="Pretendard-Regular-65" d="M 1856 -69 
C 2556 -69 3056 281 3219 794 
L 2644 794 
C 2519 581 2263 406 1856 406 
C 1250 406 831 800 806 1519 
L 3269 1519 
L 3269 1744 
C 3269 3000 2519 3438 1806 3438 
C 881 3438 269 2713 269 1669 
C 269 625 875 -69 1856 -69 
z
M 813 1975 
C 844 2500 1219 2963 1806 2963 
C 2363 2963 2725 2544 2725 1975 
L 813 1975 
z
" transform="scale(0.015625)"/>
      </defs>
      <use xlink:href="#Pretendard-Regular-41"/>
      <use xlink:href="#Pretendard-Regular-6d" transform="translate(64.550781 0)"/>
      <use xlink:href="#Pretendard-Regular-70" transform="translate(147.949219 0)"/>
      <use xlink:href="#Pretendard-Regular-6c" transform="translate(205.859375 0)"/>
      <use xlink:href="#Pretendard-Regular-69" transform="translate(227.636719 0)"/>
      <use xlink:href="#Pretendard-Regular-74" transform="translate(249.414062 0)"/>
      <use xlink:href="#Pretendard-Regular-75" transform="translate(283.398438 0)"/>
      <use xlink:href="#Pretendard-Regular-64" transform="translate(338.671875 0)"/>
      <use xlink:href="#Pretendard-Regular-65" transform="translate(397.753906 0)"/>
     </g>
    </g>
   </g>
   <g id="line2d_29">
    <path d="M 69.686761 29.932273 
L 71.561327 30.028612 
L 73.435892 30.317385 
L 75.310458 30.797862 
L 77.185023 31.468826 
L 79.52823 32.572771 
L 81.871437 33.967298 
L 84.214644 35.646893 
L 86.557851 37.604913 
L 88.901057 39.833617 
L 91.712906 42.85288 
L 94.524754 46.23199 
L 97.336602 49.951708 
L 100.617092 54.693513 
L 103.897581 59.833282 
L 107.646712 66.143389 
L 111.864485 73.721625 
L 116.550898 82.623 
L 122.643236 94.726565 
L 141.388891 132.427892 
L 146.075304 141.178294 
L 150.293077 148.582882 
L 154.042208 154.710441 
L 157.322697 159.670213 
L 160.603187 164.214562 
L 163.415035 167.752292 
L 166.226883 170.938745 
L 169.038732 173.755778 
L 171.381938 175.809474 
L 173.725145 177.58733 
L 176.068352 179.082316 
L 178.411559 180.288521 
L 180.754766 181.201174 
L 182.629331 181.717474 
L 184.503897 182.042262 
L 186.378462 182.174716 
L 188.253028 182.1145 
L 190.127593 181.861767 
L 192.002159 181.417157 
L 193.876724 180.781794 
L 196.219931 179.721842 
L 198.563138 178.370578 
L 200.906345 176.733347 
L 203.249551 174.816624 
L 205.592758 172.627987 
L 208.404606 169.654956 
L 211.216455 166.319816 
L 214.028303 162.641554 
L 217.308792 157.944625 
L 220.589282 152.845642 
L 224.338413 146.576736 
L 228.556185 139.037459 
L 233.242599 130.169612 
L 238.866295 119.037979 
L 259.486516 77.672266 
L 264.172929 69.034967 
L 268.390702 61.757864 
L 272.139833 55.762702 
L 275.420322 50.932417 
L 278.700812 46.529237 
L 281.51266 43.12098 
L 284.324508 40.071044 
L 286.667715 37.81574 
L 289.010922 35.830285 
L 291.354129 34.12253 
L 293.697336 32.69923 
L 296.040542 31.566011 
L 298.383749 30.727356 
L 300.258315 30.270785 
L 302.13288 30.006036 
L 304.007446 29.933778 
L 305.882011 30.054195 
L 307.756577 30.366981 
L 309.631142 30.871345 
L 311.505708 31.566011 
L 313.848914 32.69923 
L 316.192121 34.12253 
L 318.535328 35.830285 
L 320.878535 37.81574 
L 323.221742 40.071044 
L 326.03359 43.12098 
L 328.845438 46.529237 
L 331.657286 50.276409 
L 334.937776 55.047896 
L 338.218266 60.214602 
L 341.967397 66.551865 
L 346.185169 74.155699 
L 350.871583 83.078987 
L 356.96392 95.200227 
L 375.240934 131.978252 
L 379.927347 140.752838 
L 384.14512 148.184954 
L 387.894251 154.341272 
L 391.17474 159.329283 
L 394.45523 163.904512 
L 397.267078 167.470633 
L 400.078926 170.68708 
L 402.890774 173.535541 
L 405.233981 175.616392 
L 407.577188 177.422166 
L 409.920395 178.945724 
L 412.263602 180.181041 
L 414.606809 181.12323 
L 416.481374 181.663388 
L 418.35594 182.01217 
L 420.230505 182.168694 
L 422.105071 182.132563 
L 423.979636 181.90387 
L 425.854202 181.483193 
L 427.728767 180.871596 
L 430.071974 179.841024 
L 432.415181 178.51867 
L 434.758388 176.909763 
L 437.101594 175.020666 
L 439.444801 172.858848 
L 442.256649 169.916787 
L 445.068498 166.611125 
L 447.880346 162.960683 
L 451.160835 158.293902 
L 454.441325 153.222363 
L 458.190456 146.981235 
L 462.408228 139.468303 
L 467.094642 130.623248 
L 472.718338 119.509478 
L 484.434373 95.674319 
L 490.995352 82.623 
L 496.150407 72.857331 
L 500.368179 65.33119 
L 504.11731 59.076142 
L 507.3978 53.990856 
L 510.678289 49.308977 
L 513.490137 45.644607 
L 516.301986 42.32419 
L 519.113834 39.366629 
L 521.457041 37.191391 
L 523.800248 35.288471 
L 526.143454 33.665394 
L 528.486661 32.328579 
L 530.829868 31.283312 
L 532.704434 30.659829 
L 534.578999 30.227183 
L 536.453565 29.986468 
L 537.859489 29.932273 
L 537.859489 29.932273 
" clip-path="url(#p2e4e93bd8b)" style="fill: none; stroke: #000000; stroke-width: 2; stroke-linecap: square"/>
   </g>
   <g id="patch_3">
    <path d="M 46.278125 189.79 
L 46.278125 22.32 
" style="fill: none; stroke: #000000; stroke-width: 0.8; stroke-linejoin: miter; stroke-linecap: square"/>
   </g>
   <g id="patch_4">
    <path d="M 561.268125 189.79 
L 561.268125 22.32 
" style="fill: none; stroke: #000000; stroke-width: 0.8; stroke-linejoin: miter; stroke-linecap: square"/>
   </g>
   <g id="patch_5">
    <path d="M 46.278125 189.79 
L 561.268125 189.79 
" style="fill: none; stroke: #000000; stroke-width: 0.8; stroke-linejoin: miter; stroke-linecap: square"/>
   </g>
   <g id="patch_6">
    <path d="M 46.278125 22.32 
L 561.268125 22.32 
" style="fill: none; stroke: #000000; stroke-width: 0.8; stroke-linejoin: miter; stroke-linecap: square"/>
   </g>
   <g id="text_7">
    <!-- Message Signal $m(t)$ -->
    <g transform="translate(247.193125 16.32) scale(0.12 -0.12)">
     <defs>
      <path id="Pretendard-Regular-4d" d="M 500 4525 
L 500 0 
L 1031 0 
L 1031 3419 
L 1069 3419 
L 2475 0 
L 2975 0 
L 4381 3419 
L 4425 3419 
L 4425 0 
L 4956 0 
L 4956 4525 
L 4281 4525 
L 2756 800 
L 2700 800 
L 1175 4525 
L 500 4525 
z
" transform="scale(0.015625)"/>
      <path id="Pretendard-Regular-73" d="M 2319 2513 
L 2844 2513 
C 2775 3063 2331 3438 1631 3438 
C 881 3438 375 3019 375 2438 
C 375 1988 688 1663 1281 1525 
L 1794 1406 
C 2181 1319 2350 1156 2350 919 
C 2350 600 2044 400 1563 400 
C 1138 400 894 556 831 888 
L 269 888 
C 356 269 813 -69 1575 -69 
C 2425 -69 2906 363 2906 950 
C 2906 1425 2606 1725 2000 1869 
L 1494 1994 
C 1094 2088 913 2244 913 2469 
C 913 2756 1213 2981 1631 2981 
C 2031 2981 2244 2794 2319 2513 
z
" transform="scale(0.015625)"/>
      <path id="Pretendard-Regular-61" d="M 269 963 
C 269 300 781 -81 1425 -81 
C 2013 -81 2325 231 2438 463 
L 2463 463 
L 2463 0 
L 2994 0 
L 2994 2238 
C 2994 3306 2163 3438 1719 3438 
C 969 3438 438 3056 369 2513 
L 931 2513 
C 1006 2769 1263 2969 1694 2969 
C 2206 2969 2463 2719 2463 2288 
L 2463 2013 
C 2309 2006 1759 1978 1544 1963 
C 956 1919 269 1744 269 963 
z
M 806 938 
C 806 1306 1119 1481 1606 1513 
L 2463 1575 
L 2463 1231 
C 2463 806 2125 400 1519 400 
C 1106 400 806 581 806 938 
z
" transform="scale(0.015625)"/>
      <path id="Pretendard-Regular-67" d="M 1806 -1344 
C 2631 -1344 3281 -969 3281 -94 
L 3281 3394 
L 2756 3394 
L 2756 2856 
L 2713 2856 
C 2588 3038 2375 3438 1719 3438 
C 869 3438 269 2788 269 1744 
C 269 675 888 50 1713 50 
C 2369 50 2588 438 2700 625 
L 2744 625 
L 2744 -63 
C 2744 -625 2388 -875 1806 -875 
C 1325 -875 1006 -700 931 -356 
L 369 -356 
C 431 -988 988 -1344 1806 -1344 
z
M 1788 531 
C 1144 531 813 1019 813 1725 
C 813 2406 1138 2956 1788 2956 
C 2419 2956 2756 2450 2756 1725 
C 2756 975 2406 531 1788 531 
z
" transform="scale(0.015625)"/>
      <path id="Pretendard-Regular-20" transform="scale(0.015625)"/>
      <path id="Pretendard-Regular-53" d="M 2969 3388 
L 3519 3388 
C 3494 4075 2863 4588 1988 4588 
C 1113 4588 431 4081 431 3319 
C 431 2706 869 2344 1581 2138 
L 2138 1988 
C 2613 1850 3031 1681 3031 1244 
C 3031 750 2563 431 1938 431 
C 1400 431 931 669 881 1175 
L 306 1175 
C 356 425 963 -81 1938 -81 
C 2988 -81 3581 494 3581 1231 
C 3581 2075 2788 2356 2300 2481 
L 1850 2606 
C 1506 2694 975 2869 975 3344 
C 975 3775 1369 4088 1969 4088 
C 2513 4088 2919 3831 2969 3388 
z
" transform="scale(0.015625)"/>
      <path id="Pretendard-Regular-6e" d="M 969 2038 
C 969 2625 1331 2956 1825 2956 
C 2306 2956 2594 2644 2594 2119 
L 2594 0 
L 3131 0 
L 3131 2156 
C 3131 3019 2675 3438 1988 3438 
C 1469 3438 1156 3206 994 2863 
L 950 2863 
L 950 3394 
L 431 3394 
L 431 0 
L 969 0 
L 969 2038 
z
" transform="scale(0.015625)"/>
      <path id="DejaVuSans-Oblique-6d" d="M 5747 2113 
L 5338 0 
L 4763 0 
L 5166 2094 
Q 5191 2228 5203 2325 
Q 5216 2422 5216 2491 
Q 5216 2772 5059 2928 
Q 4903 3084 4622 3084 
Q 4203 3084 3875 2770 
Q 3547 2456 3450 1953 
L 3066 0 
L 2491 0 
L 2900 2094 
Q 2925 2209 2937 2307 
Q 2950 2406 2950 2484 
Q 2950 2769 2794 2926 
Q 2638 3084 2363 3084 
Q 1938 3084 1609 2770 
Q 1281 2456 1184 1953 
L 800 0 
L 225 0 
L 909 3500 
L 1484 3500 
L 1375 2956 
Q 1609 3263 1923 3423 
Q 2238 3584 2597 3584 
Q 2978 3584 3223 3384 
Q 3469 3184 3519 2828 
Q 3781 3197 4126 3390 
Q 4472 3584 4856 3584 
Q 5306 3584 5551 3325 
Q 5797 3066 5797 2591 
Q 5797 2488 5784 2364 
Q 5772 2241 5747 2113 
z
" transform="scale(0.015625)"/>
      <path id="DejaVuSans-28" d="M 1984 4856 
Q 1566 4138 1362 3434 
Q 1159 2731 1159 2009 
Q 1159 1288 1364 580 
Q 1569 -128 1984 -844 
L 1484 -844 
Q 1016 -109 783 600 
Q 550 1309 550 2009 
Q 550 2706 781 3412 
Q 1013 4119 1484 4856 
L 1984 4856 
z
" transform="scale(0.015625)"/>
      <path id="DejaVuSans-Oblique-74" d="M 2706 3500 
L 2619 3053 
L 1472 3053 
L 1100 1153 
Q 1081 1047 1072 975 
Q 1063 903 1063 863 
Q 1063 663 1183 572 
Q 1303 481 1569 481 
L 2150 481 
L 2053 0 
L 1503 0 
Q 991 0 739 200 
Q 488 400 488 806 
Q 488 878 497 964 
Q 506 1050 525 1153 
L 897 3053 
L 409 3053 
L 500 3500 
L 978 3500 
L 1172 4494 
L 1747 4494 
L 1556 3500 
L 2706 3500 
z
" transform="scale(0.015625)"/>
      <path id="DejaVuSans-29" d="M 513 4856 
L 1013 4856 
Q 1481 4119 1714 3412 
Q 1947 2706 1947 2009 
Q 1947 1309 1714 600 
Q 1481 -109 1013 -844 
L 513 -844 
Q 928 -128 1133 580 
Q 1338 1288 1338 2009 
Q 1338 2731 1133 3434 
Q 928 4138 513 4856 
z
" transform="scale(0.015625)"/>
     </defs>
     <use xlink:href="#Pretendard-Regular-4d" transform="translate(0 0.125)"/>
     <use xlink:href="#Pretendard-Regular-65" transform="translate(85.253906 0.125)"/>
     <use xlink:href="#Pretendard-Regular-73" transform="translate(140.527344 0.125)"/>
     <use xlink:href="#Pretendard-Regular-73" transform="translate(190.136719 0.125)"/>
     <use xlink:href="#Pretendard-Regular-61" transform="translate(239.746094 0.125)"/>
     <use xlink:href="#Pretendard-Regular-67" transform="translate(293.261719 0.125)"/>
     <use xlink:href="#Pretendard-Regular-65" transform="translate(351.171875 0.125)"/>
     <use xlink:href="#Pretendard-Regular-20" transform="translate(406.445312 0.125)"/>
     <use xlink:href="#Pretendard-Regular-53" transform="translate(431.542969 0.125)"/>
     <use xlink:href="#Pretendard-Regular-69" transform="translate(492.285156 0.125)"/>
     <use xlink:href="#Pretendard-Regular-67" transform="translate(514.0625 0.125)"/>
     <use xlink:href="#Pretendard-Regular-6e" transform="translate(571.972656 0.125)"/>
     <use xlink:href="#Pretendard-Regular-61" transform="translate(627.636719 0.125)"/>
     <use xlink:href="#Pretendard-Regular-6c" transform="translate(681.152344 0.125)"/>
     <use xlink:href="#Pretendard-Regular-20" transform="translate(702.929688 0.125)"/>
     <use xlink:href="#DejaVuSans-Oblique-6d" transform="translate(728.027344 0.125)"/>
     <use xlink:href="#DejaVuSans-28" transform="translate(825.439453 0.125)"/>
     <use xlink:href="#DejaVuSans-Oblique-74" transform="translate(864.453125 0.125)"/>
     <use xlink:href="#DejaVuSans-29" transform="translate(903.662109 0.125)"/>
    </g>
   </g>
  </g>
  <g id="axes_2">
   <g id="patch_7">
    <path d="M 46.278125 387.16 
L 561.268125 387.16 
L 561.268125 219.69 
L 46.278125 219.69 
z
" style="fill: #ffffff"/>
   </g>
   <g id="matplotlib.axis_3">
    <g id="xtick_10">
     <g id="line2d_30">
      <path d="M 69.686761 387.16 
L 69.686761 219.69 
" clip-path="url(#pa1ca6c4cb4)" style="fill: none; stroke: #b0b0b0; stroke-opacity: 0.3; stroke-width: 0.8; stroke-linecap: square"/>
     </g>
     <g id="line2d_31">
      <g>
       <use xlink:href="#m6b402711f5" x="69.686761" y="387.16" style="stroke: #000000; stroke-width: 0.8"/>
      </g>
     </g>
     <g id="text_8">
      <!-- 0.00 -->
      <g transform="translate(59.480511 401.230312) scale(0.1 -0.1)">
       <use xlink:href="#Pretendard-Regular-30"/>
       <use xlink:href="#Pretendard-Regular-2e" transform="translate(59.570312 0)"/>
       <use xlink:href="#Pretendard-Regular-30" transform="translate(84.960938 0)"/>
       <use xlink:href="#Pretendard-Regular-30" transform="translate(144.53125 0)"/>
      </g>
     </g>
    </g>
    <g id="xtick_11">
     <g id="line2d_32">
      <path d="M 128.208352 387.16 
L 128.208352 219.69 
" clip-path="url(#pa1ca6c4cb4)" style="fill: none; stroke: #b0b0b0; stroke-opacity: 0.3; stroke-width: 0.8; stroke-linecap: square"/>
     </g>
     <g id="line2d_33">
      <g>
       <use xlink:href="#m6b402711f5" x="128.208352" y="387.16" style="stroke: #000000; stroke-width: 0.8"/>
      </g>
     </g>
     <g id="text_9">
      <!-- 0.25 -->
      <g transform="translate(118.041946 401.230312) scale(0.1 -0.1)">
       <defs>
        <path id="Pretendard-Regular-32" d="M 425 0 
L 3363 0 
L 3363 500 
L 1206 500 
L 1206 538 
L 2244 1606 
C 3044 2431 3281 2825 3281 3331 
C 3281 4038 2694 4588 1875 4588 
C 1056 4588 438 4050 444 3250 
L 975 3250 
C 975 3756 1319 4100 1856 4100 
C 2363 4100 2756 3794 2756 3331 
C 2756 2913 2500 2606 1963 2038 
L 419 413 
L 425 0 
z
" transform="scale(0.015625)"/>
       </defs>
       <use xlink:href="#Pretendard-Regular-30"/>
       <use xlink:href="#Pretendard-Regular-2e" transform="translate(59.570312 0)"/>
       <use xlink:href="#Pretendard-Regular-32" transform="translate(84.960938 0)"/>
       <use xlink:href="#Pretendard-Regular-35" transform="translate(143.652344 0)"/>
      </g>
     </g>
    </g>
    <g id="xtick_12">
     <g id="line2d_34">
      <path d="M 186.729943 387.16 
L 186.729943 219.69 
" clip-path="url(#pa1ca6c4cb4)" style="fill: none; stroke: #b0b0b0; stroke-opacity: 0.3; stroke-width: 0.8; stroke-linecap: square"/>
     </g>
     <g id="line2d_35">
      <g>
       <use xlink:href="#m6b402711f5" x="186.729943" y="387.16" style="stroke: #000000; stroke-width: 0.8"/>
      </g>
     </g>
     <g id="text_10">
      <!-- 0.50 -->
      <g transform="translate(176.519006 401.230312) scale(0.1 -0.1)">
       <use xlink:href="#Pretendard-Regular-30"/>
       <use xlink:href="#Pretendard-Regular-2e" transform="translate(59.570312 0)"/>
       <use xlink:href="#Pretendard-Regular-35" transform="translate(84.960938 0)"/>
       <use xlink:href="#Pretendard-Regular-30" transform="translate(144.628906 0)"/>
      </g>
     </g>
    </g>
    <g id="xtick_13">
     <g id="line2d_36">
      <path d="M 245.251534 387.16 
L 245.251534 219.69 
" clip-path="url(#pa1ca6c4cb4)" style="fill: none; stroke: #b0b0b0; stroke-opacity: 0.3; stroke-width: 0.8; stroke-linecap: square"/>
     </g>
     <g id="line2d_37">
      <g>
       <use xlink:href="#m6b402711f5" x="245.251534" y="387.16" style="stroke: #000000; stroke-width: 0.8"/>
      </g>
     </g>
     <g id="text_11">
      <!-- 0.75 -->
      <g transform="translate(235.260909 401.230312) scale(0.1 -0.1)">
       <defs>
        <path id="Pretendard-Regular-37" d="M 569 0 
L 1156 0 
L 3225 4000 
L 3225 4525 
L 250 4525 
L 250 4025 
L 2644 4025 
L 2644 3994 
L 569 0 
z
" transform="scale(0.015625)"/>
       </defs>
       <use xlink:href="#Pretendard-Regular-30"/>
       <use xlink:href="#Pretendard-Regular-2e" transform="translate(59.570312 0)"/>
       <use xlink:href="#Pretendard-Regular-37" transform="translate(84.960938 0)"/>
       <use xlink:href="#Pretendard-Regular-35" transform="translate(140.136719 0)"/>
      </g>
     </g>
    </g>
    <g id="xtick_14">
     <g id="line2d_38">
      <path d="M 303.773125 387.16 
L 303.773125 219.69 
" clip-path="url(#pa1ca6c4cb4)" style="fill: none; stroke: #b0b0b0; stroke-opacity: 0.3; stroke-width: 0.8; stroke-linecap: square"/>
     </g>
     <g id="line2d_39">
      <g>
       <use xlink:href="#m6b402711f5" x="303.773125" y="387.16" style="stroke: #000000; stroke-width: 0.8"/>
      </g>
     </g>
     <g id="text_12">
      <!-- 1.00 -->
      <g transform="translate(294.353594 401.230312) scale(0.1 -0.1)">
       <use xlink:href="#Pretendard-Regular-31"/>
       <use xlink:href="#Pretendard-Regular-2e" transform="translate(43.847656 0)"/>
       <use xlink:href="#Pretendard-Regular-30" transform="translate(69.238281 0)"/>
       <use xlink:href="#Pretendard-Regular-30" transform="translate(128.808594 0)"/>
      </g>
     </g>
    </g>
    <g id="xtick_15">
     <g id="line2d_40">
      <path d="M 362.294716 387.16 
L 362.294716 219.69 
" clip-path="url(#pa1ca6c4cb4)" style="fill: none; stroke: #b0b0b0; stroke-opacity: 0.3; stroke-width: 0.8; stroke-linecap: square"/>
     </g>
     <g id="line2d_41">
      <g>
       <use xlink:href="#m6b402711f5" x="362.294716" y="387.16" style="stroke: #000000; stroke-width: 0.8"/>
      </g>
     </g>
     <g id="text_13">
      <!-- 1.25 -->
      <g transform="translate(352.915028 401.230312) scale(0.1 -0.1)">
       <use xlink:href="#Pretendard-Regular-31"/>
       <use xlink:href="#Pretendard-Regular-2e" transform="translate(43.847656 0)"/>
       <use xlink:href="#Pretendard-Regular-32" transform="translate(69.238281 0)"/>
       <use xlink:href="#Pretendard-Regular-35" transform="translate(127.929688 0)"/>
      </g>
     </g>
    </g>
    <g id="xtick_16">
     <g id="line2d_42">
      <path d="M 420.816307 387.16 
L 420.816307 219.69 
" clip-path="url(#pa1ca6c4cb4)" style="fill: none; stroke: #b0b0b0; stroke-opacity: 0.3; stroke-width: 0.8; stroke-linecap: square"/>
     </g>
     <g id="line2d_43">
      <g>
       <use xlink:href="#m6b402711f5" x="420.816307" y="387.16" style="stroke: #000000; stroke-width: 0.8"/>
      </g>
     </g>
     <g id="text_14">
      <!-- 1.50 -->
      <g transform="translate(411.392088 401.230312) scale(0.1 -0.1)">
       <use xlink:href="#Pretendard-Regular-31"/>
       <use xlink:href="#Pretendard-Regular-2e" transform="translate(43.847656 0)"/>
       <use xlink:href="#Pretendard-Regular-35" transform="translate(69.238281 0)"/>
       <use xlink:href="#Pretendard-Regular-30" transform="translate(128.90625 0)"/>
      </g>
     </g>
    </g>
    <g id="xtick_17">
     <g id="line2d_44">
      <path d="M 479.337898 387.16 
L 479.337898 219.69 
" clip-path="url(#pa1ca6c4cb4)" style="fill: none; stroke: #b0b0b0; stroke-opacity: 0.3; stroke-width: 0.8; stroke-linecap: square"/>
     </g>
     <g id="line2d_45">
      <g>
       <use xlink:href="#m6b402711f5" x="479.337898" y="387.16" style="stroke: #000000; stroke-width: 0.8"/>
      </g>
     </g>
     <g id="text_15">
      <!-- 1.75 -->
      <g transform="translate(470.133991 401.230312) scale(0.1 -0.1)">
       <use xlink:href="#Pretendard-Regular-31"/>
       <use xlink:href="#Pretendard-Regular-2e" transform="translate(43.847656 0)"/>
       <use xlink:href="#Pretendard-Regular-37" transform="translate(69.238281 0)"/>
       <use xlink:href="#Pretendard-Regular-35" transform="translate(124.414062 0)"/>
      </g>
     </g>
    </g>
    <g id="xtick_18">
     <g id="line2d_46">
      <path d="M 537.859489 387.16 
L 537.859489 219.69 
" clip-path="url(#pa1ca6c4cb4)" style="fill: none; stroke: #b0b0b0; stroke-opacity: 0.3; stroke-width: 0.8; stroke-linecap: square"/>
     </g>
     <g id="line2d_47">
      <g>
       <use xlink:href="#m6b402711f5" x="537.859489" y="387.16" style="stroke: #000000; stroke-width: 0.8"/>
      </g>
     </g>
     <g id="text_16">
      <!-- 2.00 -->
      <g transform="translate(527.69777 401.230312) scale(0.1 -0.1)">
       <use xlink:href="#Pretendard-Regular-32"/>
       <use xlink:href="#Pretendard-Regular-2e" transform="translate(58.691406 0)"/>
       <use xlink:href="#Pretendard-Regular-30" transform="translate(84.082031 0)"/>
       <use xlink:href="#Pretendard-Regular-30" transform="translate(143.652344 0)"/>
      </g>
     </g>
    </g>
    <g id="text_17">
     <!-- Time (s) -->
     <g transform="translate(285.549687 414.595937) scale(0.1 -0.1)">
      <defs>
       <path id="Pretendard-Regular-54" d="M 250 4025 
L 1675 4025 
L 1675 0 
L 2244 0 
L 2244 4025 
L 3663 4025 
L 3663 4525 
L 250 4525 
L 250 4025 
z
" transform="scale(0.015625)"/>
       <path id="Pretendard-Regular-28" d="M 569 1725 
C 575 544 894 -438 1469 -1275 
L 1944 -1275 
C 1519 -656 1125 613 1125 1725 
C 1125 2838 1519 4100 1944 4719 
L 1469 4719 
C 894 3888 575 2906 569 1725 
z
" transform="scale(0.015625)"/>
       <path id="Pretendard-Regular-29" d="M 1613 1725 
C 1606 2906 1288 3888 713 4719 
L 238 4719 
C 663 4100 1056 2838 1056 1725 
C 1056 613 663 -656 238 -1275 
L 713 -1275 
C 1288 -438 1606 544 1613 1725 
z
" transform="scale(0.015625)"/>
      </defs>
      <use xlink:href="#Pretendard-Regular-54"/>
      <use xlink:href="#Pretendard-Regular-69" transform="translate(61.132812 0)"/>
      <use xlink:href="#Pretendard-Regular-6d" transform="translate(82.910156 0)"/>
      <use xlink:href="#Pretendard-Regular-65" transform="translate(166.308594 0)"/>
      <use xlink:href="#Pretendard-Regular-20" transform="translate(221.582031 0)"/>
      <use xlink:href="#Pretendard-Regular-28" transform="translate(246.679688 0)"/>
      <use xlink:href="#Pretendard-Regular-73" transform="translate(280.761719 0)"/>
      <use xlink:href="#Pretendard-Regular-29" transform="translate(330.371094 0)"/>
     </g>
    </g>
   </g>
   <g id="matplotlib.axis_4">
    <g id="ytick_6">
     <g id="line2d_48">
      <path d="M 46.278125 387.16 
L 561.268125 387.16 
" clip-path="url(#pa1ca6c4cb4)" style="fill: none; stroke: #b0b0b0; stroke-opacity: 0.3; stroke-width: 0.8; stroke-linecap: square"/>
     </g>
     <g id="line2d_49">
      <g>
       <use xlink:href="#m1f2b1a851f" x="46.278125" y="387.16" style="stroke: #000000; stroke-width: 0.8"/>
      </g>
     </g>
     <g id="text_18">
      <!-- -1.5 -->
      <g transform="translate(22.060938 390.695156) scale(0.1 -0.1)">
       <use xlink:href="#Pretendard-Regular-2d"/>
       <use xlink:href="#Pretendard-Regular-31" transform="translate(43.261719 0)"/>
       <use xlink:href="#Pretendard-Regular-2e" transform="translate(87.109375 0)"/>
       <use xlink:href="#Pretendard-Regular-35" transform="translate(112.5 0)"/>
      </g>
     </g>
    </g>
    <g id="ytick_7">
     <g id="line2d_50">
      <path d="M 46.278125 364.528919 
L 561.268125 364.528919 
" clip-path="url(#pa1ca6c4cb4)" style="fill: none; stroke: #b0b0b0; stroke-opacity: 0.3; stroke-width: 0.8; stroke-linecap: square"/>
     </g>
     <g id="line2d_51">
      <g>
       <use xlink:href="#m1f2b1a851f" x="46.278125" y="364.528919" style="stroke: #000000; stroke-width: 0.8"/>
      </g>
     </g>
     <g id="text_19">
      <!-- -1.0 -->
      <g transform="translate(22.070313 368.064075) scale(0.1 -0.1)">
       <use xlink:href="#Pretendard-Regular-2d"/>
       <use xlink:href="#Pretendard-Regular-31" transform="translate(43.261719 0)"/>
       <use xlink:href="#Pretendard-Regular-2e" transform="translate(87.109375 0)"/>
       <use xlink:href="#Pretendard-Regular-30" transform="translate(112.5 0)"/>
      </g>
     </g>
    </g>
    <g id="ytick_8">
     <g id="line2d_52">
      <path d="M 46.278125 341.897838 
L 561.268125 341.897838 
" clip-path="url(#pa1ca6c4cb4)" style="fill: none; stroke: #b0b0b0; stroke-opacity: 0.3; stroke-width: 0.8; stroke-linecap: square"/>
     </g>
     <g id="line2d_53">
      <g>
       <use xlink:href="#m1f2b1a851f" x="46.278125" y="341.897838" style="stroke: #000000; stroke-width: 0.8"/>
      </g>
     </g>
     <g id="text_20">
      <!-- -0.5 -->
      <g transform="translate(20.4875 345.432994) scale(0.1 -0.1)">
       <use xlink:href="#Pretendard-Regular-2d"/>
       <use xlink:href="#Pretendard-Regular-30" transform="translate(43.261719 0)"/>
       <use xlink:href="#Pretendard-Regular-2e" transform="translate(102.832031 0)"/>
       <use xlink:href="#Pretendard-Regular-35" transform="translate(128.222656 0)"/>
      </g>
     </g>
    </g>
    <g id="ytick_9">
     <g id="line2d_54">
      <path d="M 46.278125 319.266757 
L 561.268125 319.266757 
" clip-path="url(#pa1ca6c4cb4)" style="fill: none; stroke: #b0b0b0; stroke-opacity: 0.3; stroke-width: 0.8; stroke-linecap: square"/>
     </g>
     <g id="line2d_55">
      <g>
       <use xlink:href="#m1f2b1a851f" x="46.278125" y="319.266757" style="stroke: #000000; stroke-width: 0.8"/>
      </g>
     </g>
     <g id="text_21">
      <!-- 0.0 -->
      <g transform="translate(24.823438 322.801913) scale(0.1 -0.1)">
       <use xlink:href="#Pretendard-Regular-30"/>
       <use xlink:href="#Pretendard-Regular-2e" transform="translate(59.570312 0)"/>
       <use xlink:href="#Pretendard-Regular-30" transform="translate(84.960938 0)"/>
      </g>
     </g>
    </g>
    <g id="ytick_10">
     <g id="line2d_56">
      <path d="M 46.278125 296.635676 
L 561.268125 296.635676 
" clip-path="url(#pa1ca6c4cb4)" style="fill: none; stroke: #b0b0b0; stroke-opacity: 0.3; stroke-width: 0.8; stroke-linecap: square"/>
     </g>
     <g id="line2d_57">
      <g>
       <use xlink:href="#m1f2b1a851f" x="46.278125" y="296.635676" style="stroke: #000000; stroke-width: 0.8"/>
      </g>
     </g>
     <g id="text_22">
      <!-- 0.5 -->
      <g transform="translate(24.814063 300.170832) scale(0.1 -0.1)">
       <use xlink:href="#Pretendard-Regular-30"/>
       <use xlink:href="#Pretendard-Regular-2e" transform="translate(59.570312 0)"/>
       <use xlink:href="#Pretendard-Regular-35" transform="translate(84.960938 0)"/>
      </g>
     </g>
    </g>
    <g id="ytick_11">
     <g id="line2d_58">
      <path d="M 46.278125 274.004595 
L 561.268125 274.004595 
" clip-path="url(#pa1ca6c4cb4)" style="fill: none; stroke: #b0b0b0; stroke-opacity: 0.3; stroke-width: 0.8; stroke-linecap: square"/>
     </g>
     <g id="line2d_59">
      <g>
       <use xlink:href="#m1f2b1a851f" x="46.278125" y="274.004595" style="stroke: #000000; stroke-width: 0.8"/>
      </g>
     </g>
     <g id="text_23">
      <!-- 1.0 -->
      <g transform="translate(26.396875 277.539751) scale(0.1 -0.1)">
       <use xlink:href="#Pretendard-Regular-31"/>
       <use xlink:href="#Pretendard-Regular-2e" transform="translate(43.847656 0)"/>
       <use xlink:href="#Pretendard-Regular-30" transform="translate(69.238281 0)"/>
      </g>
     </g>
    </g>
    <g id="ytick_12">
     <g id="line2d_60">
      <path d="M 46.278125 251.373514 
L 561.268125 251.373514 
" clip-path="url(#pa1ca6c4cb4)" style="fill: none; stroke: #b0b0b0; stroke-opacity: 0.3; stroke-width: 0.8; stroke-linecap: square"/>
     </g>
     <g id="line2d_61">
      <g>
       <use xlink:href="#m1f2b1a851f" x="46.278125" y="251.373514" style="stroke: #000000; stroke-width: 0.8"/>
      </g>
     </g>
     <g id="text_24">
      <!-- 1.5 -->
      <g transform="translate(26.3875 254.90867) scale(0.1 -0.1)">
       <use xlink:href="#Pretendard-Regular-31"/>
       <use xlink:href="#Pretendard-Regular-2e" transform="translate(43.847656 0)"/>
       <use xlink:href="#Pretendard-Regular-35" transform="translate(69.238281 0)"/>
      </g>
     </g>
    </g>
    <g id="ytick_13">
     <g id="line2d_62">
      <path d="M 46.278125 228.742432 
L 561.268125 228.742432 
" clip-path="url(#pa1ca6c4cb4)" style="fill: none; stroke: #b0b0b0; stroke-opacity: 0.3; stroke-width: 0.8; stroke-linecap: square"/>
     </g>
     <g id="line2d_63">
      <g>
       <use xlink:href="#m1f2b1a851f" x="46.278125" y="228.742432" style="stroke: #000000; stroke-width: 0.8"/>
      </g>
     </g>
     <g id="text_25">
      <!-- 2.0 -->
      <g transform="translate(24.9125 232.277589) scale(0.1 -0.1)">
       <use xlink:href="#Pretendard-Regular-32"/>
       <use xlink:href="#Pretendard-Regular-2e" transform="translate(58.691406 0)"/>
       <use xlink:href="#Pretendard-Regular-30" transform="translate(84.082031 0)"/>
      </g>
     </g>
    </g>
    <g id="text_26">
     <!-- Amplitude -->
     <g transform="translate(14.495312 326.077344) rotate(-90) scale(0.1 -0.1)">
      <use xlink:href="#Pretendard-Regular-41"/>
      <use xlink:href="#Pretendard-Regular-6d" transform="translate(64.550781 0)"/>
      <use xlink:href="#Pretendard-Regular-70" transform="translate(147.949219 0)"/>
      <use xlink:href="#Pretendard-Regular-6c" transform="translate(205.859375 0)"/>
      <use xlink:href="#Pretendard-Regular-69" transform="translate(227.636719 0)"/>
      <use xlink:href="#Pretendard-Regular-74" transform="translate(249.414062 0)"/>
      <use xlink:href="#Pretendard-Regular-75" transform="translate(283.398438 0)"/>
      <use xlink:href="#Pretendard-Regular-64" transform="translate(338.671875 0)"/>
      <use xlink:href="#Pretendard-Regular-65" transform="translate(397.753906 0)"/>
     </g>
    </g>
   </g>
   <g id="line2d_64">
    <path d="M 69.686761 274.004595 
L 70.155403 276.224237 
L 70.624044 282.664932 
L 71.092685 292.693602 
L 73.435892 355.906371 
L 73.904534 362.319411 
L 74.373175 364.528918 
L 74.841816 362.326925 
L 75.310458 355.936478 
L 75.779099 345.98787 
L 78.122306 283.015078 
L 78.590947 276.459649 
L 79.059589 274.013797 
L 79.52823 275.896495 
L 79.996871 281.91155 
L 80.465513 291.470075 
L 81.402796 317.288754 
L 82.340078 343.763681 
L 82.80872 354.120683 
L 83.277361 361.208719 
L 83.746002 364.385972 
L 84.214644 363.379633 
L 84.683285 358.306488 
L 85.151927 349.656938 
L 86.089209 325.12753 
L 87.026492 298.617583 
L 87.495133 287.613226 
L 87.963775 279.465844 
L 88.432416 274.88054 
L 88.901057 274.237289 
L 89.369699 277.562809 
L 89.83834 284.534448 
L 90.775623 306.613538 
L 92.181547 344.724148 
L 92.650188 354.41358 
L 93.11883 361.116163 
L 93.587471 364.298821 
L 94.056113 363.730446 
L 94.524754 359.494476 
L 94.993395 351.974894 
L 95.930678 329.872327 
L 97.336602 293.248185 
L 97.805243 284.001956 
L 98.273885 277.53815 
L 98.742526 274.325158 
L 99.211168 274.571765 
L 99.679809 278.2181 
L 100.14845 284.947584 
L 101.085733 305.308962 
L 102.491657 340.898516 
L 103.42894 358.148738 
L 103.897581 362.868333 
L 104.366223 364.527719 
L 104.834864 363.055211 
L 105.303505 358.596312 
L 105.772147 351.496569 
L 106.709429 331.565559 
L 108.115354 297.936009 
L 109.052636 281.3133 
L 109.521278 276.393844 
L 109.989919 274.14185 
L 110.45856 274.650769 
L 110.927202 277.843773 
L 111.395843 283.484954 
L 112.333126 300.502252 
L 114.676333 350.374487 
L 115.144974 357.116307 
L 115.613615 361.796006 
L 116.082257 364.205471 
L 116.550898 364.262589 
L 117.01954 362.010037 
L 117.488181 357.607518 
L 117.956822 351.318308 
L 118.894105 334.539201 
L 120.768671 296.669665 
L 121.705953 282.53165 
L 122.174595 277.831122 
L 122.643236 274.961245 
L 123.111877 274.004604 
L 123.580519 274.958903 
L 124.04916 277.741375 
L 124.517801 282.196426 
L 125.455084 295.201404 
L 126.861008 320.453223 
L 128.266932 344.778671 
L 129.204215 356.669362 
L 129.672857 360.711297 
L 130.141498 363.329659 
L 130.610139 364.473835 
L 131.078781 364.144342 
L 131.547422 362.389833 
L 132.016063 359.302675 
L 132.484705 355.01335 
L 133.421987 343.501441 
L 134.827912 321.919301 
L 136.233836 300.245128 
L 137.171118 288.2744 
L 138.108401 279.593365 
L 138.577043 276.707197 
L 139.045684 274.853222 
L 139.514325 274.044697 
L 139.982967 274.26949 
L 140.451608 275.492053 
L 140.920249 277.655819 
L 141.388891 280.68594 
L 142.326174 288.972306 
L 143.263456 299.501442 
L 147.012587 345.419618 
L 147.94987 353.832619 
L 148.887153 359.937785 
L 149.355794 362.048675 
L 149.824435 363.513774 
L 150.293077 364.332804 
L 150.761718 364.515189 
L 151.23036 364.079193 
L 151.699001 363.05099 
L 152.167642 361.463689 
L 153.104925 356.772827 
L 154.042208 350.371875 
L 155.448132 338.472931 
L 160.134546 295.528394 
L 161.54047 285.917977 
L 162.477752 280.997906 
L 163.415035 277.368487 
L 164.352318 275.059617 
L 164.820959 274.397556 
L 165.289601 274.057332 
L 165.758242 274.031451 
L 166.226883 274.31053 
L 166.695525 274.883511 
L 167.164166 275.737866 
L 168.101449 278.234473 
L 169.038732 281.678268 
L 169.976014 285.935674 
L 171.381938 293.54026 
L 173.256504 305.211758 
L 178.411559 338.37802 
L 179.817483 346.023042 
L 181.223407 352.557174 
L 182.629331 357.793406 
L 183.566614 360.491893 
L 184.503897 362.519299 
L 185.441179 363.853051 
L 185.909821 364.254943 
L 186.378462 364.478569 
L 186.847104 364.523324 
L 187.315745 364.389088 
L 187.784386 364.076224 
L 188.253028 363.585575 
L 189.19031 362.076734 
L 190.127593 359.879125 
L 191.064876 357.017355 
L 192.002159 353.524367 
L 193.408083 347.194854 
L 194.814007 339.719939 
L 196.688572 328.372707 
L 202.78091 289.578533 
L 204.186834 282.671739 
L 205.124117 279.011685 
L 206.0614 276.266295 
L 206.530041 275.276351 
L 206.998682 274.561034 
L 207.467324 274.133525 
L 207.935965 274.005643 
L 208.404606 274.187636 
L 208.873248 274.687968 
L 209.341889 275.513109 
L 209.810531 276.667314 
L 210.747813 279.967574 
L 211.685096 284.570423 
L 212.622379 290.408998 
L 214.028303 301.204061 
L 215.902868 318.308832 
L 218.714717 344.696279 
L 219.651999 352.110391 
L 220.589282 358.121178 
L 221.526565 362.324915 
L 221.995206 363.637199 
L 222.463848 364.373027 
L 222.932489 364.502633 
L 223.40113 364.003676 
L 223.869772 362.862202 
L 224.338413 361.073536 
L 224.807054 358.643094 
L 225.744337 351.933001 
L 226.68162 342.999512 
L 228.087544 326.477592 
L 230.899392 291.43041 
L 231.836675 282.49822 
L 232.305316 279.067897 
L 232.773958 276.460568 
L 233.242599 274.759124 
L 233.71124 274.029628 
L 234.179882 274.318462 
L 234.648523 275.649742 
L 235.117164 278.023121 
L 235.585806 281.412073 
L 236.523089 290.993722 
L 237.460371 303.63451 
L 240.740861 352.467499 
L 241.678144 361.005502 
L 242.146785 363.440405 
L 242.615426 364.491339 
L 243.084068 364.087159 
L 243.552709 362.20281 
L 244.02135 358.863068 
L 244.489992 354.144706 
L 245.427275 341.139341 
L 246.833199 316.074009 
L 248.239123 291.523786 
L 249.176406 279.772132 
L 249.645047 276.129744 
L 250.113688 274.246249 
L 250.58233 274.241959 
L 251.050971 276.160174 
L 251.519612 279.961079 
L 251.988254 285.519132 
L 252.925537 300.9877 
L 255.737385 354.678716 
L 256.206026 360.063304 
L 256.674667 363.41765 
L 257.143309 364.52827 
L 257.61195 363.292623 
L 258.080592 359.729849 
L 258.549233 353.985344 
L 259.486516 337.14306 
L 261.829723 287.111239 
L 262.298364 280.378798 
L 262.767005 275.922974 
L 263.235647 274.052089 
L 263.704288 274.92452 
L 264.172929 278.532728 
L 264.641571 284.697148 
L 265.578853 303.156138 
L 267.453419 347.111861 
L 267.92206 355.347882 
L 268.390702 361.181856 
L 268.859343 364.178816 
L 269.327984 364.090224 
L 269.796626 360.877931 
L 270.265267 354.724005 
L 271.20255 335.369963 
L 273.077115 289.3067 
L 273.545757 281.22653 
L 274.014398 275.984014 
L 274.483039 274.013497 
L 274.951681 275.505958 
L 275.420322 280.387144 
L 275.888964 288.315996 
L 276.826246 310.75741 
L 278.23217 347.176899 
L 278.700812 356.110297 
L 279.169453 362.053616 
L 279.638095 364.485633 
L 280.106736 363.169284 
L 280.575377 358.178291 
L 281.044019 349.898001 
L 281.981301 326.387873 
L 283.387225 289.19916 
L 283.855867 280.625925 
L 284.324508 275.416193 
L 284.79315 274.056097 
L 285.261791 276.696078 
L 285.730432 283.131269 
L 286.199074 292.813645 
L 287.604998 331.826217 
L 288.542281 354.38468 
L 289.010922 361.329086 
L 289.479563 364.407573 
L 289.948205 363.312313 
L 290.416846 358.121593 
L 290.885487 349.297579 
L 291.82277 324.252474 
L 292.760053 297.300791 
L 293.228694 286.298619 
L 293.697336 278.41561 
L 294.165977 274.416679 
L 294.634618 274.699619 
L 295.10326 279.253362 
L 295.571901 287.655454 
L 296.509184 312.519678 
L 297.446467 339.972659 
L 297.915108 351.353133 
L 298.383749 359.624847 
L 298.852391 363.975447 
L 299.321032 363.972695 
L 299.789673 359.608719 
L 300.258315 351.302639 
L 301.195597 326.399969 
L 302.13288 298.756828 
L 302.601522 287.285087 
L 303.070163 278.947342 
L 303.538804 274.562958 
L 304.007446 274.562958 
L 304.476087 278.947342 
L 304.944728 287.285087 
L 305.882011 312.235951 
L 306.819294 339.861043 
L 307.287935 351.302639 
L 307.756577 359.608719 
L 308.225218 363.972695 
L 308.693859 363.975447 
L 309.162501 359.624847 
L 309.631142 351.353133 
L 310.568425 326.594716 
L 311.974349 287.655454 
L 312.44299 279.253362 
L 312.911632 274.699619 
L 313.380273 274.416679 
L 313.848914 278.41561 
L 314.317556 286.298619 
L 315.254839 310.366478 
L 316.660763 349.297579 
L 317.129404 358.121593 
L 317.598045 363.312313 
L 318.066687 364.407573 
L 318.535328 361.329086 
L 319.003969 354.38468 
L 319.941252 331.826217 
L 321.347176 292.813645 
L 321.815818 283.131269 
L 322.284459 276.696078 
L 322.7531 274.056097 
L 323.221742 275.416193 
L 323.690383 280.625925 
L 324.159025 289.19916 
L 325.096307 313.129651 
L 326.502231 349.898001 
L 326.970873 358.178291 
L 327.439514 363.169284 
L 327.908155 364.485633 
L 328.376797 362.053616 
L 328.845438 356.110297 
L 329.31408 347.176899 
L 330.251362 323.532011 
L 331.188645 298.704376 
L 332.125928 280.387144 
L 332.594569 275.505958 
L 333.063211 274.013497 
L 333.531852 275.984014 
L 334.000493 281.22653 
L 334.469135 289.3067 
L 335.406417 311.277394 
L 336.812341 346.024955 
L 337.280983 354.724005 
L 337.749624 360.877931 
L 338.218266 364.090224 
L 338.686907 364.178816 
L 339.155548 361.181856 
L 339.62419 355.347882 
L 340.561472 337.059468 
L 342.436038 293.07097 
L 342.904679 284.697148 
L 343.373321 278.532728 
L 343.841962 274.92452 
L 344.310603 274.052089 
L 344.779245 275.922974 
L 345.247886 280.378798 
L 345.716527 287.111239 
L 346.65381 305.574886 
L 348.528376 346.328473 
L 348.997017 353.985344 
L 349.465658 359.729849 
L 349.9343 363.292623 
L 350.402941 364.52827 
L 350.871583 363.41765 
L 351.340224 360.063304 
L 351.808865 354.678716 
L 352.746148 339.128138 
L 355.089355 292.62434 
L 356.026638 279.961079 
L 356.495279 276.160174 
L 356.96392 274.241959 
L 357.432562 274.246249 
L 357.901203 276.129744 
L 358.369844 279.772132 
L 358.838486 284.985118 
L 359.775769 299.099578 
L 362.587617 348.176852 
L 363.5249 358.863068 
L 363.993541 362.20281 
L 364.462182 364.087159 
L 364.930824 364.491339 
L 365.399465 363.440405 
L 365.868106 361.005502 
L 366.336748 357.298811 
L 367.27403 346.686937 
L 368.679955 325.675013 
L 370.55452 296.995986 
L 371.491803 285.762785 
L 372.429086 278.023121 
L 372.897727 275.649742 
L 373.366368 274.318462 
L 373.83501 274.029628 
L 374.303651 274.759124 
L 374.772292 276.460568 
L 375.240934 279.067897 
L 376.178216 286.654848 
L 377.115499 296.709942 
L 378.990065 320.467121 
L 380.395989 337.834126 
L 381.333272 347.720112 
L 382.270554 355.587073 
L 383.207837 361.073536 
L 383.676478 362.862202 
L 384.14512 364.003676 
L 384.613761 364.502633 
L 385.082402 364.373027 
L 385.551044 363.637199 
L 386.019685 362.324915 
L 386.488327 360.472369 
L 387.425609 355.317366 
L 388.362892 348.552188 
L 389.768816 336.308372 
L 393.986588 297.362574 
L 395.392513 287.341474 
L 396.329795 282.109148 
L 397.267078 278.152408 
L 398.204361 275.513109 
L 398.673002 274.687968 
L 399.141644 274.187636 
L 399.610285 274.005643 
L 400.078926 274.133525 
L 400.547568 274.561034 
L 401.016209 275.276351 
L 401.48485 276.266295 
L 402.422133 279.011685 
L 403.359416 282.671739 
L 404.76534 289.578533 
L 406.171264 297.760996 
L 408.514471 312.95669 
L 411.79496 334.210743 
L 413.669526 344.820261 
L 415.07545 351.553823 
L 416.481374 357.017355 
L 417.418657 359.879125 
L 418.35594 362.076734 
L 419.293222 363.585575 
L 419.761864 364.076224 
L 420.230505 364.389088 
L 420.699146 364.523324 
L 421.167788 364.478569 
L 421.636429 364.254943 
L 422.105071 363.853051 
L 423.042353 362.519299 
L 423.979636 360.491893 
L 424.916919 357.793406 
L 425.854202 354.454667 
L 427.260126 348.334739 
L 428.66605 341.036254 
L 430.540615 329.858282 
L 433.821105 308.288572 
L 436.164312 293.54026 
L 437.570236 285.935674 
L 438.507518 281.678268 
L 439.444801 278.234473 
L 440.382084 275.737866 
L 440.850725 274.883511 
L 441.319367 274.31053 
L 441.788008 274.031451 
L 442.256649 274.057332 
L 442.725291 274.397556 
L 443.193932 275.059617 
L 443.662574 276.048905 
L 444.599856 279.018892 
L 445.537139 283.300365 
L 446.474422 288.839145 
L 447.411704 295.528394 
L 448.817629 307.345156 
L 451.629477 334.10991 
L 453.035401 346.658063 
L 453.972684 353.761075 
L 454.909966 359.356319 
L 455.378608 361.463689 
L 455.847249 363.05099 
L 456.31589 364.079193 
L 456.784532 364.515189 
L 457.253173 364.332804 
L 457.721815 363.513774 
L 458.190456 362.048675 
L 458.659097 359.937785 
L 459.59638 353.832619 
L 460.533663 345.419618 
L 461.939587 329.417877 
L 465.220076 288.972306 
L 466.157359 280.68594 
L 466.626001 277.655819 
L 467.094642 275.492053 
L 467.563283 274.26949 
L 468.031925 274.044697 
L 468.500566 274.853222 
L 468.969207 276.707197 
L 469.437849 279.593365 
L 470.375132 288.2744 
L 471.312414 300.245128 
L 473.18698 329.403351 
L 474.592904 349.684006 
L 475.530187 359.302675 
L 475.998828 362.389833 
L 476.467469 364.144342 
L 476.936111 364.473835 
L 477.404752 363.329659 
L 477.873393 360.711297 
L 478.342035 356.669362 
L 479.279318 344.778671 
L 480.2166 329.085007 
L 482.091166 295.201404 
L 483.028449 282.196426 
L 483.49709 277.741375 
L 483.965731 274.958903 
L 484.434373 274.004604 
L 484.903014 274.961245 
L 485.371655 277.831122 
L 485.840297 282.53165 
L 486.777579 296.669665 
L 488.183504 324.916016 
L 489.120786 343.491216 
L 490.058069 357.607518 
L 490.52671 362.010037 
L 490.995352 364.262589 
L 491.463993 364.205471 
L 491.932635 361.796006 
L 492.401276 357.116307 
L 492.869917 350.374487 
L 493.8072 332.124431 
L 495.681765 291.199673 
L 496.150407 283.484954 
L 496.619048 277.843773 
L 497.08769 274.650769 
L 497.556331 274.14185 
L 498.024972 276.393844 
L 498.493614 281.3133 
L 498.962255 288.635731 
L 499.899538 308.649876 
L 501.305462 342.271389 
L 502.242745 358.596312 
L 502.711386 363.055211 
L 503.180027 364.527719 
L 503.648669 362.868333 
L 504.11731 358.148738 
L 504.585951 350.65995 
L 505.523234 329.53698 
L 506.929158 294.21807 
L 507.3978 284.947584 
L 507.866441 278.2181 
L 508.335082 274.571765 
L 508.803724 274.325158 
L 509.272365 277.53815 
L 509.741007 284.001956 
L 510.678289 304.579075 
L 512.552855 351.974894 
L 513.021496 359.494476 
L 513.490137 363.730446 
L 513.958779 364.298821 
L 514.42742 361.116163 
L 514.896062 354.41358 
L 515.833344 332.843921 
L 517.239268 294.514859 
L 517.70791 284.534448 
L 518.176551 277.562809 
L 518.645193 274.237289 
L 519.113834 274.88054 
L 519.582475 279.465844 
L 520.051117 287.613226 
L 520.988399 311.507125 
L 522.394323 349.656938 
L 522.862965 358.306488 
L 523.331606 363.379633 
L 523.800248 364.385972 
L 524.268889 361.208719 
L 524.73753 354.120683 
L 525.674813 331.092597 
L 527.080737 291.470075 
L 527.549379 281.91155 
L 528.01802 275.896495 
L 528.486661 274.013797 
L 528.955303 276.459649 
L 529.423944 283.015078 
L 529.892585 293.063568 
L 532.235792 355.936478 
L 532.704434 362.326925 
L 533.173075 364.528918 
L 533.641716 362.319411 
L 534.110358 355.906371 
L 534.578999 345.910132 
L 536.922206 282.664932 
L 537.390847 276.224237 
L 537.859489 274.004595 
L 537.859489 274.004595 
" clip-path="url(#pa1ca6c4cb4)" style="fill: none; stroke: #0000ff; stroke-linecap: square"/>
   </g>
   <g id="patch_8">
    <path d="M 46.278125 387.16 
L 46.278125 219.69 
" style="fill: none; stroke: #000000; stroke-width: 0.8; stroke-linejoin: miter; stroke-linecap: square"/>
   </g>
   <g id="patch_9">
    <path d="M 561.268125 387.16 
L 561.268125 219.69 
" style="fill: none; stroke: #000000; stroke-width: 0.8; stroke-linejoin: miter; stroke-linecap: square"/>
   </g>
   <g id="patch_10">
    <path d="M 46.278125 387.16 
L 561.268125 387.16 
" style="fill: none; stroke: #000000; stroke-width: 0.8; stroke-linejoin: miter; stroke-linecap: square"/>
   </g>
   <g id="patch_11">
    <path d="M 46.278125 219.69 
L 561.268125 219.69 
" style="fill: none; stroke: #000000; stroke-width: 0.8; stroke-linejoin: miter; stroke-linecap: square"/>
   </g>
   <g id="patch_12">
    <path d="M 69.686761 243.892841 
Q 69.686761 253.423778 69.686761 261.83668 
" style="fill: none; stroke: #000000; stroke-linecap: round"/>
    <path d="M 71.686761 257.83668 
L 69.686761 261.83668 
L 67.686761 257.83668 
" style="fill: none; stroke: #000000; stroke-linecap: round"/>
   </g>
   <g id="text_27">
    <!-- High Freq -->
    <g style="fill: #ff0000" transform="translate(47.913324 237.794865) scale(0.1 -0.1)">
     <defs>
      <path id="Pretendard-Regular-48" d="M 500 0 
L 1063 0 
L 1063 2019 
L 3456 2019 
L 3456 0 
L 4025 0 
L 4025 4525 
L 3456 4525 
L 3456 2513 
L 1063 2513 
L 1063 4525 
L 500 4525 
L 500 0 
z
" transform="scale(0.015625)"/>
      <path id="Pretendard-Regular-68" d="M 969 2038 
C 969 2625 1344 2956 1850 2956 
C 2338 2956 2631 2650 2631 2119 
L 2631 0 
L 3169 0 
L 3169 2156 
C 3169 3025 2706 3438 2013 3438 
C 1475 3438 1169 3213 1013 2863 
L 969 2863 
L 969 4525 
L 431 4525 
L 431 0 
L 969 0 
L 969 2038 
z
" transform="scale(0.015625)"/>
      <path id="Pretendard-Regular-46" d="M 500 0 
L 1063 0 
L 1063 2019 
L 3019 2019 
L 3019 2513 
L 1063 2513 
L 1063 4025 
L 3225 4025 
L 3225 4525 
L 500 4525 
L 500 0 
z
" transform="scale(0.015625)"/>
      <path id="Pretendard-Regular-72" d="M 431 0 
L 969 0 
L 969 2138 
C 969 2594 1331 2931 1819 2931 
C 1956 2931 2106 2906 2144 2894 
L 2144 3438 
C 2081 3444 1944 3450 1863 3450 
C 1463 3450 1113 3219 988 2875 
L 950 2875 
L 950 3394 
L 431 3394 
L 431 0 
z
" transform="scale(0.015625)"/>
      <path id="Pretendard-Regular-71" d="M 2738 -1275 
L 3281 -1275 
L 3281 3394 
L 2756 3394 
L 2756 2856 
L 2700 2856 
C 2588 3038 2375 3438 1719 3438 
C 869 3438 269 2763 269 1688 
C 269 613 869 -69 1713 -69 
C 2363 -69 2581 331 2700 519 
L 2738 519 
L 2738 -1275 
z
M 1788 413 
C 1144 413 813 975 813 1700 
C 813 2406 1138 2956 1788 2956 
C 2419 2956 2756 2450 2756 1700 
C 2756 938 2406 413 1788 413 
z
" transform="scale(0.015625)"/>
     </defs>
     <use xlink:href="#Pretendard-Regular-48"/>
     <use xlink:href="#Pretendard-Regular-69" transform="translate(70.605469 0)"/>
     <use xlink:href="#Pretendard-Regular-67" transform="translate(92.382812 0)"/>
     <use xlink:href="#Pretendard-Regular-68" transform="translate(150.292969 0)"/>
     <use xlink:href="#Pretendard-Regular-20" transform="translate(206.542969 0)"/>
     <use xlink:href="#Pretendard-Regular-46" transform="translate(231.640625 0)"/>
     <use xlink:href="#Pretendard-Regular-72" transform="translate(287.304688 0)"/>
     <use xlink:href="#Pretendard-Regular-65" transform="translate(322.265625 0)"/>
     <use xlink:href="#Pretendard-Regular-71" transform="translate(377.539062 0)"/>
    </g>
   </g>
   <g id="patch_13">
    <path d="M 186.729943 243.783961 
Q 186.729943 253.369342 186.729943 261.836689 
" style="fill: none; stroke: #000000; stroke-linecap: round"/>
    <path d="M 188.729943 257.836689 
L 186.729943 261.836689 
L 184.729943 257.836689 
" style="fill: none; stroke: #000000; stroke-linecap: round"/>
   </g>
   <g id="text_28">
    <!-- Low Freq -->
    <g style="fill: #008000" transform="translate(165.894006 237.794865) scale(0.1 -0.1)">
     <defs>
      <path id="Pretendard-Regular-4c" d="M 500 0 
L 3163 0 
L 3163 500 
L 1063 500 
L 1063 4525 
L 500 4525 
L 500 0 
z
" transform="scale(0.015625)"/>
      <path id="Pretendard-Regular-6f" d="M 1819 -69 
C 2738 -69 3356 625 3356 1681 
C 3356 2738 2738 3438 1819 3438 
C 894 3438 269 2738 269 1681 
C 269 625 894 -69 1819 -69 
z
M 1819 406 
C 1125 406 806 1006 806 1681 
C 806 2356 1125 2963 1819 2963 
C 2500 2963 2819 2356 2819 1681 
C 2819 1006 2500 406 1819 406 
z
" transform="scale(0.015625)"/>
      <path id="Pretendard-Regular-77" d="M 1194 0 
L 1731 0 
L 2463 2588 
L 2513 2588 
L 3250 0 
L 3781 0 
L 4813 3394 
L 4250 3394 
L 3525 819 
L 3488 819 
L 2781 3394 
L 2206 3394 
L 1488 806 
L 1456 806 
L 731 3394 
L 163 3394 
L 1194 0 
z
" transform="scale(0.015625)"/>
     </defs>
     <use xlink:href="#Pretendard-Regular-4c"/>
     <use xlink:href="#Pretendard-Regular-6f" transform="translate(53.320312 0)"/>
     <use xlink:href="#Pretendard-Regular-77" transform="translate(110.058594 0)"/>
     <use xlink:href="#Pretendard-Regular-20" transform="translate(187.792969 0)"/>
     <use xlink:href="#Pretendard-Regular-46" transform="translate(212.890625 0)"/>
     <use xlink:href="#Pretendard-Regular-72" transform="translate(268.554688 0)"/>
     <use xlink:href="#Pretendard-Regular-65" transform="translate(303.515625 0)"/>
     <use xlink:href="#Pretendard-Regular-71" transform="translate(358.789062 0)"/>
    </g>
   </g>
   <g id="text_29">
    <!-- FM Signal $x_{FM}(t)$ (Accordion Effect) -->
    <g transform="translate(208.793125 213.69) scale(0.12 -0.12)">
     <defs>
      <path id="DejaVuSans-Oblique-78" d="M 3841 3500 
L 2234 1784 
L 3219 0 
L 2559 0 
L 1819 1388 
L 531 0 
L -166 0 
L 1556 1844 
L 641 3500 
L 1300 3500 
L 1972 2234 
L 3144 3500 
L 3841 3500 
z
" transform="scale(0.015625)"/>
      <path id="DejaVuSans-Oblique-46" d="M 1081 4666 
L 3756 4666 
L 3653 4134 
L 1606 4134 
L 1338 2759 
L 3188 2759 
L 3084 2228 
L 1234 2228 
L 800 0 
L 172 0 
L 1081 4666 
z
" transform="scale(0.015625)"/>
      <path id="DejaVuSans-Oblique-4d" d="M 1081 4666 
L 2028 4666 
L 2572 1522 
L 4378 4666 
L 5350 4666 
L 4441 0 
L 3828 0 
L 4622 4091 
L 2791 897 
L 2175 897 
L 1581 4103 
L 788 0 
L 172 0 
L 1081 4666 
z
" transform="scale(0.015625)"/>
      <path id="Pretendard-Regular-63" d="M 1819 -69 
C 2575 -69 3069 394 3156 1000 
L 2619 1000 
C 2525 625 2219 413 1819 413 
C 1200 413 806 913 806 1700 
C 806 2463 1213 2963 1819 2963 
C 2269 2963 2544 2681 2619 2369 
L 3156 2369 
C 3069 3013 2531 3438 1806 3438 
C 881 3438 269 2713 269 1681 
C 269 663 856 -69 1819 -69 
z
" transform="scale(0.015625)"/>
      <path id="Pretendard-Regular-45" d="M 500 0 
L 3275 0 
L 3275 500 
L 1063 500 
L 1063 2019 
L 3100 2019 
L 3100 2513 
L 1063 2513 
L 1063 4025 
L 3244 4025 
L 3244 4525 
L 500 4525 
L 500 0 
z
" transform="scale(0.015625)"/>
      <path id="Pretendard-Regular-66" d="M 1950 3394 
L 1200 3394 
L 1200 3738 
C 1200 4088 1369 4244 1744 4244 
C 1813 4244 1913 4238 2025 4219 
L 2025 4700 
C 1913 4719 1756 4738 1625 4738 
C 1025 4738 656 4406 656 3856 
L 656 3394 
L 113 3394 
L 113 2944 
L 656 2944 
L 656 0 
L 1200 0 
L 1200 2944 
L 1950 2944 
L 1950 3394 
z
" transform="scale(0.015625)"/>
     </defs>
     <use xlink:href="#Pretendard-Regular-46" transform="translate(0 0.125)"/>
     <use xlink:href="#Pretendard-Regular-4d" transform="translate(55.664062 0.125)"/>
     <use xlink:href="#Pretendard-Regular-20" transform="translate(140.917969 0.125)"/>
     <use xlink:href="#Pretendard-Regular-53" transform="translate(166.015625 0.125)"/>
     <use xlink:href="#Pretendard-Regular-69" transform="translate(226.757812 0.125)"/>
     <use xlink:href="#Pretendard-Regular-67" transform="translate(248.535156 0.125)"/>
     <use xlink:href="#Pretendard-Regular-6e" transform="translate(306.445312 0.125)"/>
     <use xlink:href="#Pretendard-Regular-61" transform="translate(362.109375 0.125)"/>
     <use xlink:href="#Pretendard-Regular-6c" transform="translate(415.625 0.125)"/>
     <use xlink:href="#Pretendard-Regular-20" transform="translate(437.402344 0.125)"/>
     <use xlink:href="#DejaVuSans-Oblique-78" transform="translate(462.5 0.125)"/>
     <use xlink:href="#DejaVuSans-Oblique-46" transform="translate(521.679688 -16.28125) scale(0.7)"/>
     <use xlink:href="#DejaVuSans-Oblique-4d" transform="translate(561.943359 -16.28125) scale(0.7)"/>
     <use xlink:href="#DejaVuSans-28" transform="translate(625.073242 0.125)"/>
     <use xlink:href="#DejaVuSans-Oblique-74" transform="translate(664.086914 0.125)"/>
     <use xlink:href="#DejaVuSans-29" transform="translate(703.295898 0.125)"/>
     <use xlink:href="#Pretendard-Regular-20" transform="translate(742.30957 0.125)"/>
     <use xlink:href="#Pretendard-Regular-28" transform="translate(767.407227 0.125)"/>
     <use xlink:href="#Pretendard-Regular-41" transform="translate(801.489258 0.125)"/>
     <use xlink:href="#Pretendard-Regular-63" transform="translate(866.040039 0.125)"/>
     <use xlink:href="#Pretendard-Regular-63" transform="translate(918.969727 0.125)"/>
     <use xlink:href="#Pretendard-Regular-6f" transform="translate(971.899414 0.125)"/>
     <use xlink:href="#Pretendard-Regular-72" transform="translate(1028.637695 0.125)"/>
     <use xlink:href="#Pretendard-Regular-64" transform="translate(1063.598633 0.125)"/>
     <use xlink:href="#Pretendard-Regular-69" transform="translate(1122.680664 0.125)"/>
     <use xlink:href="#Pretendard-Regular-6f" transform="translate(1144.458008 0.125)"/>
     <use xlink:href="#Pretendard-Regular-6e" transform="translate(1201.196289 0.125)"/>
     <use xlink:href="#Pretendard-Regular-20" transform="translate(1256.860352 0.125)"/>
     <use xlink:href="#Pretendard-Regular-45" transform="translate(1281.958008 0.125)"/>
     <use xlink:href="#Pretendard-Regular-66" transform="translate(1338.696289 0.125)"/>
     <use xlink:href="#Pretendard-Regular-66" transform="translate(1372.387695 0.125)"/>
     <use xlink:href="#Pretendard-Regular-65" transform="translate(1406.079102 0.125)"/>
     <use xlink:href="#Pretendard-Regular-63" transform="translate(1461.352539 0.125)"/>
     <use xlink:href="#Pretendard-Regular-74" transform="translate(1514.282227 0.125)"/>
     <use xlink:href="#Pretendard-Regular-29" transform="translate(1548.266602 0.125)"/>
    </g>
   </g>
  </g>
 </g>
 <defs>
  <clipPath id="p2e4e93bd8b">
   <rect x="46.278125" y="22.32" width="514.99" height="167.47"/>
  </clipPath>
  <clipPath id="pa1ca6c4cb4">
   <rect x="46.278125" y="219.69" width="514.99" height="167.47"/>
  </clipPath>
 </defs>
</svg>
