<?xml version="1.0" encoding="utf-8" standalone="no"?>
<!DOCTYPE svg PUBLIC "-//W3C//DTD SVG 1.1//EN"
  "http://www.w3.org/Graphics/SVG/1.1/DTD/svg11.dtd">
<svg xmlns:xlink="http://www.w3.org/1999/xlink" width="591.829687pt" height="172.601562pt" viewBox="0 0 591.829687 172.601562" xmlns="http://www.w3.org/2000/svg" version="1.1">
 <metadata>
  <rdf:RDF xmlns:dc="http://purl.org/dc/elements/1.1/" xmlns:cc="http://creativecommons.org/ns#" xmlns:rdf="http://www.w3.org/1999/02/22-rdf-syntax-ns#">
   <cc:Work>
    <dc:type rdf:resource="http://purl.org/dc/dcmitype/StillImage"/>
    <dc:date>2026-01-20T16:37:37.944388</dc:date>
    <dc:format>image/svg+xml</dc:format>
    <dc:creator>
     <cc:Agent>
      <dc:title>Matplotlib v3.10.8, https://matplotlib.org/</dc:title>
     </cc:Agent>
    </dc:creator>
   </cc:Work>
  </rdf:RDF>
 </metadata>
 <defs>
  <style type="text/css">*{stroke-linejoin: round; stroke-linecap: butt}</style>
 </defs>
 <g id="figure_1">
  <g id="patch_1">
   <path d="M 0 172.601562 
L 591.829687 172.601562 
L 591.829687 0 
L 0 0 
z
" style="fill: #ffffff"/>
  </g>
  <g id="axes_1">
   <g id="patch_2">
    <path d="M 16.914844 133.63125 
L 574.914844 133.63125 
L 574.914844 22.75125 
L 16.914844 22.75125 
z
" style="fill: #ffffff"/>
   </g>
   <g id="PolyCollection_1">
    <defs>
     <path id="m2830210d7b" d="M 44.814844 -44.010312 
L 44.814844 -144.810313 
L 184.314844 -144.810313 
L 184.314844 -44.010312 
z
" style="stroke: #ffffff"/>
    </defs>
    <g clip-path="url(#p796bcc05b1)">
     <use xlink:href="#m2830210d7b" x="0" y="172.601562" style="fill: #db2777; stroke: #ffffff"/>
    </g>
   </g>
   <g id="PolyCollection_2">
    <defs>
     <path id="mf70bd01569" d="M 184.314844 -44.010312 
L 184.314844 -144.810313 
L 323.814844 -144.810313 
L 323.814844 -44.010312 
z
" style="stroke: #ffffff"/>
    </defs>
    <g clip-path="url(#p796bcc05b1)">
     <use xlink:href="#mf70bd01569" x="0" y="172.601562" style="fill: #1e293b; stroke: #ffffff"/>
    </g>
   </g>
   <g id="PolyCollection_3">
    <defs>
     <path id="m914da06a3e" d="M 323.814844 -44.010312 
L 323.814844 -144.810313 
L 463.314844 -144.810313 
L 463.314844 -44.010312 
z
" style="stroke: #ffffff"/>
    </defs>
    <g clip-path="url(#p796bcc05b1)">
     <use xlink:href="#m914da06a3e" x="0" y="172.601562" style="fill: #e11d48; stroke: #ffffff"/>
    </g>
   </g>
   <g id="matplotlib.axis_1">
    <g id="xtick_1">
     <g id="line2d_1">
      <defs>
       <path id="mc2919abd77" d="M 0 0 
L 0 3.5 
" style="stroke: #000000; stroke-width: 0.8"/>
      </defs>
      <g>
       <use xlink:href="#mc2919abd77" x="16.914844" y="133.63125" style="stroke: #000000; stroke-width: 0.8"/>
      </g>
     </g>
     <g id="text_1">
      <!-- 3.40 -->
      <g transform="translate(7.2 148.590625) scale(0.1 -0.1)">
       <defs>
        <path id="NotoSansKR-Regular-33" d="M 1683 -83 
Q 1318 -83 1040 6 
Q 762 96 550 243 
Q 339 390 186 563 
L 486 941 
Q 691 730 969 566 
Q 1248 403 1645 403 
Q 1926 403 2140 508 
Q 2355 614 2476 809 
Q 2598 1005 2598 1274 
Q 2598 1555 2460 1766 
Q 2323 1978 2003 2096 
Q 1683 2214 1139 2214 
L 1139 2662 
Q 1626 2662 1907 2780 
Q 2189 2899 2313 3104 
Q 2438 3309 2438 3558 
Q 2438 3898 2227 4099 
Q 2016 4301 1645 4301 
Q 1363 4301 1116 4173 
Q 870 4045 672 3846 
L 358 4218 
Q 627 4461 944 4617 
Q 1261 4774 1664 4774 
Q 2061 4774 2371 4636 
Q 2682 4499 2858 4236 
Q 3034 3974 3034 3603 
Q 3034 3174 2803 2892 
Q 2573 2611 2202 2477 
L 2202 2445 
Q 2477 2381 2701 2221 
Q 2925 2061 3059 1817 
Q 3194 1574 3194 1254 
Q 3194 838 2989 537 
Q 2784 237 2445 77 
Q 2106 -83 1683 -83 
z
" transform="scale(0.015625)"/>
        <path id="NotoSansKR-Regular-2e" d="M 890 -83 
Q 717 -83 592 41 
Q 467 166 467 358 
Q 467 563 592 684 
Q 717 806 890 806 
Q 1062 806 1187 684 
Q 1312 563 1312 358 
Q 1312 166 1187 41 
Q 1062 -83 890 -83 
z
" transform="scale(0.015625)"/>
        <path id="NotoSansKR-Regular-34" d="M 2176 0 
L 2176 3200 
Q 2176 3373 2189 3622 
Q 2202 3872 2208 4051 
L 2182 4051 
Q 2093 3885 2000 3709 
Q 1907 3533 1805 3360 
L 736 1760 
L 3354 1760 
L 3354 1293 
L 128 1293 
L 128 1677 
L 2080 4691 
L 2726 4691 
L 2726 0 
L 2176 0 
z
" transform="scale(0.015625)"/>
        <path id="NotoSansKR-Regular-30" d="M 1779 -83 
Q 1338 -83 1008 185 
Q 678 454 499 998 
Q 320 1542 320 2362 
Q 320 3181 499 3715 
Q 678 4250 1008 4512 
Q 1338 4774 1779 4774 
Q 2227 4774 2553 4508 
Q 2880 4243 3059 3712 
Q 3238 3181 3238 2362 
Q 3238 1542 3059 998 
Q 2880 454 2553 185 
Q 2227 -83 1779 -83 
z
M 1779 390 
Q 2048 390 2249 595 
Q 2451 800 2563 1238 
Q 2675 1677 2675 2362 
Q 2675 3046 2563 3478 
Q 2451 3910 2249 4112 
Q 2048 4314 1779 4314 
Q 1517 4314 1312 4112 
Q 1107 3910 995 3478 
Q 883 3046 883 2362 
Q 883 1677 995 1238 
Q 1107 800 1312 595 
Q 1517 390 1779 390 
z
" transform="scale(0.015625)"/>
       </defs>
       <use xlink:href="#NotoSansKR-Regular-33"/>
       <use xlink:href="#NotoSansKR-Regular-2e" transform="translate(55.499985 0)"/>
       <use xlink:href="#NotoSansKR-Regular-34" transform="translate(83.299973 0)"/>
       <use xlink:href="#NotoSansKR-Regular-30" transform="translate(138.799957 0)"/>
      </g>
     </g>
    </g>
    <g id="xtick_2">
     <g id="line2d_2">
      <g>
       <use xlink:href="#mc2919abd77" x="86.664844" y="133.63125" style="stroke: #000000; stroke-width: 0.8"/>
      </g>
     </g>
     <g id="text_2">
      <!-- 3.45 -->
      <g transform="translate(76.95 148.590625) scale(0.1 -0.1)">
       <defs>
        <path id="NotoSansKR-Regular-35" d="M 1677 -83 
Q 1312 -83 1033 6 
Q 755 96 547 237 
Q 339 378 173 538 
L 467 922 
Q 602 787 765 668 
Q 928 550 1139 476 
Q 1350 403 1619 403 
Q 1894 403 2121 537 
Q 2349 672 2483 921 
Q 2618 1171 2618 1510 
Q 2618 2010 2352 2294 
Q 2086 2579 1645 2579 
Q 1414 2579 1241 2508 
Q 1069 2438 864 2304 
L 550 2502 
L 704 4691 
L 2982 4691 
L 2982 4192 
L 1216 4192 
L 1094 2835 
Q 1248 2925 1417 2973 
Q 1587 3021 1798 3021 
Q 2189 3021 2509 2864 
Q 2829 2707 3021 2374 
Q 3213 2042 3213 1523 
Q 3213 1011 2992 652 
Q 2771 294 2419 105 
Q 2067 -83 1677 -83 
z
" transform="scale(0.015625)"/>
       </defs>
       <use xlink:href="#NotoSansKR-Regular-33"/>
       <use xlink:href="#NotoSansKR-Regular-2e" transform="translate(55.499985 0)"/>
       <use xlink:href="#NotoSansKR-Regular-34" transform="translate(83.299973 0)"/>
       <use xlink:href="#NotoSansKR-Regular-35" transform="translate(138.799957 0)"/>
      </g>
     </g>
    </g>
    <g id="xtick_3">
     <g id="line2d_3">
      <g>
       <use xlink:href="#mc2919abd77" x="156.414844" y="133.63125" style="stroke: #000000; stroke-width: 0.8"/>
      </g>
     </g>
     <g id="text_3">
      <!-- 3.50 -->
      <g transform="translate(146.7 148.590625) scale(0.1 -0.1)">
       <use xlink:href="#NotoSansKR-Regular-33"/>
       <use xlink:href="#NotoSansKR-Regular-2e" transform="translate(55.499985 0)"/>
       <use xlink:href="#NotoSansKR-Regular-35" transform="translate(83.299973 0)"/>
       <use xlink:href="#NotoSansKR-Regular-30" transform="translate(138.799957 0)"/>
      </g>
     </g>
    </g>
    <g id="xtick_4">
     <g id="line2d_4">
      <g>
       <use xlink:href="#mc2919abd77" x="226.164844" y="133.63125" style="stroke: #000000; stroke-width: 0.8"/>
      </g>
     </g>
     <g id="text_4">
      <!-- 3.55 -->
      <g transform="translate(216.45 148.590625) scale(0.1 -0.1)">
       <use xlink:href="#NotoSansKR-Regular-33"/>
       <use xlink:href="#NotoSansKR-Regular-2e" transform="translate(55.499985 0)"/>
       <use xlink:href="#NotoSansKR-Regular-35" transform="translate(83.299973 0)"/>
       <use xlink:href="#NotoSansKR-Regular-35" transform="translate(138.799957 0)"/>
      </g>
     </g>
    </g>
    <g id="xtick_5">
     <g id="line2d_5">
      <g>
       <use xlink:href="#mc2919abd77" x="295.914844" y="133.63125" style="stroke: #000000; stroke-width: 0.8"/>
      </g>
     </g>
     <g id="text_5">
      <!-- 3.60 -->
      <g transform="translate(286.2 148.590625) scale(0.1 -0.1)">
       <defs>
        <path id="NotoSansKR-Regular-36" d="M 1926 -83 
Q 1594 -83 1306 61 
Q 1018 205 806 496 
Q 595 787 476 1222 
Q 358 1658 358 2240 
Q 358 2925 499 3411 
Q 640 3898 883 4198 
Q 1126 4499 1440 4636 
Q 1754 4774 2093 4774 
Q 2458 4774 2726 4640 
Q 2995 4506 3194 4294 
L 2861 3936 
Q 2726 4102 2528 4198 
Q 2330 4294 2118 4294 
Q 1786 4294 1510 4099 
Q 1235 3904 1072 3456 
Q 909 3008 909 2240 
Q 909 1638 1027 1222 
Q 1146 806 1373 592 
Q 1600 378 1926 378 
Q 2157 378 2333 512 
Q 2509 646 2614 886 
Q 2720 1126 2720 1440 
Q 2720 1760 2627 1993 
Q 2534 2227 2348 2352 
Q 2163 2477 1875 2477 
Q 1651 2477 1388 2333 
Q 1126 2189 890 1837 
L 870 2298 
Q 1018 2490 1197 2627 
Q 1376 2765 1577 2838 
Q 1779 2912 1971 2912 
Q 2368 2912 2659 2749 
Q 2950 2586 3113 2259 
Q 3277 1933 3277 1440 
Q 3277 986 3091 643 
Q 2906 301 2602 109 
Q 2298 -83 1926 -83 
z
" transform="scale(0.015625)"/>
       </defs>
       <use xlink:href="#NotoSansKR-Regular-33"/>
       <use xlink:href="#NotoSansKR-Regular-2e" transform="translate(55.499985 0)"/>
       <use xlink:href="#NotoSansKR-Regular-36" transform="translate(83.299973 0)"/>
       <use xlink:href="#NotoSansKR-Regular-30" transform="translate(138.799957 0)"/>
      </g>
     </g>
    </g>
    <g id="xtick_6">
     <g id="line2d_6">
      <g>
       <use xlink:href="#mc2919abd77" x="365.664844" y="133.63125" style="stroke: #000000; stroke-width: 0.8"/>
      </g>
     </g>
     <g id="text_6">
      <!-- 3.65 -->
      <g transform="translate(355.95 148.590625) scale(0.1 -0.1)">
       <use xlink:href="#NotoSansKR-Regular-33"/>
       <use xlink:href="#NotoSansKR-Regular-2e" transform="translate(55.499985 0)"/>
       <use xlink:href="#NotoSansKR-Regular-36" transform="translate(83.299973 0)"/>
       <use xlink:href="#NotoSansKR-Regular-35" transform="translate(138.799957 0)"/>
      </g>
     </g>
    </g>
    <g id="xtick_7">
     <g id="line2d_7">
      <g>
       <use xlink:href="#mc2919abd77" x="435.414844" y="133.63125" style="stroke: #000000; stroke-width: 0.8"/>
      </g>
     </g>
     <g id="text_7">
      <!-- 3.70 -->
      <g transform="translate(425.7 148.590625) scale(0.1 -0.1)">
       <defs>
        <path id="NotoSansKR-Regular-37" d="M 1267 0 
Q 1299 666 1379 1226 
Q 1459 1786 1612 2282 
Q 1766 2778 2006 3245 
Q 2246 3712 2592 4192 
L 314 4192 
L 314 4691 
L 3251 4691 
L 3251 4339 
Q 2842 3808 2582 3321 
Q 2323 2835 2179 2329 
Q 2035 1824 1968 1257 
Q 1901 691 1875 0 
L 1267 0 
z
" transform="scale(0.015625)"/>
       </defs>
       <use xlink:href="#NotoSansKR-Regular-33"/>
       <use xlink:href="#NotoSansKR-Regular-2e" transform="translate(55.499985 0)"/>
       <use xlink:href="#NotoSansKR-Regular-37" transform="translate(83.299973 0)"/>
       <use xlink:href="#NotoSansKR-Regular-30" transform="translate(138.799957 0)"/>
      </g>
     </g>
    </g>
    <g id="xtick_8">
     <g id="line2d_8">
      <g>
       <use xlink:href="#mc2919abd77" x="505.164844" y="133.63125" style="stroke: #000000; stroke-width: 0.8"/>
      </g>
     </g>
     <g id="text_8">
      <!-- 3.75 -->
      <g transform="translate(495.45 148.590625) scale(0.1 -0.1)">
       <use xlink:href="#NotoSansKR-Regular-33"/>
       <use xlink:href="#NotoSansKR-Regular-2e" transform="translate(55.499985 0)"/>
       <use xlink:href="#NotoSansKR-Regular-37" transform="translate(83.299973 0)"/>
       <use xlink:href="#NotoSansKR-Regular-35" transform="translate(138.799957 0)"/>
      </g>
     </g>
    </g>
    <g id="xtick_9">
     <g id="line2d_9">
      <g>
       <use xlink:href="#mc2919abd77" x="574.914844" y="133.63125" style="stroke: #000000; stroke-width: 0.8"/>
      </g>
     </g>
     <g id="text_9">
      <!-- 3.80 -->
      <g transform="translate(565.2 148.590625) scale(0.1 -0.1)">
       <defs>
        <path id="NotoSansKR-Regular-38" d="M 1792 -83 
Q 1357 -83 1017 77 
Q 678 237 486 518 
Q 294 800 294 1165 
Q 294 1478 419 1731 
Q 544 1984 742 2166 
Q 941 2349 1152 2464 
L 1152 2490 
Q 896 2669 707 2934 
Q 518 3200 518 3571 
Q 518 3930 688 4195 
Q 858 4461 1149 4611 
Q 1440 4762 1805 4762 
Q 2208 4762 2496 4602 
Q 2784 4442 2937 4166 
Q 3091 3891 3091 3526 
Q 3091 3283 2992 3065 
Q 2893 2848 2752 2678 
Q 2611 2509 2470 2394 
L 2470 2362 
Q 2675 2246 2854 2083 
Q 3034 1920 3146 1686 
Q 3258 1453 3258 1126 
Q 3258 794 3075 515 
Q 2893 237 2563 77 
Q 2234 -83 1792 -83 
z
M 2112 2547 
Q 2349 2758 2470 2998 
Q 2592 3238 2592 3494 
Q 2592 3731 2499 3916 
Q 2406 4102 2227 4214 
Q 2048 4326 1798 4326 
Q 1472 4326 1261 4121 
Q 1050 3917 1050 3571 
Q 1050 3296 1200 3107 
Q 1350 2918 1593 2787 
Q 1837 2656 2112 2547 
z
M 1798 352 
Q 2074 352 2275 454 
Q 2477 557 2589 736 
Q 2701 915 2701 1146 
Q 2701 1382 2598 1552 
Q 2496 1722 2326 1850 
Q 2157 1978 1933 2080 
Q 1709 2182 1459 2278 
Q 1178 2099 995 1827 
Q 813 1555 813 1216 
Q 813 973 941 774 
Q 1069 576 1296 464 
Q 1523 352 1798 352 
z
" transform="scale(0.015625)"/>
       </defs>
       <use xlink:href="#NotoSansKR-Regular-33"/>
       <use xlink:href="#NotoSansKR-Regular-2e" transform="translate(55.499985 0)"/>
       <use xlink:href="#NotoSansKR-Regular-38" transform="translate(83.299973 0)"/>
       <use xlink:href="#NotoSansKR-Regular-30" transform="translate(138.799957 0)"/>
      </g>
     </g>
    </g>
    <g id="text_10">
     <!-- Frequency (GHz) -->
     <g transform="translate(257.374219 163.060937) scale(0.1 -0.1)">
      <defs>
       <path id="NotoSansKR-Regular-46" d="M 646 0 
L 646 4691 
L 3347 4691 
L 3347 4192 
L 1235 4192 
L 1235 2605 
L 3027 2605 
L 3027 2106 
L 1235 2106 
L 1235 0 
L 646 0 
z
" transform="scale(0.015625)"/>
       <path id="NotoSansKR-Regular-72" d="M 589 0 
L 589 3475 
L 1069 3475 
L 1126 2842 
L 1139 2842 
Q 1318 3174 1577 3369 
Q 1837 3565 2125 3565 
Q 2246 3565 2332 3549 
Q 2419 3533 2496 3488 
L 2387 2982 
Q 2298 3008 2227 3024 
Q 2157 3040 2048 3040 
Q 1837 3040 1593 2857 
Q 1350 2675 1178 2234 
L 1178 0 
L 589 0 
z
" transform="scale(0.015625)"/>
       <path id="NotoSansKR-Regular-65" d="M 1997 -83 
Q 1530 -83 1152 134 
Q 774 352 553 758 
Q 333 1165 333 1734 
Q 333 2163 461 2499 
Q 589 2835 809 3075 
Q 1030 3315 1312 3440 
Q 1594 3565 1888 3565 
Q 2336 3565 2643 3366 
Q 2950 3168 3113 2800 
Q 3277 2432 3277 1933 
Q 3277 1837 3270 1753 
Q 3264 1670 3251 1600 
L 909 1600 
Q 928 1229 1078 957 
Q 1229 685 1478 534 
Q 1728 384 2061 384 
Q 2317 384 2525 457 
Q 2733 531 2931 659 
L 3136 269 
Q 2912 122 2630 19 
Q 2349 -83 1997 -83 
z
M 902 2016 
L 2765 2016 
Q 2765 2541 2537 2819 
Q 2310 3098 1901 3098 
Q 1658 3098 1443 2970 
Q 1229 2842 1085 2605 
Q 941 2368 902 2016 
z
" transform="scale(0.015625)"/>
       <path id="NotoSansKR-Regular-71" d="M 2790 -1466 
L 2790 -230 
L 2822 403 
Q 2611 198 2345 57 
Q 2080 -83 1773 -83 
Q 1338 -83 1014 128 
Q 691 339 515 745 
Q 339 1152 339 1734 
Q 339 2298 550 2707 
Q 762 3117 1104 3341 
Q 1446 3565 1843 3565 
Q 2150 3565 2380 3459 
Q 2611 3354 2842 3149 
L 2854 3149 
L 2912 3475 
L 3379 3475 
L 3379 -1466 
L 2790 -1466 
z
M 1901 410 
Q 2144 410 2361 528 
Q 2579 646 2790 883 
L 2790 2707 
Q 2573 2906 2368 2989 
Q 2163 3072 1946 3072 
Q 1670 3072 1443 2902 
Q 1216 2733 1078 2435 
Q 941 2138 941 1741 
Q 941 1325 1056 1024 
Q 1171 723 1385 566 
Q 1600 410 1901 410 
z
" transform="scale(0.015625)"/>
       <path id="NotoSansKR-Regular-75" d="M 1606 -83 
Q 1056 -83 797 262 
Q 538 608 538 1274 
L 538 3475 
L 1126 3475 
L 1126 1344 
Q 1126 864 1280 643 
Q 1434 422 1779 422 
Q 2048 422 2259 563 
Q 2470 704 2720 1011 
L 2720 3475 
L 3302 3475 
L 3302 0 
L 2816 0 
L 2771 544 
L 2752 544 
Q 2509 262 2237 89 
Q 1965 -83 1606 -83 
z
" transform="scale(0.015625)"/>
       <path id="NotoSansKR-Regular-6e" d="M 589 0 
L 589 3475 
L 1069 3475 
L 1126 2970 
L 1139 2970 
Q 1389 3219 1667 3392 
Q 1946 3565 2304 3565 
Q 2854 3565 3110 3216 
Q 3366 2867 3366 2202 
L 3366 0 
L 2784 0 
L 2784 2125 
Q 2784 2618 2627 2835 
Q 2470 3053 2125 3053 
Q 1856 3053 1645 2918 
Q 1434 2784 1178 2522 
L 1178 0 
L 589 0 
z
" transform="scale(0.015625)"/>
       <path id="NotoSansKR-Regular-63" d="M 1958 -83 
Q 1498 -83 1130 131 
Q 762 346 547 752 
Q 333 1158 333 1734 
Q 333 2317 563 2723 
Q 794 3130 1178 3347 
Q 1562 3565 2003 3565 
Q 2342 3565 2588 3443 
Q 2835 3322 3014 3155 
L 2720 2771 
Q 2573 2906 2403 2989 
Q 2234 3072 2029 3072 
Q 1715 3072 1465 2905 
Q 1216 2739 1075 2438 
Q 934 2138 934 1734 
Q 934 1338 1072 1037 
Q 1210 736 1450 569 
Q 1690 403 2010 403 
Q 2253 403 2457 502 
Q 2662 602 2829 749 
L 3085 352 
Q 2848 147 2560 32 
Q 2272 -83 1958 -83 
z
" transform="scale(0.015625)"/>
       <path id="NotoSansKR-Regular-79" d="M 646 -1498 
Q 525 -1498 422 -1478 
Q 320 -1459 237 -1427 
L 352 -960 
Q 403 -979 473 -998 
Q 544 -1018 621 -1018 
Q 915 -1018 1104 -803 
Q 1293 -589 1402 -269 
L 1478 -6 
L 83 3475 
L 691 3475 
L 1395 1549 
Q 1478 1318 1564 1062 
Q 1651 806 1741 563 
L 1773 563 
Q 1843 806 1916 1059 
Q 1990 1312 2054 1549 
L 2682 3475 
L 3251 3475 
L 1946 -294 
Q 1824 -634 1651 -906 
Q 1478 -1178 1235 -1338 
Q 992 -1498 646 -1498 
z
" transform="scale(0.015625)"/>
       <path id="NotoSansKR-Regular-20" transform="scale(0.015625)"/>
       <path id="NotoSansKR-Regular-28" d="M 1530 -1254 
Q 1088 -538 838 252 
Q 589 1043 589 1990 
Q 589 2931 838 3724 
Q 1088 4518 1530 5235 
L 1888 5069 
Q 1478 4384 1276 3593 
Q 1075 2803 1075 1990 
Q 1075 1171 1276 380 
Q 1478 -410 1888 -1094 
L 1530 -1254 
z
" transform="scale(0.015625)"/>
       <path id="NotoSansKR-Regular-47" d="M 2490 -83 
Q 1869 -83 1392 205 
Q 915 493 643 1037 
Q 371 1581 371 2342 
Q 371 2912 531 3363 
Q 691 3814 982 4128 
Q 1274 4442 1664 4608 
Q 2054 4774 2522 4774 
Q 3014 4774 3340 4592 
Q 3667 4410 3872 4198 
L 3552 3814 
Q 3373 4000 3133 4128 
Q 2893 4256 2541 4256 
Q 2067 4256 1715 4025 
Q 1363 3795 1171 3369 
Q 979 2944 979 2362 
Q 979 1766 1161 1334 
Q 1344 902 1696 668 
Q 2048 435 2547 435 
Q 2797 435 3024 508 
Q 3251 582 3392 710 
L 3392 1939 
L 2394 1939 
L 2394 2432 
L 3936 2432 
L 3936 461 
Q 3706 224 3331 70 
Q 2957 -83 2490 -83 
z
" transform="scale(0.015625)"/>
       <path id="NotoSansKR-Regular-48" d="M 646 0 
L 646 4691 
L 1235 4691 
L 1235 2726 
L 3424 2726 
L 3424 4691 
L 4019 4691 
L 4019 0 
L 3424 0 
L 3424 2214 
L 1235 2214 
L 1235 0 
L 646 0 
z
" transform="scale(0.015625)"/>
       <path id="NotoSansKR-Regular-7a" d="M 224 0 
L 224 314 
L 2054 3002 
L 422 3002 
L 422 3475 
L 2797 3475 
L 2797 3162 
L 960 474 
L 2854 474 
L 2854 0 
L 224 0 
z
" transform="scale(0.015625)"/>
       <path id="NotoSansKR-Regular-29" d="M 634 -1254 
L 269 -1094 
Q 685 -410 889 380 
Q 1094 1171 1094 1990 
Q 1094 2803 889 3593 
Q 685 4384 269 5069 
L 634 5235 
Q 1082 4518 1328 3724 
Q 1574 2931 1574 1990 
Q 1574 1043 1328 252 
Q 1082 -538 634 -1254 
z
" transform="scale(0.015625)"/>
      </defs>
      <use xlink:href="#NotoSansKR-Regular-46"/>
      <use xlink:href="#NotoSansKR-Regular-72" transform="translate(55.199997 0)"/>
      <use xlink:href="#NotoSansKR-Regular-65" transform="translate(93.999985 0)"/>
      <use xlink:href="#NotoSansKR-Regular-71" transform="translate(149.399979 0)"/>
      <use xlink:href="#NotoSansKR-Regular-75" transform="translate(211.399963 0)"/>
      <use xlink:href="#NotoSansKR-Regular-65" transform="translate(272.09996 0)"/>
      <use xlink:href="#NotoSansKR-Regular-6e" transform="translate(327.499954 0)"/>
      <use xlink:href="#NotoSansKR-Regular-63" transform="translate(388.499939 0)"/>
      <use xlink:href="#NotoSansKR-Regular-79" transform="translate(439.499924 0)"/>
      <use xlink:href="#NotoSansKR-Regular-20" transform="translate(491.599915 0)"/>
      <use xlink:href="#NotoSansKR-Regular-28" transform="translate(513.999908 0)"/>
      <use xlink:href="#NotoSansKR-Regular-47" transform="translate(547.799896 0)"/>
      <use xlink:href="#NotoSansKR-Regular-48" transform="translate(616.69989 0)"/>
      <use xlink:href="#NotoSansKR-Regular-7a" transform="translate(689.499878 0)"/>
      <use xlink:href="#NotoSansKR-Regular-29" transform="translate(736.999863 0)"/>
     </g>
    </g>
   </g>
   <g id="matplotlib.axis_2"/>
   <g id="patch_3">
    <path d="M 16.914844 133.63125 
L 16.914844 22.75125 
" style="fill: none; stroke: #000000; stroke-width: 0.8; stroke-linejoin: miter; stroke-linecap: square"/>
   </g>
   <g id="patch_4">
    <path d="M 16.914844 133.63125 
L 574.914844 133.63125 
" style="fill: none; stroke: #000000; stroke-width: 0.8; stroke-linejoin: miter; stroke-linecap: square"/>
   </g>
   <g id="text_11">
    <!-- LG U+ -->
    <g style="fill: #ffffff" transform="translate(100.904687 81.025625) scale(0.1 -0.1)">
     <defs>
      <path id="NotoSansKR-Regular-4c" d="M 646 0 
L 646 4691 
L 1235 4691 
L 1235 506 
L 3290 506 
L 3290 0 
L 646 0 
z
" transform="scale(0.015625)"/>
      <path id="NotoSansKR-Regular-55" d="M 2310 -83 
Q 1952 -83 1645 19 
Q 1338 122 1110 358 
Q 883 595 755 985 
Q 627 1376 627 1933 
L 627 4691 
L 1216 4691 
L 1216 1920 
Q 1216 1357 1363 1033 
Q 1510 710 1756 572 
Q 2003 435 2310 435 
Q 2624 435 2873 572 
Q 3123 710 3273 1033 
Q 3424 1357 3424 1920 
L 3424 4691 
L 3994 4691 
L 3994 1933 
Q 3994 1376 3869 985 
Q 3744 595 3513 358 
Q 3283 122 2976 19 
Q 2669 -83 2310 -83 
z
" transform="scale(0.015625)"/>
      <path id="NotoSansKR-Regular-2b" d="M 1542 742 
L 1542 2144 
L 243 2144 
L 243 2579 
L 1542 2579 
L 1542 3981 
L 2010 3981 
L 2010 2579 
L 3315 2579 
L 3315 2144 
L 2010 2144 
L 2010 742 
L 1542 742 
z
" transform="scale(0.015625)"/>
     </defs>
     <use xlink:href="#NotoSansKR-Regular-4c"/>
     <use xlink:href="#NotoSansKR-Regular-47" transform="translate(54.299988 0)"/>
     <use xlink:href="#NotoSansKR-Regular-20" transform="translate(123.199982 0)"/>
     <use xlink:href="#NotoSansKR-Regular-55" transform="translate(145.599976 0)"/>
     <use xlink:href="#NotoSansKR-Regular-2b" transform="translate(217.699966 0)"/>
    </g>
   </g>
   <g id="text_12">
    <!-- KT -->
    <g style="fill: #ffffff" transform="translate(247.839844 81.025625) scale(0.1 -0.1)">
     <defs>
      <path id="NotoSansKR-Regular-4b" d="M 646 0 
L 646 4691 
L 1235 4691 
L 1235 2336 
L 1248 2336 
L 3213 4691 
L 3885 4691 
L 2413 2912 
L 4109 0 
L 3450 0 
L 2042 2445 
L 1235 1485 
L 1235 0 
L 646 0 
z
" transform="scale(0.015625)"/>
      <path id="NotoSansKR-Regular-54" d="M 1619 0 
L 1619 4192 
L 198 4192 
L 198 4691 
L 3635 4691 
L 3635 4192 
L 2214 4192 
L 2214 0 
L 1619 0 
z
" transform="scale(0.015625)"/>
     </defs>
     <use xlink:href="#NotoSansKR-Regular-4b"/>
     <use xlink:href="#NotoSansKR-Regular-54" transform="translate(64.599991 0)"/>
    </g>
   </g>
   <g id="text_13">
    <!-- SKT -->
    <g style="fill: #ffffff" transform="translate(384.360156 81.025625) scale(0.1 -0.1)">
     <defs>
      <path id="NotoSansKR-Regular-53" d="M 1946 -83 
Q 1446 -83 1027 102 
Q 608 288 307 608 
L 659 1018 
Q 909 755 1248 595 
Q 1587 435 1952 435 
Q 2419 435 2678 646 
Q 2938 858 2938 1197 
Q 2938 1446 2832 1593 
Q 2726 1741 2550 1840 
Q 2374 1939 2150 2035 
L 1478 2330 
Q 1261 2426 1040 2573 
Q 819 2720 672 2957 
Q 525 3194 525 3533 
Q 525 3898 717 4176 
Q 909 4454 1241 4614 
Q 1574 4774 2003 4774 
Q 2426 4774 2781 4614 
Q 3136 4454 3379 4198 
L 3072 3821 
Q 2854 4019 2595 4137 
Q 2336 4256 2003 4256 
Q 1606 4256 1366 4073 
Q 1126 3891 1126 3578 
Q 1126 3347 1244 3200 
Q 1363 3053 1542 2963 
Q 1722 2874 1907 2790 
L 2573 2502 
Q 2842 2387 3062 2227 
Q 3283 2067 3411 1830 
Q 3539 1594 3539 1248 
Q 3539 877 3347 573 
Q 3155 269 2796 93 
Q 2438 -83 1946 -83 
z
" transform="scale(0.015625)"/>
     </defs>
     <use xlink:href="#NotoSansKR-Regular-53"/>
     <use xlink:href="#NotoSansKR-Regular-4b" transform="translate(59.599991 0)"/>
     <use xlink:href="#NotoSansKR-Regular-54" transform="translate(124.199982 0)"/>
    </g>
   </g>
   <g id="text_14">
    <!-- 5G Mid-Band Allocation (3.5 GHz) -->
    <g transform="translate(203.975156 16.75125) scale(0.12 -0.12)">
     <defs>
      <path id="NotoSansKR-Regular-4d" d="M 646 0 
L 646 4691 
L 1357 4691 
L 2253 2182 
Q 2342 1946 2425 1696 
Q 2509 1446 2592 1203 
L 2618 1203 
Q 2707 1446 2787 1696 
Q 2867 1946 2944 2182 
L 3840 4691 
L 4550 4691 
L 4550 0 
L 4000 0 
L 4000 2598 
Q 4000 2803 4013 3043 
Q 4026 3283 4045 3529 
Q 4064 3776 4077 3981 
L 4051 3981 
L 3674 2912 
L 2790 474 
L 2394 474 
L 1504 2912 
L 1126 3981 
L 1101 3981 
Q 1126 3776 1142 3529 
Q 1158 3283 1168 3043 
Q 1178 2803 1178 2598 
L 1178 0 
L 646 0 
z
" transform="scale(0.015625)"/>
      <path id="NotoSansKR-Regular-69" d="M 589 0 
L 589 3475 
L 1178 3475 
L 1178 0 
L 589 0 
z
M 883 4192 
Q 710 4192 604 4297 
Q 499 4403 499 4582 
Q 499 4755 604 4857 
Q 710 4960 883 4960 
Q 1056 4960 1165 4857 
Q 1274 4755 1274 4582 
Q 1274 4403 1165 4297 
Q 1056 4192 883 4192 
z
" transform="scale(0.015625)"/>
      <path id="NotoSansKR-Regular-64" d="M 1773 -83 
Q 1338 -83 1014 128 
Q 691 339 515 745 
Q 339 1152 339 1734 
Q 339 2298 550 2707 
Q 762 3117 1104 3341 
Q 1446 3565 1843 3565 
Q 2150 3565 2371 3459 
Q 2592 3354 2822 3162 
L 2790 3757 
L 2790 5094 
L 3379 5094 
L 3379 0 
L 2899 0 
L 2848 410 
L 2829 410 
Q 2624 205 2355 61 
Q 2086 -83 1773 -83 
z
M 1901 410 
Q 2144 410 2361 528 
Q 2579 646 2790 883 
L 2790 2707 
Q 2573 2906 2368 2989 
Q 2163 3072 1946 3072 
Q 1670 3072 1443 2902 
Q 1216 2733 1078 2435 
Q 941 2138 941 1741 
Q 941 1325 1056 1024 
Q 1171 723 1385 566 
Q 1600 410 1901 410 
z
" transform="scale(0.015625)"/>
      <path id="NotoSansKR-Regular-2d" d="M 294 1568 
L 294 2016 
L 1939 2016 
L 1939 1568 
L 294 1568 
z
" transform="scale(0.015625)"/>
      <path id="NotoSansKR-Regular-42" d="M 646 0 
L 646 4691 
L 2035 4691 
Q 2515 4691 2876 4576 
Q 3238 4461 3443 4211 
Q 3648 3962 3648 3546 
Q 3648 3315 3568 3107 
Q 3488 2899 3334 2748 
Q 3181 2598 2963 2528 
L 2963 2496 
Q 3379 2419 3648 2137 
Q 3917 1856 3917 1376 
Q 3917 915 3689 611 
Q 3462 307 3062 153 
Q 2662 0 2138 0 
L 646 0 
z
M 1235 2701 
L 1933 2701 
Q 2541 2701 2803 2905 
Q 3066 3110 3066 3469 
Q 3066 3885 2787 4054 
Q 2509 4224 1958 4224 
L 1235 4224 
L 1235 2701 
z
M 1235 474 
L 2054 474 
Q 2656 474 2995 698 
Q 3334 922 3334 1395 
Q 3334 1837 3001 2038 
Q 2669 2240 2054 2240 
L 1235 2240 
L 1235 474 
z
" transform="scale(0.015625)"/>
      <path id="NotoSansKR-Regular-61" d="M 1389 -83 
Q 1101 -83 870 32 
Q 640 147 509 368 
Q 378 589 378 902 
Q 378 1472 886 1776 
Q 1395 2080 2509 2202 
Q 2509 2426 2448 2627 
Q 2387 2829 2233 2953 
Q 2080 3078 1792 3078 
Q 1491 3078 1225 2960 
Q 960 2842 749 2707 
L 525 3110 
Q 685 3213 896 3318 
Q 1107 3424 1356 3494 
Q 1606 3565 1888 3565 
Q 2310 3565 2576 3385 
Q 2842 3206 2966 2889 
Q 3091 2573 3091 2138 
L 3091 0 
L 2611 0 
L 2560 416 
L 2541 416 
Q 2298 211 2006 64 
Q 1715 -83 1389 -83 
z
M 1555 390 
Q 1805 390 2032 505 
Q 2259 621 2509 845 
L 2509 1811 
Q 1926 1747 1580 1628 
Q 1235 1510 1088 1340 
Q 941 1171 941 941 
Q 941 640 1120 515 
Q 1299 390 1555 390 
z
" transform="scale(0.015625)"/>
      <path id="NotoSansKR-Regular-41" d="M 26 0 
L 1613 4691 
L 2272 4691 
L 3866 0 
L 3238 0 
L 2419 2624 
Q 2291 3027 2176 3414 
Q 2061 3802 1946 4211 
L 1920 4211 
Q 1811 3802 1692 3414 
Q 1574 3027 1453 2624 
L 621 0 
L 26 0 
z
M 851 1434 
L 851 1901 
L 3014 1901 
L 3014 1434 
L 851 1434 
z
" transform="scale(0.015625)"/>
      <path id="NotoSansKR-Regular-6c" d="M 1203 -83 
Q 986 -83 851 6 
Q 717 96 653 272 
Q 589 448 589 691 
L 589 5094 
L 1178 5094 
L 1178 653 
Q 1178 518 1226 460 
Q 1274 403 1338 403 
Q 1363 403 1388 406 
Q 1414 410 1459 416 
L 1542 -32 
Q 1478 -51 1401 -67 
Q 1325 -83 1203 -83 
z
" transform="scale(0.015625)"/>
      <path id="NotoSansKR-Regular-6f" d="M 1939 -83 
Q 1517 -83 1145 131 
Q 774 346 553 752 
Q 333 1158 333 1734 
Q 333 2317 553 2723 
Q 774 3130 1145 3347 
Q 1517 3565 1939 3565 
Q 2259 3565 2550 3443 
Q 2842 3322 3066 3085 
Q 3290 2848 3418 2509 
Q 3546 2170 3546 1734 
Q 3546 1158 3322 752 
Q 3098 346 2733 131 
Q 2368 -83 1939 -83 
z
M 1939 403 
Q 2240 403 2467 569 
Q 2694 736 2822 1037 
Q 2950 1338 2950 1734 
Q 2950 2138 2822 2438 
Q 2694 2739 2467 2905 
Q 2240 3072 1939 3072 
Q 1638 3072 1411 2905 
Q 1184 2739 1059 2438 
Q 934 2138 934 1734 
Q 934 1338 1059 1037 
Q 1184 736 1411 569 
Q 1638 403 1939 403 
z
" transform="scale(0.015625)"/>
      <path id="NotoSansKR-Regular-74" d="M 1677 -83 
Q 1312 -83 1094 61 
Q 877 205 784 467 
Q 691 730 691 1075 
L 691 3002 
L 173 3002 
L 173 3443 
L 723 3475 
L 787 4454 
L 1274 4454 
L 1274 3475 
L 2221 3475 
L 2221 3002 
L 1274 3002 
L 1274 1056 
Q 1274 742 1392 566 
Q 1510 390 1811 390 
Q 1907 390 2016 419 
Q 2125 448 2208 486 
L 2323 45 
Q 2176 -6 2009 -44 
Q 1843 -83 1677 -83 
z
" transform="scale(0.015625)"/>
     </defs>
     <use xlink:href="#NotoSansKR-Regular-35"/>
     <use xlink:href="#NotoSansKR-Regular-47" transform="translate(55.499985 0)"/>
     <use xlink:href="#NotoSansKR-Regular-20" transform="translate(124.399979 0)"/>
     <use xlink:href="#NotoSansKR-Regular-4d" transform="translate(146.799973 0)"/>
     <use xlink:href="#NotoSansKR-Regular-69" transform="translate(227.999954 0)"/>
     <use xlink:href="#NotoSansKR-Regular-64" transform="translate(255.499939 0)"/>
     <use xlink:href="#NotoSansKR-Regular-2d" transform="translate(317.499924 0)"/>
     <use xlink:href="#NotoSansKR-Regular-42" transform="translate(352.199921 0)"/>
     <use xlink:href="#NotoSansKR-Regular-61" transform="translate(417.899918 0)"/>
     <use xlink:href="#NotoSansKR-Regular-6e" transform="translate(474.199905 0)"/>
     <use xlink:href="#NotoSansKR-Regular-64" transform="translate(535.19989 0)"/>
     <use xlink:href="#NotoSansKR-Regular-20" transform="translate(597.199875 0)"/>
     <use xlink:href="#NotoSansKR-Regular-41" transform="translate(619.599869 0)"/>
     <use xlink:href="#NotoSansKR-Regular-6c" transform="translate(680.399857 0)"/>
     <use xlink:href="#NotoSansKR-Regular-6c" transform="translate(708.79985 0)"/>
     <use xlink:href="#NotoSansKR-Regular-6f" transform="translate(737.199844 0)"/>
     <use xlink:href="#NotoSansKR-Regular-63" transform="translate(797.799835 0)"/>
     <use xlink:href="#NotoSansKR-Regular-61" transform="translate(848.79982 0)"/>
     <use xlink:href="#NotoSansKR-Regular-74" transform="translate(905.099808 0)"/>
     <use xlink:href="#NotoSansKR-Regular-69" transform="translate(942.799805 0)"/>
     <use xlink:href="#NotoSansKR-Regular-6f" transform="translate(970.299789 0)"/>
     <use xlink:href="#NotoSansKR-Regular-6e" transform="translate(1030.89978 0)"/>
     <use xlink:href="#NotoSansKR-Regular-20" transform="translate(1091.899765 0)"/>
     <use xlink:href="#NotoSansKR-Regular-28" transform="translate(1114.299759 0)"/>
     <use xlink:href="#NotoSansKR-Regular-33" transform="translate(1148.099747 0)"/>
     <use xlink:href="#NotoSansKR-Regular-2e" transform="translate(1203.599731 0)"/>
     <use xlink:href="#NotoSansKR-Regular-35" transform="translate(1231.399719 0)"/>
     <use xlink:href="#NotoSansKR-Regular-20" transform="translate(1286.899704 0)"/>
     <use xlink:href="#NotoSansKR-Regular-47" transform="translate(1309.299698 0)"/>
     <use xlink:href="#NotoSansKR-Regular-48" transform="translate(1378.199692 0)"/>
     <use xlink:href="#NotoSansKR-Regular-7a" transform="translate(1450.99968 0)"/>
     <use xlink:href="#NotoSansKR-Regular-29" transform="translate(1498.499664 0)"/>
    </g>
   </g>
  </g>
 </g>
 <defs>
  <clipPath id="p796bcc05b1">
   <rect x="16.914844" y="22.75125" width="558" height="110.88"/>
  </clipPath>
 </defs>
</svg>
