<?xml version="1.0" encoding="utf-8" standalone="no"?>
<!DOCTYPE svg PUBLIC "-//W3C//DTD SVG 1.1//EN"
  "http://www.w3.org/Graphics/SVG/1.1/DTD/svg11.dtd">
<svg xmlns:xlink="http://www.w3.org/1999/xlink" width="482.5375pt" height="211.66625pt" viewBox="0 0 482.5375 211.66625" xmlns="http://www.w3.org/2000/svg" version="1.1">
 <metadata>
  <rdf:RDF xmlns:dc="http://purl.org/dc/elements/1.1/" xmlns:cc="http://creativecommons.org/ns#" xmlns:rdf="http://www.w3.org/1999/02/22-rdf-syntax-ns#">
   <cc:Work>
    <dc:type rdf:resource="http://purl.org/dc/dcmitype/StillImage"/>
    <dc:date>2026-01-14T20:51:56.228150</dc:date>
    <dc:format>image/svg+xml</dc:format>
    <dc:creator>
     <cc:Agent>
      <dc:title>Matplotlib v3.10.8, https://matplotlib.org/</dc:title>
     </cc:Agent>
    </dc:creator>
   </cc:Work>
  </rdf:RDF>
 </metadata>
 <defs>
  <style type="text/css">*{stroke-linejoin: round; stroke-linecap: butt}</style>
 </defs>
 <g id="figure_1">
  <g id="patch_1">
   <path d="M 0 211.66625 
L 482.5375 211.66625 
L 482.5375 0 
L 0 0 
z
" style="fill: #ffffff"/>
  </g>
  <g id="axes_1">
   <g id="patch_2">
    <path d="M 28.9375 188.40375 
L 475.3375 188.40375 
L 475.3375 22.08375 
L 28.9375 22.08375 
z
" style="fill: #ffffff"/>
   </g>
   <g id="FillBetweenPolyCollection_1">
    <defs>
     <path id="mb8b6a2eced" d="M 252.544131 -181.417701 
L 252.544131 -30.8225 
L 253.357394 -30.8225 
L 254.170657 -30.8225 
L 254.98392 -30.8225 
L 255.797183 -30.8225 
L 256.610446 -30.8225 
L 257.423709 -30.8225 
L 258.236972 -30.8225 
L 259.050235 -30.8225 
L 259.863497 -30.8225 
L 260.67676 -30.8225 
L 261.490023 -30.8225 
L 262.303286 -30.8225 
L 263.116549 -30.8225 
L 263.929812 -30.8225 
L 264.743075 -30.8225 
L 265.556338 -30.8225 
L 266.369601 -30.8225 
L 267.182863 -30.8225 
L 267.996126 -30.8225 
L 268.809389 -30.8225 
L 269.622652 -30.8225 
L 270.435915 -30.8225 
L 271.249178 -30.8225 
L 272.062441 -30.8225 
L 272.875704 -30.8225 
L 273.688967 -30.8225 
L 274.502229 -30.8225 
L 275.315492 -30.8225 
L 276.128755 -30.8225 
L 276.942018 -30.8225 
L 277.755281 -30.8225 
L 278.568544 -30.8225 
L 279.381807 -30.8225 
L 280.19507 -30.8225 
L 281.008333 -30.8225 
L 281.821595 -30.8225 
L 282.634858 -30.8225 
L 283.448121 -30.8225 
L 284.261384 -30.8225 
L 285.074647 -30.8225 
L 285.88791 -30.8225 
L 286.701173 -30.8225 
L 287.514436 -30.8225 
L 288.327699 -30.8225 
L 289.140961 -30.8225 
L 289.954224 -30.8225 
L 290.767487 -30.8225 
L 291.58075 -30.8225 
L 292.394013 -30.8225 
L 293.207276 -30.8225 
L 294.020539 -30.8225 
L 294.833802 -30.8225 
L 295.647065 -30.8225 
L 296.460327 -30.8225 
L 297.27359 -30.8225 
L 298.086853 -30.8225 
L 298.900116 -30.8225 
L 299.713379 -30.8225 
L 300.526642 -30.8225 
L 301.339905 -30.8225 
L 302.153168 -30.8225 
L 302.966431 -30.8225 
L 303.779693 -30.8225 
L 304.592956 -30.8225 
L 305.406219 -30.8225 
L 306.219482 -30.8225 
L 307.032745 -30.8225 
L 307.846008 -30.8225 
L 308.659271 -30.8225 
L 309.472534 -30.8225 
L 310.285797 -30.8225 
L 311.099059 -30.8225 
L 311.912322 -30.8225 
L 312.725585 -30.8225 
L 313.538848 -30.8225 
L 314.352111 -30.8225 
L 315.165374 -30.8225 
L 315.978637 -30.8225 
L 316.7919 -30.8225 
L 317.605163 -30.8225 
L 318.418425 -30.8225 
L 319.231688 -30.8225 
L 320.044951 -30.8225 
L 320.858214 -30.8225 
L 321.671477 -30.8225 
L 322.48474 -30.8225 
L 323.298003 -30.8225 
L 324.111266 -30.8225 
L 324.924529 -30.8225 
L 325.737791 -30.8225 
L 326.551054 -30.8225 
L 327.364317 -30.8225 
L 328.17758 -30.8225 
L 328.990843 -30.8225 
L 329.804106 -30.8225 
L 330.617369 -30.8225 
L 331.430632 -30.8225 
L 332.243895 -30.8225 
L 333.057157 -30.8225 
L 333.87042 -30.8225 
L 334.683683 -30.8225 
L 335.496946 -30.8225 
L 336.310209 -30.8225 
L 337.123472 -30.8225 
L 337.936735 -30.8225 
L 338.749998 -30.8225 
L 339.563261 -30.8225 
L 340.376524 -30.8225 
L 341.189786 -30.8225 
L 342.003049 -30.8225 
L 342.816312 -30.8225 
L 343.629575 -30.8225 
L 344.442838 -30.8225 
L 345.256101 -30.8225 
L 346.069364 -30.8225 
L 346.882627 -30.8225 
L 347.69589 -30.8225 
L 348.509152 -30.8225 
L 349.322415 -30.8225 
L 350.135678 -30.8225 
L 350.948941 -30.8225 
L 351.762204 -30.8225 
L 352.575467 -30.8225 
L 353.38873 -30.8225 
L 353.38873 -86.557453 
L 353.38873 -86.557453 
L 352.575467 -87.006022 
L 351.762204 -87.4582 
L 350.948941 -87.914018 
L 350.135678 -88.373505 
L 349.322415 -88.83669 
L 348.509152 -89.303602 
L 347.69589 -89.774273 
L 346.882627 -90.248731 
L 346.069364 -90.727008 
L 345.256101 -91.209134 
L 344.442838 -91.695141 
L 343.629575 -92.185059 
L 342.816312 -92.67892 
L 342.003049 -93.176755 
L 341.189786 -93.678598 
L 340.376524 -94.184479 
L 339.563261 -94.694432 
L 338.749998 -95.208489 
L 337.936735 -95.726683 
L 337.123472 -96.249048 
L 336.310209 -96.775617 
L 335.496946 -97.306424 
L 334.683683 -97.841503 
L 333.87042 -98.380889 
L 333.057157 -98.924615 
L 332.243895 -99.472718 
L 331.430632 -100.025232 
L 330.617369 -100.582192 
L 329.804106 -101.143636 
L 328.990843 -101.709597 
L 328.17758 -102.280114 
L 327.364317 -102.855223 
L 326.551054 -103.43496 
L 325.737791 -104.019363 
L 324.924529 -104.608469 
L 324.111266 -105.202317 
L 323.298003 -105.800944 
L 322.48474 -106.404389 
L 321.671477 -107.012691 
L 320.858214 -107.625888 
L 320.044951 -108.244021 
L 319.231688 -108.867128 
L 318.418425 -109.495251 
L 317.605163 -110.128428 
L 316.7919 -110.766702 
L 315.978637 -111.410113 
L 315.165374 -112.058701 
L 314.352111 -112.71251 
L 313.538848 -113.371581 
L 312.725585 -114.035957 
L 311.912322 -114.705679 
L 311.099059 -115.380792 
L 310.285797 -116.061338 
L 309.472534 -116.747361 
L 308.659271 -117.438905 
L 307.846008 -118.136015 
L 307.032745 -118.838736 
L 306.219482 -119.547113 
L 305.406219 -120.26119 
L 304.592956 -120.981015 
L 303.779693 -121.706633 
L 302.966431 -122.438091 
L 302.153168 -123.175435 
L 301.339905 -123.918715 
L 300.526642 -124.667976 
L 299.713379 -125.423267 
L 298.900116 -126.184638 
L 298.086853 -126.952136 
L 297.27359 -127.725811 
L 296.460327 -128.505712 
L 295.647065 -129.291891 
L 294.833802 -130.084397 
L 294.020539 -130.883281 
L 293.207276 -131.688595 
L 292.394013 -132.50039 
L 291.58075 -133.318719 
L 290.767487 -134.143634 
L 289.954224 -134.975188 
L 289.140961 -135.813434 
L 288.327699 -136.658427 
L 287.514436 -137.510221 
L 286.701173 -138.36887 
L 285.88791 -139.234429 
L 285.074647 -140.106955 
L 284.261384 -140.986504 
L 283.448121 -141.873131 
L 282.634858 -142.766893 
L 281.821595 -143.66785 
L 281.008333 -144.576057 
L 280.19507 -145.491573 
L 279.381807 -146.414458 
L 278.568544 -147.344771 
L 277.755281 -148.282571 
L 276.942018 -149.227919 
L 276.128755 -150.180874 
L 275.315492 -151.1415 
L 274.502229 -152.109857 
L 273.688967 -153.086008 
L 272.875704 -154.070014 
L 272.062441 -155.061941 
L 271.249178 -156.06185 
L 270.435915 -157.069808 
L 269.622652 -158.085877 
L 268.809389 -159.110124 
L 267.996126 -160.142615 
L 267.182863 -161.183415 
L 266.369601 -162.232591 
L 265.556338 -163.290212 
L 264.743075 -164.356345 
L 263.929812 -165.431058 
L 263.116549 -166.514421 
L 262.303286 -167.606503 
L 261.490023 -168.707375 
L 260.67676 -169.817106 
L 259.863497 -170.935769 
L 259.050235 -172.063435 
L 258.236972 -173.200177 
L 257.423709 -174.346068 
L 256.610446 -175.501181 
L 255.797183 -176.66559 
L 254.98392 -177.839371 
L 254.170657 -179.022599 
L 253.357394 -180.21535 
L 252.544131 -181.417701 
z
" style="stroke: #800080; stroke-opacity: 0.3"/>
    </defs>
    <g clip-path="url(#p5ae73422d8)">
     <use xlink:href="#mb8b6a2eced" x="0" y="211.66625" style="fill: #800080; fill-opacity: 0.3; stroke: #800080; stroke-opacity: 0.3"/>
    </g>
   </g>
   <g id="matplotlib.axis_1">
    <g id="xtick_1">
     <g id="line2d_1">
      <path d="M 49.228409 188.40375 
L 49.228409 22.08375 
" clip-path="url(#p5ae73422d8)" style="fill: none; stroke-dasharray: 2.96,1.28; stroke-dashoffset: 0; stroke: #b0b0b0; stroke-opacity: 0.5; stroke-width: 0.8"/>
     </g>
     <g id="line2d_2">
      <defs>
       <path id="m496a162eb4" d="M 0 0 
L 0 3.5 
" style="stroke: #000000; stroke-width: 0.8"/>
      </defs>
      <g>
       <use xlink:href="#m496a162eb4" x="49.228409" y="188.40375" style="stroke: #000000; stroke-width: 0.8"/>
      </g>
     </g>
     <g id="text_1">
      <!-- -2.0 -->
      <g transform="translate(39.882315 202.474063) scale(0.1 -0.1)">
       <defs>
        <path id="Pretendard-Regular-2d" d="M 2375 2181 
L 394 2181 
L 394 1688 
L 2375 1688 
L 2375 2181 
z
" transform="scale(0.015625)"/>
        <path id="Pretendard-Regular-32" d="M 425 0 
L 3363 0 
L 3363 500 
L 1206 500 
L 1206 538 
L 2244 1606 
C 3044 2431 3281 2825 3281 3331 
C 3281 4038 2694 4588 1875 4588 
C 1056 4588 438 4050 444 3250 
L 975 3250 
C 975 3756 1319 4100 1856 4100 
C 2363 4100 2756 3794 2756 3331 
C 2756 2913 2500 2606 1963 2038 
L 419 413 
L 425 0 
z
" transform="scale(0.015625)"/>
        <path id="Pretendard-Regular-2e" d="M 813 -38 
C 1031 -38 1213 144 1213 369 
C 1213 588 1031 769 813 769 
C 594 769 406 588 413 369 
C 406 144 594 -38 813 -38 
z
" transform="scale(0.015625)"/>
        <path id="Pretendard-Regular-30" d="M 1906 -63 
C 2906 -63 3488 781 3488 2263 
C 3488 3731 2900 4588 1906 4588 
C 913 4588 325 3731 325 2263 
C 325 781 900 -63 1906 -63 
z
M 1906 438 
C 1250 438 869 1094 869 2263 
C 869 3431 1256 4100 1906 4100 
C 2556 4100 2938 3431 2938 2263 
C 2938 1094 2556 438 1906 438 
z
" transform="scale(0.015625)"/>
       </defs>
       <use xlink:href="#Pretendard-Regular-2d"/>
       <use xlink:href="#Pretendard-Regular-32" transform="translate(43.261719 0)"/>
       <use xlink:href="#Pretendard-Regular-2e" transform="translate(101.953125 0)"/>
       <use xlink:href="#Pretendard-Regular-30" transform="translate(127.34375 0)"/>
      </g>
     </g>
    </g>
    <g id="xtick_2">
     <g id="line2d_3">
      <path d="M 99.955682 188.40375 
L 99.955682 22.08375 
" clip-path="url(#p5ae73422d8)" style="fill: none; stroke-dasharray: 2.96,1.28; stroke-dashoffset: 0; stroke: #b0b0b0; stroke-opacity: 0.5; stroke-width: 0.8"/>
     </g>
     <g id="line2d_4">
      <g>
       <use xlink:href="#m496a162eb4" x="99.955682" y="188.40375" style="stroke: #000000; stroke-width: 0.8"/>
      </g>
     </g>
     <g id="text_2">
      <!-- -1.5 -->
      <g transform="translate(91.347088 202.474063) scale(0.1 -0.1)">
       <defs>
        <path id="Pretendard-Regular-31" d="M 2025 4525 
L 1456 4525 
L 331 3775 
L 331 3206 
L 1431 3938 
L 1456 3938 
L 1456 0 
L 2025 0 
L 2025 4525 
z
" transform="scale(0.015625)"/>
        <path id="Pretendard-Regular-35" d="M 1900 -63 
C 2800 -63 3463 569 3463 1444 
C 3463 2325 2825 2963 1963 2963 
C 1644 2963 1338 2856 1138 2700 
L 1094 2700 
L 1263 4025 
L 3244 4025 
L 3244 4525 
L 794 4525 
L 475 2050 
L 1019 2050 
C 1188 2344 1481 2463 1863 2456 
C 2469 2450 2913 2019 2913 1431 
C 2913 863 2488 431 1900 431 
C 1413 431 1019 731 975 1138 
L 431 1138 
C 463 444 1081 -63 1900 -63 
z
" transform="scale(0.015625)"/>
       </defs>
       <use xlink:href="#Pretendard-Regular-2d"/>
       <use xlink:href="#Pretendard-Regular-31" transform="translate(43.261719 0)"/>
       <use xlink:href="#Pretendard-Regular-2e" transform="translate(87.109375 0)"/>
       <use xlink:href="#Pretendard-Regular-35" transform="translate(112.5 0)"/>
      </g>
     </g>
    </g>
    <g id="xtick_3">
     <g id="line2d_5">
      <path d="M 150.682955 188.40375 
L 150.682955 22.08375 
" clip-path="url(#p5ae73422d8)" style="fill: none; stroke-dasharray: 2.96,1.28; stroke-dashoffset: 0; stroke: #b0b0b0; stroke-opacity: 0.5; stroke-width: 0.8"/>
     </g>
     <g id="line2d_6">
      <g>
       <use xlink:href="#m496a162eb4" x="150.682955" y="188.40375" style="stroke: #000000; stroke-width: 0.8"/>
      </g>
     </g>
     <g id="text_3">
      <!-- -1.0 -->
      <g transform="translate(142.079048 202.474063) scale(0.1 -0.1)">
       <use xlink:href="#Pretendard-Regular-2d"/>
       <use xlink:href="#Pretendard-Regular-31" transform="translate(43.261719 0)"/>
       <use xlink:href="#Pretendard-Regular-2e" transform="translate(87.109375 0)"/>
       <use xlink:href="#Pretendard-Regular-30" transform="translate(112.5 0)"/>
      </g>
     </g>
    </g>
    <g id="xtick_4">
     <g id="line2d_7">
      <path d="M 201.410227 188.40375 
L 201.410227 22.08375 
" clip-path="url(#p5ae73422d8)" style="fill: none; stroke-dasharray: 2.96,1.28; stroke-dashoffset: 0; stroke: #b0b0b0; stroke-opacity: 0.5; stroke-width: 0.8"/>
     </g>
     <g id="line2d_8">
      <g>
       <use xlink:href="#m496a162eb4" x="201.410227" y="188.40375" style="stroke: #000000; stroke-width: 0.8"/>
      </g>
     </g>
     <g id="text_4">
      <!-- -0.5 -->
      <g transform="translate(192.014915 202.474063) scale(0.1 -0.1)">
       <use xlink:href="#Pretendard-Regular-2d"/>
       <use xlink:href="#Pretendard-Regular-30" transform="translate(43.261719 0)"/>
       <use xlink:href="#Pretendard-Regular-2e" transform="translate(102.832031 0)"/>
       <use xlink:href="#Pretendard-Regular-35" transform="translate(128.222656 0)"/>
      </g>
     </g>
    </g>
    <g id="xtick_5">
     <g id="line2d_9">
      <path d="M 252.1375 188.40375 
L 252.1375 22.08375 
" clip-path="url(#p5ae73422d8)" style="fill: none; stroke-dasharray: 2.96,1.28; stroke-dashoffset: 0; stroke: #b0b0b0; stroke-opacity: 0.5; stroke-width: 0.8"/>
     </g>
     <g id="line2d_10">
      <g>
       <use xlink:href="#m496a162eb4" x="252.1375" y="188.40375" style="stroke: #000000; stroke-width: 0.8"/>
      </g>
     </g>
     <g id="text_5">
      <!-- 0.0 -->
      <g transform="translate(244.910156 202.474063) scale(0.1 -0.1)">
       <use xlink:href="#Pretendard-Regular-30"/>
       <use xlink:href="#Pretendard-Regular-2e" transform="translate(59.570312 0)"/>
       <use xlink:href="#Pretendard-Regular-30" transform="translate(84.960938 0)"/>
      </g>
     </g>
    </g>
    <g id="xtick_6">
     <g id="line2d_11">
      <path d="M 302.864773 188.40375 
L 302.864773 22.08375 
" clip-path="url(#p5ae73422d8)" style="fill: none; stroke-dasharray: 2.96,1.28; stroke-dashoffset: 0; stroke: #b0b0b0; stroke-opacity: 0.5; stroke-width: 0.8"/>
     </g>
     <g id="line2d_12">
      <g>
       <use xlink:href="#m496a162eb4" x="302.864773" y="188.40375" style="stroke: #000000; stroke-width: 0.8"/>
      </g>
     </g>
     <g id="text_6">
      <!-- 0.5 -->
      <g transform="translate(295.632741 202.474063) scale(0.1 -0.1)">
       <use xlink:href="#Pretendard-Regular-30"/>
       <use xlink:href="#Pretendard-Regular-2e" transform="translate(59.570312 0)"/>
       <use xlink:href="#Pretendard-Regular-35" transform="translate(84.960938 0)"/>
      </g>
     </g>
    </g>
    <g id="xtick_7">
     <g id="line2d_13">
      <path d="M 353.592045 188.40375 
L 353.592045 22.08375 
" clip-path="url(#p5ae73422d8)" style="fill: none; stroke-dasharray: 2.96,1.28; stroke-dashoffset: 0; stroke: #b0b0b0; stroke-opacity: 0.5; stroke-width: 0.8"/>
     </g>
     <g id="line2d_14">
      <g>
       <use xlink:href="#m496a162eb4" x="353.592045" y="188.40375" style="stroke: #000000; stroke-width: 0.8"/>
      </g>
     </g>
     <g id="text_7">
      <!-- 1.0 -->
      <g transform="translate(347.15142 202.474063) scale(0.1 -0.1)">
       <use xlink:href="#Pretendard-Regular-31"/>
       <use xlink:href="#Pretendard-Regular-2e" transform="translate(43.847656 0)"/>
       <use xlink:href="#Pretendard-Regular-30" transform="translate(69.238281 0)"/>
      </g>
     </g>
    </g>
    <g id="xtick_8">
     <g id="line2d_15">
      <path d="M 404.319318 188.40375 
L 404.319318 22.08375 
" clip-path="url(#p5ae73422d8)" style="fill: none; stroke-dasharray: 2.96,1.28; stroke-dashoffset: 0; stroke: #b0b0b0; stroke-opacity: 0.5; stroke-width: 0.8"/>
     </g>
     <g id="line2d_16">
      <g>
       <use xlink:href="#m496a162eb4" x="404.319318" y="188.40375" style="stroke: #000000; stroke-width: 0.8"/>
      </g>
     </g>
     <g id="text_8">
      <!-- 1.5 -->
      <g transform="translate(397.874006 202.474063) scale(0.1 -0.1)">
       <use xlink:href="#Pretendard-Regular-31"/>
       <use xlink:href="#Pretendard-Regular-2e" transform="translate(43.847656 0)"/>
       <use xlink:href="#Pretendard-Regular-35" transform="translate(69.238281 0)"/>
      </g>
     </g>
    </g>
    <g id="xtick_9">
     <g id="line2d_17">
      <path d="M 455.046591 188.40375 
L 455.046591 22.08375 
" clip-path="url(#p5ae73422d8)" style="fill: none; stroke-dasharray: 2.96,1.28; stroke-dashoffset: 0; stroke: #b0b0b0; stroke-opacity: 0.5; stroke-width: 0.8"/>
     </g>
     <g id="line2d_18">
      <g>
       <use xlink:href="#m496a162eb4" x="455.046591" y="188.40375" style="stroke: #000000; stroke-width: 0.8"/>
      </g>
     </g>
     <g id="text_9">
      <!-- 2.0 -->
      <g transform="translate(447.863778 202.474063) scale(0.1 -0.1)">
       <use xlink:href="#Pretendard-Regular-32"/>
       <use xlink:href="#Pretendard-Regular-2e" transform="translate(58.691406 0)"/>
       <use xlink:href="#Pretendard-Regular-30" transform="translate(84.082031 0)"/>
      </g>
     </g>
    </g>
   </g>
   <g id="matplotlib.axis_2">
    <g id="ytick_1">
     <g id="line2d_19">
      <path d="M 28.9375 180.84375 
L 475.3375 180.84375 
" clip-path="url(#p5ae73422d8)" style="fill: none; stroke-dasharray: 2.96,1.28; stroke-dashoffset: 0; stroke: #b0b0b0; stroke-opacity: 0.5; stroke-width: 0.8"/>
     </g>
     <g id="line2d_20">
      <defs>
       <path id="ma0006a2ad5" d="M 0 0 
L -3.5 0 
" style="stroke: #000000; stroke-width: 0.8"/>
      </defs>
      <g>
       <use xlink:href="#ma0006a2ad5" x="28.9375" y="180.84375" style="stroke: #000000; stroke-width: 0.8"/>
      </g>
     </g>
     <g id="text_10">
      <!-- 0.0 -->
      <g transform="translate(7.482812 184.378906) scale(0.1 -0.1)">
       <use xlink:href="#Pretendard-Regular-30"/>
       <use xlink:href="#Pretendard-Regular-2e" transform="translate(59.570312 0)"/>
       <use xlink:href="#Pretendard-Regular-30" transform="translate(84.960938 0)"/>
      </g>
     </g>
    </g>
    <g id="ytick_2">
     <g id="line2d_21">
      <path d="M 28.9375 150.60375 
L 475.3375 150.60375 
" clip-path="url(#p5ae73422d8)" style="fill: none; stroke-dasharray: 2.96,1.28; stroke-dashoffset: 0; stroke: #b0b0b0; stroke-opacity: 0.5; stroke-width: 0.8"/>
     </g>
     <g id="line2d_22">
      <g>
       <use xlink:href="#ma0006a2ad5" x="28.9375" y="150.60375" style="stroke: #000000; stroke-width: 0.8"/>
      </g>
     </g>
     <g id="text_11">
      <!-- 0.2 -->
      <g transform="translate(7.571875 154.138906) scale(0.1 -0.1)">
       <use xlink:href="#Pretendard-Regular-30"/>
       <use xlink:href="#Pretendard-Regular-2e" transform="translate(59.570312 0)"/>
       <use xlink:href="#Pretendard-Regular-32" transform="translate(84.960938 0)"/>
      </g>
     </g>
    </g>
    <g id="ytick_3">
     <g id="line2d_23">
      <path d="M 28.9375 120.36375 
L 475.3375 120.36375 
" clip-path="url(#p5ae73422d8)" style="fill: none; stroke-dasharray: 2.96,1.28; stroke-dashoffset: 0; stroke: #b0b0b0; stroke-opacity: 0.5; stroke-width: 0.8"/>
     </g>
     <g id="line2d_24">
      <g>
       <use xlink:href="#ma0006a2ad5" x="28.9375" y="120.36375" style="stroke: #000000; stroke-width: 0.8"/>
      </g>
     </g>
     <g id="text_12">
      <!-- 0.4 -->
      <g transform="translate(7.2 123.898906) scale(0.1 -0.1)">
       <defs>
        <path id="Pretendard-Regular-34" d="M 313 925 
L 2506 925 
L 2506 0 
L 3044 0 
L 3044 925 
L 3675 925 
L 3675 1419 
L 3044 1419 
L 3044 4525 
L 2350 4525 
L 313 1388 
L 313 925 
z
M 919 1419 
L 919 1456 
L 2450 3813 
L 2506 3813 
L 2506 1419 
L 919 1419 
z
" transform="scale(0.015625)"/>
       </defs>
       <use xlink:href="#Pretendard-Regular-30"/>
       <use xlink:href="#Pretendard-Regular-2e" transform="translate(59.570312 0)"/>
       <use xlink:href="#Pretendard-Regular-34" transform="translate(84.960938 0)"/>
      </g>
     </g>
    </g>
    <g id="ytick_4">
     <g id="line2d_25">
      <path d="M 28.9375 90.12375 
L 475.3375 90.12375 
" clip-path="url(#p5ae73422d8)" style="fill: none; stroke-dasharray: 2.96,1.28; stroke-dashoffset: 0; stroke: #b0b0b0; stroke-opacity: 0.5; stroke-width: 0.8"/>
     </g>
     <g id="line2d_26">
      <g>
       <use xlink:href="#ma0006a2ad5" x="28.9375" y="90.12375" style="stroke: #000000; stroke-width: 0.8"/>
      </g>
     </g>
     <g id="text_13">
      <!-- 0.6 -->
      <g transform="translate(7.307812 93.658906) scale(0.1 -0.1)">
       <defs>
        <path id="Pretendard-Regular-36" d="M 2000 -63 
C 2950 -69 3575 613 3575 1463 
C 3575 2338 2906 2963 2100 2963 
C 1613 2963 1200 2738 938 2363 
L 881 2363 
C 881 3450 1325 4088 2069 4088 
C 2575 4088 2875 3788 2981 3388 
L 3538 3388 
C 3419 4100 2863 4588 2069 4588 
C 1006 4588 350 3688 350 2088 
C 350 413 1213 -50 2000 -63 
z
M 2000 431 
C 1394 431 956 919 956 1450 
C 963 1988 1419 2469 2013 2469 
C 2606 2469 3025 2013 3031 1456 
C 3025 894 2588 431 2000 431 
z
" transform="scale(0.015625)"/>
       </defs>
       <use xlink:href="#Pretendard-Regular-30"/>
       <use xlink:href="#Pretendard-Regular-2e" transform="translate(59.570312 0)"/>
       <use xlink:href="#Pretendard-Regular-36" transform="translate(84.960938 0)"/>
      </g>
     </g>
    </g>
    <g id="ytick_5">
     <g id="line2d_27">
      <path d="M 28.9375 59.88375 
L 475.3375 59.88375 
" clip-path="url(#p5ae73422d8)" style="fill: none; stroke-dasharray: 2.96,1.28; stroke-dashoffset: 0; stroke: #b0b0b0; stroke-opacity: 0.5; stroke-width: 0.8"/>
     </g>
     <g id="line2d_28">
      <g>
       <use xlink:href="#ma0006a2ad5" x="28.9375" y="59.88375" style="stroke: #000000; stroke-width: 0.8"/>
      </g>
     </g>
     <g id="text_14">
      <!-- 0.8 -->
      <g transform="translate(7.376562 63.418906) scale(0.1 -0.1)">
       <defs>
        <path id="Pretendard-Regular-38" d="M 1938 -63 
C 2881 -63 3544 463 3550 1200 
C 3544 1788 3138 2269 2625 2350 
L 2625 2375 
C 3069 2481 3369 2894 3375 3388 
C 3369 4081 2763 4588 1938 4588 
C 1113 4588 506 4081 506 3388 
C 506 2894 800 2481 1250 2375 
L 1250 2350 
C 731 2269 325 1788 331 1200 
C 325 463 988 -63 1938 -63 
z
M 1938 431 
C 1288 431 881 756 894 1231 
C 881 1731 1331 2100 1938 2100 
C 2544 2100 2988 1731 2988 1231 
C 2988 756 2588 431 1938 431 
z
M 1938 2575 
C 1419 2575 1050 2888 1050 3344 
C 1050 3794 1400 4100 1938 4100 
C 2469 4100 2825 3794 2825 3344 
C 2825 2888 2450 2575 1938 2575 
z
" transform="scale(0.015625)"/>
       </defs>
       <use xlink:href="#Pretendard-Regular-30"/>
       <use xlink:href="#Pretendard-Regular-2e" transform="translate(59.570312 0)"/>
       <use xlink:href="#Pretendard-Regular-38" transform="translate(84.960938 0)"/>
      </g>
     </g>
    </g>
    <g id="ytick_6">
     <g id="line2d_29">
      <path d="M 28.9375 29.64375 
L 475.3375 29.64375 
" clip-path="url(#p5ae73422d8)" style="fill: none; stroke-dasharray: 2.96,1.28; stroke-dashoffset: 0; stroke: #b0b0b0; stroke-opacity: 0.5; stroke-width: 0.8"/>
     </g>
     <g id="line2d_30">
      <g>
       <use xlink:href="#ma0006a2ad5" x="28.9375" y="29.64375" style="stroke: #000000; stroke-width: 0.8"/>
      </g>
     </g>
     <g id="text_15">
      <!-- 1.0 -->
      <g transform="translate(9.05625 33.178906) scale(0.1 -0.1)">
       <use xlink:href="#Pretendard-Regular-31"/>
       <use xlink:href="#Pretendard-Regular-2e" transform="translate(43.847656 0)"/>
       <use xlink:href="#Pretendard-Regular-30" transform="translate(69.238281 0)"/>
      </g>
     </g>
    </g>
   </g>
   <g id="line2d_31">
    <path d="M 49.228409 180.84375 
L 251.730869 180.84375 
L 252.544131 29.64375 
L 353.38873 29.64375 
L 354.201993 180.84375 
L 455.046591 180.84375 
L 455.046591 180.84375 
" clip-path="url(#p5ae73422d8)" style="fill: none; stroke: #1f77b4; stroke-opacity: 0.7; stroke-width: 1.5; stroke-linecap: square"/>
   </g>
   <g id="line2d_32">
    <path d="M 49.228409 180.84375 
L 251.730869 180.84375 
L 252.544131 30.248549 
L 257.423709 37.320182 
L 263.116549 45.151829 
L 268.809389 52.556126 
L 274.502229 59.556393 
L 280.19507 66.174677 
L 285.88791 72.431821 
L 291.58075 78.347531 
L 297.27359 83.940439 
L 302.966431 89.228159 
L 308.659271 94.227345 
L 314.352111 98.95374 
L 320.044951 103.422229 
L 326.551054 108.23129 
L 333.057157 112.741635 
L 339.563261 116.971818 
L 346.069364 120.939242 
L 352.575467 124.660228 
L 359.894833 128.57079 
L 367.214199 132.209164 
L 374.533565 135.594294 
L 381.852931 138.743809 
L 389.98556 141.986836 
L 398.118189 144.980048 
L 406.250818 147.742687 
L 415.196709 150.536437 
L 424.142601 153.094393 
L 433.901756 155.639307 
L 443.66091 157.950825 
L 454.233328 160.216366 
L 455.046591 160.381055 
L 455.046591 160.381055 
" clip-path="url(#p5ae73422d8)" style="fill: none; stroke: #ff7f0e; stroke-opacity: 0.7; stroke-width: 1.5; stroke-linecap: square"/>
   </g>
   <g id="patch_3">
    <path d="M 28.9375 188.40375 
L 28.9375 22.08375 
" style="fill: none; stroke: #000000; stroke-width: 0.8; stroke-linejoin: miter; stroke-linecap: square"/>
   </g>
   <g id="patch_4">
    <path d="M 475.3375 188.40375 
L 475.3375 22.08375 
" style="fill: none; stroke: #000000; stroke-width: 0.8; stroke-linejoin: miter; stroke-linecap: square"/>
   </g>
   <g id="patch_5">
    <path d="M 28.9375 188.40375 
L 475.3375 188.40375 
" style="fill: none; stroke: #000000; stroke-width: 0.8; stroke-linejoin: miter; stroke-linecap: square"/>
   </g>
   <g id="patch_6">
    <path d="M 28.9375 22.08375 
L 475.3375 22.08375 
" style="fill: none; stroke: #000000; stroke-width: 0.8; stroke-linejoin: miter; stroke-linecap: square"/>
   </g>
   <g id="text_16">
    <!-- Concept of Signal Correlation -->
    <g transform="translate(173.313437 16.08375) scale(0.12 -0.12)">
     <defs>
      <path id="Pretendard-Regular-43" d="M 3588 3100 
L 4150 3100 
C 3981 4038 3238 4588 2325 4588 
C 1163 4588 325 3694 325 2263 
C 325 831 1163 -63 2325 -63 
C 3244 -63 3988 494 4150 1419 
L 3588 1419 
C 3450 800 2919 463 2325 463 
C 1506 463 869 1094 869 2263 
C 869 3431 1506 4063 2325 4063 
C 2919 4063 3456 3725 3588 3100 
z
" transform="scale(0.015625)"/>
      <path id="Pretendard-Regular-6f" d="M 1819 -69 
C 2738 -69 3356 625 3356 1681 
C 3356 2738 2738 3438 1819 3438 
C 894 3438 269 2738 269 1681 
C 269 625 894 -69 1819 -69 
z
M 1819 406 
C 1125 406 806 1006 806 1681 
C 806 2356 1125 2963 1819 2963 
C 2500 2963 2819 2356 2819 1681 
C 2819 1006 2500 406 1819 406 
z
" transform="scale(0.015625)"/>
      <path id="Pretendard-Regular-6e" d="M 969 2038 
C 969 2625 1331 2956 1825 2956 
C 2306 2956 2594 2644 2594 2119 
L 2594 0 
L 3131 0 
L 3131 2156 
C 3131 3019 2675 3438 1988 3438 
C 1469 3438 1156 3206 994 2863 
L 950 2863 
L 950 3394 
L 431 3394 
L 431 0 
L 969 0 
L 969 2038 
z
" transform="scale(0.015625)"/>
      <path id="Pretendard-Regular-63" d="M 1819 -69 
C 2575 -69 3069 394 3156 1000 
L 2619 1000 
C 2525 625 2219 413 1819 413 
C 1200 413 806 913 806 1700 
C 806 2463 1213 2963 1819 2963 
C 2269 2963 2544 2681 2619 2369 
L 3156 2369 
C 3069 3013 2531 3438 1806 3438 
C 881 3438 269 2713 269 1681 
C 269 663 856 -69 1819 -69 
z
" transform="scale(0.015625)"/>
      <path id="Pretendard-Regular-65" d="M 1856 -69 
C 2556 -69 3056 281 3219 794 
L 2644 794 
C 2519 581 2263 406 1856 406 
C 1250 406 831 800 806 1519 
L 3269 1519 
L 3269 1744 
C 3269 3000 2519 3438 1806 3438 
C 881 3438 269 2713 269 1669 
C 269 625 875 -69 1856 -69 
z
M 813 1975 
C 844 2500 1219 2963 1806 2963 
C 2363 2963 2725 2544 2725 1975 
L 813 1975 
z
" transform="scale(0.015625)"/>
      <path id="Pretendard-Regular-70" d="M 431 -1275 
L 969 -1275 
L 969 519 
L 1013 519 
C 1125 331 1350 -69 2000 -69 
C 2844 -69 3438 613 3438 1688 
C 3438 2763 2844 3438 1994 3438 
C 1338 3438 1125 3038 1013 2856 
L 950 2856 
L 950 3394 
L 431 3394 
L 431 -1275 
z
M 956 1700 
C 956 2450 1288 2956 1925 2956 
C 2575 2956 2900 2406 2900 1700 
C 2900 975 2569 413 1925 413 
C 1300 413 956 938 956 1700 
z
" transform="scale(0.015625)"/>
      <path id="Pretendard-Regular-74" d="M 1913 3394 
L 1200 3394 
L 1200 4206 
L 656 4206 
L 656 3394 
L 144 3394 
L 144 2944 
L 656 2944 
L 656 838 
C 656 238 1138 -44 1588 -44 
C 1744 -44 1881 -31 1963 -19 
L 1963 481 
C 1881 475 1744 469 1644 469 
C 1413 469 1200 538 1200 975 
L 1200 2944 
L 1913 2944 
L 1913 3394 
z
" transform="scale(0.015625)"/>
      <path id="Pretendard-Regular-20" transform="scale(0.015625)"/>
      <path id="Pretendard-Regular-66" d="M 1950 3394 
L 1200 3394 
L 1200 3738 
C 1200 4088 1369 4244 1744 4244 
C 1813 4244 1913 4238 2025 4219 
L 2025 4700 
C 1913 4719 1756 4738 1625 4738 
C 1025 4738 656 4406 656 3856 
L 656 3394 
L 113 3394 
L 113 2944 
L 656 2944 
L 656 0 
L 1200 0 
L 1200 2944 
L 1950 2944 
L 1950 3394 
z
" transform="scale(0.015625)"/>
      <path id="Pretendard-Regular-53" d="M 2969 3388 
L 3519 3388 
C 3494 4075 2863 4588 1988 4588 
C 1113 4588 431 4081 431 3319 
C 431 2706 869 2344 1581 2138 
L 2138 1988 
C 2613 1850 3031 1681 3031 1244 
C 3031 750 2563 431 1938 431 
C 1400 431 931 669 881 1175 
L 306 1175 
C 356 425 963 -81 1938 -81 
C 2988 -81 3581 494 3581 1231 
C 3581 2075 2788 2356 2300 2481 
L 1850 2606 
C 1506 2694 975 2869 975 3344 
C 975 3775 1369 4088 1969 4088 
C 2513 4088 2919 3831 2969 3388 
z
" transform="scale(0.015625)"/>
      <path id="Pretendard-Regular-69" d="M 431 0 
L 969 0 
L 969 3394 
L 431 3394 
L 431 0 
z
M 700 3956 
C 906 3956 1081 4113 1081 4313 
C 1081 4513 906 4669 700 4669 
C 494 4669 325 4513 325 4313 
C 325 4113 494 3956 700 3956 
z
" transform="scale(0.015625)"/>
      <path id="Pretendard-Regular-67" d="M 1806 -1344 
C 2631 -1344 3281 -969 3281 -94 
L 3281 3394 
L 2756 3394 
L 2756 2856 
L 2713 2856 
C 2588 3038 2375 3438 1719 3438 
C 869 3438 269 2788 269 1744 
C 269 675 888 50 1713 50 
C 2369 50 2588 438 2700 625 
L 2744 625 
L 2744 -63 
C 2744 -625 2388 -875 1806 -875 
C 1325 -875 1006 -700 931 -356 
L 369 -356 
C 431 -988 988 -1344 1806 -1344 
z
M 1788 531 
C 1144 531 813 1019 813 1725 
C 813 2406 1138 2956 1788 2956 
C 2419 2956 2756 2450 2756 1725 
C 2756 975 2406 531 1788 531 
z
" transform="scale(0.015625)"/>
      <path id="Pretendard-Regular-61" d="M 269 963 
C 269 300 781 -81 1425 -81 
C 2013 -81 2325 231 2438 463 
L 2463 463 
L 2463 0 
L 2994 0 
L 2994 2238 
C 2994 3306 2163 3438 1719 3438 
C 969 3438 438 3056 369 2513 
L 931 2513 
C 1006 2769 1263 2969 1694 2969 
C 2206 2969 2463 2719 2463 2288 
L 2463 2013 
C 2309 2006 1759 1978 1544 1963 
C 956 1919 269 1744 269 963 
z
M 806 938 
C 806 1306 1119 1481 1606 1513 
L 2463 1575 
L 2463 1231 
C 2463 806 2125 400 1519 400 
C 1106 400 806 581 806 938 
z
" transform="scale(0.015625)"/>
      <path id="Pretendard-Regular-6c" d="M 969 4525 
L 431 4525 
L 431 0 
L 969 0 
L 969 4525 
z
" transform="scale(0.015625)"/>
      <path id="Pretendard-Regular-72" d="M 431 0 
L 969 0 
L 969 2138 
C 969 2594 1331 2931 1819 2931 
C 1956 2931 2106 2906 2144 2894 
L 2144 3438 
C 2081 3444 1944 3450 1863 3450 
C 1463 3450 1113 3219 988 2875 
L 950 2875 
L 950 3394 
L 431 3394 
L 431 0 
z
" transform="scale(0.015625)"/>
     </defs>
     <use xlink:href="#Pretendard-Regular-43"/>
     <use xlink:href="#Pretendard-Regular-6f" transform="translate(69.335938 0)"/>
     <use xlink:href="#Pretendard-Regular-6e" transform="translate(126.074219 0)"/>
     <use xlink:href="#Pretendard-Regular-63" transform="translate(181.738281 0)"/>
     <use xlink:href="#Pretendard-Regular-65" transform="translate(234.667969 0)"/>
     <use xlink:href="#Pretendard-Regular-70" transform="translate(289.941406 0)"/>
     <use xlink:href="#Pretendard-Regular-74" transform="translate(347.851562 0)"/>
     <use xlink:href="#Pretendard-Regular-20" transform="translate(381.835938 0)"/>
     <use xlink:href="#Pretendard-Regular-6f" transform="translate(406.933594 0)"/>
     <use xlink:href="#Pretendard-Regular-66" transform="translate(463.671875 0)"/>
     <use xlink:href="#Pretendard-Regular-20" transform="translate(497.363281 0)"/>
     <use xlink:href="#Pretendard-Regular-53" transform="translate(522.460938 0)"/>
     <use xlink:href="#Pretendard-Regular-69" transform="translate(583.203125 0)"/>
     <use xlink:href="#Pretendard-Regular-67" transform="translate(604.980469 0)"/>
     <use xlink:href="#Pretendard-Regular-6e" transform="translate(662.890625 0)"/>
     <use xlink:href="#Pretendard-Regular-61" transform="translate(718.554688 0)"/>
     <use xlink:href="#Pretendard-Regular-6c" transform="translate(772.070312 0)"/>
     <use xlink:href="#Pretendard-Regular-20" transform="translate(793.847656 0)"/>
     <use xlink:href="#Pretendard-Regular-43" transform="translate(818.945312 0)"/>
     <use xlink:href="#Pretendard-Regular-6f" transform="translate(888.28125 0)"/>
     <use xlink:href="#Pretendard-Regular-72" transform="translate(945.019531 0)"/>
     <use xlink:href="#Pretendard-Regular-72" transform="translate(979.980469 0)"/>
     <use xlink:href="#Pretendard-Regular-65" transform="translate(1014.941406 0)"/>
     <use xlink:href="#Pretendard-Regular-6c" transform="translate(1070.214844 0)"/>
     <use xlink:href="#Pretendard-Regular-61" transform="translate(1091.992188 0)"/>
     <use xlink:href="#Pretendard-Regular-74" transform="translate(1145.507812 0)"/>
     <use xlink:href="#Pretendard-Regular-69" transform="translate(1179.492188 0)"/>
     <use xlink:href="#Pretendard-Regular-6f" transform="translate(1201.269531 0)"/>
     <use xlink:href="#Pretendard-Regular-6e" transform="translate(1258.007812 0)"/>
    </g>
   </g>
   <g id="legend_1">
    <g id="patch_7">
     <path d="M 363.520312 72.8775 
L 468.3375 72.8775 
Q 470.3375 72.8775 470.3375 70.8775 
L 470.3375 29.08375 
Q 470.3375 27.08375 468.3375 27.08375 
L 363.520312 27.08375 
Q 361.520312 27.08375 361.520312 29.08375 
L 361.520312 70.8775 
Q 361.520312 72.8775 363.520312 72.8775 
z
" style="fill: #ffffff; opacity: 0.8; stroke: #cccccc; stroke-linejoin: miter"/>
    </g>
    <g id="line2d_33">
     <path d="M 365.520312 34.957188 
L 375.520312 34.957188 
L 385.520312 34.957188 
" style="fill: none; stroke: #1f77b4; stroke-opacity: 0.7; stroke-width: 1.5; stroke-linecap: square"/>
    </g>
    <g id="text_17">
     <!-- x(t): Rect -->
     <g transform="translate(393.520312 38.457188) scale(0.1 -0.1)">
      <defs>
       <path id="Pretendard-Regular-78" d="M 838 3394 
L 219 3394 
L 1288 1700 
L 219 0 
L 838 0 
L 1638 1313 
L 2450 0 
L 3063 0 
L 1969 1700 
L 3063 3394 
L 2444 3394 
L 1638 2013 
L 838 3394 
z
" transform="scale(0.015625)"/>
       <path id="Pretendard-Regular-28" d="M 569 1725 
C 575 544 894 -438 1469 -1275 
L 1944 -1275 
C 1519 -656 1125 613 1125 1725 
C 1125 2838 1519 4100 1944 4719 
L 1469 4719 
C 894 3888 575 2906 569 1725 
z
" transform="scale(0.015625)"/>
       <path id="Pretendard-Regular-29" d="M 1613 1725 
C 1606 2906 1288 3888 713 4719 
L 238 4719 
C 663 4100 1056 2838 1056 1725 
C 1056 613 663 -656 238 -1275 
L 713 -1275 
C 1288 -438 1606 544 1613 1725 
z
" transform="scale(0.015625)"/>
       <path id="Pretendard-Regular-3a" d="M 813 -38 
C 1031 -38 1213 144 1213 369 
C 1213 588 1031 769 813 769 
C 594 769 406 588 413 369 
C 406 144 594 -38 813 -38 
z
M 813 2475 
C 1031 2475 1213 2656 1213 2881 
C 1213 3100 1031 3281 813 3281 
C 594 3281 406 3100 413 2881 
C 406 2656 594 2475 813 2475 
z
" transform="scale(0.015625)"/>
       <path id="Pretendard-Regular-52" d="M 500 0 
L 1063 0 
L 1063 1756 
L 2044 1756 
L 2156 1763 
L 3100 0 
L 3756 0 
L 2738 1863 
C 3313 2063 3581 2534 3581 3131 
C 3581 3938 3100 4525 2038 4525 
L 500 4525 
L 500 0 
z
M 1063 2269 
L 1063 4025 
L 2013 4025 
C 2738 4025 3025 3675 3025 3131 
C 3025 2594 2738 2269 2019 2269 
L 1063 2269 
z
" transform="scale(0.015625)"/>
      </defs>
      <use xlink:href="#Pretendard-Regular-78"/>
      <use xlink:href="#Pretendard-Regular-28" transform="translate(51.269531 0)"/>
      <use xlink:href="#Pretendard-Regular-74" transform="translate(85.351562 0)"/>
      <use xlink:href="#Pretendard-Regular-29" transform="translate(119.335938 0)"/>
      <use xlink:href="#Pretendard-Regular-3a" transform="translate(153.417969 0)"/>
      <use xlink:href="#Pretendard-Regular-20" transform="translate(178.808594 0)"/>
      <use xlink:href="#Pretendard-Regular-52" transform="translate(203.90625 0)"/>
      <use xlink:href="#Pretendard-Regular-65" transform="translate(264.746094 0)"/>
      <use xlink:href="#Pretendard-Regular-63" transform="translate(320.019531 0)"/>
      <use xlink:href="#Pretendard-Regular-74" transform="translate(372.949219 0)"/>
     </g>
    </g>
    <g id="line2d_34">
     <path d="M 365.520312 49.322812 
L 375.520312 49.322812 
L 385.520312 49.322812 
" style="fill: none; stroke: #ff7f0e; stroke-opacity: 0.7; stroke-width: 1.5; stroke-linecap: square"/>
    </g>
    <g id="text_18">
     <!-- y(t): Exp Decay -->
     <g transform="translate(393.520312 52.822812) scale(0.1 -0.1)">
      <defs>
       <path id="Pretendard-Regular-79" d="M 775 -1275 
C 1256 -1275 1588 -1019 1788 -488 
L 3225 3394 
L 2638 3394 
L 1713 700 
L 1675 700 
L 750 3394 
L 163 3394 
L 1419 -25 
L 1319 -281 
C 1138 -775 956 -794 738 -794 
C 656 -794 531 -788 475 -781 
L 475 -1263 
C 544 -1269 656 -1275 775 -1275 
z
" transform="scale(0.015625)"/>
       <path id="Pretendard-Regular-45" d="M 500 0 
L 3275 0 
L 3275 500 
L 1063 500 
L 1063 2019 
L 3100 2019 
L 3100 2513 
L 1063 2513 
L 1063 4025 
L 3244 4025 
L 3244 4525 
L 500 4525 
L 500 0 
z
" transform="scale(0.015625)"/>
       <path id="Pretendard-Regular-44" d="M 1906 0 
C 3281 0 4063 856 4063 2269 
C 4063 3675 3281 4525 1963 4525 
L 500 4525 
L 500 0 
L 1906 0 
z
M 1063 500 
L 1063 4025 
L 1925 4025 
C 2981 4025 3513 3363 3513 2269 
C 3513 1169 2981 500 1869 500 
L 1063 500 
z
" transform="scale(0.015625)"/>
      </defs>
      <use xlink:href="#Pretendard-Regular-79"/>
      <use xlink:href="#Pretendard-Regular-28" transform="translate(52.929688 0)"/>
      <use xlink:href="#Pretendard-Regular-74" transform="translate(87.011719 0)"/>
      <use xlink:href="#Pretendard-Regular-29" transform="translate(120.996094 0)"/>
      <use xlink:href="#Pretendard-Regular-3a" transform="translate(155.078125 0)"/>
      <use xlink:href="#Pretendard-Regular-20" transform="translate(180.46875 0)"/>
      <use xlink:href="#Pretendard-Regular-45" transform="translate(205.566406 0)"/>
      <use xlink:href="#Pretendard-Regular-78" transform="translate(262.304688 0)"/>
      <use xlink:href="#Pretendard-Regular-70" transform="translate(313.574219 0)"/>
      <use xlink:href="#Pretendard-Regular-20" transform="translate(371.484375 0)"/>
      <use xlink:href="#Pretendard-Regular-44" transform="translate(396.582031 0)"/>
      <use xlink:href="#Pretendard-Regular-65" transform="translate(465.136719 0)"/>
      <use xlink:href="#Pretendard-Regular-63" transform="translate(520.410156 0)"/>
      <use xlink:href="#Pretendard-Regular-61" transform="translate(573.339844 0)"/>
      <use xlink:href="#Pretendard-Regular-79" transform="translate(626.855469 0)"/>
     </g>
    </g>
    <g id="patch_8">
     <path d="M 365.520312 66.885312 
L 385.520312 66.885312 
L 385.520312 59.885312 
L 365.520312 59.885312 
z
" style="fill: #800080; fill-opacity: 0.3; stroke: #800080; stroke-opacity: 0.3; stroke-linejoin: miter"/>
    </g>
    <g id="text_19">
     <!-- Correlation Area -->
     <g transform="translate(393.520312 66.885312) scale(0.1 -0.1)">
      <defs>
       <path id="Pretendard-Regular-41" d="M 700 0 
L 1156 1275 
L 2975 1275 
L 3425 0 
L 4019 0 
L 2363 4525 
L 1769 4525 
L 113 0 
L 700 0 
z
M 1325 1769 
L 2044 3794 
L 2081 3794 
L 2800 1769 
L 1325 1769 
z
" transform="scale(0.015625)"/>
      </defs>
      <use xlink:href="#Pretendard-Regular-43"/>
      <use xlink:href="#Pretendard-Regular-6f" transform="translate(69.335938 0)"/>
      <use xlink:href="#Pretendard-Regular-72" transform="translate(126.074219 0)"/>
      <use xlink:href="#Pretendard-Regular-72" transform="translate(161.035156 0)"/>
      <use xlink:href="#Pretendard-Regular-65" transform="translate(195.996094 0)"/>
      <use xlink:href="#Pretendard-Regular-6c" transform="translate(251.269531 0)"/>
      <use xlink:href="#Pretendard-Regular-61" transform="translate(273.046875 0)"/>
      <use xlink:href="#Pretendard-Regular-74" transform="translate(326.5625 0)"/>
      <use xlink:href="#Pretendard-Regular-69" transform="translate(360.546875 0)"/>
      <use xlink:href="#Pretendard-Regular-6f" transform="translate(382.324219 0)"/>
      <use xlink:href="#Pretendard-Regular-6e" transform="translate(439.0625 0)"/>
      <use xlink:href="#Pretendard-Regular-20" transform="translate(494.726562 0)"/>
      <use xlink:href="#Pretendard-Regular-41" transform="translate(519.824219 0)"/>
      <use xlink:href="#Pretendard-Regular-72" transform="translate(584.375 0)"/>
      <use xlink:href="#Pretendard-Regular-65" transform="translate(619.335938 0)"/>
      <use xlink:href="#Pretendard-Regular-61" transform="translate(674.609375 0)"/>
     </g>
    </g>
   </g>
  </g>
 </g>
 <defs>
  <clipPath id="p5ae73422d8">
   <rect x="28.9375" y="22.08375" width="446.4" height="166.32"/>
  </clipPath>
 </defs>
</svg>
