<?xml version="1.0" encoding="utf-8" standalone="no"?>
<!DOCTYPE svg PUBLIC "-//W3C//DTD SVG 1.1//EN"
  "http://www.w3.org/Graphics/SVG/1.1/DTD/svg11.dtd">
<svg xmlns:xlink="http://www.w3.org/1999/xlink" width="352.209531pt" height="335.5125pt" viewBox="0 0 352.209531 335.5125" xmlns="http://www.w3.org/2000/svg" version="1.1">
 <metadata>
  <rdf:RDF xmlns:dc="http://purl.org/dc/elements/1.1/" xmlns:cc="http://creativecommons.org/ns#" xmlns:rdf="http://www.w3.org/1999/02/22-rdf-syntax-ns#">
   <cc:Work>
    <dc:type rdf:resource="http://purl.org/dc/dcmitype/StillImage"/>
    <dc:date>2026-01-16T10:18:36.744884</dc:date>
    <dc:format>image/svg+xml</dc:format>
    <dc:creator>
     <cc:Agent>
      <dc:title>Matplotlib v3.10.8, https://matplotlib.org/</dc:title>
     </cc:Agent>
    </dc:creator>
   </cc:Work>
  </rdf:RDF>
 </metadata>
 <defs>
  <style type="text/css">*{stroke-linejoin: round; stroke-linecap: butt}</style>
 </defs>
 <g id="figure_1">
  <g id="patch_1">
   <path d="M 0 335.5125 
L 352.209531 335.5125 
L 352.209531 0 
L 0 0 
z
" style="fill: #ffffff"/>
  </g>
  <g id="axes_1">
   <g id="patch_2">
    <path d="M 52.314063 298.884375 
L 329.514062 298.884375 
L 329.514062 21.684375 
L 52.314063 21.684375 
z
" style="fill: #ffffff"/>
   </g>
   <g id="matplotlib.axis_1">
    <g id="xtick_1">
     <g id="line2d_1">
      <path d="M 64.914062 298.884375 
L 64.914062 21.684375 
" clip-path="url(#p1b3d0d4746)" style="fill: none; stroke-dasharray: 2.96,1.28; stroke-dashoffset: 0; stroke: #b0b0b0; stroke-opacity: 0.5; stroke-width: 0.8"/>
     </g>
     <g id="line2d_2">
      <defs>
       <path id="m74aa1f3ada" d="M 0 0 
L 0 3.5 
" style="stroke: #000000; stroke-width: 0.8"/>
      </defs>
      <g>
       <use xlink:href="#m74aa1f3ada" x="64.914062" y="298.884375" style="stroke: #000000; stroke-width: 0.8"/>
      </g>
     </g>
     <g id="text_1">
      <!-- -1.00 -->
      <g transform="translate(53.33125 312.954688) scale(0.1 -0.1)">
       <defs>
        <path id="Pretendard-Regular-2d" d="M 2375 2181 
L 394 2181 
L 394 1688 
L 2375 1688 
L 2375 2181 
z
" transform="scale(0.015625)"/>
        <path id="Pretendard-Regular-31" d="M 2025 4525 
L 1456 4525 
L 331 3775 
L 331 3206 
L 1431 3938 
L 1456 3938 
L 1456 0 
L 2025 0 
L 2025 4525 
z
" transform="scale(0.015625)"/>
        <path id="Pretendard-Regular-2e" d="M 813 -38 
C 1031 -38 1213 144 1213 369 
C 1213 588 1031 769 813 769 
C 594 769 406 588 413 369 
C 406 144 594 -38 813 -38 
z
" transform="scale(0.015625)"/>
        <path id="Pretendard-Regular-30" d="M 1906 -63 
C 2906 -63 3488 781 3488 2263 
C 3488 3731 2900 4588 1906 4588 
C 913 4588 325 3731 325 2263 
C 325 781 900 -63 1906 -63 
z
M 1906 438 
C 1250 438 869 1094 869 2263 
C 869 3431 1256 4100 1906 4100 
C 2556 4100 2938 3431 2938 2263 
C 2938 1094 2556 438 1906 438 
z
" transform="scale(0.015625)"/>
       </defs>
       <use xlink:href="#Pretendard-Regular-2d"/>
       <use xlink:href="#Pretendard-Regular-31" transform="translate(43.261719 0)"/>
       <use xlink:href="#Pretendard-Regular-2e" transform="translate(87.109375 0)"/>
       <use xlink:href="#Pretendard-Regular-30" transform="translate(112.5 0)"/>
       <use xlink:href="#Pretendard-Regular-30" transform="translate(172.070312 0)"/>
      </g>
     </g>
    </g>
    <g id="xtick_2">
     <g id="line2d_3">
      <path d="M 96.414062 298.884375 
L 96.414062 21.684375 
" clip-path="url(#p1b3d0d4746)" style="fill: none; stroke-dasharray: 2.96,1.28; stroke-dashoffset: 0; stroke: #b0b0b0; stroke-opacity: 0.5; stroke-width: 0.8"/>
     </g>
     <g id="line2d_4">
      <g>
       <use xlink:href="#m74aa1f3ada" x="96.414062" y="298.884375" style="stroke: #000000; stroke-width: 0.8"/>
      </g>
     </g>
     <g id="text_2">
      <!-- -0.75 -->
      <g transform="translate(84.260156 312.954688) scale(0.1 -0.1)">
       <defs>
        <path id="Pretendard-Regular-37" d="M 569 0 
L 1156 0 
L 3225 4000 
L 3225 4525 
L 250 4525 
L 250 4025 
L 2644 4025 
L 2644 3994 
L 569 0 
z
" transform="scale(0.015625)"/>
        <path id="Pretendard-Regular-35" d="M 1900 -63 
C 2800 -63 3463 569 3463 1444 
C 3463 2325 2825 2963 1963 2963 
C 1644 2963 1338 2856 1138 2700 
L 1094 2700 
L 1263 4025 
L 3244 4025 
L 3244 4525 
L 794 4525 
L 475 2050 
L 1019 2050 
C 1188 2344 1481 2463 1863 2456 
C 2469 2450 2913 2019 2913 1431 
C 2913 863 2488 431 1900 431 
C 1413 431 1019 731 975 1138 
L 431 1138 
C 463 444 1081 -63 1900 -63 
z
" transform="scale(0.015625)"/>
       </defs>
       <use xlink:href="#Pretendard-Regular-2d"/>
       <use xlink:href="#Pretendard-Regular-30" transform="translate(43.261719 0)"/>
       <use xlink:href="#Pretendard-Regular-2e" transform="translate(102.832031 0)"/>
       <use xlink:href="#Pretendard-Regular-37" transform="translate(128.222656 0)"/>
       <use xlink:href="#Pretendard-Regular-35" transform="translate(183.398438 0)"/>
      </g>
     </g>
    </g>
    <g id="xtick_3">
     <g id="line2d_5">
      <path d="M 127.914062 298.884375 
L 127.914062 21.684375 
" clip-path="url(#p1b3d0d4746)" style="fill: none; stroke-dasharray: 2.96,1.28; stroke-dashoffset: 0; stroke: #b0b0b0; stroke-opacity: 0.5; stroke-width: 0.8"/>
     </g>
     <g id="line2d_6">
      <g>
       <use xlink:href="#m74aa1f3ada" x="127.914062" y="298.884375" style="stroke: #000000; stroke-width: 0.8"/>
      </g>
     </g>
     <g id="text_3">
      <!-- -0.50 -->
      <g transform="translate(115.539844 312.954688) scale(0.1 -0.1)">
       <use xlink:href="#Pretendard-Regular-2d"/>
       <use xlink:href="#Pretendard-Regular-30" transform="translate(43.261719 0)"/>
       <use xlink:href="#Pretendard-Regular-2e" transform="translate(102.832031 0)"/>
       <use xlink:href="#Pretendard-Regular-35" transform="translate(128.222656 0)"/>
       <use xlink:href="#Pretendard-Regular-30" transform="translate(187.890625 0)"/>
      </g>
     </g>
    </g>
    <g id="xtick_4">
     <g id="line2d_7">
      <path d="M 159.414062 298.884375 
L 159.414062 21.684375 
" clip-path="url(#p1b3d0d4746)" style="fill: none; stroke-dasharray: 2.96,1.28; stroke-dashoffset: 0; stroke: #b0b0b0; stroke-opacity: 0.5; stroke-width: 0.8"/>
     </g>
     <g id="line2d_8">
      <g>
       <use xlink:href="#m74aa1f3ada" x="159.414062" y="298.884375" style="stroke: #000000; stroke-width: 0.8"/>
      </g>
     </g>
     <g id="text_4">
      <!-- -0.25 -->
      <g transform="translate(147.084375 312.954688) scale(0.1 -0.1)">
       <defs>
        <path id="Pretendard-Regular-32" d="M 425 0 
L 3363 0 
L 3363 500 
L 1206 500 
L 1206 538 
L 2244 1606 
C 3044 2431 3281 2825 3281 3331 
C 3281 4038 2694 4588 1875 4588 
C 1056 4588 438 4050 444 3250 
L 975 3250 
C 975 3756 1319 4100 1856 4100 
C 2363 4100 2756 3794 2756 3331 
C 2756 2913 2500 2606 1963 2038 
L 419 413 
L 425 0 
z
" transform="scale(0.015625)"/>
       </defs>
       <use xlink:href="#Pretendard-Regular-2d"/>
       <use xlink:href="#Pretendard-Regular-30" transform="translate(43.261719 0)"/>
       <use xlink:href="#Pretendard-Regular-2e" transform="translate(102.832031 0)"/>
       <use xlink:href="#Pretendard-Regular-32" transform="translate(128.222656 0)"/>
       <use xlink:href="#Pretendard-Regular-35" transform="translate(186.914062 0)"/>
      </g>
     </g>
    </g>
    <g id="xtick_5">
     <g id="line2d_9">
      <path d="M 190.914062 298.884375 
L 190.914062 21.684375 
" clip-path="url(#p1b3d0d4746)" style="fill: none; stroke-dasharray: 2.96,1.28; stroke-dashoffset: 0; stroke: #b0b0b0; stroke-opacity: 0.5; stroke-width: 0.8"/>
     </g>
     <g id="line2d_10">
      <g>
       <use xlink:href="#m74aa1f3ada" x="190.914062" y="298.884375" style="stroke: #000000; stroke-width: 0.8"/>
      </g>
     </g>
     <g id="text_5">
      <!-- 0.00 -->
      <g transform="translate(180.707812 312.954688) scale(0.1 -0.1)">
       <use xlink:href="#Pretendard-Regular-30"/>
       <use xlink:href="#Pretendard-Regular-2e" transform="translate(59.570312 0)"/>
       <use xlink:href="#Pretendard-Regular-30" transform="translate(84.960938 0)"/>
       <use xlink:href="#Pretendard-Regular-30" transform="translate(144.53125 0)"/>
      </g>
     </g>
    </g>
    <g id="xtick_6">
     <g id="line2d_11">
      <path d="M 222.414062 298.884375 
L 222.414062 21.684375 
" clip-path="url(#p1b3d0d4746)" style="fill: none; stroke-dasharray: 2.96,1.28; stroke-dashoffset: 0; stroke: #b0b0b0; stroke-opacity: 0.5; stroke-width: 0.8"/>
     </g>
     <g id="line2d_12">
      <g>
       <use xlink:href="#m74aa1f3ada" x="222.414062" y="298.884375" style="stroke: #000000; stroke-width: 0.8"/>
      </g>
     </g>
     <g id="text_6">
      <!-- 0.25 -->
      <g transform="translate(212.247656 312.954688) scale(0.1 -0.1)">
       <use xlink:href="#Pretendard-Regular-30"/>
       <use xlink:href="#Pretendard-Regular-2e" transform="translate(59.570312 0)"/>
       <use xlink:href="#Pretendard-Regular-32" transform="translate(84.960938 0)"/>
       <use xlink:href="#Pretendard-Regular-35" transform="translate(143.652344 0)"/>
      </g>
     </g>
    </g>
    <g id="xtick_7">
     <g id="line2d_13">
      <path d="M 253.914062 298.884375 
L 253.914062 21.684375 
" clip-path="url(#p1b3d0d4746)" style="fill: none; stroke-dasharray: 2.96,1.28; stroke-dashoffset: 0; stroke: #b0b0b0; stroke-opacity: 0.5; stroke-width: 0.8"/>
     </g>
     <g id="line2d_14">
      <g>
       <use xlink:href="#m74aa1f3ada" x="253.914062" y="298.884375" style="stroke: #000000; stroke-width: 0.8"/>
      </g>
     </g>
     <g id="text_7">
      <!-- 0.50 -->
      <g transform="translate(243.703125 312.954688) scale(0.1 -0.1)">
       <use xlink:href="#Pretendard-Regular-30"/>
       <use xlink:href="#Pretendard-Regular-2e" transform="translate(59.570312 0)"/>
       <use xlink:href="#Pretendard-Regular-35" transform="translate(84.960938 0)"/>
       <use xlink:href="#Pretendard-Regular-30" transform="translate(144.628906 0)"/>
      </g>
     </g>
    </g>
    <g id="xtick_8">
     <g id="line2d_15">
      <path d="M 285.414062 298.884375 
L 285.414062 21.684375 
" clip-path="url(#p1b3d0d4746)" style="fill: none; stroke-dasharray: 2.96,1.28; stroke-dashoffset: 0; stroke: #b0b0b0; stroke-opacity: 0.5; stroke-width: 0.8"/>
     </g>
     <g id="line2d_16">
      <g>
       <use xlink:href="#m74aa1f3ada" x="285.414062" y="298.884375" style="stroke: #000000; stroke-width: 0.8"/>
      </g>
     </g>
     <g id="text_8">
      <!-- 0.75 -->
      <g transform="translate(275.423437 312.954688) scale(0.1 -0.1)">
       <use xlink:href="#Pretendard-Regular-30"/>
       <use xlink:href="#Pretendard-Regular-2e" transform="translate(59.570312 0)"/>
       <use xlink:href="#Pretendard-Regular-37" transform="translate(84.960938 0)"/>
       <use xlink:href="#Pretendard-Regular-35" transform="translate(140.136719 0)"/>
      </g>
     </g>
    </g>
    <g id="xtick_9">
     <g id="line2d_17">
      <path d="M 316.914062 298.884375 
L 316.914062 21.684375 
" clip-path="url(#p1b3d0d4746)" style="fill: none; stroke-dasharray: 2.96,1.28; stroke-dashoffset: 0; stroke: #b0b0b0; stroke-opacity: 0.5; stroke-width: 0.8"/>
     </g>
     <g id="line2d_18">
      <g>
       <use xlink:href="#m74aa1f3ada" x="316.914062" y="298.884375" style="stroke: #000000; stroke-width: 0.8"/>
      </g>
     </g>
     <g id="text_9">
      <!-- 1.00 -->
      <g transform="translate(307.494531 312.954688) scale(0.1 -0.1)">
       <use xlink:href="#Pretendard-Regular-31"/>
       <use xlink:href="#Pretendard-Regular-2e" transform="translate(43.847656 0)"/>
       <use xlink:href="#Pretendard-Regular-30" transform="translate(69.238281 0)"/>
       <use xlink:href="#Pretendard-Regular-30" transform="translate(128.808594 0)"/>
      </g>
     </g>
    </g>
    <g id="text_10">
     <!-- In-Phase (I) -->
     <g transform="translate(165.107031 326.320313) scale(0.1 -0.1)">
      <defs>
       <path id="Pretendard-Regular-49" d="M 1063 4525 
L 500 4525 
L 500 0 
L 1063 0 
L 1063 4525 
z
" transform="scale(0.015625)"/>
       <path id="Pretendard-Regular-6e" d="M 969 2038 
C 969 2625 1331 2956 1825 2956 
C 2306 2956 2594 2644 2594 2119 
L 2594 0 
L 3131 0 
L 3131 2156 
C 3131 3019 2675 3438 1988 3438 
C 1469 3438 1156 3206 994 2863 
L 950 2863 
L 950 3394 
L 431 3394 
L 431 0 
L 969 0 
L 969 2038 
z
" transform="scale(0.015625)"/>
       <path id="Pretendard-Regular-50" d="M 500 0 
L 1063 0 
L 1063 1644 
L 2044 1644 
C 3100 1644 3581 2288 3581 3088 
C 3581 3894 3100 4525 2038 4525 
L 500 4525 
L 500 0 
z
M 1063 2144 
L 1063 4025 
L 2013 4025 
C 2738 4025 3025 3631 3025 3088 
C 3025 2550 2738 2144 2019 2144 
L 1063 2144 
z
" transform="scale(0.015625)"/>
       <path id="Pretendard-Regular-68" d="M 969 2038 
C 969 2625 1344 2956 1850 2956 
C 2338 2956 2631 2650 2631 2119 
L 2631 0 
L 3169 0 
L 3169 2156 
C 3169 3025 2706 3438 2013 3438 
C 1475 3438 1169 3213 1013 2863 
L 969 2863 
L 969 4525 
L 431 4525 
L 431 0 
L 969 0 
L 969 2038 
z
" transform="scale(0.015625)"/>
       <path id="Pretendard-Regular-61" d="M 269 963 
C 269 300 781 -81 1425 -81 
C 2013 -81 2325 231 2438 463 
L 2463 463 
L 2463 0 
L 2994 0 
L 2994 2238 
C 2994 3306 2163 3438 1719 3438 
C 969 3438 438 3056 369 2513 
L 931 2513 
C 1006 2769 1263 2969 1694 2969 
C 2206 2969 2463 2719 2463 2288 
L 2463 2013 
C 2309 2006 1759 1978 1544 1963 
C 956 1919 269 1744 269 963 
z
M 806 938 
C 806 1306 1119 1481 1606 1513 
L 2463 1575 
L 2463 1231 
C 2463 806 2125 400 1519 400 
C 1106 400 806 581 806 938 
z
" transform="scale(0.015625)"/>
       <path id="Pretendard-Regular-73" d="M 2319 2513 
L 2844 2513 
C 2775 3063 2331 3438 1631 3438 
C 881 3438 375 3019 375 2438 
C 375 1988 688 1663 1281 1525 
L 1794 1406 
C 2181 1319 2350 1156 2350 919 
C 2350 600 2044 400 1563 400 
C 1138 400 894 556 831 888 
L 269 888 
C 356 269 813 -69 1575 -69 
C 2425 -69 2906 363 2906 950 
C 2906 1425 2606 1725 2000 1869 
L 1494 1994 
C 1094 2088 913 2244 913 2469 
C 913 2756 1213 2981 1631 2981 
C 2031 2981 2244 2794 2319 2513 
z
" transform="scale(0.015625)"/>
       <path id="Pretendard-Regular-65" d="M 1856 -69 
C 2556 -69 3056 281 3219 794 
L 2644 794 
C 2519 581 2263 406 1856 406 
C 1250 406 831 800 806 1519 
L 3269 1519 
L 3269 1744 
C 3269 3000 2519 3438 1806 3438 
C 881 3438 269 2713 269 1669 
C 269 625 875 -69 1856 -69 
z
M 813 1975 
C 844 2500 1219 2963 1806 2963 
C 2363 2963 2725 2544 2725 1975 
L 813 1975 
z
" transform="scale(0.015625)"/>
       <path id="Pretendard-Regular-20" transform="scale(0.015625)"/>
       <path id="Pretendard-Regular-28" d="M 569 1725 
C 575 544 894 -438 1469 -1275 
L 1944 -1275 
C 1519 -656 1125 613 1125 1725 
C 1125 2838 1519 4100 1944 4719 
L 1469 4719 
C 894 3888 575 2906 569 1725 
z
" transform="scale(0.015625)"/>
       <path id="Pretendard-Regular-29" d="M 1613 1725 
C 1606 2906 1288 3888 713 4719 
L 238 4719 
C 663 4100 1056 2838 1056 1725 
C 1056 613 663 -656 238 -1275 
L 713 -1275 
C 1288 -438 1606 544 1613 1725 
z
" transform="scale(0.015625)"/>
      </defs>
      <use xlink:href="#Pretendard-Regular-49"/>
      <use xlink:href="#Pretendard-Regular-6e" transform="translate(24.414062 0)"/>
      <use xlink:href="#Pretendard-Regular-2d" transform="translate(80.078125 0)"/>
      <use xlink:href="#Pretendard-Regular-50" transform="translate(123.339844 0)"/>
      <use xlink:href="#Pretendard-Regular-68" transform="translate(183.789062 0)"/>
      <use xlink:href="#Pretendard-Regular-61" transform="translate(240.039062 0)"/>
      <use xlink:href="#Pretendard-Regular-73" transform="translate(293.554688 0)"/>
      <use xlink:href="#Pretendard-Regular-65" transform="translate(343.164062 0)"/>
      <use xlink:href="#Pretendard-Regular-20" transform="translate(398.4375 0)"/>
      <use xlink:href="#Pretendard-Regular-28" transform="translate(423.535156 0)"/>
      <use xlink:href="#Pretendard-Regular-49" transform="translate(457.617188 0)"/>
      <use xlink:href="#Pretendard-Regular-29" transform="translate(482.03125 0)"/>
     </g>
    </g>
   </g>
   <g id="matplotlib.axis_2">
    <g id="ytick_1">
     <g id="line2d_19">
      <path d="M 52.314063 286.284375 
L 329.514062 286.284375 
" clip-path="url(#p1b3d0d4746)" style="fill: none; stroke-dasharray: 2.96,1.28; stroke-dashoffset: 0; stroke: #b0b0b0; stroke-opacity: 0.5; stroke-width: 0.8"/>
     </g>
     <g id="line2d_20">
      <defs>
       <path id="mac83951b31" d="M 0 0 
L -3.5 0 
" style="stroke: #000000; stroke-width: 0.8"/>
      </defs>
      <g>
       <use xlink:href="#mac83951b31" x="52.314063" y="286.284375" style="stroke: #000000; stroke-width: 0.8"/>
      </g>
     </g>
     <g id="text_11">
      <!-- -1.00 -->
      <g transform="translate(22.148438 289.819531) scale(0.1 -0.1)">
       <use xlink:href="#Pretendard-Regular-2d"/>
       <use xlink:href="#Pretendard-Regular-31" transform="translate(43.261719 0)"/>
       <use xlink:href="#Pretendard-Regular-2e" transform="translate(87.109375 0)"/>
       <use xlink:href="#Pretendard-Regular-30" transform="translate(112.5 0)"/>
       <use xlink:href="#Pretendard-Regular-30" transform="translate(172.070312 0)"/>
      </g>
     </g>
    </g>
    <g id="ytick_2">
     <g id="line2d_21">
      <path d="M 52.314063 254.784375 
L 329.514062 254.784375 
" clip-path="url(#p1b3d0d4746)" style="fill: none; stroke-dasharray: 2.96,1.28; stroke-dashoffset: 0; stroke: #b0b0b0; stroke-opacity: 0.5; stroke-width: 0.8"/>
     </g>
     <g id="line2d_22">
      <g>
       <use xlink:href="#mac83951b31" x="52.314063" y="254.784375" style="stroke: #000000; stroke-width: 0.8"/>
      </g>
     </g>
     <g id="text_12">
      <!-- -0.75 -->
      <g transform="translate(21.00625 258.319531) scale(0.1 -0.1)">
       <use xlink:href="#Pretendard-Regular-2d"/>
       <use xlink:href="#Pretendard-Regular-30" transform="translate(43.261719 0)"/>
       <use xlink:href="#Pretendard-Regular-2e" transform="translate(102.832031 0)"/>
       <use xlink:href="#Pretendard-Regular-37" transform="translate(128.222656 0)"/>
       <use xlink:href="#Pretendard-Regular-35" transform="translate(183.398438 0)"/>
      </g>
     </g>
    </g>
    <g id="ytick_3">
     <g id="line2d_23">
      <path d="M 52.314063 223.284375 
L 329.514062 223.284375 
" clip-path="url(#p1b3d0d4746)" style="fill: none; stroke-dasharray: 2.96,1.28; stroke-dashoffset: 0; stroke: #b0b0b0; stroke-opacity: 0.5; stroke-width: 0.8"/>
     </g>
     <g id="line2d_24">
      <g>
       <use xlink:href="#mac83951b31" x="52.314063" y="223.284375" style="stroke: #000000; stroke-width: 0.8"/>
      </g>
     </g>
     <g id="text_13">
      <!-- -0.50 -->
      <g transform="translate(20.565625 226.819531) scale(0.1 -0.1)">
       <use xlink:href="#Pretendard-Regular-2d"/>
       <use xlink:href="#Pretendard-Regular-30" transform="translate(43.261719 0)"/>
       <use xlink:href="#Pretendard-Regular-2e" transform="translate(102.832031 0)"/>
       <use xlink:href="#Pretendard-Regular-35" transform="translate(128.222656 0)"/>
       <use xlink:href="#Pretendard-Regular-30" transform="translate(187.890625 0)"/>
      </g>
     </g>
    </g>
    <g id="ytick_4">
     <g id="line2d_25">
      <path d="M 52.314063 191.784375 
L 329.514062 191.784375 
" clip-path="url(#p1b3d0d4746)" style="fill: none; stroke-dasharray: 2.96,1.28; stroke-dashoffset: 0; stroke: #b0b0b0; stroke-opacity: 0.5; stroke-width: 0.8"/>
     </g>
     <g id="line2d_26">
      <g>
       <use xlink:href="#mac83951b31" x="52.314063" y="191.784375" style="stroke: #000000; stroke-width: 0.8"/>
      </g>
     </g>
     <g id="text_14">
      <!-- -0.25 -->
      <g transform="translate(20.654688 195.319531) scale(0.1 -0.1)">
       <use xlink:href="#Pretendard-Regular-2d"/>
       <use xlink:href="#Pretendard-Regular-30" transform="translate(43.261719 0)"/>
       <use xlink:href="#Pretendard-Regular-2e" transform="translate(102.832031 0)"/>
       <use xlink:href="#Pretendard-Regular-32" transform="translate(128.222656 0)"/>
       <use xlink:href="#Pretendard-Regular-35" transform="translate(186.914062 0)"/>
      </g>
     </g>
    </g>
    <g id="ytick_5">
     <g id="line2d_27">
      <path d="M 52.314063 160.284375 
L 329.514062 160.284375 
" clip-path="url(#p1b3d0d4746)" style="fill: none; stroke-dasharray: 2.96,1.28; stroke-dashoffset: 0; stroke: #b0b0b0; stroke-opacity: 0.5; stroke-width: 0.8"/>
     </g>
     <g id="line2d_28">
      <g>
       <use xlink:href="#mac83951b31" x="52.314063" y="160.284375" style="stroke: #000000; stroke-width: 0.8"/>
      </g>
     </g>
     <g id="text_15">
      <!-- 0.00 -->
      <g transform="translate(24.901563 163.819531) scale(0.1 -0.1)">
       <use xlink:href="#Pretendard-Regular-30"/>
       <use xlink:href="#Pretendard-Regular-2e" transform="translate(59.570312 0)"/>
       <use xlink:href="#Pretendard-Regular-30" transform="translate(84.960938 0)"/>
       <use xlink:href="#Pretendard-Regular-30" transform="translate(144.53125 0)"/>
      </g>
     </g>
    </g>
    <g id="ytick_6">
     <g id="line2d_29">
      <path d="M 52.314063 128.784375 
L 329.514062 128.784375 
" clip-path="url(#p1b3d0d4746)" style="fill: none; stroke-dasharray: 2.96,1.28; stroke-dashoffset: 0; stroke: #b0b0b0; stroke-opacity: 0.5; stroke-width: 0.8"/>
     </g>
     <g id="line2d_30">
      <g>
       <use xlink:href="#mac83951b31" x="52.314063" y="128.784375" style="stroke: #000000; stroke-width: 0.8"/>
      </g>
     </g>
     <g id="text_16">
      <!-- 0.25 -->
      <g transform="translate(24.98125 132.319531) scale(0.1 -0.1)">
       <use xlink:href="#Pretendard-Regular-30"/>
       <use xlink:href="#Pretendard-Regular-2e" transform="translate(59.570312 0)"/>
       <use xlink:href="#Pretendard-Regular-32" transform="translate(84.960938 0)"/>
       <use xlink:href="#Pretendard-Regular-35" transform="translate(143.652344 0)"/>
      </g>
     </g>
    </g>
    <g id="ytick_7">
     <g id="line2d_31">
      <path d="M 52.314063 97.284375 
L 329.514062 97.284375 
" clip-path="url(#p1b3d0d4746)" style="fill: none; stroke-dasharray: 2.96,1.28; stroke-dashoffset: 0; stroke: #b0b0b0; stroke-opacity: 0.5; stroke-width: 0.8"/>
     </g>
     <g id="line2d_32">
      <g>
       <use xlink:href="#mac83951b31" x="52.314063" y="97.284375" style="stroke: #000000; stroke-width: 0.8"/>
      </g>
     </g>
     <g id="text_17">
      <!-- 0.50 -->
      <g transform="translate(24.892188 100.819531) scale(0.1 -0.1)">
       <use xlink:href="#Pretendard-Regular-30"/>
       <use xlink:href="#Pretendard-Regular-2e" transform="translate(59.570312 0)"/>
       <use xlink:href="#Pretendard-Regular-35" transform="translate(84.960938 0)"/>
       <use xlink:href="#Pretendard-Regular-30" transform="translate(144.628906 0)"/>
      </g>
     </g>
    </g>
    <g id="ytick_8">
     <g id="line2d_33">
      <path d="M 52.314063 65.784375 
L 329.514062 65.784375 
" clip-path="url(#p1b3d0d4746)" style="fill: none; stroke-dasharray: 2.96,1.28; stroke-dashoffset: 0; stroke: #b0b0b0; stroke-opacity: 0.5; stroke-width: 0.8"/>
     </g>
     <g id="line2d_34">
      <g>
       <use xlink:href="#mac83951b31" x="52.314063" y="65.784375" style="stroke: #000000; stroke-width: 0.8"/>
      </g>
     </g>
     <g id="text_18">
      <!-- 0.75 -->
      <g transform="translate(25.332813 69.319531) scale(0.1 -0.1)">
       <use xlink:href="#Pretendard-Regular-30"/>
       <use xlink:href="#Pretendard-Regular-2e" transform="translate(59.570312 0)"/>
       <use xlink:href="#Pretendard-Regular-37" transform="translate(84.960938 0)"/>
       <use xlink:href="#Pretendard-Regular-35" transform="translate(140.136719 0)"/>
      </g>
     </g>
    </g>
    <g id="ytick_9">
     <g id="line2d_35">
      <path d="M 52.314063 34.284375 
L 329.514062 34.284375 
" clip-path="url(#p1b3d0d4746)" style="fill: none; stroke-dasharray: 2.96,1.28; stroke-dashoffset: 0; stroke: #b0b0b0; stroke-opacity: 0.5; stroke-width: 0.8"/>
     </g>
     <g id="line2d_36">
      <g>
       <use xlink:href="#mac83951b31" x="52.314063" y="34.284375" style="stroke: #000000; stroke-width: 0.8"/>
      </g>
     </g>
     <g id="text_19">
      <!-- 1.00 -->
      <g transform="translate(26.475 37.819531) scale(0.1 -0.1)">
       <use xlink:href="#Pretendard-Regular-31"/>
       <use xlink:href="#Pretendard-Regular-2e" transform="translate(43.847656 0)"/>
       <use xlink:href="#Pretendard-Regular-30" transform="translate(69.238281 0)"/>
       <use xlink:href="#Pretendard-Regular-30" transform="translate(128.808594 0)"/>
      </g>
     </g>
    </g>
    <g id="text_20">
     <!-- Quadrature (Q) -->
     <g transform="translate(14.573438 194.00625) rotate(-90) scale(0.1 -0.1)">
      <defs>
       <path id="Pretendard-Regular-51" d="M 2138 1419 
L 2806 544 
C 2656 491 2494 463 2325 463 
C 1506 463 869 1094 869 2263 
C 869 3431 1506 4063 2325 4063 
C 3144 4063 3781 3431 3781 2263 
C 3781 1584 3569 1088 3231 794 
L 2750 1419 
L 2138 1419 
z
M 4325 2263 
C 4325 3694 3481 4588 2325 4588 
C 1163 4588 325 3694 325 2263 
C 325 831 1163 -63 2325 -63 
C 2619 -63 2891 -6 3138 106 
L 3531 -425 
L 4144 -425 
L 3556 363 
C 4031 759 4325 1419 4325 2263 
z
" transform="scale(0.015625)"/>
       <path id="Pretendard-Regular-75" d="M 2575 1394 
C 2575 763 2088 475 1706 475 
C 1275 475 969 788 969 1275 
L 969 3394 
L 431 3394 
L 431 1238 
C 431 375 888 -44 1531 -44 
C 2044 -44 2375 231 2538 575 
L 2575 575 
L 2575 0 
L 3106 0 
L 3106 3394 
L 2575 3394 
L 2575 1394 
z
" transform="scale(0.015625)"/>
       <path id="Pretendard-Regular-64" d="M 1713 -69 
C 2363 -69 2581 331 2700 519 
L 2756 519 
L 2756 0 
L 3281 0 
L 3281 4525 
L 2738 4525 
L 2738 2856 
L 2700 2856 
C 2588 3038 2375 3438 1719 3438 
C 869 3438 269 2763 269 1688 
C 269 613 869 -69 1713 -69 
z
M 1788 413 
C 1144 413 813 975 813 1700 
C 813 2406 1138 2956 1788 2956 
C 2419 2956 2756 2450 2756 1700 
C 2756 938 2406 413 1788 413 
z
" transform="scale(0.015625)"/>
       <path id="Pretendard-Regular-72" d="M 431 0 
L 969 0 
L 969 2138 
C 969 2594 1331 2931 1819 2931 
C 1956 2931 2106 2906 2144 2894 
L 2144 3438 
C 2081 3444 1944 3450 1863 3450 
C 1463 3450 1113 3219 988 2875 
L 950 2875 
L 950 3394 
L 431 3394 
L 431 0 
z
" transform="scale(0.015625)"/>
       <path id="Pretendard-Regular-74" d="M 1913 3394 
L 1200 3394 
L 1200 4206 
L 656 4206 
L 656 3394 
L 144 3394 
L 144 2944 
L 656 2944 
L 656 838 
C 656 238 1138 -44 1588 -44 
C 1744 -44 1881 -31 1963 -19 
L 1963 481 
C 1881 475 1744 469 1644 469 
C 1413 469 1200 538 1200 975 
L 1200 2944 
L 1913 2944 
L 1913 3394 
z
" transform="scale(0.015625)"/>
      </defs>
      <use xlink:href="#Pretendard-Regular-51"/>
      <use xlink:href="#Pretendard-Regular-75" transform="translate(72.65625 0)"/>
      <use xlink:href="#Pretendard-Regular-61" transform="translate(127.929688 0)"/>
      <use xlink:href="#Pretendard-Regular-64" transform="translate(181.445312 0)"/>
      <use xlink:href="#Pretendard-Regular-72" transform="translate(240.527344 0)"/>
      <use xlink:href="#Pretendard-Regular-61" transform="translate(275.488281 0)"/>
      <use xlink:href="#Pretendard-Regular-74" transform="translate(329.003906 0)"/>
      <use xlink:href="#Pretendard-Regular-75" transform="translate(362.988281 0)"/>
      <use xlink:href="#Pretendard-Regular-72" transform="translate(418.261719 0)"/>
      <use xlink:href="#Pretendard-Regular-65" transform="translate(453.222656 0)"/>
      <use xlink:href="#Pretendard-Regular-20" transform="translate(508.496094 0)"/>
      <use xlink:href="#Pretendard-Regular-28" transform="translate(533.59375 0)"/>
      <use xlink:href="#Pretendard-Regular-51" transform="translate(567.675781 0)"/>
      <use xlink:href="#Pretendard-Regular-29" transform="translate(640.332031 0)"/>
     </g>
    </g>
   </g>
   <g id="line2d_37">
    <path d="M 52.314063 160.284375 
L 329.514062 160.284375 
" clip-path="url(#p1b3d0d4746)" style="fill: none; stroke: #808080; stroke-linecap: square"/>
   </g>
   <g id="line2d_38">
    <path d="M 190.914062 298.884375 
L 190.914062 21.684375 
" clip-path="url(#p1b3d0d4746)" style="fill: none; stroke: #808080; stroke-linecap: square"/>
   </g>
   <g id="patch_3">
    <path d="M 52.314063 298.884375 
L 52.314063 21.684375 
" style="fill: none; stroke: #000000; stroke-width: 0.8; stroke-linejoin: miter; stroke-linecap: square"/>
   </g>
   <g id="patch_4">
    <path d="M 329.514062 298.884375 
L 329.514062 21.684375 
" style="fill: none; stroke: #000000; stroke-width: 0.8; stroke-linejoin: miter; stroke-linecap: square"/>
   </g>
   <g id="patch_5">
    <path d="M 52.314063 298.884375 
L 329.514062 298.884375 
" style="fill: none; stroke: #000000; stroke-width: 0.8; stroke-linejoin: miter; stroke-linecap: square"/>
   </g>
   <g id="patch_6">
    <path d="M 52.314063 21.684375 
L 329.514062 21.684375 
" style="fill: none; stroke: #000000; stroke-width: 0.8; stroke-linejoin: miter; stroke-linecap: square"/>
   </g>
   <g id="text_21">
    <!-- 1+1j -->
    <g style="fill: #555555" transform="translate(329.514062 21.684375) scale(0.09 -0.09)">
     <defs>
      <path id="Pretendard-Regular-2b" d="M 1750 306 
L 2256 306 
L 2256 1519 
L 3469 1519 
L 3469 2025 
L 2256 2025 
L 2256 3231 
L 1750 3231 
L 1750 2025 
L 544 2025 
L 544 1519 
L 1750 1519 
L 1750 306 
z
" transform="scale(0.015625)"/>
      <path id="Pretendard-Regular-6a" d="M 431 3394 
L 431 -244 
C 431 -581 288 -775 -25 -775 
L -131 -775 
L -131 -1275 
L -19 -1275 
C 644 -1275 969 -881 969 -244 
L 969 3394 
L 431 3394 
z
M 694 3956 
C 900 3956 1075 4113 1075 4313 
C 1075 4513 900 4669 694 4669 
C 488 4669 319 4513 319 4313 
C 319 4113 488 3956 694 3956 
z
" transform="scale(0.015625)"/>
     </defs>
     <use xlink:href="#Pretendard-Regular-31"/>
     <use xlink:href="#Pretendard-Regular-2b" transform="translate(43.847656 0)"/>
     <use xlink:href="#Pretendard-Regular-31" transform="translate(106.542969 0)"/>
     <use xlink:href="#Pretendard-Regular-6a" transform="translate(150.390625 0)"/>
    </g>
   </g>
   <g id="text_22">
    <!-- -1+1j -->
    <g style="fill: #555555" transform="translate(77.514062 21.684375) scale(0.09 -0.09)">
     <use xlink:href="#Pretendard-Regular-2d"/>
     <use xlink:href="#Pretendard-Regular-31" transform="translate(43.261719 0)"/>
     <use xlink:href="#Pretendard-Regular-2b" transform="translate(87.109375 0)"/>
     <use xlink:href="#Pretendard-Regular-31" transform="translate(149.804688 0)"/>
     <use xlink:href="#Pretendard-Regular-6a" transform="translate(193.652344 0)"/>
    </g>
   </g>
   <g id="text_23">
    <!-- -1-1j -->
    <g style="fill: #555555" transform="translate(77.514062 273.684375) scale(0.09 -0.09)">
     <use xlink:href="#Pretendard-Regular-2d"/>
     <use xlink:href="#Pretendard-Regular-31" transform="translate(43.261719 0)"/>
     <use xlink:href="#Pretendard-Regular-2d" transform="translate(87.109375 0)"/>
     <use xlink:href="#Pretendard-Regular-31" transform="translate(130.371094 0)"/>
     <use xlink:href="#Pretendard-Regular-6a" transform="translate(174.21875 0)"/>
    </g>
   </g>
   <g id="text_24">
    <!-- 1-1j -->
    <g style="fill: #555555" transform="translate(329.514062 273.684375) scale(0.09 -0.09)">
     <use xlink:href="#Pretendard-Regular-31"/>
     <use xlink:href="#Pretendard-Regular-2d" transform="translate(43.847656 0)"/>
     <use xlink:href="#Pretendard-Regular-31" transform="translate(87.109375 0)"/>
     <use xlink:href="#Pretendard-Regular-6a" transform="translate(130.957031 0)"/>
    </g>
   </g>
   <g id="text_25">
    <!-- QPSK Constellation -->
    <g transform="translate(138.897812 15.684375) scale(0.12 -0.12)">
     <defs>
      <path id="Pretendard-Regular-53" d="M 2969 3388 
L 3519 3388 
C 3494 4075 2863 4588 1988 4588 
C 1113 4588 431 4081 431 3319 
C 431 2706 869 2344 1581 2138 
L 2138 1988 
C 2613 1850 3031 1681 3031 1244 
C 3031 750 2563 431 1938 431 
C 1400 431 931 669 881 1175 
L 306 1175 
C 356 425 963 -81 1938 -81 
C 2988 -81 3581 494 3581 1231 
C 3581 2075 2788 2356 2300 2481 
L 1850 2606 
C 1506 2694 975 2869 975 3344 
C 975 3775 1369 4088 1969 4088 
C 2513 4088 2919 3831 2969 3388 
z
" transform="scale(0.015625)"/>
      <path id="Pretendard-Regular-4b" d="M 500 0 
L 1063 0 
L 1063 1456 
L 1625 2094 
L 3181 0 
L 3869 0 
L 1975 2481 
L 3869 4525 
L 3131 4525 
L 1119 2288 
L 1063 2288 
L 1063 4525 
L 500 4525 
L 500 0 
z
" transform="scale(0.015625)"/>
      <path id="Pretendard-Regular-43" d="M 3588 3100 
L 4150 3100 
C 3981 4038 3238 4588 2325 4588 
C 1163 4588 325 3694 325 2263 
C 325 831 1163 -63 2325 -63 
C 3244 -63 3988 494 4150 1419 
L 3588 1419 
C 3450 800 2919 463 2325 463 
C 1506 463 869 1094 869 2263 
C 869 3431 1506 4063 2325 4063 
C 2919 4063 3456 3725 3588 3100 
z
" transform="scale(0.015625)"/>
      <path id="Pretendard-Regular-6f" d="M 1819 -69 
C 2738 -69 3356 625 3356 1681 
C 3356 2738 2738 3438 1819 3438 
C 894 3438 269 2738 269 1681 
C 269 625 894 -69 1819 -69 
z
M 1819 406 
C 1125 406 806 1006 806 1681 
C 806 2356 1125 2963 1819 2963 
C 2500 2963 2819 2356 2819 1681 
C 2819 1006 2500 406 1819 406 
z
" transform="scale(0.015625)"/>
      <path id="Pretendard-Regular-6c" d="M 969 4525 
L 431 4525 
L 431 0 
L 969 0 
L 969 4525 
z
" transform="scale(0.015625)"/>
      <path id="Pretendard-Regular-69" d="M 431 0 
L 969 0 
L 969 3394 
L 431 3394 
L 431 0 
z
M 700 3956 
C 906 3956 1081 4113 1081 4313 
C 1081 4513 906 4669 700 4669 
C 494 4669 325 4513 325 4313 
C 325 4113 494 3956 700 3956 
z
" transform="scale(0.015625)"/>
     </defs>
     <use xlink:href="#Pretendard-Regular-51"/>
     <use xlink:href="#Pretendard-Regular-50" transform="translate(72.65625 0)"/>
     <use xlink:href="#Pretendard-Regular-53" transform="translate(133.105469 0)"/>
     <use xlink:href="#Pretendard-Regular-4b" transform="translate(193.847656 0)"/>
     <use xlink:href="#Pretendard-Regular-20" transform="translate(255.957031 0)"/>
     <use xlink:href="#Pretendard-Regular-43" transform="translate(281.054688 0)"/>
     <use xlink:href="#Pretendard-Regular-6f" transform="translate(350.390625 0)"/>
     <use xlink:href="#Pretendard-Regular-6e" transform="translate(407.128906 0)"/>
     <use xlink:href="#Pretendard-Regular-73" transform="translate(462.792969 0)"/>
     <use xlink:href="#Pretendard-Regular-74" transform="translate(512.402344 0)"/>
     <use xlink:href="#Pretendard-Regular-65" transform="translate(546.386719 0)"/>
     <use xlink:href="#Pretendard-Regular-6c" transform="translate(601.660156 0)"/>
     <use xlink:href="#Pretendard-Regular-6c" transform="translate(623.4375 0)"/>
     <use xlink:href="#Pretendard-Regular-61" transform="translate(645.214844 0)"/>
     <use xlink:href="#Pretendard-Regular-74" transform="translate(698.730469 0)"/>
     <use xlink:href="#Pretendard-Regular-69" transform="translate(732.714844 0)"/>
     <use xlink:href="#Pretendard-Regular-6f" transform="translate(754.492188 0)"/>
     <use xlink:href="#Pretendard-Regular-6e" transform="translate(811.230469 0)"/>
    </g>
   </g>
   <g id="PathCollection_1">
    <defs>
     <path id="m88bf9b356d" d="M 0 5 
C 1.326016 5 2.597899 4.473168 3.535534 3.535534 
C 4.473168 2.597899 5 1.326016 5 0 
C 5 -1.326016 4.473168 -2.597899 3.535534 -3.535534 
C 2.597899 -4.473168 1.326016 -5 0 -5 
C -1.326016 -5 -2.597899 -4.473168 -3.535534 -3.535534 
C -4.473168 -2.597899 -5 -1.326016 -5 0 
C -5 1.326016 -4.473168 2.597899 -3.535534 3.535534 
C -2.597899 4.473168 -1.326016 5 0 5 
z
" style="stroke: #8e44ad"/>
    </defs>
    <g clip-path="url(#p1b3d0d4746)">
     <use xlink:href="#m88bf9b356d" x="316.914062" y="34.284375" style="fill: #8e44ad; stroke: #8e44ad"/>
     <use xlink:href="#m88bf9b356d" x="64.914062" y="34.284375" style="fill: #8e44ad; stroke: #8e44ad"/>
     <use xlink:href="#m88bf9b356d" x="64.914062" y="286.284375" style="fill: #8e44ad; stroke: #8e44ad"/>
     <use xlink:href="#m88bf9b356d" x="316.914062" y="286.284375" style="fill: #8e44ad; stroke: #8e44ad"/>
    </g>
   </g>
  </g>
 </g>
 <defs>
  <clipPath id="p1b3d0d4746">
   <rect x="52.314063" y="21.684375" width="277.2" height="277.2"/>
  </clipPath>
 </defs>
</svg>
