<?xml version="1.0" encoding="utf-8" standalone="no"?>
<!DOCTYPE svg PUBLIC "-//W3C//DTD SVG 1.1//EN"
  "http://www.w3.org/Graphics/SVG/1.1/DTD/svg11.dtd">
<svg xmlns:xlink="http://www.w3.org/1999/xlink" width="500.989062pt" height="226.19625pt" viewBox="0 0 500.989062 226.19625" xmlns="http://www.w3.org/2000/svg" version="1.1">
 <metadata>
  <rdf:RDF xmlns:dc="http://purl.org/dc/elements/1.1/" xmlns:cc="http://creativecommons.org/ns#" xmlns:rdf="http://www.w3.org/1999/02/22-rdf-syntax-ns#">
   <cc:Work>
    <dc:type rdf:resource="http://purl.org/dc/dcmitype/StillImage"/>
    <dc:date>2026-01-13T16:34:05.619695</dc:date>
    <dc:format>image/svg+xml</dc:format>
    <dc:creator>
     <cc:Agent>
      <dc:title>Matplotlib v3.10.8, https://matplotlib.org/</dc:title>
     </cc:Agent>
    </dc:creator>
   </cc:Work>
  </rdf:RDF>
 </metadata>
 <defs>
  <style type="text/css">*{stroke-linejoin: round; stroke-linecap: butt}</style>
 </defs>
 <g id="figure_1">
  <g id="patch_1">
   <path d="M 0 226.19625 
L 500.989062 226.19625 
L 500.989062 0 
L 0 0 
z
" style="fill: #ffffff"/>
  </g>
  <g id="axes_1">
   <g id="patch_2">
    <path d="M 47.389062 188.64 
L 493.789062 188.64 
L 493.789062 22.32 
L 47.389062 22.32 
z
" style="fill: #ffffff"/>
   </g>
   <g id="matplotlib.axis_1">
    <g id="xtick_1">
     <g id="line2d_1">
      <path d="M 67.679972 188.64 
L 67.679972 22.32 
" clip-path="url(#pd20e605912)" style="fill: none; stroke-dasharray: 0.8,1.32; stroke-dashoffset: 0; stroke: #b0b0b0; stroke-opacity: 0.6; stroke-width: 0.8"/>
     </g>
     <g id="line2d_2">
      <defs>
       <path id="m64b283e653" d="M 0 0 
L 0 3.5 
" style="stroke: #000000; stroke-width: 0.8"/>
      </defs>
      <g>
       <use xlink:href="#m64b283e653" x="67.679972" y="188.64" style="stroke: #000000; stroke-width: 0.8"/>
      </g>
     </g>
     <g id="text_1">
      <!-- 0.0000 -->
      <g transform="translate(50.184659 203.238438) scale(0.1 -0.1)">
       <defs>
        <path id="DejaVuSans-30" d="M 2034 4250 
Q 1547 4250 1301 3770 
Q 1056 3291 1056 2328 
Q 1056 1369 1301 889 
Q 1547 409 2034 409 
Q 2525 409 2770 889 
Q 3016 1369 3016 2328 
Q 3016 3291 2770 3770 
Q 2525 4250 2034 4250 
z
M 2034 4750 
Q 2819 4750 3233 4129 
Q 3647 3509 3647 2328 
Q 3647 1150 3233 529 
Q 2819 -91 2034 -91 
Q 1250 -91 836 529 
Q 422 1150 422 2328 
Q 422 3509 836 4129 
Q 1250 4750 2034 4750 
z
" transform="scale(0.015625)"/>
        <path id="DejaVuSans-2e" d="M 684 794 
L 1344 794 
L 1344 0 
L 684 0 
L 684 794 
z
" transform="scale(0.015625)"/>
       </defs>
       <use xlink:href="#DejaVuSans-30"/>
       <use xlink:href="#DejaVuSans-2e" transform="translate(63.623047 0)"/>
       <use xlink:href="#DejaVuSans-30" transform="translate(95.410156 0)"/>
       <use xlink:href="#DejaVuSans-30" transform="translate(159.033203 0)"/>
       <use xlink:href="#DejaVuSans-30" transform="translate(222.65625 0)"/>
       <use xlink:href="#DejaVuSans-30" transform="translate(286.279297 0)"/>
      </g>
     </g>
    </g>
    <g id="xtick_2">
     <g id="line2d_3">
      <path d="M 118.407244 188.64 
L 118.407244 22.32 
" clip-path="url(#pd20e605912)" style="fill: none; stroke-dasharray: 0.8,1.32; stroke-dashoffset: 0; stroke: #b0b0b0; stroke-opacity: 0.6; stroke-width: 0.8"/>
     </g>
     <g id="line2d_4">
      <g>
       <use xlink:href="#m64b283e653" x="118.407244" y="188.64" style="stroke: #000000; stroke-width: 0.8"/>
      </g>
     </g>
     <g id="text_2">
      <!-- 0.0025 -->
      <g transform="translate(100.911932 203.238438) scale(0.1 -0.1)">
       <defs>
        <path id="DejaVuSans-32" d="M 1228 531 
L 3431 531 
L 3431 0 
L 469 0 
L 469 531 
Q 828 903 1448 1529 
Q 2069 2156 2228 2338 
Q 2531 2678 2651 2914 
Q 2772 3150 2772 3378 
Q 2772 3750 2511 3984 
Q 2250 4219 1831 4219 
Q 1534 4219 1204 4116 
Q 875 4013 500 3803 
L 500 4441 
Q 881 4594 1212 4672 
Q 1544 4750 1819 4750 
Q 2544 4750 2975 4387 
Q 3406 4025 3406 3419 
Q 3406 3131 3298 2873 
Q 3191 2616 2906 2266 
Q 2828 2175 2409 1742 
Q 1991 1309 1228 531 
z
" transform="scale(0.015625)"/>
        <path id="DejaVuSans-35" d="M 691 4666 
L 3169 4666 
L 3169 4134 
L 1269 4134 
L 1269 2991 
Q 1406 3038 1543 3061 
Q 1681 3084 1819 3084 
Q 2600 3084 3056 2656 
Q 3513 2228 3513 1497 
Q 3513 744 3044 326 
Q 2575 -91 1722 -91 
Q 1428 -91 1123 -41 
Q 819 9 494 109 
L 494 744 
Q 775 591 1075 516 
Q 1375 441 1709 441 
Q 2250 441 2565 725 
Q 2881 1009 2881 1497 
Q 2881 1984 2565 2268 
Q 2250 2553 1709 2553 
Q 1456 2553 1204 2497 
Q 953 2441 691 2322 
L 691 4666 
z
" transform="scale(0.015625)"/>
       </defs>
       <use xlink:href="#DejaVuSans-30"/>
       <use xlink:href="#DejaVuSans-2e" transform="translate(63.623047 0)"/>
       <use xlink:href="#DejaVuSans-30" transform="translate(95.410156 0)"/>
       <use xlink:href="#DejaVuSans-30" transform="translate(159.033203 0)"/>
       <use xlink:href="#DejaVuSans-32" transform="translate(222.65625 0)"/>
       <use xlink:href="#DejaVuSans-35" transform="translate(286.279297 0)"/>
      </g>
     </g>
    </g>
    <g id="xtick_3">
     <g id="line2d_5">
      <path d="M 169.134517 188.64 
L 169.134517 22.32 
" clip-path="url(#pd20e605912)" style="fill: none; stroke-dasharray: 0.8,1.32; stroke-dashoffset: 0; stroke: #b0b0b0; stroke-opacity: 0.6; stroke-width: 0.8"/>
     </g>
     <g id="line2d_6">
      <g>
       <use xlink:href="#m64b283e653" x="169.134517" y="188.64" style="stroke: #000000; stroke-width: 0.8"/>
      </g>
     </g>
     <g id="text_3">
      <!-- 0.0050 -->
      <g transform="translate(151.639205 203.238438) scale(0.1 -0.1)">
       <use xlink:href="#DejaVuSans-30"/>
       <use xlink:href="#DejaVuSans-2e" transform="translate(63.623047 0)"/>
       <use xlink:href="#DejaVuSans-30" transform="translate(95.410156 0)"/>
       <use xlink:href="#DejaVuSans-30" transform="translate(159.033203 0)"/>
       <use xlink:href="#DejaVuSans-35" transform="translate(222.65625 0)"/>
       <use xlink:href="#DejaVuSans-30" transform="translate(286.279297 0)"/>
      </g>
     </g>
    </g>
    <g id="xtick_4">
     <g id="line2d_7">
      <path d="M 219.86179 188.64 
L 219.86179 22.32 
" clip-path="url(#pd20e605912)" style="fill: none; stroke-dasharray: 0.8,1.32; stroke-dashoffset: 0; stroke: #b0b0b0; stroke-opacity: 0.6; stroke-width: 0.8"/>
     </g>
     <g id="line2d_8">
      <g>
       <use xlink:href="#m64b283e653" x="219.86179" y="188.64" style="stroke: #000000; stroke-width: 0.8"/>
      </g>
     </g>
     <g id="text_4">
      <!-- 0.0075 -->
      <g transform="translate(202.366477 203.238438) scale(0.1 -0.1)">
       <defs>
        <path id="DejaVuSans-37" d="M 525 4666 
L 3525 4666 
L 3525 4397 
L 1831 0 
L 1172 0 
L 2766 4134 
L 525 4134 
L 525 4666 
z
" transform="scale(0.015625)"/>
       </defs>
       <use xlink:href="#DejaVuSans-30"/>
       <use xlink:href="#DejaVuSans-2e" transform="translate(63.623047 0)"/>
       <use xlink:href="#DejaVuSans-30" transform="translate(95.410156 0)"/>
       <use xlink:href="#DejaVuSans-30" transform="translate(159.033203 0)"/>
       <use xlink:href="#DejaVuSans-37" transform="translate(222.65625 0)"/>
       <use xlink:href="#DejaVuSans-35" transform="translate(286.279297 0)"/>
      </g>
     </g>
    </g>
    <g id="xtick_5">
     <g id="line2d_9">
      <path d="M 270.589062 188.64 
L 270.589062 22.32 
" clip-path="url(#pd20e605912)" style="fill: none; stroke-dasharray: 0.8,1.32; stroke-dashoffset: 0; stroke: #b0b0b0; stroke-opacity: 0.6; stroke-width: 0.8"/>
     </g>
     <g id="line2d_10">
      <g>
       <use xlink:href="#m64b283e653" x="270.589062" y="188.64" style="stroke: #000000; stroke-width: 0.8"/>
      </g>
     </g>
     <g id="text_5">
      <!-- 0.0100 -->
      <g transform="translate(253.09375 203.238438) scale(0.1 -0.1)">
       <defs>
        <path id="DejaVuSans-31" d="M 794 531 
L 1825 531 
L 1825 4091 
L 703 3866 
L 703 4441 
L 1819 4666 
L 2450 4666 
L 2450 531 
L 3481 531 
L 3481 0 
L 794 0 
L 794 531 
z
" transform="scale(0.015625)"/>
       </defs>
       <use xlink:href="#DejaVuSans-30"/>
       <use xlink:href="#DejaVuSans-2e" transform="translate(63.623047 0)"/>
       <use xlink:href="#DejaVuSans-30" transform="translate(95.410156 0)"/>
       <use xlink:href="#DejaVuSans-31" transform="translate(159.033203 0)"/>
       <use xlink:href="#DejaVuSans-30" transform="translate(222.65625 0)"/>
       <use xlink:href="#DejaVuSans-30" transform="translate(286.279297 0)"/>
      </g>
     </g>
    </g>
    <g id="xtick_6">
     <g id="line2d_11">
      <path d="M 321.316335 188.64 
L 321.316335 22.32 
" clip-path="url(#pd20e605912)" style="fill: none; stroke-dasharray: 0.8,1.32; stroke-dashoffset: 0; stroke: #b0b0b0; stroke-opacity: 0.6; stroke-width: 0.8"/>
     </g>
     <g id="line2d_12">
      <g>
       <use xlink:href="#m64b283e653" x="321.316335" y="188.64" style="stroke: #000000; stroke-width: 0.8"/>
      </g>
     </g>
     <g id="text_6">
      <!-- 0.0125 -->
      <g transform="translate(303.821023 203.238438) scale(0.1 -0.1)">
       <use xlink:href="#DejaVuSans-30"/>
       <use xlink:href="#DejaVuSans-2e" transform="translate(63.623047 0)"/>
       <use xlink:href="#DejaVuSans-30" transform="translate(95.410156 0)"/>
       <use xlink:href="#DejaVuSans-31" transform="translate(159.033203 0)"/>
       <use xlink:href="#DejaVuSans-32" transform="translate(222.65625 0)"/>
       <use xlink:href="#DejaVuSans-35" transform="translate(286.279297 0)"/>
      </g>
     </g>
    </g>
    <g id="xtick_7">
     <g id="line2d_13">
      <path d="M 372.043608 188.64 
L 372.043608 22.32 
" clip-path="url(#pd20e605912)" style="fill: none; stroke-dasharray: 0.8,1.32; stroke-dashoffset: 0; stroke: #b0b0b0; stroke-opacity: 0.6; stroke-width: 0.8"/>
     </g>
     <g id="line2d_14">
      <g>
       <use xlink:href="#m64b283e653" x="372.043608" y="188.64" style="stroke: #000000; stroke-width: 0.8"/>
      </g>
     </g>
     <g id="text_7">
      <!-- 0.0150 -->
      <g transform="translate(354.548295 203.238438) scale(0.1 -0.1)">
       <use xlink:href="#DejaVuSans-30"/>
       <use xlink:href="#DejaVuSans-2e" transform="translate(63.623047 0)"/>
       <use xlink:href="#DejaVuSans-30" transform="translate(95.410156 0)"/>
       <use xlink:href="#DejaVuSans-31" transform="translate(159.033203 0)"/>
       <use xlink:href="#DejaVuSans-35" transform="translate(222.65625 0)"/>
       <use xlink:href="#DejaVuSans-30" transform="translate(286.279297 0)"/>
      </g>
     </g>
    </g>
    <g id="xtick_8">
     <g id="line2d_15">
      <path d="M 422.770881 188.64 
L 422.770881 22.32 
" clip-path="url(#pd20e605912)" style="fill: none; stroke-dasharray: 0.8,1.32; stroke-dashoffset: 0; stroke: #b0b0b0; stroke-opacity: 0.6; stroke-width: 0.8"/>
     </g>
     <g id="line2d_16">
      <g>
       <use xlink:href="#m64b283e653" x="422.770881" y="188.64" style="stroke: #000000; stroke-width: 0.8"/>
      </g>
     </g>
     <g id="text_8">
      <!-- 0.0175 -->
      <g transform="translate(405.275568 203.238438) scale(0.1 -0.1)">
       <use xlink:href="#DejaVuSans-30"/>
       <use xlink:href="#DejaVuSans-2e" transform="translate(63.623047 0)"/>
       <use xlink:href="#DejaVuSans-30" transform="translate(95.410156 0)"/>
       <use xlink:href="#DejaVuSans-31" transform="translate(159.033203 0)"/>
       <use xlink:href="#DejaVuSans-37" transform="translate(222.65625 0)"/>
       <use xlink:href="#DejaVuSans-35" transform="translate(286.279297 0)"/>
      </g>
     </g>
    </g>
    <g id="xtick_9">
     <g id="line2d_17">
      <path d="M 473.498153 188.64 
L 473.498153 22.32 
" clip-path="url(#pd20e605912)" style="fill: none; stroke-dasharray: 0.8,1.32; stroke-dashoffset: 0; stroke: #b0b0b0; stroke-opacity: 0.6; stroke-width: 0.8"/>
     </g>
     <g id="line2d_18">
      <g>
       <use xlink:href="#m64b283e653" x="473.498153" y="188.64" style="stroke: #000000; stroke-width: 0.8"/>
      </g>
     </g>
     <g id="text_9">
      <!-- 0.0200 -->
      <g transform="translate(456.002841 203.238438) scale(0.1 -0.1)">
       <use xlink:href="#DejaVuSans-30"/>
       <use xlink:href="#DejaVuSans-2e" transform="translate(63.623047 0)"/>
       <use xlink:href="#DejaVuSans-30" transform="translate(95.410156 0)"/>
       <use xlink:href="#DejaVuSans-32" transform="translate(159.033203 0)"/>
       <use xlink:href="#DejaVuSans-30" transform="translate(222.65625 0)"/>
       <use xlink:href="#DejaVuSans-30" transform="translate(286.279297 0)"/>
      </g>
     </g>
    </g>
    <g id="text_10">
     <!-- Time (s) -->
     <g transform="translate(250.260156 216.916563) scale(0.1 -0.1)">
      <defs>
       <path id="DejaVuSans-54" d="M -19 4666 
L 3928 4666 
L 3928 4134 
L 2272 4134 
L 2272 0 
L 1638 0 
L 1638 4134 
L -19 4134 
L -19 4666 
z
" transform="scale(0.015625)"/>
       <path id="DejaVuSans-69" d="M 603 3500 
L 1178 3500 
L 1178 0 
L 603 0 
L 603 3500 
z
M 603 4863 
L 1178 4863 
L 1178 4134 
L 603 4134 
L 603 4863 
z
" transform="scale(0.015625)"/>
       <path id="DejaVuSans-6d" d="M 3328 2828 
Q 3544 3216 3844 3400 
Q 4144 3584 4550 3584 
Q 5097 3584 5394 3201 
Q 5691 2819 5691 2113 
L 5691 0 
L 5113 0 
L 5113 2094 
Q 5113 2597 4934 2840 
Q 4756 3084 4391 3084 
Q 3944 3084 3684 2787 
Q 3425 2491 3425 1978 
L 3425 0 
L 2847 0 
L 2847 2094 
Q 2847 2600 2669 2842 
Q 2491 3084 2119 3084 
Q 1678 3084 1418 2786 
Q 1159 2488 1159 1978 
L 1159 0 
L 581 0 
L 581 3500 
L 1159 3500 
L 1159 2956 
Q 1356 3278 1631 3431 
Q 1906 3584 2284 3584 
Q 2666 3584 2933 3390 
Q 3200 3197 3328 2828 
z
" transform="scale(0.015625)"/>
       <path id="DejaVuSans-65" d="M 3597 1894 
L 3597 1613 
L 953 1613 
Q 991 1019 1311 708 
Q 1631 397 2203 397 
Q 2534 397 2845 478 
Q 3156 559 3463 722 
L 3463 178 
Q 3153 47 2828 -22 
Q 2503 -91 2169 -91 
Q 1331 -91 842 396 
Q 353 884 353 1716 
Q 353 2575 817 3079 
Q 1281 3584 2069 3584 
Q 2775 3584 3186 3129 
Q 3597 2675 3597 1894 
z
M 3022 2063 
Q 3016 2534 2758 2815 
Q 2500 3097 2075 3097 
Q 1594 3097 1305 2825 
Q 1016 2553 972 2059 
L 3022 2063 
z
" transform="scale(0.015625)"/>
       <path id="DejaVuSans-20" transform="scale(0.015625)"/>
       <path id="DejaVuSans-28" d="M 1984 4856 
Q 1566 4138 1362 3434 
Q 1159 2731 1159 2009 
Q 1159 1288 1364 580 
Q 1569 -128 1984 -844 
L 1484 -844 
Q 1016 -109 783 600 
Q 550 1309 550 2009 
Q 550 2706 781 3412 
Q 1013 4119 1484 4856 
L 1984 4856 
z
" transform="scale(0.015625)"/>
       <path id="DejaVuSans-73" d="M 2834 3397 
L 2834 2853 
Q 2591 2978 2328 3040 
Q 2066 3103 1784 3103 
Q 1356 3103 1142 2972 
Q 928 2841 928 2578 
Q 928 2378 1081 2264 
Q 1234 2150 1697 2047 
L 1894 2003 
Q 2506 1872 2764 1633 
Q 3022 1394 3022 966 
Q 3022 478 2636 193 
Q 2250 -91 1575 -91 
Q 1294 -91 989 -36 
Q 684 19 347 128 
L 347 722 
Q 666 556 975 473 
Q 1284 391 1588 391 
Q 1994 391 2212 530 
Q 2431 669 2431 922 
Q 2431 1156 2273 1281 
Q 2116 1406 1581 1522 
L 1381 1569 
Q 847 1681 609 1914 
Q 372 2147 372 2553 
Q 372 3047 722 3315 
Q 1072 3584 1716 3584 
Q 2034 3584 2315 3537 
Q 2597 3491 2834 3397 
z
" transform="scale(0.015625)"/>
       <path id="DejaVuSans-29" d="M 513 4856 
L 1013 4856 
Q 1481 4119 1714 3412 
Q 1947 2706 1947 2009 
Q 1947 1309 1714 600 
Q 1481 -109 1013 -844 
L 513 -844 
Q 928 -128 1133 580 
Q 1338 1288 1338 2009 
Q 1338 2731 1133 3434 
Q 928 4138 513 4856 
z
" transform="scale(0.015625)"/>
      </defs>
      <use xlink:href="#DejaVuSans-54"/>
      <use xlink:href="#DejaVuSans-69" transform="translate(57.958984 0)"/>
      <use xlink:href="#DejaVuSans-6d" transform="translate(85.742188 0)"/>
      <use xlink:href="#DejaVuSans-65" transform="translate(183.154297 0)"/>
      <use xlink:href="#DejaVuSans-20" transform="translate(244.677734 0)"/>
      <use xlink:href="#DejaVuSans-28" transform="translate(276.464844 0)"/>
      <use xlink:href="#DejaVuSans-73" transform="translate(315.478516 0)"/>
      <use xlink:href="#DejaVuSans-29" transform="translate(367.578125 0)"/>
     </g>
    </g>
   </g>
   <g id="matplotlib.axis_2">
    <g id="ytick_1">
     <g id="line2d_19">
      <path d="M 47.389062 170.007439 
L 493.789062 170.007439 
" clip-path="url(#pd20e605912)" style="fill: none; stroke-dasharray: 0.8,1.32; stroke-dashoffset: 0; stroke: #b0b0b0; stroke-opacity: 0.6; stroke-width: 0.8"/>
     </g>
     <g id="line2d_20">
      <defs>
       <path id="mbee7db4e80" d="M 0 0 
L -3.5 0 
" style="stroke: #000000; stroke-width: 0.8"/>
      </defs>
      <g>
       <use xlink:href="#mbee7db4e80" x="47.389062" y="170.007439" style="stroke: #000000; stroke-width: 0.8"/>
      </g>
     </g>
     <g id="text_11">
      <!-- -1.5 -->
      <g transform="translate(20.878125 173.806657) scale(0.1 -0.1)">
       <defs>
        <path id="DejaVuSans-2d" d="M 313 2009 
L 1997 2009 
L 1997 1497 
L 313 1497 
L 313 2009 
z
" transform="scale(0.015625)"/>
       </defs>
       <use xlink:href="#DejaVuSans-2d"/>
       <use xlink:href="#DejaVuSans-31" transform="translate(36.083984 0)"/>
       <use xlink:href="#DejaVuSans-2e" transform="translate(99.707031 0)"/>
       <use xlink:href="#DejaVuSans-35" transform="translate(131.494141 0)"/>
      </g>
     </g>
    </g>
    <g id="ytick_2">
     <g id="line2d_21">
      <path d="M 47.389062 148.776009 
L 493.789062 148.776009 
" clip-path="url(#pd20e605912)" style="fill: none; stroke-dasharray: 0.8,1.32; stroke-dashoffset: 0; stroke: #b0b0b0; stroke-opacity: 0.6; stroke-width: 0.8"/>
     </g>
     <g id="line2d_22">
      <g>
       <use xlink:href="#mbee7db4e80" x="47.389062" y="148.776009" style="stroke: #000000; stroke-width: 0.8"/>
      </g>
     </g>
     <g id="text_12">
      <!-- -1.0 -->
      <g transform="translate(20.878125 152.575227) scale(0.1 -0.1)">
       <use xlink:href="#DejaVuSans-2d"/>
       <use xlink:href="#DejaVuSans-31" transform="translate(36.083984 0)"/>
       <use xlink:href="#DejaVuSans-2e" transform="translate(99.707031 0)"/>
       <use xlink:href="#DejaVuSans-30" transform="translate(131.494141 0)"/>
      </g>
     </g>
    </g>
    <g id="ytick_3">
     <g id="line2d_23">
      <path d="M 47.389062 127.544578 
L 493.789062 127.544578 
" clip-path="url(#pd20e605912)" style="fill: none; stroke-dasharray: 0.8,1.32; stroke-dashoffset: 0; stroke: #b0b0b0; stroke-opacity: 0.6; stroke-width: 0.8"/>
     </g>
     <g id="line2d_24">
      <g>
       <use xlink:href="#mbee7db4e80" x="47.389062" y="127.544578" style="stroke: #000000; stroke-width: 0.8"/>
      </g>
     </g>
     <g id="text_13">
      <!-- -0.5 -->
      <g transform="translate(20.878125 131.343797) scale(0.1 -0.1)">
       <use xlink:href="#DejaVuSans-2d"/>
       <use xlink:href="#DejaVuSans-30" transform="translate(36.083984 0)"/>
       <use xlink:href="#DejaVuSans-2e" transform="translate(99.707031 0)"/>
       <use xlink:href="#DejaVuSans-35" transform="translate(131.494141 0)"/>
      </g>
     </g>
    </g>
    <g id="ytick_4">
     <g id="line2d_25">
      <path d="M 47.389062 106.313148 
L 493.789062 106.313148 
" clip-path="url(#pd20e605912)" style="fill: none; stroke-dasharray: 0.8,1.32; stroke-dashoffset: 0; stroke: #b0b0b0; stroke-opacity: 0.6; stroke-width: 0.8"/>
     </g>
     <g id="line2d_26">
      <g>
       <use xlink:href="#mbee7db4e80" x="47.389062" y="106.313148" style="stroke: #000000; stroke-width: 0.8"/>
      </g>
     </g>
     <g id="text_14">
      <!-- 0.0 -->
      <g transform="translate(24.485937 110.112367) scale(0.1 -0.1)">
       <use xlink:href="#DejaVuSans-30"/>
       <use xlink:href="#DejaVuSans-2e" transform="translate(63.623047 0)"/>
       <use xlink:href="#DejaVuSans-30" transform="translate(95.410156 0)"/>
      </g>
     </g>
    </g>
    <g id="ytick_5">
     <g id="line2d_27">
      <path d="M 47.389062 85.081718 
L 493.789062 85.081718 
" clip-path="url(#pd20e605912)" style="fill: none; stroke-dasharray: 0.8,1.32; stroke-dashoffset: 0; stroke: #b0b0b0; stroke-opacity: 0.6; stroke-width: 0.8"/>
     </g>
     <g id="line2d_28">
      <g>
       <use xlink:href="#mbee7db4e80" x="47.389062" y="85.081718" style="stroke: #000000; stroke-width: 0.8"/>
      </g>
     </g>
     <g id="text_15">
      <!-- 0.5 -->
      <g transform="translate(24.485937 88.880937) scale(0.1 -0.1)">
       <use xlink:href="#DejaVuSans-30"/>
       <use xlink:href="#DejaVuSans-2e" transform="translate(63.623047 0)"/>
       <use xlink:href="#DejaVuSans-35" transform="translate(95.410156 0)"/>
      </g>
     </g>
    </g>
    <g id="ytick_6">
     <g id="line2d_29">
      <path d="M 47.389062 63.850288 
L 493.789062 63.850288 
" clip-path="url(#pd20e605912)" style="fill: none; stroke-dasharray: 0.8,1.32; stroke-dashoffset: 0; stroke: #b0b0b0; stroke-opacity: 0.6; stroke-width: 0.8"/>
     </g>
     <g id="line2d_30">
      <g>
       <use xlink:href="#mbee7db4e80" x="47.389062" y="63.850288" style="stroke: #000000; stroke-width: 0.8"/>
      </g>
     </g>
     <g id="text_16">
      <!-- 1.0 -->
      <g transform="translate(24.485937 67.649507) scale(0.1 -0.1)">
       <use xlink:href="#DejaVuSans-31"/>
       <use xlink:href="#DejaVuSans-2e" transform="translate(63.623047 0)"/>
       <use xlink:href="#DejaVuSans-30" transform="translate(95.410156 0)"/>
      </g>
     </g>
    </g>
    <g id="ytick_7">
     <g id="line2d_31">
      <path d="M 47.389062 42.618858 
L 493.789062 42.618858 
" clip-path="url(#pd20e605912)" style="fill: none; stroke-dasharray: 0.8,1.32; stroke-dashoffset: 0; stroke: #b0b0b0; stroke-opacity: 0.6; stroke-width: 0.8"/>
     </g>
     <g id="line2d_32">
      <g>
       <use xlink:href="#mbee7db4e80" x="47.389062" y="42.618858" style="stroke: #000000; stroke-width: 0.8"/>
      </g>
     </g>
     <g id="text_17">
      <!-- 1.5 -->
      <g transform="translate(24.485937 46.418077) scale(0.1 -0.1)">
       <use xlink:href="#DejaVuSans-31"/>
       <use xlink:href="#DejaVuSans-2e" transform="translate(63.623047 0)"/>
       <use xlink:href="#DejaVuSans-35" transform="translate(95.410156 0)"/>
      </g>
     </g>
    </g>
    <g id="text_18">
     <!-- Amplitude -->
     <g transform="translate(14.798437 131.102656) rotate(-90) scale(0.1 -0.1)">
      <defs>
       <path id="DejaVuSans-41" d="M 2188 4044 
L 1331 1722 
L 3047 1722 
L 2188 4044 
z
M 1831 4666 
L 2547 4666 
L 4325 0 
L 3669 0 
L 3244 1197 
L 1141 1197 
L 716 0 
L 50 0 
L 1831 4666 
z
" transform="scale(0.015625)"/>
       <path id="DejaVuSans-70" d="M 1159 525 
L 1159 -1331 
L 581 -1331 
L 581 3500 
L 1159 3500 
L 1159 2969 
Q 1341 3281 1617 3432 
Q 1894 3584 2278 3584 
Q 2916 3584 3314 3078 
Q 3713 2572 3713 1747 
Q 3713 922 3314 415 
Q 2916 -91 2278 -91 
Q 1894 -91 1617 61 
Q 1341 213 1159 525 
z
M 3116 1747 
Q 3116 2381 2855 2742 
Q 2594 3103 2138 3103 
Q 1681 3103 1420 2742 
Q 1159 2381 1159 1747 
Q 1159 1113 1420 752 
Q 1681 391 2138 391 
Q 2594 391 2855 752 
Q 3116 1113 3116 1747 
z
" transform="scale(0.015625)"/>
       <path id="DejaVuSans-6c" d="M 603 4863 
L 1178 4863 
L 1178 0 
L 603 0 
L 603 4863 
z
" transform="scale(0.015625)"/>
       <path id="DejaVuSans-74" d="M 1172 4494 
L 1172 3500 
L 2356 3500 
L 2356 3053 
L 1172 3053 
L 1172 1153 
Q 1172 725 1289 603 
Q 1406 481 1766 481 
L 2356 481 
L 2356 0 
L 1766 0 
Q 1100 0 847 248 
Q 594 497 594 1153 
L 594 3053 
L 172 3053 
L 172 3500 
L 594 3500 
L 594 4494 
L 1172 4494 
z
" transform="scale(0.015625)"/>
       <path id="DejaVuSans-75" d="M 544 1381 
L 544 3500 
L 1119 3500 
L 1119 1403 
Q 1119 906 1312 657 
Q 1506 409 1894 409 
Q 2359 409 2629 706 
Q 2900 1003 2900 1516 
L 2900 3500 
L 3475 3500 
L 3475 0 
L 2900 0 
L 2900 538 
Q 2691 219 2414 64 
Q 2138 -91 1772 -91 
Q 1169 -91 856 284 
Q 544 659 544 1381 
z
M 1991 3584 
L 1991 3584 
z
" transform="scale(0.015625)"/>
       <path id="DejaVuSans-64" d="M 2906 2969 
L 2906 4863 
L 3481 4863 
L 3481 0 
L 2906 0 
L 2906 525 
Q 2725 213 2448 61 
Q 2172 -91 1784 -91 
Q 1150 -91 751 415 
Q 353 922 353 1747 
Q 353 2572 751 3078 
Q 1150 3584 1784 3584 
Q 2172 3584 2448 3432 
Q 2725 3281 2906 2969 
z
M 947 1747 
Q 947 1113 1208 752 
Q 1469 391 1925 391 
Q 2381 391 2643 752 
Q 2906 1113 2906 1747 
Q 2906 2381 2643 2742 
Q 2381 3103 1925 3103 
Q 1469 3103 1208 2742 
Q 947 2381 947 1747 
z
" transform="scale(0.015625)"/>
      </defs>
      <use xlink:href="#DejaVuSans-41"/>
      <use xlink:href="#DejaVuSans-6d" transform="translate(68.408203 0)"/>
      <use xlink:href="#DejaVuSans-70" transform="translate(165.820312 0)"/>
      <use xlink:href="#DejaVuSans-6c" transform="translate(229.296875 0)"/>
      <use xlink:href="#DejaVuSans-69" transform="translate(257.080078 0)"/>
      <use xlink:href="#DejaVuSans-74" transform="translate(284.863281 0)"/>
      <use xlink:href="#DejaVuSans-75" transform="translate(324.072266 0)"/>
      <use xlink:href="#DejaVuSans-64" transform="translate(387.451172 0)"/>
      <use xlink:href="#DejaVuSans-65" transform="translate(450.927734 0)"/>
     </g>
    </g>
   </g>
   <g id="line2d_33">
    <path d="M 67.679972 29.88 
L 68.086196 30.48657 
L 68.49242 32.296484 
L 68.898645 35.280511 
L 69.711094 44.560015 
L 70.523542 57.728501 
L 71.742216 82.868084 
L 74.585786 146.989994 
L 75.398235 161.449937 
L 76.210684 172.35498 
L 76.616909 176.253439 
L 77.023133 179.031208 
L 77.429357 180.647401 
L 77.835582 181.08 
L 78.241806 180.326156 
L 78.648031 178.402168 
L 79.054255 175.343153 
L 79.866704 166.050462 
L 80.679153 153.073782 
L 81.897826 128.624562 
L 84.741397 67.520209 
L 85.553845 54.023271 
L 86.366294 43.983607 
L 86.772519 40.455748 
L 87.178743 37.994372 
L 87.584967 36.63162 
L 87.991192 36.381695 
L 88.397416 37.240752 
L 88.803641 39.187086 
L 89.209865 42.181612 
L 90.022314 51.076819 
L 90.834763 63.301501 
L 92.053436 86.027564 
L 94.897007 141.639075 
L 95.709456 153.655057 
L 96.521904 162.460403 
L 96.928129 165.495623 
L 97.334353 167.562217 
L 97.740578 168.637375 
L 98.146802 168.714529 
L 98.553026 167.803297 
L 98.959251 165.929148 
L 99.365475 163.13282 
L 100.177924 155.007708 
L 100.990373 144.022086 
L 102.209046 123.883299 
L 104.646393 81.671304 
L 105.458841 70.2952 
L 106.27129 61.490867 
L 107.083739 55.743505 
L 107.489963 54.111057 
L 107.896188 53.329176 
L 108.302412 53.397726 
L 108.708637 54.302812 
L 109.114861 56.017209 
L 109.521085 58.501007 
L 110.333534 65.55899 
L 111.145983 74.940258 
L 112.364656 91.882033 
L 114.802003 126.6128 
L 115.614452 135.766251 
L 116.4269 142.741663 
L 117.239349 147.178149 
L 117.645574 148.379371 
L 118.051798 148.890687 
L 118.458022 148.717352 
L 118.864247 147.875634 
L 119.270471 146.392335 
L 120.08292 141.656847 
L 120.895369 134.907794 
L 122.114042 122.145804 
L 124.957613 90.577829 
L 125.770062 83.661993 
L 126.58251 78.483707 
L 127.394959 75.289237 
L 127.801184 74.47505 
L 128.207408 74.186173 
L 128.613633 74.414304 
L 129.019857 75.142927 
L 129.426081 76.347773 
L 130.23853 80.054004 
L 131.050979 85.208952 
L 132.269652 94.768091 
L 134.706999 114.870815 
L 135.519447 120.311418 
L 136.331896 124.570779 
L 137.144345 127.446962 
L 137.550569 128.33053 
L 137.956794 128.838031 
L 138.363018 128.972483 
L 138.769243 128.742889 
L 139.175467 128.163907 
L 139.581691 127.255434 
L 140.39414 124.552814 
L 141.206589 120.878929 
L 142.425262 114.190581 
L 144.862609 100.461369 
L 145.675058 96.822056 
L 146.487506 94.006501 
L 147.299955 92.136865 
L 147.70618 91.576477 
L 148.112404 91.267797 
L 148.518628 91.207317 
L 148.924853 91.387699 
L 149.331077 91.798035 
L 150.143526 93.248955 
L 150.955975 95.413984 
L 152.174648 99.600746 
L 155.018219 110.223748 
L 155.830668 112.64547 
L 156.643117 114.53789 
L 157.455565 115.820307 
L 157.86179 116.218665 
L 158.268014 116.452662 
L 158.674239 116.523503 
L 159.080463 116.434708 
L 159.486687 116.191975 
L 160.299136 115.27737 
L 161.111585 113.862173 
L 162.330258 111.035387 
L 166.392502 100.621468 
L 167.204951 99.241843 
L 168.0174 98.304527 
L 168.829849 97.856837 
L 169.236073 97.824607 
L 169.642298 97.921196 
L 170.454746 98.494386 
L 171.267195 99.547659 
L 172.079644 101.027693 
L 173.298317 103.875995 
L 177.360561 114.257473 
L 178.17301 115.556615 
L 178.985459 116.332147 
L 179.391683 116.498753 
L 179.797908 116.50831 
L 180.204132 116.356189 
L 180.610357 116.040013 
L 181.422805 114.917943 
L 182.235254 113.172038 
L 183.047703 110.87289 
L 184.266376 106.637989 
L 187.109947 96.046277 
L 187.922396 93.729819 
L 188.734845 92.085125 
L 189.141069 91.564936 
L 189.547293 91.268002 
L 189.953518 91.206904 
L 190.359742 91.390801 
L 190.765967 91.825144 
L 191.172191 92.511448 
L 191.98464 94.625337 
L 192.797089 97.660884 
L 194.015762 103.621569 
L 197.671782 123.714678 
L 198.48423 126.685171 
L 198.890455 127.749421 
L 199.296679 128.495945 
L 199.702904 128.902404 
L 200.109128 128.951462 
L 200.515352 128.631243 
L 200.921577 127.935702 
L 201.327801 126.864905 
L 202.14025 123.629397 
L 202.952699 119.052006 
L 204.171372 110.188987 
L 207.421167 83.805264 
L 208.233616 78.977447 
L 209.046065 75.687626 
L 209.452289 74.717396 
L 209.858514 74.236457 
L 210.264738 74.265269 
L 210.670963 74.816293 
L 211.077187 75.89358 
L 211.483411 77.492497 
L 212.29586 82.192597 
L 213.108309 88.704429 
L 214.326982 101.084199 
L 217.576777 136.75754 
L 218.389226 143.047193 
L 219.201675 147.212112 
L 219.6079 148.378606 
L 220.014124 148.888838 
L 220.420348 148.721201 
L 220.826573 147.864887 
L 221.232797 146.320271 
L 221.639022 144.099128 
L 222.45147 137.731274 
L 223.263919 129.079434 
L 224.482592 112.911735 
L 227.326163 72.411852 
L 228.138612 63.553139 
L 228.951061 57.165901 
L 229.357285 55.061053 
L 229.76351 53.747098 
L 230.169734 53.257697 
L 230.575958 53.613478 
L 230.982183 54.821496 
L 231.388407 56.874918 
L 232.200856 63.420891 
L 233.013305 72.921351 
L 234.231978 91.495108 
L 237.887998 152.50217 
L 238.700447 161.405545 
L 239.106671 164.643135 
L 239.512895 166.98439 
L 239.91912 168.381235 
L 240.325344 168.800478 
L 240.731569 168.224518 
L 241.137793 166.651803 
L 241.544017 164.097034 
L 242.356466 156.180662 
L 243.168915 144.908511 
L 244.387588 123.2069 
L 247.637384 59.975507 
L 248.449832 48.512605 
L 249.262281 40.556428 
L 249.668506 38.080053 
L 250.07473 36.673543 
L 250.480954 36.367372 
L 250.887179 37.174357 
L 251.293403 39.089323 
L 251.699628 42.089067 
L 252.512076 51.161776 
L 253.324525 63.863431 
L 254.543198 87.978692 
L 257.386769 149.350073 
L 258.199218 163.121754 
L 259.011667 173.403979 
L 259.417891 177.011625 
L 259.824116 179.50867 
L 260.23034 180.850811 
L 260.636565 181.012278 
L 261.042789 179.986325 
L 261.449013 177.785402 
L 261.855238 174.441018 
L 262.667687 164.540161 
L 263.480135 150.892143 
L 264.698809 125.315167 
L 267.542379 61.533905 
L 268.354828 47.516697 
L 269.167277 37.198481 
L 269.573501 33.644308 
L 269.979726 31.242484 
L 270.38595 30.031796 
L 270.792175 30.031796 
L 271.198399 31.242484 
L 271.604624 33.644308 
L 272.010848 37.198481 
L 272.823297 47.516697 
L 273.635746 61.533905 
L 274.854419 87.475996 
L 277.69799 150.892143 
L 278.510438 164.540161 
L 279.322887 174.441018 
L 279.729112 177.785402 
L 280.135336 179.986325 
L 280.54156 181.012278 
L 280.947785 180.850811 
L 281.354009 179.50867 
L 281.760234 177.011625 
L 282.166458 173.403979 
L 282.978907 163.121754 
L 283.791356 149.350073 
L 285.010029 124.176528 
L 287.447375 71.342409 
L 288.259824 57.101987 
L 289.072273 46.132615 
L 289.884722 39.089323 
L 290.290946 37.174357 
L 290.697171 36.367372 
L 291.103395 36.673543 
L 291.509619 38.080053 
L 291.915844 40.556428 
L 292.728293 48.512605 
L 293.540741 59.975507 
L 294.759415 81.98772 
L 298.00921 144.908511 
L 298.821659 156.180662 
L 299.634108 164.097034 
L 300.040332 166.651803 
L 300.446556 168.224518 
L 300.852781 168.800478 
L 301.259005 168.381235 
L 301.66523 166.98439 
L 302.071454 164.643135 
L 302.883903 157.333631 
L 303.696352 146.99734 
L 304.915025 127.442231 
L 307.758596 78.619909 
L 308.571044 67.830684 
L 309.383493 59.752933 
L 309.789718 56.874918 
L 310.195942 54.821496 
L 310.602167 53.613478 
L 311.008391 53.257697 
L 311.414615 53.747098 
L 311.82084 55.061053 
L 312.227064 57.165901 
L 313.039513 63.553139 
L 313.851962 72.411852 
L 315.070635 88.90715 
L 317.507981 124.041844 
L 318.32043 133.664321 
L 319.132879 141.224649 
L 319.945328 146.320271 
L 320.351552 147.864887 
L 320.757777 148.721201 
L 321.164001 148.888838 
L 321.570225 148.378606 
L 321.97645 147.212112 
L 322.382674 145.421193 
L 323.195123 140.140098 
L 324.007572 132.963697 
L 325.226245 119.829001 
L 327.663592 92.536936 
L 328.47604 85.24062 
L 329.288489 79.599589 
L 330.100938 75.89358 
L 330.507162 74.816293 
L 330.913387 74.265269 
L 331.319611 74.236457 
L 331.725836 74.717396 
L 332.13206 75.687626 
L 332.538284 77.119223 
L 333.350733 81.221481 
L 334.163182 86.678382 
L 335.78808 99.957321 
L 337.412977 113.358715 
L 338.631651 121.496548 
L 339.444099 125.425219 
L 340.256548 127.935702 
L 340.662773 128.631243 
L 341.068997 128.951462 
L 341.475221 128.902404 
L 341.881446 128.495945 
L 342.28767 127.749421 
L 343.100119 125.330015 
L 343.912568 121.873155 
L 345.131241 115.36645 
L 347.568587 101.479388 
L 348.787261 96.035029 
L 349.59971 93.447118 
L 350.412158 91.825144 
L 350.818383 91.390801 
L 351.224607 91.206904 
L 351.630832 91.268002 
L 352.037056 91.564936 
L 352.44328 92.085125 
L 353.255729 93.729819 
L 354.068178 96.046277 
L 355.286851 100.367789 
L 357.724198 109.548833 
L 358.942871 113.172038 
L 359.75532 114.917943 
L 360.567768 116.040013 
L 360.973993 116.356189 
L 361.380217 116.50831 
L 361.786442 116.498753 
L 362.192666 116.332147 
L 362.598891 116.015217 
L 363.411339 114.966728 
L 364.223788 113.442085 
L 365.442461 110.506511 
L 368.692257 101.904798 
L 369.504705 100.238579 
L 370.317154 98.963786 
L 371.129603 98.145392 
L 371.535827 97.921196 
L 371.942052 97.824607 
L 372.348276 97.856837 
L 372.754501 98.017481 
L 373.566949 98.714371 
L 374.379398 99.880259 
L 375.191847 101.455934 
L 376.41052 104.404522 
L 379.660316 112.999032 
L 380.472764 114.626222 
L 381.285213 115.803014 
L 382.097662 116.434708 
L 382.503886 116.523503 
L 382.910111 116.452662 
L 383.316335 116.218665 
L 383.72256 115.820307 
L 384.535008 114.53789 
L 385.347457 112.64547 
L 386.159906 110.223748 
L 387.378579 105.870191 
L 389.815926 96.708987 
L 390.628375 94.252819 
L 391.440823 92.424151 
L 391.847048 91.798035 
L 392.253272 91.387699 
L 392.659497 91.207317 
L 393.065721 91.267797 
L 393.471945 91.576477 
L 393.87817 92.136865 
L 394.690619 94.006501 
L 395.503067 96.822056 
L 396.315516 100.461369 
L 397.534189 107.04163 
L 399.971536 120.878929 
L 400.783985 124.552814 
L 401.596434 127.255434 
L 402.002658 128.163907 
L 402.408882 128.742889 
L 402.815107 128.972483 
L 403.221331 128.838031 
L 403.627556 128.33053 
L 404.03378 127.446962 
L 404.440004 126.190526 
L 405.252453 122.603661 
L 406.064902 117.722412 
L 407.283575 108.543039 
L 410.127146 85.208952 
L 410.939595 80.054004 
L 411.752044 76.347773 
L 412.158268 75.142927 
L 412.564492 74.414304 
L 412.970717 74.186173 
L 413.376941 74.47505 
L 413.783166 75.289237 
L 414.18939 76.628468 
L 415.001839 80.837086 
L 415.814288 86.923316 
L 417.032961 98.856344 
L 420.688981 138.504381 
L 421.501429 144.304145 
L 421.907654 146.392335 
L 422.313878 147.875634 
L 422.720103 148.717352 
L 423.126327 148.890687 
L 423.532551 148.379371 
L 423.938776 147.178149 
L 424.345 145.293082 
L 425.157449 139.552741 
L 425.969898 131.432757 
L 427.188571 115.800399 
L 430.438366 69.998418 
L 431.250815 61.702456 
L 432.063264 56.017209 
L 432.469488 54.302812 
L 432.875713 53.397726 
L 433.281937 53.329176 
L 433.688162 54.111057 
L 434.094386 55.743505 
L 434.50061 58.212696 
L 435.313059 65.536576 
L 436.125508 75.699648 
L 437.344181 94.951203 
L 440.187752 144.022086 
L 441.000201 155.007708 
L 441.81265 163.13282 
L 442.218874 165.929148 
L 442.625099 167.803297 
L 443.031323 168.714529 
L 443.437547 168.637375 
L 443.843772 167.562217 
L 444.249996 165.495623 
L 444.656221 162.460403 
L 445.468669 153.655057 
L 446.281118 141.639075 
L 447.499791 119.203152 
L 450.343362 63.301501 
L 451.155811 51.076819 
L 451.96826 42.181612 
L 452.374484 39.187086 
L 452.780709 37.240752 
L 453.186933 36.381695 
L 453.593158 36.63162 
L 453.999382 37.994372 
L 454.405606 40.455748 
L 454.811831 43.983607 
L 455.62428 54.023271 
L 456.436728 67.520209 
L 457.655402 92.392886 
L 460.498972 153.073782 
L 461.311421 166.050462 
L 462.12387 175.343153 
L 462.530094 178.402168 
L 462.936319 180.326156 
L 463.342543 181.08 
L 463.748768 180.647401 
L 464.154992 179.031208 
L 464.561216 176.253439 
L 465.373665 167.39498 
L 466.186114 154.612498 
L 467.404787 129.882016 
L 470.654583 57.728501 
L 471.467031 44.560015 
L 472.27948 35.280511 
L 472.685705 32.296484 
L 473.091929 30.48657 
L 473.498153 29.88 
L 473.498153 29.88 
" clip-path="url(#pd20e605912)" style="fill: none; stroke: #2980b9; stroke-width: 2; stroke-linecap: square"/>
   </g>
   <g id="line2d_34">
    <path d="M 47.389062 106.313148 
L 493.789062 106.313148 
" clip-path="url(#pd20e605912)" style="fill: none; stroke: #000000; stroke-width: 0.8; stroke-linecap: square"/>
   </g>
   <g id="line2d_35">
    <path d="M 67.679972 188.64 
L 67.679972 22.32 
" clip-path="url(#pd20e605912)" style="fill: none; stroke: #000000; stroke-width: 0.8; stroke-linecap: square"/>
   </g>
   <g id="patch_3">
    <path d="M 47.389062 188.64 
L 47.389062 22.32 
" style="fill: none; stroke: #000000; stroke-width: 0.8; stroke-linejoin: miter; stroke-linecap: square"/>
   </g>
   <g id="patch_4">
    <path d="M 493.789062 188.64 
L 493.789062 22.32 
" style="fill: none; stroke: #000000; stroke-width: 0.8; stroke-linejoin: miter; stroke-linecap: square"/>
   </g>
   <g id="patch_5">
    <path d="M 47.389062 188.64 
L 493.789062 188.64 
" style="fill: none; stroke: #000000; stroke-width: 0.8; stroke-linejoin: miter; stroke-linecap: square"/>
   </g>
   <g id="patch_6">
    <path d="M 47.389062 22.32 
L 493.789062 22.32 
" style="fill: none; stroke: #000000; stroke-width: 0.8; stroke-linejoin: miter; stroke-linecap: square"/>
   </g>
   <g id="text_19">
    <!-- AM Waveform (Index $\mu=0.8$) -->
    <g transform="translate(182.749062 16.32) scale(0.12 -0.12)">
     <defs>
      <path id="DejaVuSans-4d" d="M 628 4666 
L 1569 4666 
L 2759 1491 
L 3956 4666 
L 4897 4666 
L 4897 0 
L 4281 0 
L 4281 4097 
L 3078 897 
L 2444 897 
L 1241 4097 
L 1241 0 
L 628 0 
L 628 4666 
z
" transform="scale(0.015625)"/>
      <path id="DejaVuSans-57" d="M 213 4666 
L 850 4666 
L 1831 722 
L 2809 4666 
L 3519 4666 
L 4500 722 
L 5478 4666 
L 6119 4666 
L 4947 0 
L 4153 0 
L 3169 4050 
L 2175 0 
L 1381 0 
L 213 4666 
z
" transform="scale(0.015625)"/>
      <path id="DejaVuSans-61" d="M 2194 1759 
Q 1497 1759 1228 1600 
Q 959 1441 959 1056 
Q 959 750 1161 570 
Q 1363 391 1709 391 
Q 2188 391 2477 730 
Q 2766 1069 2766 1631 
L 2766 1759 
L 2194 1759 
z
M 3341 1997 
L 3341 0 
L 2766 0 
L 2766 531 
Q 2569 213 2275 61 
Q 1981 -91 1556 -91 
Q 1019 -91 701 211 
Q 384 513 384 1019 
Q 384 1609 779 1909 
Q 1175 2209 1959 2209 
L 2766 2209 
L 2766 2266 
Q 2766 2663 2505 2880 
Q 2244 3097 1772 3097 
Q 1472 3097 1187 3025 
Q 903 2953 641 2809 
L 641 3341 
Q 956 3463 1253 3523 
Q 1550 3584 1831 3584 
Q 2591 3584 2966 3190 
Q 3341 2797 3341 1997 
z
" transform="scale(0.015625)"/>
      <path id="DejaVuSans-76" d="M 191 3500 
L 800 3500 
L 1894 563 
L 2988 3500 
L 3597 3500 
L 2284 0 
L 1503 0 
L 191 3500 
z
" transform="scale(0.015625)"/>
      <path id="DejaVuSans-66" d="M 2375 4863 
L 2375 4384 
L 1825 4384 
Q 1516 4384 1395 4259 
Q 1275 4134 1275 3809 
L 1275 3500 
L 2222 3500 
L 2222 3053 
L 1275 3053 
L 1275 0 
L 697 0 
L 697 3053 
L 147 3053 
L 147 3500 
L 697 3500 
L 697 3744 
Q 697 4328 969 4595 
Q 1241 4863 1831 4863 
L 2375 4863 
z
" transform="scale(0.015625)"/>
      <path id="DejaVuSans-6f" d="M 1959 3097 
Q 1497 3097 1228 2736 
Q 959 2375 959 1747 
Q 959 1119 1226 758 
Q 1494 397 1959 397 
Q 2419 397 2687 759 
Q 2956 1122 2956 1747 
Q 2956 2369 2687 2733 
Q 2419 3097 1959 3097 
z
M 1959 3584 
Q 2709 3584 3137 3096 
Q 3566 2609 3566 1747 
Q 3566 888 3137 398 
Q 2709 -91 1959 -91 
Q 1206 -91 779 398 
Q 353 888 353 1747 
Q 353 2609 779 3096 
Q 1206 3584 1959 3584 
z
" transform="scale(0.015625)"/>
      <path id="DejaVuSans-72" d="M 2631 2963 
Q 2534 3019 2420 3045 
Q 2306 3072 2169 3072 
Q 1681 3072 1420 2755 
Q 1159 2438 1159 1844 
L 1159 0 
L 581 0 
L 581 3500 
L 1159 3500 
L 1159 2956 
Q 1341 3275 1631 3429 
Q 1922 3584 2338 3584 
Q 2397 3584 2469 3576 
Q 2541 3569 2628 3553 
L 2631 2963 
z
" transform="scale(0.015625)"/>
      <path id="DejaVuSans-49" d="M 628 4666 
L 1259 4666 
L 1259 0 
L 628 0 
L 628 4666 
z
" transform="scale(0.015625)"/>
      <path id="DejaVuSans-6e" d="M 3513 2113 
L 3513 0 
L 2938 0 
L 2938 2094 
Q 2938 2591 2744 2837 
Q 2550 3084 2163 3084 
Q 1697 3084 1428 2787 
Q 1159 2491 1159 1978 
L 1159 0 
L 581 0 
L 581 3500 
L 1159 3500 
L 1159 2956 
Q 1366 3272 1645 3428 
Q 1925 3584 2291 3584 
Q 2894 3584 3203 3211 
Q 3513 2838 3513 2113 
z
" transform="scale(0.015625)"/>
      <path id="DejaVuSans-78" d="M 3513 3500 
L 2247 1797 
L 3578 0 
L 2900 0 
L 1881 1375 
L 863 0 
L 184 0 
L 1544 1831 
L 300 3500 
L 978 3500 
L 1906 2253 
L 2834 3500 
L 3513 3500 
z
" transform="scale(0.015625)"/>
      <path id="DejaVuSans-Oblique-3bc" d="M -84 -1331 
L 856 3500 
L 1434 3500 
L 1009 1322 
Q 997 1256 987 1175 
Q 978 1094 978 1013 
Q 978 722 1161 565 
Q 1344 409 1684 409 
Q 2147 409 2431 671 
Q 2716 934 2816 1459 
L 3213 3500 
L 3788 3500 
L 3266 809 
Q 3253 750 3248 706 
Q 3244 663 3244 628 
Q 3244 531 3283 486 
Q 3322 441 3406 441 
Q 3438 441 3492 456 
Q 3547 472 3647 513 
L 3559 50 
Q 3422 -19 3297 -55 
Q 3172 -91 3053 -91 
Q 2847 -91 2730 40 
Q 2613 172 2613 403 
Q 2438 153 2195 31 
Q 1953 -91 1625 -91 
Q 1334 -91 1117 43 
Q 900 178 831 397 
L 494 -1331 
L -84 -1331 
z
" transform="scale(0.015625)"/>
      <path id="DejaVuSans-3d" d="M 678 2906 
L 4684 2906 
L 4684 2381 
L 678 2381 
L 678 2906 
z
M 678 1631 
L 4684 1631 
L 4684 1100 
L 678 1100 
L 678 1631 
z
" transform="scale(0.015625)"/>
      <path id="DejaVuSans-38" d="M 2034 2216 
Q 1584 2216 1326 1975 
Q 1069 1734 1069 1313 
Q 1069 891 1326 650 
Q 1584 409 2034 409 
Q 2484 409 2743 651 
Q 3003 894 3003 1313 
Q 3003 1734 2745 1975 
Q 2488 2216 2034 2216 
z
M 1403 2484 
Q 997 2584 770 2862 
Q 544 3141 544 3541 
Q 544 4100 942 4425 
Q 1341 4750 2034 4750 
Q 2731 4750 3128 4425 
Q 3525 4100 3525 3541 
Q 3525 3141 3298 2862 
Q 3072 2584 2669 2484 
Q 3125 2378 3379 2068 
Q 3634 1759 3634 1313 
Q 3634 634 3220 271 
Q 2806 -91 2034 -91 
Q 1263 -91 848 271 
Q 434 634 434 1313 
Q 434 1759 690 2068 
Q 947 2378 1403 2484 
z
M 1172 3481 
Q 1172 3119 1398 2916 
Q 1625 2713 2034 2713 
Q 2441 2713 2670 2916 
Q 2900 3119 2900 3481 
Q 2900 3844 2670 4047 
Q 2441 4250 2034 4250 
Q 1625 4250 1398 4047 
Q 1172 3844 1172 3481 
z
" transform="scale(0.015625)"/>
     </defs>
     <use xlink:href="#DejaVuSans-41" transform="translate(0 0.015625)"/>
     <use xlink:href="#DejaVuSans-4d" transform="translate(68.408203 0.015625)"/>
     <use xlink:href="#DejaVuSans-20" transform="translate(154.6875 0.015625)"/>
     <use xlink:href="#DejaVuSans-57" transform="translate(186.474609 0.015625)"/>
     <use xlink:href="#DejaVuSans-61" transform="translate(285.351562 0.015625)"/>
     <use xlink:href="#DejaVuSans-76" transform="translate(346.630859 0.015625)"/>
     <use xlink:href="#DejaVuSans-65" transform="translate(405.810547 0.015625)"/>
     <use xlink:href="#DejaVuSans-66" transform="translate(467.333984 0.015625)"/>
     <use xlink:href="#DejaVuSans-6f" transform="translate(502.539062 0.015625)"/>
     <use xlink:href="#DejaVuSans-72" transform="translate(563.720703 0.015625)"/>
     <use xlink:href="#DejaVuSans-6d" transform="translate(604.833984 0.015625)"/>
     <use xlink:href="#DejaVuSans-20" transform="translate(702.246094 0.015625)"/>
     <use xlink:href="#DejaVuSans-28" transform="translate(734.033203 0.015625)"/>
     <use xlink:href="#DejaVuSans-49" transform="translate(773.046875 0.015625)"/>
     <use xlink:href="#DejaVuSans-6e" transform="translate(802.539062 0.015625)"/>
     <use xlink:href="#DejaVuSans-64" transform="translate(865.917969 0.015625)"/>
     <use xlink:href="#DejaVuSans-65" transform="translate(929.394531 0.015625)"/>
     <use xlink:href="#DejaVuSans-78" transform="translate(990.917969 0.015625)"/>
     <use xlink:href="#DejaVuSans-20" transform="translate(1050.097656 0.015625)"/>
     <use xlink:href="#DejaVuSans-Oblique-3bc" transform="translate(1081.884766 0.015625)"/>
     <use xlink:href="#DejaVuSans-3d" transform="translate(1164.990234 0.015625)"/>
     <use xlink:href="#DejaVuSans-30" transform="translate(1268.261719 0.015625)"/>
     <use xlink:href="#DejaVuSans-2e" transform="translate(1331.884766 0.015625)"/>
     <use xlink:href="#DejaVuSans-38" transform="translate(1361.046875 0.015625)"/>
     <use xlink:href="#DejaVuSans-29" transform="translate(1424.669922 0.015625)"/>
    </g>
   </g>
  </g>
 </g>
 <defs>
  <clipPath id="pd20e605912">
   <rect x="47.389062" y="22.32" width="446.4" height="166.32"/>
  </clipPath>
 </defs>
</svg>
