<?xml version="1.0" encoding="utf-8" standalone="no"?>
<!DOCTYPE svg PUBLIC "-//W3C//DTD SVG 1.1//EN"
  "http://www.w3.org/Graphics/SVG/1.1/DTD/svg11.dtd">
<svg xmlns:xlink="http://www.w3.org/1999/xlink" width="483.703125pt" height="212.51625pt" viewBox="0 0 483.703125 212.51625" xmlns="http://www.w3.org/2000/svg" version="1.1">
 <metadata>
  <rdf:RDF xmlns:dc="http://purl.org/dc/elements/1.1/" xmlns:cc="http://creativecommons.org/ns#" xmlns:rdf="http://www.w3.org/1999/02/22-rdf-syntax-ns#">
   <cc:Work>
    <dc:type rdf:resource="http://purl.org/dc/dcmitype/StillImage"/>
    <dc:date>2026-01-13T16:34:04.211905</dc:date>
    <dc:format>image/svg+xml</dc:format>
    <dc:creator>
     <cc:Agent>
      <dc:title>Matplotlib v3.10.8, https://matplotlib.org/</dc:title>
     </cc:Agent>
    </dc:creator>
   </cc:Work>
  </rdf:RDF>
 </metadata>
 <defs>
  <style type="text/css">*{stroke-linejoin: round; stroke-linecap: butt}</style>
 </defs>
 <g id="figure_1">
  <g id="patch_1">
   <path d="M 0 212.51625 
L 483.703125 212.51625 
L 483.703125 0 
L 0 0 
z
" style="fill: #ffffff"/>
  </g>
  <g id="axes_1">
   <g id="patch_2">
    <path d="M 30.103125 188.638125 
L 476.503125 188.638125 
L 476.503125 22.318125 
L 30.103125 22.318125 
z
" style="fill: #ffffff"/>
   </g>
   <g id="FillBetweenPolyCollection_1">
    <defs>
     <path id="ma7cb5ca764" d="M 253.709756 -182.033326 
L 253.709756 -31.438125 
L 254.523019 -31.438125 
L 255.336282 -31.438125 
L 256.149545 -31.438125 
L 256.962808 -31.438125 
L 257.776071 -31.438125 
L 258.589334 -31.438125 
L 259.402597 -31.438125 
L 260.21586 -31.438125 
L 261.029122 -31.438125 
L 261.842385 -31.438125 
L 262.655648 -31.438125 
L 263.468911 -31.438125 
L 264.282174 -31.438125 
L 265.095437 -31.438125 
L 265.9087 -31.438125 
L 266.721963 -31.438125 
L 267.535226 -31.438125 
L 268.348488 -31.438125 
L 269.161751 -31.438125 
L 269.975014 -31.438125 
L 270.788277 -31.438125 
L 271.60154 -31.438125 
L 272.414803 -31.438125 
L 273.228066 -31.438125 
L 274.041329 -31.438125 
L 274.854592 -31.438125 
L 275.667854 -31.438125 
L 276.481117 -31.438125 
L 277.29438 -31.438125 
L 278.107643 -31.438125 
L 278.920906 -31.438125 
L 279.734169 -31.438125 
L 280.547432 -31.438125 
L 281.360695 -31.438125 
L 282.173958 -31.438125 
L 282.98722 -31.438125 
L 283.800483 -31.438125 
L 284.613746 -31.438125 
L 285.427009 -31.438125 
L 286.240272 -31.438125 
L 287.053535 -31.438125 
L 287.866798 -31.438125 
L 288.680061 -31.438125 
L 289.493324 -31.438125 
L 290.306586 -31.438125 
L 291.119849 -31.438125 
L 291.933112 -31.438125 
L 292.746375 -31.438125 
L 293.559638 -31.438125 
L 294.372901 -31.438125 
L 295.186164 -31.438125 
L 295.999427 -31.438125 
L 296.81269 -31.438125 
L 297.625952 -31.438125 
L 298.439215 -31.438125 
L 299.252478 -31.438125 
L 300.065741 -31.438125 
L 300.879004 -31.438125 
L 301.692267 -31.438125 
L 302.50553 -31.438125 
L 303.318793 -31.438125 
L 304.132056 -31.438125 
L 304.945318 -31.438125 
L 305.758581 -31.438125 
L 306.571844 -31.438125 
L 307.385107 -31.438125 
L 308.19837 -31.438125 
L 309.011633 -31.438125 
L 309.824896 -31.438125 
L 310.638159 -31.438125 
L 311.451422 -31.438125 
L 312.264684 -31.438125 
L 313.077947 -31.438125 
L 313.89121 -31.438125 
L 314.704473 -31.438125 
L 315.517736 -31.438125 
L 316.330999 -31.438125 
L 317.144262 -31.438125 
L 317.957525 -31.438125 
L 318.770788 -31.438125 
L 319.58405 -31.438125 
L 320.397313 -31.438125 
L 321.210576 -31.438125 
L 322.023839 -31.438125 
L 322.837102 -31.438125 
L 323.650365 -31.438125 
L 324.463628 -31.438125 
L 325.276891 -31.438125 
L 326.090154 -31.438125 
L 326.903416 -31.438125 
L 327.716679 -31.438125 
L 328.529942 -31.438125 
L 329.343205 -31.438125 
L 330.156468 -31.438125 
L 330.969731 -31.438125 
L 331.782994 -31.438125 
L 332.596257 -31.438125 
L 333.40952 -31.438125 
L 334.222782 -31.438125 
L 335.036045 -31.438125 
L 335.849308 -31.438125 
L 336.662571 -31.438125 
L 337.475834 -31.438125 
L 338.289097 -31.438125 
L 339.10236 -31.438125 
L 339.915623 -31.438125 
L 340.728886 -31.438125 
L 341.542149 -31.438125 
L 342.355411 -31.438125 
L 343.168674 -31.438125 
L 343.981937 -31.438125 
L 344.7952 -31.438125 
L 345.608463 -31.438125 
L 346.421726 -31.438125 
L 347.234989 -31.438125 
L 348.048252 -31.438125 
L 348.861515 -31.438125 
L 349.674777 -31.438125 
L 350.48804 -31.438125 
L 351.301303 -31.438125 
L 352.114566 -31.438125 
L 352.927829 -31.438125 
L 353.741092 -31.438125 
L 354.554355 -31.438125 
L 354.554355 -87.173078 
L 354.554355 -87.173078 
L 353.741092 -87.621647 
L 352.927829 -88.073825 
L 352.114566 -88.529643 
L 351.301303 -88.98913 
L 350.48804 -89.452315 
L 349.674777 -89.919227 
L 348.861515 -90.389898 
L 348.048252 -90.864356 
L 347.234989 -91.342633 
L 346.421726 -91.824759 
L 345.608463 -92.310766 
L 344.7952 -92.800684 
L 343.981937 -93.294545 
L 343.168674 -93.79238 
L 342.355411 -94.294223 
L 341.542149 -94.800104 
L 340.728886 -95.310057 
L 339.915623 -95.824114 
L 339.10236 -96.342308 
L 338.289097 -96.864673 
L 337.475834 -97.391242 
L 336.662571 -97.922049 
L 335.849308 -98.457128 
L 335.036045 -98.996514 
L 334.222782 -99.54024 
L 333.40952 -100.088343 
L 332.596257 -100.640857 
L 331.782994 -101.197817 
L 330.969731 -101.759261 
L 330.156468 -102.325222 
L 329.343205 -102.895739 
L 328.529942 -103.470848 
L 327.716679 -104.050585 
L 326.903416 -104.634988 
L 326.090154 -105.224094 
L 325.276891 -105.817942 
L 324.463628 -106.416569 
L 323.650365 -107.020014 
L 322.837102 -107.628316 
L 322.023839 -108.241513 
L 321.210576 -108.859646 
L 320.397313 -109.482753 
L 319.58405 -110.110876 
L 318.770788 -110.744053 
L 317.957525 -111.382327 
L 317.144262 -112.025738 
L 316.330999 -112.674326 
L 315.517736 -113.328135 
L 314.704473 -113.987206 
L 313.89121 -114.651582 
L 313.077947 -115.321304 
L 312.264684 -115.996417 
L 311.451422 -116.676963 
L 310.638159 -117.362986 
L 309.824896 -118.05453 
L 309.011633 -118.75164 
L 308.19837 -119.454361 
L 307.385107 -120.162738 
L 306.571844 -120.876815 
L 305.758581 -121.59664 
L 304.945318 -122.322258 
L 304.132056 -123.053716 
L 303.318793 -123.79106 
L 302.50553 -124.53434 
L 301.692267 -125.283601 
L 300.879004 -126.038892 
L 300.065741 -126.800263 
L 299.252478 -127.567761 
L 298.439215 -128.341436 
L 297.625952 -129.121337 
L 296.81269 -129.907516 
L 295.999427 -130.700022 
L 295.186164 -131.498906 
L 294.372901 -132.30422 
L 293.559638 -133.116015 
L 292.746375 -133.934344 
L 291.933112 -134.759259 
L 291.119849 -135.590813 
L 290.306586 -136.429059 
L 289.493324 -137.274052 
L 288.680061 -138.125846 
L 287.866798 -138.984495 
L 287.053535 -139.850054 
L 286.240272 -140.72258 
L 285.427009 -141.602129 
L 284.613746 -142.488756 
L 283.800483 -143.382518 
L 282.98722 -144.283475 
L 282.173958 -145.191682 
L 281.360695 -146.107198 
L 280.547432 -147.030083 
L 279.734169 -147.960396 
L 278.920906 -148.898196 
L 278.107643 -149.843544 
L 277.29438 -150.796499 
L 276.481117 -151.757125 
L 275.667854 -152.725482 
L 274.854592 -153.701633 
L 274.041329 -154.685639 
L 273.228066 -155.677566 
L 272.414803 -156.677475 
L 271.60154 -157.685433 
L 270.788277 -158.701502 
L 269.975014 -159.725749 
L 269.161751 -160.75824 
L 268.348488 -161.79904 
L 267.535226 -162.848216 
L 266.721963 -163.905837 
L 265.9087 -164.97197 
L 265.095437 -166.046683 
L 264.282174 -167.130046 
L 263.468911 -168.222128 
L 262.655648 -169.323 
L 261.842385 -170.432731 
L 261.029122 -171.551394 
L 260.21586 -172.67906 
L 259.402597 -173.815802 
L 258.589334 -174.961693 
L 257.776071 -176.116806 
L 256.962808 -177.281215 
L 256.149545 -178.454996 
L 255.336282 -179.638224 
L 254.523019 -180.830975 
L 253.709756 -182.033326 
z
" style="stroke: #800080; stroke-opacity: 0.3"/>
    </defs>
    <g clip-path="url(#p5c4c5ab324)">
     <use xlink:href="#ma7cb5ca764" x="0" y="212.51625" style="fill: #800080; fill-opacity: 0.3; stroke: #800080; stroke-opacity: 0.3"/>
    </g>
   </g>
   <g id="matplotlib.axis_1">
    <g id="xtick_1">
     <g id="line2d_1">
      <path d="M 50.394034 188.638125 
L 50.394034 22.318125 
" clip-path="url(#p5c4c5ab324)" style="fill: none; stroke-dasharray: 2.96,1.28; stroke-dashoffset: 0; stroke: #b0b0b0; stroke-opacity: 0.5; stroke-width: 0.8"/>
     </g>
     <g id="line2d_2">
      <defs>
       <path id="m9aa91c3978" d="M 0 0 
L 0 3.5 
" style="stroke: #000000; stroke-width: 0.8"/>
      </defs>
      <g>
       <use xlink:href="#m9aa91c3978" x="50.394034" y="188.638125" style="stroke: #000000; stroke-width: 0.8"/>
      </g>
     </g>
     <g id="text_1">
      <!-- -2.0 -->
      <g transform="translate(40.638565 203.236563) scale(0.1 -0.1)">
       <defs>
        <path id="DejaVuSans-2d" d="M 313 2009 
L 1997 2009 
L 1997 1497 
L 313 1497 
L 313 2009 
z
" transform="scale(0.015625)"/>
        <path id="DejaVuSans-32" d="M 1228 531 
L 3431 531 
L 3431 0 
L 469 0 
L 469 531 
Q 828 903 1448 1529 
Q 2069 2156 2228 2338 
Q 2531 2678 2651 2914 
Q 2772 3150 2772 3378 
Q 2772 3750 2511 3984 
Q 2250 4219 1831 4219 
Q 1534 4219 1204 4116 
Q 875 4013 500 3803 
L 500 4441 
Q 881 4594 1212 4672 
Q 1544 4750 1819 4750 
Q 2544 4750 2975 4387 
Q 3406 4025 3406 3419 
Q 3406 3131 3298 2873 
Q 3191 2616 2906 2266 
Q 2828 2175 2409 1742 
Q 1991 1309 1228 531 
z
" transform="scale(0.015625)"/>
        <path id="DejaVuSans-2e" d="M 684 794 
L 1344 794 
L 1344 0 
L 684 0 
L 684 794 
z
" transform="scale(0.015625)"/>
        <path id="DejaVuSans-30" d="M 2034 4250 
Q 1547 4250 1301 3770 
Q 1056 3291 1056 2328 
Q 1056 1369 1301 889 
Q 1547 409 2034 409 
Q 2525 409 2770 889 
Q 3016 1369 3016 2328 
Q 3016 3291 2770 3770 
Q 2525 4250 2034 4250 
z
M 2034 4750 
Q 2819 4750 3233 4129 
Q 3647 3509 3647 2328 
Q 3647 1150 3233 529 
Q 2819 -91 2034 -91 
Q 1250 -91 836 529 
Q 422 1150 422 2328 
Q 422 3509 836 4129 
Q 1250 4750 2034 4750 
z
" transform="scale(0.015625)"/>
       </defs>
       <use xlink:href="#DejaVuSans-2d"/>
       <use xlink:href="#DejaVuSans-32" transform="translate(36.083984 0)"/>
       <use xlink:href="#DejaVuSans-2e" transform="translate(99.707031 0)"/>
       <use xlink:href="#DejaVuSans-30" transform="translate(131.494141 0)"/>
      </g>
     </g>
    </g>
    <g id="xtick_2">
     <g id="line2d_3">
      <path d="M 101.121307 188.638125 
L 101.121307 22.318125 
" clip-path="url(#p5c4c5ab324)" style="fill: none; stroke-dasharray: 2.96,1.28; stroke-dashoffset: 0; stroke: #b0b0b0; stroke-opacity: 0.5; stroke-width: 0.8"/>
     </g>
     <g id="line2d_4">
      <g>
       <use xlink:href="#m9aa91c3978" x="101.121307" y="188.638125" style="stroke: #000000; stroke-width: 0.8"/>
      </g>
     </g>
     <g id="text_2">
      <!-- -1.5 -->
      <g transform="translate(91.365838 203.236563) scale(0.1 -0.1)">
       <defs>
        <path id="DejaVuSans-31" d="M 794 531 
L 1825 531 
L 1825 4091 
L 703 3866 
L 703 4441 
L 1819 4666 
L 2450 4666 
L 2450 531 
L 3481 531 
L 3481 0 
L 794 0 
L 794 531 
z
" transform="scale(0.015625)"/>
        <path id="DejaVuSans-35" d="M 691 4666 
L 3169 4666 
L 3169 4134 
L 1269 4134 
L 1269 2991 
Q 1406 3038 1543 3061 
Q 1681 3084 1819 3084 
Q 2600 3084 3056 2656 
Q 3513 2228 3513 1497 
Q 3513 744 3044 326 
Q 2575 -91 1722 -91 
Q 1428 -91 1123 -41 
Q 819 9 494 109 
L 494 744 
Q 775 591 1075 516 
Q 1375 441 1709 441 
Q 2250 441 2565 725 
Q 2881 1009 2881 1497 
Q 2881 1984 2565 2268 
Q 2250 2553 1709 2553 
Q 1456 2553 1204 2497 
Q 953 2441 691 2322 
L 691 4666 
z
" transform="scale(0.015625)"/>
       </defs>
       <use xlink:href="#DejaVuSans-2d"/>
       <use xlink:href="#DejaVuSans-31" transform="translate(36.083984 0)"/>
       <use xlink:href="#DejaVuSans-2e" transform="translate(99.707031 0)"/>
       <use xlink:href="#DejaVuSans-35" transform="translate(131.494141 0)"/>
      </g>
     </g>
    </g>
    <g id="xtick_3">
     <g id="line2d_5">
      <path d="M 151.84858 188.638125 
L 151.84858 22.318125 
" clip-path="url(#p5c4c5ab324)" style="fill: none; stroke-dasharray: 2.96,1.28; stroke-dashoffset: 0; stroke: #b0b0b0; stroke-opacity: 0.5; stroke-width: 0.8"/>
     </g>
     <g id="line2d_6">
      <g>
       <use xlink:href="#m9aa91c3978" x="151.84858" y="188.638125" style="stroke: #000000; stroke-width: 0.8"/>
      </g>
     </g>
     <g id="text_3">
      <!-- -1.0 -->
      <g transform="translate(142.093111 203.236563) scale(0.1 -0.1)">
       <use xlink:href="#DejaVuSans-2d"/>
       <use xlink:href="#DejaVuSans-31" transform="translate(36.083984 0)"/>
       <use xlink:href="#DejaVuSans-2e" transform="translate(99.707031 0)"/>
       <use xlink:href="#DejaVuSans-30" transform="translate(131.494141 0)"/>
      </g>
     </g>
    </g>
    <g id="xtick_4">
     <g id="line2d_7">
      <path d="M 202.575852 188.638125 
L 202.575852 22.318125 
" clip-path="url(#p5c4c5ab324)" style="fill: none; stroke-dasharray: 2.96,1.28; stroke-dashoffset: 0; stroke: #b0b0b0; stroke-opacity: 0.5; stroke-width: 0.8"/>
     </g>
     <g id="line2d_8">
      <g>
       <use xlink:href="#m9aa91c3978" x="202.575852" y="188.638125" style="stroke: #000000; stroke-width: 0.8"/>
      </g>
     </g>
     <g id="text_4">
      <!-- -0.5 -->
      <g transform="translate(192.820384 203.236563) scale(0.1 -0.1)">
       <use xlink:href="#DejaVuSans-2d"/>
       <use xlink:href="#DejaVuSans-30" transform="translate(36.083984 0)"/>
       <use xlink:href="#DejaVuSans-2e" transform="translate(99.707031 0)"/>
       <use xlink:href="#DejaVuSans-35" transform="translate(131.494141 0)"/>
      </g>
     </g>
    </g>
    <g id="xtick_5">
     <g id="line2d_9">
      <path d="M 253.303125 188.638125 
L 253.303125 22.318125 
" clip-path="url(#p5c4c5ab324)" style="fill: none; stroke-dasharray: 2.96,1.28; stroke-dashoffset: 0; stroke: #b0b0b0; stroke-opacity: 0.5; stroke-width: 0.8"/>
     </g>
     <g id="line2d_10">
      <g>
       <use xlink:href="#m9aa91c3978" x="253.303125" y="188.638125" style="stroke: #000000; stroke-width: 0.8"/>
      </g>
     </g>
     <g id="text_5">
      <!-- 0.0 -->
      <g transform="translate(245.351562 203.236563) scale(0.1 -0.1)">
       <use xlink:href="#DejaVuSans-30"/>
       <use xlink:href="#DejaVuSans-2e" transform="translate(63.623047 0)"/>
       <use xlink:href="#DejaVuSans-30" transform="translate(95.410156 0)"/>
      </g>
     </g>
    </g>
    <g id="xtick_6">
     <g id="line2d_11">
      <path d="M 304.030398 188.638125 
L 304.030398 22.318125 
" clip-path="url(#p5c4c5ab324)" style="fill: none; stroke-dasharray: 2.96,1.28; stroke-dashoffset: 0; stroke: #b0b0b0; stroke-opacity: 0.5; stroke-width: 0.8"/>
     </g>
     <g id="line2d_12">
      <g>
       <use xlink:href="#m9aa91c3978" x="304.030398" y="188.638125" style="stroke: #000000; stroke-width: 0.8"/>
      </g>
     </g>
     <g id="text_6">
      <!-- 0.5 -->
      <g transform="translate(296.078835 203.236563) scale(0.1 -0.1)">
       <use xlink:href="#DejaVuSans-30"/>
       <use xlink:href="#DejaVuSans-2e" transform="translate(63.623047 0)"/>
       <use xlink:href="#DejaVuSans-35" transform="translate(95.410156 0)"/>
      </g>
     </g>
    </g>
    <g id="xtick_7">
     <g id="line2d_13">
      <path d="M 354.75767 188.638125 
L 354.75767 22.318125 
" clip-path="url(#p5c4c5ab324)" style="fill: none; stroke-dasharray: 2.96,1.28; stroke-dashoffset: 0; stroke: #b0b0b0; stroke-opacity: 0.5; stroke-width: 0.8"/>
     </g>
     <g id="line2d_14">
      <g>
       <use xlink:href="#m9aa91c3978" x="354.75767" y="188.638125" style="stroke: #000000; stroke-width: 0.8"/>
      </g>
     </g>
     <g id="text_7">
      <!-- 1.0 -->
      <g transform="translate(346.806108 203.236563) scale(0.1 -0.1)">
       <use xlink:href="#DejaVuSans-31"/>
       <use xlink:href="#DejaVuSans-2e" transform="translate(63.623047 0)"/>
       <use xlink:href="#DejaVuSans-30" transform="translate(95.410156 0)"/>
      </g>
     </g>
    </g>
    <g id="xtick_8">
     <g id="line2d_15">
      <path d="M 405.484943 188.638125 
L 405.484943 22.318125 
" clip-path="url(#p5c4c5ab324)" style="fill: none; stroke-dasharray: 2.96,1.28; stroke-dashoffset: 0; stroke: #b0b0b0; stroke-opacity: 0.5; stroke-width: 0.8"/>
     </g>
     <g id="line2d_16">
      <g>
       <use xlink:href="#m9aa91c3978" x="405.484943" y="188.638125" style="stroke: #000000; stroke-width: 0.8"/>
      </g>
     </g>
     <g id="text_8">
      <!-- 1.5 -->
      <g transform="translate(397.533381 203.236563) scale(0.1 -0.1)">
       <use xlink:href="#DejaVuSans-31"/>
       <use xlink:href="#DejaVuSans-2e" transform="translate(63.623047 0)"/>
       <use xlink:href="#DejaVuSans-35" transform="translate(95.410156 0)"/>
      </g>
     </g>
    </g>
    <g id="xtick_9">
     <g id="line2d_17">
      <path d="M 456.212216 188.638125 
L 456.212216 22.318125 
" clip-path="url(#p5c4c5ab324)" style="fill: none; stroke-dasharray: 2.96,1.28; stroke-dashoffset: 0; stroke: #b0b0b0; stroke-opacity: 0.5; stroke-width: 0.8"/>
     </g>
     <g id="line2d_18">
      <g>
       <use xlink:href="#m9aa91c3978" x="456.212216" y="188.638125" style="stroke: #000000; stroke-width: 0.8"/>
      </g>
     </g>
     <g id="text_9">
      <!-- 2.0 -->
      <g transform="translate(448.260653 203.236563) scale(0.1 -0.1)">
       <use xlink:href="#DejaVuSans-32"/>
       <use xlink:href="#DejaVuSans-2e" transform="translate(63.623047 0)"/>
       <use xlink:href="#DejaVuSans-30" transform="translate(95.410156 0)"/>
      </g>
     </g>
    </g>
   </g>
   <g id="matplotlib.axis_2">
    <g id="ytick_1">
     <g id="line2d_19">
      <path d="M 30.103125 181.078125 
L 476.503125 181.078125 
" clip-path="url(#p5c4c5ab324)" style="fill: none; stroke-dasharray: 2.96,1.28; stroke-dashoffset: 0; stroke: #b0b0b0; stroke-opacity: 0.5; stroke-width: 0.8"/>
     </g>
     <g id="line2d_20">
      <defs>
       <path id="m79ae489a95" d="M 0 0 
L -3.5 0 
" style="stroke: #000000; stroke-width: 0.8"/>
      </defs>
      <g>
       <use xlink:href="#m79ae489a95" x="30.103125" y="181.078125" style="stroke: #000000; stroke-width: 0.8"/>
      </g>
     </g>
     <g id="text_10">
      <!-- 0.0 -->
      <g transform="translate(7.2 184.877344) scale(0.1 -0.1)">
       <use xlink:href="#DejaVuSans-30"/>
       <use xlink:href="#DejaVuSans-2e" transform="translate(63.623047 0)"/>
       <use xlink:href="#DejaVuSans-30" transform="translate(95.410156 0)"/>
      </g>
     </g>
    </g>
    <g id="ytick_2">
     <g id="line2d_21">
      <path d="M 30.103125 150.838125 
L 476.503125 150.838125 
" clip-path="url(#p5c4c5ab324)" style="fill: none; stroke-dasharray: 2.96,1.28; stroke-dashoffset: 0; stroke: #b0b0b0; stroke-opacity: 0.5; stroke-width: 0.8"/>
     </g>
     <g id="line2d_22">
      <g>
       <use xlink:href="#m79ae489a95" x="30.103125" y="150.838125" style="stroke: #000000; stroke-width: 0.8"/>
      </g>
     </g>
     <g id="text_11">
      <!-- 0.2 -->
      <g transform="translate(7.2 154.637344) scale(0.1 -0.1)">
       <use xlink:href="#DejaVuSans-30"/>
       <use xlink:href="#DejaVuSans-2e" transform="translate(63.623047 0)"/>
       <use xlink:href="#DejaVuSans-32" transform="translate(95.410156 0)"/>
      </g>
     </g>
    </g>
    <g id="ytick_3">
     <g id="line2d_23">
      <path d="M 30.103125 120.598125 
L 476.503125 120.598125 
" clip-path="url(#p5c4c5ab324)" style="fill: none; stroke-dasharray: 2.96,1.28; stroke-dashoffset: 0; stroke: #b0b0b0; stroke-opacity: 0.5; stroke-width: 0.8"/>
     </g>
     <g id="line2d_24">
      <g>
       <use xlink:href="#m79ae489a95" x="30.103125" y="120.598125" style="stroke: #000000; stroke-width: 0.8"/>
      </g>
     </g>
     <g id="text_12">
      <!-- 0.4 -->
      <g transform="translate(7.2 124.397344) scale(0.1 -0.1)">
       <defs>
        <path id="DejaVuSans-34" d="M 2419 4116 
L 825 1625 
L 2419 1625 
L 2419 4116 
z
M 2253 4666 
L 3047 4666 
L 3047 1625 
L 3713 1625 
L 3713 1100 
L 3047 1100 
L 3047 0 
L 2419 0 
L 2419 1100 
L 313 1100 
L 313 1709 
L 2253 4666 
z
" transform="scale(0.015625)"/>
       </defs>
       <use xlink:href="#DejaVuSans-30"/>
       <use xlink:href="#DejaVuSans-2e" transform="translate(63.623047 0)"/>
       <use xlink:href="#DejaVuSans-34" transform="translate(95.410156 0)"/>
      </g>
     </g>
    </g>
    <g id="ytick_4">
     <g id="line2d_25">
      <path d="M 30.103125 90.358125 
L 476.503125 90.358125 
" clip-path="url(#p5c4c5ab324)" style="fill: none; stroke-dasharray: 2.96,1.28; stroke-dashoffset: 0; stroke: #b0b0b0; stroke-opacity: 0.5; stroke-width: 0.8"/>
     </g>
     <g id="line2d_26">
      <g>
       <use xlink:href="#m79ae489a95" x="30.103125" y="90.358125" style="stroke: #000000; stroke-width: 0.8"/>
      </g>
     </g>
     <g id="text_13">
      <!-- 0.6 -->
      <g transform="translate(7.2 94.157344) scale(0.1 -0.1)">
       <defs>
        <path id="DejaVuSans-36" d="M 2113 2584 
Q 1688 2584 1439 2293 
Q 1191 2003 1191 1497 
Q 1191 994 1439 701 
Q 1688 409 2113 409 
Q 2538 409 2786 701 
Q 3034 994 3034 1497 
Q 3034 2003 2786 2293 
Q 2538 2584 2113 2584 
z
M 3366 4563 
L 3366 3988 
Q 3128 4100 2886 4159 
Q 2644 4219 2406 4219 
Q 1781 4219 1451 3797 
Q 1122 3375 1075 2522 
Q 1259 2794 1537 2939 
Q 1816 3084 2150 3084 
Q 2853 3084 3261 2657 
Q 3669 2231 3669 1497 
Q 3669 778 3244 343 
Q 2819 -91 2113 -91 
Q 1303 -91 875 529 
Q 447 1150 447 2328 
Q 447 3434 972 4092 
Q 1497 4750 2381 4750 
Q 2619 4750 2861 4703 
Q 3103 4656 3366 4563 
z
" transform="scale(0.015625)"/>
       </defs>
       <use xlink:href="#DejaVuSans-30"/>
       <use xlink:href="#DejaVuSans-2e" transform="translate(63.623047 0)"/>
       <use xlink:href="#DejaVuSans-36" transform="translate(95.410156 0)"/>
      </g>
     </g>
    </g>
    <g id="ytick_5">
     <g id="line2d_27">
      <path d="M 30.103125 60.118125 
L 476.503125 60.118125 
" clip-path="url(#p5c4c5ab324)" style="fill: none; stroke-dasharray: 2.96,1.28; stroke-dashoffset: 0; stroke: #b0b0b0; stroke-opacity: 0.5; stroke-width: 0.8"/>
     </g>
     <g id="line2d_28">
      <g>
       <use xlink:href="#m79ae489a95" x="30.103125" y="60.118125" style="stroke: #000000; stroke-width: 0.8"/>
      </g>
     </g>
     <g id="text_14">
      <!-- 0.8 -->
      <g transform="translate(7.2 63.917344) scale(0.1 -0.1)">
       <defs>
        <path id="DejaVuSans-38" d="M 2034 2216 
Q 1584 2216 1326 1975 
Q 1069 1734 1069 1313 
Q 1069 891 1326 650 
Q 1584 409 2034 409 
Q 2484 409 2743 651 
Q 3003 894 3003 1313 
Q 3003 1734 2745 1975 
Q 2488 2216 2034 2216 
z
M 1403 2484 
Q 997 2584 770 2862 
Q 544 3141 544 3541 
Q 544 4100 942 4425 
Q 1341 4750 2034 4750 
Q 2731 4750 3128 4425 
Q 3525 4100 3525 3541 
Q 3525 3141 3298 2862 
Q 3072 2584 2669 2484 
Q 3125 2378 3379 2068 
Q 3634 1759 3634 1313 
Q 3634 634 3220 271 
Q 2806 -91 2034 -91 
Q 1263 -91 848 271 
Q 434 634 434 1313 
Q 434 1759 690 2068 
Q 947 2378 1403 2484 
z
M 1172 3481 
Q 1172 3119 1398 2916 
Q 1625 2713 2034 2713 
Q 2441 2713 2670 2916 
Q 2900 3119 2900 3481 
Q 2900 3844 2670 4047 
Q 2441 4250 2034 4250 
Q 1625 4250 1398 4047 
Q 1172 3844 1172 3481 
z
" transform="scale(0.015625)"/>
       </defs>
       <use xlink:href="#DejaVuSans-30"/>
       <use xlink:href="#DejaVuSans-2e" transform="translate(63.623047 0)"/>
       <use xlink:href="#DejaVuSans-38" transform="translate(95.410156 0)"/>
      </g>
     </g>
    </g>
    <g id="ytick_6">
     <g id="line2d_29">
      <path d="M 30.103125 29.878125 
L 476.503125 29.878125 
" clip-path="url(#p5c4c5ab324)" style="fill: none; stroke-dasharray: 2.96,1.28; stroke-dashoffset: 0; stroke: #b0b0b0; stroke-opacity: 0.5; stroke-width: 0.8"/>
     </g>
     <g id="line2d_30">
      <g>
       <use xlink:href="#m79ae489a95" x="30.103125" y="29.878125" style="stroke: #000000; stroke-width: 0.8"/>
      </g>
     </g>
     <g id="text_15">
      <!-- 1.0 -->
      <g transform="translate(7.2 33.677344) scale(0.1 -0.1)">
       <use xlink:href="#DejaVuSans-31"/>
       <use xlink:href="#DejaVuSans-2e" transform="translate(63.623047 0)"/>
       <use xlink:href="#DejaVuSans-30" transform="translate(95.410156 0)"/>
      </g>
     </g>
    </g>
   </g>
   <g id="line2d_31">
    <path d="M 50.394034 181.078125 
L 252.896494 181.078125 
L 253.709756 29.878125 
L 354.554355 29.878125 
L 355.367618 181.078125 
L 456.212216 181.078125 
L 456.212216 181.078125 
" clip-path="url(#p5c4c5ab324)" style="fill: none; stroke: #1f77b4; stroke-opacity: 0.7; stroke-width: 1.5; stroke-linecap: square"/>
   </g>
   <g id="line2d_32">
    <path d="M 50.394034 181.078125 
L 252.896494 181.078125 
L 253.709756 30.482924 
L 258.589334 37.554557 
L 264.282174 45.386204 
L 269.975014 52.790501 
L 275.667854 59.790768 
L 281.360695 66.409052 
L 287.053535 72.666196 
L 292.746375 78.581906 
L 298.439215 84.174814 
L 304.132056 89.462534 
L 309.824896 94.46172 
L 315.517736 99.188115 
L 321.210576 103.656604 
L 327.716679 108.465665 
L 334.222782 112.97601 
L 340.728886 117.206193 
L 347.234989 121.173617 
L 353.741092 124.894603 
L 361.060458 128.805165 
L 368.379824 132.443539 
L 375.69919 135.828669 
L 383.018556 138.978184 
L 391.151185 142.221211 
L 399.283814 145.214423 
L 407.416443 147.977062 
L 416.362334 150.770812 
L 425.308226 153.328768 
L 435.067381 155.873682 
L 444.826535 158.1852 
L 455.398953 160.450741 
L 456.212216 160.61543 
L 456.212216 160.61543 
" clip-path="url(#p5c4c5ab324)" style="fill: none; stroke: #ff7f0e; stroke-opacity: 0.7; stroke-width: 1.5; stroke-linecap: square"/>
   </g>
   <g id="patch_3">
    <path d="M 30.103125 188.638125 
L 30.103125 22.318125 
" style="fill: none; stroke: #000000; stroke-width: 0.8; stroke-linejoin: miter; stroke-linecap: square"/>
   </g>
   <g id="patch_4">
    <path d="M 476.503125 188.638125 
L 476.503125 22.318125 
" style="fill: none; stroke: #000000; stroke-width: 0.8; stroke-linejoin: miter; stroke-linecap: square"/>
   </g>
   <g id="patch_5">
    <path d="M 30.103125 188.638125 
L 476.503125 188.638125 
" style="fill: none; stroke: #000000; stroke-width: 0.8; stroke-linejoin: miter; stroke-linecap: square"/>
   </g>
   <g id="patch_6">
    <path d="M 30.103125 22.318125 
L 476.503125 22.318125 
" style="fill: none; stroke: #000000; stroke-width: 0.8; stroke-linejoin: miter; stroke-linecap: square"/>
   </g>
   <g id="text_16">
    <!-- Concept of Signal Correlation -->
    <g transform="translate(165.469687 16.318125) scale(0.12 -0.12)">
     <defs>
      <path id="DejaVuSans-43" d="M 4122 4306 
L 4122 3641 
Q 3803 3938 3442 4084 
Q 3081 4231 2675 4231 
Q 1875 4231 1450 3742 
Q 1025 3253 1025 2328 
Q 1025 1406 1450 917 
Q 1875 428 2675 428 
Q 3081 428 3442 575 
Q 3803 722 4122 1019 
L 4122 359 
Q 3791 134 3420 21 
Q 3050 -91 2638 -91 
Q 1578 -91 968 557 
Q 359 1206 359 2328 
Q 359 3453 968 4101 
Q 1578 4750 2638 4750 
Q 3056 4750 3426 4639 
Q 3797 4528 4122 4306 
z
" transform="scale(0.015625)"/>
      <path id="DejaVuSans-6f" d="M 1959 3097 
Q 1497 3097 1228 2736 
Q 959 2375 959 1747 
Q 959 1119 1226 758 
Q 1494 397 1959 397 
Q 2419 397 2687 759 
Q 2956 1122 2956 1747 
Q 2956 2369 2687 2733 
Q 2419 3097 1959 3097 
z
M 1959 3584 
Q 2709 3584 3137 3096 
Q 3566 2609 3566 1747 
Q 3566 888 3137 398 
Q 2709 -91 1959 -91 
Q 1206 -91 779 398 
Q 353 888 353 1747 
Q 353 2609 779 3096 
Q 1206 3584 1959 3584 
z
" transform="scale(0.015625)"/>
      <path id="DejaVuSans-6e" d="M 3513 2113 
L 3513 0 
L 2938 0 
L 2938 2094 
Q 2938 2591 2744 2837 
Q 2550 3084 2163 3084 
Q 1697 3084 1428 2787 
Q 1159 2491 1159 1978 
L 1159 0 
L 581 0 
L 581 3500 
L 1159 3500 
L 1159 2956 
Q 1366 3272 1645 3428 
Q 1925 3584 2291 3584 
Q 2894 3584 3203 3211 
Q 3513 2838 3513 2113 
z
" transform="scale(0.015625)"/>
      <path id="DejaVuSans-63" d="M 3122 3366 
L 3122 2828 
Q 2878 2963 2633 3030 
Q 2388 3097 2138 3097 
Q 1578 3097 1268 2742 
Q 959 2388 959 1747 
Q 959 1106 1268 751 
Q 1578 397 2138 397 
Q 2388 397 2633 464 
Q 2878 531 3122 666 
L 3122 134 
Q 2881 22 2623 -34 
Q 2366 -91 2075 -91 
Q 1284 -91 818 406 
Q 353 903 353 1747 
Q 353 2603 823 3093 
Q 1294 3584 2113 3584 
Q 2378 3584 2631 3529 
Q 2884 3475 3122 3366 
z
" transform="scale(0.015625)"/>
      <path id="DejaVuSans-65" d="M 3597 1894 
L 3597 1613 
L 953 1613 
Q 991 1019 1311 708 
Q 1631 397 2203 397 
Q 2534 397 2845 478 
Q 3156 559 3463 722 
L 3463 178 
Q 3153 47 2828 -22 
Q 2503 -91 2169 -91 
Q 1331 -91 842 396 
Q 353 884 353 1716 
Q 353 2575 817 3079 
Q 1281 3584 2069 3584 
Q 2775 3584 3186 3129 
Q 3597 2675 3597 1894 
z
M 3022 2063 
Q 3016 2534 2758 2815 
Q 2500 3097 2075 3097 
Q 1594 3097 1305 2825 
Q 1016 2553 972 2059 
L 3022 2063 
z
" transform="scale(0.015625)"/>
      <path id="DejaVuSans-70" d="M 1159 525 
L 1159 -1331 
L 581 -1331 
L 581 3500 
L 1159 3500 
L 1159 2969 
Q 1341 3281 1617 3432 
Q 1894 3584 2278 3584 
Q 2916 3584 3314 3078 
Q 3713 2572 3713 1747 
Q 3713 922 3314 415 
Q 2916 -91 2278 -91 
Q 1894 -91 1617 61 
Q 1341 213 1159 525 
z
M 3116 1747 
Q 3116 2381 2855 2742 
Q 2594 3103 2138 3103 
Q 1681 3103 1420 2742 
Q 1159 2381 1159 1747 
Q 1159 1113 1420 752 
Q 1681 391 2138 391 
Q 2594 391 2855 752 
Q 3116 1113 3116 1747 
z
" transform="scale(0.015625)"/>
      <path id="DejaVuSans-74" d="M 1172 4494 
L 1172 3500 
L 2356 3500 
L 2356 3053 
L 1172 3053 
L 1172 1153 
Q 1172 725 1289 603 
Q 1406 481 1766 481 
L 2356 481 
L 2356 0 
L 1766 0 
Q 1100 0 847 248 
Q 594 497 594 1153 
L 594 3053 
L 172 3053 
L 172 3500 
L 594 3500 
L 594 4494 
L 1172 4494 
z
" transform="scale(0.015625)"/>
      <path id="DejaVuSans-20" transform="scale(0.015625)"/>
      <path id="DejaVuSans-66" d="M 2375 4863 
L 2375 4384 
L 1825 4384 
Q 1516 4384 1395 4259 
Q 1275 4134 1275 3809 
L 1275 3500 
L 2222 3500 
L 2222 3053 
L 1275 3053 
L 1275 0 
L 697 0 
L 697 3053 
L 147 3053 
L 147 3500 
L 697 3500 
L 697 3744 
Q 697 4328 969 4595 
Q 1241 4863 1831 4863 
L 2375 4863 
z
" transform="scale(0.015625)"/>
      <path id="DejaVuSans-53" d="M 3425 4513 
L 3425 3897 
Q 3066 4069 2747 4153 
Q 2428 4238 2131 4238 
Q 1616 4238 1336 4038 
Q 1056 3838 1056 3469 
Q 1056 3159 1242 3001 
Q 1428 2844 1947 2747 
L 2328 2669 
Q 3034 2534 3370 2195 
Q 3706 1856 3706 1288 
Q 3706 609 3251 259 
Q 2797 -91 1919 -91 
Q 1588 -91 1214 -16 
Q 841 59 441 206 
L 441 856 
Q 825 641 1194 531 
Q 1563 422 1919 422 
Q 2459 422 2753 634 
Q 3047 847 3047 1241 
Q 3047 1584 2836 1778 
Q 2625 1972 2144 2069 
L 1759 2144 
Q 1053 2284 737 2584 
Q 422 2884 422 3419 
Q 422 4038 858 4394 
Q 1294 4750 2059 4750 
Q 2388 4750 2728 4690 
Q 3069 4631 3425 4513 
z
" transform="scale(0.015625)"/>
      <path id="DejaVuSans-69" d="M 603 3500 
L 1178 3500 
L 1178 0 
L 603 0 
L 603 3500 
z
M 603 4863 
L 1178 4863 
L 1178 4134 
L 603 4134 
L 603 4863 
z
" transform="scale(0.015625)"/>
      <path id="DejaVuSans-67" d="M 2906 1791 
Q 2906 2416 2648 2759 
Q 2391 3103 1925 3103 
Q 1463 3103 1205 2759 
Q 947 2416 947 1791 
Q 947 1169 1205 825 
Q 1463 481 1925 481 
Q 2391 481 2648 825 
Q 2906 1169 2906 1791 
z
M 3481 434 
Q 3481 -459 3084 -895 
Q 2688 -1331 1869 -1331 
Q 1566 -1331 1297 -1286 
Q 1028 -1241 775 -1147 
L 775 -588 
Q 1028 -725 1275 -790 
Q 1522 -856 1778 -856 
Q 2344 -856 2625 -561 
Q 2906 -266 2906 331 
L 2906 616 
Q 2728 306 2450 153 
Q 2172 0 1784 0 
Q 1141 0 747 490 
Q 353 981 353 1791 
Q 353 2603 747 3093 
Q 1141 3584 1784 3584 
Q 2172 3584 2450 3431 
Q 2728 3278 2906 2969 
L 2906 3500 
L 3481 3500 
L 3481 434 
z
" transform="scale(0.015625)"/>
      <path id="DejaVuSans-61" d="M 2194 1759 
Q 1497 1759 1228 1600 
Q 959 1441 959 1056 
Q 959 750 1161 570 
Q 1363 391 1709 391 
Q 2188 391 2477 730 
Q 2766 1069 2766 1631 
L 2766 1759 
L 2194 1759 
z
M 3341 1997 
L 3341 0 
L 2766 0 
L 2766 531 
Q 2569 213 2275 61 
Q 1981 -91 1556 -91 
Q 1019 -91 701 211 
Q 384 513 384 1019 
Q 384 1609 779 1909 
Q 1175 2209 1959 2209 
L 2766 2209 
L 2766 2266 
Q 2766 2663 2505 2880 
Q 2244 3097 1772 3097 
Q 1472 3097 1187 3025 
Q 903 2953 641 2809 
L 641 3341 
Q 956 3463 1253 3523 
Q 1550 3584 1831 3584 
Q 2591 3584 2966 3190 
Q 3341 2797 3341 1997 
z
" transform="scale(0.015625)"/>
      <path id="DejaVuSans-6c" d="M 603 4863 
L 1178 4863 
L 1178 0 
L 603 0 
L 603 4863 
z
" transform="scale(0.015625)"/>
      <path id="DejaVuSans-72" d="M 2631 2963 
Q 2534 3019 2420 3045 
Q 2306 3072 2169 3072 
Q 1681 3072 1420 2755 
Q 1159 2438 1159 1844 
L 1159 0 
L 581 0 
L 581 3500 
L 1159 3500 
L 1159 2956 
Q 1341 3275 1631 3429 
Q 1922 3584 2338 3584 
Q 2397 3584 2469 3576 
Q 2541 3569 2628 3553 
L 2631 2963 
z
" transform="scale(0.015625)"/>
     </defs>
     <use xlink:href="#DejaVuSans-43"/>
     <use xlink:href="#DejaVuSans-6f" transform="translate(69.824219 0)"/>
     <use xlink:href="#DejaVuSans-6e" transform="translate(131.005859 0)"/>
     <use xlink:href="#DejaVuSans-63" transform="translate(194.384766 0)"/>
     <use xlink:href="#DejaVuSans-65" transform="translate(249.365234 0)"/>
     <use xlink:href="#DejaVuSans-70" transform="translate(310.888672 0)"/>
     <use xlink:href="#DejaVuSans-74" transform="translate(374.365234 0)"/>
     <use xlink:href="#DejaVuSans-20" transform="translate(413.574219 0)"/>
     <use xlink:href="#DejaVuSans-6f" transform="translate(445.361328 0)"/>
     <use xlink:href="#DejaVuSans-66" transform="translate(506.542969 0)"/>
     <use xlink:href="#DejaVuSans-20" transform="translate(541.748047 0)"/>
     <use xlink:href="#DejaVuSans-53" transform="translate(573.535156 0)"/>
     <use xlink:href="#DejaVuSans-69" transform="translate(637.011719 0)"/>
     <use xlink:href="#DejaVuSans-67" transform="translate(664.794922 0)"/>
     <use xlink:href="#DejaVuSans-6e" transform="translate(728.271484 0)"/>
     <use xlink:href="#DejaVuSans-61" transform="translate(791.650391 0)"/>
     <use xlink:href="#DejaVuSans-6c" transform="translate(852.929688 0)"/>
     <use xlink:href="#DejaVuSans-20" transform="translate(880.712891 0)"/>
     <use xlink:href="#DejaVuSans-43" transform="translate(912.5 0)"/>
     <use xlink:href="#DejaVuSans-6f" transform="translate(982.324219 0)"/>
     <use xlink:href="#DejaVuSans-72" transform="translate(1043.505859 0)"/>
     <use xlink:href="#DejaVuSans-72" transform="translate(1082.869141 0)"/>
     <use xlink:href="#DejaVuSans-65" transform="translate(1121.732422 0)"/>
     <use xlink:href="#DejaVuSans-6c" transform="translate(1183.255859 0)"/>
     <use xlink:href="#DejaVuSans-61" transform="translate(1211.039062 0)"/>
     <use xlink:href="#DejaVuSans-74" transform="translate(1272.318359 0)"/>
     <use xlink:href="#DejaVuSans-69" transform="translate(1311.527344 0)"/>
     <use xlink:href="#DejaVuSans-6f" transform="translate(1339.310547 0)"/>
     <use xlink:href="#DejaVuSans-6e" transform="translate(1400.492188 0)"/>
    </g>
   </g>
   <g id="legend_1">
    <g id="patch_7">
     <path d="M 37.103125 74.3525 
L 150.426563 74.3525 
Q 152.426563 74.3525 152.426563 72.3525 
L 152.426563 29.318125 
Q 152.426563 27.318125 150.426563 27.318125 
L 37.103125 27.318125 
Q 35.103125 27.318125 35.103125 29.318125 
L 35.103125 72.3525 
Q 35.103125 74.3525 37.103125 74.3525 
z
" style="fill: #ffffff; opacity: 0.8; stroke: #cccccc; stroke-linejoin: miter"/>
    </g>
    <g id="line2d_33">
     <path d="M 39.103125 35.416563 
L 49.103125 35.416563 
L 59.103125 35.416563 
" style="fill: none; stroke: #1f77b4; stroke-opacity: 0.7; stroke-width: 1.5; stroke-linecap: square"/>
    </g>
    <g id="text_17">
     <!-- x(t): Rect -->
     <g transform="translate(67.103125 38.916563) scale(0.1 -0.1)">
      <defs>
       <path id="DejaVuSans-78" d="M 3513 3500 
L 2247 1797 
L 3578 0 
L 2900 0 
L 1881 1375 
L 863 0 
L 184 0 
L 1544 1831 
L 300 3500 
L 978 3500 
L 1906 2253 
L 2834 3500 
L 3513 3500 
z
" transform="scale(0.015625)"/>
       <path id="DejaVuSans-28" d="M 1984 4856 
Q 1566 4138 1362 3434 
Q 1159 2731 1159 2009 
Q 1159 1288 1364 580 
Q 1569 -128 1984 -844 
L 1484 -844 
Q 1016 -109 783 600 
Q 550 1309 550 2009 
Q 550 2706 781 3412 
Q 1013 4119 1484 4856 
L 1984 4856 
z
" transform="scale(0.015625)"/>
       <path id="DejaVuSans-29" d="M 513 4856 
L 1013 4856 
Q 1481 4119 1714 3412 
Q 1947 2706 1947 2009 
Q 1947 1309 1714 600 
Q 1481 -109 1013 -844 
L 513 -844 
Q 928 -128 1133 580 
Q 1338 1288 1338 2009 
Q 1338 2731 1133 3434 
Q 928 4138 513 4856 
z
" transform="scale(0.015625)"/>
       <path id="DejaVuSans-3a" d="M 750 794 
L 1409 794 
L 1409 0 
L 750 0 
L 750 794 
z
M 750 3309 
L 1409 3309 
L 1409 2516 
L 750 2516 
L 750 3309 
z
" transform="scale(0.015625)"/>
       <path id="DejaVuSans-52" d="M 2841 2188 
Q 3044 2119 3236 1894 
Q 3428 1669 3622 1275 
L 4263 0 
L 3584 0 
L 2988 1197 
Q 2756 1666 2539 1819 
Q 2322 1972 1947 1972 
L 1259 1972 
L 1259 0 
L 628 0 
L 628 4666 
L 2053 4666 
Q 2853 4666 3247 4331 
Q 3641 3997 3641 3322 
Q 3641 2881 3436 2590 
Q 3231 2300 2841 2188 
z
M 1259 4147 
L 1259 2491 
L 2053 2491 
Q 2509 2491 2742 2702 
Q 2975 2913 2975 3322 
Q 2975 3731 2742 3939 
Q 2509 4147 2053 4147 
L 1259 4147 
z
" transform="scale(0.015625)"/>
      </defs>
      <use xlink:href="#DejaVuSans-78"/>
      <use xlink:href="#DejaVuSans-28" transform="translate(59.179688 0)"/>
      <use xlink:href="#DejaVuSans-74" transform="translate(98.193359 0)"/>
      <use xlink:href="#DejaVuSans-29" transform="translate(137.402344 0)"/>
      <use xlink:href="#DejaVuSans-3a" transform="translate(176.416016 0)"/>
      <use xlink:href="#DejaVuSans-20" transform="translate(210.107422 0)"/>
      <use xlink:href="#DejaVuSans-52" transform="translate(241.894531 0)"/>
      <use xlink:href="#DejaVuSans-65" transform="translate(306.876953 0)"/>
      <use xlink:href="#DejaVuSans-63" transform="translate(368.400391 0)"/>
      <use xlink:href="#DejaVuSans-74" transform="translate(423.380859 0)"/>
     </g>
    </g>
    <g id="line2d_34">
     <path d="M 39.103125 50.094688 
L 49.103125 50.094688 
L 59.103125 50.094688 
" style="fill: none; stroke: #ff7f0e; stroke-opacity: 0.7; stroke-width: 1.5; stroke-linecap: square"/>
    </g>
    <g id="text_18">
     <!-- y(t): Exp Decay -->
     <g transform="translate(67.103125 53.594688) scale(0.1 -0.1)">
      <defs>
       <path id="DejaVuSans-79" d="M 2059 -325 
Q 1816 -950 1584 -1140 
Q 1353 -1331 966 -1331 
L 506 -1331 
L 506 -850 
L 844 -850 
Q 1081 -850 1212 -737 
Q 1344 -625 1503 -206 
L 1606 56 
L 191 3500 
L 800 3500 
L 1894 763 
L 2988 3500 
L 3597 3500 
L 2059 -325 
z
" transform="scale(0.015625)"/>
       <path id="DejaVuSans-45" d="M 628 4666 
L 3578 4666 
L 3578 4134 
L 1259 4134 
L 1259 2753 
L 3481 2753 
L 3481 2222 
L 1259 2222 
L 1259 531 
L 3634 531 
L 3634 0 
L 628 0 
L 628 4666 
z
" transform="scale(0.015625)"/>
       <path id="DejaVuSans-44" d="M 1259 4147 
L 1259 519 
L 2022 519 
Q 2988 519 3436 956 
Q 3884 1394 3884 2338 
Q 3884 3275 3436 3711 
Q 2988 4147 2022 4147 
L 1259 4147 
z
M 628 4666 
L 1925 4666 
Q 3281 4666 3915 4102 
Q 4550 3538 4550 2338 
Q 4550 1131 3912 565 
Q 3275 0 1925 0 
L 628 0 
L 628 4666 
z
" transform="scale(0.015625)"/>
      </defs>
      <use xlink:href="#DejaVuSans-79"/>
      <use xlink:href="#DejaVuSans-28" transform="translate(59.179688 0)"/>
      <use xlink:href="#DejaVuSans-74" transform="translate(98.193359 0)"/>
      <use xlink:href="#DejaVuSans-29" transform="translate(137.402344 0)"/>
      <use xlink:href="#DejaVuSans-3a" transform="translate(176.416016 0)"/>
      <use xlink:href="#DejaVuSans-20" transform="translate(210.107422 0)"/>
      <use xlink:href="#DejaVuSans-45" transform="translate(241.894531 0)"/>
      <use xlink:href="#DejaVuSans-78" transform="translate(305.078125 0)"/>
      <use xlink:href="#DejaVuSans-70" transform="translate(364.257812 0)"/>
      <use xlink:href="#DejaVuSans-20" transform="translate(427.734375 0)"/>
      <use xlink:href="#DejaVuSans-44" transform="translate(459.521484 0)"/>
      <use xlink:href="#DejaVuSans-65" transform="translate(536.523438 0)"/>
      <use xlink:href="#DejaVuSans-63" transform="translate(598.046875 0)"/>
      <use xlink:href="#DejaVuSans-61" transform="translate(653.027344 0)"/>
      <use xlink:href="#DejaVuSans-79" transform="translate(714.306641 0)"/>
     </g>
    </g>
    <g id="patch_8">
     <path d="M 39.103125 68.272813 
L 59.103125 68.272813 
L 59.103125 61.272813 
L 39.103125 61.272813 
z
" style="fill: #800080; fill-opacity: 0.3; stroke: #800080; stroke-opacity: 0.3; stroke-linejoin: miter"/>
    </g>
    <g id="text_19">
     <!-- Correlation Area -->
     <g transform="translate(67.103125 68.272813) scale(0.1 -0.1)">
      <defs>
       <path id="DejaVuSans-41" d="M 2188 4044 
L 1331 1722 
L 3047 1722 
L 2188 4044 
z
M 1831 4666 
L 2547 4666 
L 4325 0 
L 3669 0 
L 3244 1197 
L 1141 1197 
L 716 0 
L 50 0 
L 1831 4666 
z
" transform="scale(0.015625)"/>
      </defs>
      <use xlink:href="#DejaVuSans-43"/>
      <use xlink:href="#DejaVuSans-6f" transform="translate(69.824219 0)"/>
      <use xlink:href="#DejaVuSans-72" transform="translate(131.005859 0)"/>
      <use xlink:href="#DejaVuSans-72" transform="translate(170.369141 0)"/>
      <use xlink:href="#DejaVuSans-65" transform="translate(209.232422 0)"/>
      <use xlink:href="#DejaVuSans-6c" transform="translate(270.755859 0)"/>
      <use xlink:href="#DejaVuSans-61" transform="translate(298.539062 0)"/>
      <use xlink:href="#DejaVuSans-74" transform="translate(359.818359 0)"/>
      <use xlink:href="#DejaVuSans-69" transform="translate(399.027344 0)"/>
      <use xlink:href="#DejaVuSans-6f" transform="translate(426.810547 0)"/>
      <use xlink:href="#DejaVuSans-6e" transform="translate(487.992188 0)"/>
      <use xlink:href="#DejaVuSans-20" transform="translate(551.371094 0)"/>
      <use xlink:href="#DejaVuSans-41" transform="translate(583.158203 0)"/>
      <use xlink:href="#DejaVuSans-72" transform="translate(651.566406 0)"/>
      <use xlink:href="#DejaVuSans-65" transform="translate(690.429688 0)"/>
      <use xlink:href="#DejaVuSans-61" transform="translate(751.953125 0)"/>
     </g>
    </g>
   </g>
  </g>
 </g>
 <defs>
  <clipPath id="p5c4c5ab324">
   <rect x="30.103125" y="22.318125" width="446.4" height="166.32"/>
  </clipPath>
 </defs>
</svg>
