<?xml version="1.0" encoding="utf-8" standalone="no"?>
<!DOCTYPE svg PUBLIC "-//W3C//DTD SVG 1.1//EN"
  "http://www.w3.org/Graphics/SVG/1.1/DTD/svg11.dtd">
<svg xmlns:xlink="http://www.w3.org/1999/xlink" width="568.5pt" height="423.22pt" viewBox="0 0 568.5 423.22" xmlns="http://www.w3.org/2000/svg" version="1.1">
 <metadata>
  <rdf:RDF xmlns:dc="http://purl.org/dc/elements/1.1/" xmlns:cc="http://creativecommons.org/ns#" xmlns:rdf="http://www.w3.org/1999/02/22-rdf-syntax-ns#">
   <cc:Work>
    <dc:type rdf:resource="http://purl.org/dc/dcmitype/StillImage"/>
    <dc:date>2026-01-21T13:33:41.721796</dc:date>
    <dc:format>image/svg+xml</dc:format>
    <dc:creator>
     <cc:Agent>
      <dc:title>Matplotlib v3.10.8, https://matplotlib.org/</dc:title>
     </cc:Agent>
    </dc:creator>
   </cc:Work>
  </rdf:RDF>
 </metadata>
 <defs>
  <style type="text/css">*{stroke-linejoin: round; stroke-linecap: butt}</style>
 </defs>
 <g id="figure_1">
  <g id="patch_1">
   <path d="M 0 423.22 
L 568.5 423.22 
L 568.5 0 
L 0 0 
z
" style="fill: #ffffff"/>
  </g>
  <g id="axes_1">
   <g id="patch_2">
    <path d="M 45.8 187.99 
L 561.3 187.99 
L 561.3 22.8 
L 45.8 22.8 
z
" style="fill: #ffffff"/>
   </g>
   <g id="FillBetweenPolyCollection_1">
    <path d="M 69.231818 105.395186 
L 69.231818 30.308636 
L 69.700924 30.314577 
L 70.170029 30.332397 
L 70.639135 30.362094 
L 71.10824 30.403664 
L 71.577346 30.457099 
L 72.046451 30.522392 
L 72.515556 30.599531 
L 72.984662 30.688506 
L 73.453767 30.789301 
L 73.922873 30.901901 
L 74.391978 31.026287 
L 74.861084 31.162441 
L 75.330189 31.310341 
L 75.799295 31.469963 
L 76.2684 31.641282 
L 76.737506 31.824271 
L 77.206611 32.0189 
L 77.675717 32.22514 
L 78.144822 32.442958 
L 78.613928 32.672318 
L 79.083033 32.913186 
L 79.552139 33.165522 
L 80.021244 33.429287 
L 80.490349 33.704439 
L 80.959455 33.990934 
L 81.42856 34.288727 
L 81.897666 34.597772 
L 82.366771 34.918018 
L 82.835877 35.249417 
L 83.304982 35.591914 
L 83.774088 35.945456 
L 84.243193 36.309986 
L 84.712299 36.685448 
L 85.181404 37.071782 
L 85.65051 37.468927 
L 86.119615 37.876819 
L 86.588721 38.295394 
L 87.057826 38.724587 
L 87.526931 39.164329 
L 87.996037 39.61455 
L 88.465142 40.07518 
L 88.934248 40.546145 
L 89.403353 41.027371 
L 89.872459 41.518782 
L 90.341564 42.0203 
L 90.81067 42.531845 
L 91.279775 43.053337 
L 91.748881 43.584694 
L 92.217986 44.125831 
L 92.687092 44.676662 
L 93.156197 45.2371 
L 93.625303 45.807057 
L 94.094408 46.386443 
L 94.563514 46.975166 
L 95.032619 47.573132 
L 95.501724 48.180247 
L 95.97083 48.796415 
L 96.439935 49.421539 
L 96.909041 50.05552 
L 97.378146 50.698256 
L 97.847252 51.349647 
L 98.316357 52.00959 
L 98.785463 52.67798 
L 99.254568 53.354711 
L 99.723674 54.039676 
L 100.192779 54.732768 
L 100.661885 55.433875 
L 101.13099 56.142888 
L 101.600096 56.859694 
L 102.069201 57.584179 
L 102.538306 58.31623 
L 103.007412 59.05573 
L 103.476517 59.802562 
L 103.945623 60.556608 
L 104.414728 61.317748 
L 104.883834 62.085863 
L 105.352939 62.860831 
L 105.822045 63.642529 
L 106.29115 64.430833 
L 106.760256 65.225619 
L 107.229361 66.026761 
L 107.698467 66.834132 
L 108.167572 67.647605 
L 108.636678 68.46705 
L 109.105783 69.292338 
L 109.574889 70.123339 
L 110.043994 70.959921 
L 110.513099 71.801951 
L 110.982205 72.649297 
L 111.45131 73.501824 
L 111.920416 74.359398 
L 112.389521 75.221882 
L 112.858627 76.08914 
L 113.327732 76.961036 
L 113.796838 77.83743 
L 114.265943 78.718185 
L 114.735049 79.603161 
L 115.204154 80.492219 
L 115.67326 81.385216 
L 116.142365 82.282012 
L 116.611471 83.182466 
L 117.080576 84.086434 
L 117.549681 84.993774 
L 118.018787 85.904342 
L 118.487892 86.817994 
L 118.956998 87.734586 
L 119.426103 88.653972 
L 119.895209 89.576006 
L 120.364314 90.500544 
L 120.83342 91.427439 
L 121.302525 92.356543 
L 121.771631 93.287711 
L 122.240736 94.220794 
L 122.709842 95.155646 
L 123.178947 96.092118 
L 123.648053 97.030061 
L 124.117158 97.969329 
L 124.586264 98.909771 
L 125.055369 99.851239 
L 125.524474 100.793585 
L 125.99358 101.736659 
L 126.462685 102.680312 
L 126.931791 103.624394 
L 127.400896 104.568756 
L 127.400896 105.395186 
L 127.400896 105.395186 
L 126.931791 105.395186 
L 126.462685 105.395186 
L 125.99358 105.395186 
L 125.524474 105.395186 
L 125.055369 105.395186 
L 124.586264 105.395186 
L 124.117158 105.395186 
L 123.648053 105.395186 
L 123.178947 105.395186 
L 122.709842 105.395186 
L 122.240736 105.395186 
L 121.771631 105.395186 
L 121.302525 105.395186 
L 120.83342 105.395186 
L 120.364314 105.395186 
L 119.895209 105.395186 
L 119.426103 105.395186 
L 118.956998 105.395186 
L 118.487892 105.395186 
L 118.018787 105.395186 
L 117.549681 105.395186 
L 117.080576 105.395186 
L 116.611471 105.395186 
L 116.142365 105.395186 
L 115.67326 105.395186 
L 115.204154 105.395186 
L 114.735049 105.395186 
L 114.265943 105.395186 
L 113.796838 105.395186 
L 113.327732 105.395186 
L 112.858627 105.395186 
L 112.389521 105.395186 
L 111.920416 105.395186 
L 111.45131 105.395186 
L 110.982205 105.395186 
L 110.513099 105.395186 
L 110.043994 105.395186 
L 109.574889 105.395186 
L 109.105783 105.395186 
L 108.636678 105.395186 
L 108.167572 105.395186 
L 107.698467 105.395186 
L 107.229361 105.395186 
L 106.760256 105.395186 
L 106.29115 105.395186 
L 105.822045 105.395186 
L 105.352939 105.395186 
L 104.883834 105.395186 
L 104.414728 105.395186 
L 103.945623 105.395186 
L 103.476517 105.395186 
L 103.007412 105.395186 
L 102.538306 105.395186 
L 102.069201 105.395186 
L 101.600096 105.395186 
L 101.13099 105.395186 
L 100.661885 105.395186 
L 100.192779 105.395186 
L 99.723674 105.395186 
L 99.254568 105.395186 
L 98.785463 105.395186 
L 98.316357 105.395186 
L 97.847252 105.395186 
L 97.378146 105.395186 
L 96.909041 105.395186 
L 96.439935 105.395186 
L 95.97083 105.395186 
L 95.501724 105.395186 
L 95.032619 105.395186 
L 94.563514 105.395186 
L 94.094408 105.395186 
L 93.625303 105.395186 
L 93.156197 105.395186 
L 92.687092 105.395186 
L 92.217986 105.395186 
L 91.748881 105.395186 
L 91.279775 105.395186 
L 90.81067 105.395186 
L 90.341564 105.395186 
L 89.872459 105.395186 
L 89.403353 105.395186 
L 88.934248 105.395186 
L 88.465142 105.395186 
L 87.996037 105.395186 
L 87.526931 105.395186 
L 87.057826 105.395186 
L 86.588721 105.395186 
L 86.119615 105.395186 
L 85.65051 105.395186 
L 85.181404 105.395186 
L 84.712299 105.395186 
L 84.243193 105.395186 
L 83.774088 105.395186 
L 83.304982 105.395186 
L 82.835877 105.395186 
L 82.366771 105.395186 
L 81.897666 105.395186 
L 81.42856 105.395186 
L 80.959455 105.395186 
L 80.490349 105.395186 
L 80.021244 105.395186 
L 79.552139 105.395186 
L 79.083033 105.395186 
L 78.613928 105.395186 
L 78.144822 105.395186 
L 77.675717 105.395186 
L 77.206611 105.395186 
L 76.737506 105.395186 
L 76.2684 105.395186 
L 75.799295 105.395186 
L 75.330189 105.395186 
L 74.861084 105.395186 
L 74.391978 105.395186 
L 73.922873 105.395186 
L 73.453767 105.395186 
L 72.984662 105.395186 
L 72.515556 105.395186 
L 72.046451 105.395186 
L 71.577346 105.395186 
L 71.10824 105.395186 
L 70.639135 105.395186 
L 70.170029 105.395186 
L 69.700924 105.395186 
L 69.231818 105.395186 
z
" clip-path="url(#peb7746a311)" style="fill: #808080; fill-opacity: 0.2; stroke: #808080; stroke-opacity: 0.2"/>
    <path d="M 245.146369 105.395186 
L 245.146369 105.040996 
L 245.615475 104.096549 
L 246.08458 103.152308 
L 246.553686 102.208422 
L 247.022791 101.26504 
L 247.491896 100.322312 
L 247.961002 99.380386 
L 248.430107 98.439412 
L 248.899213 97.499539 
L 249.368318 96.560915 
L 249.837424 95.623688 
L 250.306529 94.688008 
L 250.775635 93.754022 
L 251.24474 92.821878 
L 251.713846 91.891724 
L 252.182951 90.963706 
L 252.652057 90.037971 
L 253.121162 89.114667 
L 253.590268 88.193938 
L 254.059373 87.275932 
L 254.528478 86.360792 
L 254.997584 85.448664 
L 255.466689 84.539692 
L 255.935795 83.63402 
L 256.4049 82.731791 
L 256.874006 81.833148 
L 257.343111 80.938234 
L 257.812217 80.047189 
L 258.281322 79.160155 
L 258.750428 78.277272 
L 259.219533 77.398679 
L 259.688639 76.524517 
L 260.157744 75.654923 
L 260.62685 74.790034 
L 261.095955 73.929988 
L 261.565061 73.074921 
L 262.034166 72.224968 
L 262.503271 71.380263 
L 262.972377 70.54094 
L 263.441482 69.707133 
L 263.910588 68.878972 
L 264.379693 68.056589 
L 264.848799 67.240114 
L 265.317904 66.429676 
L 265.78701 65.625403 
L 266.256115 64.827424 
L 266.725221 64.035863 
L 267.194326 63.250846 
L 267.663432 62.472498 
L 268.132537 61.700942 
L 268.601643 60.936299 
L 269.070748 60.17869 
L 269.539853 59.428237 
L 270.008959 58.685056 
L 270.478064 57.949266 
L 270.94717 57.220984 
L 271.416275 56.500324 
L 271.885381 55.7874 
L 272.354486 55.082326 
L 272.823592 54.385213 
L 273.292697 53.696171 
L 273.761803 53.01531 
L 274.230908 52.342736 
L 274.700014 51.678556 
L 275.169119 51.022876 
L 275.638225 50.3758 
L 276.10733 49.737428 
L 276.576436 49.107864 
L 277.045541 48.487206 
L 277.514646 47.875552 
L 277.983752 47.272999 
L 278.452857 46.679643 
L 278.921963 46.095577 
L 279.391068 45.520895 
L 279.860174 44.955686 
L 280.329279 44.40004 
L 280.798385 43.854045 
L 281.26749 43.317788 
L 281.736596 42.791353 
L 282.205701 42.274824 
L 282.674807 41.768282 
L 283.143912 41.271808 
L 283.613018 40.78548 
L 284.082123 40.309375 
L 284.551229 39.843568 
L 285.020334 39.388134 
L 285.489439 38.943144 
L 285.958545 38.508668 
L 286.42765 38.084775 
L 286.896756 37.671533 
L 287.365861 37.269007 
L 287.834967 36.87726 
L 288.304072 36.496355 
L 288.773178 36.126351 
L 289.242283 35.767307 
L 289.711389 35.419281 
L 290.180494 35.082327 
L 290.6496 34.756498 
L 291.118705 34.441846 
L 291.587811 34.138421 
L 292.056916 33.846271 
L 292.526021 33.565442 
L 292.995127 33.295978 
L 293.464232 33.037923 
L 293.933338 32.791316 
L 294.402443 32.556198 
L 294.871549 32.332604 
L 295.340654 32.120571 
L 295.80976 31.920132 
L 296.278865 31.731319 
L 296.747971 31.554162 
L 297.217076 31.388688 
L 297.686182 31.234924 
L 298.155287 31.092895 
L 298.624393 30.962622 
L 299.093498 30.844126 
L 299.562604 30.737427 
L 300.031709 30.64254 
L 300.500814 30.559481 
L 300.96992 30.488264 
L 301.439025 30.428899 
L 301.908131 30.381395 
L 302.377236 30.345761 
L 302.846342 30.322002 
L 303.315447 30.310121 
L 303.784553 30.310121 
L 304.253658 30.322002 
L 304.722764 30.345761 
L 305.191869 30.381395 
L 305.660975 30.428899 
L 306.13008 30.488264 
L 306.599186 30.559481 
L 307.068291 30.64254 
L 307.537396 30.737427 
L 308.006502 30.844126 
L 308.475607 30.962622 
L 308.944713 31.092895 
L 309.413818 31.234924 
L 309.882924 31.388688 
L 310.352029 31.554162 
L 310.821135 31.731319 
L 311.29024 31.920132 
L 311.759346 32.120571 
L 312.228451 32.332604 
L 312.697557 32.556198 
L 313.166662 32.791316 
L 313.635768 33.037923 
L 314.104873 33.295978 
L 314.573979 33.565442 
L 315.043084 33.846271 
L 315.512189 34.138421 
L 315.981295 34.441846 
L 316.4504 34.756498 
L 316.919506 35.082327 
L 317.388611 35.419281 
L 317.857717 35.767307 
L 318.326822 36.126351 
L 318.795928 36.496355 
L 319.265033 36.87726 
L 319.734139 37.269007 
L 320.203244 37.671533 
L 320.67235 38.084775 
L 321.141455 38.508668 
L 321.610561 38.943144 
L 322.079666 39.388134 
L 322.548771 39.843568 
L 323.017877 40.309375 
L 323.486982 40.78548 
L 323.956088 41.271808 
L 324.425193 41.768282 
L 324.894299 42.274824 
L 325.363404 42.791353 
L 325.83251 43.317788 
L 326.301615 43.854045 
L 326.770721 44.40004 
L 327.239826 44.955686 
L 327.708932 45.520895 
L 328.178037 46.095577 
L 328.647143 46.679643 
L 329.116248 47.272999 
L 329.585354 47.875552 
L 330.054459 48.487206 
L 330.523564 49.107864 
L 330.99267 49.737428 
L 331.461775 50.3758 
L 331.930881 51.022876 
L 332.399986 51.678556 
L 332.869092 52.342736 
L 333.338197 53.01531 
L 333.807303 53.696171 
L 334.276408 54.385213 
L 334.745514 55.082326 
L 335.214619 55.7874 
L 335.683725 56.500324 
L 336.15283 57.220984 
L 336.621936 57.949266 
L 337.091041 58.685056 
L 337.560147 59.428237 
L 338.029252 60.17869 
L 338.498357 60.936299 
L 338.967463 61.700942 
L 339.436568 62.472498 
L 339.905674 63.250846 
L 340.374779 64.035863 
L 340.843885 64.827424 
L 341.31299 65.625403 
L 341.782096 66.429676 
L 342.251201 67.240114 
L 342.720307 68.056589 
L 343.189412 68.878972 
L 343.658518 69.707133 
L 344.127623 70.54094 
L 344.596729 71.380263 
L 345.065834 72.224968 
L 345.534939 73.074921 
L 346.004045 73.929988 
L 346.47315 74.790034 
L 346.942256 75.654923 
L 347.411361 76.524517 
L 347.880467 77.398679 
L 348.349572 78.277272 
L 348.818678 79.160155 
L 349.287783 80.047189 
L 349.756889 80.938234 
L 350.225994 81.833148 
L 350.6951 82.731791 
L 351.164205 83.63402 
L 351.633311 84.539692 
L 352.102416 85.448664 
L 352.571522 86.360792 
L 353.040627 87.275932 
L 353.509732 88.193938 
L 353.978838 89.114667 
L 354.447943 90.037971 
L 354.917049 90.963706 
L 355.386154 91.891724 
L 355.85526 92.821878 
L 356.324365 93.754022 
L 356.793471 94.688008 
L 357.262576 95.623688 
L 357.731682 96.560915 
L 358.200787 97.499539 
L 358.669893 98.439412 
L 359.138998 99.380386 
L 359.608104 100.322312 
L 360.077209 101.26504 
L 360.546314 102.208422 
L 361.01542 103.152308 
L 361.484525 104.096549 
L 361.953631 105.040996 
L 361.953631 105.395186 
L 361.953631 105.395186 
L 361.484525 105.395186 
L 361.01542 105.395186 
L 360.546314 105.395186 
L 360.077209 105.395186 
L 359.608104 105.395186 
L 359.138998 105.395186 
L 358.669893 105.395186 
L 358.200787 105.395186 
L 357.731682 105.395186 
L 357.262576 105.395186 
L 356.793471 105.395186 
L 356.324365 105.395186 
L 355.85526 105.395186 
L 355.386154 105.395186 
L 354.917049 105.395186 
L 354.447943 105.395186 
L 353.978838 105.395186 
L 353.509732 105.395186 
L 353.040627 105.395186 
L 352.571522 105.395186 
L 352.102416 105.395186 
L 351.633311 105.395186 
L 351.164205 105.395186 
L 350.6951 105.395186 
L 350.225994 105.395186 
L 349.756889 105.395186 
L 349.287783 105.395186 
L 348.818678 105.395186 
L 348.349572 105.395186 
L 347.880467 105.395186 
L 347.411361 105.395186 
L 346.942256 105.395186 
L 346.47315 105.395186 
L 346.004045 105.395186 
L 345.534939 105.395186 
L 345.065834 105.395186 
L 344.596729 105.395186 
L 344.127623 105.395186 
L 343.658518 105.395186 
L 343.189412 105.395186 
L 342.720307 105.395186 
L 342.251201 105.395186 
L 341.782096 105.395186 
L 341.31299 105.395186 
L 340.843885 105.395186 
L 340.374779 105.395186 
L 339.905674 105.395186 
L 339.436568 105.395186 
L 338.967463 105.395186 
L 338.498357 105.395186 
L 338.029252 105.395186 
L 337.560147 105.395186 
L 337.091041 105.395186 
L 336.621936 105.395186 
L 336.15283 105.395186 
L 335.683725 105.395186 
L 335.214619 105.395186 
L 334.745514 105.395186 
L 334.276408 105.395186 
L 333.807303 105.395186 
L 333.338197 105.395186 
L 332.869092 105.395186 
L 332.399986 105.395186 
L 331.930881 105.395186 
L 331.461775 105.395186 
L 330.99267 105.395186 
L 330.523564 105.395186 
L 330.054459 105.395186 
L 329.585354 105.395186 
L 329.116248 105.395186 
L 328.647143 105.395186 
L 328.178037 105.395186 
L 327.708932 105.395186 
L 327.239826 105.395186 
L 326.770721 105.395186 
L 326.301615 105.395186 
L 325.83251 105.395186 
L 325.363404 105.395186 
L 324.894299 105.395186 
L 324.425193 105.395186 
L 323.956088 105.395186 
L 323.486982 105.395186 
L 323.017877 105.395186 
L 322.548771 105.395186 
L 322.079666 105.395186 
L 321.610561 105.395186 
L 321.141455 105.395186 
L 320.67235 105.395186 
L 320.203244 105.395186 
L 319.734139 105.395186 
L 319.265033 105.395186 
L 318.795928 105.395186 
L 318.326822 105.395186 
L 317.857717 105.395186 
L 317.388611 105.395186 
L 316.919506 105.395186 
L 316.4504 105.395186 
L 315.981295 105.395186 
L 315.512189 105.395186 
L 315.043084 105.395186 
L 314.573979 105.395186 
L 314.104873 105.395186 
L 313.635768 105.395186 
L 313.166662 105.395186 
L 312.697557 105.395186 
L 312.228451 105.395186 
L 311.759346 105.395186 
L 311.29024 105.395186 
L 310.821135 105.395186 
L 310.352029 105.395186 
L 309.882924 105.395186 
L 309.413818 105.395186 
L 308.944713 105.395186 
L 308.475607 105.395186 
L 308.006502 105.395186 
L 307.537396 105.395186 
L 307.068291 105.395186 
L 306.599186 105.395186 
L 306.13008 105.395186 
L 305.660975 105.395186 
L 305.191869 105.395186 
L 304.722764 105.395186 
L 304.253658 105.395186 
L 303.784553 105.395186 
L 303.315447 105.395186 
L 302.846342 105.395186 
L 302.377236 105.395186 
L 301.908131 105.395186 
L 301.439025 105.395186 
L 300.96992 105.395186 
L 300.500814 105.395186 
L 300.031709 105.395186 
L 299.562604 105.395186 
L 299.093498 105.395186 
L 298.624393 105.395186 
L 298.155287 105.395186 
L 297.686182 105.395186 
L 297.217076 105.395186 
L 296.747971 105.395186 
L 296.278865 105.395186 
L 295.80976 105.395186 
L 295.340654 105.395186 
L 294.871549 105.395186 
L 294.402443 105.395186 
L 293.933338 105.395186 
L 293.464232 105.395186 
L 292.995127 105.395186 
L 292.526021 105.395186 
L 292.056916 105.395186 
L 291.587811 105.395186 
L 291.118705 105.395186 
L 290.6496 105.395186 
L 290.180494 105.395186 
L 289.711389 105.395186 
L 289.242283 105.395186 
L 288.773178 105.395186 
L 288.304072 105.395186 
L 287.834967 105.395186 
L 287.365861 105.395186 
L 286.896756 105.395186 
L 286.42765 105.395186 
L 285.958545 105.395186 
L 285.489439 105.395186 
L 285.020334 105.395186 
L 284.551229 105.395186 
L 284.082123 105.395186 
L 283.613018 105.395186 
L 283.143912 105.395186 
L 282.674807 105.395186 
L 282.205701 105.395186 
L 281.736596 105.395186 
L 281.26749 105.395186 
L 280.798385 105.395186 
L 280.329279 105.395186 
L 279.860174 105.395186 
L 279.391068 105.395186 
L 278.921963 105.395186 
L 278.452857 105.395186 
L 277.983752 105.395186 
L 277.514646 105.395186 
L 277.045541 105.395186 
L 276.576436 105.395186 
L 276.10733 105.395186 
L 275.638225 105.395186 
L 275.169119 105.395186 
L 274.700014 105.395186 
L 274.230908 105.395186 
L 273.761803 105.395186 
L 273.292697 105.395186 
L 272.823592 105.395186 
L 272.354486 105.395186 
L 271.885381 105.395186 
L 271.416275 105.395186 
L 270.94717 105.395186 
L 270.478064 105.395186 
L 270.008959 105.395186 
L 269.539853 105.395186 
L 269.070748 105.395186 
L 268.601643 105.395186 
L 268.132537 105.395186 
L 267.663432 105.395186 
L 267.194326 105.395186 
L 266.725221 105.395186 
L 266.256115 105.395186 
L 265.78701 105.395186 
L 265.317904 105.395186 
L 264.848799 105.395186 
L 264.379693 105.395186 
L 263.910588 105.395186 
L 263.441482 105.395186 
L 262.972377 105.395186 
L 262.503271 105.395186 
L 262.034166 105.395186 
L 261.565061 105.395186 
L 261.095955 105.395186 
L 260.62685 105.395186 
L 260.157744 105.395186 
L 259.688639 105.395186 
L 259.219533 105.395186 
L 258.750428 105.395186 
L 258.281322 105.395186 
L 257.812217 105.395186 
L 257.343111 105.395186 
L 256.874006 105.395186 
L 256.4049 105.395186 
L 255.935795 105.395186 
L 255.466689 105.395186 
L 254.997584 105.395186 
L 254.528478 105.395186 
L 254.059373 105.395186 
L 253.590268 105.395186 
L 253.121162 105.395186 
L 252.652057 105.395186 
L 252.182951 105.395186 
L 251.713846 105.395186 
L 251.24474 105.395186 
L 250.775635 105.395186 
L 250.306529 105.395186 
L 249.837424 105.395186 
L 249.368318 105.395186 
L 248.899213 105.395186 
L 248.430107 105.395186 
L 247.961002 105.395186 
L 247.491896 105.395186 
L 247.022791 105.395186 
L 246.553686 105.395186 
L 246.08458 105.395186 
L 245.615475 105.395186 
L 245.146369 105.395186 
z
" clip-path="url(#peb7746a311)" style="fill: #808080; fill-opacity: 0.2; stroke: #808080; stroke-opacity: 0.2"/>
    <path d="M 479.699104 105.395186 
L 479.699104 104.568756 
L 480.168209 103.624394 
L 480.637315 102.680312 
L 481.10642 101.736659 
L 481.575526 100.793585 
L 482.044631 99.851239 
L 482.513736 98.909771 
L 482.982842 97.969329 
L 483.451947 97.030061 
L 483.921053 96.092118 
L 484.390158 95.155646 
L 484.859264 94.220794 
L 485.328369 93.287711 
L 485.797475 92.356543 
L 486.26658 91.427439 
L 486.735686 90.500544 
L 487.204791 89.576006 
L 487.673897 88.653972 
L 488.143002 87.734586 
L 488.612108 86.817994 
L 489.081213 85.904342 
L 489.550319 84.993774 
L 490.019424 84.086434 
L 490.488529 83.182466 
L 490.957635 82.282012 
L 491.42674 81.385216 
L 491.895846 80.492219 
L 492.364951 79.603161 
L 492.834057 78.718185 
L 493.303162 77.83743 
L 493.772268 76.961036 
L 494.241373 76.08914 
L 494.710479 75.221882 
L 495.179584 74.359398 
L 495.64869 73.501824 
L 496.117795 72.649297 
L 496.586901 71.801951 
L 497.056006 70.959921 
L 497.525111 70.123339 
L 497.994217 69.292338 
L 498.463322 68.46705 
L 498.932428 67.647605 
L 499.401533 66.834132 
L 499.870639 66.026761 
L 500.339744 65.225619 
L 500.80885 64.430833 
L 501.277955 63.642529 
L 501.747061 62.860831 
L 502.216166 62.085863 
L 502.685272 61.317748 
L 503.154377 60.556608 
L 503.623483 59.802562 
L 504.092588 59.05573 
L 504.561694 58.31623 
L 505.030799 57.584179 
L 505.499904 56.859694 
L 505.96901 56.142888 
L 506.438115 55.433875 
L 506.907221 54.732768 
L 507.376326 54.039676 
L 507.845432 53.354711 
L 508.314537 52.67798 
L 508.783643 52.00959 
L 509.252748 51.349647 
L 509.721854 50.698256 
L 510.190959 50.05552 
L 510.660065 49.421539 
L 511.12917 48.796415 
L 511.598276 48.180247 
L 512.067381 47.573132 
L 512.536486 46.975166 
L 513.005592 46.386443 
L 513.474697 45.807057 
L 513.943803 45.2371 
L 514.412908 44.676662 
L 514.882014 44.125831 
L 515.351119 43.584694 
L 515.820225 43.053337 
L 516.28933 42.531845 
L 516.758436 42.0203 
L 517.227541 41.518782 
L 517.696647 41.027371 
L 518.165752 40.546145 
L 518.634858 40.07518 
L 519.103963 39.61455 
L 519.573069 39.164329 
L 520.042174 38.724587 
L 520.511279 38.295394 
L 520.980385 37.876819 
L 521.44949 37.468927 
L 521.918596 37.071782 
L 522.387701 36.685448 
L 522.856807 36.309986 
L 523.325912 35.945456 
L 523.795018 35.591914 
L 524.264123 35.249417 
L 524.733229 34.918018 
L 525.202334 34.597772 
L 525.67144 34.288727 
L 526.140545 33.990934 
L 526.609651 33.704439 
L 527.078756 33.429287 
L 527.547861 33.165522 
L 528.016967 32.913186 
L 528.486072 32.672318 
L 528.955178 32.442958 
L 529.424283 32.22514 
L 529.893389 32.0189 
L 530.362494 31.824271 
L 530.8316 31.641282 
L 531.300705 31.469963 
L 531.769811 31.310341 
L 532.238916 31.162441 
L 532.708022 31.026287 
L 533.177127 30.901901 
L 533.646233 30.789301 
L 534.115338 30.688506 
L 534.584444 30.599531 
L 535.053549 30.522392 
L 535.522654 30.457099 
L 535.99176 30.403664 
L 536.460865 30.362094 
L 536.929971 30.332397 
L 537.399076 30.314577 
L 537.868182 30.308636 
L 537.868182 105.395186 
L 537.868182 105.395186 
L 537.399076 105.395186 
L 536.929971 105.395186 
L 536.460865 105.395186 
L 535.99176 105.395186 
L 535.522654 105.395186 
L 535.053549 105.395186 
L 534.584444 105.395186 
L 534.115338 105.395186 
L 533.646233 105.395186 
L 533.177127 105.395186 
L 532.708022 105.395186 
L 532.238916 105.395186 
L 531.769811 105.395186 
L 531.300705 105.395186 
L 530.8316 105.395186 
L 530.362494 105.395186 
L 529.893389 105.395186 
L 529.424283 105.395186 
L 528.955178 105.395186 
L 528.486072 105.395186 
L 528.016967 105.395186 
L 527.547861 105.395186 
L 527.078756 105.395186 
L 526.609651 105.395186 
L 526.140545 105.395186 
L 525.67144 105.395186 
L 525.202334 105.395186 
L 524.733229 105.395186 
L 524.264123 105.395186 
L 523.795018 105.395186 
L 523.325912 105.395186 
L 522.856807 105.395186 
L 522.387701 105.395186 
L 521.918596 105.395186 
L 521.44949 105.395186 
L 520.980385 105.395186 
L 520.511279 105.395186 
L 520.042174 105.395186 
L 519.573069 105.395186 
L 519.103963 105.395186 
L 518.634858 105.395186 
L 518.165752 105.395186 
L 517.696647 105.395186 
L 517.227541 105.395186 
L 516.758436 105.395186 
L 516.28933 105.395186 
L 515.820225 105.395186 
L 515.351119 105.395186 
L 514.882014 105.395186 
L 514.412908 105.395186 
L 513.943803 105.395186 
L 513.474697 105.395186 
L 513.005592 105.395186 
L 512.536486 105.395186 
L 512.067381 105.395186 
L 511.598276 105.395186 
L 511.12917 105.395186 
L 510.660065 105.395186 
L 510.190959 105.395186 
L 509.721854 105.395186 
L 509.252748 105.395186 
L 508.783643 105.395186 
L 508.314537 105.395186 
L 507.845432 105.395186 
L 507.376326 105.395186 
L 506.907221 105.395186 
L 506.438115 105.395186 
L 505.96901 105.395186 
L 505.499904 105.395186 
L 505.030799 105.395186 
L 504.561694 105.395186 
L 504.092588 105.395186 
L 503.623483 105.395186 
L 503.154377 105.395186 
L 502.685272 105.395186 
L 502.216166 105.395186 
L 501.747061 105.395186 
L 501.277955 105.395186 
L 500.80885 105.395186 
L 500.339744 105.395186 
L 499.870639 105.395186 
L 499.401533 105.395186 
L 498.932428 105.395186 
L 498.463322 105.395186 
L 497.994217 105.395186 
L 497.525111 105.395186 
L 497.056006 105.395186 
L 496.586901 105.395186 
L 496.117795 105.395186 
L 495.64869 105.395186 
L 495.179584 105.395186 
L 494.710479 105.395186 
L 494.241373 105.395186 
L 493.772268 105.395186 
L 493.303162 105.395186 
L 492.834057 105.395186 
L 492.364951 105.395186 
L 491.895846 105.395186 
L 491.42674 105.395186 
L 490.957635 105.395186 
L 490.488529 105.395186 
L 490.019424 105.395186 
L 489.550319 105.395186 
L 489.081213 105.395186 
L 488.612108 105.395186 
L 488.143002 105.395186 
L 487.673897 105.395186 
L 487.204791 105.395186 
L 486.735686 105.395186 
L 486.26658 105.395186 
L 485.797475 105.395186 
L 485.328369 105.395186 
L 484.859264 105.395186 
L 484.390158 105.395186 
L 483.921053 105.395186 
L 483.451947 105.395186 
L 482.982842 105.395186 
L 482.513736 105.395186 
L 482.044631 105.395186 
L 481.575526 105.395186 
L 481.10642 105.395186 
L 480.637315 105.395186 
L 480.168209 105.395186 
L 479.699104 105.395186 
z
" clip-path="url(#peb7746a311)" style="fill: #808080; fill-opacity: 0.2; stroke: #808080; stroke-opacity: 0.2"/>
   </g>
   <g id="matplotlib.axis_1">
    <g id="xtick_1">
     <g id="line2d_1">
      <path d="M 69.231818 187.99 
L 69.231818 22.8 
" clip-path="url(#peb7746a311)" style="fill: none; stroke: #b0b0b0; stroke-opacity: 0.3; stroke-width: 0.8; stroke-linecap: square"/>
     </g>
     <g id="line2d_2">
      <defs>
       <path id="mf2fb3a786a" d="M 0 0 
L 0 3.5 
" style="stroke: #000000; stroke-width: 0.8"/>
      </defs>
      <g>
       <use xlink:href="#mf2fb3a786a" x="69.231818" y="187.99" style="stroke: #000000; stroke-width: 0.8"/>
      </g>
     </g>
    </g>
    <g id="xtick_2">
     <g id="line2d_3">
      <path d="M 127.811364 187.99 
L 127.811364 22.8 
" clip-path="url(#peb7746a311)" style="fill: none; stroke: #b0b0b0; stroke-opacity: 0.3; stroke-width: 0.8; stroke-linecap: square"/>
     </g>
     <g id="line2d_4">
      <g>
       <use xlink:href="#mf2fb3a786a" x="127.811364" y="187.99" style="stroke: #000000; stroke-width: 0.8"/>
      </g>
     </g>
    </g>
    <g id="xtick_3">
     <g id="line2d_5">
      <path d="M 186.390909 187.99 
L 186.390909 22.8 
" clip-path="url(#peb7746a311)" style="fill: none; stroke: #b0b0b0; stroke-opacity: 0.3; stroke-width: 0.8; stroke-linecap: square"/>
     </g>
     <g id="line2d_6">
      <g>
       <use xlink:href="#mf2fb3a786a" x="186.390909" y="187.99" style="stroke: #000000; stroke-width: 0.8"/>
      </g>
     </g>
    </g>
    <g id="xtick_4">
     <g id="line2d_7">
      <path d="M 244.970455 187.99 
L 244.970455 22.8 
" clip-path="url(#peb7746a311)" style="fill: none; stroke: #b0b0b0; stroke-opacity: 0.3; stroke-width: 0.8; stroke-linecap: square"/>
     </g>
     <g id="line2d_8">
      <g>
       <use xlink:href="#mf2fb3a786a" x="244.970455" y="187.99" style="stroke: #000000; stroke-width: 0.8"/>
      </g>
     </g>
    </g>
    <g id="xtick_5">
     <g id="line2d_9">
      <path d="M 303.55 187.99 
L 303.55 22.8 
" clip-path="url(#peb7746a311)" style="fill: none; stroke: #b0b0b0; stroke-opacity: 0.3; stroke-width: 0.8; stroke-linecap: square"/>
     </g>
     <g id="line2d_10">
      <g>
       <use xlink:href="#mf2fb3a786a" x="303.55" y="187.99" style="stroke: #000000; stroke-width: 0.8"/>
      </g>
     </g>
    </g>
    <g id="xtick_6">
     <g id="line2d_11">
      <path d="M 362.129545 187.99 
L 362.129545 22.8 
" clip-path="url(#peb7746a311)" style="fill: none; stroke: #b0b0b0; stroke-opacity: 0.3; stroke-width: 0.8; stroke-linecap: square"/>
     </g>
     <g id="line2d_12">
      <g>
       <use xlink:href="#mf2fb3a786a" x="362.129545" y="187.99" style="stroke: #000000; stroke-width: 0.8"/>
      </g>
     </g>
    </g>
    <g id="xtick_7">
     <g id="line2d_13">
      <path d="M 420.709091 187.99 
L 420.709091 22.8 
" clip-path="url(#peb7746a311)" style="fill: none; stroke: #b0b0b0; stroke-opacity: 0.3; stroke-width: 0.8; stroke-linecap: square"/>
     </g>
     <g id="line2d_14">
      <g>
       <use xlink:href="#mf2fb3a786a" x="420.709091" y="187.99" style="stroke: #000000; stroke-width: 0.8"/>
      </g>
     </g>
    </g>
    <g id="xtick_8">
     <g id="line2d_15">
      <path d="M 479.288636 187.99 
L 479.288636 22.8 
" clip-path="url(#peb7746a311)" style="fill: none; stroke: #b0b0b0; stroke-opacity: 0.3; stroke-width: 0.8; stroke-linecap: square"/>
     </g>
     <g id="line2d_16">
      <g>
       <use xlink:href="#mf2fb3a786a" x="479.288636" y="187.99" style="stroke: #000000; stroke-width: 0.8"/>
      </g>
     </g>
    </g>
    <g id="xtick_9">
     <g id="line2d_17">
      <path d="M 537.868182 187.99 
L 537.868182 22.8 
" clip-path="url(#peb7746a311)" style="fill: none; stroke: #b0b0b0; stroke-opacity: 0.3; stroke-width: 0.8; stroke-linecap: square"/>
     </g>
     <g id="line2d_18">
      <g>
       <use xlink:href="#mf2fb3a786a" x="537.868182" y="187.99" style="stroke: #000000; stroke-width: 0.8"/>
      </g>
     </g>
    </g>
   </g>
   <g id="matplotlib.axis_2">
    <g id="ytick_1">
     <g id="line2d_19">
      <path d="M 45.8 180.481735 
L 561.3 180.481735 
" clip-path="url(#peb7746a311)" style="fill: none; stroke: #b0b0b0; stroke-opacity: 0.3; stroke-width: 0.8; stroke-linecap: square"/>
     </g>
     <g id="line2d_20">
      <defs>
       <path id="mb4f11e2937" d="M 0 0 
L -3.5 0 
" style="stroke: #000000; stroke-width: 0.8"/>
      </defs>
      <g>
       <use xlink:href="#mb4f11e2937" x="45.8" y="180.481735" style="stroke: #000000; stroke-width: 0.8"/>
      </g>
     </g>
     <g id="text_1">
      <!-- -1.0 -->
      <g transform="translate(21.45 184.461422) scale(0.1 -0.1)">
       <defs>
        <path id="NotoSansKR-Regular-2d" d="M 294 1568 
L 294 2016 
L 1939 2016 
L 1939 1568 
L 294 1568 
z
" transform="scale(0.015625)"/>
        <path id="NotoSansKR-Regular-31" d="M 563 0 
L 563 486 
L 1613 486 
L 1613 3987 
L 774 3987 
L 774 4358 
Q 1088 4416 1321 4499 
Q 1555 4582 1747 4691 
L 2195 4691 
L 2195 486 
L 3136 486 
L 3136 0 
L 563 0 
z
" transform="scale(0.015625)"/>
        <path id="NotoSansKR-Regular-2e" d="M 890 -83 
Q 717 -83 592 41 
Q 467 166 467 358 
Q 467 563 592 684 
Q 717 806 890 806 
Q 1062 806 1187 684 
Q 1312 563 1312 358 
Q 1312 166 1187 41 
Q 1062 -83 890 -83 
z
" transform="scale(0.015625)"/>
        <path id="NotoSansKR-Regular-30" d="M 1779 -83 
Q 1338 -83 1008 185 
Q 678 454 499 998 
Q 320 1542 320 2362 
Q 320 3181 499 3715 
Q 678 4250 1008 4512 
Q 1338 4774 1779 4774 
Q 2227 4774 2553 4508 
Q 2880 4243 3059 3712 
Q 3238 3181 3238 2362 
Q 3238 1542 3059 998 
Q 2880 454 2553 185 
Q 2227 -83 1779 -83 
z
M 1779 390 
Q 2048 390 2249 595 
Q 2451 800 2563 1238 
Q 2675 1677 2675 2362 
Q 2675 3046 2563 3478 
Q 2451 3910 2249 4112 
Q 2048 4314 1779 4314 
Q 1517 4314 1312 4112 
Q 1107 3910 995 3478 
Q 883 3046 883 2362 
Q 883 1677 995 1238 
Q 1107 800 1312 595 
Q 1517 390 1779 390 
z
" transform="scale(0.015625)"/>
       </defs>
       <use xlink:href="#NotoSansKR-Regular-2d"/>
       <use xlink:href="#NotoSansKR-Regular-31" transform="translate(34.699997 0)"/>
       <use xlink:href="#NotoSansKR-Regular-2e" transform="translate(90.199982 0)"/>
       <use xlink:href="#NotoSansKR-Regular-30" transform="translate(117.999969 0)"/>
      </g>
     </g>
    </g>
    <g id="ytick_2">
     <g id="line2d_21">
      <path d="M 45.8 142.93846 
L 561.3 142.93846 
" clip-path="url(#peb7746a311)" style="fill: none; stroke: #b0b0b0; stroke-opacity: 0.3; stroke-width: 0.8; stroke-linecap: square"/>
     </g>
     <g id="line2d_22">
      <g>
       <use xlink:href="#mb4f11e2937" x="45.8" y="142.93846" style="stroke: #000000; stroke-width: 0.8"/>
      </g>
     </g>
     <g id="text_2">
      <!-- -0.5 -->
      <g transform="translate(21.45 146.918148) scale(0.1 -0.1)">
       <defs>
        <path id="NotoSansKR-Regular-35" d="M 1677 -83 
Q 1312 -83 1033 6 
Q 755 96 547 237 
Q 339 378 173 538 
L 467 922 
Q 602 787 765 668 
Q 928 550 1139 476 
Q 1350 403 1619 403 
Q 1894 403 2121 537 
Q 2349 672 2483 921 
Q 2618 1171 2618 1510 
Q 2618 2010 2352 2294 
Q 2086 2579 1645 2579 
Q 1414 2579 1241 2508 
Q 1069 2438 864 2304 
L 550 2502 
L 704 4691 
L 2982 4691 
L 2982 4192 
L 1216 4192 
L 1094 2835 
Q 1248 2925 1417 2973 
Q 1587 3021 1798 3021 
Q 2189 3021 2509 2864 
Q 2829 2707 3021 2374 
Q 3213 2042 3213 1523 
Q 3213 1011 2992 652 
Q 2771 294 2419 105 
Q 2067 -83 1677 -83 
z
" transform="scale(0.015625)"/>
       </defs>
       <use xlink:href="#NotoSansKR-Regular-2d"/>
       <use xlink:href="#NotoSansKR-Regular-30" transform="translate(34.699997 0)"/>
       <use xlink:href="#NotoSansKR-Regular-2e" transform="translate(90.199982 0)"/>
       <use xlink:href="#NotoSansKR-Regular-35" transform="translate(117.999969 0)"/>
      </g>
     </g>
    </g>
    <g id="ytick_3">
     <g id="line2d_23">
      <path d="M 45.8 105.395186 
L 561.3 105.395186 
" clip-path="url(#peb7746a311)" style="fill: none; stroke: #b0b0b0; stroke-opacity: 0.3; stroke-width: 0.8; stroke-linecap: square"/>
     </g>
     <g id="line2d_24">
      <g>
       <use xlink:href="#mb4f11e2937" x="45.8" y="105.395186" style="stroke: #000000; stroke-width: 0.8"/>
      </g>
     </g>
     <g id="text_3">
      <!-- 0.0 -->
      <g transform="translate(24.920313 109.374873) scale(0.1 -0.1)">
       <use xlink:href="#NotoSansKR-Regular-30"/>
       <use xlink:href="#NotoSansKR-Regular-2e" transform="translate(55.499985 0)"/>
       <use xlink:href="#NotoSansKR-Regular-30" transform="translate(83.299973 0)"/>
      </g>
     </g>
    </g>
    <g id="ytick_4">
     <g id="line2d_25">
      <path d="M 45.8 67.851911 
L 561.3 67.851911 
" clip-path="url(#peb7746a311)" style="fill: none; stroke: #b0b0b0; stroke-opacity: 0.3; stroke-width: 0.8; stroke-linecap: square"/>
     </g>
     <g id="line2d_26">
      <g>
       <use xlink:href="#mb4f11e2937" x="45.8" y="67.851911" style="stroke: #000000; stroke-width: 0.8"/>
      </g>
     </g>
     <g id="text_4">
      <!-- 0.5 -->
      <g transform="translate(24.920313 71.831599) scale(0.1 -0.1)">
       <use xlink:href="#NotoSansKR-Regular-30"/>
       <use xlink:href="#NotoSansKR-Regular-2e" transform="translate(55.499985 0)"/>
       <use xlink:href="#NotoSansKR-Regular-35" transform="translate(83.299973 0)"/>
      </g>
     </g>
    </g>
    <g id="ytick_5">
     <g id="line2d_27">
      <path d="M 45.8 30.308636 
L 561.3 30.308636 
" clip-path="url(#peb7746a311)" style="fill: none; stroke: #b0b0b0; stroke-opacity: 0.3; stroke-width: 0.8; stroke-linecap: square"/>
     </g>
     <g id="line2d_28">
      <g>
       <use xlink:href="#mb4f11e2937" x="45.8" y="30.308636" style="stroke: #000000; stroke-width: 0.8"/>
      </g>
     </g>
     <g id="text_5">
      <!-- 1.0 -->
      <g transform="translate(24.920313 34.288324) scale(0.1 -0.1)">
       <use xlink:href="#NotoSansKR-Regular-31"/>
       <use xlink:href="#NotoSansKR-Regular-2e" transform="translate(55.499985 0)"/>
       <use xlink:href="#NotoSansKR-Regular-30" transform="translate(83.299973 0)"/>
      </g>
     </g>
    </g>
    <g id="text_6">
     <!-- Amplitude -->
     <g transform="translate(15.159375 129.750469) rotate(-90) scale(0.1 -0.1)">
      <defs>
       <path id="NotoSansKR-Regular-41" d="M 26 0 
L 1613 4691 
L 2272 4691 
L 3866 0 
L 3238 0 
L 2419 2624 
Q 2291 3027 2176 3414 
Q 2061 3802 1946 4211 
L 1920 4211 
Q 1811 3802 1692 3414 
Q 1574 3027 1453 2624 
L 621 0 
L 26 0 
z
M 851 1434 
L 851 1901 
L 3014 1901 
L 3014 1434 
L 851 1434 
z
" transform="scale(0.015625)"/>
       <path id="NotoSansKR-Regular-6d" d="M 589 0 
L 589 3475 
L 1069 3475 
L 1126 2970 
L 1139 2970 
Q 1370 3219 1642 3392 
Q 1914 3565 2221 3565 
Q 2624 3565 2848 3385 
Q 3072 3206 3181 2899 
Q 3456 3194 3734 3379 
Q 4013 3565 4333 3565 
Q 4864 3565 5123 3216 
Q 5382 2867 5382 2202 
L 5382 0 
L 4800 0 
L 4800 2125 
Q 4800 2618 4643 2835 
Q 4486 3053 4154 3053 
Q 3955 3053 3740 2921 
Q 3526 2790 3277 2522 
L 3277 0 
L 2694 0 
L 2694 2125 
Q 2694 2618 2537 2835 
Q 2381 3053 2048 3053 
Q 1850 3053 1632 2921 
Q 1414 2790 1178 2522 
L 1178 0 
L 589 0 
z
" transform="scale(0.015625)"/>
       <path id="NotoSansKR-Regular-70" d="M 589 -1466 
L 589 3475 
L 1069 3475 
L 1126 3072 
L 1139 3072 
Q 1376 3270 1661 3417 
Q 1946 3565 2246 3565 
Q 2694 3565 3004 3344 
Q 3315 3123 3472 2726 
Q 3629 2330 3629 1792 
Q 3629 1197 3414 777 
Q 3200 358 2857 137 
Q 2515 -83 2118 -83 
Q 1882 -83 1638 22 
Q 1395 128 1158 320 
L 1178 -288 
L 1178 -1466 
L 589 -1466 
z
M 2022 410 
Q 2310 410 2537 573 
Q 2765 736 2893 1046 
Q 3021 1357 3021 1786 
Q 3021 2170 2928 2461 
Q 2835 2752 2636 2912 
Q 2438 3072 2099 3072 
Q 1882 3072 1654 2950 
Q 1427 2829 1178 2598 
L 1178 768 
Q 1408 570 1632 490 
Q 1856 410 2022 410 
z
" transform="scale(0.015625)"/>
       <path id="NotoSansKR-Regular-6c" d="M 1203 -83 
Q 986 -83 851 6 
Q 717 96 653 272 
Q 589 448 589 691 
L 589 5094 
L 1178 5094 
L 1178 653 
Q 1178 518 1226 460 
Q 1274 403 1338 403 
Q 1363 403 1388 406 
Q 1414 410 1459 416 
L 1542 -32 
Q 1478 -51 1401 -67 
Q 1325 -83 1203 -83 
z
" transform="scale(0.015625)"/>
       <path id="NotoSansKR-Regular-69" d="M 589 0 
L 589 3475 
L 1178 3475 
L 1178 0 
L 589 0 
z
M 883 4192 
Q 710 4192 604 4297 
Q 499 4403 499 4582 
Q 499 4755 604 4857 
Q 710 4960 883 4960 
Q 1056 4960 1165 4857 
Q 1274 4755 1274 4582 
Q 1274 4403 1165 4297 
Q 1056 4192 883 4192 
z
" transform="scale(0.015625)"/>
       <path id="NotoSansKR-Regular-74" d="M 1677 -83 
Q 1312 -83 1094 61 
Q 877 205 784 467 
Q 691 730 691 1075 
L 691 3002 
L 173 3002 
L 173 3443 
L 723 3475 
L 787 4454 
L 1274 4454 
L 1274 3475 
L 2221 3475 
L 2221 3002 
L 1274 3002 
L 1274 1056 
Q 1274 742 1392 566 
Q 1510 390 1811 390 
Q 1907 390 2016 419 
Q 2125 448 2208 486 
L 2323 45 
Q 2176 -6 2009 -44 
Q 1843 -83 1677 -83 
z
" transform="scale(0.015625)"/>
       <path id="NotoSansKR-Regular-75" d="M 1606 -83 
Q 1056 -83 797 262 
Q 538 608 538 1274 
L 538 3475 
L 1126 3475 
L 1126 1344 
Q 1126 864 1280 643 
Q 1434 422 1779 422 
Q 2048 422 2259 563 
Q 2470 704 2720 1011 
L 2720 3475 
L 3302 3475 
L 3302 0 
L 2816 0 
L 2771 544 
L 2752 544 
Q 2509 262 2237 89 
Q 1965 -83 1606 -83 
z
" transform="scale(0.015625)"/>
       <path id="NotoSansKR-Regular-64" d="M 1773 -83 
Q 1338 -83 1014 128 
Q 691 339 515 745 
Q 339 1152 339 1734 
Q 339 2298 550 2707 
Q 762 3117 1104 3341 
Q 1446 3565 1843 3565 
Q 2150 3565 2371 3459 
Q 2592 3354 2822 3162 
L 2790 3757 
L 2790 5094 
L 3379 5094 
L 3379 0 
L 2899 0 
L 2848 410 
L 2829 410 
Q 2624 205 2355 61 
Q 2086 -83 1773 -83 
z
M 1901 410 
Q 2144 410 2361 528 
Q 2579 646 2790 883 
L 2790 2707 
Q 2573 2906 2368 2989 
Q 2163 3072 1946 3072 
Q 1670 3072 1443 2902 
Q 1216 2733 1078 2435 
Q 941 2138 941 1741 
Q 941 1325 1056 1024 
Q 1171 723 1385 566 
Q 1600 410 1901 410 
z
" transform="scale(0.015625)"/>
       <path id="NotoSansKR-Regular-65" d="M 1997 -83 
Q 1530 -83 1152 134 
Q 774 352 553 758 
Q 333 1165 333 1734 
Q 333 2163 461 2499 
Q 589 2835 809 3075 
Q 1030 3315 1312 3440 
Q 1594 3565 1888 3565 
Q 2336 3565 2643 3366 
Q 2950 3168 3113 2800 
Q 3277 2432 3277 1933 
Q 3277 1837 3270 1753 
Q 3264 1670 3251 1600 
L 909 1600 
Q 928 1229 1078 957 
Q 1229 685 1478 534 
Q 1728 384 2061 384 
Q 2317 384 2525 457 
Q 2733 531 2931 659 
L 3136 269 
Q 2912 122 2630 19 
Q 2349 -83 1997 -83 
z
M 902 2016 
L 2765 2016 
Q 2765 2541 2537 2819 
Q 2310 3098 1901 3098 
Q 1658 3098 1443 2970 
Q 1229 2842 1085 2605 
Q 941 2368 902 2016 
z
" transform="scale(0.015625)"/>
      </defs>
      <use xlink:href="#NotoSansKR-Regular-41"/>
      <use xlink:href="#NotoSansKR-Regular-6d" transform="translate(60.799988 0)"/>
      <use xlink:href="#NotoSansKR-Regular-70" transform="translate(153.399979 0)"/>
      <use xlink:href="#NotoSansKR-Regular-6c" transform="translate(215.399963 0)"/>
      <use xlink:href="#NotoSansKR-Regular-69" transform="translate(243.799957 0)"/>
      <use xlink:href="#NotoSansKR-Regular-74" transform="translate(271.299942 0)"/>
      <use xlink:href="#NotoSansKR-Regular-75" transform="translate(308.999939 0)"/>
      <use xlink:href="#NotoSansKR-Regular-64" transform="translate(369.699936 0)"/>
      <use xlink:href="#NotoSansKR-Regular-65" transform="translate(431.699921 0)"/>
     </g>
    </g>
   </g>
   <g id="line2d_29">
    <path d="M 69.231818 30.308636 
L 71.10824 30.403664 
L 72.984662 30.688506 
L 74.861084 31.162441 
L 76.737506 31.824271 
L 79.083033 32.913186 
L 81.42856 34.288727 
L 83.774088 35.945456 
L 86.119615 37.876819 
L 88.465142 40.07518 
L 91.279775 43.053337 
L 94.094408 46.386443 
L 96.909041 50.05552 
L 100.192779 54.732768 
L 103.476517 59.802562 
L 107.229361 66.026761 
L 111.45131 73.501824 
L 116.142365 82.282012 
L 122.240736 94.220794 
L 141.004955 131.408842 
L 145.69601 140.040112 
L 149.917959 147.343891 
L 153.670803 153.388027 
L 156.954541 158.280275 
L 160.238279 162.762755 
L 163.052912 166.252321 
L 165.867545 169.395393 
L 168.682178 172.174074 
L 171.027705 174.19981 
L 173.373232 175.953462 
L 175.71876 177.428095 
L 178.064287 178.617878 
L 180.409814 179.518105 
L 182.286236 180.027377 
L 184.162658 180.347743 
L 186.03908 180.478393 
L 187.915502 180.418997 
L 189.791924 180.169705 
L 191.668346 179.731148 
L 193.544767 179.104435 
L 195.890295 178.058913 
L 198.235822 176.726046 
L 200.58135 175.111105 
L 202.926877 173.220477 
L 205.272404 171.061637 
L 208.087037 168.129082 
L 210.90167 164.839348 
L 213.716303 161.211163 
L 217.000041 156.57818 
L 220.283779 151.548616 
L 224.036623 145.365058 
L 228.258572 137.928423 
L 232.949627 129.181307 
L 238.578893 118.201224 
L 259.219533 77.398679 
L 263.910588 68.878972 
L 268.132537 61.700942 
L 271.885381 55.7874 
L 275.169119 51.022876 
L 278.452857 46.679643 
L 281.26749 43.317788 
L 284.082123 40.309375 
L 286.42765 38.084775 
L 288.773178 36.126351 
L 291.118705 34.441846 
L 293.464232 33.037923 
L 295.80976 31.920132 
L 298.155287 31.092895 
L 300.031709 30.64254 
L 301.908131 30.381395 
L 303.784553 30.310121 
L 305.660975 30.428899 
L 307.537396 30.737427 
L 309.413818 31.234924 
L 311.759346 32.120571 
L 314.104873 33.295978 
L 316.4504 34.756498 
L 318.795928 36.496355 
L 321.141455 38.508668 
L 323.486982 40.78548 
L 326.301615 43.854045 
L 329.116248 47.272999 
L 331.930881 51.022876 
L 335.214619 55.7874 
L 338.498357 60.936299 
L 342.251201 67.240114 
L 346.47315 74.790034 
L 351.164205 83.63402 
L 357.262576 95.623688 
L 374.619479 130.075267 
L 379.310533 138.777077 
L 383.532482 146.161444 
L 387.285326 152.28996 
L 390.569065 157.265187 
L 393.852803 161.838511 
L 396.667436 165.411671 
L 399.482068 168.643122 
L 402.296701 171.514467 
L 404.642229 173.620314 
L 406.987756 175.456369 
L 409.333283 177.015371 
L 411.678811 178.291154 
L 414.024338 179.278674 
L 416.369865 179.974027 
L 418.246287 180.31806 
L 420.122709 180.472453 
L 421.999131 180.436815 
L 423.875553 180.211235 
L 425.751975 179.796285 
L 427.628397 179.193015 
L 429.973924 178.176473 
L 432.319451 176.872122 
L 434.664979 175.28512 
L 437.010506 173.421741 
L 439.356033 171.289355 
L 442.170666 168.387348 
L 444.985299 165.126691 
L 447.799932 161.525947 
L 451.08367 156.922702 
L 454.367408 151.920209 
L 458.120252 145.76405 
L 462.342201 138.353402 
L 467.033256 129.628766 
L 472.662522 118.666303 
L 484.390158 95.155646 
L 490.957635 82.282012 
L 496.117795 72.649297 
L 500.339744 65.225619 
L 504.092588 59.05573 
L 507.376326 54.039676 
L 510.660065 49.421539 
L 513.474697 45.807057 
L 516.28933 42.531845 
L 519.103963 39.61455 
L 521.44949 37.468927 
L 523.795018 35.591914 
L 526.140545 33.990934 
L 528.486072 32.672318 
L 530.8316 31.641282 
L 533.177127 30.901901 
L 535.053549 30.522392 
L 536.929971 30.332397 
L 537.868182 30.308636 
L 537.868182 30.308636 
" clip-path="url(#peb7746a311)" style="fill: none; stroke: #000000; stroke-width: 2; stroke-linecap: square"/>
   </g>
   <g id="patch_3">
    <path d="M 45.8 187.99 
L 45.8 22.8 
" style="fill: none; stroke: #000000; stroke-width: 0.8; stroke-linejoin: miter; stroke-linecap: square"/>
   </g>
   <g id="patch_4">
    <path d="M 45.8 187.99 
L 561.3 187.99 
" style="fill: none; stroke: #000000; stroke-width: 0.8; stroke-linejoin: miter; stroke-linecap: square"/>
   </g>
   <g id="text_7">
    <!-- Message Signal $m(t)$ -->
    <g transform="translate(249.31 16.8) scale(0.12 -0.12)">
     <defs>
      <path id="NotoSansKR-Regular-4d" d="M 646 0 
L 646 4691 
L 1357 4691 
L 2253 2182 
Q 2342 1946 2425 1696 
Q 2509 1446 2592 1203 
L 2618 1203 
Q 2707 1446 2787 1696 
Q 2867 1946 2944 2182 
L 3840 4691 
L 4550 4691 
L 4550 0 
L 4000 0 
L 4000 2598 
Q 4000 2803 4013 3043 
Q 4026 3283 4045 3529 
Q 4064 3776 4077 3981 
L 4051 3981 
L 3674 2912 
L 2790 474 
L 2394 474 
L 1504 2912 
L 1126 3981 
L 1101 3981 
Q 1126 3776 1142 3529 
Q 1158 3283 1168 3043 
Q 1178 2803 1178 2598 
L 1178 0 
L 646 0 
z
" transform="scale(0.015625)"/>
      <path id="NotoSansKR-Regular-73" d="M 1498 -83 
Q 1133 -83 790 54 
Q 448 192 205 397 
L 486 787 
Q 717 602 960 486 
Q 1203 371 1517 371 
Q 1862 371 2032 528 
Q 2202 685 2202 915 
Q 2202 1094 2083 1212 
Q 1965 1331 1782 1417 
Q 1600 1504 1408 1574 
Q 1165 1670 931 1788 
Q 698 1907 547 2096 
Q 397 2285 397 2579 
Q 397 2861 537 3081 
Q 678 3302 947 3433 
Q 1216 3565 1594 3565 
Q 1914 3565 2192 3449 
Q 2470 3334 2669 3168 
L 2387 2803 
Q 2208 2931 2019 3020 
Q 1830 3110 1600 3110 
Q 1267 3110 1110 2960 
Q 954 2810 954 2605 
Q 954 2445 1059 2336 
Q 1165 2227 1337 2153 
Q 1510 2080 1702 2003 
Q 1894 1933 2083 1849 
Q 2272 1766 2422 1651 
Q 2573 1536 2665 1366 
Q 2758 1197 2758 947 
Q 2758 666 2614 429 
Q 2470 192 2192 54 
Q 1914 -83 1498 -83 
z
" transform="scale(0.015625)"/>
      <path id="NotoSansKR-Regular-61" d="M 1389 -83 
Q 1101 -83 870 32 
Q 640 147 509 368 
Q 378 589 378 902 
Q 378 1472 886 1776 
Q 1395 2080 2509 2202 
Q 2509 2426 2448 2627 
Q 2387 2829 2233 2953 
Q 2080 3078 1792 3078 
Q 1491 3078 1225 2960 
Q 960 2842 749 2707 
L 525 3110 
Q 685 3213 896 3318 
Q 1107 3424 1356 3494 
Q 1606 3565 1888 3565 
Q 2310 3565 2576 3385 
Q 2842 3206 2966 2889 
Q 3091 2573 3091 2138 
L 3091 0 
L 2611 0 
L 2560 416 
L 2541 416 
Q 2298 211 2006 64 
Q 1715 -83 1389 -83 
z
M 1555 390 
Q 1805 390 2032 505 
Q 2259 621 2509 845 
L 2509 1811 
Q 1926 1747 1580 1628 
Q 1235 1510 1088 1340 
Q 941 1171 941 941 
Q 941 640 1120 515 
Q 1299 390 1555 390 
z
" transform="scale(0.015625)"/>
      <path id="NotoSansKR-Regular-67" d="M 1760 -1600 
Q 1338 -1600 1011 -1491 
Q 685 -1382 505 -1174 
Q 326 -966 326 -672 
Q 326 -448 460 -240 
Q 595 -32 838 115 
L 838 147 
Q 704 230 614 371 
Q 525 512 525 717 
Q 525 934 649 1100 
Q 774 1267 909 1363 
L 909 1389 
Q 736 1523 595 1766 
Q 454 2010 454 2323 
Q 454 2707 633 2985 
Q 813 3264 1110 3414 
Q 1408 3565 1754 3565 
Q 1907 3565 2032 3539 
Q 2157 3514 2246 3475 
L 3456 3475 
L 3456 3027 
L 2746 3027 
Q 2874 2906 2950 2720 
Q 3027 2534 3027 2310 
Q 3027 1939 2857 1667 
Q 2688 1395 2400 1248 
Q 2112 1101 1754 1101 
Q 1632 1101 1494 1133 
Q 1357 1165 1242 1222 
Q 1146 1146 1082 1050 
Q 1018 954 1018 806 
Q 1018 646 1146 537 
Q 1274 429 1626 429 
L 2310 429 
Q 2912 429 3216 230 
Q 3520 32 3520 -397 
Q 3520 -717 3302 -992 
Q 3085 -1267 2691 -1433 
Q 2298 -1600 1760 -1600 
z
M 1754 1498 
Q 1958 1498 2128 1600 
Q 2298 1702 2397 1888 
Q 2496 2074 2496 2323 
Q 2496 2579 2397 2761 
Q 2298 2944 2131 3040 
Q 1965 3136 1754 3136 
Q 1555 3136 1385 3040 
Q 1216 2944 1117 2765 
Q 1018 2586 1018 2323 
Q 1018 2074 1120 1888 
Q 1222 1702 1388 1600 
Q 1555 1498 1754 1498 
z
M 1843 -1197 
Q 2176 -1197 2422 -1094 
Q 2669 -992 2806 -829 
Q 2944 -666 2944 -493 
Q 2944 -243 2765 -147 
Q 2586 -51 2240 -51 
L 1638 -51 
Q 1542 -51 1424 -41 
Q 1306 -32 1190 0 
Q 1005 -128 921 -285 
Q 838 -442 838 -589 
Q 838 -864 1104 -1030 
Q 1370 -1197 1843 -1197 
z
" transform="scale(0.015625)"/>
      <path id="NotoSansKR-Regular-20" transform="scale(0.015625)"/>
      <path id="NotoSansKR-Regular-53" d="M 1946 -83 
Q 1446 -83 1027 102 
Q 608 288 307 608 
L 659 1018 
Q 909 755 1248 595 
Q 1587 435 1952 435 
Q 2419 435 2678 646 
Q 2938 858 2938 1197 
Q 2938 1446 2832 1593 
Q 2726 1741 2550 1840 
Q 2374 1939 2150 2035 
L 1478 2330 
Q 1261 2426 1040 2573 
Q 819 2720 672 2957 
Q 525 3194 525 3533 
Q 525 3898 717 4176 
Q 909 4454 1241 4614 
Q 1574 4774 2003 4774 
Q 2426 4774 2781 4614 
Q 3136 4454 3379 4198 
L 3072 3821 
Q 2854 4019 2595 4137 
Q 2336 4256 2003 4256 
Q 1606 4256 1366 4073 
Q 1126 3891 1126 3578 
Q 1126 3347 1244 3200 
Q 1363 3053 1542 2963 
Q 1722 2874 1907 2790 
L 2573 2502 
Q 2842 2387 3062 2227 
Q 3283 2067 3411 1830 
Q 3539 1594 3539 1248 
Q 3539 877 3347 573 
Q 3155 269 2796 93 
Q 2438 -83 1946 -83 
z
" transform="scale(0.015625)"/>
      <path id="NotoSansKR-Regular-6e" d="M 589 0 
L 589 3475 
L 1069 3475 
L 1126 2970 
L 1139 2970 
Q 1389 3219 1667 3392 
Q 1946 3565 2304 3565 
Q 2854 3565 3110 3216 
Q 3366 2867 3366 2202 
L 3366 0 
L 2784 0 
L 2784 2125 
Q 2784 2618 2627 2835 
Q 2470 3053 2125 3053 
Q 1856 3053 1645 2918 
Q 1434 2784 1178 2522 
L 1178 0 
L 589 0 
z
" transform="scale(0.015625)"/>
      <path id="STIXGeneral-Italic-1d62e" d="M 1619 2938 
L 1530 2573 
Q 1939 2963 2515 2963 
Q 3078 2963 3251 2547 
Q 3725 2963 4262 2963 
Q 4576 2963 4768 2796 
Q 4960 2630 4960 2310 
Q 4960 2176 4922 2016 
L 4422 0 
L 3930 0 
L 4397 1875 
Q 4435 2029 4435 2144 
Q 4435 2509 4045 2509 
Q 3872 2509 3584 2345 
Q 3296 2182 3149 1933 
L 2669 0 
L 2176 0 
L 2630 1856 
Q 2675 2061 2675 2144 
Q 2675 2509 2298 2509 
Q 2125 2509 1833 2349 
Q 1542 2189 1389 1933 
L 909 0 
L 416 0 
L 1114 2816 
L 1568 2970 
L 1619 2938 
z
" transform="scale(0.015625)"/>
      <path id="STIXGeneral-Regular-28" d="M 1946 -1030 
L 1869 -1133 
Q 1126 -710 716 32 
Q 307 774 307 1613 
Q 307 3386 1888 4326 
L 1946 4224 
Q 1293 3667 1075 3126 
Q 858 2586 858 1632 
Q 858 685 1082 96 
Q 1306 -493 1946 -1030 
z
" transform="scale(0.015625)"/>
      <path id="STIXGeneral-Italic-1d635" d="M 2406 2899 
L 2298 2445 
L 1632 2445 
L 1242 877 
Q 1203 723 1203 627 
Q 1203 390 1446 390 
Q 1677 390 1894 557 
L 1971 557 
L 1779 77 
Q 1562 -64 1184 -64 
Q 922 -64 784 67 
Q 646 198 646 429 
Q 646 525 678 666 
L 1126 2445 
L 614 2445 
L 640 2554 
L 1011 2899 
L 1235 2899 
L 1338 3309 
L 1830 3712 
L 1946 3712 
L 1741 2899 
L 2406 2899 
z
" transform="scale(0.015625)"/>
      <path id="STIXGeneral-Regular-29" d="M 186 4224 
L 262 4326 
Q 992 3891 1408 3148 
Q 1824 2406 1824 1581 
Q 1824 -166 243 -1133 
L 186 -1030 
Q 845 -486 1059 54 
Q 1274 595 1274 1562 
Q 1274 2534 1059 3120 
Q 845 3706 186 4224 
z
" transform="scale(0.015625)"/>
     </defs>
     <use xlink:href="#NotoSansKR-Regular-4d" transform="translate(0 0.40625)"/>
     <use xlink:href="#NotoSansKR-Regular-65" transform="translate(81.199982 0.40625)"/>
     <use xlink:href="#NotoSansKR-Regular-73" transform="translate(136.599976 0.40625)"/>
     <use xlink:href="#NotoSansKR-Regular-73" transform="translate(183.399963 0.40625)"/>
     <use xlink:href="#NotoSansKR-Regular-61" transform="translate(230.199951 0.40625)"/>
     <use xlink:href="#NotoSansKR-Regular-67" transform="translate(286.499939 0.40625)"/>
     <use xlink:href="#NotoSansKR-Regular-65" transform="translate(342.899933 0.40625)"/>
     <use xlink:href="#NotoSansKR-Regular-20" transform="translate(398.299927 0.40625)"/>
     <use xlink:href="#NotoSansKR-Regular-53" transform="translate(420.699921 0.40625)"/>
     <use xlink:href="#NotoSansKR-Regular-69" transform="translate(480.299911 0.40625)"/>
     <use xlink:href="#NotoSansKR-Regular-67" transform="translate(507.799896 0.40625)"/>
     <use xlink:href="#NotoSansKR-Regular-6e" transform="translate(564.19989 0.40625)"/>
     <use xlink:href="#NotoSansKR-Regular-61" transform="translate(625.199875 0.40625)"/>
     <use xlink:href="#NotoSansKR-Regular-6c" transform="translate(681.499863 0.40625)"/>
     <use xlink:href="#NotoSansKR-Regular-20" transform="translate(709.899857 0.40625)"/>
     <use xlink:href="#STIXGeneral-Italic-1d62e" transform="translate(732.29985 0.40625)"/>
     <use xlink:href="#STIXGeneral-Regular-28" transform="translate(807.899841 0.40625)"/>
     <use xlink:href="#STIXGeneral-Italic-1d635" transform="translate(841.199829 0.40625)"/>
     <use xlink:href="#STIXGeneral-Regular-29" transform="translate(870.29982 0.40625)"/>
    </g>
   </g>
  </g>
  <g id="axes_2">
   <g id="patch_5">
    <path d="M 45.8 384.52 
L 561.3 384.52 
L 561.3 219.33 
L 45.8 219.33 
z
" style="fill: #ffffff"/>
   </g>
   <g id="matplotlib.axis_3">
    <g id="xtick_10">
     <g id="line2d_30">
      <path d="M 69.231818 384.52 
L 69.231818 219.33 
" clip-path="url(#pe84068fafa)" style="fill: none; stroke: #b0b0b0; stroke-opacity: 0.3; stroke-width: 0.8; stroke-linecap: square"/>
     </g>
     <g id="line2d_31">
      <g>
       <use xlink:href="#mf2fb3a786a" x="69.231818" y="384.52" style="stroke: #000000; stroke-width: 0.8"/>
      </g>
     </g>
     <g id="text_8">
      <!-- 0.00 -->
      <g transform="translate(59.516974 399.479375) scale(0.1 -0.1)">
       <use xlink:href="#NotoSansKR-Regular-30"/>
       <use xlink:href="#NotoSansKR-Regular-2e" transform="translate(55.499985 0)"/>
       <use xlink:href="#NotoSansKR-Regular-30" transform="translate(83.299973 0)"/>
       <use xlink:href="#NotoSansKR-Regular-30" transform="translate(138.799957 0)"/>
      </g>
     </g>
    </g>
    <g id="xtick_11">
     <g id="line2d_32">
      <path d="M 127.811364 384.52 
L 127.811364 219.33 
" clip-path="url(#pe84068fafa)" style="fill: none; stroke: #b0b0b0; stroke-opacity: 0.3; stroke-width: 0.8; stroke-linecap: square"/>
     </g>
     <g id="line2d_33">
      <g>
       <use xlink:href="#mf2fb3a786a" x="127.811364" y="384.52" style="stroke: #000000; stroke-width: 0.8"/>
      </g>
     </g>
     <g id="text_9">
      <!-- 0.25 -->
      <g transform="translate(118.09652 399.479375) scale(0.1 -0.1)">
       <defs>
        <path id="NotoSansKR-Regular-32" d="M 282 0 
L 282 346 
Q 1018 992 1494 1523 
Q 1971 2054 2201 2512 
Q 2432 2970 2432 3373 
Q 2432 3642 2339 3853 
Q 2246 4064 2054 4182 
Q 1862 4301 1568 4301 
Q 1280 4301 1033 4147 
Q 787 3994 595 3757 
L 256 4090 
Q 538 4403 864 4588 
Q 1190 4774 1638 4774 
Q 2061 4774 2365 4604 
Q 2669 4435 2838 4124 
Q 3008 3814 3008 3398 
Q 3008 2931 2774 2451 
Q 2541 1971 2128 1475 
Q 1715 979 1165 461 
Q 1350 474 1552 490 
Q 1754 506 1933 506 
L 3232 506 
L 3232 0 
L 282 0 
z
" transform="scale(0.015625)"/>
       </defs>
       <use xlink:href="#NotoSansKR-Regular-30"/>
       <use xlink:href="#NotoSansKR-Regular-2e" transform="translate(55.499985 0)"/>
       <use xlink:href="#NotoSansKR-Regular-32" transform="translate(83.299973 0)"/>
       <use xlink:href="#NotoSansKR-Regular-35" transform="translate(138.799957 0)"/>
      </g>
     </g>
    </g>
    <g id="xtick_12">
     <g id="line2d_34">
      <path d="M 186.390909 384.52 
L 186.390909 219.33 
" clip-path="url(#pe84068fafa)" style="fill: none; stroke: #b0b0b0; stroke-opacity: 0.3; stroke-width: 0.8; stroke-linecap: square"/>
     </g>
     <g id="line2d_35">
      <g>
       <use xlink:href="#mf2fb3a786a" x="186.390909" y="384.52" style="stroke: #000000; stroke-width: 0.8"/>
      </g>
     </g>
     <g id="text_10">
      <!-- 0.50 -->
      <g transform="translate(176.676065 399.479375) scale(0.1 -0.1)">
       <use xlink:href="#NotoSansKR-Regular-30"/>
       <use xlink:href="#NotoSansKR-Regular-2e" transform="translate(55.499985 0)"/>
       <use xlink:href="#NotoSansKR-Regular-35" transform="translate(83.299973 0)"/>
       <use xlink:href="#NotoSansKR-Regular-30" transform="translate(138.799957 0)"/>
      </g>
     </g>
    </g>
    <g id="xtick_13">
     <g id="line2d_36">
      <path d="M 244.970455 384.52 
L 244.970455 219.33 
" clip-path="url(#pe84068fafa)" style="fill: none; stroke: #b0b0b0; stroke-opacity: 0.3; stroke-width: 0.8; stroke-linecap: square"/>
     </g>
     <g id="line2d_37">
      <g>
       <use xlink:href="#mf2fb3a786a" x="244.970455" y="384.52" style="stroke: #000000; stroke-width: 0.8"/>
      </g>
     </g>
     <g id="text_11">
      <!-- 0.75 -->
      <g transform="translate(235.255611 399.479375) scale(0.1 -0.1)">
       <defs>
        <path id="NotoSansKR-Regular-37" d="M 1267 0 
Q 1299 666 1379 1226 
Q 1459 1786 1612 2282 
Q 1766 2778 2006 3245 
Q 2246 3712 2592 4192 
L 314 4192 
L 314 4691 
L 3251 4691 
L 3251 4339 
Q 2842 3808 2582 3321 
Q 2323 2835 2179 2329 
Q 2035 1824 1968 1257 
Q 1901 691 1875 0 
L 1267 0 
z
" transform="scale(0.015625)"/>
       </defs>
       <use xlink:href="#NotoSansKR-Regular-30"/>
       <use xlink:href="#NotoSansKR-Regular-2e" transform="translate(55.499985 0)"/>
       <use xlink:href="#NotoSansKR-Regular-37" transform="translate(83.299973 0)"/>
       <use xlink:href="#NotoSansKR-Regular-35" transform="translate(138.799957 0)"/>
      </g>
     </g>
    </g>
    <g id="xtick_14">
     <g id="line2d_38">
      <path d="M 303.55 384.52 
L 303.55 219.33 
" clip-path="url(#pe84068fafa)" style="fill: none; stroke: #b0b0b0; stroke-opacity: 0.3; stroke-width: 0.8; stroke-linecap: square"/>
     </g>
     <g id="line2d_39">
      <g>
       <use xlink:href="#mf2fb3a786a" x="303.55" y="384.52" style="stroke: #000000; stroke-width: 0.8"/>
      </g>
     </g>
     <g id="text_12">
      <!-- 1.00 -->
      <g transform="translate(293.835156 399.479375) scale(0.1 -0.1)">
       <use xlink:href="#NotoSansKR-Regular-31"/>
       <use xlink:href="#NotoSansKR-Regular-2e" transform="translate(55.499985 0)"/>
       <use xlink:href="#NotoSansKR-Regular-30" transform="translate(83.299973 0)"/>
       <use xlink:href="#NotoSansKR-Regular-30" transform="translate(138.799957 0)"/>
      </g>
     </g>
    </g>
    <g id="xtick_15">
     <g id="line2d_40">
      <path d="M 362.129545 384.52 
L 362.129545 219.33 
" clip-path="url(#pe84068fafa)" style="fill: none; stroke: #b0b0b0; stroke-opacity: 0.3; stroke-width: 0.8; stroke-linecap: square"/>
     </g>
     <g id="line2d_41">
      <g>
       <use xlink:href="#mf2fb3a786a" x="362.129545" y="384.52" style="stroke: #000000; stroke-width: 0.8"/>
      </g>
     </g>
     <g id="text_13">
      <!-- 1.25 -->
      <g transform="translate(352.414702 399.479375) scale(0.1 -0.1)">
       <use xlink:href="#NotoSansKR-Regular-31"/>
       <use xlink:href="#NotoSansKR-Regular-2e" transform="translate(55.499985 0)"/>
       <use xlink:href="#NotoSansKR-Regular-32" transform="translate(83.299973 0)"/>
       <use xlink:href="#NotoSansKR-Regular-35" transform="translate(138.799957 0)"/>
      </g>
     </g>
    </g>
    <g id="xtick_16">
     <g id="line2d_42">
      <path d="M 420.709091 384.52 
L 420.709091 219.33 
" clip-path="url(#pe84068fafa)" style="fill: none; stroke: #b0b0b0; stroke-opacity: 0.3; stroke-width: 0.8; stroke-linecap: square"/>
     </g>
     <g id="line2d_43">
      <g>
       <use xlink:href="#mf2fb3a786a" x="420.709091" y="384.52" style="stroke: #000000; stroke-width: 0.8"/>
      </g>
     </g>
     <g id="text_14">
      <!-- 1.50 -->
      <g transform="translate(410.994247 399.479375) scale(0.1 -0.1)">
       <use xlink:href="#NotoSansKR-Regular-31"/>
       <use xlink:href="#NotoSansKR-Regular-2e" transform="translate(55.499985 0)"/>
       <use xlink:href="#NotoSansKR-Regular-35" transform="translate(83.299973 0)"/>
       <use xlink:href="#NotoSansKR-Regular-30" transform="translate(138.799957 0)"/>
      </g>
     </g>
    </g>
    <g id="xtick_17">
     <g id="line2d_44">
      <path d="M 479.288636 384.52 
L 479.288636 219.33 
" clip-path="url(#pe84068fafa)" style="fill: none; stroke: #b0b0b0; stroke-opacity: 0.3; stroke-width: 0.8; stroke-linecap: square"/>
     </g>
     <g id="line2d_45">
      <g>
       <use xlink:href="#mf2fb3a786a" x="479.288636" y="384.52" style="stroke: #000000; stroke-width: 0.8"/>
      </g>
     </g>
     <g id="text_15">
      <!-- 1.75 -->
      <g transform="translate(469.573793 399.479375) scale(0.1 -0.1)">
       <use xlink:href="#NotoSansKR-Regular-31"/>
       <use xlink:href="#NotoSansKR-Regular-2e" transform="translate(55.499985 0)"/>
       <use xlink:href="#NotoSansKR-Regular-37" transform="translate(83.299973 0)"/>
       <use xlink:href="#NotoSansKR-Regular-35" transform="translate(138.799957 0)"/>
      </g>
     </g>
    </g>
    <g id="xtick_18">
     <g id="line2d_46">
      <path d="M 537.868182 384.52 
L 537.868182 219.33 
" clip-path="url(#pe84068fafa)" style="fill: none; stroke: #b0b0b0; stroke-opacity: 0.3; stroke-width: 0.8; stroke-linecap: square"/>
     </g>
     <g id="line2d_47">
      <g>
       <use xlink:href="#mf2fb3a786a" x="537.868182" y="384.52" style="stroke: #000000; stroke-width: 0.8"/>
      </g>
     </g>
     <g id="text_16">
      <!-- 2.00 -->
      <g transform="translate(528.153338 399.479375) scale(0.1 -0.1)">
       <use xlink:href="#NotoSansKR-Regular-32"/>
       <use xlink:href="#NotoSansKR-Regular-2e" transform="translate(55.499985 0)"/>
       <use xlink:href="#NotoSansKR-Regular-30" transform="translate(83.299973 0)"/>
       <use xlink:href="#NotoSansKR-Regular-30" transform="translate(138.799957 0)"/>
      </g>
     </g>
    </g>
    <g id="text_17">
     <!-- Time (s) -->
     <g transform="translate(284.939844 413.729375) scale(0.1 -0.1)">
      <defs>
       <path id="NotoSansKR-Regular-54" d="M 1619 0 
L 1619 4192 
L 198 4192 
L 198 4691 
L 3635 4691 
L 3635 4192 
L 2214 4192 
L 2214 0 
L 1619 0 
z
" transform="scale(0.015625)"/>
       <path id="NotoSansKR-Regular-28" d="M 1530 -1254 
Q 1088 -538 838 252 
Q 589 1043 589 1990 
Q 589 2931 838 3724 
Q 1088 4518 1530 5235 
L 1888 5069 
Q 1478 4384 1276 3593 
Q 1075 2803 1075 1990 
Q 1075 1171 1276 380 
Q 1478 -410 1888 -1094 
L 1530 -1254 
z
" transform="scale(0.015625)"/>
       <path id="NotoSansKR-Regular-29" d="M 634 -1254 
L 269 -1094 
Q 685 -410 889 380 
Q 1094 1171 1094 1990 
Q 1094 2803 889 3593 
Q 685 4384 269 5069 
L 634 5235 
Q 1082 4518 1328 3724 
Q 1574 2931 1574 1990 
Q 1574 1043 1328 252 
Q 1082 -538 634 -1254 
z
" transform="scale(0.015625)"/>
      </defs>
      <use xlink:href="#NotoSansKR-Regular-54"/>
      <use xlink:href="#NotoSansKR-Regular-69" transform="translate(59.899994 0)"/>
      <use xlink:href="#NotoSansKR-Regular-6d" transform="translate(87.399979 0)"/>
      <use xlink:href="#NotoSansKR-Regular-65" transform="translate(179.999969 0)"/>
      <use xlink:href="#NotoSansKR-Regular-20" transform="translate(235.399963 0)"/>
      <use xlink:href="#NotoSansKR-Regular-28" transform="translate(257.799957 0)"/>
      <use xlink:href="#NotoSansKR-Regular-73" transform="translate(291.599945 0)"/>
      <use xlink:href="#NotoSansKR-Regular-29" transform="translate(338.399933 0)"/>
     </g>
    </g>
   </g>
   <g id="matplotlib.axis_4">
    <g id="ytick_6">
     <g id="line2d_48">
      <path d="M 45.8 384.52 
L 561.3 384.52 
" clip-path="url(#pe84068fafa)" style="fill: none; stroke: #b0b0b0; stroke-opacity: 0.3; stroke-width: 0.8; stroke-linecap: square"/>
     </g>
     <g id="line2d_49">
      <g>
       <use xlink:href="#mb4f11e2937" x="45.8" y="384.52" style="stroke: #000000; stroke-width: 0.8"/>
      </g>
     </g>
     <g id="text_18">
      <!-- -1.5 -->
      <g transform="translate(21.45 388.499688) scale(0.1 -0.1)">
       <use xlink:href="#NotoSansKR-Regular-2d"/>
       <use xlink:href="#NotoSansKR-Regular-31" transform="translate(34.699997 0)"/>
       <use xlink:href="#NotoSansKR-Regular-2e" transform="translate(90.199982 0)"/>
       <use xlink:href="#NotoSansKR-Regular-35" transform="translate(117.999969 0)"/>
      </g>
     </g>
    </g>
    <g id="ytick_7">
     <g id="line2d_50">
      <path d="M 45.8 362.197027 
L 561.3 362.197027 
" clip-path="url(#pe84068fafa)" style="fill: none; stroke: #b0b0b0; stroke-opacity: 0.3; stroke-width: 0.8; stroke-linecap: square"/>
     </g>
     <g id="line2d_51">
      <g>
       <use xlink:href="#mb4f11e2937" x="45.8" y="362.197027" style="stroke: #000000; stroke-width: 0.8"/>
      </g>
     </g>
     <g id="text_19">
      <!-- -1.0 -->
      <g transform="translate(21.45 366.176715) scale(0.1 -0.1)">
       <use xlink:href="#NotoSansKR-Regular-2d"/>
       <use xlink:href="#NotoSansKR-Regular-31" transform="translate(34.699997 0)"/>
       <use xlink:href="#NotoSansKR-Regular-2e" transform="translate(90.199982 0)"/>
       <use xlink:href="#NotoSansKR-Regular-30" transform="translate(117.999969 0)"/>
      </g>
     </g>
    </g>
    <g id="ytick_8">
     <g id="line2d_52">
      <path d="M 45.8 339.874054 
L 561.3 339.874054 
" clip-path="url(#pe84068fafa)" style="fill: none; stroke: #b0b0b0; stroke-opacity: 0.3; stroke-width: 0.8; stroke-linecap: square"/>
     </g>
     <g id="line2d_53">
      <g>
       <use xlink:href="#mb4f11e2937" x="45.8" y="339.874054" style="stroke: #000000; stroke-width: 0.8"/>
      </g>
     </g>
     <g id="text_20">
      <!-- -0.5 -->
      <g transform="translate(21.45 343.853742) scale(0.1 -0.1)">
       <use xlink:href="#NotoSansKR-Regular-2d"/>
       <use xlink:href="#NotoSansKR-Regular-30" transform="translate(34.699997 0)"/>
       <use xlink:href="#NotoSansKR-Regular-2e" transform="translate(90.199982 0)"/>
       <use xlink:href="#NotoSansKR-Regular-35" transform="translate(117.999969 0)"/>
      </g>
     </g>
    </g>
    <g id="ytick_9">
     <g id="line2d_54">
      <path d="M 45.8 317.551081 
L 561.3 317.551081 
" clip-path="url(#pe84068fafa)" style="fill: none; stroke: #b0b0b0; stroke-opacity: 0.3; stroke-width: 0.8; stroke-linecap: square"/>
     </g>
     <g id="line2d_55">
      <g>
       <use xlink:href="#mb4f11e2937" x="45.8" y="317.551081" style="stroke: #000000; stroke-width: 0.8"/>
      </g>
     </g>
     <g id="text_21">
      <!-- 0.0 -->
      <g transform="translate(24.920313 321.530769) scale(0.1 -0.1)">
       <use xlink:href="#NotoSansKR-Regular-30"/>
       <use xlink:href="#NotoSansKR-Regular-2e" transform="translate(55.499985 0)"/>
       <use xlink:href="#NotoSansKR-Regular-30" transform="translate(83.299973 0)"/>
      </g>
     </g>
    </g>
    <g id="ytick_10">
     <g id="line2d_56">
      <path d="M 45.8 295.228108 
L 561.3 295.228108 
" clip-path="url(#pe84068fafa)" style="fill: none; stroke: #b0b0b0; stroke-opacity: 0.3; stroke-width: 0.8; stroke-linecap: square"/>
     </g>
     <g id="line2d_57">
      <g>
       <use xlink:href="#mb4f11e2937" x="45.8" y="295.228108" style="stroke: #000000; stroke-width: 0.8"/>
      </g>
     </g>
     <g id="text_22">
      <!-- 0.5 -->
      <g transform="translate(24.920313 299.207796) scale(0.1 -0.1)">
       <use xlink:href="#NotoSansKR-Regular-30"/>
       <use xlink:href="#NotoSansKR-Regular-2e" transform="translate(55.499985 0)"/>
       <use xlink:href="#NotoSansKR-Regular-35" transform="translate(83.299973 0)"/>
      </g>
     </g>
    </g>
    <g id="ytick_11">
     <g id="line2d_58">
      <path d="M 45.8 272.905135 
L 561.3 272.905135 
" clip-path="url(#pe84068fafa)" style="fill: none; stroke: #b0b0b0; stroke-opacity: 0.3; stroke-width: 0.8; stroke-linecap: square"/>
     </g>
     <g id="line2d_59">
      <g>
       <use xlink:href="#mb4f11e2937" x="45.8" y="272.905135" style="stroke: #000000; stroke-width: 0.8"/>
      </g>
     </g>
     <g id="text_23">
      <!-- 1.0 -->
      <g transform="translate(24.920313 276.884823) scale(0.1 -0.1)">
       <use xlink:href="#NotoSansKR-Regular-31"/>
       <use xlink:href="#NotoSansKR-Regular-2e" transform="translate(55.499985 0)"/>
       <use xlink:href="#NotoSansKR-Regular-30" transform="translate(83.299973 0)"/>
      </g>
     </g>
    </g>
    <g id="ytick_12">
     <g id="line2d_60">
      <path d="M 45.8 250.582162 
L 561.3 250.582162 
" clip-path="url(#pe84068fafa)" style="fill: none; stroke: #b0b0b0; stroke-opacity: 0.3; stroke-width: 0.8; stroke-linecap: square"/>
     </g>
     <g id="line2d_61">
      <g>
       <use xlink:href="#mb4f11e2937" x="45.8" y="250.582162" style="stroke: #000000; stroke-width: 0.8"/>
      </g>
     </g>
     <g id="text_24">
      <!-- 1.5 -->
      <g transform="translate(24.920313 254.56185) scale(0.1 -0.1)">
       <use xlink:href="#NotoSansKR-Regular-31"/>
       <use xlink:href="#NotoSansKR-Regular-2e" transform="translate(55.499985 0)"/>
       <use xlink:href="#NotoSansKR-Regular-35" transform="translate(83.299973 0)"/>
      </g>
     </g>
    </g>
    <g id="ytick_13">
     <g id="line2d_62">
      <path d="M 45.8 228.259189 
L 561.3 228.259189 
" clip-path="url(#pe84068fafa)" style="fill: none; stroke: #b0b0b0; stroke-opacity: 0.3; stroke-width: 0.8; stroke-linecap: square"/>
     </g>
     <g id="line2d_63">
      <g>
       <use xlink:href="#mb4f11e2937" x="45.8" y="228.259189" style="stroke: #000000; stroke-width: 0.8"/>
      </g>
     </g>
     <g id="text_25">
      <!-- 2.0 -->
      <g transform="translate(24.920313 232.238877) scale(0.1 -0.1)">
       <use xlink:href="#NotoSansKR-Regular-32"/>
       <use xlink:href="#NotoSansKR-Regular-2e" transform="translate(55.499985 0)"/>
       <use xlink:href="#NotoSansKR-Regular-30" transform="translate(83.299973 0)"/>
      </g>
     </g>
    </g>
    <g id="text_26">
     <!-- Amplitude -->
     <g transform="translate(15.159375 326.280469) rotate(-90) scale(0.1 -0.1)">
      <use xlink:href="#NotoSansKR-Regular-41"/>
      <use xlink:href="#NotoSansKR-Regular-6d" transform="translate(60.799988 0)"/>
      <use xlink:href="#NotoSansKR-Regular-70" transform="translate(153.399979 0)"/>
      <use xlink:href="#NotoSansKR-Regular-6c" transform="translate(215.399963 0)"/>
      <use xlink:href="#NotoSansKR-Regular-69" transform="translate(243.799957 0)"/>
      <use xlink:href="#NotoSansKR-Regular-74" transform="translate(271.299942 0)"/>
      <use xlink:href="#NotoSansKR-Regular-75" transform="translate(308.999939 0)"/>
      <use xlink:href="#NotoSansKR-Regular-64" transform="translate(369.699936 0)"/>
      <use xlink:href="#NotoSansKR-Regular-65" transform="translate(431.699921 0)"/>
     </g>
    </g>
   </g>
   <g id="line2d_64">
    <path d="M 69.231818 272.905135 
L 69.700924 275.094558 
L 70.170029 281.447567 
L 70.639135 291.339703 
L 72.984662 353.691869 
L 73.453767 360.0176 
L 73.922873 362.197026 
L 74.391978 360.025012 
L 74.861084 353.721567 
L 75.330189 343.908403 
L 77.675717 281.792946 
L 78.144822 275.326766 
L 78.613928 272.914212 
L 79.083033 274.771278 
L 79.552139 280.704442 
L 80.021244 290.132833 
L 80.959455 315.600008 
L 81.897666 341.714495 
L 82.366771 351.930492 
L 82.835877 358.922029 
L 83.304982 362.056026 
L 83.774088 361.063388 
L 84.243193 356.059311 
L 84.712299 347.527519 
L 85.65051 323.332064 
L 86.588721 297.183033 
L 87.057826 286.328493 
L 87.526931 278.292033 
L 87.996037 273.769155 
L 88.465142 273.134661 
L 88.934248 276.414907 
L 89.403353 283.291631 
L 90.341564 305.070128 
L 91.748881 342.661886 
L 92.217986 352.219402 
L 92.687092 358.830734 
L 93.156197 361.970062 
L 93.625303 361.409425 
L 94.094408 357.231125 
L 94.563514 349.813917 
L 95.501724 328.012263 
L 96.909041 291.886736 
L 97.378146 282.766388 
L 97.847252 276.390583 
L 98.316357 273.221334 
L 98.785463 273.464584 
L 99.254568 277.061277 
L 99.723674 283.699142 
L 100.661885 303.783313 
L 102.069201 338.888337 
L 103.007412 355.903708 
L 103.476517 360.559049 
L 103.945623 362.195843 
L 104.414728 360.743382 
L 104.883834 356.345188 
L 105.352939 349.342105 
L 106.29115 329.682443 
L 107.698467 296.510738 
L 108.636678 280.114337 
L 109.105783 275.261856 
L 109.574889 273.040522 
L 110.043994 273.542513 
L 110.513099 276.692046 
L 110.982205 282.256425 
L 111.920416 299.042043 
L 114.265943 348.235299 
L 114.735049 354.885333 
L 115.204154 359.501321 
L 115.67326 361.877983 
L 116.142365 361.934323 
L 116.611471 359.712438 
L 117.080576 355.369856 
L 117.549681 349.166271 
L 118.487892 332.6156 
L 120.364314 295.261635 
L 121.302525 281.3161 
L 121.771631 276.679567 
L 122.240736 273.848761 
L 122.709842 272.905145 
L 123.178947 273.846451 
L 123.648053 276.591041 
L 124.117158 280.98544 
L 125.055369 293.813363 
L 126.462685 318.721394 
L 127.870002 342.715666 
L 128.808213 354.444473 
L 129.277318 358.431379 
L 129.746424 361.014094 
L 130.215529 362.142693 
L 130.684635 361.817686 
L 131.15374 360.087064 
L 131.622846 357.041935 
L 132.091951 352.811007 
L 133.030162 341.455825 
L 134.437478 320.167513 
L 135.844795 298.78842 
L 136.783006 286.980666 
L 137.721217 278.417818 
L 138.190322 275.570944 
L 138.659428 273.742209 
L 139.128533 272.944691 
L 139.597639 273.166424 
L 140.066744 274.372342 
L 140.535849 276.50665 
L 141.004955 279.495518 
L 141.943166 287.66907 
L 142.881377 298.054859 
L 146.634221 343.347887 
L 147.572432 351.64635 
L 148.510642 357.668398 
L 148.979748 359.75055 
L 149.448853 361.195702 
L 149.917959 362.003582 
L 150.387064 362.183484 
L 150.85617 361.753424 
L 151.325275 360.73922 
L 151.794381 359.173528 
L 152.732592 354.54653 
L 153.670803 348.232722 
L 155.078119 336.495775 
L 159.769174 294.135902 
L 161.17649 284.656324 
L 162.114701 279.803237 
L 163.052912 276.22323 
L 163.991123 273.945794 
L 164.460228 273.292746 
L 164.929334 272.957154 
L 165.398439 272.931626 
L 165.867545 273.206906 
L 166.33665 273.772085 
L 166.805756 274.61481 
L 167.743967 277.077426 
L 168.682178 280.474336 
L 169.620389 284.67378 
L 171.027705 292.174835 
L 172.904127 303.687433 
L 178.064287 336.402156 
L 179.471603 343.943096 
L 180.87892 350.388269 
L 182.286236 355.553214 
L 183.224447 358.214963 
L 184.162658 360.214767 
L 185.100869 361.53036 
L 185.569975 361.926781 
L 186.03908 362.147362 
L 186.508185 362.191508 
L 186.977291 362.0591 
L 187.446396 361.750495 
L 187.915502 361.266526 
L 188.853713 359.778227 
L 189.791924 357.610537 
L 190.730135 354.787728 
L 191.668346 351.342296 
L 193.075662 345.098955 
L 194.482978 337.725806 
L 196.3594 326.533059 
L 202.457771 288.267044 
L 203.865088 281.454282 
L 204.803299 277.844057 
L 205.74151 275.136044 
L 206.210615 274.159577 
L 206.679721 273.453999 
L 207.148826 273.03231 
L 207.617932 272.90617 
L 208.087037 273.085684 
L 208.556143 273.579205 
L 209.025248 274.393112 
L 209.494353 275.531604 
L 210.432564 278.786933 
L 211.370775 283.327116 
L 212.308986 289.086203 
L 213.716303 299.734298 
L 215.592725 316.606198 
L 218.407357 342.634396 
L 219.345568 349.94757 
L 220.283779 355.876523 
L 221.22199 360.023029 
L 221.691096 361.317447 
L 222.160201 362.043257 
L 222.629307 362.171099 
L 223.098412 361.678935 
L 223.567518 360.553002 
L 224.036623 358.788687 
L 224.505728 356.391334 
L 225.443939 349.772595 
L 226.38215 340.96073 
L 227.789467 324.663746 
L 230.6041 290.093708 
L 231.54231 281.283125 
L 232.011416 277.899504 
L 232.480521 275.327672 
L 232.949627 273.649392 
L 233.418732 272.929828 
L 233.887838 273.21473 
L 234.356943 274.527885 
L 234.826049 276.868951 
L 235.295154 280.211765 
L 236.233365 289.662966 
L 237.171576 302.131658 
L 240.455314 350.299815 
L 241.393525 358.721579 
L 241.862631 361.123333 
L 242.331736 362.159959 
L 242.800842 361.761281 
L 243.269947 359.902586 
L 243.739053 356.608313 
L 244.208158 351.954189 
L 245.146369 339.125884 
L 246.553686 314.401801 
L 247.961002 290.185814 
L 248.899213 278.594151 
L 249.368318 275.001352 
L 249.837424 273.143499 
L 250.306529 273.139268 
L 250.775635 275.031367 
L 251.24474 278.780526 
L 251.713846 284.262909 
L 252.652057 299.520882 
L 255.466689 352.480929 
L 255.935795 357.792208 
L 256.4049 361.100888 
L 256.874006 362.196387 
L 257.343111 360.977562 
L 257.812217 357.463293 
L 258.281322 351.796997 
L 259.219533 335.18401 
L 261.565061 285.833341 
L 262.034166 279.192558 
L 262.503271 274.797397 
L 262.972377 272.951983 
L 263.441482 273.812537 
L 263.910588 277.37162 
L 264.379693 283.452116 
L 265.317904 301.659799 
L 267.194326 345.017092 
L 267.663432 353.140984 
L 268.132537 358.895532 
L 268.601643 361.851691 
L 269.070748 361.764305 
L 269.539853 358.595745 
L 270.008959 352.5256 
L 270.94717 333.435052 
L 272.823592 287.998912 
L 273.292697 280.028748 
L 273.761803 274.857606 
L 274.230908 272.913917 
L 274.700014 274.386058 
L 275.169119 279.20079 
L 275.638225 287.021696 
L 276.576436 309.157583 
L 277.983752 345.081244 
L 278.452857 353.89302 
L 278.921963 359.755424 
L 279.391068 362.15433 
L 279.860174 360.855902 
L 280.329279 355.932859 
L 280.798385 347.7653 
L 281.736596 324.575247 
L 283.143912 287.892836 
L 283.613018 279.436321 
L 284.082123 274.297516 
L 284.551229 272.955937 
L 285.020334 275.559976 
L 285.489439 281.907556 
L 285.958545 291.458112 
L 287.365861 329.939552 
L 288.304072 352.190896 
L 288.773178 359.040758 
L 289.242283 362.077333 
L 289.711389 360.996984 
L 290.180494 355.876933 
L 290.6496 347.173052 
L 291.587811 322.46892 
L 292.526021 295.884168 
L 292.995127 285.031784 
L 293.464232 277.256097 
L 293.933338 273.311609 
L 294.402443 273.590697 
L 294.871549 278.082444 
L 295.340654 286.370147 
L 296.278865 310.89586 
L 297.217076 337.975086 
L 297.686182 349.200621 
L 298.155287 357.359721 
L 298.624393 361.65109 
L 299.093498 361.648376 
L 299.562604 357.343813 
L 300.031709 349.150815 
L 300.96992 324.587179 
L 301.908131 297.320382 
L 302.377236 286.004822 
L 302.846342 277.78059 
L 303.315447 273.455897 
L 303.784553 273.455897 
L 304.253658 277.78059 
L 304.722764 286.004822 
L 305.660975 310.615995 
L 306.599186 337.864989 
L 307.068291 349.150815 
L 307.537396 357.343813 
L 308.006502 361.648376 
L 308.475607 361.65109 
L 308.944713 357.359721 
L 309.413818 349.200621 
L 310.352029 324.779275 
L 311.759346 286.370147 
L 312.228451 278.082444 
L 312.697557 273.590697 
L 313.166662 273.311609 
L 313.635768 277.256097 
L 314.104873 285.031784 
L 315.043084 308.771974 
L 316.4504 347.173052 
L 316.919506 355.876933 
L 317.388611 360.996984 
L 317.857717 362.077333 
L 318.326822 359.040758 
L 318.795928 352.190896 
L 319.734139 329.939552 
L 321.141455 291.458112 
L 321.610561 281.907556 
L 322.079666 275.559976 
L 322.548771 272.955937 
L 323.017877 274.297516 
L 323.486982 279.436321 
L 323.956088 287.892836 
L 324.894299 311.497528 
L 326.301615 347.7653 
L 326.770721 355.932859 
L 327.239826 360.855902 
L 327.708932 362.15433 
L 328.178037 359.755424 
L 328.647143 353.89302 
L 329.116248 345.081244 
L 330.054459 321.758267 
L 330.99267 297.268645 
L 331.930881 279.20079 
L 332.399986 274.386058 
L 332.869092 272.913917 
L 333.338197 274.857606 
L 333.807303 280.028748 
L 334.276408 287.998912 
L 335.214619 309.670488 
L 336.621936 343.944983 
L 337.091041 352.5256 
L 337.560147 358.595745 
L 338.029252 361.764305 
L 338.498357 361.851691 
L 338.967463 358.895532 
L 339.436568 353.140984 
L 340.374779 335.101555 
L 342.251201 291.711934 
L 342.720307 283.452116 
L 343.189412 277.37162 
L 343.658518 273.812537 
L 344.127623 272.951983 
L 344.596729 274.797397 
L 345.065834 279.192558 
L 345.534939 285.833341 
L 346.47315 304.045616 
L 348.349572 344.244369 
L 348.818678 351.796997 
L 349.287783 357.463293 
L 349.756889 360.977562 
L 350.225994 362.196387 
L 350.6951 361.100888 
L 351.164205 357.792208 
L 351.633311 352.480929 
L 352.571522 337.142062 
L 354.917049 291.271385 
L 355.85526 278.780526 
L 356.324365 275.031367 
L 356.793471 273.139268 
L 357.262576 273.143499 
L 357.731682 275.001352 
L 358.200787 278.594151 
L 358.669893 283.736166 
L 359.608104 297.658466 
L 362.422736 346.067583 
L 363.360947 356.608313 
L 363.830053 359.902586 
L 364.299158 361.761281 
L 364.768264 362.159959 
L 365.237369 361.123333 
L 365.706475 358.721579 
L 366.17558 355.065353 
L 367.113791 344.597953 
L 368.521107 323.872093 
L 370.397529 295.583513 
L 371.33574 284.503245 
L 372.273951 276.868951 
L 372.743057 274.527885 
L 373.212162 273.21473 
L 373.681268 272.929828 
L 374.150373 273.649392 
L 374.619479 275.327672 
L 375.088584 277.899504 
L 376.026795 285.383164 
L 376.965006 295.301363 
L 378.841428 318.735103 
L 380.248744 335.865667 
L 381.186955 345.617061 
L 382.125166 353.376919 
L 383.063377 358.788687 
L 383.532482 360.553002 
L 384.001588 361.678935 
L 384.470693 362.171099 
L 384.939799 362.043257 
L 385.408904 361.317447 
L 385.87801 360.023029 
L 386.347115 358.195705 
L 387.285326 353.110884 
L 388.223537 346.43781 
L 389.630854 334.360685 
L 393.852803 295.94511 
L 395.260119 286.060441 
L 396.19833 280.89935 
L 397.136541 276.996479 
L 398.074752 274.393112 
L 398.543857 273.579205 
L 399.012963 273.085684 
L 399.482068 272.90617 
L 399.951174 273.03231 
L 400.420279 273.453999 
L 400.889385 274.159577 
L 401.35849 275.136044 
L 402.296701 277.844057 
L 403.234912 281.454282 
L 404.642229 288.267044 
L 406.049545 296.338108 
L 408.395072 311.326922 
L 411.678811 332.291614 
L 413.555233 342.756691 
L 414.962549 349.398579 
L 416.369865 354.787728 
L 417.308076 357.610537 
L 418.246287 359.778227 
L 419.184498 361.266526 
L 419.653604 361.750495 
L 420.122709 362.0591 
L 420.591815 362.191508 
L 421.06092 362.147362 
L 421.530025 361.926781 
L 421.999131 361.53036 
L 422.937342 360.214767 
L 423.875553 358.214963 
L 424.813764 355.553214 
L 425.751975 352.25993 
L 427.159291 346.223321 
L 428.566608 339.0242 
L 430.443029 327.99841 
L 433.726768 306.722358 
L 436.072295 292.174835 
L 437.479611 284.67378 
L 438.417822 280.474336 
L 439.356033 277.077426 
L 440.294244 274.61481 
L 440.76335 273.772085 
L 441.232455 273.206906 
L 441.701561 272.931626 
L 442.170666 272.957154 
L 442.639772 273.292746 
L 443.108877 273.945794 
L 443.577983 274.921614 
L 444.516193 277.851166 
L 445.454404 282.07435 
L 446.392615 287.537722 
L 447.330826 294.135902 
L 448.738143 305.791786 
L 451.552776 332.192154 
L 452.960092 344.569472 
L 453.898303 351.575781 
L 454.836514 357.094849 
L 455.305619 359.173528 
L 455.774725 360.73922 
L 456.24383 361.753424 
L 456.712936 362.183484 
L 457.182041 362.003582 
L 457.651147 361.195702 
L 458.120252 359.75055 
L 458.589358 357.668398 
L 459.527568 351.64635 
L 460.465779 343.347887 
L 461.873096 327.564 
L 465.156834 287.66907 
L 466.095045 279.495518 
L 466.564151 276.50665 
L 467.033256 274.372342 
L 467.502361 273.166424 
L 467.971467 272.944691 
L 468.440572 273.742209 
L 468.909678 275.570944 
L 469.378783 278.417818 
L 470.316994 286.980666 
L 471.255205 298.78842 
L 473.131627 327.549672 
L 474.538943 347.554219 
L 475.477154 357.041935 
L 475.94626 360.087064 
L 476.415365 361.817686 
L 476.884471 362.142693 
L 477.353576 361.014094 
L 477.822682 358.431379 
L 478.291787 354.444473 
L 479.229998 342.715666 
L 480.168209 327.235662 
L 482.044631 293.813363 
L 482.982842 280.98544 
L 483.451947 276.591041 
L 483.921053 273.846451 
L 484.390158 272.905145 
L 484.859264 273.848761 
L 485.328369 276.679567 
L 485.797475 281.3161 
L 486.735686 295.261635 
L 488.143002 323.123429 
L 489.081213 341.445739 
L 490.019424 355.369856 
L 490.488529 359.712438 
L 490.957635 361.934323 
L 491.42674 361.877983 
L 491.895846 359.501321 
L 492.364951 354.885333 
L 492.834057 348.235299 
L 493.772268 330.233706 
L 495.64869 289.866113 
L 496.117795 282.256425 
L 496.586901 276.692046 
L 497.056006 273.542513 
L 497.525111 273.040522 
L 497.994217 275.261856 
L 498.463322 280.114337 
L 498.932428 287.337078 
L 499.870639 307.078742 
L 501.277955 340.242519 
L 502.216166 356.345188 
L 502.685272 360.743382 
L 503.154377 362.195843 
L 503.623483 360.559049 
L 504.092588 355.903708 
L 504.561694 348.516875 
L 505.499904 327.681482 
L 506.907221 292.843416 
L 507.376326 283.699142 
L 507.845432 277.061277 
L 508.314537 273.464584 
L 508.783643 273.221334 
L 509.252748 276.390583 
L 509.721854 282.766388 
L 510.660065 303.063363 
L 512.536486 349.813917 
L 513.005592 357.231125 
L 513.474697 361.409425 
L 513.943803 361.970062 
L 514.412908 358.830734 
L 514.882014 352.219402 
L 515.820225 330.9434 
L 517.227541 293.136165 
L 517.696647 283.291631 
L 518.165752 276.414907 
L 518.634858 273.134661 
L 519.103963 273.769155 
L 519.573069 278.292033 
L 520.042174 286.328493 
L 520.980385 309.897092 
L 522.387701 347.527519 
L 522.856807 356.059311 
L 523.325912 361.063388 
L 523.795018 362.056026 
L 524.264123 358.922029 
L 524.733229 351.930492 
L 525.67144 329.21592 
L 527.078756 290.132833 
L 527.547861 280.704442 
L 528.016967 274.771278 
L 528.486072 272.914212 
L 528.955178 275.326766 
L 529.424283 281.792946 
L 529.893389 291.704633 
L 532.238916 353.721567 
L 532.708022 360.025012 
L 533.177127 362.197026 
L 533.646233 360.0176 
L 534.115338 353.691869 
L 534.584444 343.831723 
L 536.929971 281.447567 
L 537.399076 275.094558 
L 537.868182 272.905135 
L 537.868182 272.905135 
" clip-path="url(#pe84068fafa)" style="fill: none; stroke: #0000ff; stroke-linecap: square"/>
   </g>
   <g id="patch_6">
    <path d="M 45.8 384.52 
L 45.8 219.33 
" style="fill: none; stroke: #000000; stroke-width: 0.8; stroke-linejoin: miter; stroke-linecap: square"/>
   </g>
   <g id="patch_7">
    <path d="M 45.8 384.52 
L 561.3 384.52 
" style="fill: none; stroke: #000000; stroke-width: 0.8; stroke-linejoin: miter; stroke-linecap: square"/>
   </g>
   <g id="patch_8">
    <path d="M 69.231818 243.689782 
Q 69.231818 252.8349 69.231818 260.861983 
" style="fill: none; stroke: #000000; stroke-linecap: round"/>
    <path d="M 71.231818 256.861983 
L 69.231818 260.861983 
L 67.231818 256.861983 
" style="fill: none; stroke: #000000; stroke-linecap: round"/>
   </g>
   <g id="text_27">
    <!-- High Freq -->
    <g style="fill: #ff0000" transform="translate(46.670881 237.188378) scale(0.1 -0.1)">
     <defs>
      <path id="NotoSansKR-Regular-48" d="M 646 0 
L 646 4691 
L 1235 4691 
L 1235 2726 
L 3424 2726 
L 3424 4691 
L 4019 4691 
L 4019 0 
L 3424 0 
L 3424 2214 
L 1235 2214 
L 1235 0 
L 646 0 
z
" transform="scale(0.015625)"/>
      <path id="NotoSansKR-Regular-68" d="M 589 0 
L 589 5094 
L 1178 5094 
L 1178 3699 
L 1152 2982 
Q 1395 3226 1670 3395 
Q 1946 3565 2304 3565 
Q 2854 3565 3110 3216 
Q 3366 2867 3366 2202 
L 3366 0 
L 2784 0 
L 2784 2125 
Q 2784 2618 2627 2835 
Q 2470 3053 2125 3053 
Q 1856 3053 1645 2918 
Q 1434 2784 1178 2522 
L 1178 0 
L 589 0 
z
" transform="scale(0.015625)"/>
      <path id="NotoSansKR-Regular-46" d="M 646 0 
L 646 4691 
L 3347 4691 
L 3347 4192 
L 1235 4192 
L 1235 2605 
L 3027 2605 
L 3027 2106 
L 1235 2106 
L 1235 0 
L 646 0 
z
" transform="scale(0.015625)"/>
      <path id="NotoSansKR-Regular-72" d="M 589 0 
L 589 3475 
L 1069 3475 
L 1126 2842 
L 1139 2842 
Q 1318 3174 1577 3369 
Q 1837 3565 2125 3565 
Q 2246 3565 2332 3549 
Q 2419 3533 2496 3488 
L 2387 2982 
Q 2298 3008 2227 3024 
Q 2157 3040 2048 3040 
Q 1837 3040 1593 2857 
Q 1350 2675 1178 2234 
L 1178 0 
L 589 0 
z
" transform="scale(0.015625)"/>
      <path id="NotoSansKR-Regular-71" d="M 2790 -1466 
L 2790 -230 
L 2822 403 
Q 2611 198 2345 57 
Q 2080 -83 1773 -83 
Q 1338 -83 1014 128 
Q 691 339 515 745 
Q 339 1152 339 1734 
Q 339 2298 550 2707 
Q 762 3117 1104 3341 
Q 1446 3565 1843 3565 
Q 2150 3565 2380 3459 
Q 2611 3354 2842 3149 
L 2854 3149 
L 2912 3475 
L 3379 3475 
L 3379 -1466 
L 2790 -1466 
z
M 1901 410 
Q 2144 410 2361 528 
Q 2579 646 2790 883 
L 2790 2707 
Q 2573 2906 2368 2989 
Q 2163 3072 1946 3072 
Q 1670 3072 1443 2902 
Q 1216 2733 1078 2435 
Q 941 2138 941 1741 
Q 941 1325 1056 1024 
Q 1171 723 1385 566 
Q 1600 410 1901 410 
z
" transform="scale(0.015625)"/>
     </defs>
     <use xlink:href="#NotoSansKR-Regular-48"/>
     <use xlink:href="#NotoSansKR-Regular-69" transform="translate(72.799988 0)"/>
     <use xlink:href="#NotoSansKR-Regular-67" transform="translate(100.299973 0)"/>
     <use xlink:href="#NotoSansKR-Regular-68" transform="translate(156.699966 0)"/>
     <use xlink:href="#NotoSansKR-Regular-20" transform="translate(217.399963 0)"/>
     <use xlink:href="#NotoSansKR-Regular-46" transform="translate(239.799957 0)"/>
     <use xlink:href="#NotoSansKR-Regular-72" transform="translate(294.999954 0)"/>
     <use xlink:href="#NotoSansKR-Regular-65" transform="translate(333.799942 0)"/>
     <use xlink:href="#NotoSansKR-Regular-71" transform="translate(389.199936 0)"/>
    </g>
   </g>
   <g id="patch_9">
    <path d="M 186.390909 243.482863 
Q 186.390909 252.730017 186.390909 260.859136 
" style="fill: none; stroke: #000000; stroke-linecap: round"/>
    <path d="M 188.390909 256.859136 
L 186.390909 260.859136 
L 184.390909 256.859136 
" style="fill: none; stroke: #000000; stroke-linecap: round"/>
   </g>
   <g id="text_28">
    <!-- Low Freq -->
    <g style="fill: #008000" transform="translate(164.945597 237.188378) scale(0.1 -0.1)">
     <defs>
      <path id="NotoSansKR-Regular-4c" d="M 646 0 
L 646 4691 
L 1235 4691 
L 1235 506 
L 3290 506 
L 3290 0 
L 646 0 
z
" transform="scale(0.015625)"/>
      <path id="NotoSansKR-Regular-6f" d="M 1939 -83 
Q 1517 -83 1145 131 
Q 774 346 553 752 
Q 333 1158 333 1734 
Q 333 2317 553 2723 
Q 774 3130 1145 3347 
Q 1517 3565 1939 3565 
Q 2259 3565 2550 3443 
Q 2842 3322 3066 3085 
Q 3290 2848 3418 2509 
Q 3546 2170 3546 1734 
Q 3546 1158 3322 752 
Q 3098 346 2733 131 
Q 2368 -83 1939 -83 
z
M 1939 403 
Q 2240 403 2467 569 
Q 2694 736 2822 1037 
Q 2950 1338 2950 1734 
Q 2950 2138 2822 2438 
Q 2694 2739 2467 2905 
Q 2240 3072 1939 3072 
Q 1638 3072 1411 2905 
Q 1184 2739 1059 2438 
Q 934 2138 934 1734 
Q 934 1338 1059 1037 
Q 1184 736 1411 569 
Q 1638 403 1939 403 
z
" transform="scale(0.015625)"/>
      <path id="NotoSansKR-Regular-77" d="M 1139 0 
L 173 3475 
L 768 3475 
L 1286 1466 
Q 1344 1216 1392 979 
Q 1440 742 1491 499 
L 1523 499 
Q 1581 742 1635 979 
Q 1690 1216 1754 1466 
L 2298 3475 
L 2867 3475 
L 3411 1466 
Q 3475 1216 3536 979 
Q 3597 742 3654 499 
L 3686 499 
Q 3738 742 3789 979 
Q 3840 1216 3898 1466 
L 4403 3475 
L 4966 3475 
L 4026 0 
L 3315 0 
L 2816 1875 
Q 2752 2118 2694 2364 
Q 2637 2611 2579 2874 
L 2547 2874 
Q 2490 2611 2435 2361 
Q 2381 2112 2310 1862 
L 1818 0 
L 1139 0 
z
" transform="scale(0.015625)"/>
     </defs>
     <use xlink:href="#NotoSansKR-Regular-4c"/>
     <use xlink:href="#NotoSansKR-Regular-6f" transform="translate(54.299988 0)"/>
     <use xlink:href="#NotoSansKR-Regular-77" transform="translate(114.899979 0)"/>
     <use xlink:href="#NotoSansKR-Regular-20" transform="translate(195.09996 0)"/>
     <use xlink:href="#NotoSansKR-Regular-46" transform="translate(217.499954 0)"/>
     <use xlink:href="#NotoSansKR-Regular-72" transform="translate(272.699951 0)"/>
     <use xlink:href="#NotoSansKR-Regular-65" transform="translate(311.499939 0)"/>
     <use xlink:href="#NotoSansKR-Regular-71" transform="translate(366.899933 0)"/>
    </g>
   </g>
   <g id="text_29">
    <!-- FM Signal $x_{FM}(t)$ (Accordion Effect) -->
    <g transform="translate(209.53 213.33) scale(0.12 -0.12)">
     <defs>
      <path id="STIXGeneral-Italic-1d639" d="M 3482 2899 
L 2202 1510 
L 2893 0 
L 2291 0 
L 1786 1120 
L 794 0 
L 192 0 
L 1600 1530 
L 986 2899 
L 1587 2899 
L 2022 1933 
L 2880 2899 
L 3482 2899 
z
" transform="scale(0.015625)"/>
      <path id="STIXGeneral-Italic-1d60d" d="M 4346 4237 
L 4282 3763 
L 1965 3763 
L 1645 2470 
L 3539 2470 
L 3418 1990 
L 1523 1990 
L 1030 0 
L 474 0 
L 1530 4237 
L 4346 4237 
z
" transform="scale(0.015625)"/>
      <path id="STIXGeneral-Italic-1d614" d="M 5971 4237 
L 4915 0 
L 4371 0 
L 5235 3475 
L 2765 0 
L 2630 0 
L 1882 3462 
L 1024 0 
L 480 0 
L 1536 4237 
L 2323 4237 
L 2989 1152 
L 5184 4237 
L 5971 4237 
z
" transform="scale(0.015625)"/>
      <path id="NotoSansKR-Regular-63" d="M 1958 -83 
Q 1498 -83 1130 131 
Q 762 346 547 752 
Q 333 1158 333 1734 
Q 333 2317 563 2723 
Q 794 3130 1178 3347 
Q 1562 3565 2003 3565 
Q 2342 3565 2588 3443 
Q 2835 3322 3014 3155 
L 2720 2771 
Q 2573 2906 2403 2989 
Q 2234 3072 2029 3072 
Q 1715 3072 1465 2905 
Q 1216 2739 1075 2438 
Q 934 2138 934 1734 
Q 934 1338 1072 1037 
Q 1210 736 1450 569 
Q 1690 403 2010 403 
Q 2253 403 2457 502 
Q 2662 602 2829 749 
L 3085 352 
Q 2848 147 2560 32 
Q 2272 -83 1958 -83 
z
" transform="scale(0.015625)"/>
      <path id="NotoSansKR-Regular-45" d="M 646 0 
L 646 4691 
L 3347 4691 
L 3347 4192 
L 1235 4192 
L 1235 2720 
L 3014 2720 
L 3014 2214 
L 1235 2214 
L 1235 506 
L 3418 506 
L 3418 0 
L 646 0 
z
" transform="scale(0.015625)"/>
      <path id="NotoSansKR-Regular-66" d="M 685 0 
L 685 4032 
Q 685 4384 793 4640 
Q 902 4896 1126 5037 
Q 1350 5178 1696 5178 
Q 1856 5178 2006 5146 
Q 2157 5114 2278 5069 
L 2150 4614 
Q 1958 4710 1760 4710 
Q 1510 4710 1388 4537 
Q 1267 4365 1267 4026 
L 1267 0 
L 685 0 
z
M 211 3002 
L 211 3443 
L 710 3475 
L 2003 3475 
L 2003 3002 
L 211 3002 
z
" transform="scale(0.015625)"/>
     </defs>
     <use xlink:href="#NotoSansKR-Regular-46" transform="translate(0 0.203125)"/>
     <use xlink:href="#NotoSansKR-Regular-4d" transform="translate(55.199997 0.203125)"/>
     <use xlink:href="#NotoSansKR-Regular-20" transform="translate(136.399979 0.203125)"/>
     <use xlink:href="#NotoSansKR-Regular-53" transform="translate(158.799973 0.203125)"/>
     <use xlink:href="#NotoSansKR-Regular-69" transform="translate(218.399963 0.203125)"/>
     <use xlink:href="#NotoSansKR-Regular-67" transform="translate(245.899948 0.203125)"/>
     <use xlink:href="#NotoSansKR-Regular-6e" transform="translate(302.299942 0.203125)"/>
     <use xlink:href="#NotoSansKR-Regular-61" transform="translate(363.299927 0.203125)"/>
     <use xlink:href="#NotoSansKR-Regular-6c" transform="translate(419.599915 0.203125)"/>
     <use xlink:href="#NotoSansKR-Regular-20" transform="translate(447.999908 0.203125)"/>
     <use xlink:href="#STIXGeneral-Italic-1d639" transform="translate(470.399902 0.203125)"/>
     <use xlink:href="#STIXGeneral-Italic-1d60d" transform="translate(518.599899 -13.385937) scale(0.7)"/>
     <use xlink:href="#STIXGeneral-Italic-1d614" transform="translate(556.049889 -13.385937) scale(0.7)"/>
     <use xlink:href="#STIXGeneral-Regular-28" transform="translate(617.324724 0.203125)"/>
     <use xlink:href="#STIXGeneral-Italic-1d635" transform="translate(650.624712 0.203125)"/>
     <use xlink:href="#STIXGeneral-Regular-29" transform="translate(679.724702 0.203125)"/>
     <use xlink:href="#NotoSansKR-Regular-20" transform="translate(713.02469 0.203125)"/>
     <use xlink:href="#NotoSansKR-Regular-28" transform="translate(735.424684 0.203125)"/>
     <use xlink:href="#NotoSansKR-Regular-41" transform="translate(769.224672 0.203125)"/>
     <use xlink:href="#NotoSansKR-Regular-63" transform="translate(830.02466 0.203125)"/>
     <use xlink:href="#NotoSansKR-Regular-63" transform="translate(881.024644 0.203125)"/>
     <use xlink:href="#NotoSansKR-Regular-6f" transform="translate(932.024629 0.203125)"/>
     <use xlink:href="#NotoSansKR-Regular-72" transform="translate(992.62462 0.203125)"/>
     <use xlink:href="#NotoSansKR-Regular-64" transform="translate(1031.424608 0.203125)"/>
     <use xlink:href="#NotoSansKR-Regular-69" transform="translate(1093.424593 0.203125)"/>
     <use xlink:href="#NotoSansKR-Regular-6f" transform="translate(1120.924577 0.203125)"/>
     <use xlink:href="#NotoSansKR-Regular-6e" transform="translate(1181.524568 0.203125)"/>
     <use xlink:href="#NotoSansKR-Regular-20" transform="translate(1242.524553 0.203125)"/>
     <use xlink:href="#NotoSansKR-Regular-45" transform="translate(1264.924547 0.203125)"/>
     <use xlink:href="#NotoSansKR-Regular-66" transform="translate(1323.824541 0.203125)"/>
     <use xlink:href="#NotoSansKR-Regular-66" transform="translate(1356.324525 0.203125)"/>
     <use xlink:href="#NotoSansKR-Regular-65" transform="translate(1388.82451 0.203125)"/>
     <use xlink:href="#NotoSansKR-Regular-63" transform="translate(1444.224504 0.203125)"/>
     <use xlink:href="#NotoSansKR-Regular-74" transform="translate(1495.224489 0.203125)"/>
     <use xlink:href="#NotoSansKR-Regular-29" transform="translate(1532.924486 0.203125)"/>
    </g>
   </g>
  </g>
 </g>
 <defs>
  <clipPath id="peb7746a311">
   <rect x="45.8" y="22.8" width="515.5" height="165.19"/>
  </clipPath>
  <clipPath id="pe84068fafa">
   <rect x="45.8" y="219.33" width="515.5" height="165.19"/>
  </clipPath>
 </defs>
</svg>
